<?xml version="1.0" encoding="UTF-8" standalone="no"?>
<!-- Created with Inkscape (http://www.inkscape.org/) -->

<svg
   xmlns:dc="http://purl.org/dc/elements/1.1/"
   xmlns:cc="http://creativecommons.org/ns#"
   xmlns:rdf="http://www.w3.org/1999/02/22-rdf-syntax-ns#"
   xmlns:svg="http://www.w3.org/2000/svg"
   xmlns="http://www.w3.org/2000/svg"
   xmlns:xlink="http://www.w3.org/1999/xlink"
   xmlns:sodipodi="http://sodipodi.sourceforge.net/DTD/sodipodi-0.dtd"
   xmlns:inkscape="http://www.inkscape.org/namespaces/inkscape"
   width="1500"
   height="1000"
   id="svg2"
   version="1.1"
   inkscape:version="0.48.4 r9939"
   sodipodi:docname="gbeer.svg">
  <defs
     id="defs4" />
  <sodipodi:namedview
     id="base"
     pagecolor="#ffffff"
     bordercolor="#666666"
     borderopacity="1.0"
     inkscape:pageopacity="0.0"
     inkscape:pageshadow="2"
     inkscape:zoom="0.7"
     inkscape:cx="728.43228"
     inkscape:cy="498.48476"
     inkscape:document-units="px"
     inkscape:current-layer="layer1"
     showgrid="false"
     fit-margin-top="0"
     fit-margin-left="0"
     fit-margin-right="0"
     fit-margin-bottom="0"
     inkscape:window-width="1920"
     inkscape:window-height="1017"
     inkscape:window-x="-8"
     inkscape:window-y="-8"
     inkscape:window-maximized="1" />
  <metadata
     id="metadata7">
    <rdf:RDF>
      <cc:Work
         rdf:about="">
        <dc:format>image/svg+xml</dc:format>
        <dc:type
           rdf:resource="http://purl.org/dc/dcmitype/StillImage" />
        <dc:title />
      </cc:Work>
    </rdf:RDF>
  </metadata>
  <g
     inkscape:label="Layer 1"
     inkscape:groupmode="layer"
     id="layer1"
     transform="translate(127.14286,-223.79076)">
    <image
       y="223.79076"
       x="-127.14286"
       id="qwe"
       xlink:href="file:///T:/SCRAN24/NEW%20PHOTOS%20FOR%20SCRAN/glasses%20&amp;%20takeaway%20cups/glasses/gbeer.jpg"
       height="1000"
       width="1500"
       inkscape:label="#image2993" />
    <path
       style="fill:none;stroke:#000000;stroke-width:1px;stroke-linecap:butt;stroke-linejoin:miter;stroke-opacity:1"
       d="m 102.85714,224.28571 c 68.57143,-2.85714 161.42857,-7.14285 161.42857,-7.14285 l 80.00001,7.14286 18.57142,198.57142 L 330,535.71429 l 1.42857,159.99999 -60,35.71429 -90,1.42858 L 128.57143,702.85714 130,550 92.857143,440 z"
       id="area_1"
       inkscape:connector-curvature="0"
       transform="translate(-127.14286,223.79076)"
       sodipodi:nodetypes="cccccccccccc"
       inkscape:label="#path3007" />
    <path
       style="fill:none;stroke:#000000;stroke-width:1px;stroke-linecap:butt;stroke-linejoin:miter;stroke-opacity:1"
       d="m 475.71429,281.42857 c 8.57142,-5.71428 110,-11.42857 110,-11.42857 l 90,2.85714 32.85714,11.42857 17.14286,154.28572 L 691.42857,540 l -55.71428,50 -2.85715,68.57143 57.14286,10 20,24.28571 -35.71429,34.28571 -101.42857,5.71429 -81.42857,-15.71428 -14.28572,-30 L 500,664.28571 557.14286,651.42857 550,594.28571 l -72.85714,-75.71428 -20,-101.42857 z"
       id="area_7"
       inkscape:connector-curvature="0"
       transform="translate(-127.14286,223.79076)"
       sodipodi:nodetypes="cccccccccccccccccccc"
       inkscape:label="#path3009" />
    <path
       style="fill:none;stroke:#000000;stroke-width:1px;stroke-linecap:butt;stroke-linejoin:miter;stroke-opacity:1"
       d="M 825.71429,300 880,288.57143 965.71429,290 1030,298.57143 1038.5714,312.85714 1014.2857,680 l -17.14284,41.42857 -45.71429,2.85714 -60,1.42858 -52.85714,-32.85715 z"
       id="area_3"
       inkscape:connector-curvature="0"
       transform="translate(-127.14286,223.79076)"
       inkscape:label="#path3011" />
    <path
       style="fill:none;stroke:#000000;stroke-width:1px;stroke-linecap:butt;stroke-linejoin:miter;stroke-opacity:1"
       d="m 1142.8572,332.85714 92.8571,-7.14285 121.4286,8.57142 5.7142,15.71429 0,115.71429 -25.7142,82.85714 -10,164.28572 -35.7144,18.57142 -89.9999,-4.28572 -48.5715,-18.57142 2.8572,-152.85714 L 1131.4286,460 z"
       id="area_2"
       inkscape:connector-curvature="0"
       transform="translate(-127.14286,223.79076)"
       sodipodi:nodetypes="ccccccccccccc"
       inkscape:label="#path3013" />
    <text
       xml:space="preserve"
       style="font-size:40px;font-style:normal;font-weight:normal;line-height:125%;letter-spacing:0px;word-spacing:0px;fill:#000000;fill-opacity:1;stroke:none;font-family:Sans"
       x="594.28571"
       y="87.14286"
       id="navigation"
       sodipodi:linespacing="125%"
       transform="translate(-127.14286,223.79076)"
       inkscape:label="#text3015"><tspan
         sodipodi:role="line"
         id="tspan3017"
         x="594.28571"
         y="87.14286">1 7 3 2</tspan></text>
  </g>
</svg>
