<?xml version="1.0" encoding="UTF-8" standalone="no"?>
<!-- Created with Inkscape (http://www.inkscape.org/) -->

<svg
   xmlns:dc="http://purl.org/dc/elements/1.1/"
   xmlns:cc="http://creativecommons.org/ns#"
   xmlns:rdf="http://www.w3.org/1999/02/22-rdf-syntax-ns#"
   xmlns:svg="http://www.w3.org/2000/svg"
   xmlns="http://www.w3.org/2000/svg"
   xmlns:xlink="http://www.w3.org/1999/xlink"
   xmlns:sodipodi="http://sodipodi.sourceforge.net/DTD/sodipodi-0.dtd"
   xmlns:inkscape="http://www.inkscape.org/namespaces/inkscape"
   width="1500"
   height="1000"
   id="svg3250"
   version="1.1"
   inkscape:version="0.48.4 r9939"
   sodipodi:docname="gcolddrinks.svg">
  <defs
     id="defs3252" />
  <sodipodi:namedview
     id="base"
     pagecolor="#ffffff"
     bordercolor="#666666"
     borderopacity="1.0"
     inkscape:pageopacity="0.0"
     inkscape:pageshadow="2"
     inkscape:zoom="0.7"
     inkscape:cx="745.74802"
     inkscape:cy="500.89507"
     inkscape:document-units="px"
     inkscape:current-layer="layer1"
     showgrid="false"
     fit-margin-top="0"
     fit-margin-left="0"
     fit-margin-right="0"
     fit-margin-bottom="0"
     inkscape:window-width="1920"
     inkscape:window-height="1017"
     inkscape:window-x="-8"
     inkscape:window-y="-8"
     inkscape:window-maximized="1" />
  <metadata
     id="metadata3255">
    <rdf:RDF>
      <cc:Work
         rdf:about="">
        <dc:format>image/svg+xml</dc:format>
        <dc:type
           rdf:resource="http://purl.org/dc/dcmitype/StillImage" />
        <dc:title />
      </cc:Work>
    </rdf:RDF>
  </metadata>
  <g
     inkscape:label="Layer 1"
     inkscape:groupmode="layer"
     id="layer1"
     transform="translate(375,-32.362183)">
    <image
       y="32.362183"
       x="-375"
       id="qwe"
       xlink:href="file:///T:/SCRAN24/NEW%20PHOTOS%20FOR%20SCRAN/glasses%20&amp;%20takeaway%20cups/Takeaway%20cups/gcolddrinks.jpg"
       height="1000"
       width="1500"
       inkscape:label="#image3266" />
    <path
       style="fill:none;stroke:#000000;stroke-width:1px;stroke-linecap:butt;stroke-linejoin:miter;stroke-opacity:1"
       d="m 107.14286,391.42857 30,365.71429 42.85714,5.71428 47.14286,0 47.14285,-11.42857 30,-360 -91.42857,-5.71428 L 150,387.14286 z"
       id="area_8"
       inkscape:connector-curvature="0"
       transform="translate(-375,32.362183)"
       inkscape:label="#path3269" />
    <path
       style="fill:none;stroke:#000000;stroke-width:1px;stroke-linecap:butt;stroke-linejoin:miter;stroke-opacity:1"
       d="m 325.71429,465.71429 2.85714,12.85714 22.85714,272.85714 -2.85714,7.14286 41.42857,8.57143 35.71429,1.42857 42.85714,-2.85714 20,-10 L 514.28571,467.14286 470,458.57143 407.14286,455.71429 350,458.57143 z"
       id="area_9"
       inkscape:connector-curvature="0"
       transform="translate(-375,32.362183)"
       sodipodi:nodetypes="ccccccccccccc"
       inkscape:label="#path3271" />
    <path
       style="fill:none;stroke:#000000;stroke-width:1px;stroke-linecap:butt;stroke-linejoin:miter;stroke-opacity:1"
       d="M 552.85714,551.42857 557.14286,560 585.71429,758.57143 610,770 l 42.85714,4.28571 34.28572,-5.71428 21.42857,-10 L 740,547.14286 l -42.85714,-10 -65.71429,-2.85715 L 570,541.42857 z"
       id="area_10"
       inkscape:connector-curvature="0"
       transform="translate(-375,32.362183)"
       inkscape:label="#path3273" />
    <path
       style="fill:none;stroke:#000000;stroke-width:1px;stroke-linecap:butt;stroke-linejoin:miter;stroke-opacity:1"
       d="m 795.71428,445.71429 2.85715,11.42856 2.85714,24.28572 15.71429,254.28572 0,11.42857 0,11.42857 31.42857,11.42857 48.57143,2.85714 41.42857,-8.57143 12.85714,-5.71428 1.42857,-21.42857 0,-5.71429 L 984.28572,450 951.42857,444.28571 900,438.57143 l -72.85714,2.85714 z"
       id="area_11"
       inkscape:connector-curvature="0"
       transform="translate(-375,32.362183)"
       sodipodi:nodetypes="ccccccccccccccccc"
       inkscape:label="#path3275" />
    <path
       style="fill:none;stroke:#000000;stroke-width:1px;stroke-linecap:butt;stroke-linejoin:miter;stroke-opacity:1"
       d="m 1015.7143,510 45.7143,-10 61.4285,0 68.5715,2.85714 31.4285,10 0,14.28572 -4.2857,11.42857 L 1181.4286,770 l -45.7143,10 -57.1429,-4.28571 -31.4285,-11.42858 -1.4286,-20 z"
       id="area_12"
       inkscape:connector-curvature="0"
       transform="translate(-375,32.362183)"
       inkscape:label="#path3277" />
    <path
       style="fill:none;stroke:#000000;stroke-width:1px;stroke-linecap:butt;stroke-linejoin:miter;stroke-opacity:1"
       d="m 1248.5714,544.28571 42.8571,-11.42857 97.143,2.85715 58.5713,14.28571 -8.5714,18.57143 -32.8571,205.71428 -34.2857,10 -65.7143,-2.85714 -34.2857,-15.71429 z"
       id="area_13"
       inkscape:connector-curvature="0"
       transform="translate(-375,32.362183)"
       sodipodi:nodetypes="cccccccccc"
       inkscape:label="#path3279" />
    <text
       xml:space="preserve"
       style="font-size:40px;font-style:normal;font-weight:normal;line-height:125%;letter-spacing:0px;word-spacing:0px;fill:#000000;fill-opacity:1;stroke:none;font-family:Sans"
       x="582.85712"
       y="82.85714"
       id="navigation"
       sodipodi:linespacing="125%"
       transform="translate(-375,32.362183)"
       inkscape:label="#text3281"><tspan
         sodipodi:role="line"
         id="tspan3283"
         x="582.85712"
         y="82.85714">8 9 10 11 12 13</tspan></text>
  </g>
</svg>
