<?xml version="1.0" encoding="UTF-8" standalone="no"?>
<!-- Created with Inkscape (http://www.inkscape.org/) -->

<svg
   xmlns:dc="http://purl.org/dc/elements/1.1/"
   xmlns:cc="http://creativecommons.org/ns#"
   xmlns:rdf="http://www.w3.org/1999/02/22-rdf-syntax-ns#"
   xmlns:svg="http://www.w3.org/2000/svg"
   xmlns="http://www.w3.org/2000/svg"
   xmlns:xlink="http://www.w3.org/1999/xlink"
   xmlns:sodipodi="http://sodipodi.sourceforge.net/DTD/sodipodi-0.dtd"
   xmlns:inkscape="http://www.inkscape.org/namespaces/inkscape"
   width="1500"
   height="1000"
   id="svg3149"
   version="1.1"
   inkscape:version="0.48.4 r9939"
   sodipodi:docname="gsoftdrnk.svg">
  <defs
     id="defs3151" />
  <sodipodi:namedview
     id="base"
     pagecolor="#ffffff"
     bordercolor="#666666"
     borderopacity="1.0"
     inkscape:pageopacity="0.0"
     inkscape:pageshadow="2"
     inkscape:zoom="0.7"
     inkscape:cx="710.73495"
     inkscape:cy="480.48979"
     inkscape:document-units="px"
     inkscape:current-layer="layer1"
     showgrid="false"
     fit-margin-top="0"
     fit-margin-left="0"
     fit-margin-right="0"
     fit-margin-bottom="0"
     inkscape:window-width="1920"
     inkscape:window-height="1017"
     inkscape:window-x="-8"
     inkscape:window-y="-8"
     inkscape:window-maximized="1" />
  <metadata
     id="metadata3154">
    <rdf:RDF>
      <cc:Work
         rdf:about="">
        <dc:format>image/svg+xml</dc:format>
        <dc:type
           rdf:resource="http://purl.org/dc/dcmitype/StillImage" />
        <dc:title />
      </cc:Work>
    </rdf:RDF>
  </metadata>
  <g
     inkscape:label="Layer 1"
     inkscape:groupmode="layer"
     id="layer1"
     transform="translate(487.14285,-292.36218)">
    <image
       y="292.36218"
       x="-487.14285"
       id="qwe"
       xlink:href="file:///T:/SCRAN24/NEW%20PHOTOS%20FOR%20SCRAN/glasses%20&amp;%20takeaway%20cups/glasses/gsoftdrnk.jpg"
       height="1000"
       width="1500"
       inkscape:label="#image3165" />
    <path
       style="fill:none;stroke:#000000;stroke-width:1px;stroke-linecap:butt;stroke-linejoin:miter;stroke-opacity:1"
       d="m 85.714286,358.57142 92.857144,-4.28571 104.28571,4.28572 21.42857,178.57143 -28.57142,111.42857 5.71428,122.85714 -75.71428,22.85714 L 118.57143,790 100,780 104.28571,645.71429 74.285714,547.14286 72.857143,475.71429 81.428572,360 z"
       id="area_1"
       inkscape:connector-curvature="0"
       transform="translate(-487.14285,292.36218)"
       sodipodi:nodetypes="cccccccccccccc"
       inkscape:label="#path3168" />
    <path
       style="fill:none;stroke:#000000;stroke-width:1px;stroke-linecap:butt;stroke-linejoin:miter;stroke-opacity:1"
       d="M 335.71429,450 394.28571,442.85714 471.42857,440 520,451.42858 l 1.42857,55.71428 2.85714,41.42857 L 507.14286,620 504.28572,777.14286 464.28571,791.42857 401.42857,790 358.57143,774.28572 358.57142,682.85715 354.28571,620 330,554.28571 l 0,-47.14285 z"
       id="area_2"
       inkscape:connector-curvature="0"
       transform="translate(-487.14285,292.36218)"
       sodipodi:nodetypes="cccccccccccccccc"
       inkscape:label="#path3170" />
    <path
       style="fill:none;stroke:#000000;stroke-width:1px;stroke-linecap:butt;stroke-linejoin:miter;stroke-opacity:1"
       d="m 552.85714,422.85714 44.28572,-7.14285 60,-2.85715 67.14285,5.71429 14.28572,5.71428 L 720,771.42857 680,800 604.28571,797.14286 568.57143,775.71429 z"
       id="area_3"
       inkscape:connector-curvature="0"
       transform="translate(-487.14285,292.36218)"
       inkscape:label="#path3172" />
    <path
       style="fill:none;stroke:#000000;stroke-width:1px;stroke-linecap:butt;stroke-linejoin:miter;stroke-opacity:1"
       d="m 768.57143,470 60,-14.28571 57.14286,2.85714 L 937.14286,470 921.42857,777.14286 887.14286,794.28571 808.57143,790 771.42858,770 z"
       id="area_4"
       inkscape:connector-curvature="0"
       transform="translate(-487.14285,292.36218)"
       sodipodi:nodetypes="ccccccccc"
       inkscape:label="#path3174" />
    <path
       style="fill:none;stroke:#000000;stroke-width:1px;stroke-linecap:butt;stroke-linejoin:miter;stroke-opacity:1"
       d="m 964.28571,545.71428 141.42859,-11.42857 100,12.85715 0,110 -51.4286,135.71428 -67.1429,8.57144 -71.4285,-12.85715 -47.14287,-122.85715 z"
       id="area_5"
       inkscape:connector-curvature="0"
       transform="translate(-487.14285,292.36218)"
       sodipodi:nodetypes="ccccccccc"
       inkscape:label="#path3176" />
    <path
       style="fill:none;stroke:#000000;stroke-width:1px;stroke-linecap:butt;stroke-linejoin:miter;stroke-opacity:1"
       d="m 1237.1428,564.28571 88.5715,-7.14285 80,8.57143 -4.2857,225.71428 -45.7143,14.28572 -60,-10e-6 L 1240,778.57143 z"
       id="area_6"
       inkscape:connector-curvature="0"
       transform="translate(-487.14285,292.36218)"
       sodipodi:nodetypes="cccccccc"
       inkscape:label="#path3178" />
    <text
       xml:space="preserve"
       style="font-size:40px;font-style:normal;font-weight:normal;line-height:125%;letter-spacing:0px;word-spacing:0px;fill:#000000;fill-opacity:1;stroke:none;font-family:Sans"
       x="477.14285"
       y="171.42857"
       id="navigation"
       sodipodi:linespacing="125%"
       transform="translate(-487.14285,292.36218)"
       inkscape:label="#text3180"><tspan
         sodipodi:role="line"
         id="tspan3182"
         x="477.14285"
         y="171.42857">1 2 3 4 5 6</tspan></text>
  </g>
</svg>
