<?xml version="1.0" encoding="UTF-8" standalone="no"?>
<!-- Created with Inkscape (http://www.inkscape.org/) -->

<svg
   xmlns:dc="http://purl.org/dc/elements/1.1/"
   xmlns:cc="http://creativecommons.org/ns#"
   xmlns:rdf="http://www.w3.org/1999/02/22-rdf-syntax-ns#"
   xmlns:svg="http://www.w3.org/2000/svg"
   xmlns="http://www.w3.org/2000/svg"
   xmlns:xlink="http://www.w3.org/1999/xlink"
   xmlns:sodipodi="http://sodipodi.sourceforge.net/DTD/sodipodi-0.dtd"
   xmlns:inkscape="http://www.inkscape.org/namespaces/inkscape"
   width="3000"
   height="2000"
   id="svg2"
   version="1.1"
   inkscape:version="0.48.4 r9939"
   sodipodi:docname="New document 1">
  <defs
     id="defs4" />
  <sodipodi:namedview
     id="base"
     pagecolor="#ffffff"
     bordercolor="#666666"
     borderopacity="1.0"
     inkscape:pageopacity="0.0"
     inkscape:pageshadow="2"
     inkscape:zoom="0.35"
     inkscape:cx="1500"
     inkscape:cy="1000"
     inkscape:document-units="px"
     inkscape:current-layer="layer1"
     showgrid="false"
     fit-margin-top="0"
     fit-margin-left="0"
     fit-margin-right="0"
     fit-margin-bottom="0"
     inkscape:window-width="1280"
     inkscape:window-height="962"
     inkscape:window-x="-8"
     inkscape:window-y="-8"
     inkscape:window-maximized="1" />
  <metadata
     id="metadata7">
    <rdf:RDF>
      <cc:Work
         rdf:about="">
        <dc:format>image/svg+xml</dc:format>
        <dc:type
           rdf:resource="http://purl.org/dc/dcmitype/StillImage" />
        <dc:title></dc:title>
      </cc:Work>
    </rdf:RDF>
  </metadata>
  <g
     inkscape:label="Layer 1"
     inkscape:groupmode="layer"
     id="layer1"
     transform="translate(1125,467.63782)">
    <image
       y="-467.63782"
       x="-1125"
       id="image2993"
       xlink:href="file:///T:/SCRAN24/NEW%20PHOTOS%20FOR%20SCRAN/chocolate%20&amp;%20sweets/Gaero.jpg"
       height="2000"
       width="3000" />
    <path
       style="fill:none;stroke:#000000;stroke-width:1px;stroke-linecap:butt;stroke-linejoin:miter;stroke-opacity:1"
       d="m 534.28571,428.57143 62.85715,8.57143 80,8.57143 82.85714,-2.85715 54.28571,-8.57143 40,-17.14285 48.57143,-2.85715 40,5.71429 59.99996,17.14286 54.2858,2.85714 74.2857,-5.71429 65.7143,-14.28571 5.7142,31.42857 -5.7142,111.42857 -5.7143,85.71429 -17.1429,74.28571 0,74.28572 0,60 -2.8571,54.28571 8.5714,54.28572 -11.4286,42.85711 17.1429,211.4286 -60,0 -37.1429,0 L 960,1200 l -100,-20 -60,-2.8571 -22.85714,28.5714 -202.85715,8.5714 -108.57142,2.8572 -40,31.4285 17.14285,-108.5714 22.85715,-122.8571 22.85714,-31.42861 0,-34.28572 L 500,922.85714 497.14286,780 l 25.71428,-62.85714 -5.71428,-114.28572 17.14285,-37.14285 -11.42857,-17.14286 z"
       id="area_1"
       inkscape:connector-curvature="0"
       transform="translate(-1125,-467.63782)"
       inkscape:label="#path2996" />
    <path
       style="fill:none;stroke:#000000;stroke-width:1px;stroke-linecap:butt;stroke-linejoin:miter;stroke-opacity:1"
       d="m 1225.7143,557.14286 80,-20 137.1428,-8.57143 71.4286,14.28571 11.4286,14.28572 28.5714,-8.57143 L 1620,600 1591.4286,722.85714 1622.8571,1100 l 0,11.4286 25.7143,-8.5715 11.4286,34.2858 -37.1429,14.2857 -68.5714,-8.5715 -65.7143,8.5715 -65.7143,-2.8572 -37.1428,17.1429 L 1320,1148.5714 c 0,0 -111.4286,65.7143 -111.4286,45.7143 0,-20 28.5715,-171.4286 28.5715,-171.4286 L 1234.2857,774.28571 1222.8571,682.85714 1217.1429,600 z"
       id="area_2"
       inkscape:connector-curvature="0"
       transform="translate(-1125,-467.63782)"
       sodipodi:nodetypes="ccccccccccccccccccsccccc"
       inkscape:label="#path2998" />
    <path
       style="fill:none;stroke:#000000;stroke-width:1px;stroke-linecap:butt;stroke-linejoin:miter;stroke-opacity:1"
       d="m 1620,480 40,17.14286 677.1429,5.71428 42.8571,-31.42857 17.1429,34.28572 11.4285,80 8.5715,40 11.4285,71.42857 -40,17.14285 -171.4285,0 -480,11.42858 -48.5715,-14.28572 -22.8571,2.85714 -34.2857,-20 -2.8572,-97.14285 -11.4285,-31.42857 8.5714,-34.28572 z"
       id="area_3"
       inkscape:connector-curvature="0"
       transform="translate(-1125,-467.63782)"
       inkscape:label="#path3000" />
    <path
       style="fill:none;stroke:#000000;stroke-width:1px;stroke-linecap:butt;stroke-linejoin:miter;stroke-opacity:1"
       d="m 1662.8571,722.85714 74.2858,14.28572 131.4285,14.28571 234.2857,2.85714 L 2340,751.42857 2365.7143,740 l 71.4286,0 20,165.71429 -42.8572,0 -34.2857,-11.42858 -37.1429,8.57143 -571.4285,-8.57143 -62.8572,-5.71428 -20,-11.42857 L 1674.2857,860 l 0,-37.14286 -11.4286,-25.71428 -25.7142,-25.71429 28.5714,2.85714 z"
       id="area_4"
       inkscape:connector-curvature="0"
       transform="translate(-1125,-467.63782)"
       inkscape:label="#path3002" />
    <path
       style="fill:none;stroke:#000000;stroke-width:1px;stroke-linecap:butt;stroke-linejoin:miter;stroke-opacity:1"
       d="m 1771.4286,917.14286 11.4285,20 74.2858,-20 L 2180,920 l 62.8571,-2.85714 88.5714,25.71429 25.7144,134.28575 -28.5715,-22.8572 -11.4285,20 -31.4286,14.2857 -394.2857,5.7143 -97.1429,0 -17.1428,-48.5714 z"
       id="area_5"
       inkscape:connector-curvature="0"
       transform="translate(-1125,-467.63782)"
       inkscape:label="#path3004"
       sodipodi:nodetypes="cccccccccccccc" />
    <path
       style="fill:none;stroke:#000000;stroke-width:1px;stroke-linecap:butt;stroke-linejoin:miter;stroke-opacity:1"
       d="m 1840,1091.4286 34.2857,-8.5715 102.8572,31.4286 265.7142,-2.8571 62.8572,-40 34.2857,60 -8.5714,42.8571 -14.2857,0 2.8571,17.1429 -42.8571,48.5714 -31.4286,2.8571 -322.8572,14.2858 -51.4285,8.5714 -48.5715,-11.4286 17.1429,-60 -2.8571,-40 z"
       id="area_6"
       inkscape:connector-curvature="0"
       transform="translate(-1125,-467.63782)"
       inkscape:label="#path3006" />
    <flowRoot
       xml:space="preserve"
       id="navigation"
       style="font-size:40px;font-style:normal;font-weight:normal;line-height:125%;letter-spacing:0px;word-spacing:0px;fill:#000000;fill-opacity:1;stroke:none;font-family:Sans"
       transform="translate(-1125,-467.63782)"
       inkscape:label="#flowRoot3008"><flowRegion
         id="flowRegion3010"><rect
           id="rect3012"
           width="591.42859"
           height="134.28572"
           x="1142.8572"
           y="77.14286" /></flowRegion><flowPara
         id="flowPara3014"
         style="font-size:72px">1 2 3 4 5 6 </flowPara></flowRoot>  </g>
</svg>
