<?xml version="1.0" encoding="UTF-8" standalone="no"?>
<!-- Created with Inkscape (http://www.inkscape.org/) -->

<svg
   xmlns:dc="http://purl.org/dc/elements/1.1/"
   xmlns:cc="http://creativecommons.org/ns#"
   xmlns:rdf="http://www.w3.org/1999/02/22-rdf-syntax-ns#"
   xmlns:svg="http://www.w3.org/2000/svg"
   xmlns="http://www.w3.org/2000/svg"
   xmlns:xlink="http://www.w3.org/1999/xlink"
   xmlns:sodipodi="http://sodipodi.sourceforge.net/DTD/sodipodi-0.dtd"
   xmlns:inkscape="http://www.inkscape.org/namespaces/inkscape"
   width="3000"
   height="2000"
   id="svg2"
   version="1.1"
   inkscape:version="0.48.4 r9939"
   sodipodi:docname="New document 1">
  <defs
     id="defs4" />
  <sodipodi:namedview
     id="base"
     pagecolor="#ffffff"
     bordercolor="#666666"
     borderopacity="1.0"
     inkscape:pageopacity="0.0"
     inkscape:pageshadow="2"
     inkscape:zoom="0.35"
     inkscape:cx="1500"
     inkscape:cy="1000"
     inkscape:document-units="px"
     inkscape:current-layer="layer1"
     showgrid="false"
     fit-margin-top="0"
     fit-margin-left="0"
     fit-margin-right="0"
     fit-margin-bottom="0"
     inkscape:window-width="1280"
     inkscape:window-height="962"
     inkscape:window-x="-8"
     inkscape:window-y="-8"
     inkscape:window-maximized="1" />
  <metadata
     id="metadata7">
    <rdf:RDF>
      <cc:Work
         rdf:about="">
        <dc:format>image/svg+xml</dc:format>
        <dc:type
           rdf:resource="http://purl.org/dc/dcmitype/StillImage" />
        <dc:title></dc:title>
      </cc:Work>
    </rdf:RDF>
  </metadata>
  <g
     inkscape:label="Layer 1"
     inkscape:groupmode="layer"
     id="layer1"
     transform="translate(1125,467.63782)">
    <image
       y="-467.63782"
       x="-1125"
       id="image2993"
       xlink:href="file:///T:/SCRAN24/NEW%20PHOTOS%20FOR%20SCRAN/chocolate%20&amp;%20sweets/Gbonti.jpg"
       height="2000"
       width="3000" />
    <path
       style="fill:none;stroke:#000000;stroke-width:1px;stroke-linecap:butt;stroke-linejoin:miter;stroke-opacity:1"
       d="M 931.42857,577.14286 974.28571,580 991.42857,594.28571 1037.1429,580 1814.2857,565.71429 1991.4286,560 2028.5714,565.71429 2100,520 l 17.1429,28.57143 8.5714,40 5.7143,34.28571 0,88.57143 -57.1429,-5.71428 -54.2857,5.71428 -137.1429,14.28572 -334.2857,5.71428 -311.4285,0 -188.5715,-2.85714 -34.2857,0 L 980,720 l -51.42857,17.14286 -2.85714,-60 0,-74.28572 z"
       id="area_1"
       inkscape:connector-curvature="0"
       transform="translate(-1125,-467.63782)"
       inkscape:label="#path2996" />
    <path
       style="fill:none;stroke:#000000;stroke-width:1px;stroke-linecap:butt;stroke-linejoin:miter;stroke-opacity:1"
       d="M 1091.4286,782.85714 1154.2857,820 1220,805.71429 l 628.5714,-11.42858 37.1429,14.28572 54.2857,-40 22.8571,45.71428 -5.7142,54.28572 5.7142,60 -34.2857,22.85714 -85.7143,14.28572 -634.2857,5.71428 -60,-11.42857 -40,17.14286 -22.8571,-22.85715 z"
       id="area_2"
       inkscape:connector-curvature="0"
       transform="translate(-1125,-467.63782)"
       inkscape:label="#path3000" />
    <path
       style="fill:none;stroke:#000000;stroke-width:1px;stroke-linecap:butt;stroke-linejoin:miter;stroke-opacity:1"
       d="m 1097.1429,985.71429 45.7142,28.57141 208.5715,5.7143 120,0 45.7143,11.4286 25.7142,-45.71431 25.7143,5.71428 -5.7143,102.85713 5.7143,62.8572 2.8572,28.5714 -20,17.1428 -22.8572,-20 -68.5714,5.7143 -311.4286,-2.8571 -71.4285,11.4286 L 1040,1180 l 28.5714,-114.2857 -5.7143,-28.5714 14.2858,-42.85719 z"
       id="area_3"
       inkscape:connector-curvature="0"
       transform="translate(-1125,-467.63782)"
       inkscape:label="#path3002" />
    <path
       style="fill:none;stroke:#000000;stroke-width:1px;stroke-linecap:butt;stroke-linejoin:miter;stroke-opacity:1"
       d="m 1728.5714,1068.5714 42.8572,-28.5714 57.1428,-5.7143 82.8572,5.7143 40,11.4286 14.2857,22.8571 5.7143,-22.8571 51.4285,-5.7143 8.5715,14.2857 17.1428,28.5714 -31.4285,25.7143 -45.7143,11.4286 -40,25.7143 -25.7143,14.2857 -122.8572,-5.7143 -48.5714,-20 -11.4286,-22.8571 -17.1428,0 -20,54.2857 -34.2857,-40 -28.5715,-11.4286 -8.5714,-22.8571 34.2857,-25.7143 z"
       id="area_4"
       inkscape:connector-curvature="0"
       transform="translate(-1125,-467.63782)"
       inkscape:label="#path3004"
       sodipodi:nodetypes="cccccccccccccccccccccccc" />
    <flowRoot
       xml:space="preserve"
       id="navigation"
       style="font-size:40px;font-style:normal;font-weight:normal;line-height:125%;letter-spacing:0px;word-spacing:0px;fill:#000000;fill-opacity:1;stroke:none;font-family:Sans"
       transform="translate(-1125,-467.63782)"
       inkscape:label="#flowRoot3006"><flowRegion
         id="flowRegion3008"><rect
           id="rect3010"
           width="725.71429"
           height="120"
           x="1094.2858"
           y="105.71429" /></flowRegion><flowPara
         id="flowPara3012">1 2 3 4</flowPara></flowRoot>  </g>
</svg>
