<?xml version="1.0" encoding="UTF-8" standalone="no"?>
<!-- Created with Inkscape (http://www.inkscape.org/) -->

<svg
   xmlns:dc="http://purl.org/dc/elements/1.1/"
   xmlns:cc="http://creativecommons.org/ns#"
   xmlns:rdf="http://www.w3.org/1999/02/22-rdf-syntax-ns#"
   xmlns:svg="http://www.w3.org/2000/svg"
   xmlns="http://www.w3.org/2000/svg"
   xmlns:xlink="http://www.w3.org/1999/xlink"
   xmlns:sodipodi="http://sodipodi.sourceforge.net/DTD/sodipodi-0.dtd"
   xmlns:inkscape="http://www.inkscape.org/namespaces/inkscape"
   width="3000"
   height="2000"
   id="svg2"
   version="1.1"
   inkscape:version="0.48.4 r9939"
   sodipodi:docname="New document 1">
  <defs
     id="defs4" />
  <sodipodi:namedview
     id="base"
     pagecolor="#ffffff"
     bordercolor="#666666"
     borderopacity="1.0"
     inkscape:pageopacity="0.0"
     inkscape:pageshadow="2"
     inkscape:zoom="0.35"
     inkscape:cx="1355.814"
     inkscape:cy="1188.5714"
     inkscape:document-units="px"
     inkscape:current-layer="layer1"
     showgrid="false"
     fit-margin-top="0"
     fit-margin-left="0"
     fit-margin-right="0"
     fit-margin-bottom="0"
     inkscape:window-width="1280"
     inkscape:window-height="962"
     inkscape:window-x="-8"
     inkscape:window-y="-8"
     inkscape:window-maximized="1" />
  <metadata
     id="metadata7">
    <rdf:RDF>
      <cc:Work
         rdf:about="">
        <dc:format>image/svg+xml</dc:format>
        <dc:type
           rdf:resource="http://purl.org/dc/dcmitype/StillImage" />
        <dc:title></dc:title>
      </cc:Work>
    </rdf:RDF>
  </metadata>
  <g
     inkscape:label="Layer 1"
     inkscape:groupmode="layer"
     id="layer1"
     transform="translate(1508.5714,507.63782)">
    <image
       y="-507.63782"
       x="-1508.5714"
       id="image2993"
       xlink:href="file:///T:/SCRAN24/NEW%20PHOTOS%20FOR%20SCRAN/crisps/crisps/Gdori.jpg"
       height="2000"
       width="3000" />
    <path
       style="fill:none;stroke:#000000;stroke-width:1px;stroke-linecap:butt;stroke-linejoin:miter;stroke-opacity:1"
       d="m 271.42857,208.57143 65.71429,-31.42857 100,-20 151.42857,-5.71429 145.71428,2.85714 134.28572,5.71429 62.85714,2.85714 57.14286,-5.71428 42.85717,5.71428 42.8571,17.14286 197.1429,-11.42857 -10e-5,60 -25.7142,77.14286 L 1237.1429,380 1220,448.57143 l -28.5714,120 -2.8572,142.85714 -8.5714,134.28572 25.7143,22.85714 -11.4286,22.85714 11.4286,71.42857 8.5714,51.42856 -14.2857,40 45.7143,65.7143 14.2857,45.7143 11.4286,80 25.7143,60 -65.7143,-5.7143 -120,-11.4286 -140.00003,-11.4285 -171.42857,-20 -68.57143,-14.2858 -20,0 -34.28571,14.2858 -265.71429,22.8571 -114.28571,2.8571 -28.57143,-14.2857 -17.14286,2.8572 L 237.14286,1300 228.57143,1282.8571 200,1280 l -22.85714,-37.1429 5.71428,-60 20,-17.1428 L 240,922.85714 l 22.85714,-220 34.28572,-148.57143 -11.42857,-45.71428 11.42857,-20 -5.71429,-37.14286 11.42857,-20 0,-154.28571 -42.85714,-40 z"
       id="area_1"
       inkscape:connector-curvature="0"
       transform="translate(-1508.5714,-507.63782)"
       sodipodi:nodetypes="cccccccccccccccccccccccccccccccccccccccccccccccccccccc"
       inkscape:label="#path2998" />
    <path
       style="fill:none;stroke:#000000;stroke-width:1px;stroke-linecap:butt;stroke-linejoin:miter;stroke-opacity:1"
       d="m 1220,451.42857 260,-34.28571 188.5714,-22.85715 137.1429,-20 202.8571,-37.14285 -5.7143,62.85714 -5.7142,142.85714 -2.8572,265.71429 -11.4286,68.57143 51.4286,162.85714 51.4286,131.4286 0,45.7143 L 1980,1220 1805.7143,1200 1700,1177.1429 l -31.4286,-25.7143 -25.7143,-5.7143 -68.5714,34.2857 -171.4286,48.5714 -137.1428,20 -11.4286,-100 -54.2857,-91.4285 14.2857,-74.28576 14.2857,-91.42857 2.8572,-62.85714 0,-91.42857 -2.8572,-100 -17.1428,-85.71429 -11.4286,-40 z"
       id="area_2"
       inkscape:connector-curvature="0"
       transform="translate(-1508.5714,-507.63782)"
       inkscape:label="#path3000" />
    <path
       style="fill:none;stroke:#000000;stroke-width:1px;stroke-linecap:butt;stroke-linejoin:miter;stroke-opacity:1"
       d="M 2005.7143,460 2200,422.85714 l 111.4286,-14.28571 142.8571,-14.28572 208.5714,-11.42857 -2.8571,62.85715 0,80 0,74.28571 28.5714,100 22.8572,100 22.8571,137.14286 11.4286,37.14285 51.4286,97.14289 37.1428,74.2857 0,48.5714 -148.5714,0 -248.5714,-8.5714 -80,-5.7143 -60,8.5714 -102.8572,-8.5714 -71.4286,42.8571 -114.2857,8.5715 51.4286,-122.8572 8.5714,-57.1428 L 2051.4286,940 l -14.2857,-108.57143 -28.5715,-62.85714 -20,-57.14286 z"
       id="area_3"
       inkscape:connector-curvature="0"
       transform="translate(-1508.5714,-507.63782)"
       inkscape:label="#path3002" />
    <flowRoot
       xml:space="preserve"
       id="navigation"
       style="font-size:40px;font-style:normal;font-weight:normal;line-height:125%;letter-spacing:0px;word-spacing:0px;fill:#000000;fill-opacity:1;stroke:none;font-family:Sans"
       transform="translate(-1508.5714,-507.63782)"
       inkscape:label="#flowRoot3004"><flowRegion
         id="flowRegion3006"><rect
           id="rect3008"
           width="420"
           height="120"
           x="2497.1428"
           y="105.71429" /></flowRegion><flowPara
         id="flowPara3010">1 2 3</flowPara></flowRoot>  </g>
</svg>
