<?xml version="1.0" encoding="UTF-8" standalone="no"?>
<!-- Created with Inkscape (http://www.inkscape.org/) -->

<svg
   xmlns:dc="http://purl.org/dc/elements/1.1/"
   xmlns:cc="http://creativecommons.org/ns#"
   xmlns:rdf="http://www.w3.org/1999/02/22-rdf-syntax-ns#"
   xmlns:svg="http://www.w3.org/2000/svg"
   xmlns="http://www.w3.org/2000/svg"
   xmlns:xlink="http://www.w3.org/1999/xlink"
   xmlns:sodipodi="http://sodipodi.sourceforge.net/DTD/sodipodi-0.dtd"
   xmlns:inkscape="http://www.inkscape.org/namespaces/inkscape"
   width="3000"
   height="2000"
   id="svg2"
   version="1.1"
   inkscape:version="0.48.4 r9939"
   sodipodi:docname="New document 1">
  <defs
     id="defs4" />
  <sodipodi:namedview
     id="base"
     pagecolor="#ffffff"
     bordercolor="#666666"
     borderopacity="1.0"
     inkscape:pageopacity="0.0"
     inkscape:pageshadow="2"
     inkscape:zoom="0.35"
     inkscape:cx="1520.598"
     inkscape:cy="1122.4268"
     inkscape:document-units="px"
     inkscape:current-layer="layer1"
     showgrid="false"
     fit-margin-top="0"
     fit-margin-left="0"
     fit-margin-right="0"
     fit-margin-bottom="0"
     inkscape:window-width="1280"
     inkscape:window-height="962"
     inkscape:window-x="-8"
     inkscape:window-y="-8"
     inkscape:window-maximized="1" />
  <metadata
     id="metadata7">
    <rdf:RDF>
      <cc:Work
         rdf:about="">
        <dc:format>image/svg+xml</dc:format>
        <dc:type
           rdf:resource="http://purl.org/dc/dcmitype/StillImage" />
        <dc:title></dc:title>
      </cc:Work>
    </rdf:RDF>
  </metadata>
  <g
     inkscape:label="Layer 1"
     inkscape:groupmode="layer"
     id="layer1"
     transform="translate(800,233.3521)">
    <image
       y="-233.3521"
       x="-800"
       id="image2993"
       xlink:href="file:///T:/SCRAN24/NEW%20PHOTOS%20FOR%20SCRAN/chocolate%20&amp;%20sweets/Gkbar.jpg"
       height="2000"
       width="3000" />
    <path
       style="fill:none;stroke:#000000;stroke-width:1px;stroke-linecap:butt;stroke-linejoin:miter;stroke-opacity:1"
       d="m 922.85714,480 99.99996,11.42857 874.2858,-8.57143 71.4285,-5.71428 37.1429,-14.28572 8.5714,-37.14285 25.7143,51.42857 0,48.57143 -8.5714,48.57142 -25.7143,20 -34.2857,2.85715 -465.7143,8.57143 -514.28573,0 -48.57143,-34.28572 -25.71428,-25.71428 z"
       id="area_1"
       inkscape:connector-curvature="0"
       transform="translate(-800,-233.3521)"
       sodipodi:nodetypes="cccccccccccccccc"
       inkscape:label="#path2996" />
    <path
       style="fill:none;stroke:#000000;stroke-width:1px;stroke-linecap:butt;stroke-linejoin:miter;stroke-opacity:1"
       d="M 945.71429,668.57143 980,682.85714 l 11.42857,-5.71428 102.85713,8.57143 345.7143,8.57142 140,8.57143 28.5714,-11.42857 60,-17.14286 2.8572,108.57143 -62.8572,22.85715 -74.2857,11.42857 -300,-5.71429 -248.57141,-14.28571 -22.85715,-14.28572 -14.28571,-14.28571 -25.71429,0 z"
       id="area_2"
       inkscape:connector-curvature="0"
       transform="translate(-800,-233.3521)"
       inkscape:label="#path2998" />
    <path
       style="fill:none;stroke:#000000;stroke-width:1px;stroke-linecap:butt;stroke-linejoin:miter;stroke-opacity:1"
       d="m 965.71429,857.14286 31.42857,0 5.71424,14.28571 574.2858,11.42857 71.4285,-2.85714 22.8572,100 -28.5715,-2.85714 -60,17.14285 L 991.42857,980 968.57143,962.85714 937.14286,948.57143 z"
       id="area_3"
       inkscape:connector-curvature="0"
       transform="translate(-800,-233.3521)"
       inkscape:label="#path3000" />
    <path
       style="fill:none;stroke:#000000;stroke-width:1px;stroke-linecap:butt;stroke-linejoin:miter;stroke-opacity:1"
       d="m 1077.1429,1065.7143 51.4285,5.7143 25.7143,22.8571 54.2857,-45.7143 160,2.8572 45.7143,22.8571 L 1420,1060 l 28.5714,14.2857 57.1429,-54.2857 22.8571,25.7143 -2.8571,28.5714 L 1480,1100 l -31.4286,11.4286 -22.8571,25.7143 -11.4286,0 -20,28.5714 -185.7143,5.7143 -45.7143,-45.7143 -40,22.8571 -45.7142,-28.5714 -8.5715,-31.4286 z"
       id="area_4"
       inkscape:connector-curvature="0"
       transform="translate(-800,-233.3521)"
       inkscape:label="#path3002" />
    <path
       style="fill:none;stroke:#000000;stroke-width:1px;stroke-linecap:butt;stroke-linejoin:miter;stroke-opacity:1"
       d="m 1780,654.28571 151.4286,34.28572 54.2857,0 11.4286,48.57143 -14.2858,31.42857 5.7143,188.57143 5.7143,45.71424 25.7143,42.8572 2.8571,85.7143 -114.2857,11.4285 -125.7143,-19.9999 -2.8571,-91.4286 -11.4286,-342.85717 z"
       id="area_5"
       inkscape:connector-curvature="0"
       transform="translate(-800,-233.3521)"
       sodipodi:nodetypes="cccccccccccccc"
       inkscape:label="#path3004" />
    <flowRoot
       xml:space="preserve"
       id="navigation"
       style="font-size:40px;font-style:normal;font-weight:normal;line-height:125%;letter-spacing:0px;word-spacing:0px;fill:#000000;fill-opacity:1;stroke:none;font-family:Sans"
       transform="translate(-800,-233.3521)"
       inkscape:label="#flowRoot3006"><flowRegion
         id="flowRegion3008"><rect
           id="rect3010"
           width="474.28571"
           height="111.42857"
           x="240"
           y="91.428574" /></flowRegion><flowPara
         id="flowPara3012">1 2 3 4 5</flowPara></flowRoot>  </g>
</svg>
