<?xml version="1.0" encoding="UTF-8" standalone="no"?>
<!-- Created with Inkscape (http://www.inkscape.org/) -->

<svg
   xmlns:dc="http://purl.org/dc/elements/1.1/"
   xmlns:cc="http://creativecommons.org/ns#"
   xmlns:rdf="http://www.w3.org/1999/02/22-rdf-syntax-ns#"
   xmlns:svg="http://www.w3.org/2000/svg"
   xmlns="http://www.w3.org/2000/svg"
   xmlns:xlink="http://www.w3.org/1999/xlink"
   xmlns:sodipodi="http://sodipodi.sourceforge.net/DTD/sodipodi-0.dtd"
   xmlns:inkscape="http://www.inkscape.org/namespaces/inkscape"
   width="3000"
   height="2000"
   id="svg2"
   version="1.1"
   inkscape:version="0.48.4 r9939"
   sodipodi:docname="New document 1">
  <defs
     id="defs4" />
  <sodipodi:namedview
     id="base"
     pagecolor="#ffffff"
     bordercolor="#666666"
     borderopacity="1.0"
     inkscape:pageopacity="0.0"
     inkscape:pageshadow="2"
     inkscape:zoom="0.35"
     inkscape:cx="1306.4286"
     inkscape:cy="1014.2857"
     inkscape:document-units="px"
     inkscape:current-layer="layer1"
     showgrid="false"
     fit-margin-top="0"
     fit-margin-left="0"
     fit-margin-right="0"
     fit-margin-bottom="0"
     inkscape:window-width="1280"
     inkscape:window-height="962"
     inkscape:window-x="-8"
     inkscape:window-y="-8"
     inkscape:window-maximized="1" />
  <metadata
     id="metadata7">
    <rdf:RDF>
      <cc:Work
         rdf:about="">
        <dc:format>image/svg+xml</dc:format>
        <dc:type
           rdf:resource="http://purl.org/dc/dcmitype/StillImage" />
        <dc:title></dc:title>
      </cc:Work>
    </rdf:RDF>
  </metadata>
  <g
     inkscape:label="Layer 1"
     inkscape:groupmode="layer"
     id="layer1"
     transform="translate(931.42859,224.78067)">
    <image
       y="-224.78067"
       x="-931.42859"
       id="image2993"
       xlink:href="file:///T:/SCRAN24/NEW%20PHOTOS%20FOR%20SCRAN/chocolate%20&amp;%20sweets/Gmlky.jpg"
       height="2000"
       width="3000" />
    <path
       style="fill:none;stroke:#000000;stroke-width:1px;stroke-linecap:butt;stroke-linejoin:miter;stroke-opacity:1"
       d="M 582.85714,640 705.71429,642.85714 740,628.57143 l 354.2857,5.71428 2.8572,45.71429 -5.7143,80 -20,85.71429 -14.2857,145.71428 2.8571,85.71433 8.5714,20 -11.4285,60 -111.42861,0 -120,-11.4286 -25.71429,20 -305.71429,-11.4286 -2.85714,-42.8571 37.14286,-125.71431 14.28571,-60 2.85715,-140 28.57142,-71.42858 z"
       id="area_4"
       inkscape:connector-curvature="0"
       transform="translate(-931.42859,-224.78067)"
       inkscape:label="#path2996" />
    <path
       style="fill:none;stroke:#000000;stroke-width:1px;stroke-linecap:butt;stroke-linejoin:miter;stroke-opacity:1"
       d="M 1200,508.57143 2008.5714,500 l 25.7143,28.57143 -2.8571,-31.42857 28.5714,11.42857 -14.2857,125.71428 -11.4286,2.85715 0,14.28571 -831.4286,2.85714 -31.4285,-28.57142 8.5714,-114.28572 14.2857,22.85714 z"
       id="area_1"
       inkscape:connector-curvature="0"
       transform="translate(-931.42859,-224.78067)"
       inkscape:label="#path2998" />
    <path
       style="fill:none;stroke:#000000;stroke-width:1px;stroke-linecap:butt;stroke-linejoin:miter;stroke-opacity:1"
       d="m 1305.7143,680 51.4286,28.57143 54.2857,-11.42857 354.2857,17.14285 20,-2.85714 37.1428,5.71429 31.4286,17.14285 -2.8571,117.14286 -14.2857,2.85714 -22.8572,-5.71428 0,17.14286 -31.4286,-17.14286 -422.8571,2.85714 -48.5714,-60 z"
       id="area_2"
       inkscape:connector-curvature="0"
       transform="translate(-931.42859,-224.78067)"
       inkscape:label="#path3000" />
    <path
       style="fill:none;stroke:#000000;stroke-width:1px;stroke-linecap:butt;stroke-linejoin:miter;stroke-opacity:1"
       d="m 1360,882.85714 54.2857,5.71429 62.8572,14.28571 260,5.71429 -2.8572,-22.85714 L 1780,900 l 28.5714,74.28571 11.4286,79.99999 -25.7143,28.5714 -57.1428,-14.2857 -331.4286,0 -71.4286,0 L 1340,1000 z"
       id="area_3"
       inkscape:connector-curvature="0"
       transform="translate(-931.42859,-224.78067)"
       inkscape:label="#path3002" />
    <path
       style="fill:none;stroke:#000000;stroke-width:1px;stroke-linecap:butt;stroke-linejoin:miter;stroke-opacity:1"
       d="m 1922.8571,714.28571 105.7143,-2.85714 68.5715,2.85714 62.8571,-17.14285 60,25.71428 37.1429,0 11.4285,5.71429 37.1429,-5.71429 25.7143,8.57143 97.1428,-14.28571 20,45.71428 -20,51.42857 5.7143,71.42858 5.7143,31.42857 20,65.71428 11.4286,14.28572 -5.7143,11.42854 -42.8572,2.8572 -160,-31.4286 -8.5714,11.42857 -34.2857,-5.71428 2.8571,22.85711 -17.1428,-34.28569 -22.8572,2.85715 -51.4285,17.14285 -80,39.99999 -117.1429,14.2857 -2.8571,-77.14283 5.7143,-37.14286 0,-48.57142 -17.1429,-74.28572 0,-62.85714 z"
       id="area_5"
       inkscape:connector-curvature="0"
       transform="translate(-931.42859,-224.78067)"
       inkscape:label="#path3006" />
    <flowRoot
       xml:space="preserve"
       id="navigation"
       style="font-size:40px;font-style:normal;font-weight:normal;line-height:125%;letter-spacing:0px;word-spacing:0px;fill:#000000;fill-opacity:1;stroke:none;font-family:Sans"
       transform="translate(-931.42859,-224.78067)"
       inkscape:label="#flowRoot3008"><flowRegion
         id="flowRegion3010"><rect
           id="rect3012"
           width="437.14285"
           height="108.57143"
           x="148.57143"
           y="131.42857" /></flowRegion><flowPara
         id="flowPara3014">4 1 2 3 5</flowPara></flowRoot>  </g>
</svg>
