<?xml version="1.0" encoding="UTF-8" standalone="no"?>
<!-- Created with Inkscape (http://www.inkscape.org/) -->

<svg
   xmlns:dc="http://purl.org/dc/elements/1.1/"
   xmlns:cc="http://creativecommons.org/ns#"
   xmlns:rdf="http://www.w3.org/1999/02/22-rdf-syntax-ns#"
   xmlns:svg="http://www.w3.org/2000/svg"
   xmlns="http://www.w3.org/2000/svg"
   xmlns:xlink="http://www.w3.org/1999/xlink"
   xmlns:sodipodi="http://sodipodi.sourceforge.net/DTD/sodipodi-0.dtd"
   xmlns:inkscape="http://www.inkscape.org/namespaces/inkscape"
   width="3000"
   height="2000"
   id="svg3115"
   version="1.1"
   inkscape:version="0.48.4 r9939"
   sodipodi:docname="New document 9">
  <defs
     id="defs3117" />
  <sodipodi:namedview
     id="base"
     pagecolor="#ffffff"
     bordercolor="#666666"
     borderopacity="1.0"
     inkscape:pageopacity="0.0"
     inkscape:pageshadow="2"
     inkscape:zoom="0.35"
     inkscape:cx="1500"
     inkscape:cy="1000"
     inkscape:document-units="px"
     inkscape:current-layer="layer1"
     showgrid="false"
     fit-margin-top="0"
     fit-margin-left="0"
     fit-margin-right="0"
     fit-margin-bottom="0"
     inkscape:window-width="1280"
     inkscape:window-height="962"
     inkscape:window-x="-8"
     inkscape:window-y="-8"
     inkscape:window-maximized="1" />
  <metadata
     id="metadata3120">
    <rdf:RDF>
      <cc:Work
         rdf:about="">
        <dc:format>image/svg+xml</dc:format>
        <dc:type
           rdf:resource="http://purl.org/dc/dcmitype/StillImage" />
        <dc:title></dc:title>
      </cc:Work>
    </rdf:RDF>
  </metadata>
  <g
     inkscape:label="Layer 1"
     inkscape:groupmode="layer"
     id="layer1"
     transform="translate(1125,467.63782)">
    <image
       y="-467.63782"
       x="-1125"
       id="image3131"
       xlink:href="file:///T:/SCRAN24/NEW%20PHOTOS%20FOR%20SCRAN/crisps/crisps/Gprin.jpg"
       height="2000"
       width="3000" />
    <path
       style="fill:none;stroke:#000000;stroke-width:1px;stroke-linecap:butt;stroke-linejoin:miter;stroke-opacity:1"
       d="m 977.14286,211.42857 45.71424,-62.85714 74.2858,-37.14286 94.2857,-17.142856 77.1428,8.571426 74.2857,28.57143 51.4286,51.42857 20,51.42857 0,60 -17.1428,31.42858 17.1428,694.28571 -11.4286,57.1429 -51.4285,57.1428 -74.2857,25.7143 -80,-2.8571 L 1128.5714,1120 1097.1429,1088.5714 1080,1034.2857 1000,345.71429 980,294.28571 971.42857,240 z"
       id="area_1"
       inkscape:connector-curvature="0"
       transform="translate(-1125,-467.63782)"
       inkscape:label="#path3134" />
    <path
       style="fill:none;stroke:#000000;stroke-width:1px;stroke-linecap:butt;stroke-linejoin:miter;stroke-opacity:1"
       d="m 1585.7143,728.57143 48.5714,-40 60,-17.14286 71.4286,-5.71428 71.4286,22.85714 48.5714,40 28.5714,28.57143 22.8572,54.28571 -2.8572,51.42857 -17.1428,34.28572 -14.2858,168.57144 -20,51.4286 -54.2857,42.8571 -71.4285,22.8571 L 1680,1177.1429 1625.7143,1140 l -37.1429,-40 -17.1428,-54.2857 2.8571,-171.42858 -5.7143,-42.85715 0,-59.99999 z"
       id="area_2"
       inkscape:connector-curvature="0"
       transform="translate(-1125,-467.63782)"
       sodipodi:nodetypes="cccccccccccccccccccccc"
       inkscape:label="#path3136" />
    <flowRoot
       xml:space="preserve"
       id="navigation"
       style="font-size:40px;font-style:normal;font-weight:normal;line-height:125%;letter-spacing:0px;word-spacing:0px;fill:#000000;fill-opacity:1;stroke:none;font-family:Sans"
       transform="translate(-1125,-467.63782)"
       inkscape:label="#flowRoot3138"><flowRegion
         id="flowRegion3140"><rect
           id="rect3142"
           width="328.57144"
           height="125.71429"
           x="234.28572"
           y="305.71429" /></flowRegion><flowPara
         id="flowPara3144">1 2</flowPara></flowRoot>  </g>
</svg>
