<?xml version="1.0" encoding="UTF-8" standalone="no"?>
<!-- Created with Inkscape (http://www.inkscape.org/) -->

<svg
   xmlns:dc="http://purl.org/dc/elements/1.1/"
   xmlns:cc="http://creativecommons.org/ns#"
   xmlns:rdf="http://www.w3.org/1999/02/22-rdf-syntax-ns#"
   xmlns:svg="http://www.w3.org/2000/svg"
   xmlns="http://www.w3.org/2000/svg"
   xmlns:xlink="http://www.w3.org/1999/xlink"
   xmlns:sodipodi="http://sodipodi.sourceforge.net/DTD/sodipodi-0.dtd"
   xmlns:inkscape="http://www.inkscape.org/namespaces/inkscape"
   width="1500"
   height="1000"
   id="svg3012"
   version="1.1"
   inkscape:version="0.48.4 r9939"
   sodipodi:docname="gpiz2.svg">
  <defs
     id="defs3014" />
  <sodipodi:namedview
     id="base"
     pagecolor="#ffffff"
     bordercolor="#666666"
     borderopacity="1.0"
     inkscape:pageopacity="0.0"
     inkscape:pageshadow="2"
     inkscape:zoom="0.7"
     inkscape:cx="860.01334"
     inkscape:cy="563.57132"
     inkscape:document-units="px"
     inkscape:current-layer="layer1"
     showgrid="false"
     fit-margin-top="0"
     fit-margin-left="0"
     fit-margin-right="0"
     fit-margin-bottom="0"
     inkscape:window-width="1280"
     inkscape:window-height="962"
     inkscape:window-x="-8"
     inkscape:window-y="-8"
     inkscape:window-maximized="1" />
  <metadata
     id="metadata3017">
    <rdf:RDF>
      <cc:Work
         rdf:about="">
        <dc:format>image/svg+xml</dc:format>
        <dc:type
           rdf:resource="http://purl.org/dc/dcmitype/StillImage" />
        <dc:title></dc:title>
      </cc:Work>
    </rdf:RDF>
  </metadata>
  <g
     inkscape:label="Layer 1"
     inkscape:groupmode="layer"
     id="layer1"
     transform="translate(375,-32.362183)">
    <image
       y="32.362183"
       x="-375"
       id="area_C"
       xlink:href="file:///T:/SCRAN24/NEW%20PHOTOS%20FOR%20SCRAN/Pizzas/gpiz2.jpg"
       height="1000"
       width="1500"
       inkscape:label="#image3028" />
    <path
       style="fill:none;stroke:#000000;stroke-width:1px;stroke-linecap:butt;stroke-linejoin:miter;stroke-opacity:1"
       d="m 827.31493,129.24851 -10.10152,1.01015 -36.36549,-9.09137 -53.53809,2.0203 -26.26396,2.02031 -59.599,14.14213 -27.27412,9.09137 -42.42641,12.12183 -107.07617,58.58885 -14.14213,7.07107 0,9.09137 -50.50763,56.56855 -19.1929,80.8122 6.06091,70.71068 23.23351,45.45686 9.09137,9.09137 17.17259,13.13199 40.40611,34.34518 45.45687,27.27412 31.31472,21.21321 136.3706,42.4264 44.44671,8.08122 8.08122,-9.09137 7.07107,-58.58885 18.18274,-63.63961 8.08122,-23.23351 22.22336,-90.91372 -1.01015,-18.18275 19.1929,-119.198 10.10152,-19.1929 -2.0203,-13.13198 z"
       id="path3031"
       inkscape:connector-curvature="0"
       transform="translate(-375,32.362183)"
       sodipodi:nodetypes="cccccccccccccccccccccccccccccccc" />
    <path
       style="fill:none;stroke:#000000;stroke-width:1px;stroke-linecap:butt;stroke-linejoin:miter;stroke-opacity:1"
       d="m 830.34539,416.13182 -9.09137,14.14214 -5.05076,29.29443 c 0,0 -7.07107,4.04061 -7.07107,10.10152 0,6.06092 0,8.08122 0,8.08122 l -6.06092,2.02031 -3.03045,19.1929 2.0203,14.14213 -18.18274,31.31473 -9.09138,41.41626 -9.09137,7.07106 6.06091,6.06092 -9.09137,29.29442 -6.06091,1.01016 -2.02031,24.24366 -1.01015,27.27412 29.29442,14.14213 59.599,-6.06091 51.51778,-6.06092 17.17259,-2.0203 14.14214,0 20.20305,-9.09138 40.4061,-7.07107 86.87312,-24.24366 102.0254,-54.54823 53.5381,-56.56855 32.3249,-82.8325 -1.0102,-23.23351 -23.2335,-2.02031 -16.1624,-11.11168 -12.1219,1.01016 -5.0507,6.06091 -19.1929,-8.08122 -19.1929,8.08122 -29.2944,-2.0203 -15.1523,6.06091 -65.6599,6.06092 -4.0407,-8.08122 -6.0609,0 -14.1421,-11.11168 -31.31473,14.14213 -20.20305,-2.0203 -15.15229,-1.01015 -8.08122,4.04061 -23.23351,0 -8.08122,-4.04061 -31.31473,-1.01016 -5.05076,3.03046 -13.13199,-6.06091 -17.17259,0 -18.18274,0 z"
       id="path3033"
       inkscape:connector-curvature="0"
       transform="translate(-375,32.362183)"
       sodipodi:nodetypes="cccscccccccccccccccccccccccccccccccccccccccccccccccc" />
    <path
       style="fill:none;stroke:#000000;stroke-width:1px;stroke-linecap:butt;stroke-linejoin:miter;stroke-opacity:1"
       d="m 863.68042,98.94393 -3.03045,21.2132 -2.02031,39.39595 -3.03045,27.27412 -5.05076,11.11168 -2.02031,22.22335 0,12.12184 -10.10153,45.45686 -5.05076,10.10153 -1.01015,18.18275 -8.08122,53.53808 6.06091,5.05076 12.12183,-8.08122 42.42641,-22.22336 69.70053,-38.38579 62.62944,-37.37565 65.6599,-52.52793 34.3452,-30.30458 4.0406,-8.08122 -73.7411,-35.35534 -10.1015,-2.0203 -48.48736,-14.14214 -81.82236,-16.162438 C 850.54844,96.923624 863.68042,98.94393 863.68042,98.94393 z"
       id="path3037"
       inkscape:connector-curvature="0"
       transform="translate(-375,32.362183)"
       sodipodi:nodetypes="cccccccccccccccccccccccc" />
    <text
       xml:space="preserve"
       style="font-size:40px;font-style:normal;font-weight:normal;line-height:125%;letter-spacing:0px;word-spacing:0px;fill:#000000;fill-opacity:1;stroke:none;font-family:Sans"
       x="312.85715"
       y="62.857143"
       id="navigation"
       sodipodi:linespacing="125%"
       transform="translate(-375,32.362183)"
       inkscape:label="#text3068"><tspan
         sodipodi:role="line"
         id="tspan3070"
         x="312.85715"
         y="62.857143">A B C</tspan></text>
  </g>
</svg>
