<?xml version="1.0" encoding="UTF-8" standalone="no"?>
<!-- Created with Inkscape (http://www.inkscape.org/) -->

<svg
   xmlns:dc="http://purl.org/dc/elements/1.1/"
   xmlns:cc="http://creativecommons.org/ns#"
   xmlns:rdf="http://www.w3.org/1999/02/22-rdf-syntax-ns#"
   xmlns:svg="http://www.w3.org/2000/svg"
   xmlns="http://www.w3.org/2000/svg"
   xmlns:xlink="http://www.w3.org/1999/xlink"
   xmlns:sodipodi="http://sodipodi.sourceforge.net/DTD/sodipodi-0.dtd"
   xmlns:inkscape="http://www.inkscape.org/namespaces/inkscape"
   width="1500"
   height="1000"
   id="svg3072"
   version="1.1"
   inkscape:version="0.48.4 r9939"
   sodipodi:docname="New document 7">
  <defs
     id="defs3074" />
  <sodipodi:namedview
     id="base"
     pagecolor="#ffffff"
     bordercolor="#666666"
     borderopacity="1.0"
     inkscape:pageopacity="0.0"
     inkscape:pageshadow="2"
     inkscape:zoom="0.98994949"
     inkscape:cx="718.85632"
     inkscape:cy="516.42955"
     inkscape:document-units="px"
     inkscape:current-layer="layer1"
     showgrid="false"
     fit-margin-top="0"
     fit-margin-left="0"
     fit-margin-right="0"
     fit-margin-bottom="0"
     inkscape:window-width="1280"
     inkscape:window-height="962"
     inkscape:window-x="-8"
     inkscape:window-y="-8"
     inkscape:window-maximized="1" />
  <metadata
     id="metadata3077">
    <rdf:RDF>
      <cc:Work
         rdf:about="">
        <dc:format>image/svg+xml</dc:format>
        <dc:type
           rdf:resource="http://purl.org/dc/dcmitype/StillImage" />
        <dc:title></dc:title>
      </cc:Work>
    </rdf:RDF>
  </metadata>
  <g
     inkscape:label="Layer 1"
     inkscape:groupmode="layer"
     id="layer1"
     transform="translate(375,-32.362183)">
    <image
       y="32.362183"
       x="-375"
       id="area_C"
       xlink:href="file:///T:/SCRAN24/NEW%20PHOTOS%20FOR%20SCRAN/Pizzas/gpiz4.jpg"
       height="1000"
       width="1500"
       inkscape:label="#image3088" />
    <path
       style="fill:none;stroke:#000000;stroke-width:1px;stroke-linecap:butt;stroke-linejoin:miter;stroke-opacity:1"
       d="M 631.42857,538.57143 592.85714,520 l -38.57143,-37.85714 -13.57142,-28.57143 -7.14286,-25 -3.57143,0 -4.28571,-24.28572 -10e-6,-15.71428 4.28572,-11.42857 16.42858,-28.57143 21.42856,-19.28572 13.57143,-12.14285 17.14286,-4.28572 L 635,298.57143 l 27.85714,-5 34.28572,-5.71429 5,-2.85714 29.28571,2.14286 40.71429,5 35.71428,1.42857 7.85715,10.71428 -3.57143,44.28572 L 745,422.85714 l -15,-2.14285 -15.71428,20 -50.71429,58.57142 -20,1.42858 -6.42858,19.99999 z"
       id="path3091"
       inkscape:connector-curvature="0"
       transform="translate(-375,32.362183)"
       sodipodi:nodetypes="ccccccccccccccccccccccccccccc" />
    <path
       style="fill:none;stroke:#000000;stroke-width:1px;stroke-linecap:butt;stroke-linejoin:miter;stroke-opacity:1"
       d="M 637.85714,525.71429 645.71429,555 690,566.42857 l 55.71429,5 55.71428,-3.57143 37.85715,-10.71428 47.14285,-22.85715 24.28572,-18.57142 0.71428,-25 7.85715,-15 -4.28572,-7.14286 -15,-7.14286 -42.85714,-5.71428 -28.57143,0 -19.28571,-11.42857 -13.57143,-2.85715 -12.85715,-5.71428 -13.57142,-1.42858 -25.71429,-7.14285 -15.71428,-10e-6 -60.00001,72.14286 -21.42857,3.57143 z"
       id="path3093"
       inkscape:connector-curvature="0"
       transform="translate(-375,32.362183)"
       sodipodi:nodetypes="ccccccccccccccccccccccc" />
    <path
       style="fill:none;stroke:#000000;stroke-width:1px;stroke-linecap:butt;stroke-linejoin:miter;stroke-opacity:1"
       d="m 775.71428,392.85715 40.71429,-53.57143 15.71429,-11.42858 11.42857,-10 15,0 -2.85714,-13.57143 L 870,292.85714 l 21.42857,10 27.14286,11.42857 14.28571,12.14286 15.71429,2.85714 5.71429,17.14286 7.14285,8.57143 -7.85714,18.57143 -30,15 -44.28571,2.14286 -77.85715,13.57142 -15,2.14286 -19.28571,9.28571 z"
       id="path3095"
       inkscape:connector-curvature="0"
       transform="translate(-375,32.362183)"
       sodipodi:nodetypes="cccccccccccccccccccc" />
    <text
       xml:space="preserve"
       style="font-size:40px;font-style:normal;font-weight:normal;line-height:125%;letter-spacing:0px;word-spacing:0px;fill:#000000;fill-opacity:1;stroke:none;font-family:Sans"
       x="435.37576"
       y="162.58354"
       id="navigation"
       sodipodi:linespacing="125%"
       transform="translate(-375,32.362183)"
       inkscape:label="#text3097"><tspan
         sodipodi:role="line"
         id="tspan3099"
         x="435.37576"
         y="162.58354">A B C</tspan></text>
  </g>
</svg>
