<?xml version="1.0" encoding="UTF-8" standalone="no"?>
<!-- Created with Inkscape (http://www.inkscape.org/) -->

<svg
   xmlns:dc="http://purl.org/dc/elements/1.1/"
   xmlns:cc="http://creativecommons.org/ns#"
   xmlns:rdf="http://www.w3.org/1999/02/22-rdf-syntax-ns#"
   xmlns:svg="http://www.w3.org/2000/svg"
   xmlns="http://www.w3.org/2000/svg"
   xmlns:xlink="http://www.w3.org/1999/xlink"
   xmlns:sodipodi="http://sodipodi.sourceforge.net/DTD/sodipodi-0.dtd"
   xmlns:inkscape="http://www.inkscape.org/namespaces/inkscape"
   width="1223"
   height="815"
   id="svg2"
   version="1.1"
   inkscape:version="0.91 r13725"
   sodipodi:docname="Gmeatcan.svg">
  <defs
     id="defs4" />
  <sodipodi:namedview
     id="base"
     pagecolor="#ffffff"
     bordercolor="#666666"
     borderopacity="1.0"
     inkscape:pageopacity="0.0"
     inkscape:pageshadow="2"
     inkscape:zoom="0.7"
     inkscape:cx="458.86408"
     inkscape:cy="339.14062"
     inkscape:document-units="px"
     inkscape:current-layer="layer1"
     showgrid="false"
     fit-margin-top="0"
     fit-margin-left="0"
     fit-margin-right="0"
     fit-margin-bottom="0"
     inkscape:window-width="2560"
     inkscape:window-height="1338"
     inkscape:window-x="0"
     inkscape:window-y="1"
     inkscape:window-maximized="1" />
  <metadata
     id="metadata7">
    <rdf:RDF>
      <cc:Work
         rdf:about="">
        <dc:format>image/svg+xml</dc:format>
        <dc:type
           rdf:resource="http://purl.org/dc/dcmitype/StillImage" />
        <dc:title />
      </cc:Work>
    </rdf:RDF>
  </metadata>
  <g
     inkscape:label="Layer 1"
     inkscape:groupmode="layer"
     id="layer1"
     transform="translate(-94.214287,-330.57648)">
    <image
       y="330.57648"
       x="94.214287"
       id="123"
       xlink:href="file:///T:/SCRAN24/NEW%20PHOTOS%20FOR%20SCRAN/Food%20cans/Gmeatcan.jpg"
       height="815"
       width="1223"
       inkscape:label="#image2993" />
    <path
       style="fill:none;stroke:#000000;stroke-width:1px;stroke-linecap:butt;stroke-linejoin:miter;stroke-opacity:1"
       d="m 48.571429,470 3.571428,125 16.428572,2.14286 125.000001,0 25,-2.85715 10,-9.28571 -2.85714,-120 -20,-2.14286 -138.571433,-0.71428 z"
       id="area_1"
       inkscape:connector-curvature="0"
       transform="translate(94.214287,330.57648)"
       sodipodi:nodetypes="cccccccccc"
       inkscape:label="#path2996" />
    <path
       style="fill:none;stroke:#000000;stroke-width:1px;stroke-linecap:butt;stroke-linejoin:miter;stroke-opacity:1"
       d="m 250.71429,490 -2.85715,102.85714 14.28572,5 116.42857,0.71429 11.42857,-4.28572 7.14286,-12.85714 -6.42857,-99.28571 -22.85715,-2.85715 -102.14285,1.42858 z"
       id="area_2"
       inkscape:connector-curvature="0"
       transform="translate(94.214287,330.57648)"
       inkscape:label="#path2998" />
    <path
       style="fill:none;stroke:#000000;stroke-width:1px;stroke-linecap:butt;stroke-linejoin:miter;stroke-opacity:1"
       d="m 419.28571,429.28571 -4.28571,165 12.14286,5 119.28571,-0.71428 10,-5 4.28572,-7.85714 -5,-161.42858 L 540,422.85715 433.57142,423.57143 z"
       id="area_3"
       inkscape:connector-curvature="0"
       transform="translate(94.214287,330.57648)"
       sodipodi:nodetypes="cccccccccc"
       inkscape:label="#path3000" />
    <path
       style="fill:none;stroke:#000000;stroke-width:1px;stroke-linecap:butt;stroke-linejoin:miter;stroke-opacity:1"
       d="M 668.57143,334.28571 630,351.42857 l -29.28571,46.42857 -18.57143,69.28572 -0.71429,75.71428 12.14286,30 22.14286,24.28572 20.71428,2.85714 72.14286,-0.71429 25.71429,-10 16.42857,-21.42857 10,-32.14285 -2.85715,-66.42858 -10,-45 L 728.57143,376.42857 702.14286,345 z"
       id="area_4"
       inkscape:connector-curvature="0"
       transform="translate(94.214287,330.57648)"
       sodipodi:nodetypes="ccccccccccccccccc"
       inkscape:label="#path3002" />
    <path
       style="fill:none;stroke:#000000;stroke-width:1px;stroke-linecap:butt;stroke-linejoin:miter;stroke-opacity:1"
       d="m 778.57143,465.71429 -4.28571,6.42857 -2.85715,120 12.14286,6.42857 30.71429,7.14286 L 885,610 l 36.42857,-2.85714 27.85714,-8.57143 1.42858,-125 L 917.14286,462.85714 850,459.28571 l -49.28571,2.85715 z"
       id="area_5"
       inkscape:connector-curvature="0"
       transform="translate(94.214287,330.57648)"
       sodipodi:nodetypes="ccccccccccccc"
       inkscape:label="#path3004" />
    <path
       style="fill:none;stroke:#000000;stroke-width:1px;stroke-linecap:butt;stroke-linejoin:miter;stroke-opacity:1"
       d="m 968.57143,508.57143 -1.42857,85.71428 12.85714,7.14286 36.4286,7.85714 52.1429,4.28571 L 1128.5714,610 1145,600.71429 l 3.5714,-85 -32.1428,-10 -57.1429,-5 -64.99998,1.42856 z"
       id="area_6"
       inkscape:connector-curvature="0"
       transform="translate(94.214287,330.57648)"
       sodipodi:nodetypes="cccccccccccc"
       inkscape:label="#path3006" />
    <text
       xml:space="preserve"
       style="font-size:40px;font-style:normal;font-weight:normal;line-height:125%;letter-spacing:0px;word-spacing:0px;fill:#000000;fill-opacity:1;stroke:none;font-family:Sans"
       x="460"
       y="76.428574"
       id="navigation"
       sodipodi:linespacing="125%"
       transform="translate(94.214287,330.57648)"
       inkscape:label="#text3008"><tspan
         sodipodi:role="line"
         id="tspan3010"
         x="460"
         y="76.428574">1 2 3 4 5 6</tspan></text>
  </g>
</svg>
