<?xml version="1.0" encoding="UTF-8" standalone="no"?>
<!-- Created with Inkscape (http://www.inkscape.org/) -->

<svg
   xmlns:dc="http://purl.org/dc/elements/1.1/"
   xmlns:cc="http://creativecommons.org/ns#"
   xmlns:rdf="http://www.w3.org/1999/02/22-rdf-syntax-ns#"
   xmlns:svg="http://www.w3.org/2000/svg"
   xmlns="http://www.w3.org/2000/svg"
   xmlns:xlink="http://www.w3.org/1999/xlink"
   xmlns:sodipodi="http://sodipodi.sourceforge.net/DTD/sodipodi-0.dtd"
   xmlns:inkscape="http://www.inkscape.org/namespaces/inkscape"
   width="1311"
   height="875"
   id="svg2"
   version="1.1"
   inkscape:version="0.91 r13725"
   sodipodi:docname="Gpopbottle.svg">
  <defs
     id="defs4" />
  <sodipodi:namedview
     id="base"
     pagecolor="#ffffff"
     bordercolor="#666666"
     borderopacity="1.0"
     inkscape:pageopacity="0.0"
     inkscape:pageshadow="2"
     inkscape:zoom="0.85142857"
     inkscape:cx="313.72148"
     inkscape:cy="437.5"
     inkscape:document-units="px"
     inkscape:current-layer="layer1"
     showgrid="false"
     fit-margin-top="0"
     fit-margin-left="0"
     fit-margin-right="0"
     fit-margin-bottom="0"
     inkscape:window-width="2560"
     inkscape:window-height="1338"
     inkscape:window-x="0"
     inkscape:window-y="1"
     inkscape:window-maximized="1" />
  <metadata
     id="metadata7">
    <rdf:RDF>
      <cc:Work
         rdf:about="">
        <dc:format>image/svg+xml</dc:format>
        <dc:type
           rdf:resource="http://purl.org/dc/dcmitype/StillImage" />
        <dc:title />
      </cc:Work>
    </rdf:RDF>
  </metadata>
  <g
     inkscape:label="Layer 1"
     inkscape:groupmode="layer"
     id="layer1"
     transform="translate(280.5,-94.862183)">
    <image
       y="94.862183"
       x="-280.5"
       id="image2993"
       xlink:href="file:///T:/SCRAN24/NEW%20PHOTOS%20FOR%20SCRAN/Drink%20bottles%20&amp;%20cans/Gpopbottle.jpg"
       height="875"
       width="1311" />
    <path
       style="fill:none;stroke:#000000;stroke-width:1px;stroke-linecap:butt;stroke-linejoin:miter;stroke-opacity:1"
       d="m 109.22819,353.52349 43.45637,-1.1745 1.1745,27.01343 8.22148,22.31543 -2.349,22.31544 5.87249,3.52349 -9.39598,2.34899 0,7.04698 30.53692,28.18792 1.17449,17.61745 -1.17449,9.39597 -4.69799,7.04698 1.1745,88.08725 0,10.57047 8.22147,16.44295 -2.34899,9.39598 -5.87248,11.74496 -28.18792,9.39598 -36.4094,0 -28.187918,-4.69799 -9.395974,-5.87248 -4.697986,-22.31544 1.174497,-14.09396 7.046979,-10.57047 -1.174496,-81.04027 -9.395973,-16.44295 -1.174497,-21.14094 30.536908,-27.01342 0,-14.09396 -8.221472,2.34899 7.046982,-4.69798 -2.348995,-25.83893 3.523485,-8.22148 4.69799,-9.39597 z"
       id="area_1"
       inkscape:connector-curvature="0"
       transform="translate(-280.5,94.862183)"
       sodipodi:nodetypes="ccccccccccccccccccccccccccccccccccc"
       inkscape:label="#path2996" />
    <path
       style="fill:none;stroke:#000000;stroke-width:1px;stroke-linecap:butt;stroke-linejoin:miter;stroke-opacity:1"
       d="m 243.12081,286.57718 42.28187,0 0,27.01342 12.91947,15.26846 1.17449,31.71141 -9.39597,1.1745 8.22148,7.04698 -5.87249,1.17449 0,9.39598 23.48993,21.14094 -3.52348,15.26845 -5.87249,8.22148 10.57047,10.57047 0,180.87248 2.349,10.57047 -2.349,7.04698 -25.83892,8.22148 -55.20134,1.17449 -25.83893,-7.04698 -3.52349,-18.79194 1.1745,-164.42953 0,-14.09397 8.22147,-11.74496 2.349,-7.04698 -5.87249,-8.22148 c -0.86936,-7.43848 0.91097,-14.87695 9.39598,-22.31543 l 14.09396,-9.39597 0,-7.04698 -10.57047,-3.52349 7.04698,-5.87249 -7.04698,-5.87248 2.34899,-34.0604 8.22148,-2.349 5.87248,-8.22147 z"
       id="area_2"
       inkscape:connector-curvature="0"
       transform="translate(-280.5,94.862183)"
       sodipodi:nodetypes="ccccccccccccccccccccccccccccccccccc"
       inkscape:label="#path2998" />
    <path
       style="fill:none;stroke:#000000;stroke-width:1px;stroke-linecap:butt;stroke-linejoin:miter;stroke-opacity:1"
       d="m 355.87248,348.8255 34.06041,-3.52349 42.28188,3.52349 0,27.01343 3.52349,2.34899 -7.04698,3.52349 0,9.39597 0,5.87249 11.74496,39.93288 7.04698,29.36242 -2.34899,164.42953 -8.22148,7.04698 -35.2349,5.87248 -31.71141,0 -23.48993,-5.87248 -2.34899,-160.90604 1.17449,-25.83893 12.91947,-52.85235 2.34899,-14.09396 -7.04698,-2.34899 z"
       id="area_3"
       inkscape:connector-curvature="0"
       transform="translate(-280.5,94.862183)"
       inkscape:label="#path3000" />
    <path
       style="fill:none;stroke:#000000;stroke-width:1px;stroke-linecap:butt;stroke-linejoin:miter;stroke-opacity:1"
       d="m 512.08054,199.66443 52.85235,1.1745 2.34899,21.14094 -1.1745,10.57047 4.69799,4.69798 -8.22148,3.52349 0,8.22148 32.88591,81.04027 4.69799,19.96644 -2.349,18.79195 1.1745,85.73825 -11.74497,45.80537 3.52349,59.89933 7.04698,34.0604 -4.69798,30.53691 -8.22148,12.91947 -11.74497,2.34899 -15.26845,7.04698 -15.26846,-2.34899 -18.79195,1.17449 -23.48993,-5.87248 -16.44295,-11.74497 -4.69799,-30.53691 -3.52349,-24.66443 8.22148,-50.50335 0,-31.71141 -8.22148,-35.2349 0,-18.79195 0,-76.34228 0,-23.48993 10.57047,-28.18792 25.83893,-59.89933 2.34899,-8.22148 -7.04698,-8.22147 z"
       id="area_4"
       inkscape:connector-curvature="0"
       transform="translate(-280.5,94.862183)"
       inkscape:label="#path3004" />
    <path
       style="fill:none;stroke:#000000;stroke-width:1px;stroke-linecap:butt;stroke-linejoin:miter;stroke-opacity:1"
       d="m 688.25503,197.31544 48.15437,3.52349 2.34899,41.10738 9.39597,14.09396 -1.17449,24.66443 -4.69799,7.04698 21.14094,36.40939 2.34899,76.34229 -16.44295,50.50335 -4.69799,38.75839 0,51.67785 10.57047,62.24833 -2.34899,27.01342 -9.39597,16.44295 -86.91276,1.1745 -21.14094,-8.22148 -5.87248,-37.58389 1.1745,-23.48993 16.44295,-56.37584 1.1745,-51.67786 -2.349,-25.83892 -7.04698,-36.4094 3.52349,-73.99329 9.39598,-30.53691 17.61745,-19.96644 -3.52349,-5.87249 2.34899,-27.01342 8.22148,-8.22147 z"
       id="area_5"
       inkscape:connector-curvature="0"
       transform="translate(-280.5,94.862183)"
       inkscape:label="#path3008" />
    <path
       style="fill:none;stroke:#000000;stroke-width:1px;stroke-linecap:butt;stroke-linejoin:miter;stroke-opacity:1"
       d="m 824.49664,213.75839 65.77182,1.1745 5.87248,37.58389 -8.22148,7.04698 9.39598,17.61745 8.22147,46.97986 7.04698,59.89933 3.52349,59.89933 -9.39597,50.50336 -1.1745,58.72483 5.87249,38.75839 -4.69799,35.2349 -11.74497,23.48993 -45.80537,4.69799 -50.50335,-5.87249 -14.09396,-46.97986 3.52349,-35.2349 4.69798,-71.6443 -2.34899,-25.83892 0,-55.20134 5.87248,-54.02685 19.96645,-90.43624 8.22147,-11.74497 -7.04698,-3.52349 z"
       id="area_6"
       inkscape:connector-curvature="0"
       transform="translate(-280.5,94.862183)"
       inkscape:label="#path3010" />
    <path
       style="fill:none;stroke:#000000;stroke-width:1px;stroke-linecap:butt;stroke-linejoin:miter;stroke-opacity:1"
       d="m 979.5302,256.04027 50.5034,1.1745 5.8724,29.36241 -4.6979,2.34899 3.5234,12.91947 -5.8724,2.34899 -2.349,8.22148 14.0939,27.01342 5.8725,45.80537 8.2215,57.55033 1.1745,49.32886 -3.5235,46.97987 -1.1745,56.37584 -18.7919,57.55033 -68.12086,0 -23.48993,-12.91946 -4.69798,-38.75839 1.17449,-45.80537 1.1745,-86.91275 7.04698,-55.20134 12.91946,-56.37584 9.39597,-30.53691 9.39598,-15.26846 0,-10.57047 -8.22148,-1.1745 5.87248,-15.26845 -2.34899,-7.04698 z"
       id="area_7"
       inkscape:connector-curvature="0"
       transform="translate(-280.5,94.862183)"
       inkscape:label="#path3014" />
    <path
       style="fill:none;stroke:#000000;stroke-width:1px;stroke-linecap:butt;stroke-linejoin:miter;stroke-opacity:1"
       d="m 1109.8993,303.02013 39.9329,-2.34899 38.7584,4.69799 1.1745,35.2349 -8.2215,3.52349 -1.1745,11.74496 11.745,37.5839 12.9195,56.37583 1.1745,37.5839 -2.349,25.83892 -4.698,111.57718 -11.745,30.53692 -51.6778,1.17449 -55.2014,-7.04698 -8.2215,-29.36241 4.698,-138.59061 2.349,-46.97986 18.792,-55.20134 12.9194,-17.61745 1.1745,-21.14094 -8.2215,0 z"
       id="area_8"
       inkscape:connector-curvature="0"
       transform="translate(-280.5,94.862183)"
       inkscape:label="#path3016" />
    <text
       xml:space="preserve"
       style="font-style:normal;font-weight:normal;font-size:40px;line-height:125%;font-family:Sans;letter-spacing:0px;word-spacing:0px;fill:#000000;fill-opacity:1;stroke:none"
       x="22.519531"
       y="184.06027"
       id="navigation"
       sodipodi:linespacing="125%"
       inkscape:label="#text4146"><tspan
         sodipodi:role="line"
         x="22.519531"
         y="184.06027"
         id="tspan4148"><tspan
           x="22.519531"
           y="184.06027"
           id="tspan4150">1 2 3 4 5 6 7 8</tspan></tspan></text>
  </g>
</svg>
