<?xml version="1.0" encoding="UTF-8" standalone="no"?>
<!-- Created with Inkscape (http://www.inkscape.org/) -->

<svg
   xmlns:dc="http://purl.org/dc/elements/1.1/"
   xmlns:cc="http://creativecommons.org/ns#"
   xmlns:rdf="http://www.w3.org/1999/02/22-rdf-syntax-ns#"
   xmlns:svg="http://www.w3.org/2000/svg"
   xmlns="http://www.w3.org/2000/svg"
   xmlns:xlink="http://www.w3.org/1999/xlink"
   xmlns:sodipodi="http://sodipodi.sourceforge.net/DTD/sodipodi-0.dtd"
   xmlns:inkscape="http://www.inkscape.org/namespaces/inkscape"
   width="1240"
   height="827"
   id="svg2"
   version="1.1"
   inkscape:version="0.91 r13725"
   sodipodi:docname="Gpopcarton.svg">
  <defs
     id="defs4" />
  <sodipodi:namedview
     id="base"
     pagecolor="#ffffff"
     bordercolor="#666666"
     borderopacity="1.0"
     inkscape:pageopacity="0.0"
     inkscape:pageshadow="2"
     inkscape:zoom="0.90084643"
     inkscape:cx="296.97047"
     inkscape:cy="413.5"
     inkscape:document-units="px"
     inkscape:current-layer="layer1"
     showgrid="false"
     fit-margin-top="0"
     fit-margin-left="0"
     fit-margin-right="0"
     fit-margin-bottom="0"
     inkscape:window-width="2560"
     inkscape:window-height="1338"
     inkscape:window-x="0"
     inkscape:window-y="1"
     inkscape:window-maximized="1" />
  <metadata
     id="metadata7">
    <rdf:RDF>
      <cc:Work
         rdf:about="">
        <dc:format>image/svg+xml</dc:format>
        <dc:type
           rdf:resource="http://purl.org/dc/dcmitype/StillImage" />
        <dc:title />
      </cc:Work>
    </rdf:RDF>
  </metadata>
  <g
     inkscape:label="Layer 1"
     inkscape:groupmode="layer"
     id="layer1"
     transform="translate(-65.714287,-344.57648)">
    <image
       y="344.57648"
       x="65.714287"
       id="image2993"
       xlink:href="file:///T:/SCRAN24/NEW%20PHOTOS%20FOR%20SCRAN/Drink%20bottles%20&amp;%20cans/Gpopcarton.jpg"
       height="827"
       width="1240" />
    <path
       style="fill:none;stroke:#000000;stroke-width:1px;stroke-linecap:butt;stroke-linejoin:miter;stroke-opacity:1"
       d="m 97.685906,404.06443 16.651004,-11.10067 114.33692,1.11007 4.44026,67.71409 2.22014,172.0604 -18.87114,17.76108 -116.55705,-2.22014 z"
       id="area_1"
       inkscape:connector-curvature="0"
       transform="translate(65.714287,344.57648)"
       inkscape:label="#path2998" />
    <path
       style="fill:none;stroke:#000000;stroke-width:1px;stroke-linecap:butt;stroke-linejoin:miter;stroke-opacity:1"
       d="m 275.29664,325.24966 193.15168,3.33021 -1.11006,19.9812 -35.52215,212.02282 -2.22014,78.81477 -9.9906,12.21074 -105.45638,0 -6.6604,-14.43088 0,-29.97181 -29.97181,-265.30604 z"
       id="area_2"
       inkscape:connector-curvature="0"
       transform="translate(65.714287,344.57648)"
       inkscape:label="#path3002" />
    <path
       style="fill:none;stroke:#000000;stroke-width:1px;stroke-linecap:butt;stroke-linejoin:miter;stroke-opacity:1"
       d="m 591.66577,189.82148 37.74228,-2.22014 3.33021,8.88054 -2.22014,25.53154 -2.22013,5.55034 5.55033,-1.11007 1.11007,14.43087 -7.77047,4.44027 0,6.6604 52.17315,1.11007 13.32081,12.21074 8.88054,22.20134 8.88053,31.08188 3.3302,39.96242 -4.44026,17.76107 -19.98121,46.62282 -1.11007,8.88054 25.53154,116.55704 -2.22013,28.86175 -7.77047,67.71409 -16.65101,6.66041 -32.19194,4.44026 -29.97181,3.33021 -22.20135,0 -22.20134,-1.11007 -11.10067,-3.3302 -6.6604,-11.10067 -29.97182,2.22013 -9.9906,-45.51275 -5.55033,-45.51275 4.44026,-36.63222 8.88054,-53.28322 6.6604,-39.96242 -5.55033,-13.3208 -15.54094,-26.64161 -11.10067,-27.75168 0,-24.42148 12.21074,-39.96241 11.10067,-25.53155 5.55033,-8.88053 12.21074,-5.55034 48.84295,0 0,-7.77047 -6.6604,0 0,-12.21074 5.55034,-5.55033 z"
       id="area_3"
       inkscape:connector-curvature="0"
       transform="translate(65.714287,344.57648)"
       inkscape:label="#path3004" />
    <path
       style="fill:none;stroke:#000000;stroke-width:1px;stroke-linecap:butt;stroke-linejoin:miter;stroke-opacity:1"
       d="m 768.16644,340.7906 112.11678,-2.22013 11.10067,13.32081 3.3302,39.96241 -5.55033,-2.22013 -2.22014,266.4161 -6.6604,2.22014 -106.56644,0 -8.88054,-4.44027 -2.22013,-5.55034 -3.3302,-13.3208 -1.11007,-41.07248 -1.11007,-154.29933 0,-67.7141 z"
       id="area_4"
       inkscape:connector-curvature="0"
       transform="translate(65.714287,344.57648)"
       inkscape:label="#path3006" />
    <path
       style="fill:none;stroke:#000000;stroke-width:1px;stroke-linecap:butt;stroke-linejoin:miter;stroke-opacity:1"
       d="m 960.20805,380.75302 152.07915,-1.11007 13.3209,13.32081 -11.1007,270.85637 -147.63894,0 -8.88054,-24.42147 0,-61.05369 0,-127.65772 z"
       id="area_5"
       inkscape:connector-curvature="0"
       transform="translate(65.714287,344.57648)"
       inkscape:label="#path3008" />
    <text
       xml:space="preserve"
       style="font-style:normal;font-weight:normal;font-size:40px;line-height:125%;font-family:Sans;letter-spacing:0px;word-spacing:0px;fill:#000000;fill-opacity:1;stroke:none"
       x="427.59711"
       y="458.82144"
       id="navigation"
       sodipodi:linespacing="125%"
       inkscape:label="#text4143"><tspan
         sodipodi:role="line"
         x="427.59711"
         y="458.82144"
         id="tspan4145"><tspan
           x="427.59711"
           y="458.82144"
           id="tspan4147">1 2 3 4 5</tspan></tspan></text>
  </g>
</svg>
