<?xml version="1.0" encoding="UTF-8" standalone="no"?>
<!-- Created with Inkscape (http://www.inkscape.org/) -->

<svg
   xmlns:dc="http://purl.org/dc/elements/1.1/"
   xmlns:cc="http://creativecommons.org/ns#"
   xmlns:rdf="http://www.w3.org/1999/02/22-rdf-syntax-ns#"
   xmlns:svg="http://www.w3.org/2000/svg"
   xmlns="http://www.w3.org/2000/svg"
   xmlns:xlink="http://www.w3.org/1999/xlink"
   xmlns:sodipodi="http://sodipodi.sourceforge.net/DTD/sodipodi-0.dtd"
   xmlns:inkscape="http://www.inkscape.org/namespaces/inkscape"
   width="1264"
   height="843"
   id="svg2"
   version="1.1"
   inkscape:version="0.48.4 r9939"
   sodipodi:docname="New document 1">
  <defs
     id="defs4" />
  <sodipodi:namedview
     id="base"
     pagecolor="#ffffff"
     bordercolor="#666666"
     borderopacity="1.0"
     inkscape:pageopacity="0.0"
     inkscape:pageshadow="2"
     inkscape:zoom="0.88374852"
     inkscape:cx="632"
     inkscape:cy="421.5"
     inkscape:document-units="px"
     inkscape:current-layer="layer1"
     showgrid="false"
     fit-margin-top="0"
     fit-margin-left="0"
     fit-margin-right="0"
     fit-margin-bottom="0"
     inkscape:window-width="1280"
     inkscape:window-height="962"
     inkscape:window-x="-8"
     inkscape:window-y="-8"
     inkscape:window-maximized="1" />
  <metadata
     id="metadata7">
    <rdf:RDF>
      <cc:Work
         rdf:about="">
        <dc:format>image/svg+xml</dc:format>
        <dc:type
           rdf:resource="http://purl.org/dc/dcmitype/StillImage" />
        <dc:title></dc:title>
      </cc:Work>
    </rdf:RDF>
  </metadata>
  <g
     inkscape:label="Layer 1"
     inkscape:groupmode="layer"
     id="layer1"
     transform="translate(3.4285715,-310.86218)">
    <image
       y="310.86218"
       x="-3.4285715"
       id="image2993"
       xlink:href="file:///T:/SCRAN24/NEW%20PHOTOS%20FOR%20SCRAN/Drink%20bottles%20&amp;%20cans/Gpopcans.jpg"
       height="843"
       width="1264" />
    <path
       style="fill:none;stroke:#000000;stroke-width:1px;stroke-linecap:butt;stroke-linejoin:miter;stroke-opacity:1"
       d="m 210.46711,173.12617 71.28725,-4.52617 73.55034,5.65772 -1.13155,12.44698 18.1047,29.42013 4.52618,377.93557 -13.57853,7.92081 0,4.52617 -10.18389,9.05235 -40.73557,10.18389 -46.39329,1.13155 -36.20939,-9.05235 -10.1839,-7.92081 -3.39463,-5.65771 -9.05235,-9.05235 -12.44698,-379.06712 16.97316,-30.55168 z"
       id="area_1"
       inkscape:connector-curvature="0"
       transform="translate(-3.4285715,310.86218)"
       sodipodi:nodetypes="cccccccccccccccccc"
       inkscape:label="#path2996" />
    <path
       style="fill:none;stroke:#000000;stroke-width:1px;stroke-linecap:butt;stroke-linejoin:miter;stroke-opacity:1"
       d="m 439.03893,269.30738 16.97315,-5.65772 85.99732,-2.26308 28.28859,4.52617 6.78926,7.92081 -3.39463,4.52617 4.52617,13.57853 2.26309,312.30604 -4.52618,5.65771 1.13155,5.65772 -14.71007,4.52618 -27.15705,7.9208 -41.86711,-1.13154 -23.76242,-3.39463 -21.49932,-7.92081 0,-6.78926 -3.39464,0 -5.65771,-315.70067 3.39463,-12.44698 z"
       id="area_2"
       inkscape:connector-curvature="0"
       transform="translate(-3.4285715,310.86218)"
       inkscape:label="#path2998" />
    <path
       style="fill:none;stroke:#000000;stroke-width:1px;stroke-linecap:butt;stroke-linejoin:miter;stroke-opacity:1"
       d="m 672.13691,315.70067 18.1047,-6.78926 81.47114,-2.26309 35.07785,6.78926 5.65772,6.78927 0,3.39463 -1.13154,1.13154 16.97315,35.07785 -2.26308,236.49262 -19.23625,15.84161 -3.39463,3.39463 -23.76241,7.92081 -38.47249,3.39463 -33.9463,-2.26309 -28.2886,-11.31544 -7.9208,-10.18389 L 658.55839,592.92886 656.2953,359.83087 674.4,323.62148 z"
       id="area_3"
       inkscape:connector-curvature="0"
       transform="translate(-3.4285715,310.86218)"
       inkscape:label="#path3000" />
    <path
       style="fill:none;stroke:#000000;stroke-width:1px;stroke-linecap:butt;stroke-linejoin:miter;stroke-opacity:1"
       d="m 902.97181,383.59329 22.63087,-6.78926 69.02417,0 28.28855,3.39463 19.2363,9.05235 -5.6577,7.9208 0,5.65772 4.5261,6.78926 -6.7892,199.15168 -6.7893,10.18389 -15.8416,6.78926 -41.86711,3.39464 -37.34094,-3.39464 -29.42014,-11.31543 -5.65772,-2.26309 1.13155,-11.31544 -2.26309,-1.13154 2.26309,-193.49396 6.78926,-9.05235 z"
       id="area_4"
       inkscape:connector-curvature="0"
       transform="translate(-3.4285715,310.86218)"
       inkscape:label="#path3002" />
    <flowRoot
       xml:space="preserve"
       id="navigation"
       style="font-size:40px;font-style:normal;font-weight:normal;line-height:125%;letter-spacing:0px;word-spacing:0px;fill:#000000;fill-opacity:1;stroke:none;font-family:Sans"
       transform="translate(-3.4285715,310.86218)"
       inkscape:label="#flowRoot3004"><flowRegion
         id="flowRegion3006"><rect
           id="rect3008"
           width="296.46442"
           height="62.234898"
           x="467.32751"
           y="92.786575" /></flowRegion><flowPara
         id="flowPara3010">1 2 3 4</flowPara></flowRoot>  </g>
</svg>
