<?xml version="1.0" encoding="UTF-8" standalone="no"?>
<!-- Created with Inkscape (http://www.inkscape.org/) -->

<svg
   xmlns:dc="http://purl.org/dc/elements/1.1/"
   xmlns:cc="http://creativecommons.org/ns#"
   xmlns:rdf="http://www.w3.org/1999/02/22-rdf-syntax-ns#"
   xmlns:svg="http://www.w3.org/2000/svg"
   xmlns="http://www.w3.org/2000/svg"
   xmlns:xlink="http://www.w3.org/1999/xlink"
   xmlns:sodipodi="http://sodipodi.sourceforge.net/DTD/sodipodi-0.dtd"
   xmlns:inkscape="http://www.inkscape.org/namespaces/inkscape"
   width="1252"
   height="835"
   id="svg2"
   version="1.1"
   inkscape:version="0.48.4 r9939"
   sodipodi:docname="New document 1">
  <defs
     id="defs4" />
  <sodipodi:namedview
     id="base"
     pagecolor="#ffffff"
     bordercolor="#666666"
     borderopacity="1.0"
     inkscape:pageopacity="0.0"
     inkscape:pageshadow="2"
     inkscape:zoom="0.89221557"
     inkscape:cx="626"
     inkscape:cy="417.5"
     inkscape:document-units="px"
     inkscape:current-layer="layer1"
     showgrid="false"
     fit-margin-top="0"
     fit-margin-left="0"
     fit-margin-right="0"
     fit-margin-bottom="0"
     inkscape:window-width="1280"
     inkscape:window-height="962"
     inkscape:window-x="-8"
     inkscape:window-y="-8"
     inkscape:window-maximized="1" />
  <metadata
     id="metadata7">
    <rdf:RDF>
      <cc:Work
         rdf:about="">
        <dc:format>image/svg+xml</dc:format>
        <dc:type
           rdf:resource="http://purl.org/dc/dcmitype/StillImage" />
        <dc:title></dc:title>
      </cc:Work>
    </rdf:RDF>
  </metadata>
  <g
     inkscape:label="Layer 1"
     inkscape:groupmode="layer"
     id="layer1"
     transform="translate(251,-114.86218)">
    <image
       y="114.86218"
       x="-251"
       id="image2993"
       xlink:href="file:///T:/SCRAN24/NEW%20PHOTOS%20FOR%20SCRAN/Drink%20bottles%20&amp;%20cans/Gwinebottle.jpg"
       height="835"
       width="1252" />
    <path
       style="fill:none;stroke:#000000;stroke-width:1px;stroke-linecap:butt;stroke-linejoin:miter;stroke-opacity:1"
       d="m 295.89262,105.3557 51.55704,0 5.60403,12.32886 1.12081,24.65772 1.1208,121.04698 13.44967,14.57047 20.17449,23.53691 7.84564,24.65772 0,26.89933 -1.1208,320.55034 -5.60403,13.44966 -23.53691,10.08725 -40.349,2.24161 -44.83221,-1.12081 -19.05369,-7.84563 -10.08725,-13.44967 0,-15.69127 -2.24161,-336.24161 7.84563,-28.02014 31.38256,-29.14094 2.24161,-10.08725 -1.12081,-127.77181 z"
       id="area_1"
       inkscape:connector-curvature="0"
       transform="translate(-251,114.86218)"
       inkscape:label="#path2996" />
    <path
       style="fill:none;stroke:#000000;stroke-width:1px;stroke-linecap:butt;stroke-linejoin:miter;stroke-opacity:1"
       d="m 521.1745,123.28859 58.28188,1.12081 4.48322,44.83221 -4.48322,6.72483 2.24161,71.73155 10.08724,53.79865 20.1745,72.85235 10.08725,51.55705 3.36242,40.34899 -1.12081,203.98658 -7.84564,19.05369 -32.50335,8.96644 -53.79866,0 -33.62416,-4.48322 -21.2953,-13.44966 -3.36242,-16.81208 0,-206.22819 7.84564,-57.16107 15.69127,-54.91947 15.69128,-53.79865 6.72483,-45.95302 6.72483,-73.97316 -5.60402,-2.24161 z"
       id="area_2"
       inkscape:connector-curvature="0"
       transform="translate(-251,114.86218)"
       inkscape:label="#path2998" />
    <path
       style="fill:none;stroke:#000000;stroke-width:1px;stroke-linecap:butt;stroke-linejoin:miter;stroke-opacity:1"
       d="m 719.55705,299.25503 50.43624,0 1.1208,86.30202 0,5.60402 16.81208,21.29531 8.96645,20.17449 0,35.86577 -3.36242,215.19464 -4.48322,10.08724 -26.89933,3.36242 -35.86577,0 -31.38255,-6.72483 -4.48322,-14.57047 3.36241,-225.28188 0,-21.2953 8.96645,-21.29531 15.69127,-14.57047 1.12081,-8.96644 z"
       id="area_3"
       inkscape:connector-curvature="0"
       transform="translate(-251,114.86218)"
       inkscape:label="#path3000" />
    <path
       style="fill:none;stroke:#000000;stroke-width:1px;stroke-linecap:butt;stroke-linejoin:miter;stroke-opacity:1"
       d="m 880.95302,330.63758 52.67785,1.12081 0,88.54362 11.20806,15.69128 10.08724,22.41611 -2.24161,223.04026 -4.48322,17.93289 -31.38255,4.48322 -29.14094,-1.1208 -25.77852,-6.72484 -5.60403,-10.08724 0,-106.47651 3.36242,-100.87249 -1.12081,-23.53691 3.36242,-13.44966 17.93288,-19.0537 2.24162,-7.84563 z"
       id="area_4"
       inkscape:connector-curvature="0"
       transform="translate(-251,114.86218)"
       inkscape:label="#path3002" />
    <flowRoot
       xml:space="preserve"
       id="navigation"
       style="font-size:40px;font-style:normal;font-weight:normal;line-height:125%;letter-spacing:0px;word-spacing:0px;fill:#000000;fill-opacity:1;stroke:none;font-family:Sans"
       transform="translate(-251,114.86218)"
       inkscape:label="#flowRoot3004"><flowRegion
         id="flowRegion3006"><rect
           id="rect3008"
           width="345.20807"
           height="52.677853"
           x="632.13422"
           y="58.281879" /></flowRegion><flowPara
         id="flowPara3010">1 2 3 4</flowPara></flowRoot>  </g>
</svg>
