<?xml version="1.0" encoding="UTF-8" standalone="no"?>
<!-- Created with Inkscape (http://www.inkscape.org/) -->

<svg
   xmlns:dc="http://purl.org/dc/elements/1.1/"
   xmlns:cc="http://creativecommons.org/ns#"
   xmlns:rdf="http://www.w3.org/1999/02/22-rdf-syntax-ns#"
   xmlns:svg="http://www.w3.org/2000/svg"
   xmlns="http://www.w3.org/2000/svg"
   xmlns:xlink="http://www.w3.org/1999/xlink"
   xmlns:sodipodi="http://sodipodi.sourceforge.net/DTD/sodipodi-0.dtd"
   xmlns:inkscape="http://www.inkscape.org/namespaces/inkscape"
   width="744.09448819"
   height="1052.3622047"
   id="svg2"
   version="1.1"
   inkscape:version="0.48.3.1 r9886"
   sodipodi:docname="Gareo.svg">
  <defs
     id="defs4" />
  <sodipodi:namedview
     id="base"
     pagecolor="#ffffff"
     bordercolor="#666666"
     borderopacity="1.0"
     inkscape:pageopacity="0.0"
     inkscape:pageshadow="2"
     inkscape:zoom="0.35"
     inkscape:cx="-314.28566"
     inkscape:cy="1205.7143"
     inkscape:document-units="px"
     inkscape:current-layer="layer1"
     showgrid="false"
     inkscape:window-width="1317"
     inkscape:window-height="744"
     inkscape:window-x="49"
     inkscape:window-y="24"
     inkscape:window-maximized="1" />
  <metadata
     id="metadata7">
    <rdf:RDF>
      <cc:Work
         rdf:about="">
        <dc:format>image/svg+xml</dc:format>
        <dc:type
           rdf:resource="http://purl.org/dc/dcmitype/StillImage" />
        <dc:title></dc:title>
      </cc:Work>
    </rdf:RDF>
  </metadata>
  <g
     inkscape:label="Layer 1"
     inkscape:groupmode="layer"
     id="layer1">
    <image
       y="-959.06641"
       x="-1805.7142"
       id="image3044"
       xlink:href="file:///media/01/Gaero.jpg"
       height="2000"
       width="3000" />
    <path
       style="fill:none;stroke:#000000;stroke-width:1px;stroke-linecap:butt;stroke-linejoin:miter;stroke-opacity:1"
       d="m -1274.2857,-527.63782 0,62.85715 0,54.28571 -2.8572,22.85714 5.7143,5.71429 -8.5714,14.28571 -8.5714,20 0,48.57143 0,54.28572 0,34.28571 -8.5715,28.57143 -8.5714,54.28571 -2.8571,65.714288 2.8571,31.428572 -8.5714,37.1428569 0,25.7142861 -40,40 0,62.857147 -2.8572,57.14285 -22.8571,85.71429 25.7143,-17.14286 168.5714,-8.57143 125.7143,-8.57143 45.7143,-8.57142 8.5714,-5.71429 2.8572,-11.42857 42.8571,-2.85714 65.71429,20 42.85714,0 74.28571,22.85714 57.14286,5.71428 65.71429,-8.57142 31.42857,8.57142 8.57143,-37.14285 -14.28572,-54.28572 -5.71428,-74.285712 0,-60 5.71428,-34.285714 -8.57143,-60 8.57143,-60.000004 -8.57143,-100 -2.85714,-28.57142 17.14286,-45.71429 8.57143,-68.57143 11.42857,-100 -2.85715,-65.71428 -2.85714,-25.71429 -14.28571,11.42857 -28.57143,8.57143 -82.85714,14.28571 -60,-5.71428 -48.57143,-8.57143 -40,-5.71429 -74.28572,-2.85714 -48.57144,20 -45.7143,5.71429 -40,0 -42.8571,0 c 0,0 -25.7143,-2.85715 -37.1429,-2.85715 -11.4285,0 -51.4285,-2.85714 -51.4285,-2.85714 z"
       id="area_1"
       inkscape:connector-curvature="0"
       inkscape:label="#path3047" />
    <path
       style="fill:none;stroke:#000000;stroke-width:1px;stroke-linecap:butt;stroke-linejoin:miter;stroke-opacity:1"
       d="m -497.14286,-424.78067 -37.14285,11.42857 -22.85715,0 -17.14285,0 -8.57143,0 -2.85715,14.28571 0,34.28572 2.85715,42.85714 2.85714,51.42857 11.42857,60 0,71.42857 0,60.000001 0,68.571429 -5.71428,77.142857 -5.71429,62.857143 -11.42857,42.85714 -2.85714,20 -5.71429,14.28572 0,22.85714 31.42857,2.85714 31.42857,-17.14285 34.28572,-17.14286 37.14285,-8.57143 48.57143,8.57143 48.57143,-5.71429 71.42857,-2.85714 45.71429,-11.42857 82.85714,11.42857 22.85714,-17.14286 -11.42857,-20 -14.28571,0 -8.57143,-5.71428 -14.28571,-80.000003 0,-88.571429 -5.71429,-77.142857 -14.28571,-102.857141 2.85714,-34.28572 5.71428,-60 8.57143,-25.71428 0,-34.28572 -17.14285,-37.14285 -48.57143,-25.71429 -37.14286,0 c 0,0 -14.28571,-5.71428 -31.42857,-5.71428 -17.14286,0 -57.14286,0 -57.14286,0 l -48.57143,0 -31.42857,0 z"
       id="area_2"
       inkscape:connector-curvature="0"
       inkscape:label="#path3068" />
    <path
       style="fill:none;stroke:#000000;stroke-width:1px;stroke-linecap:butt;stroke-linejoin:miter;stroke-opacity:1"
       d="m 434.28571,-456.20925 -280,0 -197.142853,0 -77.142857,0 -40,-5.71428 -22.85714,-14.28572 -14.28572,0 5.71429,17.14286 8.57143,25.71429 0,31.42857 0,20 5.71428,28.57143 0,40 0,37.14285 34.28572,42.85715 0,-20 51.428569,5.71428 120,5.71429 128.571431,2.85714 188.57143,-2.85714 140,0 65.71428,-5.71429 34.28572,0 40,-22.85714 -5.71429,-14.28571 -2.85714,-40 -8.57143,-25.71429 -8.57143,-37.14286 -11.42857,-60 0,-25.71428 -8.57143,-11.42857 -28.57143,20 -11.42857,5.71428 -17.14286,2.85714 -51.42857,2.85715 z"
       id="area_3"
       inkscape:connector-curvature="0"
       inkscape:label="#path3070" />
    <path
       style="fill:none;stroke:#000000;stroke-width:1px;stroke-linecap:butt;stroke-linejoin:miter;stroke-opacity:1"
       d="m 202.85714,-67.637817 231.42857,8.571428 94.28572,2.857143 42.85714,-2.857143 17.14286,-2.857143 L 640,-53.352103 654.28571,-61.923532 640,-139.06639 628.57143,-190.49496 631.42857,-213.3521 620,-219.06639 l -60,2.85714 -8.57143,8.57143 -91.42857,2.85715 -85.71429,-2.85715 c 0,0 -77.14285,0 -88.57142,0 -11.42858,0 -137.14286,-2.85714 -137.14286,-2.85714 l -80.000001,0 -85.714286,0 -54.285714,-5.71429 -51.428569,-2.85714 L -140,-233.3521 l -8.57143,11.42857 2.85714,25.71428 0,11.42858 -25.71428,0 34.28571,25.71428 5.71429,31.42857 8.57143,28.571431 0,14.285714 5.71428,14.285715 65.714289,0 77.142857,8.571428 65.714285,0 51.428569,0 z"
       id="area_4"
       inkscape:connector-curvature="0"
       inkscape:label="#path3072" />
    <path
       style="fill:none;stroke:#000000;stroke-width:1px;stroke-linecap:butt;stroke-linejoin:miter;stroke-opacity:1"
       d="m 214.28571,132.36218 105.71429,0 68.57143,0 60,-2.85714 25.71428,2.85714 22.85715,-25.71428 25.71428,-8.571432 20,14.285712 8.57143,0 L 540,29.50504 534.28571,0.93361119 l 0,-14.28571419 -22.85714,-11.428572 -20,0 -40,-14.285714 0,0 -17.14286,0 -20,0 c 0,0 -20,0 -54.28571,0 -34.28571,0 -42.85714,0 -42.85714,0 l -77.14286,0 -77.14286,0 -97.142854,5.714286 -42.857143,2.857143 -45.714286,8.571428 L -28.571429,-50.49496 -40,-53.352103 l -2.857143,59.9999999 20,51.4285711 -17.142857,20 14.285714,20 11.428572,8.571432 11.4285711,31.42857 28.5714289,0 L 80,132.36218 z"
       id="area_5"
       inkscape:connector-curvature="0"
       inkscape:label="#path3074" />
    <path
       style="fill:none;stroke:#000000;stroke-width:1px;stroke-linecap:butt;stroke-linejoin:miter;stroke-opacity:1"
       d="M 148.57143,298.07647 285.71429,286.6479 340,292.36218 l 71.42857,-11.42857 45.71429,0 40,-20 20,-25.71428 -2.85715,-25.71429 17.14286,-11.42857 0,-28.57143 -11.42857,-20 0,-14.28571 -8.57143,-14.28572 -5.71428,-11.42857 -14.28572,0 -14.28571,20 -40,17.14286 -68.57143,8.57143 -77.14286,0 -88.57143,2.85714 -40,2.85714 -11.42857,0 L 134.28571,146.6479 97.142857,140.93361 80,146.6479 68.571429,135.21933 l 0,-5.71429 -22.857143,-2.85714 -17.142857,17.14285 5.714285,11.42858 -2.857143,48.57142 L 40,226.6479 l -20,34.28571 5.714286,22.85714 28.571428,22.85715 40,-5.71429 31.428576,-5.71428 z"
       id="area_6"
       inkscape:connector-curvature="0"
       inkscape:label="#path3076" />
    <flowRoot
       xml:space="preserve"
       id="flowRoot3078"
       style="font-size:48px;font-style:normal;font-weight:normal;line-height:125%;letter-spacing:0px;word-spacing:0px;fill:#000000;fill-opacity:1;stroke:none;font-family:Sans"><flowRegion
         id="flowRegion3080"><rect
           id="rect3082"
           width="20"
           height="142.85715"
           x="-742.85712"
           y="-867.63782" /></flowRegion><flowPara
         id="flowPara3084">1 1 </flowPara></flowRoot>    <text
       xml:space="preserve"
       style="font-size:48px;font-style:normal;font-weight:normal;line-height:125%;letter-spacing:0px;word-spacing:0px;fill:#000000;fill-opacity:1;stroke:none;font-family:Sans"
       x="-640"
       y="-847.63782"
       id="navigation"
       sodipodi:linespacing="125%"
       inkscape:label="#text3086"><tspan
         sodipodi:role="line"
         id="tspan3088"
         x="-640"
         y="-847.63782">1 2 3 4 5 6</tspan></text>
  </g>
</svg>
