<?xml version="1.0" encoding="UTF-8" standalone="no"?>
<!-- Created with Inkscape (http://www.inkscape.org/) -->

<svg
   xmlns:dc="http://purl.org/dc/elements/1.1/"
   xmlns:cc="http://creativecommons.org/ns#"
   xmlns:rdf="http://www.w3.org/1999/02/22-rdf-syntax-ns#"
   xmlns:svg="http://www.w3.org/2000/svg"
   xmlns="http://www.w3.org/2000/svg"
   xmlns:xlink="http://www.w3.org/1999/xlink"
   xmlns:sodipodi="http://sodipodi.sourceforge.net/DTD/sodipodi-0.dtd"
   xmlns:inkscape="http://www.inkscape.org/namespaces/inkscape"
   width="799"
   height="533"
   id="svg2"
   version="1.1"
   inkscape:version="0.48.3.1 r9886"
   sodipodi:docname="Gcake.svg">
  <defs
     id="defs4" />
  <sodipodi:namedview
     id="base"
     pagecolor="#ffffff"
     bordercolor="#666666"
     borderopacity="1.0"
     inkscape:pageopacity="0.0"
     inkscape:pageshadow="2"
     inkscape:zoom="1"
     inkscape:cx="449.35715"
     inkscape:cy="279.92856"
     inkscape:document-units="px"
     inkscape:current-layer="layer1"
     showgrid="false"
     fit-margin-top="0"
     fit-margin-left="0"
     fit-margin-right="0"
     fit-margin-bottom="0"
     inkscape:window-width="1317"
     inkscape:window-height="744"
     inkscape:window-x="49"
     inkscape:window-y="24"
     inkscape:window-maximized="1" />
  <metadata
     id="metadata7">
    <rdf:RDF>
      <cc:Work
         rdf:about="">
        <dc:format>image/svg+xml</dc:format>
        <dc:type
           rdf:resource="http://purl.org/dc/dcmitype/StillImage" />
        <dc:title></dc:title>
      </cc:Work>
    </rdf:RDF>
  </metadata>
  <g
     inkscape:label="Layer 1"
     inkscape:groupmode="layer"
     id="layer1"
     transform="translate(74.357147,-279.29074)">
    <image
       y="279.29074"
       x="-74.357147"
       id="image3253"
       xlink:href="file:///media/01/Gcake.jpg"
       height="533"
       width="799" />
    <path
       style="fill:none;stroke:#000000;stroke-width:1px;stroke-linecap:butt;stroke-linejoin:miter;stroke-opacity:1"
       d="m 353,21 -11,4 -9,5 -6,5 -6,4 -4,9 -8,12 0,8 10,12 9,7 6,5 1,8 7,7 7,8 12,4 15,1 14,-3 6,-3 6,-9 2,-11 3,-7 10,-8 6,-11 0,-4 0,-5 0,-12 0,-5 -4,-4 -10,-7 -2,-2 -1,-5 -9,0 -3,-4 -11,-1 -9,-1 -12,0 z"
       id="area_1"
       inkscape:connector-curvature="0"
       transform="translate(-74.357147,279.29074)"
       inkscape:label="#path3256" />
    <path
       style="fill:none;stroke:#000000;stroke-width:1px;stroke-linecap:butt;stroke-linejoin:miter;stroke-opacity:1"
       d="m 466,68 -12,-1 -9,3 -6,4 -4,1 -7,0 -3,7 -5,8 -1,5 6,13 6,8 8,0 0,6 9,10 18,1 13,-2 14,-15 10,-7 4,-7 0,-9 -4,-8 -5,-7 -4,-2 -7,-3 -2,-5 -3,0 -5,-1 z"
       id="area_3"
       inkscape:connector-curvature="0"
       transform="translate(-74.357147,279.29074)"
       inkscape:label="#path3258" />
    <path
       style="fill:none;stroke:#000000;stroke-width:1px;stroke-linecap:butt;stroke-linejoin:miter;stroke-opacity:1"
       d="m 316,104 -14,4 -6,3 -7,7 -4,8 -1,6 3,11 3,4 6,12 6,8 17,7 13,-3 6,0 10,-6 4,-8 0,-17 3,-14 -1,-8 -8,-7 -10,-3 -5,-2 -5,-2 -2,-2 z"
       id="area_2"
       inkscape:connector-curvature="0"
       transform="translate(-74.357147,279.29074)"
       inkscape:label="#path3260" />
    <path
       style="fill:none;stroke:#000000;stroke-width:1px;stroke-linecap:butt;stroke-linejoin:miter;stroke-opacity:1"
       d="m 395,136 -10,4 -10,7 -6,11 -3,14 7,15 13,10 14,3 11,2 22,-3 19,-9 6,-14 2,-12 -7,-11 -6,-8 -14,-8 -13,-1 -10,-1 z"
       id="area_4"
       inkscape:connector-curvature="0"
       transform="translate(-74.357147,279.29074)"
       inkscape:label="#path3281" />
    <path
       style="fill:none;stroke:#000000;stroke-width:1px;stroke-linecap:butt;stroke-linejoin:miter;stroke-opacity:1"
       d="m 196,249 -16,5 -15,7 -3,4 7,19 47,51 34,-16 0,-16 -35,-40 -12,-11 z"
       id="area_7"
       inkscape:connector-curvature="0"
       transform="translate(-74.357147,279.29074)"
       inkscape:label="#path3283" />
    <path
       style="fill:none;stroke:#000000;stroke-width:1px;stroke-linecap:butt;stroke-linejoin:miter;stroke-opacity:1"
       d="m 278,259 -21,14 -5,6 2,9 14,15 21,21 12,13 5,7 6,2 22,-11 8,-11 0,-8 -7,-7 -35,-36 -10,-12 -4,-2 z"
       id="area_10"
       inkscape:connector-curvature="0"
       transform="translate(-74.357147,279.29074)"
       inkscape:label="#path3285" />
    <path
       style="fill:none;stroke:#000000;stroke-width:1px;stroke-linecap:butt;stroke-linejoin:miter;stroke-opacity:1"
       d="m 139,282 -17,13 -12,4 -9,8 7,9 3,7 21,23 22,25 17,-3 22,-14 0,-9 -2,-4 2,-6 -30,-34 -14,-12 z"
       id="area_6"
       inkscape:connector-curvature="0"
       transform="translate(-74.357147,279.29074)"
       inkscape:label="#path3287" />
    <path
       style="fill:none;stroke:#000000;stroke-width:1px;stroke-linecap:butt;stroke-linejoin:miter;stroke-opacity:1"
       d="m 102,395 46,51 1,1 34,-18 -8,-28 -36,-37 -8,-12 -2,-1 -12,4 -20,11 -1,8 2,8 z"
       id="area_5"
       inkscape:connector-curvature="0"
       transform="translate(-74.357147,279.29074)"
       inkscape:label="#path3289" />
    <path
       style="fill:none;stroke:#000000;stroke-width:1px;stroke-linecap:butt;stroke-linejoin:miter;stroke-opacity:1"
       d="m 203,360 -22,13 -8,4 1,5 4,12 1,12 31,35 17,18 38,-22 -5,-18 -50,-58 z"
       id="area_8"
       inkscape:connector-curvature="0"
       transform="translate(-74.357147,279.29074)"
       inkscape:label="#path3291" />
    <path
       style="fill:none;stroke:#000000;stroke-width:1px;stroke-linecap:butt;stroke-linejoin:miter;stroke-opacity:1"
       d="m 269,322 c -32,19 -34,21 -34,21 l 6,21 58,63 37,-26 -9,-14 z"
       id="area_9"
       inkscape:connector-curvature="0"
       transform="translate(-74.357147,279.29074)"
       inkscape:label="#path3293" />
    <path
       style="fill:none;stroke:#000000;stroke-width:1px;stroke-linecap:butt;stroke-linejoin:miter;stroke-opacity:1"
       d="m 511,245 -16,12 -12,9 2,18 2,26 1,9 6,11 5,-3 16,0 12,4 7,4 7,-2 12,-8 6,-5 0,-5 1,-16 3,-11 -2,-14 -11,-15 -12,-9 -8,-5 -8,0 -6,4 z"
       id="area_12"
       inkscape:connector-curvature="0"
       transform="translate(-74.357147,279.29074)"
       inkscape:label="#path3295" />
    <path
       style="fill:none;stroke:#000000;stroke-width:1px;stroke-linecap:butt;stroke-linejoin:miter;stroke-opacity:1"
       d="m 606,242 -32,5 -5,1 -1,1 -5,-1 4,16 6,15 1,8 0,8 13,20 19,2 28,-5 5,-4 2,-7 7,-10 -1,-6 -6,-11 0,-9 -3,-6 -7,-7 3,-4 0,-5 -10,-1 -8,0 z"
       id="area_11"
       inkscape:connector-curvature="0"
       transform="translate(-74.357147,279.29074)"
       inkscape:label="#path3297" />
    <path
       style="fill:none;stroke:#000000;stroke-width:1px;stroke-linecap:butt;stroke-linejoin:miter;stroke-opacity:1"
       d="m 676,297 -30,5 -9,9 -7,11 -2,4 -1,13 2,16 3,14 15,11 23,10 6,-2 16,-5 8,-9 7,-7 6,-9 9,-3 -4,-9 -1,-13 0,-10 -15,-11 -8,-8 -7,-6 z"
       id="area_15"
       inkscape:connector-curvature="0"
       transform="translate(-74.357147,279.29074)"
       inkscape:label="#path3299" />
    <path
       style="fill:none;stroke:#000000;stroke-width:1px;stroke-linecap:butt;stroke-linejoin:miter;stroke-opacity:1"
       d="m 479,338 -10,11 -1,8 1,14 3,11 2,13 12,15 21,4 21,-1 11,-10 7,-9 4,-14 2,-12 -1,-11 -6,-7 -3,-8 -7,-7 -14,-7 -15,-2 -18,5 z"
       id="area_13"
       inkscape:connector-curvature="0"
       transform="translate(-74.357147,279.29074)"
       inkscape:label="#path3301" />
    <path
       style="fill:none;stroke:#000000;stroke-width:1px;stroke-linecap:butt;stroke-linejoin:miter;stroke-opacity:1"
       d="m 617,366 -31,6 -13,13 -3,12 1,14 1,12 2,8 1,7 25,17 17,-2 20,-5 9,-10 4,-9 8,-16 2,-15 -4,-8 -4,-5 -7,-6 -10,-7 -7,-2 z"
       id="area_14"
       inkscape:connector-curvature="0"
       transform="translate(-74.357147,279.29074)"
       inkscape:label="#path3303" />
    <text
       xml:space="preserve"
       style="font-size:19.11893654px;font-style:normal;font-weight:normal;line-height:125%;letter-spacing:0px;word-spacing:0px;fill:#000000;fill-opacity:1;stroke:none;font-family:Sans"
       x="-70.561523"
       y="254.08342"
       id="text3305"
       sodipodi:linespacing="125%"
       transform="scale(0.78999239,1.265835)"><tspan
         sodipodi:role="line"
         id="tspan3307"
         x="-70.561523"
         y="254.08342">1 2 3 4 7 10 6 5 8 9 12 11 13 15 14</tspan></text>
  </g>
</svg>
