<?xml version="1.0" encoding="UTF-8" standalone="no"?>
<!-- Created with Inkscape (http://www.inkscape.org/) -->

<svg
   xmlns:dc="http://purl.org/dc/elements/1.1/"
   xmlns:cc="http://creativecommons.org/ns#"
   xmlns:rdf="http://www.w3.org/1999/02/22-rdf-syntax-ns#"
   xmlns:svg="http://www.w3.org/2000/svg"
   xmlns="http://www.w3.org/2000/svg"
   xmlns:xlink="http://www.w3.org/1999/xlink"
   xmlns:sodipodi="http://sodipodi.sourceforge.net/DTD/sodipodi-0.dtd"
   xmlns:inkscape="http://www.inkscape.org/namespaces/inkscape"
   width="800"
   height="533"
   id="svg2"
   version="1.1"
   inkscape:version="0.48.3.1 r9886"
   sodipodi:docname="Gcans.svg">
  <defs
     id="defs4" />
  <sodipodi:namedview
     id="base"
     pagecolor="#ffffff"
     bordercolor="#666666"
     borderopacity="1.0"
     inkscape:pageopacity="0.0"
     inkscape:pageshadow="2"
     inkscape:zoom="1"
     inkscape:cx="431.28571"
     inkscape:cy="282.64286"
     inkscape:document-units="px"
     inkscape:current-layer="layer1"
     showgrid="false"
     fit-margin-top="0"
     fit-margin-left="0"
     fit-margin-right="0"
     fit-margin-bottom="0"
     inkscape:window-width="1317"
     inkscape:window-height="744"
     inkscape:window-x="49"
     inkscape:window-y="24"
     inkscape:window-maximized="1" />
  <metadata
     id="metadata7">
    <rdf:RDF>
      <cc:Work
         rdf:about="">
        <dc:format>image/svg+xml</dc:format>
        <dc:type
           rdf:resource="http://purl.org/dc/dcmitype/StillImage" />
        <dc:title></dc:title>
      </cc:Work>
    </rdf:RDF>
  </metadata>
  <g
     inkscape:label="Layer 1"
     inkscape:groupmode="layer"
     id="layer1"
     transform="translate(56.285706,-314.86218)">
    <image
       y="314.86218"
       x="-56.285706"
       id="image3118"
       xlink:href="file:///media/01/Gcans.jpg"
       height="533"
       width="800" />
    <path
       style="fill:none;stroke:#000000;stroke-width:1px;stroke-linecap:butt;stroke-linejoin:miter;stroke-opacity:1"
       d="m 115,215 -15,4 -11,6 -7,6 0,6 8,38 4,20 18,60 6,6 7,4 10,0 7,0 12,-5 10,-10 2,-4 -8,-40 -10,-48 -2,-5 -2,-15 -4,-13 -5,-5 -5,-3 z"
       id="area_1"
       inkscape:connector-curvature="0"
       transform="translate(-56.285706,314.86218)"
       inkscape:label="#path3121" />
    <path
       style="fill:none;stroke:#000000;stroke-width:1px;stroke-linecap:butt;stroke-linejoin:miter;stroke-opacity:1"
       d="m 169,30 -21,8 -11,6 -3,7 -1,7 1,2 -4,10 -1,9 5,20 11,52 13,63 12,51 9,10 23,4 21,-1 21,-12 10,-11 -1,-25 -4,-27 -8,-57 -7,-62 -5,-22 -5,-7 -6,-5 2,-5 -9,-13 -9,-1 -16,-2 z"
       id="area_2"
       inkscape:connector-curvature="0"
       transform="translate(-56.285706,314.86218)"
       inkscape:label="#path3123" />
    <path
       style="fill:none;stroke:#000000;stroke-width:1px;stroke-linecap:butt;stroke-linejoin:miter;stroke-opacity:1"
       d="m 297,153 -14,4 -10,6 -9,5 -1,12 1,6 -4,6 -5,15 7,42 7,29 0,20 1,25 15,15 24,7 31,-5 15,-8 14,-21 -2,-55 -3,-60 -8,-17 -3,-8 -10,-12 -11,-3 -15,-2 -14,0 z"
       id="area_3"
       inkscape:connector-curvature="0"
       transform="translate(-56.285706,314.86218)"
       inkscape:label="#path3125" />
    <path
       style="fill:none;stroke:#000000;stroke-width:1px;stroke-linecap:butt;stroke-linejoin:miter;stroke-opacity:1"
       d="m 411,51 -31,7 -7,11 0,11 -2,1 -1,9 4,64 1,77 0,37 8,10 11,10 20,2 15,-2 11,-4 13,-11 2,-54 2,-61 2,-55 1,-23 0,-5 -2,-7 -1,-4 -3,-2 -3,-2 -4,-3 -14,-4 -3,0 -8,0 z"
       id="area_4"
       inkscape:connector-curvature="0"
       transform="translate(-56.285706,314.86218)"
       inkscape:label="#path3127" />
    <path
       style="fill:none;stroke:#000000;stroke-width:1px;stroke-linecap:butt;stroke-linejoin:miter;stroke-opacity:1"
       d="m 518,194 -21,-1 -14,3 -11,9 -7,6 4,8 -3,7 -2,26 0,15 -1,25 -2,22 1,9 6,9 19,11 8,3 15,0 10,-1 12,-7 5,-11 5,-24 5,-45 2,-21 2,-16 -1,-11 -13,-9 z"
       id="area_5"
       inkscape:connector-curvature="0"
       transform="translate(-56.285706,314.86218)"
       inkscape:label="#path3129" />
    <path
       style="fill:none;stroke:#000000;stroke-width:1px;stroke-linecap:butt;stroke-linejoin:miter;stroke-opacity:1"
       d="m 620,83 -22,0 -14,5 -7,7 -1,7 0,6 -3,10 -3,29 -9,50 -5,40 -3,30 18,16 33,5 18,-9 6,-7 5,-39 7,-38 12,-65 1,-13 5,-9 -2,-8 -15,-13 z"
       id="area_6"
       inkscape:connector-curvature="0"
       transform="translate(-56.285706,314.86218)"
       inkscape:label="#path3131" />
    <path
       style="fill:none;stroke:#000000;stroke-width:1px;stroke-linecap:butt;stroke-linejoin:miter;stroke-opacity:1"
       d="m 695,223 -14,-3 -18,5 -6,13 0,10 -1,5 -4,4 -1,9 -4,11 -3,17 -6,28 -3,21 -1,10 15,12 20,4 17,-8 7,-28 9,-39 1,-17 7,-9 -3,-6 4,-17 -3,-17 z"
       id="area_7"
       inkscape:connector-curvature="0"
       transform="translate(-56.285706,314.86218)"
       inkscape:label="#path3133" />
    <text
       xml:space="preserve"
       style="font-size:48px;font-style:normal;font-weight:normal;line-height:125%;letter-spacing:0px;word-spacing:0px;fill:#000000;fill-opacity:1;stroke:none;font-family:Sans"
       x="139"
       y="435"
       id="navigation"
       sodipodi:linespacing="125%"
       transform="translate(-56.285706,314.86218)"
       inkscape:label="#text3173"><tspan
         sodipodi:role="line"
         id="tspan3175"
         x="139"
         y="435">1 2 3 4 5 6 7</tspan></text>
  </g>
</svg>
