<?xml version="1.0" encoding="UTF-8" standalone="no"?>
<!-- Created with Inkscape (http://www.inkscape.org/) -->

<svg
   xmlns:dc="http://purl.org/dc/elements/1.1/"
   xmlns:cc="http://creativecommons.org/ns#"
   xmlns:rdf="http://www.w3.org/1999/02/22-rdf-syntax-ns#"
   xmlns:svg="http://www.w3.org/2000/svg"
   xmlns="http://www.w3.org/2000/svg"
   xmlns:xlink="http://www.w3.org/1999/xlink"
   xmlns:sodipodi="http://sodipodi.sourceforge.net/DTD/sodipodi-0.dtd"
   xmlns:inkscape="http://www.inkscape.org/namespaces/inkscape"
   width="800"
   height="533"
   id="svg3022"
   version="1.1"
   inkscape:version="0.48.2 r9819"
   sodipodi:docname="Gcbisc2.svg">
  <defs
     id="defs3024" />
  <sodipodi:namedview
     id="base"
     pagecolor="#ffffff"
     bordercolor="#666666"
     borderopacity="1.0"
     inkscape:pageopacity="0.0"
     inkscape:pageshadow="2"
     inkscape:zoom="0.5"
     inkscape:cx="624.35714"
     inkscape:cy="163.18161"
     inkscape:document-units="px"
     inkscape:current-layer="layer1"
     showgrid="false"
     fit-margin-top="0"
     fit-margin-left="0"
     fit-margin-right="0"
     fit-margin-bottom="0"
     inkscape:window-width="1292"
     inkscape:window-height="746"
     inkscape:window-x="-8"
     inkscape:window-y="-8"
     inkscape:window-maximized="1" />
  <metadata
     id="metadata3027">
    <rdf:RDF>
      <cc:Work
         rdf:about="">
        <dc:format>image/svg+xml</dc:format>
        <dc:type
           rdf:resource="http://purl.org/dc/dcmitype/StillImage" />
        <dc:title></dc:title>
      </cc:Work>
    </rdf:RDF>
  </metadata>
  <g
     inkscape:label="Layer 1"
     inkscape:groupmode="layer"
     id="layer1"
     transform="translate(-77.14286,-371.57648)">
    <image
       y="371.57648"
       x="77.14286"
       id="image3038"
       xlink:href="file:///G:/02/Gcbisc2.jpg"
       height="533"
       width="800" />
    <path
       style="fill:none;stroke:#000000;stroke-width:1px;stroke-linecap:butt;stroke-linejoin:miter;stroke-opacity:1"
       d="m 40,130.5 -1.5,8 -3,-0.5 13,16 5,5.5 4,4 1,4.5 168,-45 -2.5,-5.5 -5.5,-6.5 -10,-10 -1,-0.5 -1,-2.5 -9,-9 z"
       id="area_1"
       inkscape:connector-curvature="0"
       transform="translate(77.14286,371.57648)"
       inkscape:label="#path3041" />
    <path
       style="fill:none;stroke:#000000;stroke-width:1px;stroke-linecap:butt;stroke-linejoin:miter;stroke-opacity:1"
       d="m 252,77.5 -3.5,11.5 26,21 3.5,1 123.5,-33.5 0.5,-7 -2,-6 -27,-22 -9.5,3 -3,2 -13.5,3 -5.5,2.5 -8,0 -1.5,3 -11,1.5 -3.5,2 -9,0.5 -12.5,5.5 -8,1 -10.5,2.5 -4,3.5 z"
       id="area_2"
       inkscape:connector-curvature="0"
       transform="translate(77.14286,371.57648)"
       inkscape:label="#path3043" />
    <path
       style="fill:none;stroke:#000000;stroke-width:1px;stroke-linecap:butt;stroke-linejoin:miter;stroke-opacity:1"
       d="m 102.5,185 -0.5,9 8,10 2.5,3 9,18.5 7.5,3.5 4.5,-0.5 15,-2.5 23,-7.5 22.5,-6.5 23.5,-6.5 19,-5 13,-5 8,-2 2.5,-5 -1.5,-8 -11,-14 -0.5,-6.5 -15.5,-14 -7,1.5 -4.5,0.5 -14,4 -4,3 -9.5,1 -11.5,5 -7.5,1 -3.5,3 -7.5,0 -4.5,2.5 c 0,0 -4,2 -6,2 -2,0 -14.5,3.5 -14.5,3.5 l -10,3.5 -5.5,2.5 -15,4 z"
       id="area_3"
       inkscape:connector-curvature="0"
       transform="translate(77.14286,371.57648)"
       inkscape:label="#path3045" />
    <path
       style="fill:none;stroke:#000000;stroke-width:1px;stroke-linecap:butt;stroke-linejoin:miter;stroke-opacity:1"
       d="M 312,134.5 304,147 328,170 477.5,128.5 472,114 451.5,96 437.5,98.5 426,102 317.5,131 z"
       id="area_4"
       inkscape:connector-curvature="0"
       transform="translate(77.14286,371.57648)"
       inkscape:label="#path3047" />
    <path
       style="fill:none;stroke:#000000;stroke-width:1px;stroke-linecap:butt;stroke-linejoin:miter;stroke-opacity:1"
       d="m 148.5,252.5 1.5,10 1,7.5 14,16 9.5,4.5 7,1 9.5,-0.5 15.5,-6 10,-2.5 6.5,-5 8.5,0 17,-6 12.5,-4 15,-5 18,-7 5.5,-1.5 12.5,-4 3,-3.5 2.5,-5 -4,-5.5 0,-7 -18,-18 -5.5,-5.5 -13,2.5 -5.5,2.5 -10.5,0 -1,2 -7,1 -9,2.5 c 0,0 -7,3 -10,3.5 -3,0.5 -5,0.5 -5,0.5 l -5.5,1.5 -12.5,4.5 -2.5,2.5 -8,0.5 -5,3 -10.5,2.5 -8,3 -7,2.5 -7.5,3 c 0,0 0.5,0 -3.5,2 -4,2 -10.5,7.5 -10.5,7.5 z"
       id="area_5"
       inkscape:connector-curvature="0"
       transform="translate(77.14286,371.57648)"
       inkscape:label="#path3049" />
    <path
       style="fill:none;stroke:#000000;stroke-width:1px;stroke-linecap:butt;stroke-linejoin:miter;stroke-opacity:1"
       d="m 387,189.5 -1.5,7 -2.5,0 -0.5,7.5 9.5,8 2.5,7 c 0,0 6,0 6.5,3.5 0.5,3.5 7.5,7 7.5,7 l 6,3 12.5,-3 27.5,-7.5 27,-9 21,-5 31.5,-11 9,-4 1,-6.5 1,-6 -1.5,-5 -26,-23 -4.5,-2.5 -6.5,2.5 -11.5,2.5 -7,2.5 c 0,0 -3.5,2 -5.5,2.5 -2,0.5 -5.5,-0.5 -5.5,-0.5 l -6,4 -3.5,-1.5 c 0,0 -1.5,3.5 -3.5,3.5 -2,0 -6,0.5 -6,0.5 l -6.5,3 -4.5,0 -5.5,3.5 -4,0 c 0,0 2.5,2 -4.5,3 -7,1 -14.5,2.5 -14.5,2.5 l -11,3.5 -9.5,3.5 z"
       id="area_6"
       inkscape:connector-curvature="0"
       transform="translate(77.14286,371.57648)"
       inkscape:label="#path3051" />
    <path
       style="fill:none;stroke:#000000;stroke-width:1px;stroke-linecap:butt;stroke-linejoin:miter;stroke-opacity:1"
       d="m 241,313.5 1.5,4 -1.5,9 0.5,10 2.5,5 7.5,7.5 11.5,9.5 7,2.5 9.5,2 8,1.5 17.5,-1 14.5,-2.5 15.5,-5 11,-9.5 5.5,-10.5 -1.5,-6 -1.5,-6.5 -3.5,-12 -8,-9.5 -11.5,-7.5 -18.5,-5 -11.5,1 -6,-0.5 -6.5,2.5 -7.5,0.5 c 0,0 0.5,1.5 -2,2.5 -2.5,1 -13,3.5 -13,3.5 l -2,3 -8,5 -5.5,5.5 z"
       id="area_7"
       inkscape:connector-curvature="0"
       transform="translate(77.14286,371.57648)"
       inkscape:label="#path3053" />
    <path
       style="fill:none;stroke:#000000;stroke-width:1px;stroke-linecap:butt;stroke-linejoin:miter;stroke-opacity:1"
       d="m 478.5,252 -11,5 -10,5 -1.5,4 -1.5,4.5 -3,3 c 0,0 -2,0 1.5,3.5 3.5,3.5 14.5,11 14.5,11 l 10.5,10 15,0.5 8,-2.5 18.5,-5.5 9,-4.5 23,-8 15,-5 c 0,0 8,-4 10,-4 2,0 19,-8 19,-8 0,0 6,-3.5 8,-3.5 2,0 6,-2 6,-2 l 3.5,-8.5 -5,-10 -5,-5 -12,-8.5 -9,-2 c 0,0 -8.5,1 -10.5,1.5 -2,0.5 -18,5.5 -18,5.5 l -5.5,1 -26.5,7.5 -6.5,3 -16.5,4.5 -7,4 z"
       id="area_8"
       inkscape:connector-curvature="0"
       transform="translate(77.14286,371.57648)"
       inkscape:label="#path3055" />
    <path
       style="fill:none;stroke:#000000;stroke-width:1px;stroke-linecap:butt;stroke-linejoin:miter;stroke-opacity:1"
       d="m 312,397 -8,0.5 -11,-4 -4,2 -0.5,5 13,3.5 7.5,5 -4,4.5 c 0,0 -3,5.5 -1.5,7.5 1.5,2 1,9 1,9 l -3,3 2,8 3,12.5 c 0,0 -0.5,8 3.5,11 4,3 14.5,11.5 14.5,11.5 0,0 6.5,8 9,9 2.5,1 12,6 12,6 l 12.5,3.5 14,5.5 c 0,0 8,0.5 12,1 4,0.5 9.5,0.5 13.5,1 4,0.5 33,-4.5 33,-4.5 L 453,492 c 0,0 8,-5 10,-6 2,-1 13,-8 13,-8 0,0 7,-5 9,-5.5 2,-0.5 3,-2 3,-2 l 7.5,-7.5 1.5,-4.5 -4,-1.5 c 0,0 3,-3.5 3,-5.5 0,-2 -0.5,-7 0.5,-9.5 1,-2.5 0.5,-11.5 0.5,-11.5 l -1.5,-16 -5.5,-10.5 -7.5,-11 -7.5,-5.5 -14,-10 -15.5,-5 L 427,368 c 0,0 -13.5,-2.5 -15.5,-2.5 -2,0 -4.5,0.5 -7,0 -2.5,-0.5 -8,-1.5 -10,-1.5 -2,0 -7.5,-1.5 -7.5,-1.5 l -9.5,1.5 -8.5,1 -17.5,6 -12.5,8 -11.5,7 -7,4 -5.5,5.5 z"
       id="area_9"
       inkscape:connector-curvature="0"
       transform="translate(77.14286,371.57648)"
       inkscape:label="#path3057" />
    <path
       style="fill:none;stroke:#000000;stroke-width:1px;stroke-linecap:butt;stroke-linejoin:miter;stroke-opacity:1"
       d="m 555.5,355.5 0,10 c 0,0 8.5,7 10.5,8 2,1 17,15 17,15 0,0 9.5,3 11.5,3 2,0 10.5,-1 13,-2 2.5,-1 9,-3 11.5,-5.5 2.5,-2.5 4,-7 7.5,-7 3.5,0 7.5,-2 10.5,-1.5 3,0.5 13,-2 16.5,-3.5 3.5,-1.5 6,-5.5 8,-6.5 2,-1 -2.5,-0.5 5.5,-3 8,-2.5 5.5,-2 12.5,-4 7,-2 8.5,-7 8.5,-7 0,0 5.5,-1 8,-3 2.5,-2 2.5,-2.5 5.5,-3.5 3,-1 7.5,-2 10,-4 2.5,-2 4.5,-3 4.5,-3 0,0 4.5,7 1.5,-2.5 -3,-9.5 -0.5,-8.5 -3,-9.5 -2.5,-1 -10,-11 -10,-11 0,0 -3,-4.5 -5.5,-6.5 -2.5,-2 -5,-3 -8.5,-4.5 -3.5,-1.5 -4,-2 -6.5,-2 -2.5,0 7,0 -3.5,-0.5 -10.5,-0.5 -7.5,0.5 -11,3 -3.5,2.5 -4.5,2.5 -10,5 -5.5,2.5 -15.5,4 -18.5,4 -3,0 -2,-4.5 -4.5,0 -2.5,4.5 6.01436,4.31974 -5,7 -9.71171,2.36327 -13,6 -19,7 -6,1 -5,1.5 -8.5,2 -3.5,0.5 -4,-0.5 -9.5,2.5 -5.5,3 -9.5,6 -13.5,7 -4,1 -3.5,0 -6,1.5 -2.5,1.5 -4,2.5 -6.5,4.5 -2.5,2 -12,6.5 -12,6.5 z"
       id="area_10"
       inkscape:connector-curvature="0"
       transform="translate(77.14286,371.57648)"
       sodipodi:nodetypes="ccscssssssssscssscsscssssssssssssssscc"
       inkscape:label="#path3061" />
    <text
       xml:space="preserve"
       style="font-size:40px;font-style:normal;font-weight:normal;line-height:125%;letter-spacing:0px;word-spacing:0px;fill:#000000;fill-opacity:1;stroke:none;font-family:Sans"
       x="83.14286"
       y="892.57648"
       id="navigation"
       sodipodi:linespacing="125%"
       inkscape:label="#text3063"><tspan
         sodipodi:role="line"
         id="tspan3065"
         x="83.14286"
         y="892.57648">1 2 3 4 5 6 7 8 9 10</tspan></text>
  </g>
</svg>
