<?xml version="1.0" encoding="UTF-8" standalone="no"?>
<!-- Created with Inkscape (http://www.inkscape.org/) -->

<svg
   xmlns:dc="http://purl.org/dc/elements/1.1/"
   xmlns:cc="http://creativecommons.org/ns#"
   xmlns:rdf="http://www.w3.org/1999/02/22-rdf-syntax-ns#"
   xmlns:svg="http://www.w3.org/2000/svg"
   xmlns="http://www.w3.org/2000/svg"
   xmlns:xlink="http://www.w3.org/1999/xlink"
   xmlns:sodipodi="http://sodipodi.sourceforge.net/DTD/sodipodi-0.dtd"
   xmlns:inkscape="http://www.inkscape.org/namespaces/inkscape"
   width="3000"
   height="2000"
   id="svg3067"
   version="1.1"
   inkscape:version="0.48.2 r9819"
   sodipodi:docname="Gcdmb.svg">
  <defs
     id="defs3069" />
  <sodipodi:namedview
     id="base"
     pagecolor="#ffffff"
     bordercolor="#666666"
     borderopacity="1.0"
     inkscape:pageopacity="0.0"
     inkscape:pageshadow="2"
     inkscape:zoom="0.35355339"
     inkscape:cx="1248.27"
     inkscape:cy="738.37049"
     inkscape:document-units="px"
     inkscape:current-layer="layer1"
     showgrid="false"
     fit-margin-top="0"
     fit-margin-left="0"
     fit-margin-right="0"
     fit-margin-bottom="0"
     inkscape:window-width="1292"
     inkscape:window-height="746"
     inkscape:window-x="-8"
     inkscape:window-y="-8"
     inkscape:window-maximized="1" />
  <metadata
     id="metadata3072">
    <rdf:RDF>
      <cc:Work
         rdf:about="">
        <dc:format>image/svg+xml</dc:format>
        <dc:type
           rdf:resource="http://purl.org/dc/dcmitype/StillImage" />
      </cc:Work>
    </rdf:RDF>
  </metadata>
  <g
     inkscape:label="Layer 1"
     inkscape:groupmode="layer"
     id="layer1"
     transform="translate(1125,467.63782)">
    <image
       y="-467.63782"
       x="-1125"
       id="image3083"
       xlink:href="file:///G:/02/Gcdmb.jpg"
       height="2000"
       width="3000" />
    <path
       style="fill:none;stroke:#000000;stroke-width:1px;stroke-linecap:butt;stroke-linejoin:miter;stroke-opacity:1"
       d="m 1080.4592,457.093 823.0723,-1.41421 28.2842,0 5.6569,-11.31371 38.1837,-24.04163 12.728,21.2132 9.8995,134.35029 -56.5686,29.69849 -11.3137,9.89949 -841.4571,5.65686 -12.7279,-4.24264 -45.2548,2.82842 -52.32592,-16.97056 8.48529,-7.07107 14.14213,-131.52186 0,-21.2132 1.4142,-18.38478 36.7696,11.31371 26.87,32.52691 z"
       id="area_1"
       inkscape:connector-curvature="0"
       transform="translate(-1125,-467.63782)"
       inkscape:label="#path3090" />
    <path
       style="fill:none;stroke:#000000;stroke-width:1px;stroke-linecap:butt;stroke-linejoin:miter;stroke-opacity:1"
       d="m 1047.9322,622.55599 -4.2426,55.15433 -5.6568,28.28427 -7.0711,41.01219 -2.8284,48.08327 2.8284,9.89949 -4.2427,0 32.527,19.79899 28.2842,-1.41421 677.4083,9.89949 59.397,-53.74011 11.3137,-38.18377 -1.4142,-15.55635 -7.0711,-19.79899 2.8284,-49.49747 -2.8284,-8.48529 4.2427,-38.18376 -43.8407,36.76955 -14.1421,16.97056 -16.9706,-2.82842 -620.8397,-7.07107 -21.2132,4.24264 -9.8995,-1.41421 -32.5269,-18.38478 z"
       id="area_2"
       inkscape:connector-curvature="0"
       transform="translate(-1125,-467.63782)"
       inkscape:label="#path3092" />
    <path
       style="fill:none;stroke:#000000;stroke-width:1px;stroke-linecap:butt;stroke-linejoin:miter;stroke-opacity:1"
       d="m 1039.447,861.55808 32.5269,2.82843 683.0651,8.48528 53.7401,-5.65685 11.3138,2.82842 43.8406,-16.97056 8.4853,145.664 0,4.2426 -4.2427,21.2132 -41.0122,24.0417 -811.7586,-12.7279 -8.4852,-1.4143 -12.72797,-11.3137 -15.55635,-33.9411 -9.89949,-7.07106 8.48528,-52.32591 5.65686,-11.3137 -4.24265,-28.28428 8.48529,-52.3259 z"
       id="area_3"
       inkscape:connector-curvature="0"
       transform="translate(-1125,-467.63782)"
       inkscape:label="#path3094" />
    <path
       style="fill:none;stroke:#000000;stroke-width:1px;stroke-linecap:butt;stroke-linejoin:miter;stroke-opacity:1"
       d="m 1049.3465,1079.347 188.0904,1.4142 186.6762,7.0711 26.87,-1.4143 5.6569,-8.4852 -16.9706,-8.4853 -5.6568,-16.9706 48.0832,24.0416 -15.5563,65.0539 50.9117,46.669 -35.3554,36.7696 -43.8406,5.6568 -395.9798,-9.8995 -31.1127,-4.2426 -8.4853,8.4853 -12.72791,-15.5564 2.82843,-76.3675 1.41421,-21.2132 -9.89949,8.4853 -15.55635,-8.4853 z"
       id="area_4"
       inkscape:connector-curvature="0"
       transform="translate(-1125,-467.63782)"
       inkscape:label="#path3096" />
    <path
       style="fill:none;stroke:#000000;stroke-width:1px;stroke-linecap:butt;stroke-linejoin:miter;stroke-opacity:1"
       d="m 1641.9019,1080.7612 181.0194,-5.6569 16.9705,5.6569 21.2132,16.9705 4.2427,12.728 14.1421,8.4853 -2.8284,-21.2133 28.2843,-26.87 53.7401,-11.3137 15.5563,53.7401 9.8995,60.8112 -15.5563,4.2426 2.8284,15.5564 -60.8112,-7.0711 -31.1127,-22.6274 -8.4853,14.1421 -14.1421,24.0417 -21.2132,5.6568 -87.6812,1.4142 -25.4559,2.8284 -43.8406,0 -42.4264,-7.071 -18.3848,-26.8701 -7.0711,-2.8284 -14.1421,4.2426 -39.598,-2.8284 5.6569,-22.6274 -32.5269,-15.5564 c 0,0 -8.4853,-7.071 -8.4853,-12.7279 0,-5.6568 9.8995,-25.4558 9.8995,-25.4558 l 41.0122,7.071 19.799,5.6569 12.7279,1.4142 9.8995,8.4853 2.8284,-16.9706 z"
       id="area_5"
       inkscape:connector-curvature="0"
       transform="translate(-1125,-467.63782)"
       inkscape:label="#path3098" />
    <text
       xml:space="preserve"
       style="font-size:40px;font-style:normal;font-weight:normal;line-height:125%;letter-spacing:0px;word-spacing:0px;fill:#000000;fill-opacity:1;stroke:none;font-family:Sans"
       x="-576.2851"
       y="867.68182"
       id="navigation"
       sodipodi:linespacing="125%"
       inkscape:label="#text3100"><tspan
         sodipodi:role="line"
         id="tspan3102"
         x="-576.2851"
         y="867.68182">1 2 3 4 5</tspan></text>
  </g>
</svg>
