<?xml version="1.0" encoding="UTF-8" standalone="no"?>
<!-- Created with Inkscape (http://www.inkscape.org/) -->

<svg
   xmlns:dc="http://purl.org/dc/elements/1.1/"
   xmlns:cc="http://creativecommons.org/ns#"
   xmlns:rdf="http://www.w3.org/1999/02/22-rdf-syntax-ns#"
   xmlns:svg="http://www.w3.org/2000/svg"
   xmlns="http://www.w3.org/2000/svg"
   xmlns:xlink="http://www.w3.org/1999/xlink"
   xmlns:sodipodi="http://sodipodi.sourceforge.net/DTD/sodipodi-0.dtd"
   xmlns:inkscape="http://www.inkscape.org/namespaces/inkscape"
   width="3000"
   height="2000"
   id="svg3104"
   version="1.1"
   inkscape:version="0.48.2 r9819"
   sodipodi:docname="Gcdmc.svg">
  <defs
     id="defs3106" />
  <sodipodi:namedview
     id="base"
     pagecolor="#ffffff"
     bordercolor="#666666"
     borderopacity="1.0"
     inkscape:pageopacity="0.0"
     inkscape:pageshadow="2"
     inkscape:zoom="0.5"
     inkscape:cx="2100.861"
     inkscape:cy="1143.0828"
     inkscape:document-units="px"
     inkscape:current-layer="layer1"
     showgrid="false"
     fit-margin-top="0"
     fit-margin-left="0"
     fit-margin-right="0"
     fit-margin-bottom="0"
     inkscape:window-width="1292"
     inkscape:window-height="746"
     inkscape:window-x="-8"
     inkscape:window-y="-8"
     inkscape:window-maximized="1" />
  <metadata
     id="metadata3109">
    <rdf:RDF>
      <cc:Work
         rdf:about="">
        <dc:format>image/svg+xml</dc:format>
        <dc:type
           rdf:resource="http://purl.org/dc/dcmitype/StillImage" />
        <dc:title></dc:title>
      </cc:Work>
    </rdf:RDF>
  </metadata>
  <g
     inkscape:label="Layer 1"
     inkscape:groupmode="layer"
     id="layer1"
     transform="translate(1125,467.63782)">
    <image
       y="-467.63782"
       x="-1125"
       id="image3120"
       xlink:href="file:///G:/02/Gcdmc.jpg"
       height="2000"
       width="3000" />
    <path
       style="fill:none;stroke:#000000;stroke-width:1px;stroke-linecap:butt;stroke-linejoin:miter;stroke-opacity:1"
       d="m 672,662 436,-5 18,1 10,24 -18,410 -7,5 -495,7 2,-41 8,-75 6,-50 z"
       id="area_1"
       inkscape:connector-curvature="0"
       transform="translate(-1125,-467.63782)"
       inkscape:label="#path3123" />
    <path
       style="fill:none;stroke:#000000;stroke-width:1px;stroke-linecap:butt;stroke-linejoin:miter;stroke-opacity:1"
       d="m 1278,665 52,1 152,-5 20,0 7,7 5,26 3,53 -5,6 0,14 1,46 1,38 3,90 -4,15 6,52 0,11 4,36 -1,20 -11,6 -9,13 -2,7 -226,2 -7,-11 -2,-25 -1,-30 0,-20 2,-32 3,-23 2,-31 1,-23 5,-17 -4,-45 0,-22 1,-18 0,-21 -1,-26 -1,-21 -8,-18 -3,-35 0,-8 z"
       id="area_2"
       inkscape:connector-curvature="0"
       transform="translate(-1125,-467.63782)"
       inkscape:label="#path3125" />
    <path
       style="fill:none;stroke:#000000;stroke-width:1px;stroke-linecap:butt;stroke-linejoin:miter;stroke-opacity:1"
       d="m 1644.0233,662.15397 22.6274,1.41421 60.8112,0.70711 18.3847,-1.41421 12.728,-0.70711 4.2426,9.19239 5.6569,131.52186 7.7781,31.1127 0,12.02081 c 0,0 -2.8284,-2.12132 -2.1213,7.77818 0.7071,9.89949 4.2427,56.56854 4.2427,56.56854 l 5.6568,72.832 5.6569,65.05385 1.4142,19.799 -6.364,6.3639 -9.1924,16.9706 -2.8284,4.2426 1.4142,1.4142 -4.9497,0 L 1768,1102 l -55,1 -5,-3 -48,0 -1,-6 1,-16 -7,-156 -5,-31 0,-13 1,-29 0,-12 -2,-6 0,-18 1,-11 -2,-16 0,-12 0,-20 -11,-34 -6,-17 -1,-21 z"
       id="area_3"
       inkscape:connector-curvature="0"
       transform="translate(-1125,-467.63782)"
       inkscape:label="#path3127" />
    <path
       style="fill:none;stroke:#000000;stroke-width:1px;stroke-linecap:butt;stroke-linejoin:miter;stroke-opacity:1"
       d="m 1942,788 19,0 20,-1 56,2 23,3 21,159 -5,8 -2,18 -4,4 -10,3 -112,-8 -6,-18 -10,-87 -6,-67 z"
       id="area_4"
       inkscape:connector-curvature="0"
       transform="translate(-1125,-467.63782)"
       sodipodi:nodetypes="ccccccccccccccc"
       inkscape:label="#path3129" />
    <path
       style="fill:none;stroke:#000000;stroke-width:1px;stroke-linecap:butt;stroke-linejoin:miter;stroke-opacity:1"
       d="m 2192,864 12,-22 10,-7 21,-3 11,1 27,4 48,1 4.6707,28.38331 L 2334,917 l -2,10 -7,17 -6,-1 -27,-6 -12,1 -20,-1 -48,-6 -12,2 -3,-15 3,-12 z"
       id="area_5"
       inkscape:connector-curvature="0"
       transform="translate(-1125,-467.63782)"
       sodipodi:nodetypes="cccccccccccccccccccc"
       inkscape:label="#path3131" />
    <text
       xml:space="preserve"
       style="font-size:40px;font-style:normal;font-weight:normal;line-height:125%;letter-spacing:0px;word-spacing:0px;fill:#000000;fill-opacity:1;stroke:none;font-family:Sans"
       x="2282"
       y="1276"
       id="navigation"
       sodipodi:linespacing="125%"
       transform="translate(-1125,-467.63782)"
       inkscape:label="#text3133"><tspan
         sodipodi:role="line"
         id="tspan3135"
         x="2282"
         y="1276">1 2 3 4 5</tspan></text>
  </g>
</svg>
