<?xml version="1.0" encoding="UTF-8" standalone="no"?>
<!-- Created with Inkscape (http://www.inkscape.org/) -->

<svg
   xmlns:dc="http://purl.org/dc/elements/1.1/"
   xmlns:cc="http://creativecommons.org/ns#"
   xmlns:rdf="http://www.w3.org/1999/02/22-rdf-syntax-ns#"
   xmlns:svg="http://www.w3.org/2000/svg"
   xmlns="http://www.w3.org/2000/svg"
   xmlns:xlink="http://www.w3.org/1999/xlink"
   xmlns:sodipodi="http://sodipodi.sourceforge.net/DTD/sodipodi-0.dtd"
   xmlns:inkscape="http://www.inkscape.org/namespaces/inkscape"
   width="799"
   height="533"
   id="svg3137"
   version="1.1"
   inkscape:version="0.48.2 r9819"
   sodipodi:docname="Gchckbrst.svg">
  <defs
     id="defs3139" />
  <sodipodi:namedview
     id="base"
     pagecolor="#ffffff"
     bordercolor="#666666"
     borderopacity="1.0"
     inkscape:pageopacity="0.0"
     inkscape:pageshadow="2"
     inkscape:zoom="0.35355339"
     inkscape:cx="717.42857"
     inkscape:cy="326.5"
     inkscape:document-units="px"
     inkscape:current-layer="layer1"
     showgrid="false"
     fit-margin-top="0"
     fit-margin-left="0"
     fit-margin-right="0"
     fit-margin-bottom="0"
     inkscape:window-width="1292"
     inkscape:window-height="746"
     inkscape:window-x="-8"
     inkscape:window-y="-8"
     inkscape:window-maximized="1" />
  <metadata
     id="metadata3142">
    <rdf:RDF>
      <cc:Work
         rdf:about="">
        <dc:format>image/svg+xml</dc:format>
        <dc:type
           rdf:resource="http://purl.org/dc/dcmitype/StillImage" />
        <dc:title></dc:title>
      </cc:Work>
    </rdf:RDF>
  </metadata>
  <g
     inkscape:label="Layer 1"
     inkscape:groupmode="layer"
     id="layer1"
     transform="translate(230.92857,-45.862183)">
    <image
       y="45.862183"
       x="-230.92857"
       id="image3153"
       xlink:href="file:///G:/02/Gchckbrst.jpg"
       height="533"
       width="799" />
    <path
       style="fill:none;stroke:#000000;stroke-width:1px;stroke-linecap:butt;stroke-linejoin:miter;stroke-opacity:1"
       d="m 139,147 -3,6 -1,5.5 -2,4.5 -1,9 0.5,8 6,3.5 12.5,9.5 17,9.5 14,4.5 11,1 8.5,3 7.5,-0.5 8.5,1 19,2 14,-1 2.5,-2 8.5,-1.5 12.5,-7 8.5,-8 8,-9 0,-2.5 2.5,-5.5 -3.5,-5.5 -9,-6.5 -5.5,-4.5 -7,-7.5 -5.5,-2.5 -8,-3 -10.5,1 -2.5,-1.5 -3.5,-1.5 -1,1 -7.5,-3 -5.5,-3 -5,1.5 -8,-1.5 c 0,0 -3,-6.5 -8,-4 -5,2.5 -10,3 -10,3 l -8.5,-2 c 0,0 -6.5,0 -8.5,0 -2,0 -13,0.5 -13,0.5 l -7,0 -4,2 -2.5,3.5 -7,0.5 z"
       id="area_1"
       inkscape:connector-curvature="0"
       transform="translate(-230.92857,45.862183)"
       inkscape:label="#path3156" />
    <path
       style="fill:none;stroke:#000000;stroke-width:1px;stroke-linecap:butt;stroke-linejoin:miter;stroke-opacity:1"
       d="m 154,291.5 11,4 12,1.5 21.5,-0.5 13.5,-2 12.5,-1 6,-2 8.5,-2 7,-0.5 7.5,-4.5 7.5,-1 4.5,-3 8.5,-1 5.5,-1 4.5,-0.5 10,-0.5 8,-2 6,-9 -0.5,-4 -5,-6.5 -7.5,-2 -4.5,-1.5 -7,-2.5 -11,-6 -8,-2.5 -13,-3.5 -9.5,-2.5 -7,-2 -19,-3.5 -20,-5 -11,0.5 -11.5,-4 -18,-1 -7,5 c 0,0 -4.5,2.5 -7.5,4 -3,1.5 -9,4 -9,4 l -5,7 -7,9 -2,6.5 1,9 1,6 c 0,0 -2,0.5 -4.5,2 -2.5,1.5 0,5.5 0,5.5 l -1.5,5.5 3,3.5 5.5,2.5 6,3.5 6,1 3,3.5 5.5,-1.5 5.5,-4.5 z"
       id="area_2"
       inkscape:connector-curvature="0"
       transform="translate(-230.92857,45.862183)"
       inkscape:label="#path3158" />
    <path
       style="fill:none;stroke:#000000;stroke-width:1px;stroke-linecap:butt;stroke-linejoin:miter;stroke-opacity:1"
       d="m 498.5,190.5 5,-8 7,-10 7,-8 10,-6 13.5,-5.5 6,-1 10.5,-3.5 10,-1.5 10,-6.5 8.5,-3 4.5,0 6,-1 11,-2 13,0 20,2 19.5,5.5 14.5,6.5 8.5,9 c 0,0 -1.5,10 -0.5,11.5 1,1.5 -1.5,5.5 -1.5,5.5 l -1,4.5 -2,6 c 0,0 -1.5,9 -1.5,11 0,2 -3,9 -3,9 l -4,2 -11,1.5 -13.5,-1.5 -9.5,-5.5 -7.5,-2.5 -8,0 -6.5,6.5 -12,3.5 -18.5,0.5 -12,-1.5 c 0,0 -3.5,-1.5 -5.5,-1.5 -2,0 -7,2 -7,2 L 541,207 l -10.5,-1 -9.5,-5 -6,0.5 c 0,0 -3,-1.5 -6.5,-1.5 -3.5,0 -8.5,0.5 -8.5,0.5 l -6.5,-4 z"
       id="area_3"
       inkscape:connector-curvature="0"
       transform="translate(-230.92857,45.862183)"
       inkscape:label="#path3160" />
    <path
       style="fill:none;stroke:#000000;stroke-width:1px;stroke-linecap:butt;stroke-linejoin:miter;stroke-opacity:1"
       d="m 538,274.5 11,4 6.5,1 14,0.5 13.5,-0.5 11.5,1.5 11,0 9,2 4,-2.5 15.5,-0.5 11.5,-2 10,0 10,1 1.5,-1 3,-2 3.5,-1.5 1.5,-4 1.5,-1 0.5,-4.5 -4,-7 -6,-5.5 -9,-4.5 -13.5,-5.5 -5.5,0 -7,-2 -15.5,-8 -10,-3 c 0,0 -4.5,-1.5 -7.5,-1.5 -3,0 -7.5,0 -7.5,0 l -9.5,-3 -6,-3 -7.5,-2.5 -6.5,-2 -6,-0.5 -6,-2 -10,-3 -7,-1 -6,0 -5,1.5 -7.5,2 -7,3.5 -6,7 -4,2.5 c 0,0 -1,2 -1,4 0,2 0.5,6.5 0.5,8.5 0,2 -1,8 -1,8 l -1,4 4,6 3.5,6.5 7.5,2.5 8.5,-3 c 0,0 3,0 6,0 3,0 7.5,-0.5 7.5,-0.5 0,0 -3.5,3.5 -1.5,6 2,2.5 7.5,5 7.5,5 z"
       id="area_4"
       inkscape:connector-curvature="0"
       transform="translate(-230.92857,45.862183)"
       inkscape:label="#path3162" />
    <text
       xml:space="preserve"
       style="font-size:40px;font-style:normal;font-weight:normal;line-height:125%;letter-spacing:0px;word-spacing:0px;fill:#000000;fill-opacity:1;stroke:none;font-family:Sans"
       x="613.76868"
       y="439.6619"
       id="navigation"
       sodipodi:linespacing="125%"
       transform="translate(-230.92857,45.862183)"
       inkscape:label="#text3164"><tspan
         sodipodi:role="line"
         id="tspan3166"
         x="613.76868"
         y="439.6619">1 2 3 4</tspan></text>
  </g>
</svg>
