<?xml version="1.0" encoding="UTF-8" standalone="no"?>
<!-- Created with Inkscape (http://www.inkscape.org/) -->

<svg
   xmlns:dc="http://purl.org/dc/elements/1.1/"
   xmlns:cc="http://creativecommons.org/ns#"
   xmlns:rdf="http://www.w3.org/1999/02/22-rdf-syntax-ns#"
   xmlns:svg="http://www.w3.org/2000/svg"
   xmlns="http://www.w3.org/2000/svg"
   xmlns:xlink="http://www.w3.org/1999/xlink"
   xmlns:sodipodi="http://sodipodi.sourceforge.net/DTD/sodipodi-0.dtd"
   xmlns:inkscape="http://www.inkscape.org/namespaces/inkscape"
   width="799"
   height="533"
   id="svg3168"
   version="1.1"
   inkscape:version="0.48.2 r9819"
   sodipodi:docname="Gchckleg.svg">
  <defs
     id="defs3170" />
  <sodipodi:namedview
     id="base"
     pagecolor="#ffffff"
     bordercolor="#666666"
     borderopacity="1.0"
     inkscape:pageopacity="0.0"
     inkscape:pageshadow="2"
     inkscape:zoom="0.70710678"
     inkscape:cx="781.9468"
     inkscape:cy="341.88589"
     inkscape:document-units="px"
     inkscape:current-layer="layer1"
     showgrid="false"
     fit-margin-top="0"
     fit-margin-left="0"
     fit-margin-right="0"
     fit-margin-bottom="0"
     inkscape:window-width="1292"
     inkscape:window-height="746"
     inkscape:window-x="-8"
     inkscape:window-y="-8"
     inkscape:window-maximized="1" />
  <metadata
     id="metadata3173">
    <rdf:RDF>
      <cc:Work
         rdf:about="">
        <dc:format>image/svg+xml</dc:format>
        <dc:type
           rdf:resource="http://purl.org/dc/dcmitype/StillImage" />
        <dc:title></dc:title>
      </cc:Work>
    </rdf:RDF>
  </metadata>
  <g
     inkscape:label="Layer 1"
     inkscape:groupmode="layer"
     id="layer1"
     transform="translate(5.2142859,-414.43362)">
    <image
       y="414.43362"
       x="-5.2142859"
       id="image3184"
       xlink:href="file:///G:/02/Gchckleg.jpg"
       height="533"
       width="799" />
    <path
       style="fill:none;stroke:#000000;stroke-width:1px;stroke-linecap:butt;stroke-linejoin:miter;stroke-opacity:1"
       d="m 136.82516,163.18315 -2.82842,4.24264 c 0,0 -3.88909,0.35356 -2.47488,1.06066 1.41421,0.70711 8.13173,7.42463 8.13173,7.42463 l 7.77817,3.18198 c 0,0 3.18198,0 3.88909,1.76776 0.70711,1.76777 6.71752,8.83884 6.71752,8.83884 l 10.6066,6.01041 8.83883,1.41421 12.02082,-0.70711 10.96015,-4.94975 19.79899,-5.65685 19.09189,-1.76777 19.09188,0.70711 28.63782,-1.41421 7.77818,0.35355 3.53553,-5.65685 3.53554,-4.24265 -0.70711,-2.47487 0,-4.24264 1.06066,-2.82843 0,-2.82842 -0.70711,-5.65686 -1.06066,-4.59619 -7.42462,-2.82843 -6.36396,-1.06066 c 0,0 -1.41421,-0.35355 -3.53553,-0.35355 -2.12132,0 -6.01041,2.47487 -6.01041,2.47487 l -7.42462,1.06066 -3.88909,0 c 0,0 -0.70711,1.06066 -3.18198,1.06066 -2.47487,0 -5.3033,-0.70711 -5.65685,-2.47487 -0.35356,-1.76777 -6.01041,-4.94975 -6.01041,-4.94975 0,0 -1.06066,-0.70711 -2.47488,-1.06066 -1.41421,-0.35355 -6.71751,-1.06066 -6.71751,-1.06066 l -1.76777,-0.70711 -3.18198,-1.06066 c 0,0 -1.76777,-0.35355 -4.59619,-0.35355 -2.82843,0 -3.18198,0 -4.94975,0 -1.76777,0 -4.94975,-1.41421 -7.07107,-2.12132 -2.12132,-0.70711 -0.35355,0 -4.59619,-1.06066 -4.24264,-1.06066 -5.3033,-1.41421 -5.3033,-1.41421 0,0 -2.47488,-1.41422 -3.88909,-1.76777 -1.41421,-0.35356 -3.88909,-1.76777 -5.65685,-2.47488 -1.76777,-0.7071 -1.76777,-0.35355 -4.94975,-1.41421 -3.18198,-1.06066 -2.12132,-1.41421 -5.3033,-1.41421 -3.18198,0 -3.53554,0 -4.94975,0 -1.41421,0 -2.12132,0.35355 -3.53553,0 -1.41422,-0.35356 0,-0.35356 -2.12132,-0.70711 -2.12132,-0.35355 -2.47488,-1.76777 -3.88909,-2.12132 -1.41421,-0.35355 -4.5962,-1.06066 -6.01041,-1.41421 -1.41421,-0.35356 -3.18198,-1.41422 -6.36396,-1.41422 -3.18198,0 -2.12132,-1.76776 -6.01041,-0.35355 -3.88908,1.41421 -3.88908,2.47487 -5.3033,4.24264 -1.41421,1.76777 -6.01041,5.3033 -6.01041,5.3033 l -3.88908,4.5962 c 0,0 -0.70711,2.12132 -2.47488,3.88908 -1.76776,1.76777 -1.76776,2.47488 -2.47487,4.24264 -0.70711,1.76777 -1.76777,1.06066 -2.12132,4.24264 -0.35355,3.18198 -0.35355,7.42463 -0.35355,7.42463 0,0 0.7071,2.12132 0.7071,3.53553 0,1.41421 1.06066,3.53553 1.06066,3.53553 z"
       id="area_1"
       inkscape:connector-curvature="0"
       transform="translate(-5.2142859,414.43362)"
       inkscape:label="#path3187" />
    <path
       style="fill:none;stroke:#000000;stroke-width:1px;stroke-linecap:butt;stroke-linejoin:miter;stroke-opacity:1"
       d="m 185.26198,276.67379 c 0,0 3.53553,-3.88909 5.3033,-4.24264 1.76776,-0.35355 4.94975,0 6.71751,-1.06066 1.76777,-1.06066 7.07107,-2.12132 8.48528,-3.18198 1.41422,-1.06066 4.5962,-1.76777 8.13173,-2.12132 3.53554,-0.35355 3.18198,-1.06066 8.13173,-1.41421 4.94975,-0.35356 4.94975,0 8.48528,-1.06066 3.53553,-1.06066 9.19239,-1.41422 11.31371,-1.41422 2.12132,0 4.59619,0.35356 9.19239,0.35356 4.59619,0 7.77817,0.35355 9.54594,-0.35356 1.76777,-0.7071 9.54594,-1.06066 10.96015,-1.06066 1.41422,0 2.12132,-1.41421 5.65686,0 3.53553,1.41422 3.88909,1.41422 7.42462,1.41422 3.53553,0 4.24264,-0.35356 7.07107,-1.41422 2.82842,-1.06066 1.76776,-1.41421 4.24264,-2.82842 2.47487,-1.41422 3.18198,-1.41422 4.94975,-2.12133 1.76776,-0.7071 -0.70711,-2.47487 3.18198,-1.41421 3.88908,1.06066 3.18198,1.06066 5.3033,1.06066 2.12132,0 3.53553,-4.24264 3.53553,-5.65685 0,-1.41422 0.35355,-1.06066 0.35355,-3.18198 0,-2.12132 1.06066,1.76776 -0.35355,-3.88909 -1.41421,-5.65685 -1.06066,-4.94975 -0.70711,-7.77818 0.35356,-2.82842 -3.53553,-7.42462 -3.53553,-7.42462 0,0 3.88909,-1.41421 -0.70711,-2.12132 -4.59619,-0.7071 -4.94974,-2.47487 -9.89949,-1.41421 -4.94975,1.06066 -7.42462,1.06066 -10.96016,1.76777 -3.53553,0.7071 -6.0104,-0.35356 -7.42462,-0.35356 -1.41421,0 -5.65685,2.82843 -5.65685,2.82843 0,0 -0.70711,1.76777 -2.12132,2.47487 -1.41422,0.70711 0.35355,1.06066 -4.5962,1.06066 -4.94974,0 -7.77817,1.06066 -11.66726,1.06066 -3.88909,0 -2.82843,0.35356 -9.19239,-0.35355 -6.36396,-0.70711 -9.54594,-2.12132 -10.96015,-2.12132 -1.41422,0 -1.06066,-1.41421 -4.94975,-2.12132 -3.88909,-0.70711 -7.42462,-1.06066 -9.54594,-1.06066 -2.12132,0 -4.94975,-3.18198 -7.42462,-4.24264 -2.47488,-1.06066 -4.24264,-1.76777 -6.01041,-1.76777 -1.76777,0 -2.47487,-0.7071 -5.3033,0 -2.82843,0.70711 -7.07107,0 -9.54594,-1.06066 -2.47488,-1.06066 -6.01041,-2.47487 -7.77818,-2.82842 -1.76776,-0.35356 -1.76776,-3.53554 -5.3033,-3.53554 -3.53553,0 -3.88908,-0.70711 -7.42462,-0.35355 -3.53553,0.35355 -5.3033,-1.41422 -9.54594,-1.06066 -4.24264,0.35355 -10.6066,3.53553 -13.08148,3.53553 -2.47487,0 -8.83883,-1.06066 -9.89949,-0.70711 -1.06066,0.35356 -2.12132,0.35356 -3.18198,2.82843 -1.06066,2.47488 -0.35355,1.06066 -1.41421,3.88909 -1.06066,2.82843 -1.06066,2.82843 -2.12133,4.94975 -1.06066,2.12132 -1.41421,2.82842 -1.41421,4.59619 0,1.76777 -0.70711,1.76777 -0.70711,5.3033 0,3.53554 -0.35355,5.65686 0.35356,7.42462 0.7071,1.76777 4.24264,1.41422 5.65685,2.82843 1.41422,1.41421 4.5962,6.36396 4.5962,6.36396 0,0 -3.88909,0 -0.70711,2.47487 3.18198,2.47488 9.89949,3.18199 9.89949,3.18199 0,0 4.24265,4.59619 5.30331,6.36396 1.06066,1.76776 0.35355,1.76776 3.88908,3.18198 3.53554,1.41421 1.76777,-0.35356 6.01041,1.06066 4.24264,1.41421 4.24264,0.35355 6.36396,2.12132 2.12132,1.76776 3.18198,3.18198 4.94975,4.24264 1.76777,1.06066 9.89949,2.12132 9.89949,2.12132 z"
       id="area_2"
       inkscape:connector-curvature="0"
       transform="translate(-5.2142859,414.43362)"
       inkscape:label="#path3191" />
    <path
       style="fill:none;stroke:#000000;stroke-width:1px;stroke-linecap:butt;stroke-linejoin:miter;stroke-opacity:1"
       d="m 491.43921,146.56614 c 0,0 -2.47487,0 -3.88908,1.41422 -1.41422,1.41421 -6.01041,5.3033 -6.01041,5.3033 0,0 -2.12132,0.7071 -2.82843,2.47487 -0.70711,1.76777 -2.12132,3.18198 -2.12132,3.18198 l -3.18198,2.47488 -2.47487,1.06066 -1.41422,4.94974 c 0,0 -2.12132,3.18198 -1.41421,4.94975 0.70711,1.76777 3.88909,4.24264 3.88909,4.24264 l 4.59619,2.12132 c 0,0 0,-0.7071 2.47487,1.76777 2.47488,2.47487 2.47488,2.82843 4.24265,3.18198 1.76776,0.35355 3.88908,0 5.3033,0.70711 1.41421,0.7071 2.12132,0.35355 4.59619,1.76776 2.47487,1.41422 9.8995,6.36396 9.8995,6.36396 l 3.88908,0.70711 c 0,0 1.41422,0 4.5962,-0.35355 3.18198,-0.35356 0.35355,1.76776 5.65685,-1.41422 5.3033,-3.18198 2.47487,-3.53553 6.71752,-3.53553 4.24264,0 4.24264,0 6.0104,0 1.76777,0 3.53554,0.70711 3.53554,0.70711 l 3.18198,2.82842 c 0,0 1.06066,1.06066 2.82842,1.06066 1.76777,0 3.18198,0 4.94975,-0.7071 1.76777,-0.70711 -1.41421,0.35355 3.18198,-1.41422 4.5962,-1.76776 4.24264,-2.12132 6.01041,-2.12132 1.76777,0 3.88909,-1.76776 5.3033,-2.47487 1.41421,-0.70711 1.06066,0 3.18198,-1.06066 2.12132,-1.06066 3.18198,-1.41421 4.94975,-2.47487 1.76777,-1.06066 4.94975,-3.18198 4.94975,-3.18198 0,0 0,0.35355 2.12132,-0.70711 2.12132,-1.06066 1.41421,-2.82843 1.41421,-2.82843 l 5.65685,-2.82843 c 0,0 -0.7071,-0.35355 -0.7071,-2.47487 0,-2.12132 0,-1.76777 -0.70711,-4.24264 -0.70711,-2.47487 0.35355,-2.47487 -1.06066,-4.24264 -1.41421,-1.76777 -1.41421,-3.53553 -2.82843,-4.94975 -1.41421,-1.41421 -2.47487,-4.59619 -2.47487,-4.59619 0,0 -0.70711,-2.12132 -3.18198,-2.47488 -2.47487,-0.35355 -6.01041,-2.82842 -6.01041,-2.82842 0,0 0,-0.35356 -7.07107,-1.06066 -7.07106,-0.70711 -7.77817,0 -9.19238,0 -1.41422,0 -0.70711,1.41421 -4.24264,0 -3.53554,-1.41422 -5.65686,-2.12132 -5.65686,-2.12132 l -2.12132,-0.35356 c 0,0 0.70711,-2.12132 -2.82843,-1.76776 -3.53553,0.35355 -4.24264,0.35355 -5.65685,1.06066 -1.41421,0.7071 -2.82843,2.82842 -2.82843,2.82842 0,0 -0.7071,-2.12132 -3.88909,-1.76776 -3.18198,0.35355 -4.94974,0.35355 -7.77817,0.7071 -2.82843,0.35356 -1.76777,0 -5.65685,0 -3.88909,0 -2.82843,-0.35355 -5.65686,0 -2.82843,0.35356 -1.41421,-0.7071 -5.3033,0.70711 -3.88909,1.41421 -4.94975,1.41421 -4.94975,1.41421 z"
       id="area_5"
       inkscape:connector-curvature="0"
       transform="translate(-5.2142859,414.43362)"
       inkscape:label="#path3193" />
    <path
       style="fill:none;stroke:#000000;stroke-width:1px;stroke-linecap:butt;stroke-linejoin:miter;stroke-opacity:1"
       d="m 613.76869,187.93189 3.88908,0.70711 4.24264,-0.70711 4.24265,-1.76777 3.88908,0 6.36396,2.82843 3.53554,-1.06066 4.94974,2.12132 8.13173,6.01041 3.18198,7.77817 8.13173,-1.06066 6.71752,-0.35355 3.18198,-4.24264 4.94974,1.41421 1.76777,-2.47487 8.13173,-0.70711 1.06066,-3.53553 8.48528,-0.35356 9.19239,-1.41421 7.42462,0.35355 6.36396,-2.12132 3.18198,-6.36396 1.41421,-3.18198 -0.7071,-6.36396 1.06066,-3.53553 -1.06066,-4.24264 -0.35356,-2.47488 2.82843,-0.7071 -0.35355,-2.82843 c 0,0 2.12132,-2.47487 2.12132,-3.88909 0,-1.41421 -0.35355,-6.01041 -0.35355,-6.01041 l -4.5962,-3.53553 -3.88909,-2.82843 -5.3033,-0.7071 -1.41421,1.41421 -2.12132,-6.01041 -5.3033,-2.12132 -3.18198,1.06066 -3.88909,-0.7071 -4.94975,0.7071 c 0,0 0.70711,2.82843 -0.7071,3.18198 -1.41422,0.35356 -3.88909,2.12132 -5.3033,3.18198 -1.41422,1.06066 -5.30331,2.82843 -5.30331,2.82843 l -3.88908,-2.82843 -9.19239,2.12132 -5.65686,3.18198 -4.94974,2.12132 -5.3033,2.47488 -14.14214,1.41421 -6.36396,-0.35355 -8.13173,0.70711 -8.83883,-1.06067 -7.77818,-1.06066 c 0,0 -6.36396,1.76777 -8.13173,3.18199 -1.76776,1.41421 -5.65685,6.36396 -5.65685,6.36396 l -2.47487,4.24264 c 0,0 -1.41422,-0.35356 1.41421,1.76776 2.82843,2.12132 2.47487,2.12132 7.77817,7.42463 5.30331,5.3033 6.36397,6.36396 6.36397,6.36396 l 4.59619,3.88908 1.76777,3.88909 z"
       id="area_3"
       inkscape:connector-curvature="0"
       transform="translate(-5.2142859,414.43362)"
       inkscape:label="#path3205" />
    <path
       style="fill:none;stroke:#000000;stroke-width:1px;stroke-linecap:butt;stroke-linejoin:miter;stroke-opacity:1"
       d="m 495.68185,219.39814 -2.82842,3.53554 -2.47488,2.47487 -1.76776,-1.06066 -1.76777,2.82843 c 0,0 -1.06066,0.35355 -2.12132,1.76776 -1.06066,1.41422 -3.18198,2.12132 -3.18198,2.12132 l -2.82843,0 -2.82843,2.12132 c 0,0 -1.06066,0 -2.47487,-0.35355 -1.41421,-0.35355 -2.12132,-0.70711 -3.53553,0.35355 -1.41422,1.06066 -3.18198,1.76777 -3.18198,1.76777 0,0 -3.53554,-3.18198 -3.88909,-0.70711 -0.35355,2.47488 -0.70711,4.24265 -0.70711,4.24265 l 3.18198,0 1.06066,2.47487 0,4.59619 c 0,0 -0.35355,2.82843 -0.35355,4.24264 0,1.41422 3.18198,3.88909 4.59619,5.65686 1.41422,1.76777 4.5962,4.94975 4.5962,4.94975 l 4.24264,0.7071 3.88909,1.76777 c 0,0 0.35355,-2.12132 3.18198,-0.70711 2.82842,1.41422 2.82842,1.06066 4.59619,2.47488 1.76777,1.41421 3.88909,1.41421 3.88909,1.41421 0,0 3.53553,-2.12132 4.59619,-2.12132 1.06066,0 0.35355,-0.35355 3.18198,-0.35355 2.82843,0 4.24264,0 8.13173,1.06066 3.88909,1.06066 3.53553,0.7071 4.94975,1.06066 1.41421,0.35355 3.53553,-1.06066 3.53553,-1.06066 l 2.47487,-1.41422 4.5962,0.70711 3.88909,1.06066 2.12132,1.06066 4.94974,1.06066 c 0,0 2.82843,-0.70711 4.24264,-1.76777 1.41422,-1.06066 5.65686,-2.12132 5.65686,-2.12132 0,0 0.35355,-0.7071 1.76777,-0.7071 1.41421,0 3.88908,-0.70711 3.88908,-0.70711 l 3.88909,-1.06066 4.94975,0.70711 c 0,0 2.12132,-2.47488 3.53553,-2.47488 1.41422,0 6.01041,-1.41421 6.01041,-1.41421 l 3.53553,-3.18198 1.41422,-6.01041 c 0,0 1.06066,-4.59619 -0.70711,-6.01041 -1.76777,-1.41421 -3.88909,-2.12132 -3.88909,-2.12132 l -1.76776,-5.65685 c 0,0 -1.06066,-0.70711 -1.06066,-2.12132 0,-1.41422 0,-3.18198 0,-3.18198 l -2.82843,-2.47488 c 0,0 0.35355,-2.47487 -1.76777,-2.47487 -2.12132,0 -2.12132,0.35355 -3.88909,0 -1.76776,-0.35355 -6.71751,-1.06066 -8.13172,-1.06066 -1.41422,0 -2.47488,-0.70711 -4.94975,-0.70711 -2.47487,0 -5.65686,-0.35355 -7.42462,-0.35355 -1.76777,0 -4.5962,-1.06066 -6.01041,-0.70711 -1.41421,0.35356 -2.47487,-0.35355 -3.88909,0.35356 -1.41421,0.7071 -2.12132,0.7071 -2.12132,0.7071 l -4.59619,0 c 0,0 2.47487,-1.76776 -2.12132,-1.76776 -4.5962,0 -5.65686,0 -5.65686,0 0,0 -2.12132,-1.06066 -4.24264,-1.06066 -2.12132,0 -2.12132,0.35355 -3.53553,0.35355 -1.41421,0 -1.06066,0 -2.82843,0 -1.76776,0 -2.12132,-1.06066 -3.53553,-1.06066 -1.41422,0 -2.82843,0.70711 -2.82843,0.70711 z"
       id="area_6"
       inkscape:connector-curvature="0"
       transform="translate(-5.2142859,414.43362)"
       inkscape:label="#path3207" />
    <path
       style="fill:none;stroke:#000000;stroke-width:1px;stroke-linecap:butt;stroke-linejoin:miter;stroke-opacity:1"
       d="m 612.00092,235.30804 3.88909,5.65686 c 0,0 0.35355,1.41421 0.7071,3.18198 0.35356,1.76777 1.06066,4.94975 1.06066,4.94975 l 5.65686,-0.70711 c 0,0 1.76777,-1.06066 3.18198,-0.35355 1.41421,0.7071 6.71751,1.76776 6.71751,1.76776 l 4.5962,3.18198 3.18198,0 c 0,0 -0.70711,-1.76776 1.41421,-2.12132 2.12132,-0.35355 2.82843,-1.41421 4.94975,-1.41421 2.12132,0 4.24264,-1.06066 5.3033,1.06066 1.06066,2.12132 2.47487,2.82843 3.53553,4.59619 1.06066,1.76777 2.47488,3.18199 2.47488,3.18199 0,0 4.24264,0.7071 6.0104,0.7071 1.76777,0 3.88909,4.24264 3.88909,4.24264 0,0 2.82843,1.41422 4.94975,2.47488 2.12132,1.06066 2.12132,1.06066 4.24264,1.06066 2.12132,0 3.18198,1.06066 4.24264,-0.70711 1.06066,-1.76777 2.12132,-2.47487 2.12132,-2.47487 l 3.88909,-2.12132 c 0,0 -0.35355,0.35355 3.53553,-0.70711 3.88909,-1.06066 4.94975,0.35355 7.42462,1.06066 2.47488,0.70711 2.82843,0.70711 4.5962,0.70711 1.76776,0 2.47487,0.35355 3.88909,-0.70711 1.41421,-1.06066 4.24264,-2.82843 4.24264,-2.82843 l 4.24264,-2.47487 c 0,0 4.24264,-7.42462 4.24264,-8.83884 0,-1.41421 -0.70711,-1.06066 0.7071,-3.18198 1.41422,-2.12132 1.41422,-3.53553 1.41422,-3.53553 l 1.06066,-4.94975 -1.06066,-3.88909 c 0,0 1.06066,-1.41421 2.12132,-1.06066 1.06066,0.35356 2.47487,-1.41421 2.47487,-1.41421 l 0,-4.59619 c 0,0 -0.35355,-0.70711 -2.82843,-1.76777 -2.47487,-1.06066 -5.65685,-3.18198 -5.65685,-3.18198 0,0 -2.82843,-2.47487 -4.24264,-3.53553 -1.41421,-1.06067 -1.06066,-1.06067 -3.53553,-1.41422 -2.47488,-0.35355 -4.24265,-0.35355 -5.65686,-0.35355 -1.41421,0 -4.59619,0.35355 -4.59619,0.35355 l -3.88909,-0.35355 c 0,0 -2.12132,-3.18198 -4.59619,-3.18198 -2.47488,0 -2.47488,-0.35356 -4.5962,-0.35356 -2.12132,0 -7.42462,1.76777 -7.42462,1.76777 0,0 -0.70711,1.41421 -3.18198,1.41421 -2.47487,0 -3.18198,0 -4.59619,0.35356 -1.41422,0.35355 -1.06066,-0.35356 -2.47488,0.7071 -1.41421,1.06067 -2.12132,2.12133 -2.12132,2.12133 l -0.35355,2.82842 c 0,0 -3.88909,0 -5.65686,0 -1.76776,0 -2.82842,-1.06066 -4.94974,-1.06066 -2.12132,0 -1.06066,0.35356 -4.5962,1.06066 -3.53553,0.70711 -6.36396,0.70711 -6.36396,0.70711 0,0 -1.41421,-0.35355 -2.82843,0 -1.41421,0.35355 -1.06066,-0.35355 -2.82842,0.35355 -1.76777,0.70711 -2.47488,2.12132 -4.24264,0.70711 -1.76777,-1.41421 -2.12132,-2.82843 -3.88909,-2.82843 -1.76777,0 -1.06066,-0.7071 -3.18198,-1.06066 -2.12132,-0.35355 -3.18198,-0.35355 -3.18198,-0.35355 l -3.53554,-0.70711 c 0,0 -0.7071,-1.76777 -2.12132,-1.76777 -1.41421,0 -2.47487,-0.7071 -3.18198,0.70711 -0.7071,1.41422 -2.82842,3.88909 -2.82842,3.88909 0,0 -0.35356,1.76777 -1.06066,2.82843 -0.70711,1.06066 -1.06066,1.76776 -0.70711,3.18198 0.35355,1.41421 2.47487,0 1.06066,1.76776 -1.41421,1.76777 -2.12132,2.82843 -2.12132,2.82843 z"
       id="area_4"
       inkscape:connector-curvature="0"
       transform="translate(-5.2142859,414.43362)"
       inkscape:label="#path3209" />
    <text
       xml:space="preserve"
       style="font-size:40px;font-style:normal;font-weight:normal;line-height:125%;letter-spacing:0px;word-spacing:0px;fill:#000000;fill-opacity:1;stroke:none;font-family:Sans"
       x="576.73456"
       y="912.43182"
       id="navigation"
       sodipodi:linespacing="125%"
       inkscape:label="#text3211"><tspan
         sodipodi:role="line"
         id="tspan3213"
         x="576.73456"
         y="912.43182">1 2 5 3 6 4</tspan></text>
  </g>
</svg>
