<?xml version="1.0" encoding="UTF-8" standalone="no"?>
<!-- Created with Inkscape (http://www.inkscape.org/) -->

<svg
   xmlns:dc="http://purl.org/dc/elements/1.1/"
   xmlns:cc="http://creativecommons.org/ns#"
   xmlns:rdf="http://www.w3.org/1999/02/22-rdf-syntax-ns#"
   xmlns:svg="http://www.w3.org/2000/svg"
   xmlns="http://www.w3.org/2000/svg"
   xmlns:xlink="http://www.w3.org/1999/xlink"
   xmlns:sodipodi="http://sodipodi.sourceforge.net/DTD/sodipodi-0.dtd"
   xmlns:inkscape="http://www.inkscape.org/namespaces/inkscape"
   width="799"
   height="533"
   id="svg3256"
   version="1.1"
   inkscape:version="0.48.2 r9819"
   sodipodi:docname="Gchoc1.svg">
  <defs
     id="defs3258" />
  <sodipodi:namedview
     id="base"
     pagecolor="#ffffff"
     bordercolor="#666666"
     borderopacity="1.0"
     inkscape:pageopacity="0.0"
     inkscape:pageshadow="2"
     inkscape:zoom="0.70710678"
     inkscape:cx="389.78396"
     inkscape:cy="249.02008"
     inkscape:document-units="px"
     inkscape:current-layer="layer1"
     showgrid="false"
     fit-margin-top="0"
     fit-margin-left="0"
     fit-margin-right="0"
     fit-margin-bottom="0"
     inkscape:window-width="1292"
     inkscape:window-height="746"
     inkscape:window-x="-8"
     inkscape:window-y="-8"
     inkscape:window-maximized="1" />
  <metadata
     id="metadata3261">
    <rdf:RDF>
      <cc:Work
         rdf:about="">
        <dc:format>image/svg+xml</dc:format>
        <dc:type
           rdf:resource="http://purl.org/dc/dcmitype/StillImage" />
        <dc:title></dc:title>
      </cc:Work>
    </rdf:RDF>
  </metadata>
  <g
     inkscape:label="Layer 1"
     inkscape:groupmode="layer"
     id="layer1"
     transform="translate(24.5,-265.86218)">
    <image
       y="265.86218"
       x="-24.5"
       id="image3272"
       xlink:href="file:///G:/02/Gchoc1.jpg"
       height="533"
       width="799" />
    <path
       style="fill:none;stroke:#000000;stroke-width:1px;stroke-linecap:butt;stroke-linejoin:miter;stroke-opacity:1"
       d="m 227.68838,101.66486 -0.7071,17.32412 -1.06066,4.94975 -0.70711,7.77817 -0.70711,4.94975 5.65686,-0.35355 11.31371,-3.53554 7.77817,1.06066 88.38835,-0.35355 21.56676,-0.35356 -3.18199,-23.33452 -4.24264,-0.35355 -8.83883,-0.70711 -9.54594,-6.01041 -84.14571,-1.06066 -3.53553,-1.06066 -3.18198,-1.767764 -1.41422,3.181984 z"
       id="area_20"
       inkscape:connector-curvature="0"
       transform="translate(-24.5,265.86218)"
       sodipodi:nodetypes="ccccccccccccccccccc"
       inkscape:label="#path3293" />
    <path
       style="fill:none;stroke:#000000;stroke-width:1px;stroke-linecap:butt;stroke-linejoin:miter;stroke-opacity:1"
       d="m 451.13413,100.95776 24.04163,-1.414217 55.50788,-1.414214 72.832,-1.06066 20.15254,-0.353553 6.71752,-3.181981 -0.70711,9.192385 0.70711,5.65686 2.47487,5.65685 1.76777,10.6066 -8.13173,8.13173 -4.24264,5.65686 -24.04163,1.41421 -34.29468,0.7071 -40.30509,0.70711 -39.95153,0 -26.51651,1.06066 -5.65685,0 3.18198,-4.94974 5.3033,-4.24265 -8.83883,0 c 0,0 -2.12132,0 -3.18198,2.82843 -1.06066,2.82843 -3.88909,4.94975 -3.88909,4.94975 0,0 -1.76777,0 -2.82843,-1.41421 -1.06066,-1.41422 -2.82843,-4.5962 -2.82843,-4.5962 l 0.35356,-9.54594 c 0,0 -0.35356,-3.88909 0,-5.3033 0.35355,-1.41421 2.12132,-6.36396 2.12132,-6.36396 l 0,-4.5962 -3.18198,-1.06066 3.88909,-4.59619 4.59619,-2.12132 z"
       id="area_27"
       inkscape:connector-curvature="0"
       transform="translate(-24.5,265.86218)"
       sodipodi:nodetypes="cccccccccccccccccccccscsccscccccc"
       inkscape:label="#path3295" />
    <path
       style="fill:none;stroke:#000000;stroke-width:1px;stroke-linecap:butt;stroke-linejoin:miter;stroke-opacity:1"
       d="m 142.75,143.75 -1.75,4 0,2.75 -0.75,2.75 -1,3.25 -0.75,4 -2,3.25 c 0,0 0.25,2.5 0,4 -0.25,1.5 -1.5,4.5 -1.5,4.5 0,0 -1,2 -1,3.25 0,1.25 2.75,0.25 4.5,0.75 1.75,0.5 5.25,1.75 6.5,2 1.25,0.25 4.5,0.25 4.5,0.25 l 3.5,-0.5 -1.5,1 7,0.25 c 0,0 8.75,1.75 9.75,2 1,0.25 9.5,1.5 9.5,1.5 0,0 8.32698,1.31623 9.75,1 2.25,-0.5 7.25,0.5 7.25,0.5 l 16.75,0.25 13.75,1 1.75,-0.75 2,-2.25 6.25,-0.5 4.25,-1.75 2.25,-4 c 0,0 -0.25,-5 -0.25,-6.25 0,-1.25 -0.25,-4.75 0.5,-5.75 0.75,-1 2.25,-5 2.25,-5 l 1.5,-5.75 0.75,-3.75 -1.5,-7.5 -0.75,-4 -1.75,-3.75 -8.25,3.75 c 0,0 -0.25,1.75 -2.25,2.5 -2,0.75 -4.75,0.75 -6,0.75 -1.25,0 -30,-1.75 -30,-1.75 l -3.5,-1.25 -9.25,0.5 -8.75,-0.5 -3.5,-1.5 -4.5,-1 -4.25,-0.25 c 0,0 -2.25,0 -3.75,0.5 -1.5,0.5 -1.21098,1.32805 -2.5,2 -0.99141,0.51681 -1.5,2 -1.5,2 l -4,1.75 -3.25,1.75 z"
       id="area_21"
       inkscape:connector-curvature="0"
       transform="translate(-24.5,265.86218)"
       sodipodi:nodetypes="cccccccscsssccccscsccccccccsscccccccsscccccccsscccc"
       inkscape:label="#path3297" />
    <path
       style="fill:none;stroke:#000000;stroke-width:1px;stroke-linecap:butt;stroke-linejoin:miter;stroke-opacity:1"
       d="m 266,145.5 172,0.5 4,-4 2.5,-0.75 5.75,-7.25 9,-0.25 -7.25,7.5 -1.5,3.25 -0.25,13.5 c 0,0 1,3 1.5,4.75 0.5,1.75 1.75,7.75 1.75,7.75 0,0 0.5,3.5 0.75,4.5 0.25,1 -2.25,2.75 -2.25,2.75 l -3.25,1.75 -5.75,2.75 -5,1.5 -5.5,1 -4.25,2.25 -39.25,-0.75 -0.5,-1 -0.75,-3 -4.25,3.25 -115,0.75 -3.25,-2.75 -3.5,-2 -2.75,-0.75 -0.75,-3.25 -0.75,-3.75 3,-1.75 1.5,-1.25 0,-2.5 -2.25,-2.25 -0.75,-16.5 1,-0.25 1.75,3 -0.5,-4 0.25,-6.5 c 0,0 3.75,-4.25 3.75,-3 0,1.25 0.75,6.75 0.75,6.75 z"
       id="area_22"
       inkscape:connector-curvature="0"
       transform="translate(-24.5,265.86218)"
       sodipodi:nodetypes="cccccccccscscccccccccccccccccccccccccsc"
       inkscape:label="#path3299" />
    <path
       style="fill:none;stroke:#000000;stroke-width:1px;stroke-linecap:butt;stroke-linejoin:miter;stroke-opacity:1"
       d="m 470.25,142.75 -1.75,35.75 -1.5,17.25 c 0,0 0,6.75 0.25,7.75 0.25,1 1.75,6 1.75,7 0,1 2.5,4.25 2.5,4.25 l 7.25,3.75 4,2.25 8.5,2.5 14.75,0 63,0 51.5,-0.75 3.25,0 9,-2 7.5,-2.75 3.75,-1 c 0,0 4.25,-1 5.25,-1 1,0 7.25,-1 7.25,-1 l 8.25,-3.75 7.5,-3.75 -1.75,-3 -0.5,-2 -2.5,-1.5 -0.75,-4.5 -1.75,-4 -0.75,1 -2.25,-5.5 -0.5,-5.25 c 0,0 -0.5,-3.25 -0.5,-4.25 0,-1 -2.5,-7.75 -2.5,-7.75 l -1.75,-6.5 -2,-6 -2.25,-3.75 -1,-0.75 -6.5,8.5 -1,0.5 0,2 -4.5,-0.75 -5.5,-3.25 -5,-2.75 -6.25,-4.25 -8.5,-1.5 -9.25,-0.25 -5.25,-0.25 -6.25,1.25 -6.75,1.25 -4.25,0.75 -4.5,-1.5 -4.75,-0.25 -7.25,-0.25 -6.75,0.25 -6.75,0 -6,0 -4.5,-0.5 -4.25,-1.25 -2.75,-1 -3.25,-0.25 -3,-0.75 -3.25,-0.75 -5.25,-1.75 -5,-0.5 c 0,0 -4.25,-0.75 -5.25,-0.75 -1,0 -15,-1.5 -15,-1.5 l -7.5,-0.5 -7,-1 z"
       id="area_28"
       inkscape:connector-curvature="0"
       transform="translate(-24.5,265.86218)"
       inkscape:label="#path3301" />
    <path
       style="fill:none;stroke:#000000;stroke-width:1px;stroke-linecap:butt;stroke-linejoin:miter;stroke-opacity:1"
       d="m 174,189.25 c 0,0 2,4.5 2,6.75 0,2.25 -0.75,4.5 -0.75,5.5 0,1 0.25,2 0.25,3.75 0,1.75 -1.25,2 -1.5,4.5 -0.25,2.5 -1.25,3.5 -1.5,5.5 -0.25,2 -1,3 -1,4.25 0,1.25 0,2.75 -0.25,4.25 -0.25,1.5 0,1.75 -1,3.25 -1,1.5 0.23462,2.85306 0,6.75 -0.17586,2.92089 -1.75,1.75 -1.75,1.75 0,0 0.75,1.5 0.75,3 0,1.5 -2.75,2.75 -2.75,2.75 0,0 -3.5,3.5 0.5,1.75 4,-1.75 2.75,-2.5 5.5,-2.5 2.75,0 5.25,1 6.5,2 1.25,1 2.5,0.75 7,1.25 4.5,0.5 1.25,-2.5 2.25,-2.5 1,0 1.25,-0.75 2.75,0.25 1.5,1 1,1.5 3,2.25 2,0.75 4.25,0.25 5.75,0 1.5,-0.25 -8.75,-0.75 2.25,-0.25 11,0.5 9.25,1 13.75,0.5 4.5,-0.5 11.75,-1.5 13.75,-1.75 2,-0.25 4.5,0.75 7.25,0.75 2.75,0 1.5,0 5.75,0 4.25,0 4.25,-0.25 6.5,-0.25 2.25,0 -3,-0.25 3.5,0 6.5,0.25 5,0.25 7.25,0.25 2.25,0 4.75,-0.25 7.25,-0.5 2.5,-0.25 9,-0.75 10.75,-0.75 1.75,0 8.5,0 10.5,0 2,0 9,-0.25 10.5,0.25 1.5,0.5 13.75,-0.25 13.75,-0.25 0,0 14.75,0.5 16.25,0.5 1.5,0 29,-0.25 31.25,-0.25 2.25,0 6.5,-1.25 9.75,-0.25 3.25,1 11.75,-0.25 13,-0.25 1.25,0 4.5,-0.5 5.75,-1.25 1.25,-0.75 0.5,-6.25 0.5,-8.25 0,-2 -1,-7.5 -0.75,-9.25 0.25,-1.75 -0.5,-7.5 -0.5,-9.5 0,-2 -0.75,-5.5 -0.75,-7.75 0,-2.25 -1.25,-6.25 0,-7.25 1.25,-1 1.75,-4.75 1.75,-4.75 l 0,-5.5 -1,-5.25 -6,4.25 c 0,0 -1.25,0.75 -3,1.5 -1.75,0.75 -15,-0.75 -15,-0.75 L 358,189 l -18.75,-0.5 -20.5,0.75 -19.5,0 -28.25,0.75 -31,-0.75 -23.25,0 -11.75,0.5 -6.75,0.25 -5.25,-0.75 -4.25,-1 -4,-1 -3.5,1 -4.5,1.25 z"
       id="area_23"
       inkscape:connector-curvature="0"
       transform="translate(-24.5,265.86218)"
       sodipodi:nodetypes="cssssssssscscsssssssssssssssssssscssssssssssccccscccccccccccccccc"
       inkscape:label="#path3303" />
    <path
       style="fill:none;stroke:#000000;stroke-width:1px;stroke-linecap:butt;stroke-linejoin:miter;stroke-opacity:1"
       d="m 173,251.25 -3,2.75 1.5,1.25 1.5,1.25 -1.75,0.5 2,3 -1.75,1.25 -2,1.25 2.75,2.75 -0.25,2 -1.5,2 c 0,0 0.75,1 1,1.75 0.25,0.75 -1,2.5 -1,2.5 0,0 -0.5,0.5 -0.25,1.5 0.25,1 0.25,3 0.25,4 0,1 -0.5,3.75 -0.5,3.75 l 14.75,-0.5 3.5,2.5 6.25,1.5 8.5,0 c 0,0 -0.25,-0.75 0.75,-0.75 1,0 33.5,-0.25 33.5,-0.25 L 347,284 l 25,0.75 5.25,-0.75 5,-0.5 4.75,1.25 5.25,-5.25 -1.25,-1.25 -1,-4.25 -1.5,0.25 0.75,-4.75 0,-3 1.75,-5.75 2.75,-5.25 1.5,-4 -3,-2 -17.75,-1 -1.25,2.25 -2.25,1.5 0.5,0 -162.75,0.75 -1.75,-0.25 0.25,1 -10.25,-0.5 -2.75,-1.25 -3,-1 -3.5,0 -2.75,-1.5 -10.75,0.5 0.5,0.75 z"
       id="area_24"
       inkscape:connector-curvature="0"
       transform="translate(-24.5,265.86218)"
       inkscape:label="#path3305" />
    <path
       style="fill:none;stroke:#000000;stroke-width:1px;stroke-linecap:butt;stroke-linejoin:miter;stroke-opacity:1"
       d="m 491,238 2.5,5.25 0,2.5 -0.5,3 c 0,0 2,-0.75 2,0.75 0,1.5 0,16.75 0,16.75 l 0.75,16.5 0,15.75 c 0,0 -0.5,11 -0.5,12 0,1 0.5,6.75 0.5,6.75 l 2,0.75 1,1.5 3,-0.25 1.5,1.5 29.25,0.5 5.75,0 21.25,1.75 23,1 19.25,2 40.5,1.5 20.25,-0.25 5.5,-6.5 5.75,-6 1.5,-5 -2.5,-3.5 -1.75,-7.5 -1.75,-8.25 -2,-10.75 -1.5,-8.5 -2.25,-9.5 -4.5,-16.5 -1.5,-9.5 -2.5,-9.5 -1.75,-3.25 -8,4.25 -6.75,4 -5,2.25 -8.75,1 c 0,0 -3.5,0 -4.5,0.75 -1,0.75 -9.25,3.25 -9.25,3.25 0,0 -1.5,0.25 -3.5,1.25 -2,1 -5.75,3 -5.75,3 l -4,1 c 0,0 -4.5,1.25 -6.75,1.25 -2.25,0 -12.75,-1.5 -12.75,-1.5 0,0 -4.5,-0.25 -7.25,-0.25 -2.75,0 -8.5,-1 -11,-1 -2.5,0 -11,-1.5 -11,-1.5 l -8,0 c 0,0 -2.75,-1.5 -5,-1.5 -2.25,0 -6.25,0 -7.75,-0.5 -1.5,-0.5 -4.75,-1.5 -6.5,-1.25 -1.75,0.25 -9.25,-0.25 -11,0.25 -1.75,0.5 -2.25,0.5 -3.25,0.75 -1,0.25 -2.75,1 -4.25,1 -1.5,0 -3.5,0 -4.75,0 -1.25,0 -5.5,-1.5 -5.5,-1.5 z"
       id="area_29"
       inkscape:connector-curvature="0"
       transform="translate(-24.5,265.86218)"
       inkscape:label="#path4075" />
    <path
       style="fill:none;stroke:#000000;stroke-width:1px;stroke-linecap:butt;stroke-linejoin:miter;stroke-opacity:1"
       d="m 136.25,284.25 -0.5,7.25 0.5,3 0.25,4.75 0.25,3.75 0.25,5 0,4 -1.25,3.5 c 0,0 -1,2 -1.25,3.25 -0.25,1.25 -0.25,2 -0.25,2 0,0 -0.5,1.75 -0.25,3.25 0.25,1.5 1,2.5 1.5,3.75 0.5,1.25 2.75,4 2.75,4 l 3.25,0.25 6.25,-0.75 L 152,329 c 1.37383,-0.82262 0.94839,0.17957 4.75,-1.25 0,0 1.5,0.25 3.25,-0.5 1.75,-0.75 2.25,-1.5 4.5,-1.5 2.25,0 5,0 7,0 2,0 9.25,-0.5 10.5,-0.25 1.25,0.25 18.5,1 18.5,1 l 15.25,1.5 c 0,0 7.5,-1 9.5,-0.75 2,0.25 8.25,0.25 8.25,0.25 0,0 7,5.5 8.25,5.25 1.25,-0.25 6,-0.75 8.5,-0.5 2.5,0.25 6.5,-0.5 6.5,-0.5 l -0.25,-17.25 -1,-2.75 -0.5,-2.25 -2.5,-1.25 0.25,-4.25 c 0,0 0,-3.25 1.5,-3.5 1.5,-0.25 2.75,-0.25 2.75,-0.25 l 0.5,-4.5 c 0,0 -0.25,-1.5 1.25,-1.75 1.5,-0.25 0.5,-3.5 0.5,-3.5 0,0 -1.75,-0.5 -2.75,-1 -1,-0.5 -5.75,-0.5 -5.75,-0.5 0,0 -4.75,-0.5 -6,-0.5 -1.25,0 3.75,-1.75 -3,-0.5 -6.75,1.25 -7.75,2 -7.75,2 l -4.75,1.5 -1.5,-1.5 -10,-0.25 -6.25,-0.5 -2.5,0.5 c 0,0 -2.75,2.25 -3.75,2.25 -1,0 -1.5,-0.25 -5,0 -3.5,0.25 -5.25,-0.25 -7,-0.25 -1.75,0 -5.75,0.25 -7.75,0 -2,-0.25 -3.25,-0.75 -5.25,-0.75 -2,0 -1.5,-0.25 -3.75,-0.25 -2.25,0 -1.25,0.5 -3.5,0.5 -2.25,0 -4.5,0 -7,0 -2.5,0 -1.5,-0.75 -4.25,-1.25 -2.75,-0.5 -2.75,-0.75 -4.75,-1.25 -2,-0.5 -3,-1.25 -4.5,-1.5 -1.5,-0.25 -1.5,-0.5 -3,-0.5 -1.5,0 -3,0.25 -4.25,-0.25 -1.25,-0.5 -3.75,-2.75 -4.75,-2.75 -1,0 -4,0.75 -4.25,0.5 z"
       id="area_25"
       inkscape:connector-curvature="0"
       transform="translate(-24.5,265.86218)"
       sodipodi:nodetypes="ccccccccscsscccccssssccscssccccccsccscscssccccccssssssssssssssc"
       inkscape:label="#path4077" />
    <path
       style="fill:none;stroke:#000000;stroke-width:1px;stroke-linecap:butt;stroke-linejoin:miter;stroke-opacity:1"
       d="m 281,298 -3.75,3.5 -0.25,3.25 -1,4.5 c 0,0 -0.75,2 -0.75,3.25 0,1.25 -0.25,3.25 0,4.75 0.25,1.5 1,3.25 1.25,4.25 0.25,1 0.25,2.25 1.5,4.75 1.25,2.5 1.25,2.5 2,3.5 0.75,1 2,0.75 2,0.75 0,0 0.75,-1.25 2.5,-0.75 1.75,0.5 188.25,0.5 188.25,0.5 l 7.5,-0.5 L 483,326 c 0,0 3.5,-3.25 3,-5 -0.5,-1.75 -0.5,-8.75 -0.5,-8.75 l -1.25,-4.25 -1.25,-4 -2.75,-5 -5,-2.75 -190.5,-0.25 -1.75,1.25 z"
       id="area_26"
       inkscape:connector-curvature="0"
       transform="translate(-24.5,265.86218)"
       sodipodi:nodetypes="ccccssssscscccscccccccc"
       inkscape:label="#path4079" />
    <text
       xml:space="preserve"
       style="font-size:40px;font-style:normal;font-weight:normal;line-height:125%;letter-spacing:0px;word-spacing:0px;fill:#000000;fill-opacity:1;stroke:none;font-family:Sans"
       x="186.67619"
       y="385.92178"
       id="navigation"
       sodipodi:linespacing="125%"
       transform="translate(-24.5,265.86218)"
       inkscape:label="#text4081"><tspan
         sodipodi:role="line"
         id="tspan4083"
         x="186.67619"
         y="385.92178">20 27 21 22 28 23 24 29 25 26</tspan></text>
  </g>
</svg>
