<?xml version="1.0" encoding="UTF-8" standalone="no"?>
<!-- Created with Inkscape (http://www.inkscape.org/) -->

<svg
   xmlns:dc="http://purl.org/dc/elements/1.1/"
   xmlns:cc="http://creativecommons.org/ns#"
   xmlns:rdf="http://www.w3.org/1999/02/22-rdf-syntax-ns#"
   xmlns:svg="http://www.w3.org/2000/svg"
   xmlns="http://www.w3.org/2000/svg"
   xmlns:xlink="http://www.w3.org/1999/xlink"
   xmlns:sodipodi="http://sodipodi.sourceforge.net/DTD/sodipodi-0.dtd"
   xmlns:inkscape="http://www.inkscape.org/namespaces/inkscape"
   width="800"
   height="529"
   id="svg3215"
   version="1.1"
   inkscape:version="0.48.2 r9819"
   sodipodi:docname="Gchoc.svg">
  <defs
     id="defs3217" />
  <sodipodi:namedview
     id="base"
     pagecolor="#ffffff"
     bordercolor="#666666"
     borderopacity="1.0"
     inkscape:pageopacity="0.0"
     inkscape:pageshadow="2"
     inkscape:zoom="1"
     inkscape:cx="547.84333"
     inkscape:cy="231.57973"
     inkscape:document-units="px"
     inkscape:current-layer="layer1"
     showgrid="false"
     fit-margin-top="0"
     fit-margin-left="0"
     fit-margin-right="0"
     fit-margin-bottom="0"
     inkscape:window-width="1292"
     inkscape:window-height="746"
     inkscape:window-x="-8"
     inkscape:window-y="-8"
     inkscape:window-maximized="1" />
  <metadata
     id="metadata3220">
    <rdf:RDF>
      <cc:Work
         rdf:about="">
        <dc:format>image/svg+xml</dc:format>
        <dc:type
           rdf:resource="http://purl.org/dc/dcmitype/StillImage" />
        <dc:title />
      </cc:Work>
    </rdf:RDF>
  </metadata>
  <g
     inkscape:label="Layer 1"
     inkscape:groupmode="layer"
     id="layer1"
     transform="translate(135,-313.86218)">
    <image
       y="313.86218"
       x="-135"
       id="image3231"
       xlink:href="file:///G:/02/Gchoc.jpg"
       height="529"
       width="800" />
    <path
       style="fill:none;stroke:#000000;stroke-width:1px;stroke-linecap:butt;stroke-linejoin:miter;stroke-opacity:1"
       d="m 169.5,83 -2.5,1.75 -1.25,3.75 -0.75,4.5 0,4 0.5,6 0,4 -0.5,3 c 0,0 0,0.5 -1,2.5 -1,2 -1.5,5.5 -1.5,5.5 0,0 -2,-1 -1,2.5 1,3.5 4,8.5 4,8.5 l 5,3 c 0,0 2.5,0 5,1.5 2.5,1.5 5.5,3 5.5,3 l 5,1.25 9.5,-0.75 36,1 20,0 9,0 21.5,1.5 12.5,-0.5 74.5,0 7.5,-2.5 6.5,-1 4,-7 -0.5,-5 -1,-8 3.5,-10 -0.5,-7 -1.5,-6.5 -6,-7.5 -1,8 -14.5,1 -9,-2 c 0,0 -5.25,0 -6.25,0.5 -1,0.5 -5.25,2.25 -6.75,2.5 -1.5,0.25 -22,-1 -23.5,-1 -1.5,0 -17.5,-0.75 -18.5,-0.75 -1,0 -16.5,-0.25 -17.75,-0.25 -1.25,0 -92.5,0 -92.5,0 l -2,-0.5 c 0,0 -1.5,-0.5 -2.5,-0.75 -1,-0.25 -4,-1.75 -4,-1.75 0,0 -2,-0.5 -3.25,-0.75 C 178.25,88.5 174.75,88 174.75,88 l -2,-2.5 -2.25,-2 z"
       id="area_12"
       inkscape:connector-curvature="0"
       transform="translate(-135,313.86218)"
       sodipodi:nodetypes="ccccccccscsccscccccccccccccccccccccsssssccscscccc"
       inkscape:label="#path3234" />
    <path
       style="fill:none;stroke:#000000;stroke-width:1px;stroke-linecap:butt;stroke-linejoin:miter;stroke-opacity:1"
       d="m 462,94.25 1,6.5 c 0,0 -0.25,2.5 -0.25,3.5 0,1 1,1 1,3.5 0,2.5 0,5.25 0,6.25 0,1 -0.75,3.25 -0.75,4.25 0,1 -0.5,1 -0.75,3.25 -0.25,2.25 0.25,4 -0.25,5.25 -0.5,1.25 0.75,1.75 0.5,3.5 -0.25,1.75 -2,7 -2,8 0,1 0.25,2 -0.5,3.75 -0.75,1.75 -1,5 -1,5 0,0 -0.25,1.5 -0.25,3 0,1.5 0.25,3.75 0.25,3.75 0,0 -0.5,0.25 1,1.5 1.5,1.25 4.5,3.5 4.5,3.5 0,0 1.75,0 2.75,0.5 1,0.5 3.25,2.25 3.25,2.25 l 4,2.25 c 0,0 -0.5,-1 2.25,-0.5 2.75,0.5 19.25,2.25 19.25,2.25 l 37,2 c 0,0 23.25,1.25 24.5,1.25 1.25,0 15.25,-0.75 17.75,-0.75 2.5,0 15.25,0.25 16.5,0.25 1.25,0 9.75,0 10.75,0 1,0 8,-0.5 9.5,-0.75 1.5,-0.25 6.75,-0.75 6.75,-0.75 l 2.25,-1 c 0,0 1,-2.5 2,-0.5 1,2 1.75,3.5 3,4.5 1.25,1 2.5,2 4.5,2 2,0 0.5,-0.25 4.5,0.5 4,0.75 4.25,2 4.25,2 l -0.75,-9 0,-67 1.25,-5.25 c 0,0 -1.5,-0.75 -2.25,0.25 -0.75,1 -2.25,1.75 -2.25,1.75 0,0 -3.75,0.75 -5.25,0.75 -1.5,0 -7.75,0.25 -9.5,0.25 -1.75,0 -2.75,0.5 -2.75,0.5 0,0 -1.5,1.5 -3.75,1.5 -2.25,0 -11,-0.25 -12.75,-0.5 -1.75,-0.25 -116.5,-3.25 -116.5,-3.25 z"
       id="area_16"
       inkscape:connector-curvature="0"
       transform="translate(-135,313.86218)"
       sodipodi:nodetypes="ccssssssssscscscsccsccsssssccssssccccscsscsscc"
       inkscape:label="#path3236" />
    <path
       style="fill:none;stroke:#000000;stroke-width:1px;stroke-linecap:butt;stroke-linejoin:miter;stroke-opacity:1"
       d="m 166.25,155.25 5,-0.25 c 0,0 0,-1.5 1,-1.5 1,0 4.75,0 4.75,0 l 1.25,0 1.75,-0.25 157,-2 21,0.75 3.25,1 2,-3.25 c 0,0 4.25,-1.5 5.75,-0.25 1.5,1.25 8.75,3.5 8.75,3.5 l 2,30.25 -6.25,2 -4.5,0.5 c 0,0 -1,1.25 -1,2.5 0,1.25 0,3.75 0,3.75 0,0 -0.75,-0.75 -5.5,0.5 -4.75,1.25 -13,2 -13,2 0,0 -8.25,-0.5 -9.5,-0.5 -1.25,0 -136.5,1.5 -136.5,1.5 l -24,-0.75 c 0,0 -6.75,-0.75 -9.25,-0.75 -2.5,0 -11,-1 -12.5,-1 -1.5,0 -4.5,0.5 -4.5,0.5 l -3.25,-2 c 0,0 0.79052,-1.91126 0.79052,-2.79514 0,-0.88388 -0.17678,-7.42462 -0.17678,-8.3085 0,-0.88389 0.35356,-7.42462 0.35356,-7.42462 0,0 1.23743,-5.83364 1.23743,-6.54074 0,-0.70711 -1.23743,-4.94975 -2.12132,-5.48008 -0.88388,-0.53033 -1.41421,-3.18198 -1.41421,-3.18198 0,0 2.65165,-1.59099 3.71231,-1.41421 1.06066,0.17677 6.54074,0.17677 6.54074,0.17677 l 2.82843,0.70711 1.59099,0.88388 1.06066,-1.41421 z"
       id="area_13"
       inkscape:connector-curvature="0"
       transform="translate(-135,313.86218)"
       inkscape:label="#path3238" />
    <path
       style="fill:none;stroke:#000000;stroke-width:1px;stroke-linecap:butt;stroke-linejoin:miter;stroke-opacity:1"
       d="m 467.75114,211.68583 17.85444,-0.35355 -0.17677,1.06066 2.29809,0 0.70711,0.88388 3.18198,0 0.17678,0.70711 18.03122,0.35355 2.47487,0.53033 2.47488,1.23744 c 0,0 5.12652,-0.35355 6.01041,-0.35355 0.88388,0 4.41941,0 5.65685,0.17677 1.23744,0.17678 8.3085,1.06066 9.01561,1.06066 0.70711,0 4.24264,0.35356 5.12652,0.53033 0.88389,0.17678 6.36397,0.17678 6.36397,0.17678 l 9.54594,0.53033 c 0,0 1.76776,-0.35355 2.65165,0.17678 0.88388,0.53033 5.83363,1.59099 8.48528,1.76776 2.65165,0.17678 7.42462,0.17678 9.89949,0.17678 2.47488,0 4.24264,-0.35355 6.36397,0 2.12132,0.35355 5.83363,2.2981 7.60139,2.47487 1.76777,0.17678 3.88909,-0.17677 8.30851,-0.17677 4.41942,0 5.12652,0.53033 6.18718,0.88388 1.06066,0.35355 2.65165,2.12132 5.12653,1.94454 2.47487,-0.17677 6.0104,0.17678 7.77817,-0.53033 1.76777,-0.7071 5.83363,-1.23743 5.83363,-1.23743 l 4.41942,0.17677 3.35876,-1.76776 0.53033,-1.59099 -1.41422,-1.59099 0.53033,-2.47488 -0.35355,-1.76776 0,-2.82843 0.53033,-2.2981 -1.41421,-1.41421 1.23743,-1.41422 0.53033,-2.29809 -1.76776,-1.23744 1.94454,-2.82843 c 0,0 -0.35355,-0.88388 -0.35355,-1.76776 0,-0.88389 0.17677,-4.5962 0.17677,-4.5962 l -0.53033,-5.12652 -0.53033,-7.6014 -7.24784,-1.06066 c 0,0 -4.77297,1.06066 -6.18719,1.06066 -1.41421,0 -6.18718,-0.17678 -7.07106,0.17678 -0.88389,0.35355 -3.53554,1.59099 -4.24264,1.76776 -0.70711,0.17678 -3.18198,1.23744 -4.06587,1.59099 -0.88388,0.35356 -0.88388,0.88389 -3.0052,1.06066 -2.12132,0.17678 -10.25305,0 -11.66726,0 -1.41422,0 -14.67247,-0.17677 -15.73313,-0.35355 -1.06066,-0.17678 -73.71588,-5.48008 -73.71588,-5.48008 0,0 -5.12653,-0.35355 -6.89429,-0.88388 -1.76777,-0.53033 -4.06587,-1.59099 -6.01041,-1.94454 -1.94454,-0.35356 -4.24264,-0.53033 -4.24264,-0.53033 l -3.53554,-1.41422 c 0,0 -0.17677,-1.06066 -3.0052,-1.41421 -2.82843,-0.35355 -3.18198,-1.76777 -4.41942,-1.76777 -1.23743,0 -2.47487,1.23744 -2.47487,1.23744 0,0 1.59099,2.82843 0.88388,3.0052 -0.7071,0.17678 -3.18198,2.12132 -3.18198,3.00521 0,0.88388 1.23744,3.35875 1.23744,3.35875 0,0 -0.70711,1.23744 -0.35355,2.2981 0.35355,1.06066 0.35355,1.94454 1.06066,3.0052 0.7071,1.06066 -1.23744,0.53033 -1.41422,1.76777 -0.17677,1.23744 0,2.47488 0.35355,4.24265 0.35356,1.76776 -0.7071,4.41941 -0.35355,5.48007 0.35356,1.06066 0,2.12132 0.53033,3.0052 0.53033,0.88389 1.23744,0.88389 0.70711,1.94455 -0.53033,1.06066 -0.70711,2.65165 -0.88388,3.35875 -0.17678,0.70711 -1.06066,1.94455 -1.06066,1.94455 l 1.23743,1.76776 z"
       id="area_17"
       inkscape:connector-curvature="0"
       transform="translate(-135,313.86218)"
       sodipodi:nodetypes="ccccccccccssssccsssssssssccccccccccccccsccccscscssscssccssccscssssssssccc"
       inkscape:label="#path3242" />
    <path
       style="fill:none;stroke:#000000;stroke-width:1px;stroke-linecap:butt;stroke-linejoin:miter;stroke-opacity:1"
       d="m 184.5,219.75 19.5,1.25 120.25,4.25 5.75,2.25 7.75,-7 7.25,-0.5 9.5,0.5 0.5,2 c 0.48693,-3.0149 2.42869,-6.74865 5.5,-6.5 l -3,18 -2.5,23 -0.5,5.5 c -2.91517,1.503 -5.74291,3.18085 -8,6 l -7.75,2.5 -11.25,-1.5 c 0,0 -18.5,1.5 -21,1.5 -2.5,0 -12.5,-0.5 -16.5,-0.5 -4,0 -22.5,0 -26.5,0 -4,0 -29.5,-0.5 -29.5,-0.5 l -22,0 c 0,0 -16.5,0 -18.5,0 -2,0 -12.25,-0.25 -12.25,-0.25 l -6,-12.75 c 0,0 -1.75,-5 -1.75,-7.5 0,-2.5 1.5,-16.25 1.5,-16.25 l 0.75,-9.75 c 0,0 -1.75,-11 -1.25,-9 0.5,2 3.5,5.25 3.5,5.25 l 2.75,-2.5 z"
       id="area_14"
       inkscape:connector-curvature="0"
       transform="translate(-135,313.86218)"
       sodipodi:nodetypes="cccccccccccccccsssccsccsccsccc"
       inkscape:label="#path3244" />
    <path
       style="fill:none;stroke:#000000;stroke-width:1px;stroke-linecap:butt;stroke-linejoin:miter;stroke-opacity:1"
       d="m 509.5,272.5 18.5,0 15,0 14,0 16.75,0.25 2,0.5 35.75,0.25 4,-0.25 3,-1.5 4.75,-3 4.5,-3.5 2.75,-3.5 1.5,-1 -1,-2.5 0.25,-1.75 -1.5,-0.75 0,-2 -0.5,-1.25 -0.5,-2 -0.75,-2.75 0.25,-1.25 -1,-1 -0.5,-2.75 -1,-0.5 -0.25,-1.75 0,-1 -1,-2 -1.25,-2 -0.25,-1.75 -0.5,-2.75 c 0,0 0,-1 -0.25,-2 -0.25,-1 -2,-3.5 -2,-3.5 l -4.5,0.25 -3.75,1.5 -3.25,2.5 -4.5,3 -1.25,0.5 -4.5,1.25 -3.5,1.25 -4.5,-1 -8,-1 -11,0 -4.25,0 -8.5,0 -11,-0.5 c 0,0 -8.75,-1 -7.25,-1 0.5,0 -8.5,0.75 -8.5,0.75 0,0 -4.5,-1.75 -7.25,-1.25 -2.75,0.5 -8.5,0 -8.5,0 l -12.75,-2 -9,-0.25 -8,-0.5 c 0,0 -3.5,0.25 -4,1.25 -0.5,1 -5.75,3.5 -5.75,3.5 l -2.25,1 -2,0.5 -0.5,2 c 0,0 0,3 0,4 0,1 0.25,2.5 0.25,3.5 0,1 0,2.25 0,2.25 l 1,1.5 0,2.25 c 0,0 0.25,1 0.5,2 0.25,1 0,1.5 0,2.75 0,1.25 0.25,1.75 0.75,2.75 0.5,1 1,2.75 1,2.75 0,0 0.75,2.5 1,3.5 0.25,1 0.75,3.75 0.75,3.75 0,0 -2.5,-2.75 0,1.25 2.5,4 3.25,3.25 3.25,3.25 l 2,0.25 3.75,-2.25 2.5,-2 5,-5 4.5,3.75 3.5,1.25 c 0,0 0.5,1.25 2.25,1.25 1.75,0 5.5,2.5 5.5,2.5 z"
       id="area_18"
       inkscape:connector-curvature="0"
       transform="translate(-135,313.86218)"
       inkscape:label="#path3248"
       sodipodi:nodetypes="ccccccccccccccccccccccccccccccsccccccccccccccscsccccsccccsscccssscscscccccccsc" />
    <path
       style="fill:none;stroke:#000000;stroke-width:1px;stroke-linecap:butt;stroke-linejoin:miter;stroke-opacity:1"
       d="m 208.5,289.75 5.25,0.75 5.25,0.5 5.75,0.25 5.75,0 8.5,0.25 7,-0.25 11.25,0.75 8.25,-0.25 16,0.25 20.75,0.5 11.5,0.5 9.25,0 4.25,0.25 1.5,-0.75 2.75,-2.25 -1.25,0.5 0.75,-1 2.25,-0.5 4,0 2,0 0.75,-1.5 2.5,0.25 2.5,-0.25 1.5,-0.75 0.75,-0.5 1.75,2.5 -0.75,3.25 1,0.5 0.75,3 -0.5,2.75 0.25,3.5 0.25,4.75 0,2.5 0,7.75 0.25,5.25 0.25,8.25 -2,0.75 -4.5,1.5 -11.5,-0.5 -5,0.75 -8.75,0.5 -16.5,-0.75 -37.75,-1 -27.5,0.25 -16.5,0.25 -8.25,-0.25 -5,0.25 -10.5,-0.5 -8,1.25 -6.25,1.5 -0.75,-2 0.5,-3.75 0,-5 c 1.38159,-0.76095 1.20024,-2.49131 1.25,-5.25 l 0.5,-4.75 0.25,-3.25 0.5,-2.25 1.25,-2 0.25,-4.5 1.25,-3.75 -0.25,-2.75 3.5,-2.25 3.25,-1.75 2.5,-1.75 5.75,0 z"
       id="area_15"
       inkscape:connector-curvature="0"
       transform="translate(-135,313.86218)"
       sodipodi:nodetypes="ccccccccccccccccccccccccccccccccccccccccccccccccccccccccccccccccccc"
       inkscape:label="#path3250" />
    <path
       style="fill:none;stroke:#000000;stroke-width:1px;stroke-linecap:butt;stroke-linejoin:miter;stroke-opacity:1"
       d="m 468.25,292.25 10.75,0.25 7.75,0.5 11.75,0.25 15,1 10.5,-0.25 22,0.5 22.5,0.5 27.5,0.25 10.25,-0.25 8.25,-0.75 11.75,-0.5 2.75,-0.5 0,9.75 -0.5,7 c 0,0 1.75,1.25 1.75,2.25 0,1 0.75,4.5 0.75,5.75 0,1.25 0.75,5 0.75,5 l -5.25,1.5 -6.5,2.75 -4.75,2 -3.25,1.25 -12,-0.25 -12.75,-0.5 -11.5,0.25 -13.5,-1.75 -11.25,-0.5 -10.75,-0.5 -13.25,0 -19,-0.25 -12.5,-1 -8.5,-0.75 -8,-0.75 -4,-2 -5.75,-1 -0.75,-4.75 -0.25,-3.25 0,-3.25 0.75,-2.5 0.75,-2.5 0.25,-3.75 -1.5,-5 z"
       id="area_19"
       inkscape:connector-curvature="0"
       transform="translate(-135,313.86218)"
       sodipodi:nodetypes="cccccccccccccccsscccccccccccccccccccccccccc"
       inkscape:label="#path3254" />
    <text
       xml:space="preserve"
       style="font-size:40px;font-style:normal;font-weight:normal;line-height:125%;letter-spacing:0px;word-spacing:0px;fill:#000000;fill-opacity:1;stroke:none;font-family:Sans"
       x="34"
       y="697.86218"
       id="navigation"
       sodipodi:linespacing="125%"
       inkscape:label="#text3289"><tspan
         sodipodi:role="line"
         id="tspan3291"
         x="34"
         y="697.86218">12 16 13 17 14 18 15 19</tspan></text>
  </g>
</svg>
