<?xml version="1.0" encoding="UTF-8" standalone="no"?>
<!-- Created with Inkscape (http://www.inkscape.org/) -->

<svg
   xmlns:dc="http://purl.org/dc/elements/1.1/"
   xmlns:cc="http://creativecommons.org/ns#"
   xmlns:rdf="http://www.w3.org/1999/02/22-rdf-syntax-ns#"
   xmlns:svg="http://www.w3.org/2000/svg"
   xmlns="http://www.w3.org/2000/svg"
   xmlns:xlink="http://www.w3.org/1999/xlink"
   xmlns:sodipodi="http://sodipodi.sourceforge.net/DTD/sodipodi-0.dtd"
   xmlns:inkscape="http://www.inkscape.org/namespaces/inkscape"
   width="799"
   height="533"
   id="svg4085"
   version="1.1"
   inkscape:version="0.48.2 r9819"
   sodipodi:docname="Gchoc2.svg">
  <defs
     id="defs4087" />
  <sodipodi:namedview
     id="base"
     pagecolor="#ffffff"
     bordercolor="#666666"
     borderopacity="1.0"
     inkscape:pageopacity="0.0"
     inkscape:pageshadow="2"
     inkscape:zoom="1"
     inkscape:cx="543.53644"
     inkscape:cy="251.38954"
     inkscape:document-units="px"
     inkscape:current-layer="layer1"
     showgrid="false"
     fit-margin-top="0"
     fit-margin-left="0"
     fit-margin-right="0"
     fit-margin-bottom="0"
     inkscape:window-width="1292"
     inkscape:window-height="746"
     inkscape:window-x="-8"
     inkscape:window-y="-8"
     inkscape:window-maximized="1" />
  <metadata
     id="metadata4090">
    <rdf:RDF>
      <cc:Work
         rdf:about="">
        <dc:format>image/svg+xml</dc:format>
        <dc:type
           rdf:resource="http://purl.org/dc/dcmitype/StillImage" />
      </cc:Work>
    </rdf:RDF>
  </metadata>
  <g
     inkscape:label="Layer 1"
     inkscape:groupmode="layer"
     id="layer1"
     transform="translate(1373.7858,25.566389)">
    <image
       y="-25.566389"
       x="-1373.7858"
       id="image4101"
       xlink:href="file:///G:/02/Gchoc2.jpg"
       height="533"
       width="799" />
    <path
       style="fill:none;stroke:#000000;stroke-width:1px;stroke-linecap:butt;stroke-linejoin:miter;stroke-opacity:1"
       d="m 185.26198,74.441252 198.34345,4.242641 3.88909,-2.121321 4.59619,2.474874 7.42462,-4.596194 1.06066,9.545942 c 0,0 0,3.18198 0,4.596194 0,1.414213 2.82843,6.363961 2.82843,6.363961 l -4.5962,8.485281 -7.42462,12.02082 -16.61701,0.7071 -17.32411,0.35356 -12.37437,0 -31.81981,-0.70711 -21.92031,-1.76777 -13.43502,0.35356 c 0,0 -11.31371,-0.35356 -12.72793,-0.35356 -1.41421,0 -12.72792,-1.06066 -14.14213,-1.06066 -1.41422,0 -10.25305,0.35356 -12.02082,0.35356 -1.76776,0 -14.84924,-4.5962 -14.84924,-4.5962 l 0.35355,3.53553 c 0,0 0,2.47488 -2.12132,2.82843 -2.12132,0.35356 -23.68807,0.35356 -23.68807,0.35356 0,0 -6.36397,-2.12132 -8.83884,-2.82843 -2.47487,-0.70711 -7.07107,-4.24264 -7.07107,-4.24264 0,0 -3.18198,-1.76777 -4.59619,-1.76777 -1.41421,0 -0.70711,1.76777 -2.12132,1.41421 -1.41421,-0.35355 -2.47488,-0.35355 -2.82843,-1.76776 -0.35355,-1.41422 0,-8.131731 0,-8.131731 l 1.06066,-7.778174 0,-3.889088 4.94975,0.707107 2.47487,-2.474874 -4.59619,-3.18198 -1.06066,-9.545942 2.82843,-3.18198 c 0,0 0.35355,5.303301 1.76776,7.071068 1.41422,1.767767 4.5962,-1.414214 4.5962,-1.414214 z"
       id="area_1"
       inkscape:connector-curvature="0"
       transform="translate(-1373.7858,-25.566389)"
       inkscape:label="#path4108" />
    <path
       style="fill:none;stroke:#000000;stroke-width:1px;stroke-linecap:butt;stroke-linejoin:miter;stroke-opacity:1"
       d="m 458.20519,88.229834 2.47488,-5.303301 0.35355,-4.24264 3.53554,-4.596194 6.36396,3.18198 9.19238,0 126.21857,-0.353553 12.02081,-1.414214 10.96016,1.414214 4.59619,9.899495 -1.06066,3.535534 3.18198,12.727925 -3.18198,2.82842 -2.47487,3.18198 -2.12132,3.88909 -8.83884,5.65686 -3.88909,2.82842 -3.88908,0.35356 -142.48202,0.35355 -5.65685,-2.47487 -2.82843,-2.12132 -0.35356,-4.5962 -5.3033,-7.07107 1.76777,-4.94974 0,-8.485285 z"
       id="area_6"
       inkscape:connector-curvature="0"
       transform="translate(-1373.7858,-25.566389)"
       inkscape:label="#path4110" />
    <path
       style="fill:none;stroke:#000000;stroke-width:1px;stroke-linecap:butt;stroke-linejoin:miter;stroke-opacity:1"
       d="m 217.08178,150.10168 9.19239,-0.35356 8.13173,0.70711 11.66726,1.07843 6.36396,-0.0178 8.13173,-0.35355 14.84924,1.76776 17.67767,0.70711 c 0,0 14.49569,1.76777 17.32412,1.76777 2.82842,0 7.42462,0 10.25305,-0.35355 2.82842,-0.35356 8.83883,-0.35356 8.83883,-0.35356 l 9.8995,0.35356 c 0,0 7.42462,0 9.54594,-0.70711 2.12132,-0.70711 7.07106,-3.53554 7.07106,-3.53554 l -0.18934,-4.34619 -1.22487,-8.38173 c 0,0 -3.53553,-2.12132 -2.12132,-4.24264 1.41421,-2.12132 2.47487,-3.18198 2.47487,-3.18198 0,0 3.24799,-5.01342 2.82843,-6.36396 -0.75,-2.41421 0.14645,-5.07843 -0.91421,-6.49264 -1.06066,-1.41421 -6.15686,-0.57843 -6.15686,-0.57843 l 3.18198,-0.35355 -39.95153,-0.70711 -20.15254,-2.12132 -15.55635,0.70711 -19.79899,-1.41421 -10.25305,0 -8.83883,-0.70711 -10.25305,-1.41422 -3.53554,-2.12132 -3.18198,9.8995 -1.41421,13.78858 c 0,0 -1.72487,4.8462 -1.72487,6.26041 0,1.41421 -2.16422,11.06371 -2.16422,11.06371 z"
       id="area_2"
       inkscape:connector-curvature="0"
       transform="translate(-1373.7858,-25.566389)"
       sodipodi:nodetypes="ccccccccssccscccscssccccccccccccsc"
       inkscape:label="#path4112" />
    <path
       style="fill:none;stroke:#000000;stroke-width:1px;stroke-linecap:butt;stroke-linejoin:miter;stroke-opacity:1"
       d="m 419.5,122.5 6.75,0.25 1.5,-1.25 4.25,0.75 5.5,1.25 14.75,0.5 147.5,3.75 73.5,1.25 2.5,-3.25 c 0,0 2.5,9 2.5,10 0,1 0.25,3.25 0.25,3.25 0,0 0.5,1 1,3.5 0.5,2.5 0.5,5.25 0.5,6.5 0,1.25 1.25,5.75 2.25,7.5 1,1.75 2.5,5.5 2.75,6.5 0.25,1 0.75,6.5 0.25,7.5 -0.5,1 -1.5,4 -2.75,4.5 -1.25,0.5 -5.25,2.5 -7.5,2 -2.25,-0.5 -15.25,0.25 -15.25,0.25 l -27,-0.5 L 427.5,171 423,170.25 c 0,0 1.25,0.5 -3,-1.5 -4.25,-2 -6.25,-3.75 -6.25,-3.75 0,0 -0.25,-2 -0.75,-3 -0.5,-1 -2.75,-2.75 -2.75,-2.75 0,0 -0.75,-1 -0.75,-2.75 0,-1.75 -0.75,-3.5 -0.75,-3.5 0,0 -1.5,0 -1.5,-1.75 0,-1.75 0,-2.75 0,-2.75 0,0 -1.25,-0.5 -1.5,-1.75 -0.25,-1.25 -0.5,-2.75 -0.5,-4.5 0,-1.75 -0.25,-3.5 -0.25,-5 0,-1.5 -0.25,-1.5 -0.25,-2.75 0,-1.25 -0.5,-1.25 -0.5,-2.25 0,-1 -0.25,-1.25 0.25,-2.5 0.5,-1.25 1,-2.5 1,-2.5 l 1,-1.5 c 0,0 0.75,-0.25 1.25,-1.5 C 408.25,123 409,121 409,121 c 0,0 0.75,-1 1,-2.75 0.25,-1.75 -0.5,-1.5 0.5,-3 1,-1.5 0.5,-2 1.75,-2.25 1.25,-0.25 1,-1.25 2.5,-1.5 1.5,-0.25 1.5,-1.5 1.75,0.5 0.25,2 2,3.75 2.25,5 0.25,1.25 0.5,1.5 0.75,5.5 z"
       id="area_7"
       inkscape:connector-curvature="0"
       transform="translate(-1373.7858,-25.566389)"
       inkscape:label="#path4114" />
    <path
       style="fill:none;stroke:#000000;stroke-width:1px;stroke-linecap:butt;stroke-linejoin:miter;stroke-opacity:1"
       d="m 152.73506,209.8522 45.60839,0.70711 53.03301,1.76776 88.7419,1.41422 33.94113,-1.41422 6.36396,1.41422 5.3033,-9.54594 4.94975,-11.31371 2.12132,-11.31371 0,-10.25305 0.35355,-11.31371 5.65685,-5.65685 c 0,0 0.70711,-5.65686 -1.06066,-4.5962 -1.76776,1.06066 -7.77817,8.83884 -7.77817,8.83884 l -1.76777,2.12132 c 0,0 -7.77817,-0.70711 -9.54594,-0.70711 -1.76777,0 -38.89087,-1.06066 -38.89087,-1.06066 l -11.66726,0 c 0,0 -12.37437,0.70711 -14.49569,0.70711 -2.12132,0 -39.95154,-2.12132 -39.95154,-2.12132 l -12.02081,-1.06066 -22.62742,-0.35355 -69.65002,-2.47488 c 0,0 -7.42462,-1.06066 -8.83883,-0.35355 -1.41421,0.7071 -10.25305,1.06066 -10.25305,1.06066 l -6.01041,-2.12132 c 0,0 -1.06066,-2.82843 -1.76776,-5.3033 -0.70711,-2.47488 1.41421,-5.3033 1.41421,-5.3033 l -7.07107,1.41421 -5.65685,4.24264 c 0,0 -3.88909,1.76777 -4.94975,4.59619 -1.06066,2.82843 -0.35355,4.5962 -1.41421,6.71752 -1.06066,2.12132 -3.18198,5.3033 -3.18198,5.3033 l -0.70711,4.59619 -1.06066,2.82843 c 0,0 -3.88909,3.88909 -2.82843,6.01041 1.06066,2.12132 0.35356,6.36396 -0.35355,8.13173 -0.70711,1.76776 -1.76777,2.82842 -2.47487,4.59619 -0.70711,1.76777 -2.47488,3.53553 -2.82843,5.65686 -0.35356,2.12132 6.71751,5.65685 6.71751,5.65685 0,0 4.94975,2.47487 6.71752,2.82843 1.76776,0.35355 -1.06066,-1.41422 4.24264,0.7071 5.3033,2.12132 4.94975,2.82843 9.19239,3.18198 4.24264,0.35356 3.18198,0 6.0104,0.35356 2.82843,0.35355 9.19239,3.18198 8.48528,1.41421 z"
       id="area_3"
       inkscape:connector-curvature="0"
       transform="translate(-1373.7858,-25.566389)"
       inkscape:label="#path4116" />
    <path
       style="fill:none;stroke:#000000;stroke-width:1px;stroke-linecap:butt;stroke-linejoin:miter;stroke-opacity:1"
       d="m 406.93995,179.80016 1.06066,10.96016 c 0,0 0.70711,4.94975 0.35356,7.77817 -0.35356,2.82843 0.35355,4.94975 0,8.13173 -0.35356,3.18198 0,3.88909 -0.35356,6.01041 -0.35355,2.12132 -0.35355,1.41421 -0.35355,4.24264 0,2.82843 -3.53553,3.18198 1.06066,3.53553 4.59619,0.35356 12.72792,-0.35355 12.72792,-0.35355 0,0 13.08148,2.12132 14.84924,2.82843 1.76777,0.7071 18.38478,-0.35356 18.38478,-0.35356 0,0 15.9099,0.35356 18.03122,0.35356 2.12132,0 13.78859,0.35355 13.78859,0.35355 0,0 14.14213,0 15.55635,-0.35355 1.41421,-0.35356 16.617,-0.70711 16.617,-0.70711 l 6.01041,0 c 0,0 -1.06066,-7.42462 0,-9.19239 1.06066,-1.76777 1.76777,-9.19239 2.82843,-11.31371 1.06066,-2.12132 1.06066,-10.96015 1.06066,-10.96015 l -1.06066,-4.24264 -2.12132,2.47487 -2.47487,-5.65685 -8.48529,-4.94975 -1.41421,0 0,3.53553 -16.97056,0 -13.43503,0.35356 -50.91169,-0.35356 -2.47487,-0.7071 c 0,0 -2.47488,0.7071 -3.88909,0.35355 -1.41421,-0.35355 -3.18198,-0.70711 -4.59619,-1.06066 -1.41422,-0.35355 -7.07107,-1.41421 -7.07107,-1.41421 l -4.94975,-1.41422 z"
       id="area_8"
       inkscape:connector-curvature="0"
       transform="translate(-1373.7858,-25.566389)"
       inkscape:label="#path4118" />
    <path
       style="fill:none;stroke:#000000;stroke-width:1px;stroke-linecap:butt;stroke-linejoin:miter;stroke-opacity:1"
       d="m 556.49304,226.46921 7.07107,-3.88909 2.82842,-1.41421 5.65686,-1.41421 4.94974,2.12132 c 0,0 5.65686,0.7071 7.07107,1.06066 1.41422,0.35355 3.18198,-0.35356 5.3033,0.7071 2.12132,1.06066 6.36396,0.70711 7.77818,0.70711 1.41421,0 9.19239,-1.06066 9.19239,-1.06066 0,0 6.36396,1.41421 8.48528,1.06066 2.12132,-0.35355 4.59619,-0.70711 8.48528,-0.70711 3.88909,0 5.65685,-0.35355 8.13173,-0.35355 2.47487,0 8.83883,2.12132 8.83883,2.12132 0,0 2.12132,-1.06066 5.3033,-0.70711 3.18198,0.35356 7.07107,0.35356 7.07107,0.35356 0,0 5.3033,-0.70711 7.42462,-0.35356 2.12132,0.35356 7.77818,-1.76776 7.77818,-1.76776 0,0 0,-0.70711 2.82842,-0.70711 2.82843,0 4.5962,-1.06066 6.01041,-2.12132 1.41422,-1.06066 4.94975,-2.82843 4.94975,-2.82843 l -2.12132,-1.76777 -2.47488,-3.18198 -2.12132,-2.47487 2.82843,-4.24264 c 0,0 0.70711,-2.82843 0.70711,-4.24264 0,-1.41421 -1.06066,-6.36396 -1.06066,-6.36396 0,0 -0.70711,-4.24264 -1.06066,-5.65686 -0.35356,-1.41421 -2.12132,-5.3033 -2.12132,-5.3033 l -2.82843,-4.59619 -2.82843,-3.18198 -1.76776,3.53553 -2.82843,2.82843 c 0,0 0.35355,0.70711 -2.47488,1.06066 -2.82842,0.35355 -8.83883,-0.35355 -8.83883,-0.35355 l -4.24264,0.35355 c 0,0 -1.41421,0.35355 -7.77818,0.35355 -6.36396,0 -9.54594,-0.35355 -9.54594,-0.35355 0,0 -2.47487,-0.35355 -5.3033,-0.35355 -2.82843,0 -7.07107,-0.35356 -9.54594,-0.35356 -2.47487,0 -8.83883,0.35356 -8.83883,0.35356 0,0 -3.53554,1.06066 -4.94975,0 -1.41422,-1.06066 -4.24264,-0.70711 -6.71752,-1.06066 -2.47487,-0.35356 -4.59619,0 -7.07106,-0.35356 -2.47488,-0.35355 -6.01041,-0.7071 -6.01041,-0.7071 0,0 -3.88909,0 -5.65686,0 -1.76776,0 -4.59619,-0.70711 -4.59619,-0.70711 0,0 -1.41421,0.35355 -1.76777,-1.06066 -0.35355,-1.41421 0.70711,-2.82843 -0.7071,-2.82843 -1.41422,0 -3.88909,2.47488 -3.88909,4.24264 0,1.76777 -0.70711,2.12132 -1.06066,4.24264 -0.35355,2.12132 -3.18198,6.01041 -3.18198,6.01041 l -2.12132,1.76777 c 0,0 -0.35356,2.12132 -0.35356,3.88909 0,1.76776 0.35356,4.94974 0.35356,4.94974 l 0.35355,4.5962 c 0,0 1.06066,1.06066 0.35355,3.53553 -0.7071,2.47487 -2.12132,5.3033 -2.12132,5.3033 0,0 0,0 0,2.12132 0,2.12132 -0.7071,3.88909 -0.35355,5.65686 0.35355,1.76776 -1.41421,3.53553 -1.41421,3.53553 z"
       id="area_9"
       inkscape:connector-curvature="0"
       transform="translate(-1373.7858,-25.566389)"
       sodipodi:nodetypes="cccccssscssscscscsscccccscscccccsccscsscssscscssssccsccscssc"
       inkscape:label="#path4124" />
    <path
       style="fill:none;stroke:#000000;stroke-width:1px;stroke-linecap:butt;stroke-linejoin:miter;stroke-opacity:1"
       d="m 148.13887,277.73445 12.72792,-1.41421 178.54447,1.76777 9.54594,0.7071 9.89949,0 -0.35355,-39.24442 c 0,0 1.41421,-8.48529 1.41421,-9.8995 0,-1.41421 0.35356,-15.9099 0.35356,-15.9099 l -10.60661,0.35355 -4.59619,6.71752 -6.36396,-1.06066 -151.32085,-2.47488 -6.36396,-1.41421 -9.8995,0.70711 c 0,0 -3.88909,-1.06067 -7.42462,-1.06067 -3.53553,0 -4.59619,0.35356 -4.59619,0.35356 0,0 -2.82843,0 -4.24264,0 -1.41422,0 -12.02082,-2.82843 -12.02082,-2.82843 l -7.77817,30.75915 c 0,0 0,4.94974 -0.35356,6.36396 -0.35355,1.41421 -3.18198,6.71751 -3.18198,9.19239 0,2.47487 -3.88909,11.3137 -3.88909,11.3137 0,0 -0.35355,0.35356 0.70711,1.76777 1.06066,1.41421 19.79899,5.3033 19.79899,5.3033 z"
       id="area_4"
       inkscape:connector-curvature="0"
       transform="translate(-1373.7858,-25.566389)"
       inkscape:label="#path4128" />
    <path
       style="fill:none;stroke:#000000;stroke-width:1px;stroke-linecap:butt;stroke-linejoin:miter;stroke-opacity:1"
       d="m 447.95215,228.94408 189.85817,0.70711 -1.76777,-4.59619 0,-1.06066 8.48528,6.0104 5.65686,22.62742 1.76776,7.77818 3.18198,8.13172 c 0,0 2.47488,0.70711 2.82843,3.53554 0.35355,2.82842 -1.41421,1.41421 -1.06066,3.53553 0.35355,2.12132 -0.35355,2.82843 -2.82843,2.47488 -2.47487,-0.35356 -9.19239,-0.70711 -9.19239,-0.70711 l -4.59619,0.70711 c 0,0 -9.89949,-0.35356 -12.72792,-0.35356 -2.82843,0 -8.13173,0.70711 -10.96016,1.06066 -2.82842,0.35356 -10.96015,0 -10.96015,0 l -159.45258,0 -3.18198,1.76777 -5.65686,-5.65686 -0.7071,-7.42462 0.35355,-7.07106 2.82843,-4.5962 1.76777,-4.94975 -0.35356,-6.71751 -1.76777,-5.3033 -0.7071,-4.94975 z"
       id="area_10"
       inkscape:connector-curvature="0"
       transform="translate(-1373.7858,-25.566389)"
       inkscape:label="#path4130" />
    <path
       style="fill:none;stroke:#000000;stroke-width:1px;stroke-linecap:butt;stroke-linejoin:miter;stroke-opacity:1"
       d="m 150.26019,283.39131 0.70711,4.24264 c 0,0 0,3.88908 -0.35356,5.3033 -0.35355,1.41421 -1.76776,4.59619 -2.12132,6.01041 -0.35355,1.41421 0.35356,4.59619 -0.7071,7.42462 -1.06066,2.82842 -1.76777,4.94974 -1.76777,4.94974 0,0 -0.70711,2.47488 -1.06066,4.24264 -0.35355,1.76777 -2.12132,3.18199 -2.12132,5.65686 0,2.47487 -1.06066,5.3033 -1.06066,7.07107 0,1.76776 -0.35355,3.88908 -0.35355,3.88908 l 1.41421,2.82843 10.96016,0.70711 c 0,0 6.0104,-0.35356 7.77817,-0.35356 1.76777,0 9.89949,-1.06066 9.89949,-1.06066 l 4.24265,-1.06066 8.48528,-2.12132 7.77817,0.70711 117.37973,3.88909 7.42462,1.06066 3.53553,2.82843 22.27387,0.7071 1.76776,-0.7071 7.07107,-49.85103 -9.19239,-0.35356 -5.3033,-1.76776 -3.53553,0.35355 c 0,0 0.7071,-0.70711 -2.47488,0 -3.18198,0.70711 -9.54594,3.53553 -9.54594,3.53553 l -1.41421,1.76777 -1.41421,0.70711 -133.99674,-2.82843 -7.42462,-7.77817 z"
       id="area_5"
       inkscape:connector-curvature="0"
       transform="translate(-1373.7858,-25.566389)"
       inkscape:label="#path4132" />
    <path
       style="fill:none;stroke:#000000;stroke-width:1px;stroke-linecap:butt;stroke-linejoin:miter;stroke-opacity:1"
       d="m 386.0803,285.15907 15.90991,-1.76776 9.89949,1.76776 250.66935,-1.41421 8.13173,4.24264 14.84924,-0.70711 c 0,0 1.76777,1.76777 4.5962,2.12132 2.82843,0.35356 14.49569,1.06066 14.49569,1.06066 l -0.70711,7.42463 -6.36396,2.12132 2.82843,7.77817 c 0,0 0.35355,5.65685 0.7071,6.71751 0.35356,1.06066 2.12132,4.5962 2.12132,6.01041 0,1.41422 -2.12132,3.53554 -1.06066,4.94975 1.06066,1.41421 -1.06066,4.59619 -3.88908,3.53553 -2.82843,-1.06066 -8.48528,-1.41421 -8.48528,-1.41421 l -20.5061,12.37437 -255.26555,-1.41421 c 0,0 -2.47487,1.06066 -4.24264,1.41421 -1.76777,0.35355 -5.3033,0.70711 -7.42462,0.70711 -2.12132,0 -7.42462,-3.18199 -7.42462,-3.18199 l -5.3033,0 c 0,0 -4.24264,-3.53553 -3.88909,-4.94974 0.35355,-1.41422 1.76777,-7.07107 1.41421,-8.48528 -0.35355,-1.41422 -2.47487,-7.07107 -1.76776,-9.19239 0.7071,-2.12132 0.7071,-4.5962 0,-7.42462 -0.70711,-2.82843 -3.18198,-10.60661 -4.24264,-12.02082 -1.06066,-1.41421 -3.88909,-5.65685 -3.18199,-8.13173 0.70711,-2.47487 3.88909,-10.6066 3.88909,-10.6066 z"
       id="area_11"
       inkscape:connector-curvature="0"
       transform="translate(-1373.7858,-25.566389)"
       inkscape:label="#path4134" />
    <text
       xml:space="preserve"
       style="font-size:40px;font-style:normal;font-weight:normal;line-height:125%;letter-spacing:0px;word-spacing:0px;fill:#000000;fill-opacity:1;stroke:none;font-family:Sans"
       x="201"
       y="386"
       id="text4136"
       sodipodi:linespacing="125%"
       transform="translate(-1373.7858,-25.566389)"><tspan
         sodipodi:role="line"
         id="tspan4138"
         x="201"
         y="386">1 6 2 7 3 8 9 4 10 5 11</tspan></text>
  </g>
</svg>
