<?xml version="1.0" encoding="UTF-8" standalone="no"?>
<!-- Created with Inkscape (http://www.inkscape.org/) -->

<svg
   xmlns:dc="http://purl.org/dc/elements/1.1/"
   xmlns:cc="http://creativecommons.org/ns#"
   xmlns:rdf="http://www.w3.org/1999/02/22-rdf-syntax-ns#"
   xmlns:svg="http://www.w3.org/2000/svg"
   xmlns="http://www.w3.org/2000/svg"
   xmlns:xlink="http://www.w3.org/1999/xlink"
   xmlns:sodipodi="http://sodipodi.sourceforge.net/DTD/sodipodi-0.dtd"
   xmlns:inkscape="http://www.inkscape.org/namespaces/inkscape"
   width="794"
   height="533"
   id="svg2"
   version="1.1"
   inkscape:version="0.48.3.1 r9886"
   sodipodi:docname="New document 1">
  <defs
     id="defs4" />
  <sodipodi:namedview
     id="base"
     pagecolor="#ffffff"
     bordercolor="#666666"
     borderopacity="1.0"
     inkscape:pageopacity="0.0"
     inkscape:pageshadow="2"
     inkscape:zoom="0.98994949"
     inkscape:cx="366.77486"
     inkscape:cy="217.3316"
     inkscape:document-units="px"
     inkscape:current-layer="layer1"
     showgrid="false"
     fit-margin-top="0"
     fit-margin-left="0"
     fit-margin-right="0"
     fit-margin-bottom="0"
     inkscape:window-width="1366"
     inkscape:window-height="706"
     inkscape:window-x="-8"
     inkscape:window-y="-8"
     inkscape:window-maximized="1" />
  <metadata
     id="metadata7">
    <rdf:RDF>
      <cc:Work
         rdf:about="">
        <dc:format>image/svg+xml</dc:format>
        <dc:type
           rdf:resource="http://purl.org/dc/dcmitype/StillImage" />
        <dc:title></dc:title>
      </cc:Work>
    </rdf:RDF>
  </metadata>
  <g
     inkscape:label="Layer 1"
     inkscape:groupmode="layer"
     id="layer1"
     transform="translate(22,-265.86218)">
    <image
       y="265.86218"
       x="-22"
       id="image2993"
       xlink:href="file:///C:/Users/Mantas/Desktop/03/Gcri.jpg"
       height="533"
       width="794" />
    <path
       style="fill:none;stroke:#000000;stroke-width:1px;stroke-linecap:butt;stroke-linejoin:miter;stroke-opacity:1"
       d="m 162.38202,13.781591 15.15229,3.535534 c 0,0 14.39467,1.262691 15.9099,1.767767 1.51523,0.505076 12.62691,1.515229 12.62691,1.515229 l 8.5863,0.757614 12.12183,-1.010152 13.13198,-2.77792 16.41498,-2.272843 15.40482,-1.010153 14.39468,-0.505076 22.47589,-1.010152 26.26397,-1.262691 0.50508,13.384521 c 0,0 -1.51523,5.050763 -2.27285,6.060915 -0.75761,1.010153 -3.53553,7.323606 -3.53553,7.323606 l -2.02031,9.848988 c 0,0 -1.26269,7.828682 -1.26269,9.596449 0,1.767767 -0.50507,8.333758 -1.01015,9.343911 -0.50508,1.010153 0.25254,16.667517 0.25254,16.667517 l -3.03046,26.011425 1.01015,11.8693 3.03046,5.05076 0.75762,23.99112 -0.75762,11.61676 -2.0203,3.53553 0.50507,15.9099 -0.25254,12.12183 -0.75761,7.57615 -1.51523,5.05076 3.53553,5.3033 4.79823,3.53553 0.25254,2.77792 -8.08122,-0.50507 -0.50508,5.80837 -6.06091,-1.26269 0,-12.87944 3.78807,-2.02031 c 0,0 0.50507,-3.78807 0.50507,-6.06091 0,-2.27284 1.76777,-7.07107 -0.50507,-8.5863 -2.27285,-1.51523 -2.77792,-3.53553 -2.77792,-3.53553 l -0.25254,-2.77792 -36.11295,-1.76777 -17.42514,0 -23.99112,1.76777 -21.97082,1.01015 -13.13198,1.26269 -9.84899,1.26269 -8.83883,1.51523 -7.82868,2.02031 -6.81853,0.50507 -14.64722,1.51523 -13.13198,0.25254 1.01015,-6.06092 4.29315,-7.57614 3.03046,-8.83883 1.76777,-8.33376 4.29315,-14.14214 2.52538,-7.82868 0.75761,-10.6066 -1.01015,-5.3033 -1.51523,-9.34391 0,-71.215759 0.25254,-22.223356 z"
       id="area_1"
       inkscape:connector-curvature="0"
       transform="translate(-22,265.86218)"
       inkscape:label="#path2996" />
    <path
       style="fill:none;stroke:#000000;stroke-width:1px;stroke-linecap:butt;stroke-linejoin:miter;stroke-opacity:1"
       d="m 328.29958,48.379316 48.23478,0.505076 9.84899,1.010153 7.07107,0.505076 4.54568,-0.757614 4.54569,-1.010153 4.29315,-1.262691 5.55584,0 2.77792,3.030458 5.3033,0 2.77792,-1.262691 43.18402,0 9.59645,-1.767767 5.3033,-0.757614 5.05076,-0.252538 0.50508,11.616754 -0.50508,17.425131 -3.03046,17.425132 0,3.788072 -2.52538,7.07107 -0.25254,8.08122 1.26269,7.3236 1.01016,13.63706 3.03045,10.10153 0.75762,6.81853 c 0,0 2.0203,13.8896 2.27284,15.15229 0.25254,1.26269 2.27285,15.15229 2.27285,15.15229 l -6.566,14.64721 7.32361,1.01015 c 0,0 9.34391,14.14214 8.33376,14.64721 -1.01015,0.50508 -6.81853,3.03046 -7.82868,2.27284 -1.01016,-0.75761 -9.09138,-2.27284 -12.62691,-2.77791 -3.53553,-0.50508 -6.81853,-1.76777 -6.81853,-1.76777 l -7.57614,-0.75762 -18.68783,5.3033 -25.25381,0.50508 -28.03173,-0.50508 -9.09138,-2.0203 -6.81853,0.25254 -9.59644,3.03046 -15.90991,0.50507 -7.07107,-1.26269 -1.26269,-1.51523 -6.31345,0.75762 -6.31345,0 -5.05077,-1.76777 -2.0203,-3.03046 6.31345,-4.54568 4.54569,-3.53554 0.25254,-13.13198 -0.25254,-3.78807 0.50508,-8.83884 2.77791,-14.39467 c 0,0 3.283,-25.00128 2.02031,-26.01143 -1.26269,-1.01015 3.283,-7.82868 3.283,-7.82868 l -3.78808,-9.84899 -2.52538,-7.07107 -0.75761,-5.80837 -1.76777,-2.27285 -0.25254,-4.545684 -7.07106,-35.102801 z"
       id="area_2"
       inkscape:connector-curvature="0"
       transform="translate(-22,265.86218)"
       inkscape:label="#path2998" />
    <path
       style="fill:none;stroke:#000000;stroke-width:1px;stroke-linecap:butt;stroke-linejoin:miter;stroke-opacity:1"
       d="m 488.15622,50.652159 7.07107,4.545687 21.97081,1.26269 c 0,0 19.95052,-1.767767 21.21321,-1.26269 1.26269,0.505076 58.08377,1.010152 58.08377,1.010152 l 23.99112,-0.252538 13.63706,-1.767767 11.86929,-1.767767 1.76777,18.182746 -0.75761,22.728432 -1.26269,13.131986 -2.02031,8.58629 -2.27284,7.32361 0.50507,4.54569 1.76777,7.3236 2.02031,17.42513 3.78807,16.16244 1.01015,5.80838 5.55584,6.31346 4.79822,7.3236 2.27285,5.3033 2.27284,3.03046 -4.79822,1.26269 -8.5863,2.27284 -52.2754,0.75762 -11.86929,1.51523 c 0,0 -34.34518,0.50507 -35.35534,0.50507 -1.01015,0 -32.32488,-2.77792 -32.32488,-2.77792 l -19.44544,-2.27284 -9.34391,-1.26269 -5.80837,-1.76777 7.07106,-15.15229 2.77792,-7.57614 3.283,-4.04061 0,-7.32361 -1.01015,-4.04061 -2.52538,-21.2132 -3.03046,-30.05204 -1.76777,-2.77792 1.51523,-21.970815 -1.01015,-8.333759 -3.53554,-4.293148 -1.01015,-16.667517 z"
       id="area_3"
       inkscape:connector-curvature="0"
       transform="translate(-22,265.86218)"
       inkscape:label="#path3000" />
    <path
       style="fill:none;stroke:#000000;stroke-width:1px;stroke-linecap:butt;stroke-linejoin:miter;stroke-opacity:1"
       d="m 135.86552,195.35651 8.58629,0.75762 c 0,0 34.09265,-3.283 35.35534,-3.283 1.26269,0 12.37437,-2.52538 12.37437,-2.52538 l 14.39468,-1.51523 20.70812,-1.51523 17.42513,-1.26269 19.1929,-1.26269 11.61676,-0.25254 14.14213,0 19.95052,1.76777 6.81853,0.25254 2.52538,4.29314 3.03045,2.77792 -3.03045,14.39468 -2.52538,1.26269 0.50507,12.62691 -2.27284,2.27284 1.26269,9.59645 -1.01015,3.53553 -5.55584,7.32361 -1.76777,4.54568 -1.76777,5.05077 -1.01015,8.83883 2.52538,5.55584 1.76777,11.11168 1.76777,14.39467 2.52538,11.11168 5.05076,15.9099 4.29315,13.38452 c 0,0 1.01015,9.84899 1.01015,10.85914 0,1.01016 1.01015,13.38453 1.01015,13.38453 l -2.27284,7.57614 -0.50508,5.55584 -132.32998,-0.50508 -9.34391,-2.77792 -18.18275,-3.78807 -14.89975,-4.79822 -12.12183,-2.77792 -10.10152,-2.02031 -7.82868,-2.0203 -2.77792,0 0.25253,-3.53554 1.51523,-4.79822 2.27285,-1.51523 2.0203,-8.08122 3.283,-11.11168 4.54568,-7.57614 2.27285,-4.54569 1.26269,-4.29315 2.27284,-34.85026 2.52538,-8.5863 1.76777,-22.98097 1.01015,-7.82868 -3.28299,-6.31345 -0.75762,-3.78808 z"
       id="area_6"
       inkscape:connector-curvature="0"
       transform="translate(-22,265.86218)"
       inkscape:label="#path3002" />
    <path
       style="fill:none;stroke:#000000;stroke-width:1px;stroke-linecap:butt;stroke-linejoin:miter;stroke-opacity:1"
       d="m 324.00643,217.32733 23.48605,1.26269 13.13198,0.50508 15.15229,1.01015 11.61675,0.50508 12.87945,1.01015 16.16244,0.75761 7.07107,1.01015 10.6066,-0.50507 7.57614,1.01015 7.57615,1.26269 8.83883,1.26269 7.07107,0.75762 2.52538,0.25253 14.89975,-5.3033 2.77792,1.76777 2.77792,3.53553 0.50507,2.77792 -3.03045,4.04061 -1.76777,5.55584 -2.02031,5.3033 -1.76776,2.27285 3.28299,16.92005 4.29315,15.40483 1.26269,17.42513 3.03046,22.98097 0.75761,13.63706 -1.26269,6.56599 0.50508,2.52538 5.05076,-0.50507 3.03046,4.54568 2.52538,4.04061 3.53554,0.75762 2.0203,6.81853 0.25254,2.0203 -9.59645,0.50508 c 0,0 -15.40483,2.77792 -17.17259,2.77792 -1.76777,0 -14.39468,1.76777 -14.39468,1.76777 l -20.96066,1.01015 -20.70813,0.75761 -24.74874,0.25254 -8.58629,1.76777 -7.82869,1.51523 -28.28427,0.75761 -14.89975,1.01015 -15.40482,-0.25253 -4.04061,-1.01016 4.29314,-18.18274 4.54569,-9.59645 0,-7.57615 3.03046,-7.3236 -1.26269,-2.77792 -0.25254,-5.05076 c 0,0 -1.01015,-13.8896 -1.01015,-14.89975 0,-1.01016 -0.75762,-11.11168 -0.75762,-11.11168 l -0.25254,-8.08122 1.01016,-13.63706 -1.26269,-41.41626 c 0,0 -1.26269,-5.05076 -2.27285,-5.05076 -1.01015,0 -1.01015,-2.77792 -2.52538,-3.03046 -1.51523,-0.25254 -3.03046,-0.50507 -3.03046,-0.50507 l 0.25254,-5.80838 z"
       id="area_5"
       inkscape:connector-curvature="0"
       transform="translate(-22,265.86218)"
       inkscape:label="#path3004" />
    <path
       style="fill:none;stroke:#000000;stroke-width:1px;stroke-linecap:butt;stroke-linejoin:miter;stroke-opacity:1"
       d="m 498.51028,212.02403 17.42513,0 18.43529,0.25254 6.56599,-0.25254 4.54569,0 6.81852,0.25254 4.54569,0.75761 5.05076,0.25254 3.53554,0 2.77792,1.26269 4.54568,-1.51523 3.78808,0 9.84898,-1.26269 16.66752,0 15.9099,-1.01015 12.87945,-0.75762 1.26269,10.60661 -2.02031,10.6066 -0.50507,5.3033 2.0203,6.31345 1.51523,5.55584 3.283,17.42513 2.0203,18.68782 4.79823,19.1929 5.55584,23.48605 2.27284,10.35406 0.75761,4.04061 0.25254,2.27285 -0.25254,2.0203 6.06092,1.01015 4.29315,1.76777 4.29315,2.77792 2.77791,2.0203 -9.34391,4.54569 c 0,0 -3.53553,2.02031 -4.54568,2.27284 -1.01016,0.25254 -3.53554,2.27285 -3.53554,2.27285 l -5.05076,2.52538 -6.81853,0 -12.37437,1.26269 -19.44543,1.26269 -6.31346,0.25254 -10.6066,0.25254 -8.5863,0 -10.6066,0.50507 -11.36421,1.26269 c 0,0 -7.32361,0.50508 -8.33376,0.50508 -1.01016,0 -11.36422,0.75761 -11.36422,0.75761 l -11.61675,0.75762 -13.63706,0.25254 -3.78807,0.25254 -4.54569,2.0203 -4.54569,-0.25254 -2.27284,-1.76776 1.26269,-4.54569 3.53553,-3.78807 1.01016,-3.53554 2.77792,0 -4.04061,-9.84898 0.50507,-4.54569 0,-4.29315 1.76777,-3.283 0.50508,-5.3033 c 0,0 1.51522,-26.5165 -1.01016,-28.03173 -2.52538,-1.51523 -2.27284,-3.03046 -2.52538,-4.29315 -0.25254,-1.26269 -1.01015,-8.08122 -1.01015,-8.08122 l -0.25254,-9.09137 1.51523,-5.05076 c 0,0 0.75761,-9.59645 -1.26269,-9.59645 -2.02031,0 -1.26269,-11.8693 -1.26269,-11.8693 0,0 0,-3.53553 -0.75762,-5.05076 -0.75761,-1.51523 0,-11.11168 0,-11.11168 l -4.29314,-2.27284 c 0,0 0.75761,-9.34391 -0.25254,-9.34391 -1.01016,0 -2.27285,-4.04061 -2.27285,-4.04061 l -1.76776,-4.29315 0.50507,-8.08122 5.3033,-1.26269 0.50508,0.75761 z"
       id="area_4"
       inkscape:connector-curvature="0"
       transform="translate(-22,265.86218)"
       inkscape:label="#path3006" />
    <text
       xml:space="preserve"
       style="font-size:40px;font-style:normal;font-weight:normal;line-height:125%;letter-spacing:0px;word-spacing:0px;fill:#000000;fill-opacity:1;stroke:none;font-family:Sans"
       x="58.588848"
       y="431.98474"
       id="navigation"
       sodipodi:linespacing="125%"
       transform="translate(-22,265.86218)"
       inkscape:label="#text3008"><tspan
         sodipodi:role="line"
         id="tspan3010"
         x="58.588848"
         y="431.98474">1 2 3 6 5 4</tspan></text>
  </g>
</svg>
