<?xml version="1.0" encoding="UTF-8" standalone="no"?>
<!-- Created with Inkscape (http://www.inkscape.org/) -->

<svg
   xmlns:dc="http://purl.org/dc/elements/1.1/"
   xmlns:cc="http://creativecommons.org/ns#"
   xmlns:rdf="http://www.w3.org/1999/02/22-rdf-syntax-ns#"
   xmlns:svg="http://www.w3.org/2000/svg"
   xmlns="http://www.w3.org/2000/svg"
   xmlns:xlink="http://www.w3.org/1999/xlink"
   xmlns:sodipodi="http://sodipodi.sourceforge.net/DTD/sodipodi-0.dtd"
   xmlns:inkscape="http://www.inkscape.org/namespaces/inkscape"
   width="800"
   height="533"
   id="svg2"
   version="1.1"
   inkscape:version="0.48.3.1 r9886"
   sodipodi:docname="New document 1">
  <defs
     id="defs4" />
  <sodipodi:namedview
     id="base"
     pagecolor="#ffffff"
     bordercolor="#666666"
     borderopacity="1.0"
     inkscape:pageopacity="0.0"
     inkscape:pageshadow="2"
     inkscape:zoom="0.49497475"
     inkscape:cx="920.01955"
     inkscape:cy="115.37945"
     inkscape:document-units="px"
     inkscape:current-layer="layer1"
     showgrid="false"
     inkscape:window-width="1366"
     inkscape:window-height="706"
     inkscape:window-x="-8"
     inkscape:window-y="-8"
     inkscape:window-maximized="1"
     fit-margin-top="0"
     fit-margin-left="0"
     fit-margin-right="0"
     fit-margin-bottom="0" />
  <metadata
     id="metadata7">
    <rdf:RDF>
      <cc:Work
         rdf:about="">
        <dc:format>image/svg+xml</dc:format>
        <dc:type
           rdf:resource="http://purl.org/dc/dcmitype/StillImage" />
        <dc:title></dc:title>
      </cc:Work>
    </rdf:RDF>
  </metadata>
  <g
     inkscape:label="Layer 1"
     inkscape:groupmode="layer"
     id="layer1"
     transform="translate(25,-265.86218)">
    <image
       y="265.86218"
       x="-25"
       id="image2993"
       xlink:href="file:///C:/Users/Mantas/Desktop/03/Gcri2.jpg"
       height="533"
       width="800" />
    <path
       style="fill:none;stroke:#000000;stroke-width:1px;stroke-linecap:butt;stroke-linejoin:miter;stroke-opacity:1"
       d="m 38.571429,49.428571 14.285714,-5 12.857143,-2.142857 c 0,0 4.491316,-0.724928 7.016697,0.285225 2.525382,1.010153 8.586297,2.525381 8.586297,2.525381 l 13.131983,-6.565991 12.626907,-1.010153 11.11168,2.020305 12.6269,3.535534 18.68783,6.060916 4.54568,6.060915 -1.51523,7.071068 -0.50507,6.060915 c 0,0 -2.02031,27.779195 -2.02031,29.7995 0,2.020301 -4.04061,6.565991 -4.04061,6.565991 l 0,12.12183 -1.01015,12.12183 2.02031,10.6066 2.52538,13.13199 -0.50508,8.58629 7.07107,10.10153 1.01015,6.06091 0,2.02031 -127.27922,-3.53553 -13.637059,-2.52539 -8.5862969,1.01016 -2.5253814,-2.02031 0,-9.59645 8.0812203,-8.58629 8.08122,-9.59645 0.505077,-15.15229 3.030457,-15.15229 5.555839,-20.203051 1.515229,-17.67767 4.545687,-16.667517 z"
       id="area_1"
       inkscape:connector-curvature="0"
       transform="translate(-25,265.86218)"
       inkscape:label="#path2996" />
    <path
       style="fill:none;stroke:#000000;stroke-width:1px;stroke-linecap:butt;stroke-linejoin:miter;stroke-opacity:1"
       d="m 182.83761,175.91108 6.56599,-17.1726 5.05077,-20.70813 5.55583,-11.11167 0.50508,-14.14214 1.01015,-28.28427 -1.01015,-10.101526 -2.52538,-7.071068 -1.01015,-9.596449 17.17259,-9.596449 20.70813,-7.576144 17.17259,-3.030458 16.66752,0.505077 10.6066,6.060915 12.62691,10.101525 2.0203,5.050763 0,10.606602 -1.51523,7.071068 2.52538,7.071067 1.01016,21.718277 5.55583,15.15229 1.01016,9.59645 3.53553,13.63706 3.53554,14.14214 6.06091,10.6066 2.02031,3.53553 -14.64722,3.03046 c 0,0 -10.6066,-0.50508 -14.14213,-0.50508 -3.53554,0 -0.50508,0 -5.55584,0 -5.05076,0 -6.06092,-2.0203 -9.59645,0 -3.53553,2.02031 -5.55584,2.52538 -7.57614,2.52538 -2.02031,0 -20.70813,-4.54568 -20.70813,-4.54568 l -2.02031,-1.01016 -6.06091,2.02031 -8.5863,0.50508 -29.29442,3.03045 -11.11168,2.02031 z"
       id="area_2"
       inkscape:connector-curvature="0"
       transform="translate(-25,265.86218)"
       inkscape:label="#path2998" />
    <path
       style="fill:none;stroke:#000000;stroke-width:1px;stroke-linecap:butt;stroke-linejoin:miter;stroke-opacity:1"
       d="m 353.55339,175.91108 c 3.53553,-0.50508 16.16244,0.50507 16.16244,0.50507 l 19.1929,1.51523 11.61675,0 24.74874,-2.52538 25.75889,-1.01015 29.29443,0.50507 14.14213,2.52538 4.04061,-4.54568 0,-5.55584 -8.08122,-9.59645 -7.07107,-9.09137 -3.53553,-3.03046 -2.52538,-18.68782 -4.04061,-17.67767 -3.03046,-14.142139 -2.52538,-7.071067 -2.52538,-24.243662 -3.53554,-8.08122 -3.03045,-3.535534 2.52538,-5.050763 -11.61676,-9.596449 -14.64721,-6.060915 -16.66752,-4.545686 -16.16244,-0.505077 -12.12183,1.010153 -11.11168,0 -8.08122,1.515229 -21.2132,6.060915 -6.06091,0.505076 2.0203,7.071068 c 0,0 -0.50508,5.555839 0.50508,7.576144 1.01015,2.020305 3.03045,12.626907 3.03045,12.626907 l 2.02031,13.131983 2.0203,14.142136 0.50508,13.131981 1.51523,13.63706 -0.50508,14.64721 -1.01015,13.63706 -2.0203,23.73859 z"
       id="area_3"
       inkscape:connector-curvature="0"
       transform="translate(-25,265.86218)"
       inkscape:label="#path3000" />
    <path
       style="fill:none;stroke:#000000;stroke-width:1px;stroke-linecap:butt;stroke-linejoin:miter;stroke-opacity:1"
       d="m 552.55344,55.702922 c 5.55584,0 19.1929,-7.576144 19.1929,-7.576144 0,0 8.5863,-4.545686 11.11168,-5.050763 2.52538,-0.505076 12.62691,-5.555839 12.62691,-5.555839 l 5.55583,-3.535534 c 0,0 4.54569,0.505077 8.08123,2.525382 3.53553,2.020305 10.6066,4.545686 10.6066,4.545686 0,0 7.07106,1.010153 9.59645,2.525382 2.52538,1.515228 9.09137,5.555839 9.09137,5.555839 l 7.57614,1.010152 3.03046,0.505076 -2.52538,12.626907 -2.02031,12.626907 -2.0203,9.091373 -3.53553,4.04061 -1.51523,14.647214 -0.50508,9.09137 -3.03046,5.55584 -1.51523,7.07107 3.03046,9.59645 0,7.07106 -6.06091,5.55584 -2.52539,4.04061 2.52539,5.05077 7.07106,6.56599 4.04061,8.58629 -1.51522,3.53554 -13.63706,2.52538 -14.14214,0.50508 -8.5863,-1.01016 -9.59645,1.01016 -10.6066,2.52538 c 0,0 -13.13198,-0.50508 -16.66751,1.01015 -3.53554,1.51523 -9.59645,2.02031 -9.59645,2.02031 l -8.5863,-5.55584 -3.03046,-2.02031 -4.54568,1.51523 -3.53554,4.04061 -21.2132,-5.05076 -5.05076,-1.01015 6.56599,-6.06092 10.10152,-26.76904 7.57615,-17.1726 6.06091,-21.2132 4.54569,-14.142135 3.53553,-12.121831 z"
       id="area_4"
       inkscape:connector-curvature="0"
       transform="translate(-25,265.86218)"
       inkscape:label="#path3002" />
    <path
       style="fill:none;stroke:#000000;stroke-width:1px;stroke-linecap:butt;stroke-linejoin:miter;stroke-opacity:1"
       d="m 658.11438,179.44661 c 0,0 7.07107,-0.50508 10.60661,-1.01015 3.53553,-0.50508 9.59644,-3.03046 13.13198,-3.03046 3.53553,0 16.16244,0 16.16244,0 0,0 6.56599,2.52538 10.6066,2.52538 4.04061,0 4.04061,-1.01015 12.12183,-1.01015 8.08122,0 9.09137,1.01015 14.64721,0 5.55584,-1.01015 19.1929,0.50507 22.72844,0 3.53553,-0.50508 2.52538,-3.53554 8.58629,-3.53554 6.06092,0 9.59645,0.50508 11.61676,1.51523 2.0203,1.01016 9.59645,2.02031 9.59645,2.02031 l 5.55583,-1.01015 -1.51522,-22.22336 -14.14214,-18.18275 -7.07107,-4.54568 c 0,0 1.51523,-17.67767 4.04061,-20.70813 2.52538,-3.03046 2.52538,-22.728433 2.52538,-22.728433 0,0 2.02031,-21.718279 2.02031,-25.253813 0,-3.535534 0,-16.162441 0,-16.162441 l -2.02031,-17.67767 -5.55583,-1.515228 -22.22336,2.525381 -25.25381,4.04061 -14.64722,3.535534 -24.24366,7.071068 -8.58629,2.525381 0.50507,14.142136 1.01015,14.142135 -0.50507,10.606602 0,12.121831 -1.01015,17.172597 0,8.58629 -0.50508,2.52538 -3.53553,3.03046 -2.02031,9.59645 -1.51523,10.10153 -0.50507,6.06091 -6.566,10.6066 -6.06091,9.59645 z"
       id="area_5"
       inkscape:connector-curvature="0"
       transform="translate(-25,265.86218)"
       inkscape:label="#path3004" />
    <path
       style="fill:none;stroke:#000000;stroke-width:1px;stroke-linecap:butt;stroke-linejoin:miter;stroke-opacity:1"
       d="m 35.860415,305.2106 4.040611,2.52538 8.08122,-8.58629 c 0,0 3.030458,-6.566 5.050763,-6.566 2.020305,0 7.576144,-3.53553 12.12183,-3.53553 4.545687,0 12.626907,3.03046 12.626907,3.03046 l 12.121831,2.52538 6.060915,7.57614 6.565988,1.01016 9.59645,0 c 0,0 4.04061,-2.02031 6.06092,-2.02031 2.0203,0 8.08122,1.51523 8.08122,1.51523 l 5.05076,9.59645 4.54569,7.07107 5.05076,59.599 3.53553,25.25381 2.02031,6.56599 -2.52538,5.05076 9.09137,5.05077 3.53553,8.58629 3.53554,7.57615 4.04061,7.57614 c 0,0 0.50507,4.04061 0,6.06092 -0.50508,2.0203 -5.55584,2.52538 -5.55584,2.52538 l -67.175145,-0.50508 -13.131983,-0.50507 -6.565991,2.0203 -21.213204,-3.53553 -12.12183,-2.52538 -4.04061,-0.50508 -3.535534,7.07107 -10.101526,-0.50508 0,-8.08122 13.131983,-27.77919 0.505077,-24.74874 -0.505077,-30.30458 0,-15.15229 0.505077,-18.18274 -4.040611,-7.57615 -3.030457,-9.09137 z"
       id="area_6"
       inkscape:connector-curvature="0"
       transform="translate(-25,265.86218)"
       inkscape:label="#path3008" />
    <path
       style="fill:none;stroke:#000000;stroke-width:1px;stroke-linecap:butt;stroke-linejoin:miter;stroke-opacity:1"
       d="m 187.3833,309.25121 c 4.04061,-1.01015 17.67767,-3.53553 17.67767,-3.53553 0,0 7.07106,-1.51523 9.59645,-3.03046 2.52538,-1.51523 9.59645,-5.05076 9.59645,-5.05076 l 11.61675,-6.06092 6.06091,-1.01015 7.07107,-0.50508 7.57615,2.02031 8.08122,7.07107 5.55584,6.06091 10.10152,4.04061 8.5863,6.56599 7.07107,4.54569 -1.01016,5.55584 3.53554,9.09137 1.51523,15.15229 2.52538,19.1929 4.04061,16.66751 6.06091,14.64722 2.52538,11.61675 5.55584,20.20305 3.53554,10.6066 -0.50508,7.07107 -10.6066,-6.56599 -14.14214,-3.03046 c 0,0 -1.51523,0 -6.56599,0.50508 -5.05076,0.50507 -17.67767,-0.50508 -17.67767,-0.50508 0,0 -14.64721,3.03046 -16.66751,3.03046 -2.02031,0 -10.10153,1.01015 -10.10153,1.01015 l -37.37564,-1.01015 -16.66752,-3.03046 -5.55584,0 -4.54569,-6.56599 c 0,0 2.52538,-5.05076 2.52538,-9.09137 0,-4.04061 2.02031,-16.66752 2.02031,-16.66752 l 5.05076,-9.59645 2.52538,-9.09137 -2.52538,-25.25382 0,-5.55583 1.51523,-8.5863 -0.50507,-18.18275 -3.53554,-6.56599 -4.04061,-9.59645 z"
       id="area_7"
       inkscape:connector-curvature="0"
       transform="translate(-25,265.86218)"
       inkscape:label="#path3012" />
    <path
       style="fill:none;stroke:#000000;stroke-width:1px;stroke-linecap:butt;stroke-linejoin:miter;stroke-opacity:1"
       d="m 340.92648,456.73348 11.11168,-8.08122 9.09138,-1.01015 8.08122,-1.01015 17.67767,-4.04061 12.6269,0.50507 10.10153,2.02031 11.61675,-4.54569 11.11168,2.52538 c 0,0 11.61675,-1.51523 13.63706,-2.0203 2.0203,-0.50508 13.63706,-1.51523 16.16244,-1.51523 2.52538,0 17.67767,0 20.20305,0 2.52538,0 14.14214,-0.50508 14.14214,-0.50508 l 2.52538,-4.04061 -2.02031,-8.58629 -17.67767,-27.7792 1.51523,-10.6066 -6.06091,-11.11168 -2.52538,-8.58629 0.50507,-11.61676 1.51523,-11.61675 -4.54569,-9.09138 -1.51522,-11.11167 4.04061,-9.59645 5.05076,-15.15229 -2.52538,-10.6066 -8.5863,-4.54569 -20.70813,-9.09137 -9.59645,-4.54569 -7.07106,-2.52538 -8.08122,-3.03046 -7.57615,-1.01015 -8.5863,0 -8.08122,1.01015 -8.08122,6.56599 -7.07106,8.08122 -7.57615,7.57615 -5.05076,6.56599 0.50508,32.82996 -5.05077,4.04061 -1.51523,21.2132 -2.52538,17.17259 -2.0203,18.18275 -2.02031,12.62691 1.51523,11.11167 -3.53553,7.07107 -6.06092,9.59645 -5.55584,10.10153 -5.55584,9.59645 0.50508,6.06091 z"
       id="area_8"
       inkscape:connector-curvature="0"
       transform="translate(-25,265.86218)"
       inkscape:label="#path3014" />
    <path
       style="fill:none;stroke:#000000;stroke-width:1px;stroke-linecap:butt;stroke-linejoin:miter;stroke-opacity:1"
       d="m 508.10673,450.67257 11.61675,-5.55584 10.60661,-4.54569 13.13198,-2.52538 c 0,0 11.11168,-1.01015 13.13198,-1.01015 2.02031,0 7.07107,0 7.07107,0 l 5.55584,-6.06092 9.59645,4.04061 8.5863,1.51523 19.19289,3.53554 14.64722,2.0203 c 0,0 24.74873,-1.01015 26.76904,-1.01015 2.0203,0 3.53553,-5.05076 3.53553,-5.05076 l -3.53553,-6.06092 -4.04061,-8.5863 -11.11168,-22.22335 -4.54569,-9.09138 1.01016,-11.11167 -8.5863,-24.74874 1.01015,-20.70813 -3.03046,-7.57614 4.04061,-17.1726 3.53554,-8.58629 -6.06092,-5.05076 -11.61675,-5.05077 -9.59645,0 -3.03046,1.01016 -1.51523,-4.54569 -2.52538,-2.02031 -7.57614,0 -0.50508,-4.54568 -9.09137,-3.53554 -12.12183,-1.01015 -6.06092,3.03046 -8.58629,8.5863 -6.566,6.06091 -5.05076,8.5863 -8.08122,-7.57615 -4.54568,6.56599 -1.51523,10.10153 1.51523,11.61675 -0.50508,16.66752 0.50508,11.11168 3.03045,10.6066 2.52538,5.55584 -7.07106,11.11168 -3.53554,20.20305 -2.52538,16.16244 -0.50508,6.56599 -4.04061,4.04061 -3.03045,13.63706 -2.52538,10.10153 z"
       id="area_9"
       inkscape:connector-curvature="0"
       transform="translate(-25,265.86218)"
       inkscape:label="#path3016" />
    <path
       style="fill:none;stroke:#000000;stroke-width:1px;stroke-linecap:butt;stroke-linejoin:miter;stroke-opacity:1"
       d="m 659.12454,317.33243 12.6269,-4.04061 6.06092,-9.09137 4.54568,-10.10153 4.54569,-5.05076 18.68782,2.52538 23.23351,1.01015 18.68782,1.01016 9.59645,-1.01016 -1.51523,14.64722 -2.0203,14.64721 -0.50508,12.12183 4.04061,15.15229 2.52538,13.13198 5.05077,16.16244 6.06091,18.68782 12.62691,23.23351 7.07107,13.63706 1.51523,4.04061 -10.60661,4.54569 -11.61675,5.05076 -16.66752,2.52538 -14.14213,2.52538 -8.5863,1.01016 -6.06091,0 -7.57615,-4.04062 -2.52538,-1.01015 -9.09137,0 -7.57615,2.52538 -10.6066,3.53554 -7.07107,2.0203 -9.59645,0 -4.54568,-4.04061 3.03046,-26.26396 1.01015,-24.74874 -3.53554,-39.90103 -2.52538,-21.2132 -5.05076,-16.66752 -2.02031,-6.06091 z"
       id="area_10"
       inkscape:connector-curvature="0"
       transform="translate(-25,265.86218)"
       inkscape:label="#path3018" />
    <text
       xml:space="preserve"
       style="font-size:40px;font-style:normal;font-weight:normal;line-height:125%;letter-spacing:0px;word-spacing:0px;fill:#000000;fill-opacity:1;stroke:none;font-family:Sans"
       x="179.80714"
       y="209.75119"
       id="navigation"
       sodipodi:linespacing="125%"
       transform="translate(-25,265.86218)"
       inkscape:label="#text3020"><tspan
         sodipodi:role="line"
         id="tspan3022"
         x="179.80714"
         y="209.75119">1 2 3 4 5 6 7 8 9 10</tspan></text>
  </g>
</svg>
