<?xml version="1.0" encoding="UTF-8" standalone="no"?>
<!-- Created with Inkscape (http://www.inkscape.org/) -->

<svg
   xmlns:dc="http://purl.org/dc/elements/1.1/"
   xmlns:cc="http://creativecommons.org/ns#"
   xmlns:rdf="http://www.w3.org/1999/02/22-rdf-syntax-ns#"
   xmlns:svg="http://www.w3.org/2000/svg"
   xmlns="http://www.w3.org/2000/svg"
   xmlns:xlink="http://www.w3.org/1999/xlink"
   xmlns:sodipodi="http://sodipodi.sourceforge.net/DTD/sodipodi-0.dtd"
   xmlns:inkscape="http://www.inkscape.org/namespaces/inkscape"
   width="800"
   height="533"
   id="svg2"
   version="1.1"
   inkscape:version="0.48.3.1 r9886"
   sodipodi:docname="New document 1">
  <defs
     id="defs4" />
  <sodipodi:namedview
     id="base"
     pagecolor="#ffffff"
     bordercolor="#666666"
     borderopacity="1.0"
     inkscape:pageopacity="0.0"
     inkscape:pageshadow="2"
     inkscape:zoom="0.98994949"
     inkscape:cx="605.10114"
     inkscape:cy="315.48258"
     inkscape:document-units="px"
     inkscape:current-layer="layer1"
     showgrid="false"
     fit-margin-top="0"
     fit-margin-left="0"
     fit-margin-right="0"
     fit-margin-bottom="0"
     inkscape:window-width="1366"
     inkscape:window-height="706"
     inkscape:window-x="-8"
     inkscape:window-y="-8"
     inkscape:window-maximized="1" />
  <metadata
     id="metadata7">
    <rdf:RDF>
      <cc:Work
         rdf:about="">
        <dc:format>image/svg+xml</dc:format>
        <dc:type
           rdf:resource="http://purl.org/dc/dcmitype/StillImage" />
        <dc:title></dc:title>
      </cc:Work>
    </rdf:RDF>
  </metadata>
  <g
     inkscape:label="Layer 1"
     inkscape:groupmode="layer"
     id="layer1"
     transform="translate(25,-265.86218)">
    <image
       y="265.86218"
       x="-25"
       id="image2993"
       xlink:href="file:///C:/Users/Mantas/Desktop/03/Gcri1.jpg"
       height="533"
       width="800" />
    <path
       style="fill:none;stroke:#000000;stroke-width:1px;stroke-linecap:butt;stroke-linejoin:miter;stroke-opacity:1"
       d="m 47.857143,48.714285 12.857143,-14.642857 5.714286,-4.285715 c 0,0 2.678571,-2.678571 3.928571,-2.5 1.25,0.178572 6.428571,0.357143 6.428571,0.357143 l 8.392858,0.892857 3.75,1.785715 5.357142,2.321428 6.964286,1.607143 c 0,0 3.39286,0.892857 4.10714,1.25 0.71429,0.357143 5.17857,1.25 5.17857,1.25 l 6.78572,1.964286 6.96428,1.785714 5.71429,1.607143 4.28571,0.357143 1.42858,4.642857 c 0,0 0.71428,7.5 0.17857,8.928571 -0.53572,1.428572 -2.67857,7.142857 -2.67857,7.142857 0,0 -1.25,4.464286 -1.60715,5.892858 -0.35714,1.428571 -1.96428,4.285714 -2.14285,5.892857 -0.17858,1.607143 0,5.357143 0,5.357143 0,0 1.25,3.035714 -0.35715,4.285714 -1.60714,1.25 -4.46428,5.892857 -4.46428,5.892857 l 0.89285,4.285714 1.78572,3.571429 -1.25,4.821428 -1.96429,2.5 2.5,5.89286 2.5,5.71428 1.42857,7.32143 1.42858,9.46429 2.14285,5.35714 1.25,6.96429 2.14286,9.64285 4.10714,13.39286 2.67857,7.14286 0,6.42857 -0.35714,3.39286 -11.96428,-0.35715 -5.71429,-0.89285 -11.25,-0.53572 -6.78571,-0.89286 -6.25,-0.17857 -6.250004,-0.17857 -2.5,0 -1.428572,-2.32143 -7.857142,0.53572 -6.964286,0.89285 -3.571429,1.42858 -2.678571,1.96428 -4.464286,0.71429 -5,0.35714 -7.5,0.53571 -12.678571,0.17858 -2.5,-0.17858 -4.642857,2.85715 -3.214286,1.78571 c 0,0 -3.571429,0.53572 -4.464286,0.53572 -0.892857,0 -7.321429,-0.53572 -7.321429,-0.53572 l -4.464285,-0.17857 -1.607143,0 -3.3928573,1.42857 -2.3214285,0 0.1785714,-3.39286 1.6071428,-1.60714 0.5357143,-3.39286 0.3571429,-2.5 1.2500004,-6.25 1.607142,-5.71428 4.285715,-11.42857 5.714285,-15.89286 7.857143,-21.78571 2.321429,-9.28572 3.214286,-10.53571 L 38.75,84.785713 40,67.464285 c 0,0 1.607143,-6.964286 1.785714,-7.678572 0.178572,-0.714285 2.142858,-5.892857 2.142858,-5.892857 l 1.607142,-3.75 z"
       id="area_1"
       inkscape:connector-curvature="0"
       transform="translate(-25,265.86218)"
       inkscape:label="#path2996" />
    <path
       style="fill:none;stroke:#000000;stroke-width:1px;stroke-linecap:butt;stroke-linejoin:miter;stroke-opacity:1"
       d="m 199.28571,64.964285 c 0.71429,0 8.57143,-4.642857 8.57143,-4.642857 l 8.03572,-4.464286 6.25,-3.571429 5.53571,-2.678571 6.07143,-3.214286 3.92857,-3.035714 4.82143,-1.785714 3.92857,-0.714286 4.46429,-1.25 7.32143,-0.535714 8.39285,0.535714 5.53572,0.535714 6.25,0.892857 3.92857,0.357143 8.92857,3.392857 10.17857,3.75 7.32143,2.142857 3.21429,1.607143 -0.53572,10.357143 -1.07143,7.5 -2.32143,5.357143 -2.67857,6.428571 -1.42857,1.964286 -0.71428,21.785714 -1.25,3.92857 c 0,0 0.17857,7.32143 0,8.39286 -0.17858,1.07143 -0.17858,13.75 -0.17858,13.75 l 0.89286,7.32143 1.60714,9.82143 3.57143,13.75 0,5.53571 -0.35714,2.67857 -1.07143,2.5 2.67857,3.75 1.96429,3.21429 0.35714,3.92857 0,1.42857 -39.82143,-1.25 -20.35714,-1.96429 -13.92857,-1.42857 -11.25,0.53572 -8.21429,3.39285 -13.03571,3.57143 -11.96429,2.67857 -8.21428,0.71429 -11.96429,0.35714 -8.75,-0.35714 2.85714,-5.89286 3.39286,-5.53571 2.67857,-5.89286 3.21429,-7.32143 1.60714,-5.89285 1.42857,-6.78572 2.67857,-10.89286 2.14286,-9.64285 5.17857,-12.14286 3.03572,-7.67857 1.96428,-8.21429 1.78572,-8.392854 0.71428,-10 0.71429,-12.857143 0.71428,-9.107143 z"
       id="area_2"
       inkscape:connector-curvature="0"
       transform="translate(-25,265.86218)"
       inkscape:label="#path2998" />
    <path
       style="fill:none;stroke:#000000;stroke-width:1px;stroke-linecap:butt;stroke-linejoin:miter;stroke-opacity:1"
       d="m 341.60714,54.071428 9.82143,-5.714286 c 0,0 6.25,-3.214286 7.5,-3.75 1.25,-0.535714 6.78572,-2.857143 6.78572,-2.857143 l 4.82143,-2.5 c 0,0 5.35714,-2.321429 6.25,-2.678571 0.89285,-0.357143 5.35714,-2.321429 5.35714,-2.321429 l 3.92857,0 c 0,0 4.10714,-1.428571 4.82143,-1.785714 0.71428,-0.357143 3.39286,-2.321429 3.39286,-2.321429 l 3.75,-1.785714 3.92857,0 2.5,2.321428 3.21428,1.25 3.75,0 3.92857,0.178572 1.42858,4.107143 3.39285,1.428571 4.10715,3.214286 1.07142,3.75 1.42858,4.464286 1.07142,4.821428 1.42858,6.428572 0,4.821428 1.78571,6.071429 2.14286,8.392857 7.14285,15.714286 1.25,7.321432 0.53572,2.32142 6.78571,11.78572 3.39286,8.03571 1.78571,3.75 5.17858,8.75 6.25,8.57143 3.75,7.14286 2.5,5 2.14285,4.82143 1.78572,6.25 3.92857,6.25 3.92857,5.89285 1.60714,3.03572 -3.21428,2.32143 -4.64286,1.07143 -5.71429,0 -6.07142,-0.35715 -8.57143,0.35715 -22.5,1.78571 -10.89286,0.71429 c 0,0 -6.78571,-0.71429 -9.28571,-1.07143 -2.5,-0.35715 -7.5,-2.67857 -7.5,-2.67857 l -4.46429,-2.67858 -5,-0.71428 -3.75,2.32143 -4.28571,2.14285 -4.82143,1.07143 -9.10715,0.35715 -14.64285,-0.53572 -7.85715,0.35714 0.35715,-2.85714 1.96428,-3.39286 1.78572,-5.89285 -0.89286,-16.25 0.17857,-12.67857 -0.35714,-11.25 -0.89286,-9.28572 -1.78571,-11.25 -1.60715,-15.71428 -0.71428,-5.714289 c 0,0 -2.5,-4.285715 -2.5,-5.178572 0,-0.892857 -1.78572,-7.142857 -1.78572,-7.142857 l -0.71428,-4.464286 0.35714,-4.821428 -0.53571,-6.964286 -3.39286,-2.5 c 0,0 -1.07143,-0.892857 -1.07143,-1.964286 0,-1.071428 0.35714,-7.321428 0.35714,-7.321428 z"
       id="area_3"
       inkscape:connector-curvature="0"
       transform="translate(-25,265.86218)"
       inkscape:label="#path3000" />
    <path
       style="fill:none;stroke:#000000;stroke-width:1px;stroke-linecap:butt;stroke-linejoin:miter;stroke-opacity:1"
       d="m 531.34024,42.318401 4.04061,-3.535534 4.79822,-1.515229 3.283,-0.505076 1.26269,-2.525382 3.03046,-1.515229 2.0203,0 2.77792,-3.030457 4.54569,1.26269 3.53553,1.767767 4.29315,-2.272843 4.04061,-2.272843 5.3033,-0.252538 5.3033,2.020305 c 0,0 4.29315,4.798224 5.05077,5.808377 0.75761,1.010153 5.55584,3.030458 5.55584,3.030458 l 5.05076,0.757614 5.55584,3.788072 8.83883,7.576144 5.3033,3.030458 1.76777,5.050763 0.50508,17.677669 2.52538,9.596449 2.27284,11.364216 c 0,0 -0.25254,7.576148 0,9.343908 0.25254,1.76777 0.50508,7.82869 0.50508,8.83884 0,1.01015 0.75761,7.07107 0.75761,7.07107 0,0 2.27284,3.78807 2.52538,4.79822 0.25254,1.01015 3.03046,4.04061 3.78807,6.06092 0.75762,2.0203 2.77792,14.64721 2.77792,14.64721 l 2.52539,8.58629 c 0,0 3.53553,6.31346 3.53553,7.57615 0,1.26269 4.79822,10.10152 4.79822,10.10152 l 1.26269,5.80838 -1.01015,4.29315 -1.76776,3.283 -4.54569,2.77791 -6.56599,-1.01015 -7.07107,-4.54568 c 0,0 -6.06092,-2.77792 -7.07107,-3.283 -1.01015,-0.50508 -8.33376,-0.25254 -10.35406,-0.25254 -2.02031,0 -10.85914,0.25254 -12.12183,0.25254 -1.26269,0 -10.10153,0.50508 -10.10153,0.50508 l -9.34391,0.25253 -8.08122,0.75762 -7.32361,-1.26269 -8.08122,2.27284 -3.03045,3.53554 -6.81853,1.51522 -8.5863,1.51523 -11.11168,0.50508 -8.83883,-0.25254 -7.57615,2.52538 -8.08122,1.01016 -3.78807,1.01015 0.25254,-5.55584 1.01015,-5.05076 4.54569,-7.32361 3.53553,-4.04061 -4.04061,-4.79822 2.77792,-4.54569 6.81853,-8.08122 3.03046,-4.79823 2.52538,-42.67894 1.76777,-18.182747 2.0203,-9.091373 1.01015,-8.586297 c 0,0 0.75762,-11.364216 0.75762,-13.131983 0,-1.767767 1.51523,-4.545686 1.51523,-4.545686 l 3.28299,-2.525382 0.25254,-2.525381 3.53554,-1.515229 0.50507,-3.788072 1.01015,-2.525381 z"
       id="area_4"
       inkscape:connector-curvature="0"
       transform="translate(-25,265.86218)"
       inkscape:label="#path3004" />
    <path
       style="fill:none;stroke:#000000;stroke-width:1px;stroke-linecap:butt;stroke-linejoin:miter;stroke-opacity:1"
       d="m 676.29713,47.369163 c 0,0 4.29315,-3.282995 5.3033,-3.535534 1.01015,-0.252538 6.81853,-3.535534 6.81853,-3.535534 l 6.56599,-2.020305 5.80838,-2.020305 6.56599,-2.272843 7.32361,-0.252538 5.55584,-0.505076 6.06091,0 5.55584,-0.252538 4.29315,0.757614 6.06091,0.505076 5.80838,4.04061 5.3033,3.535534 5.80838,4.04061 4.29315,3.030458 3.53553,4.293148 1.76777,3.535534 -0.50508,9.091373 1.01015,10.101526 -1.01015,4.798224 -1.51523,2.77792 1.01016,17.425133 c 0,0 1.26269,7.3236 0.25253,8.08122 -1.01015,0.75761 2.02031,9.59645 2.02031,9.59645 l 1.76777,7.57614 1.01015,8.33376 c 0,0 1.26269,5.05076 1.51523,6.06092 0.25253,1.01015 2.52538,7.07106 2.52538,7.07106 0,0 3.28299,9.84899 3.28299,10.85914 0,1.01016 3.53554,18.18275 3.53554,18.18275 l 4.29315,9.09137 3.03045,4.79823 2.77792,2.77792 c 0,0 -2.77792,0.25253 -3.78807,0 -1.01015,-0.25254 -5.05076,-1.76777 -5.05076,-1.76777 0,0 -11.11168,0 -12.37437,0 -1.26269,0 -13.13198,-0.25254 -13.13198,-0.25254 l -8.08122,0.50508 -7.07107,-0.75762 -3.03046,-2.27284 c 0,0 -4.29315,-0.25254 -5.3033,-0.25254 -1.01015,0 -7.32361,0 -7.32361,0 l -6.81853,-1.26269 -3.28299,-0.75761 -5.55584,2.27284 -5.3033,1.51523 -10.10153,1.51523 c 0,0 -6.31345,1.01015 -7.82868,1.01015 -1.51523,0 -4.54569,-0.75761 -6.31345,0 -1.76777,0.75761 -9.09138,2.27284 -9.09138,2.27284 l -9.84898,1.26269 -7.57615,0.50508 -4.54568,1.01015 -3.03046,-1.26269 -0.25254,-2.52538 3.53553,-3.53553 3.03046,-5.80838 2.02031,-8.5863 4.79822,-16.92005 0.75762,-14.14214 0.75761,-9.59645 3.53554,-27.02158 2.77791,-14.64721 1.2627,-18.435284 1.76776,-13.131983 2.27285,-3.788072 1.51522,-5.555839 z"
       id="area_5"
       inkscape:connector-curvature="0"
       transform="translate(-25,265.86218)"
       inkscape:label="#path3006" />
    <path
       style="fill:none;stroke:#000000;stroke-width:1px;stroke-linecap:butt;stroke-linejoin:miter;stroke-opacity:1"
       d="m 25.253814,315.8172 9.848987,2.02031 2.272843,-0.75762 6.565992,-6.56599 4.798224,-3.78807 7.576144,-2.02031 9.343912,0 6.818529,0.75762 6.565992,1.76777 9.596449,2.27284 12.121834,3.78807 8.58629,2.52538 4.04061,1.76777 -0.25253,2.52538 5.05076,-0.25254 7.57614,-1.51523 4.29315,0 1.01015,12.87945 c 0,0 -1.51523,3.78807 -1.51523,5.05076 0,1.26269 -1.01015,6.06092 -1.51522,7.57615 -0.50508,1.51522 -1.51523,5.80837 -1.51523,6.81853 0,1.01015 0.50507,7.3236 0.50507,7.3236 l 2.27285,7.07107 1.26269,12.62691 2.52538,6.31345 2.52538,8.33376 2.0203,5.55584 0,5.80837 3.53554,7.07107 6.81853,9.34391 3.78807,6.31346 c 0,0 2.52538,5.80837 3.53553,7.07106 1.01016,1.26269 3.03046,4.79823 3.03046,4.79823 0,0 1.01015,3.53553 0,3.53553 -1.01015,0 -2.77792,1.76777 -4.54568,1.76777 -1.76777,0 -7.07107,0.75761 -9.09138,1.51523 -2.0203,0.75761 -16.66751,-0.50508 -16.66751,-0.50508 0,0 -7.07107,-0.50507 -8.33376,-0.50507 -1.26269,0 -9.34391,0.50507 -9.34391,0.50507 l -7.07107,-1.76776 -5.555841,-1.76777 -5.555839,-2.02031 -4.293148,-1.51523 c 0,0 -3.788073,-1.01015 -4.798225,-0.75761 -1.010153,0.25254 -7.071068,0.75761 -7.071068,0.75761 l -6.565991,1.76777 -7.071068,3.03046 -7.828682,2.52538 -8.586297,0.75761 -9.343911,0.25254 -4.545687,0 -6.313453,0 -1.515229,-11.61675 1.010153,-9.84899 2.525381,-8.08122 3.535534,-8.5863 2.525381,-6.31345 -2.020305,-23.73858 -1.767767,-6.06092 -1.26269,-10.35406 0.252538,-6.06092 c 0,0 0,-2.27284 -1.010153,-3.78807 -1.010152,-1.51523 -3.788072,-15.15229 -3.788072,-15.15229 l 0,-9.59645 z"
       id="area_6"
       inkscape:connector-curvature="0"
       transform="translate(-25,265.86218)"
       inkscape:label="#path3008" />
    <path
       style="fill:none;stroke:#000000;stroke-width:1px;stroke-linecap:butt;stroke-linejoin:miter;stroke-opacity:1"
       d="m 208.84904,305.46314 5.55584,-4.79823 5.3033,-5.55583 4.29315,-2.27285 2.77792,0 3.03045,-1.51523 4.29315,-1.01015 4.04061,0 4.29315,1.01015 2.52538,-2.77792 4.79823,0 3.03045,2.52539 3.283,0.25253 5.55584,2.52538 5.80838,2.02031 4.54568,4.29315 c 0,0 3.53554,0.75761 5.05077,2.52538 1.51522,1.76777 6.31345,5.55584 6.31345,5.55584 l 3.283,3.53553 1.01015,3.53554 1.26269,7.3236 c 0,0 2.27284,18.18275 2.0203,19.1929 -0.25253,1.01015 1.01016,9.09137 1.01016,9.09137 l -1.51523,7.07107 c 0,0 -0.25254,3.78807 -0.25254,6.06092 0,2.27284 1.76777,4.54568 1.76777,4.54568 l 5.05076,5.3033 0.75761,5.3033 0.25254,7.07107 0,4.54569 5.55584,13.13198 5.05076,14.64721 2.52538,10.60661 3.53554,10.85914 2.77792,6.31345 0.75761,5.55584 -1.01015,2.0203 -2.77792,0.50508 -5.55584,-1.51523 -2.27284,-1.51523 -6.06092,-2.52538 -6.06091,-3.283 c 0,0 -1.76777,-1.76776 -2.77792,-1.76776 -1.01015,0 -5.05076,0 -5.05076,0 l -3.78808,0.50507 -4.54568,2.52539 -7.57615,3.78807 -5.80837,4.79822 -18.94036,0.75762 -23.23351,-1.51523 -11.61676,2.27284 -16.66751,0.50508 -12.12184,1.51523 -2.0203,-0.75762 c 0,0 2.52538,-8.5863 2.77792,-9.84899 0.25254,-1.26269 3.03046,-10.6066 3.03046,-10.6066 0,0 3.03045,-9.09137 3.03045,-10.10152 0,-1.01016 2.77792,-9.09138 2.77792,-9.09138 l 2.02031,-7.3236 c 0,0 0.75761,-8.83884 1.51523,-10.35407 0.75761,-1.51522 1.51523,-9.34391 1.51523,-9.34391 l 3.78807,-22.22335 1.26269,-16.16244 1.51523,-11.8693 1.51523,-6.31345 0.50507,-5.80838 0.50508,-5.55584 2.52538,-3.03045 z"
       id="area_7"
       inkscape:connector-curvature="0"
       transform="translate(-25,265.86218)"
       inkscape:label="#path3012" />
    <g
       id="area_8"
       inkscape:label="#g3016">
      <path
         transform="translate(-25,265.86218)"
         inkscape:connector-curvature="0"
         id="path3014"
         d="m 355.82623,308.99867 6.31346,-0.75761 1.26269,-2.27284 4.04061,-0.75762 4.29315,0.75762 3.53553,0.75761 5.80838,-1.76777 5.80838,-1.51523 0,-2.52538 c 0,0 10.35406,-3.53553 11.36421,-4.29315 1.01015,-0.75761 7.07107,-3.03045 7.07107,-3.03045 l 8.83883,-2.52538 11.61676,-1.01016 7.07107,1.26269 7.07106,3.283 9.84899,6.56599 5.55584,3.53553 3.03046,3.03046 1.26269,3.283 -4.04061,4.29315 0.75761,5.05076 1.76777,22.72843 2.77792,6.31345 1.51523,3.53554 0.25254,14.14213 -0.25254,3.53554 1.01015,3.78807 -1.01015,4.79822 0.75761,5.55584 3.03046,5.55584 1.01015,9.09138 1.01016,16.66751 1.51522,5.80838 7.07107,14.14214 c 0,0 2.27285,2.77792 2.77792,4.54568 0.50508,1.76777 0.50508,5.55584 0.50508,5.55584 l -6.31346,0.75762 -15.9099,-1.2627 -18.43528,0.25254 -5.05077,-0.25254 -5.3033,-1.26269 -4.79822,0.25254 -12.87945,1.51523 -8.83883,0 -14.64721,0.25254 -23.99113,2.77792 -12.12183,0.50507 -8.33375,0 -2.77792,-1.76776 2.77792,-9.09137 3.53553,-12.62691 3.78807,-8.33376 1.01015,-9.34391 c 0,0 -0.25253,-7.32361 0.50508,-8.83884 0.75761,-1.51522 3.03046,-8.08122 3.03046,-8.08122 0,0 -1.01015,-79.29697 -1.01015,-80.30712 0,-1.01016 1.51522,-2.27285 1.51522,-2.27285 z"
         style="fill:none;stroke:#000000;stroke-width:1px;stroke-linecap:butt;stroke-linejoin:miter;stroke-opacity:1" />
    </g>
    <path
       style="fill:none;stroke:#000000;stroke-width:1px;stroke-linecap:butt;stroke-linejoin:miter;stroke-opacity:1"
       d="m 508.86435,309.50375 10.6066,-5.3033 12.37437,-5.55584 c 0,0 5.55583,-1.76777 7.07106,-2.27284 1.51523,-0.50508 11.11168,-2.02031 11.11168,-2.02031 l 11.86929,0.25254 11.36422,0.75761 9.34391,1.51523 8.08122,4.29315 13.13198,7.57614 10.60661,8.83884 4.04061,4.79822 1.51523,7.07107 2.0203,4.29315 c 0,0 4.29315,4.04061 3.78807,5.55584 -0.50507,1.51523 1.01016,3.78807 1.26269,6.06091 0.25254,2.27285 4.54569,7.57615 4.54569,9.09138 0,1.51523 5.3033,17.42513 5.3033,17.42513 l 3.53553,8.5863 5.55584,12.87944 5.55584,9.84899 4.54569,3.78807 c 0,0 1.51523,3.03046 1.51523,4.04061 0,1.01015 0.25254,4.79822 0.25254,6.06092 0,1.26269 1.76776,6.81852 1.76776,8.08122 0,1.26269 2.52538,11.11167 2.52538,11.11167 l 0,10.85914 -0.25253,5.05077 -6.31346,0 -10.85914,0.25253 -14.64721,-1.01015 -14.14213,-0.75761 -9.84899,-1.01016 -6.06092,-1.26269 -9.59645,-0.50507 -16.41498,0 -12.37436,0 -13.63706,-0.50508 -12.87945,-0.50507 -23.99112,-0.25254 -0.25254,-8.33376 3.283,-8.08122 3.03045,-9.59645 4.04061,-11.11168 0.50508,-7.82868 c 0,0 -4.54569,-7.82868 -4.29315,-9.59645 0.25254,-1.76777 -0.25254,-13.13198 -0.25254,-13.13198 l 2.27285,-8.5863 -3.283,-6.81853 1.51523,-6.31345 1.26269,-6.31346 -5.80838,-3.03045 0.75762,-7.82869 -1.76777,-3.53553 c 0,0 -1.51523,-3.283 -1.76777,-4.54569 -0.25253,-1.26269 -0.75761,-7.82868 -0.75761,-7.82868 l -1.51523,-4.04061 -1.01015,-4.54569 -1.01015,-4.54568 z"
       id="area_9"
       inkscape:connector-curvature="0"
       transform="translate(-25,265.86218)"
       inkscape:label="#path3019" />
    <path
       style="fill:none;stroke:#000000;stroke-width:1px;stroke-linecap:butt;stroke-linejoin:miter;stroke-opacity:1"
       d="m 689.93419,300.66491 7.32361,-5.3033 9.84898,-4.29314 10.10153,-3.53554 9.59645,-1.26269 8.58629,-0.25254 12.37437,1.01015 8.33376,0.50508 c 0,0 6.81853,0.50508 8.33376,2.52538 1.51523,2.02031 9.84899,3.78807 9.84899,3.78807 l 7.3236,4.29315 5.55584,4.54569 4.04061,4.54569 4.04061,5.3033 2.02031,7.3236 0.50507,7.07107 -0.75761,5.80838 -2.52538,3.78807 1.51523,66.16499 -1.51523,4.54569 -5.3033,6.06091 -5.3033,4.04061 -11.36422,5.55584 -8.83883,2.02031 -9.84899,1.51523 -9.59645,-0.25254 -9.09137,-0.50508 -8.5863,-1.76777 -9.34391,-4.29314 -8.5863,-6.06092 -4.54569,-4.79822 -3.28299,-6.31346 -1.01015,-3.28299 -0.25254,-6.31346 -1.76777,-11.36421 -1.51523,-15.65737 -3.03046,-11.86929 -1.51522,-8.83883 -0.75762,-4.04061 -5.05076,-4.54569 c 0,0 -2.52538,-2.27284 -3.283,-3.283 -0.75761,-1.01015 -1.76776,-6.31345 -1.76776,-6.31345 l -1.26269,-7.32361 2.77792,-9.09137 4.04061,-5.55584 z"
       id="area_10"
       inkscape:connector-curvature="0"
       transform="translate(-25,265.86218)"
       inkscape:label="#path3021" />
    <text
       xml:space="preserve"
       style="font-size:40px;font-style:normal;font-weight:normal;line-height:125%;letter-spacing:0px;word-spacing:0px;fill:#000000;fill-opacity:1;stroke:none;font-family:Sans"
       x="156.82747"
       y="535.21234"
       id="navigation"
       sodipodi:linespacing="125%"
       inkscape:label="#text3023"><tspan
         sodipodi:role="line"
         id="tspan3025"
         x="156.82747"
         y="535.21234">1 2 3 4 5 6 7 8 9 10</tspan></text>
  </g>
</svg>
