<?xml version="1.0" encoding="UTF-8" standalone="no"?>
<!-- Created with Inkscape (http://www.inkscape.org/) -->

<svg
   xmlns:dc="http://purl.org/dc/elements/1.1/"
   xmlns:cc="http://creativecommons.org/ns#"
   xmlns:rdf="http://www.w3.org/1999/02/22-rdf-syntax-ns#"
   xmlns:svg="http://www.w3.org/2000/svg"
   xmlns="http://www.w3.org/2000/svg"
   xmlns:xlink="http://www.w3.org/1999/xlink"
   xmlns:sodipodi="http://sodipodi.sourceforge.net/DTD/sodipodi-0.dtd"
   xmlns:inkscape="http://www.inkscape.org/namespaces/inkscape"
   width="3000"
   height="2000"
   id="svg2"
   version="1.1"
   inkscape:version="0.48.3.1 r9886"
   sodipodi:docname="New document 1">
  <defs
     id="defs4" />
  <sodipodi:namedview
     id="base"
     pagecolor="#ffffff"
     bordercolor="#666666"
     borderopacity="1.0"
     inkscape:pageopacity="0.0"
     inkscape:pageshadow="2"
     inkscape:zoom="0.35"
     inkscape:cx="2051.0308"
     inkscape:cy="1506.8587"
     inkscape:document-units="px"
     inkscape:current-layer="layer1"
     showgrid="false"
     fit-margin-top="0"
     fit-margin-left="0"
     fit-margin-right="0"
     fit-margin-bottom="0"
     inkscape:window-width="1366"
     inkscape:window-height="706"
     inkscape:window-x="-8"
     inkscape:window-y="-8"
     inkscape:window-maximized="1" />
  <metadata
     id="metadata7">
    <rdf:RDF>
      <cc:Work
         rdf:about="">
        <dc:format>image/svg+xml</dc:format>
        <dc:type
           rdf:resource="http://purl.org/dc/dcmitype/StillImage" />
        <dc:title></dc:title>
      </cc:Work>
    </rdf:RDF>
  </metadata>
  <g
     inkscape:label="Layer 1"
     inkscape:groupmode="layer"
     id="layer1"
     transform="translate(1125,467.63782)">
    <image
       y="-467.63782"
       x="-1125"
       id="image2993"
       xlink:href="file:///G:/03/Gdekr.jpg"
       height="2000"
       width="3000" />
    <path
       style="fill:none;stroke:#000000;stroke-width:1px;stroke-linecap:butt;stroke-linejoin:miter;stroke-opacity:1"
       d="m 884.28572,411.42857 19.28571,5 c 0,0 12.14286,0 14.28571,-1.42857 2.14286,-1.42857 23.57143,2.14286 23.57143,2.14286 l 22.14286,3.57142 2.14286,-7.85714 19.28571,0 32.1429,-0.71428 c 0,0 27.1428,-1.42858 30.7142,-1.42858 3.5715,0 39.2858,0.71429 42.1429,2.14286 2.8571,1.42857 31.4286,6.42857 31.4286,6.42857 l 10,1.42857 3.5714,31.42858 c 0,0 0.7143,13.57142 -7.8571,19.28571 -8.5715,5.71429 -25.7143,44.28571 -25.7143,44.28571 l -5.7143,3.57143 5,24.28572 -5,41.42857 -5.7143,65.71428 -5.7143,98.57143 -12.1428,131.42857 -1.4286,27.85715 0,34.28571 -5,45.71429 -2.1429,64.99997 -0.7143,21.4286 -4.2857,12.1429 -2.1428,6.4285 L 1065,1105 l 18.5714,20.7143 5,13.5714 -7.8571,22.1429 -13.5714,4.2857 -35.7143,1.4286 -27.1429,4.2857 -37.14284,0 -20,0.7143 -15.71429,0.7142 c 0,0 -11.42857,2.8572 -14.28571,3.5715 C 914.28572,1177.1429 880.71429,1190 880.71429,1190 L 837.85714,1204.2857 816.42857,1210 795,1211.4286 l -7.14286,2.8571 c 0,0 3.57143,-29.2857 3.57143,-32.1428 0,-2.8572 16.42857,-46.4286 16.42857,-46.4286 l 10,-33.5714 13.57143,-36.4286 14.28572,-50 12.85714,-22.85716 L 880,800 l 25,-212.85714 2.85714,-60 L 915,502.85714 915,496.42857 882.14286,477.14286 879.28572,450 l -2.14286,-8.57143 0,-31.42857 z"
       id="area_1"
       inkscape:connector-curvature="0"
       transform="translate(-1125,-467.63782)"
       inkscape:label="#path2996" />
    <path
       style="fill:none;stroke:#000000;stroke-width:1px;stroke-linecap:butt;stroke-linejoin:miter;stroke-opacity:1"
       d="m 1226.4286,541.42857 30.7143,-2.85714 c 0,0 25,0 30.7142,0 5.7143,0 22.8572,-3.57143 22.8572,-3.57143 l 29.2857,-2.85714 19.2857,-1.42858 22.1429,-2.14285 24.2857,0 16.4286,7.14285 6.4285,0 0,24.28572 c 0,0 -0.7143,14.28571 -1.4285,17.14286 -0.7143,2.85714 -11.4286,15.71428 -11.4286,15.71428 l -17.8572,5.71429 3.5715,36.42857 -2.8572,47.85714 -2.1428,35.71429 -0.7143,85 0.7143,199.28567 -2.8572,22.8572 4.2857,7.8571 c 0,0 -2.1428,13.5715 -2.1428,17.1429 0,3.5714 -0.7143,10 -0.7143,10 l 19.2857,18.5714 8.5714,-1.4286 5,6.4286 -13.5714,10 -20.7143,5.7143 -21.4285,-10 -13.5715,-0.7143 L 1345,1085 l -9.2857,0 -32.1429,7.1429 -40,3.5714 -39.2857,2.8571 -20.7143,5 4.2857,-6.4285 9.2858,-1.4286 -2.1429,-10 -14.2857,0 -22.8572,-15.7143 -12.1428,-15 2.1428,-36.4286 12.1429,0.7143 5.7143,2.1429 10.7143,2.1428 9.2857,3.5715 5,-5 -1.4286,-175.71433 7.8572,-150 L 1220,625.71428 1198.5714,620 l -7.8571,-8.57143 -2.8572,-20 10,-17.14286 15,-14.28571 11.4286,-7.14286 z"
       id="area_2"
       inkscape:connector-curvature="0"
       transform="translate(-1125,-467.63782)"
       inkscape:label="#path2998" />
    <path
       style="fill:none;stroke:#000000;stroke-width:1px;stroke-linecap:butt;stroke-linejoin:miter;stroke-opacity:1"
       d="m 1541.4286,447.14285 6.4285,5.35715 10.3572,-8.92857 6.4286,6.42857 c 0,0 8.5714,-8.92857 10.7142,-8.21429 2.1429,0.71429 11.0715,6.78572 11.0715,6.78572 0,0 5.7143,-6.42858 7.5,-6.07143 1.7857,0.35714 11.7857,8.57143 11.7857,8.57143 l 8.9286,-7.5 10,7.85714 9.2857,-7.85714 7.5,7.85714 11.4285,-3.57143 8.5715,6.42857 c 0,0 6.4285,-3.21428 8.5714,-3.21428 2.1429,0 8.5714,9.28571 8.5714,9.28571 l 10.7143,-5.71429 6.7857,11.42858 9.6429,0.35714 6.4286,6.78571 2.5,-0.71428 1.4285,-9.28572 14.2857,1.42857 5,-7.85714 3.9286,15.35714 -0.7143,11.07143 -6.0714,13.57143 -22.5,28.57143 -2.5,3.92857 6.4286,18.57143 1.4285,21.78571 2.1429,27.85715 0,165.35714 5,131.78572 -2.1429,156.07144 7.8572,24.2857 7.8571,21.7857 4.2857,22.5 3.9286,8.5714 -1.0714,14.6429 0.3571,7.1429 7.1429,15 4.6428,12.1428 c 0,0 3.5715,10 3.5715,11.7857 0,1.7857 0.7143,16.7857 0.7143,16.7857 L 1760,1222.5 l -1.0714,6.7857 -3.2143,0.7143 -5.7143,-2.8571 -4.6429,-4.2858 -11.7857,5.7143 -10.7143,-6.4285 -12.1428,2.5 -12.1429,-8.9286 -6.7857,6.0714 -13.5714,-7.8571 -8.9286,5.3571 -12.8571,-9.6428 -10.3572,4.6428 -11.4285,-6.4286 -3.9286,5 -7.5,-0.3571 -7.5,-6.4286 -2.8572,-2.1428 -8.2142,3.2143 -8.2143,-2.5 -1.4286,-1.4286 -12.8571,16.0714 -2.5,7.1429 -4.6429,7.1428 -6.7857,-1.4285 -1.7857,-2.8572 -4.2857,-0.7143 -0.7143,-41.4285 -1.4286,-7.5 -1.0714,-4.2858 -12.5,3.9286 -11.4286,3.2143 -10,0.3571 -4.6429,-7.5 0,-3.9285 7.5,-4.2857 3.5715,-0.7143 8.5714,-21.0715 10,-25.7142 5.7143,-11.0715 0,-13.2143 3.9286,-4.6428 c 0,0 1.0714,-99.28573 1.0714,-100.7143 0,-1.42857 -1.0714,-99.64286 -1.0714,-99.64286 l -2.8572,-105 1.0714,-146.07143 -2.5,-101.42857 -7.8571,-18.21429 -0.3571,-9.64285 -21.4286,-16.07143 0,-45 3.2143,2.14286 9.6428,-6.42858 z"
       id="area_3"
       inkscape:connector-curvature="0"
       transform="translate(-1125,-467.63782)"
       inkscape:label="#path3000" />
    <path
       style="fill:none;stroke:#000000;stroke-width:1px;stroke-linecap:butt;stroke-linejoin:miter;stroke-opacity:1"
       d="m 1833.5714,512.85714 10.7143,5.71429 7.8572,-6.42857 13.5714,5.71428 8.5714,-8.57143 8.5714,10.71429 11.4286,-10.71429 7.8572,10.71429 11.4285,-7.14286 7.1429,7.85714 12.8571,-6.42857 5.7143,8.57143 10,-8.57143 10,11.42857 7.1429,-8.57142 9.2857,10.71428 10.7143,-8.57143 6.4285,8.57143 10,-6.42857 7.1429,9.28571 11.4286,-8.57142 8.5714,5.71428 7.1429,-9.28571 7.8571,4.28571 2.8571,35.71429 2.8572,18.57143 -10.7143,16.42857 -10.7143,7.85714 -7.8571,111.42857 14.2857,117.14286 15.7143,198.5714 1.4285,19.2857 0.7143,37.1429 20.7143,34.2857 10,20.7143 5,17.1429 c 0,0 -11.4286,7.8571 -14.2857,10 -2.8571,2.1428 -5.7143,2.8571 -5.7143,2.8571 l 3.5714,-10.7143 -5.7142,-5.7143 1.4285,-6.4285 -21.4285,-5.7143 -17.1429,-5.7143 -37.1429,-10 -15.7142,5 -9.2858,0.7143 -7.8571,9.2857 -15,-1.4286 -5.7143,5.7143 -13.5714,0 -7.1429,10.7143 -7.1428,-4.2857 -6.4286,1.4285 -2.8571,4.2858 -2.8572,-7.8572 L 1895,1150 l -8.5714,0.7143 -10.7143,10.7143 -10,-1.4286 -14.2857,-26.4286 1.4285,-20.7143 6.4286,-16.4285 11.4286,-17.8572 10,-22.1428 5,-11.4286 L 1880,1022.8571 1860.7143,609.28571 1847.8571,587.14286 1830,549.28571 z"
       id="area_4"
       inkscape:connector-curvature="0"
       transform="translate(-1125,-467.63782)"
       inkscape:label="#path3002" />
    <text
       xml:space="preserve"
       style="font-size:40px;font-style:normal;font-weight:normal;line-height:125%;letter-spacing:0px;word-spacing:0px;fill:#000000;fill-opacity:1;stroke:none;font-family:Sans"
       x="940"
       y="162.85715"
       id="navigation"
       sodipodi:linespacing="125%"
       transform="translate(-1125,-467.63782)"
       inkscape:label="#text3004"><tspan
         sodipodi:role="line"
         id="tspan3006"
         x="940"
         y="162.85715">1 3 2 4</tspan></text>
  </g>
</svg>
