<?xml version="1.0" encoding="UTF-8" standalone="no"?>
<!-- Created with Inkscape (http://www.inkscape.org/) -->

<svg
   xmlns:dc="http://purl.org/dc/elements/1.1/"
   xmlns:cc="http://creativecommons.org/ns#"
   xmlns:rdf="http://www.w3.org/1999/02/22-rdf-syntax-ns#"
   xmlns:svg="http://www.w3.org/2000/svg"
   xmlns="http://www.w3.org/2000/svg"
   xmlns:xlink="http://www.w3.org/1999/xlink"
   xmlns:sodipodi="http://sodipodi.sourceforge.net/DTD/sodipodi-0.dtd"
   xmlns:inkscape="http://www.inkscape.org/namespaces/inkscape"
   width="3000"
   height="2000"
   id="svg2"
   version="1.1"
   inkscape:version="0.48.3.1 r9886"
   sodipodi:docname="Gfrazz.svg">
  <defs
     id="defs4" />
  <sodipodi:namedview
     id="base"
     pagecolor="#ffffff"
     bordercolor="#666666"
     borderopacity="1.0"
     inkscape:pageopacity="0.0"
     inkscape:pageshadow="2"
     inkscape:zoom="0.35"
     inkscape:cx="1589.7037"
     inkscape:cy="1490"
     inkscape:document-units="px"
     inkscape:current-layer="layer1"
     showgrid="false"
     inkscape:window-width="1317"
     inkscape:window-height="744"
     inkscape:window-x="49"
     inkscape:window-y="24"
     inkscape:window-maximized="1"
     fit-margin-top="0"
     fit-margin-left="0"
     fit-margin-right="0"
     fit-margin-bottom="0"
     inkscape:showpageshadow="true" />
  <metadata
     id="metadata7">
    <rdf:RDF>
      <cc:Work
         rdf:about="">
        <dc:format>image/svg+xml</dc:format>
        <dc:type
           rdf:resource="http://purl.org/dc/dcmitype/StillImage" />
        <dc:title></dc:title>
      </cc:Work>
    </rdf:RDF>
  </metadata>
  <g
     inkscape:label="Layer 1"
     inkscape:groupmode="layer"
     id="layer1"
     transform="translate(671.42859,173.3521)">
    <image
       y="-173.3521"
       x="-671.42859"
       id="image3044"
       xlink:href="file:///media/BLANK/04/Gfrazz.jpg"
       height="2000"
       width="3000" />
    <path
       style="fill:none;stroke:#000000;stroke-width:1px;stroke-linecap:butt;stroke-linejoin:miter;stroke-opacity:1"
       d="m 820,474.28571 20,54.28572 0,151.42857 0,137.14286 5.71429,65.71428 11.42857,22.85715 -31.42857,71.42857 L 800,1040 777.14286,1100 762.85714,1131.4286 760,1160 l -37.14286,28.5714 68.57143,2.8572 100,-11.4286 77.14286,-5.7143 82.85717,14.2857 51.4285,0 71.4286,-2.8571 22.8572,-8.5714 37.1428,11.4285 45.7143,-11.4285 122.8571,45.7142 85.7143,17.1429 17.1429,0 11.4286,-25.7143 -25.7143,-37.1428 L 1480,1151.4286 1468.5714,1080 l -17.1428,-82.85714 -2.8572,-31.42857 5.7143,-102.85715 -2.8571,-65.71428 20,-100 -2.8572,-108.57143 51.4286,-114.28572 -2.8571,-8.57142 -14.2858,-2.85715 -22.8571,5.71429 -17.1429,0 -37.1428,-14.28572 L 1400,460 l -65.7143,0 -85.7143,-5.71429 -31.4285,0 -65.7143,11.42858 -37.1429,8.57142 -71.4286,14.28572 -71.42853,5.71428 L 945.71429,480 917.14286,474.28571 891.42857,462.85714 z"
       id="area_1"
       inkscape:connector-curvature="0"
       transform="translate(-671.42859,-173.3521)"
       inkscape:label="#path3066" />
    <path
       style="fill:none;stroke:#000000;stroke-width:1px;stroke-linecap:butt;stroke-linejoin:miter;stroke-opacity:1"
       d="m 1597.1429,1122.8571 85.7142,5.7143 51.4286,0 65.7143,-14.2857 40,-2.8571 48.5714,-11.4286 77.1429,2.8571 42.8571,0 62.8572,8.5715 c 0,0 14.2857,-2.8572 54.2857,0 40,2.8571 71.4286,2.8571 71.4286,2.8571 l 51.4285,0 22.8572,-17.1428 -17.1429,-31.4286 -28.5714,-74.28573 -14.2857,-48.57143 -14.2857,-25.71428 0,-48.57143 L 2200,754.28571 2211.4286,665.71429 2220,631.42857 2208.5714,600 2091.4286,608.57143 2000,605.71429 l -137.1429,-2.85715 -108.5714,2.85715 -25.7143,0 -51.4285,0 -54.2858,-8.57143 -14.2857,-2.85715 -14.2857,0 20,82.85715 14.2857,80 22.8572,94.28571 0,88.57143 -31.4286,54.28571 -8.5714,68.57139 -11.4286,40 z"
       id="area_2"
       inkscape:connector-curvature="0"
       transform="translate(-671.42859,-173.3521)"
       inkscape:label="#path3068" />
    <text
       xml:space="preserve"
       style="font-size:164.05047607px;font-style:normal;font-weight:normal;line-height:125%;letter-spacing:0px;word-spacing:0px;fill:#000000;fill-opacity:1;stroke:none;font-family:Sans"
       x="391.06635"
       y="75.801262"
       id="navigation"
       sodipodi:linespacing="125%"
       transform="scale(1.1373391,0.87924523)"
       inkscape:label="#text3070"><tspan
         sodipodi:role="line"
         id="tspan3072"
         x="391.06635"
         y="75.801262">1 2</tspan></text>
  </g>
</svg>
