<?xml version="1.0" encoding="UTF-8" standalone="no"?>
<!-- Created with Inkscape (http://www.inkscape.org/) -->

<svg
   xmlns:dc="http://purl.org/dc/elements/1.1/"
   xmlns:cc="http://creativecommons.org/ns#"
   xmlns:rdf="http://www.w3.org/1999/02/22-rdf-syntax-ns#"
   xmlns:svg="http://www.w3.org/2000/svg"
   xmlns="http://www.w3.org/2000/svg"
   xmlns:xlink="http://www.w3.org/1999/xlink"
   xmlns:sodipodi="http://sodipodi.sourceforge.net/DTD/sodipodi-0.dtd"
   xmlns:inkscape="http://www.inkscape.org/namespaces/inkscape"
   width="3000"
   height="2000"
   id="svg2"
   version="1.1"
   inkscape:version="0.48.3.1 r9886"
   sodipodi:docname="Ggalx.svg">
  <defs
     id="defs4" />
  <sodipodi:namedview
     id="base"
     pagecolor="#ffffff"
     bordercolor="#666666"
     borderopacity="1.0"
     inkscape:pageopacity="0.0"
     inkscape:pageshadow="2"
     inkscape:zoom="0.35"
     inkscape:cx="1292.1429"
     inkscape:cy="917.14286"
     inkscape:document-units="px"
     inkscape:current-layer="layer1"
     showgrid="false"
     inkscape:window-width="1317"
     inkscape:window-height="744"
     inkscape:window-x="49"
     inkscape:window-y="24"
     inkscape:window-maximized="1"
     fit-margin-top="0"
     fit-margin-left="0"
     fit-margin-right="0"
     fit-margin-bottom="0" />
  <metadata
     id="metadata7">
    <rdf:RDF>
      <cc:Work
         rdf:about="">
        <dc:format>image/svg+xml</dc:format>
        <dc:type
           rdf:resource="http://purl.org/dc/dcmitype/StillImage" />
        <dc:title />
      </cc:Work>
    </rdf:RDF>
  </metadata>
  <g
     inkscape:label="Layer 1"
     inkscape:groupmode="layer"
     id="layer1"
     transform="translate(631.42859,179.06639)">
    <image
       y="-179.06639"
       x="-631.42859"
       id="image3044"
       xlink:href="file:///media/BLANK/04/Ggalx.jpg"
       height="2000"
       width="3000" />
    <path
       style="fill:none;stroke:#000000;stroke-width:1px;stroke-linecap:butt;stroke-linejoin:miter;stroke-opacity:1"
       d="M 451.42857,278.07647 237.14286,272.36218 160,278.07647 l -14.28571,0 -17.14286,0 -17.14286,5.71428 -8.57143,8.57143 -11.428569,2.85715 0,8.57142 0,37.14286 -17.142857,105.71429 0,65.71428 -22.857143,122.85715 -14.285714,171.42857 -11.428571,131.42857 0,42.85714 160.000004,0 L 400,975.21933 l 74.28571,0 22.85715,-8.57143 14.28571,-540 5.71429,-125.71429 -11.42857,-17.14286 -20,-2.85714 z"
       id="area_1"
       inkscape:connector-curvature="0"
       inkscape:label="#path3047" />
    <path
       style="fill:none;stroke:#000000;stroke-width:1px;stroke-linecap:butt;stroke-linejoin:miter;stroke-opacity:1"
       d="m 928.57143,266.6479 -311.42857,20 -8.57143,0 -8.57143,14.28571 5.71429,28.57143 0,20 0,17.14286 2.85714,8.57143 17.14286,25.71428 -2.85715,400 -2.85714,48.57143 0,22.85714 -11.42858,28.57144 17.14287,11.42856 88.57142,-17.14285 37.14286,5.71428 88.57143,-2.85714 71.42857,2.85714 65.71429,-22.85714 -14.28572,-14.28572 -14.28571,-34.28571 0,-157.14286 -11.42857,-185.71428 -8.57143,-97.14286 22.85714,-34.28571 -8.57143,-51.42858 5.71429,-20 -2.85714,-8.57142 z"
       id="area_2"
       inkscape:connector-curvature="0"
       inkscape:label="#path3049"
       sodipodi:nodetypes="ccccccccccccccccccccccccccccc" />
    <path
       style="fill:none;stroke:#000000;stroke-width:1px;stroke-linecap:butt;stroke-linejoin:miter;stroke-opacity:1"
       d="m 1265.7143,289.50504 -142.8572,2.85714 -48.5714,2.85715 -14.2857,0 -11.4286,0 -5.7143,34.28571 28.5715,40 2.8571,82.85714 5.7143,128.57143 8.5714,125.71429 8.5715,120 5.7142,20 -8.5714,34.28571 0,17.14286 14.2857,17.14286 40,11.42857 60,2.85714 45.7143,-5.71429 40,11.42858 57.1429,-11.42858 -5.7143,-45.71428 -11.4286,-45.71429 -8.5714,-11.42857 -20,-117.14286 -17.1429,-211.42857 -14.2857,-108.57143 11.4286,-42.85714 -2.8572,-25.71428 L 1280,303.79075 z"
       id="area_3"
       inkscape:connector-curvature="0"
       inkscape:label="#path3070" />
    <path
       style="fill:none;stroke:#000000;stroke-width:1px;stroke-linecap:butt;stroke-linejoin:miter;stroke-opacity:1"
       d="m 1517.1429,398.07647 -25.7143,22.85714 -14.2857,34.28572 5.7142,31.42857 11.4286,17.14285 0,5.71429 -20,11.42857 -11.4286,14.28572 2.8572,65.71428 0,80 17.1428,20 -42.8571,42.85714 14.2857,17.14286 25.7143,14.28572 34.2857,2.85714 20,-11.42857 8.5714,-17.14286 8.5715,-5.71429 0,-25.71428 8.5714,-14.28572 20,-14.28571 2.8571,-14.28571 0,-17.14286 -14.2857,-122.85714 -14.2857,-31.42858 -8.5714,-14.28571 8.5714,-40 -11.4286,-22.85714 -5.7142,-20 z"
       id="area_4"
       inkscape:connector-curvature="0"
       inkscape:label="#path3072" />
    <text
       xml:space="preserve"
       style="font-size:152.51324463px;font-style:normal;font-weight:normal;line-height:125%;letter-spacing:0px;word-spacing:0px;fill:#000000;fill-opacity:1;stroke:none;font-family:Sans"
       x="544.80011"
       y="48.868031"
       id="navigation"
       sodipodi:linespacing="125%"
       transform="scale(1.0167962,0.98348123)"
       inkscape:label="#text3074"><tspan
         sodipodi:role="line"
         id="tspan3076"
         x="544.80011"
         y="48.868031">1 2 3 4</tspan></text>
  </g>
</svg>
