<?xml version="1.0" encoding="UTF-8" standalone="no"?>
<!-- Created with Inkscape (http://www.inkscape.org/) -->

<svg
   xmlns:dc="http://purl.org/dc/elements/1.1/"
   xmlns:cc="http://creativecommons.org/ns#"
   xmlns:rdf="http://www.w3.org/1999/02/22-rdf-syntax-ns#"
   xmlns:svg="http://www.w3.org/2000/svg"
   xmlns="http://www.w3.org/2000/svg"
   xmlns:xlink="http://www.w3.org/1999/xlink"
   xmlns:sodipodi="http://sodipodi.sourceforge.net/DTD/sodipodi-0.dtd"
   xmlns:inkscape="http://www.inkscape.org/namespaces/inkscape"
   width="799"
   height="533"
   id="svg2"
   version="1.1"
   inkscape:version="0.48.3.1 r9886"
   sodipodi:docname="Gham.svg">
  <defs
     id="defs4" />
  <sodipodi:namedview
     id="base"
     pagecolor="#ffffff"
     bordercolor="#666666"
     borderopacity="1.0"
     inkscape:pageopacity="0.0"
     inkscape:pageshadow="2"
     inkscape:zoom="0.70710678"
     inkscape:cx="529.35712"
     inkscape:cy="401.20849"
     inkscape:document-units="px"
     inkscape:current-layer="layer1"
     showgrid="false"
     fit-margin-top="0"
     fit-margin-left="0"
     fit-margin-right="0"
     fit-margin-bottom="0"
     inkscape:window-width="1317"
     inkscape:window-height="744"
     inkscape:window-x="49"
     inkscape:window-y="24"
     inkscape:window-maximized="1" />
  <metadata
     id="metadata7">
    <rdf:RDF>
      <cc:Work
         rdf:about="">
        <dc:format>image/svg+xml</dc:format>
        <dc:type
           rdf:resource="http://purl.org/dc/dcmitype/StillImage" />
        <dc:title></dc:title>
      </cc:Work>
    </rdf:RDF>
  </metadata>
  <g
     inkscape:label="Layer 1"
     inkscape:groupmode="layer"
     id="layer1"
     transform="translate(702.35712,-928.7193)">
    <image
       y="928.7193"
       x="-702.35712"
       id="image3194"
       xlink:href="file:///media/BLANK/04/Gham.jpg"
       height="533"
       width="799" />
    <path
       style="fill:none;stroke:#000000;stroke-width:1px;stroke-linecap:butt;stroke-linejoin:miter;stroke-opacity:1"
       d="m 247.48737,59.945563 c 0,0 -41.01219,14.142136 -51.61879,18.384777 -10.6066,4.24264 -14.14214,5.656854 -20.5061,14.142135 -6.36396,8.485285 -7.07107,7.071068 -8.48528,14.142135 -1.41421,7.07107 -2.12132,6.36396 1.41421,14.84924 3.53554,8.48528 16.97057,27.57717 16.97057,27.57717 l 18.38477,22.62741 c 0,0 9.19239,9.8995 17.67767,14.84925 8.48528,4.94974 9.19239,7.07106 22.62742,9.19239 13.43503,2.12132 13.43503,2.12132 24.04163,2.12132 10.6066,0 14.14214,-2.12132 19.09188,-2.82843 4.94975,-0.70711 5.65686,-0.70711 19.79899,-5.65686 14.14214,-4.94974 26.16295,-9.89949 34.64824,-15.55634 8.48528,-5.65686 17.67766,-12.72793 22.62741,-18.38478 4.94975,-5.65686 8.48528,-12.72792 8.48528,-16.26346 0,-3.53553 0,-7.77817 -2.12132,-13.43503 -2.12132,-5.65685 -14.14213,-18.38477 -14.14213,-18.38477 L 340.11836,88.936941 c 0,0 -5.65685,-5.656854 -16.97056,-16.970562 -11.31371,-11.313709 -12.72792,-9.899495 -22.62742,-12.727923 -9.89949,-2.828427 -11.31371,-3.535533 -21.2132,-3.535533 -9.8995,0 -16.26346,0.707106 -21.2132,1.414213 -4.94975,0.707107 -10.60661,2.828427 -10.60661,2.828427 z"
       id="area_5"
       inkscape:connector-curvature="0"
       transform="translate(-702.35712,928.7193)"
       inkscape:label="#path3216" />
    <path
       style="fill:none;stroke:#000000;stroke-width:1px;stroke-linecap:butt;stroke-linejoin:miter;stroke-opacity:1"
       d="m 263.04372,328.64614 c -7.77817,9.8995 -10.6066,13.43503 -12.02081,20.5061 -1.41422,7.07106 -2.12132,9.89949 -1.41422,16.97056 0.70711,7.07107 4.24264,13.43503 9.19239,21.2132 4.94975,7.77818 4.94975,9.8995 15.55635,18.38478 10.6066,8.48528 31.1127,12.72792 30.40559,13.43503 -0.7071,0.7071 22.62742,-4.24264 22.62742,-4.24264 l 13.43503,1.41421 c 0,0 9.19239,0.70711 14.14213,-0.70711 4.94975,-1.41421 7.77818,-5.65685 12.72793,-11.3137 4.94974,-5.65686 9.89949,-12.02082 9.89949,-21.21321 0,-9.19239 0,-9.19239 -0.70711,-14.14213 -0.7071,-4.94975 -2.82842,-4.24264 -6.36396,-9.19239 -3.53553,-4.94975 -11.31371,-9.8995 -14.14213,-14.14214 -2.82843,-4.24264 -18.38478,-14.14213 -18.38478,-14.14213 l -10.6066,-4.94975 -8.48528,-1.41421 -9.8995,-1.41422 -16.26345,-0.7071 -17.67767,2.12132 z"
       id="area_1"
       inkscape:connector-curvature="0"
       transform="translate(-702.35712,928.7193)"
       inkscape:label="#path3218" />
    <path
       style="fill:none;stroke:#000000;stroke-width:1px;stroke-linecap:butt;stroke-linejoin:miter;stroke-opacity:1"
       d="m 512.65242,323.69639 c -110.30866,4.24264 -120.20816,2.12132 -124.4508,4.24264 -4.24264,2.12132 -8.48528,7.07107 -8.48528,7.07107 l -1.41421,5.65686 0.7071,22.62741 0.70711,35.35534 c 0,0 -2.82843,18.38478 0.70711,23.33453 3.53553,4.94974 -5.65686,7.07106 10.6066,7.07106 16.26346,0 9.19239,2.82843 36.76955,0 27.57717,-2.82842 31.81981,-3.53553 31.81981,-3.53553 0,0 10.6066,-2.82843 19.09188,-2.82843 8.48528,0 9.8995,-2.12132 20.5061,-2.12132 10.6066,0 19.79899,-1.41421 22.62741,-1.41421 2.82843,0 6.36397,-3.53554 6.36397,-3.53554 l 1.41421,-6.36396 -2.12132,-14.14213 -1.41421,-16.26346 0,-13.43503 0,-8.48528 -1.41422,-7.07107 -0.70711,-4.94974 -1.41421,-10.60661 -2.12132,-4.24264 z"
       id="area_2"
       inkscape:connector-curvature="0"
       transform="translate(-702.35712,928.7193)"
       inkscape:label="#path3220" />
    <path
       style="fill:none;stroke:#000000;stroke-width:1px;stroke-linecap:butt;stroke-linejoin:miter;stroke-opacity:1"
       d="m 432.04224,218.33748 -42.4264,0.70711 -19.79899,0 c 0,0 -6.36396,0.70711 -16.97057,1.41421 -10.6066,0.70711 -12.02081,0.70711 -21.2132,4.24264 -9.19239,3.53554 -10.6066,4.24264 -14.14214,6.36396 -3.53553,2.12132 -7.07106,9.19239 -10.6066,12.72793 -3.53553,3.53553 -5.65685,13.43503 -7.07106,16.26345 -1.41422,2.82843 -5.65686,3.53554 -5.65686,13.43503 0,9.8995 -1.41421,17.67767 1.41421,24.04163 2.82843,6.36396 5.65686,12.72792 12.72793,15.55635 7.07106,2.82843 2.12132,4.24264 12.72792,6.36396 10.6066,2.12132 28.28427,4.94975 35.35534,4.94975 7.07107,0 34.64823,-0.70711 34.64823,-0.70711 l 41.01219,-0.7071 c 0,0 -10.6066,0.7071 7.07107,-0.70711 17.67767,-1.41421 38.18377,-4.94975 47.37616,-7.07107 9.19238,-2.12132 26.16295,-13.43503 29.69848,-16.97056 3.53553,-3.53554 4.94975,-12.72792 5.65685,-24.74874 0.70711,-12.02081 0,-7.77817 -3.53553,-16.26345 -3.53553,-8.48529 -8.48528,-15.55635 -12.02081,-19.79899 -3.53554,-4.24265 -12.02082,-10.60661 -14.84925,-10.60661 -2.82842,0 -10.6066,-4.94974 -13.43503,-4.94974 -2.82842,0 -11.3137,-2.82843 -15.55634,-2.82843 -4.24265,0 -14.14214,0 -14.14214,0 l -7.07107,-0.70711 -4.94975,0 z"
       id="area_3"
       inkscape:connector-curvature="0"
       transform="translate(-702.35712,928.7193)"
       inkscape:label="#path3222" />
    <path
       style="fill:none;stroke:#000000;stroke-width:1px;stroke-linecap:butt;stroke-linejoin:miter;stroke-opacity:1"
       d="m 545.88644,67.723738 -22.62742,19.79899 -27.57717,19.798992 c 0,0 -2.12132,0 -6.36396,4.94975 -4.24264,4.94974 -5.65685,9.19238 -7.77817,13.43502 -2.12132,4.24264 -0.70711,10.60661 1.41421,16.97057 2.12132,6.36396 13.43503,17.67767 13.43503,17.67767 0,0 2.12132,5.65685 7.07107,8.48528 4.94975,2.82842 0,-0.70711 16.26345,7.07107 16.26346,7.77817 23.33453,12.72792 31.81981,14.14213 8.48528,1.41421 14.84924,1.41421 24.04163,1.41421 9.19239,0 14.14214,0 18.38478,-1.41421 4.24264,-1.41421 23.33452,-17.67767 23.33452,-17.67767 l 29.69848,-26.87006 19.09189,-19.79899 0.7071,-7.07106 0,-3.53554 2.12133,-1.41421 1.41421,-2.82843 2.12132,-1.41421 c 0,0 0,4.94975 0,-1.41422 0,-6.36396 0,-10.606597 0,-10.606597 0,0 -1.41421,-3.535534 -6.36396,-6.363961 C 661.14484,88.229835 646.2956,79.037446 646.2956,79.037446 l -12.02082,-7.071067 -5.65685,0 -4.94975,-4.949748 -4.24264,-2.12132 -2.12132,-0.707107 -2.82843,0 -4.24264,-0.707107 -8.48528,-2.828427 -12.02081,-2.12132 -14.14214,0.707106 -4.94975,0 -3.53553,1.414214 -3.53554,0.707107 -3.53553,0.707107 -7.07107,4.24264 -2.82842,0.707107 z"
       id="area_4"
       inkscape:connector-curvature="0"
       transform="translate(-702.35712,928.7193)"
       inkscape:label="#path3224" />
    <text
       xml:space="preserve"
       style="font-size:58.72976685px;font-style:normal;font-weight:normal;line-height:125%;letter-spacing:0px;word-spacing:0px;fill:#000000;fill-opacity:1;stroke:none;font-family:Sans"
       x="-416.67432"
       y="1429.8564"
       id="navigation"
       sodipodi:linespacing="125%"
       inkscape:label="#text3226"
       transform="scale(0.99174267,1.0083261)"><tspan
         sodipodi:role="line"
         id="tspan3228"
         x="-416.67432"
         y="1429.8564">5 4 3 1 2</tspan></text>
  </g>
</svg>
