<?xml version="1.0" encoding="UTF-8" standalone="no"?>
<!-- Created with Inkscape (http://www.inkscape.org/) -->

<svg
   xmlns:dc="http://purl.org/dc/elements/1.1/"
   xmlns:cc="http://creativecommons.org/ns#"
   xmlns:rdf="http://www.w3.org/1999/02/22-rdf-syntax-ns#"
   xmlns:svg="http://www.w3.org/2000/svg"
   xmlns="http://www.w3.org/2000/svg"
   xmlns:xlink="http://www.w3.org/1999/xlink"
   xmlns:sodipodi="http://sodipodi.sourceforge.net/DTD/sodipodi-0.dtd"
   xmlns:inkscape="http://www.inkscape.org/namespaces/inkscape"
   id="svg2"
   version="1.1"
   inkscape:version="0.48.2 r9819"
   width="3000"
   height="2000"
   sodipodi:docname="Gmalt.jpg">
  <metadata
     id="metadata8">
    <rdf:RDF>
      <cc:Work
         rdf:about="">
        <dc:format>image/svg+xml</dc:format>
        <dc:type
           rdf:resource="http://purl.org/dc/dcmitype/StillImage" />
        <dc:title></dc:title>
      </cc:Work>
    </rdf:RDF>
  </metadata>
  <defs
     id="defs6" />
  <sodipodi:namedview
     pagecolor="#ffffff"
     bordercolor="#666666"
     borderopacity="1"
     objecttolerance="10"
     gridtolerance="10"
     guidetolerance="10"
     inkscape:pageopacity="0"
     inkscape:pageshadow="2"
     inkscape:window-width="1680"
     inkscape:window-height="988"
     id="namedview4"
     showgrid="false"
     inkscape:zoom="0.42933333"
     inkscape:cx="1011.7569"
     inkscape:cy="1163.9531"
     inkscape:window-x="-8"
     inkscape:window-y="-8"
     inkscape:window-maximized="1"
     inkscape:current-layer="svg2" />
  <image
     width="3000"
     height="2000"
     xlink:href="file:///F:/05/Gmalt.jpg"
     id="image10"
     x="0"
     y="0" />
  <path
     style="fill:none;stroke:#000000;stroke-width:1px;stroke-linecap:butt;stroke-linejoin:miter;stroke-opacity:1"
     d="m 512.42236,444.09938 11.64596,25.62112 -13.97515,53.57142 6.98758,181.67702 -2.3292,97.82609 -32.60869,156.0559 -48.91305,130.43477 51.24224,23.2919 48.91304,30.2795 81.52174,11.646 67.54659,-11.646 67.54658,13.9752 121.11801,-11.646 174.68949,4.6584 60.559,6.9876 16.3043,-9.3168 27.9503,-51.2422 32.6087,-4.6584 37.2671,11.646 30.2795,-552.01867 -13.9752,-62.88819 30.2795,-58.22982 -34.9378,0 L 1125,418.47826 l -81.5217,16.30435 -48.91308,30.2795 -74.53416,-2.32919 -93.16771,-16.30435 -62.88819,11.64596 -90.83851,-16.30435 -95.4969,0 -39.59627,18.63355 z"
     id="area_1"
     inkscape:connector-curvature="0"
     sodipodi:nodetypes="ccccccccccccccccccccccccccccccccc"
     inkscape:label="#path2987" />
  <path
     style="fill:none;stroke:#000000;stroke-width:1px;stroke-linecap:butt;stroke-linejoin:miter;stroke-opacity:1"
     d="m 1343.9441,404.5031 102.4845,-6.98757 79.1925,4.65838 46.5839,2.32919 60.559,-27.95031 0,37.26708 -30.2795,83.85094 23.2919,132.76397 20.9627,188.6646 6.9876,184.00622 11.646,62.8882 41.9254,20.9627 9.3168,32.6087 -149.0683,18.6336 -123.4472,4.6583 -186.3354,32.6087 -6.9876,-104.8136 30.2795,-174.68947 11.646,-167.70186 6.9875,-121.11801 9.3168,-97.82609 -20.9627,-41.92547 2.3292,-67.54658 z"
     id="area_2"
     inkscape:connector-curvature="0"
     inkscape:label="#path2989" />
  <path
     style="fill:none;stroke:#000000;stroke-width:1px;stroke-linecap:butt;stroke-linejoin:miter;stroke-opacity:1"
     d="m 1753.882,432.45341 83.8509,6.98758 93.1677,-2.32919 79.1926,-13.97516 11.6459,-4.65838 4.6584,79.19255 -4.6584,156.0559 -16.3043,225.93167 27.9503,30.27951 0,51.24223 34.9379,88.50928 6.9876,51.2423 -60.559,4.6584 c 0,0 -13.9752,13.9751 -37.2671,16.3043 -23.292,2.3292 -197.9814,2.3292 -197.9814,2.3292 l -93.1677,13.9752 -11.646,-11.646 46.5839,-9.3168 -9.3168,-34.9379 -41.9254,-27.9503 11.6459,-281.83227 0,-74.53416 -23.2919,-100.15528 16.3043,-46.58386 -30.2795,-46.58385 9.3168,-83.85093 z"
     id="area_3"
     inkscape:connector-curvature="0"
     inkscape:label="#path2991" />
  <path
     style="fill:none;stroke:#000000;stroke-width:1px;stroke-linecap:butt;stroke-linejoin:miter;stroke-opacity:1"
     d="m 2107.9192,474.37888 197.9814,53.57143 72.205,23.29192 11.646,11.64597 25.6211,-20.96274 16.3043,4.65839 6.9876,46.58385 37.2671,251.5528 6.9876,62.88819 20.9627,27.95032 -2.3292,58.22981 -139.7516,-11.64596 9.3168,18.63354 -93.1677,-32.6087 -111.8012,0 c 0,0 -67.5466,20.96273 -74.5342,9.31677 -6.9876,-11.64596 -9.3168,-274.84472 -9.3168,-274.84472 l -32.6087,-107.14286 23.292,-88.50931 z"
     id="area_4"
     inkscape:connector-curvature="0"
     sodipodi:nodetypes="cccccccccccccccscccc"
     inkscape:label="#path2993" />
  <path
     style="fill:none;stroke:#000000;stroke-width:1px;stroke-linecap:butt;stroke-linejoin:miter;stroke-opacity:1"
     d="m 2103.2609,1082.2981 4.6584,55.9007 37.267,46.5838 60.559,-16.3043 9.3168,-34.9379 23.2919,-11.646 34.9379,39.5963 79.1926,13.9751 41.9254,-11.6459 58.2299,-34.9379 58.2298,16.3043 53.5714,-6.9875 -41.9255,-74.5342 -58.2298,27.9503 -27.9503,-6.9876 -48.913,-48.913 -69.8758,0 -53.5714,20.9627 -30.2795,13.9752 -18.6336,11.6459 -34.9379,-4.6583 -48.913,-2.3292 z"
     id="area_5"
     inkscape:connector-curvature="0"
     inkscape:label="#path2995"
     sodipodi:nodetypes="ccccccccccccccccccccccc" />
  <text
     xml:space="preserve"
     style="font-size:144px;font-style:normal;font-weight:normal;line-height:125%;letter-spacing:0px;word-spacing:0px;fill:#000000;fill-opacity:1;stroke:none;font-family:Sans"
     x="894.40991"
     y="185.55901"
     id="text2997"
     sodipodi:linespacing="125%"><tspan
       sodipodi:role="line"
       id="tspan2999"></tspan></text>
  <text
     xml:space="preserve"
     style="font-size:144px;font-style:normal;font-weight:normal;line-height:125%;letter-spacing:0px;word-spacing:0px;fill:#000000;fill-opacity:1;stroke:none;font-family:Sans"
     x="929.34784"
     y="185.55901"
     id="navigation"
     sodipodi:linespacing="125%"
     inkscape:label="#text3001"><tspan
       sodipodi:role="line"
       id="tspan3003"
       x="929.34784"
       y="185.55901">1 2 3 4 5</tspan></text>
</svg>
