<?xml version="1.0" encoding="UTF-8" standalone="no"?>
<!-- Created with Inkscape (http://www.inkscape.org/) -->

<svg
   xmlns:dc="http://purl.org/dc/elements/1.1/"
   xmlns:cc="http://creativecommons.org/ns#"
   xmlns:rdf="http://www.w3.org/1999/02/22-rdf-syntax-ns#"
   xmlns:svg="http://www.w3.org/2000/svg"
   xmlns="http://www.w3.org/2000/svg"
   xmlns:xlink="http://www.w3.org/1999/xlink"
   xmlns:sodipodi="http://sodipodi.sourceforge.net/DTD/sodipodi-0.dtd"
   xmlns:inkscape="http://www.inkscape.org/namespaces/inkscape"
   id="svg2"
   version="1.1"
   inkscape:version="0.48.2 r9819"
   width="3000"
   height="2000"
   sodipodi:docname="Gmars.jpg">
  <metadata
     id="metadata8">
    <rdf:RDF>
      <cc:Work
         rdf:about="">
        <dc:format>image/svg+xml</dc:format>
        <dc:type
           rdf:resource="http://purl.org/dc/dcmitype/StillImage" />
        <dc:title></dc:title>
      </cc:Work>
    </rdf:RDF>
  </metadata>
  <defs
     id="defs6" />
  <sodipodi:namedview
     pagecolor="#ffffff"
     bordercolor="#666666"
     borderopacity="1"
     objecttolerance="10"
     gridtolerance="10"
     guidetolerance="10"
     inkscape:pageopacity="0"
     inkscape:pageshadow="2"
     inkscape:window-width="1680"
     inkscape:window-height="988"
     id="namedview4"
     showgrid="false"
     inkscape:zoom="0.60716902"
     inkscape:cx="1660.7051"
     inkscape:cy="1871.3007"
     inkscape:window-x="-8"
     inkscape:window-y="-8"
     inkscape:window-maximized="1"
     inkscape:current-layer="svg2" />
  <image
     width="3000"
     height="2000"
     xlink:href="file:///F:/05/Gmars.jpg"
     id="image10"
     x="0"
     y="0" />
  <path
     style="fill:none;stroke:#000000;stroke-width:1px;stroke-linecap:butt;stroke-linejoin:miter;stroke-opacity:1"
     d="m 1035.9554,415.59769 -8.235,19.76386 -14.8229,16.46987 0,44.46868 -9.8819,51.05662 41.1747,36.23373 14.8229,19.76386 32.9397,21.41084 184.4627,1.64699 426.5698,-6.58796 184.4627,0 26.3518,-1.64698 34.5867,-14.82289 14.8229,-6.58796 9.8819,-14.82289 23.0579,-13.1759 24.7048,-44.46867 -24.7048,-42.82168 23.0578,-39.52771 -23.0578,16.46988 -19.7639,-18.11687 -556.6819,-1.64699 -265.165,8.23494 -69.1735,-4.94096 -21.4109,8.23494 -13.1759,6.58795 -9.8819,-9.88193 z"
     id="area_1"
     inkscape:connector-curvature="0"
     inkscape:label="#path2987" />
  <path
     style="fill:none;stroke:#000000;stroke-width:1px;stroke-linecap:butt;stroke-linejoin:miter;stroke-opacity:1"
     d="m 1253.3578,814.16875 349.1614,6.58795 204.2265,-6.58795 37.8807,0 6.5879,-49.40963 11.529,-18.11687 -8.235,-62.58554 -3.294,-21.41084 18.1169,-24.70482 -6.5879,-23.05783 -9.882,23.05783 -125.171,4.94096 -307.9868,1.64699 -113.6421,0 -52.7036,-3.29397 -11.529,9.88192 -13.1759,-14.82289 -13.1759,3.29398 -1.647,-13.1759 -11.5289,19.76385 6.588,36.23373 0,60.93855 4.9409,31.29277 14.8229,29.64578 z"
     id="area_2"
     inkscape:connector-curvature="0"
     sodipodi:nodetypes="ccccccccccccccccccccccccc"
     inkscape:label="#path2989" />
  <path
     style="fill:none;stroke:#000000;stroke-width:1px;stroke-linecap:butt;stroke-linejoin:miter;stroke-opacity:1"
     d="m 1319.2373,837.22658 80.7024,11.52892 144.9349,-3.29398 163.0518,1.64699 67.5265,1.64699 41.1747,-9.88193 3.294,-8.23494 34.5867,21.41084 0,57.64458 -4.9409,79.05541 -1.647,19.76384 -29.6458,6.588 -11.529,-11.529 -46.1156,18.1169 -31.2928,6.588 -291.5168,-1.647 -69.1735,3.294 -34.5867,-6.588 -37.8808,-8.2349 -14.8229,4.9409 -34.5867,-6.5879 14.8229,-116.93616 9.8819,-51.05662 6.588,-27.99879 z"
     id="area_3"
     inkscape:connector-curvature="0"
     sodipodi:nodetypes="ccccccccccccccccccccccccc"
     inkscape:label="#path2991" />
  <path
     style="fill:none;stroke:#000000;stroke-width:1px;stroke-linecap:butt;stroke-linejoin:miter;stroke-opacity:1"
     d="m 1146.3035,1029.9242 41.1747,14.8228 37.8808,0 209.1674,-1.6469 55.9976,-1.647 97.1723,0 -3.294,60.9385 -14.8229,60.9386 6.588,37.8807 -44.4687,9.8819 -36.2337,-9.8819 -13.1759,6.5879 -281.635,-4.9409 -34.5867,0 -39.5277,32.9397 -13.1759,-26.3518 -21.4109,-82.3494 4.941,-77.4084 19.7639,-23.0578 z"
     id="area_4"
     inkscape:connector-curvature="0"
     inkscape:label="#path2993" />
  <path
     style="fill:none;stroke:#000000;stroke-width:1px;stroke-linecap:butt;stroke-linejoin:miter;stroke-opacity:1"
     d="m 1658.5168,1074.3928 -51.0567,37.8808 0,26.3518 59.2916,21.4108 23.0578,-21.4108 8.235,3.2939 13.1759,44.4687 41.1747,3.294 172.9337,-26.3518 42.8217,-39.5277 13.1759,-14.8229 c 0,0 14.8229,-3.294 21.4108,-3.294 6.588,0 13.1759,-24.7048 13.1759,-24.7048 l 9.882,-57.6446 -72.4675,-13.1759 -13.1759,57.6446 18.1168,16.4699 -16.4698,8.2349 c 0,0 -24.7048,-36.2337 -31.2928,-36.2337 -6.5879,0 -125.1711,4.9409 -125.1711,4.9409 l -57.6445,0 -31.2928,21.4109 -6.588,21.4108 z"
     id="area_5"
     inkscape:connector-curvature="0"
     inkscape:label="#path2995" />
  <text
     xml:space="preserve"
     style="font-size:144px;font-style:normal;font-weight:normal;line-height:125%;letter-spacing:0px;word-spacing:0px;fill:#000000;fill-opacity:1;stroke:none;font-family:Sans"
     x="991.48669"
     y="226.19409"
     id="navigation"
     sodipodi:linespacing="125%"
     inkscape:label="#text2997"><tspan
       sodipodi:role="line"
       id="tspan2999"
       x="991.48669"
       y="226.19409">1 2 3 4 5</tspan></text>
</svg>
