<?xml version="1.0" encoding="UTF-8" standalone="no"?>
<!-- Created with Inkscape (http://www.inkscape.org/) -->

<svg
   xmlns:dc="http://purl.org/dc/elements/1.1/"
   xmlns:cc="http://creativecommons.org/ns#"
   xmlns:rdf="http://www.w3.org/1999/02/22-rdf-syntax-ns#"
   xmlns:svg="http://www.w3.org/2000/svg"
   xmlns="http://www.w3.org/2000/svg"
   xmlns:xlink="http://www.w3.org/1999/xlink"
   xmlns:sodipodi="http://sodipodi.sourceforge.net/DTD/sodipodi-0.dtd"
   xmlns:inkscape="http://www.inkscape.org/namespaces/inkscape"
   id="svg2"
   version="1.1"
   inkscape:version="0.48.2 r9819"
   width="3000"
   height="2000"
   sodipodi:docname="Gmbut.jpg">
  <metadata
     id="metadata8">
    <rdf:RDF>
      <cc:Work
         rdf:about="">
        <dc:format>image/svg+xml</dc:format>
        <dc:type
           rdf:resource="http://purl.org/dc/dcmitype/StillImage" />
        <dc:title></dc:title>
      </cc:Work>
    </rdf:RDF>
  </metadata>
  <defs
     id="defs6" />
  <sodipodi:namedview
     pagecolor="#ffffff"
     bordercolor="#666666"
     borderopacity="1"
     objecttolerance="10"
     gridtolerance="10"
     guidetolerance="10"
     inkscape:pageopacity="0"
     inkscape:pageshadow="2"
     inkscape:window-width="1680"
     inkscape:window-height="988"
     id="namedview4"
     showgrid="false"
     inkscape:zoom="0.42933333"
     inkscape:cx="1165.1574"
     inkscape:cy="1262.7383"
     inkscape:window-x="-8"
     inkscape:window-y="-8"
     inkscape:window-maximized="1"
     inkscape:current-layer="svg2" />
  <image
     width="3000"
     height="2000"
     xlink:href="file:///F:/05/Gmbut.jpg"
     id="image10"
     x="0"
     y="0" />
  <path
     style="fill:none;stroke:#000000;stroke-width:1px;stroke-linecap:butt;stroke-linejoin:miter;stroke-opacity:1"
     d="m 521.73913,432.45341 -20.96273,107.14286 -23.29193,25.62112 -81.52174,477.48451 18.63354,172.3602 4.65839,20.9627 193.32298,-18.6335 69.87578,-4.6584 333.07458,-9.3168 97.826,-2.3291 2.3292,-174.6895 16.3044,-93.16769 -20.9628,-88.50931 6.9876,-144.40994 -4.6584,-149.06833 -4.6583,-111.80123 -197.98141,4.65838 -46.58385,0 -39.59628,41.92546 -48.91304,9.31677 z"
     id="area_1"
     inkscape:connector-curvature="0"
     sodipodi:nodetypes="ccccccccccccccccccccc"
     inkscape:label="#path2987" />
  <path
     style="fill:none;stroke:#000000;stroke-width:1px;stroke-linecap:butt;stroke-linejoin:miter;stroke-opacity:1"
     d="m 1201.8633,530.2795 c 0,0 39.5963,-4.65838 62.8883,-4.65838 23.2919,0 109.472,2.32919 109.472,2.32919 l 109.4721,-11.64596 123.4472,-2.3292 34.9378,0 9.3168,104.81367 0,135.09317 -18.6335,83.85093 -13.9752,39.59627 16.3044,46.58385 -16.3044,55.90062 34.9379,90.83854 32.6087,11.6459 -16.3043,69.8758 -125.7764,-11.646 -58.2299,-11.6459 -51.2422,6.9876 -95.4969,-13.9752 -86.1801,0 -51.2422,-16.3043 -53.5715,18.6335 -13.9751,-74.5342 18.6335,0 20.9627,-146.73909 -13.9751,-202.63975 2.3292,-128.10559 -4.6584,-37.26709 z"
     id="area_2"
     inkscape:connector-curvature="0"
     sodipodi:nodetypes="csccccccccccccccccccccccccccc"
     inkscape:label="#path2989" />
  <path
     style="fill:none;stroke:#000000;stroke-width:1px;stroke-linecap:butt;stroke-linejoin:miter;stroke-opacity:1"
     d="m 1802.795,602.48447 60.559,10e-6 160.7143,-2.3292 48.9131,-6.98758 11.6459,74.53416 13.9752,195.65218 20.9627,172.36026 27.9503,48.913 -4.6584,23.292 -223.6024,-16.3044 -86.1802,-4.6584 -20.9627,16.3044 -123.4472,-18.6336 -13.9752,-81.5217 0,-123.44722 -11.6459,-118.78882 -6.9876,-149.06832 41.9255,-2.32919 25.6211,6.98758 z"
     id="area_3"
     inkscape:connector-curvature="0"
     sodipodi:nodetypes="cccccccccccccccccccc"
     inkscape:label="#path2991" />
  <path
     style="fill:none;stroke:#000000;stroke-width:1px;stroke-linecap:butt;stroke-linejoin:miter;stroke-opacity:1"
     d="m 2254.6584,621.11801 225.9317,-2.32919 34.9379,-4.65839 18.6335,202.63976 -2.3292,139.75155 20.9627,58.22986 6.9876,44.2546 -142.0807,9.3168 -97.8261,18.6335 -165.3727,0 -2.3292,-46.5838 16.3044,-13.9752 -18.6336,-267.85713 -4.6584,-102.48447 -18.6335,-27.95031 65.2174,0 z"
     id="area_4"
     inkscape:connector-curvature="0"
     inkscape:label="#path2993" />
  <text
     xml:space="preserve"
     style="font-size:144px;font-style:normal;font-weight:normal;line-height:125%;letter-spacing:0px;word-spacing:0px;fill:#000000;fill-opacity:1;stroke:none;font-family:Sans"
     x="943.323"
     y="164.59627"
     id="navigation"
     sodipodi:linespacing="125%"
     inkscape:label="#text2995"><tspan
       sodipodi:role="line"
       id="tspan2997"
       x="943.323"
       y="164.59627">1 2 3 4</tspan></text>
</svg>
