<?xml version="1.0" encoding="UTF-8" standalone="no"?>
<!-- Created with Inkscape (http://www.inkscape.org/) -->

<svg
   xmlns:dc="http://purl.org/dc/elements/1.1/"
   xmlns:cc="http://creativecommons.org/ns#"
   xmlns:rdf="http://www.w3.org/1999/02/22-rdf-syntax-ns#"
   xmlns:svg="http://www.w3.org/2000/svg"
   xmlns="http://www.w3.org/2000/svg"
   xmlns:xlink="http://www.w3.org/1999/xlink"
   xmlns:sodipodi="http://sodipodi.sourceforge.net/DTD/sodipodi-0.dtd"
   xmlns:inkscape="http://www.inkscape.org/namespaces/inkscape"
   id="svg2"
   version="1.1"
   inkscape:version="0.48.2 r9819"
   width="3000"
   height="2000"
   sodipodi:docname="Gmkyb.jpg">
  <metadata
     id="metadata8">
    <rdf:RDF>
      <cc:Work
         rdf:about="">
        <dc:format>image/svg+xml</dc:format>
        <dc:type
           rdf:resource="http://purl.org/dc/dcmitype/StillImage" />
        <dc:title></dc:title>
      </cc:Work>
    </rdf:RDF>
  </metadata>
  <defs
     id="defs6" />
  <sodipodi:namedview
     pagecolor="#ffffff"
     bordercolor="#666666"
     borderopacity="1"
     objecttolerance="10"
     gridtolerance="10"
     guidetolerance="10"
     inkscape:pageopacity="0"
     inkscape:pageshadow="2"
     inkscape:window-width="1680"
     inkscape:window-height="988"
     id="namedview4"
     showgrid="false"
     inkscape:zoom="0.42933333"
     inkscape:cx="1403.9835"
     inkscape:cy="2130.7975"
     inkscape:window-x="-8"
     inkscape:window-y="-8"
     inkscape:window-maximized="1"
     inkscape:current-layer="svg2" />
  <image
     width="3000"
     height="2000"
     xlink:href="file:///F:/05/Gmkyb.jpg"
     id="image10"
     x="0"
     y="0" />
  <path
     style="fill:none;stroke:#000000;stroke-width:1px;stroke-linecap:butt;stroke-linejoin:miter;stroke-opacity:1"
     d="m 1329.969,395.18634 -111.8013,11.64596 -86.1801,2.32919 -135.09319,27.95031 -97.82609,0 -142.08074,0 -34.93789,-2.32919 -6.98758,100.15528 27.95031,102.48447 -13.97515,55.90062 -55.90062,379.65842 -6.98758,34.9379 -23.29193,25.6211 -6.98757,67.5466 177.01863,11.6459 293.4783,6.9876 209.6273,4.6584 4.6584,-69.8758 -18.6336,-323.75776 9.3168,-237.57764 23.2919,-76.86335 z"
     id="area_1"
     inkscape:connector-curvature="0"
     sodipodi:nodetypes="cccccccccccccccccccccc"
     inkscape:label="#path2987" />
  <path
     style="fill:none;stroke:#000000;stroke-width:1px;stroke-linecap:butt;stroke-linejoin:miter;stroke-opacity:1"
     d="m 1446.4286,555.90062 48.913,20.96273 65.2174,6.98758 93.1677,2.32919 62.8882,18.63354 81.5217,-6.98757 107.1429,-2.3292 9.3168,391.30435 16.3043,67.54656 -4.6584,48.9131 -142.0807,2.3292 -48.9131,-16.3044 -100.1552,11.646 -207.2982,16.3043 -4.6583,-62.8882 25.6211,-93.16768 -13.9752,-193.32298 6.9876,-102.48447 z"
     id="area_2"
     inkscape:connector-curvature="0"
     sodipodi:nodetypes="ccccccccccccccccccc"
     inkscape:label="#path2989" />
  <path
     style="fill:none;stroke:#000000;stroke-width:1px;stroke-linecap:butt;stroke-linejoin:miter;stroke-opacity:1"
     d="m 2026.3975,637.42236 72.205,0 193.323,9.31677 90.8385,-6.98758 34.9379,286.49068 39.5962,93.16767 2.3292,62.8882 -246.8944,9.3168 -137.4223,-16.3043 z"
     id="area_3"
     inkscape:connector-curvature="0"
     sodipodi:nodetypes="cccccccccc"
     inkscape:label="#path2991" />
  <text
     xml:space="preserve"
     style="font-size:144px;font-style:normal;font-weight:normal;line-height:125%;letter-spacing:0px;word-spacing:0px;fill:#000000;fill-opacity:1;stroke:none;font-family:Sans"
     x="1180.9006"
     y="171.58385"
     id="navigation"
     sodipodi:linespacing="125%"
     inkscape:label="#text2993"><tspan
       sodipodi:role="line"
       id="tspan2995"
       x="1180.9006"
       y="171.58385">1 2 3</tspan></text>
</svg>
