<?xml version="1.0" encoding="UTF-8" standalone="no"?>
<!-- Created with Inkscape (http://www.inkscape.org/) -->

<svg
   xmlns:dc="http://purl.org/dc/elements/1.1/"
   xmlns:cc="http://creativecommons.org/ns#"
   xmlns:rdf="http://www.w3.org/1999/02/22-rdf-syntax-ns#"
   xmlns:svg="http://www.w3.org/2000/svg"
   xmlns="http://www.w3.org/2000/svg"
   xmlns:xlink="http://www.w3.org/1999/xlink"
   xmlns:sodipodi="http://sodipodi.sourceforge.net/DTD/sodipodi-0.dtd"
   xmlns:inkscape="http://www.inkscape.org/namespaces/inkscape"
   id="svg2"
   version="1.1"
   inkscape:version="0.48.2 r9819"
   width="3000"
   height="2000"
   sodipodi:docname="Gmlky.jpg">
  <metadata
     id="metadata8">
    <rdf:RDF>
      <cc:Work
         rdf:about="">
        <dc:format>image/svg+xml</dc:format>
        <dc:type
           rdf:resource="http://purl.org/dc/dcmitype/StillImage" />
        <dc:title></dc:title>
      </cc:Work>
    </rdf:RDF>
  </metadata>
  <defs
     id="defs6" />
  <sodipodi:namedview
     pagecolor="#ffffff"
     bordercolor="#666666"
     borderopacity="1"
     objecttolerance="10"
     gridtolerance="10"
     guidetolerance="10"
     inkscape:pageopacity="0"
     inkscape:pageshadow="2"
     inkscape:window-width="1680"
     inkscape:window-height="988"
     id="namedview4"
     showgrid="false"
     inkscape:zoom="0.42933333"
     inkscape:cx="1506.6906"
     inkscape:cy="1647.1188"
     inkscape:window-x="-8"
     inkscape:window-y="-8"
     inkscape:window-maximized="1"
     inkscape:current-layer="svg2" />
  <image
     width="3000"
     height="2000"
     xlink:href="file:///F:/05/Gmlky.jpg"
     id="image10"
     x="0"
     y="0" />
  <path
     style="fill:none;stroke:#000000;stroke-width:1px;stroke-linecap:butt;stroke-linejoin:miter;stroke-opacity:1"
     d="m 577.63975,649.06832 -9.31677,72.20497 -25.62112,65.21739 2.3292,95.4969 -2.3292,55.90062 -11.64596,41.92546 -18.63354,88.50934 -23.29192,76.8633 100.15527,6.9876 90.83851,4.6584 30.27951,-13.9752 81.52174,13.9752 41.92546,-16.3044 160.71429,16.3044 55.90058,-4.6584 11.646,-288.81986 34.9379,-184.00622 -4.6584,-39.59627 -370.34161,-4.65838 -30.2795,13.97515 z"
     id="area_4"
     inkscape:connector-curvature="0"
     sodipodi:nodetypes="ccccccccccccccccccccc"
     inkscape:label="#path2987" />
  <path
     style="fill:none;stroke:#000000;stroke-width:1px;stroke-linecap:butt;stroke-linejoin:miter;stroke-opacity:1"
     d="m 1176.2422,518.63354 -6.9875,104.81366 39.5962,25.62112 498.4472,-2.32919 314.441,-2.32919 27.9503,-23.29193 -6.9875,-123.4472 -25.6212,9.31677 -493.7888,4.65838 -279.5031,2.32919 -37.2671,-2.32919 -16.3043,20.96273 z"
     id="area_1"
     inkscape:connector-curvature="0"
     inkscape:label="#path2989"
     sodipodi:nodetypes="ccccccccccccc" />
  <path
     style="fill:none;stroke:#000000;stroke-width:1px;stroke-linecap:butt;stroke-linejoin:miter;stroke-opacity:1"
     d="m 1299.6894,679.34782 13.9752,111.80125 41.9255,55.90062 423.913,6.98758 20.9627,-4.65839 30.2795,-2.32919 16.3044,-41.92547 -4.6584,-83.85093 -34.9379,-13.97515 -48.913,9.31677 -253.882,-9.31677 -125.7764,-9.31677 -25.6211,13.97515 z"
     id="area_2"
     inkscape:connector-curvature="0"
     sodipodi:nodetypes="cccccccccccccc"
     inkscape:label="#path2991" />
  <path
     style="fill:none;stroke:#000000;stroke-width:1px;stroke-linecap:butt;stroke-linejoin:miter;stroke-opacity:1"
     d="m 1355.5901,879.65838 -16.3044,130.43482 -4.6584,58.2298 132.764,-6.9876 c 0,0 244.5652,2.3292 253.882,2.3292 9.3168,0 67.5466,13.9752 67.5466,13.9752 l 30.2795,-27.9504 -23.2919,-95.49685 -27.9504,-62.8882 -37.267,-6.98758 9.3167,27.95031 -249.2236,-6.98758 -53.5714,-4.65838 -46.5838,-20.96274 z"
     id="area_3"
     inkscape:connector-curvature="0"
     inkscape:label="#path2993" />
  <path
     style="fill:none;stroke:#000000;stroke-width:1px;stroke-linecap:butt;stroke-linejoin:miter;stroke-opacity:1"
     d="m 1912.2671,711.95652 18.6335,121.11801 13.9752,93.1677 -6.9876,74.53417 4.6584,34.9379 90.8385,-11.646 125.7764,-34.93787 41.9255,-20.96273 18.6335,25.62112 48.913,-13.97516 116.4597,18.63354 30.2795,11.646 41.9254,-16.30438 -30.2795,-102.48447 -2.3292,-93.16771 13.9752,-41.92546 -13.9752,-44.25466 -116.4596,20.96273 -104.8136,-4.65838 -53.5715,-27.95031 -86.1801,18.63354 -102.4845,-9.31677 z"
     id="area_5"
     inkscape:connector-curvature="0"
     inkscape:label="#path2995" />
  <text
     xml:space="preserve"
     style="font-size:144px;font-style:normal;font-weight:normal;line-height:125%;letter-spacing:0px;word-spacing:0px;fill:#000000;fill-opacity:1;stroke:none;font-family:Sans"
     x="899.0683"
     y="278.72672"
     id="navigation"
     sodipodi:linespacing="125%"
     inkscape:label="#text2997"><tspan
       sodipodi:role="line"
       id="tspan2999"
       x="899.0683"
       y="278.72672">1 4 2 5 3</tspan></text>
</svg>
