<?xml version="1.0" encoding="UTF-8" standalone="no"?>
<!-- Created with Inkscape (http://www.inkscape.org/) -->

<svg
   xmlns:dc="http://purl.org/dc/elements/1.1/"
   xmlns:cc="http://creativecommons.org/ns#"
   xmlns:rdf="http://www.w3.org/1999/02/22-rdf-syntax-ns#"
   xmlns:svg="http://www.w3.org/2000/svg"
   xmlns="http://www.w3.org/2000/svg"
   xmlns:xlink="http://www.w3.org/1999/xlink"
   xmlns:sodipodi="http://sodipodi.sourceforge.net/DTD/sodipodi-0.dtd"
   xmlns:inkscape="http://www.inkscape.org/namespaces/inkscape"
   id="svg2"
   version="1.1"
   inkscape:version="0.48.2 r9819"
   width="799"
   height="533"
   sodipodi:docname="Gmlk04.jpg">
  <metadata
     id="metadata8">
    <rdf:RDF>
      <cc:Work
         rdf:about="">
        <dc:format>image/svg+xml</dc:format>
        <dc:type
           rdf:resource="http://purl.org/dc/dcmitype/StillImage" />
        <dc:title></dc:title>
      </cc:Work>
    </rdf:RDF>
  </metadata>
  <defs
     id="defs6" />
  <sodipodi:namedview
     pagecolor="#ffffff"
     bordercolor="#666666"
     borderopacity="1"
     objecttolerance="10"
     gridtolerance="10"
     guidetolerance="10"
     inkscape:pageopacity="0"
     inkscape:pageshadow="2"
     inkscape:window-width="1680"
     inkscape:window-height="988"
     id="namedview4"
     showgrid="false"
     inkscape:zoom="1.1398668"
     inkscape:cx="343.28814"
     inkscape:cy="430.61202"
     inkscape:window-x="-8"
     inkscape:window-y="-8"
     inkscape:window-maximized="1"
     inkscape:current-layer="svg2" />
  <image
     width="799"
     height="533"
     xlink:href="file:///F:/05/Gmlk04.jpg"
     id="image10"
     x="0"
     y="0" />
  <path
     style="fill:none;stroke:#000000;stroke-width:1px;stroke-linecap:butt;stroke-linejoin:miter;stroke-opacity:1"
     d="m 76.324711,125.93487 -13.159433,21.93239 9.650251,31.58264 33.337231,130.71704 12.28214,42.11018 17.54591,13.15943 25.44157,3.50919 24.56427,-7.89566 22.80969,-20.1778 6.14106,-14.91402 -4.38647,-14.91403 -22.80969,-156.1586 c 0,0 -2.84257,-18.37716 -3.50918,-21.93239 -2.63189,-14.03673 -19.3005,-20.1778 -19.3005,-20.1778 l -35.09182,-8.77295 -34.214527,8.77296 c 0,0 -21.055093,11.40483 -19.300502,13.15942 z"
     id="area_1"
     inkscape:connector-curvature="0"
     sodipodi:nodetypes="ccccccccccccscccc"
     inkscape:label="#path2987" />
  <path
     style="fill:none;stroke:#000000;stroke-width:1px;stroke-linecap:butt;stroke-linejoin:miter;stroke-opacity:1"
     d="m 317.58098,103.12519 31.58264,9.65025 18.42321,21.93239 0,14.91403 5.26377,125.45326 5.26377,56.14691 -11.40484,19.3005 -14.03673,14.03673 -29.82805,5.26377 -34.21452,-11.40484 -10.52755,-20.1778 -28.07346,-188.61853 5.26378,-22.80969 23.68698,-16.66861 z"
     id="area_2"
     inkscape:connector-curvature="0"
     sodipodi:nodetypes="ccccccccccccccc"
     inkscape:label="#path2989" />
  <path
     style="fill:none;stroke:#000000;stroke-width:1px;stroke-linecap:butt;stroke-linejoin:miter;stroke-opacity:1"
     d="m 446.54342,115.40733 -14.91402,17.54591 1.75459,27.19616 7.01836,174.58181 16.66862,19.3005 22.80968,7.01837 19.3005,0 23.68698,-7.01837 13.15944,-13.15943 2.63188,-8.77296 4.38648,-140.36728 3.50918,-44.74207 0,-17.54591 -26.31886,-21.05509 -29.82805,-7.89566 -33.33723,8.77295 z"
     id="area_3"
     inkscape:connector-curvature="0"
     sodipodi:nodetypes="ccccccccccccccccc"
     inkscape:label="#path2991" />
  <path
     style="fill:none;stroke:#000000;stroke-width:1px;stroke-linecap:butt;stroke-linejoin:miter;stroke-opacity:1"
     d="m 685.16781,102.2479 23.68697,6.14107 19.30051,15.79131 14.03672,22.80969 -6.14106,21.05509 -25.44157,137.7354 -8.77296,39.4783 -6.14107,16.66861 -21.05509,6.14107 -31.58264,0 -25.44157,-18.4232 -11.40484,-20.1778 11.40484,-185.98665 0.8773,-15.79132 22.80968,-20.1778 19.3005,-5.26377 z"
     id="area_4"
     inkscape:connector-curvature="0"
     sodipodi:nodetypes="ccccccccccccccccc"
     inkscape:label="#path2993" />
  <text
     xml:space="preserve"
     style="font-size:56px;font-style:normal;font-weight:normal;line-height:125%;letter-spacing:0px;word-spacing:0px;fill:#000000;fill-opacity:1;stroke:none;font-family:Sans"
     x="251.78381"
     y="66.278778"
     id="navigation"
     sodipodi:linespacing="125%"
     inkscape:label="#text2995"><tspan
       sodipodi:role="line"
       id="tspan2997"
       x="251.78381"
       y="66.278778">1 2 3 4</tspan></text>
</svg>
