<?xml version="1.0" encoding="UTF-8" standalone="no"?>
<!-- Created with Inkscape (http://www.inkscape.org/) -->

<svg
   xmlns:dc="http://purl.org/dc/elements/1.1/"
   xmlns:cc="http://creativecommons.org/ns#"
   xmlns:rdf="http://www.w3.org/1999/02/22-rdf-syntax-ns#"
   xmlns:svg="http://www.w3.org/2000/svg"
   xmlns="http://www.w3.org/2000/svg"
   xmlns:xlink="http://www.w3.org/1999/xlink"
   xmlns:sodipodi="http://sodipodi.sourceforge.net/DTD/sodipodi-0.dtd"
   xmlns:inkscape="http://www.inkscape.org/namespaces/inkscape"
   id="svg2"
   version="1.1"
   inkscape:version="0.48.2 r9819"
   width="3000"
   height="2000"
   sodipodi:docname="New document 1">
  <metadata
     id="metadata8">
    <rdf:RDF>
      <cc:Work
         rdf:about="">
        <dc:format>image/svg+xml</dc:format>
        <dc:type
           rdf:resource="http://purl.org/dc/dcmitype/StillImage" />
        <dc:title></dc:title>
      </cc:Work>
    </rdf:RDF>
  </metadata>
  <defs
     id="defs6" />
  <sodipodi:namedview
     pagecolor="#ffffff"
     bordercolor="#666666"
     borderopacity="1"
     objecttolerance="10"
     gridtolerance="10"
     guidetolerance="10"
     inkscape:pageopacity="0"
     inkscape:pageshadow="2"
     inkscape:window-width="1680"
     inkscape:window-height="988"
     id="namedview4"
     showgrid="false"
     inkscape:zoom="0.42933333"
     inkscape:cx="2107.7505"
     inkscape:cy="577.9135"
     inkscape:window-x="-8"
     inkscape:window-y="-8"
     inkscape:window-maximized="1"
     inkscape:current-layer="svg2" />
  <image
     width="3000"
     height="2000"
     xlink:href="file:///F:/Gprin.jpg"
     id="image10"
     x="0"
     y="0" />
  <path
     style="fill:none;stroke:#000000;stroke-width:1px;stroke-linecap:butt;stroke-linejoin:miter;stroke-opacity:1"
     d="m 1141.3043,99.37888 111.8013,0 88.5093,27.95031 46.5839,51.24224 23.2919,58.22981 -9.3168,81.52174 9.3168,493.78882 0,209.6273 -20.9627,65.2174 -81.5218,58.2298 -86.1801,9.3168 -79.1926,-30.2795 -46.5838,-41.9255 -18.6335,-65.2174 -76.8634,-652.17387 -25.62112,-107.14286 2.32919,-51.24223 58.22983,-60.55901 z"
     id="area_1"
     inkscape:connector-curvature="0"
     sodipodi:nodetypes="ccccccccccccccccccc"
     inkscape:label="#path2987" />
  <path
     style="fill:none;stroke:#000000;stroke-width:1px;stroke-linecap:butt;stroke-linejoin:miter;stroke-opacity:1"
     d="m 1611.8012,709.62733 c -9.3167,0 74.5342,-39.59628 74.5342,-39.59628 l 86.1801,-2.32919 79.1926,23.29193 53.5714,51.24223 27.9503,48.91304 -16.3043,100.15529 -20.9628,174.68945 -23.2919,55.9006 -65.2174,44.2547 -48.913,13.9751 -86.1801,-11.6459 -72.205,-44.2547 -30.2795,-55.9006 -2.3292,-60.559 9.3168,-135.09319 -16.3044,-79.19255 13.9752,-46.58385 z"
     id="area_2"
     inkscape:connector-curvature="0"
     sodipodi:nodetypes="ccccccccccccccccccc"
     inkscape:label="#path2989" />
  <text
     xml:space="preserve"
     style="font-size:144px;font-style:normal;font-weight:normal;line-height:125%;letter-spacing:0px;word-spacing:0px;fill:#000000;fill-opacity:1;stroke:none;font-family:Sans"
     x="1763.1989"
     y="329.96893"
     id="navigation"
     sodipodi:linespacing="125%"
     inkscape:label="#text2991"><tspan
       sodipodi:role="line"
       id="tspan2993"
       x="1763.1989"
       y="329.96893">1 2</tspan></text>
</svg>
