<?xml version="1.0" encoding="UTF-8" standalone="no"?>
<!-- Created with Inkscape (http://www.inkscape.org/) -->

<svg
   xmlns:dc="http://purl.org/dc/elements/1.1/"
   xmlns:cc="http://creativecommons.org/ns#"
   xmlns:rdf="http://www.w3.org/1999/02/22-rdf-syntax-ns#"
   xmlns:svg="http://www.w3.org/2000/svg"
   xmlns="http://www.w3.org/2000/svg"
   xmlns:xlink="http://www.w3.org/1999/xlink"
   xmlns:sodipodi="http://sodipodi.sourceforge.net/DTD/sodipodi-0.dtd"
   xmlns:inkscape="http://www.inkscape.org/namespaces/inkscape"
   width="799"
   height="533"
   id="svg2"
   version="1.1"
   inkscape:version="0.48.3.1 r9886"
   sodipodi:docname="New document 1">
  <defs
     id="defs4" />
  <sodipodi:namedview
     id="base"
     pagecolor="#ffffff"
     bordercolor="#666666"
     borderopacity="1.0"
     inkscape:pageopacity="0.0"
     inkscape:pageshadow="2"
     inkscape:zoom="1.4"
     inkscape:cx="390.9073"
     inkscape:cy="353.34821"
     inkscape:document-units="px"
     inkscape:current-layer="layer1"
     showgrid="false"
     fit-margin-top="0"
     fit-margin-left="0"
     fit-margin-right="0"
     fit-margin-bottom="0"
     inkscape:window-width="1366"
     inkscape:window-height="706"
     inkscape:window-x="-8"
     inkscape:window-y="-8"
     inkscape:window-maximized="1" />
  <metadata
     id="metadata7">
    <rdf:RDF>
      <cc:Work
         rdf:about="">
        <dc:format>image/svg+xml</dc:format>
        <dc:type
           rdf:resource="http://purl.org/dc/dcmitype/StillImage" />
        <dc:title></dc:title>
      </cc:Work>
    </rdf:RDF>
  </metadata>
  <g
     inkscape:label="Layer 1"
     inkscape:groupmode="layer"
     id="layer1"
     transform="translate(-251.92857,-525.86218)">
    <image
       y="525.86218"
       x="251.92857"
       id="image2993"
       xlink:href="file:///G:/07/Groll.jpg"
       height="533"
       width="799" />
    <path
       style="fill:none;stroke:#000000;stroke-width:1px;stroke-linecap:butt;stroke-linejoin:miter;stroke-opacity:1"
       d="m 215,57.642856 c 0.35714,-1.428571 3.57143,-12.857142 3.57143,-12.857142 l 1.78571,-10.357143 11.78572,-10 16.07143,-9.285715 19.64285,-2.5 11.42857,1.428572 18.92858,12.5 10.35714,6.785714 3.57143,7.857143 1.78571,8.928571 -1.42857,4.642858 2.14286,5.357142 3.57143,5.357143 -1.78572,5.357143 -1.42857,2.857143 -12.5,0 -7.14286,1.071429 -15.71428,5.357142 -7.85715,5.357143 -13.21428,9.642857 -6.42857,7.857144 -2.85715,1.07143 -7.14285,-6.428574 -6.78572,-6.428571 -8.92857,-6.071429 L 220,71.928571 z"
       id="area_6"
       inkscape:connector-curvature="0"
       transform="translate(251.92857,525.86218)"
       inkscape:label="#path2996" />
    <path
       style="fill:none;stroke:#000000;stroke-width:1px;stroke-linecap:butt;stroke-linejoin:miter;stroke-opacity:1"
       d="M 175.35714,69.785714 187.5,69.071428 l 7.85714,1.071428 10,3.928572 6.78572,2.142857 7.14285,4.642857 7.5,6.071429 7.5,5.714285 2.5,6.785715 1.78572,12.857139 1.42857,11.42858 1.42857,4.64285 -0.35714,16.07143 L 240,150.5 l -3.57143,10.35714 -8.57143,11.42857 -12.14285,7.85715 -14.28572,5 -17.14286,0.71428 L 176.07143,185.5 161.42857,179.78571 146.78571,168.71429 140,152.64286 l -1.78571,-16.78572 2.5,-12.85714 1.78571,-8.21429 -0.71429,-12.14285 1.42858,-5.357146 9.64285,-11.785715 16.07143,-10.714285 z"
       id="area_8"
       inkscape:connector-curvature="0"
       transform="translate(251.92857,525.86218)"
       inkscape:label="#path2998" />
    <path
       style="fill:none;stroke:#000000;stroke-width:1px;stroke-linecap:butt;stroke-linejoin:miter;stroke-opacity:1"
       d="m 314.64286,74.785714 9.64285,0.357142 10.71429,4.642858 9.64286,5 9.28571,7.857142 c 0,0 11.07143,12.857144 11.07143,14.285714 0,1.42857 3.57143,11.78572 3.57143,11.78572 l 1.07143,15.35714 -2.14286,5.35714 -2.5,7.5 -3.92857,8.21429 -15.71429,14.28571 L 327.5,180.85714 301.07143,184.07143 281.78571,183 l -10.71428,-3.21429 -15.35714,-8.21428 -7.14286,-5.35714 -4.64286,-8.57143 -2.5,-11.07143 0.35714,-10 0.35715,-9.28572 0.71428,-8.21428 8.57143,-14.64286 11.78572,-12.857142 16.07142,-11.428572 15.35715,-5 z"
       id="area_7"
       inkscape:connector-curvature="0"
       transform="translate(251.92857,525.86218)"
       inkscape:label="#path3000" />
    <path
       style="fill:none;stroke:#000000;stroke-width:1px;stroke-linecap:butt;stroke-linejoin:miter;stroke-opacity:1"
       d="m 600.35714,39.785714 4.64286,5 5.35714,8.571428 3.57143,12.142857 -1.78571,20.357143 -9.28572,14.285718 L 592.14286,110.5 570,126.57143 l -6.78571,5 -16.42857,5.71428 -15.35715,-0.35714 -10.71428,-2.5 -14.28572,-6.78571 L 497.5,114.42857 490,100.85714 488.21429,81.571428 490,77.642856 l 6.07143,-5.714285 5.71429,-3.214286 1.07142,-5.714286 9.64286,-11.071428 17.5,-17.5 4.64286,-2.857143 8.21428,-7.5 8.57143,-5.714286 10.71429,-3.928571 11.78571,2.857142 8.21429,5 5.35714,8.214286 3.21429,1.071429 2.85714,3.928571 0.35714,4.285715 z"
       id="area_2"
       inkscape:connector-curvature="0"
       transform="translate(251.92857,525.86218)"
       inkscape:label="#path3002" />
    <path
       style="fill:none;stroke:#000000;stroke-width:1px;stroke-linecap:butt;stroke-linejoin:miter;stroke-opacity:1"
       d="M 543.21429,158.35714 C 543.92857,156.57143 544.28572,153 544.28572,153 l 14.64285,-15.35714 7.5,-7.14286 L 575,123 603.57143,100.5 621.42857,88.714285 643.21429,76.928571 662.5,69.071428 l 10,-0.714286 10.71429,-0.714286 14.28571,1.071429 6.07143,2.142857 6.78571,7.857143 6.07143,6.428571 -1.07143,9.642858 -3.21428,8.214286 0.35714,5.71429 1.42857,3.92857 -5,6.07143 -3.21428,3.92857 -4.28572,1.78571 -2.5,5 -6.42857,6.78572 -10,5.71428 -9.28571,9.28572 -7.85715,2.5 -7.5,3.21428 -4.64285,4.64286 0.35714,4.64286 -5.35714,5 L 615,191.92857 l -13.92857,12.14286 -9.64286,4.28571 c 0,0 -7.5,-0.71428 -8.92857,-0.71428 -1.42857,0 -6.07143,0 -6.07143,0 l -15.35714,-3.57143 -12.85714,-5 -12.14286,-5.71429 1.07143,-12.14285 0.35714,-12.5 2.5,-4.64286 0,-1.78572 4.64286,-3.21428 z"
       id="area_1"
       inkscape:connector-curvature="0"
       transform="translate(251.92857,525.86218)"
       inkscape:label="#path3004" />
    <path
       style="fill:none;stroke:#000000;stroke-width:1px;stroke-linecap:butt;stroke-linejoin:miter;stroke-opacity:1"
       d="m 273.21429,238.35714 4.64285,-3.21428 5,-0.35715 3.21429,-4.28571 18.57143,-11.42857 30.35714,-12.5 c 0,0 15,-7.85714 18.92857,-5.35714 3.92857,2.5 1.07143,-1.42858 2.5,-0.35715 1.42857,1.07143 11.78572,1.78572 11.78572,1.78572 l 15,3.21428 12.85714,6.78572 L 410,224.78571 430,248 l 9.64286,18.21429 2.14285,12.5 0.35715,10.71428 0.35714,3.21429 -6.78571,9.64285 -3.57143,10.71429 -27.5,20.71429 -20,-0.35715 -12.85715,2.14286 -7.14285,3.57143 -10.71429,10.71428 -8.21428,9.64286 -12.5,0.71429 -21.78572,-5.35715 -17.14286,-6.07142 -14.64285,-15 -10.35715,-14.28572 -2.85714,-9.64286 -0.71428,-6.07142 -6.42858,-8.57143 L 255,277.64286 256.07143,263 c 0,0 1.07143,-5 2.14286,-6.78571 1.07142,-1.78572 7.14285,-9.28572 7.14285,-9.28572 z"
       id="area_5"
       inkscape:connector-curvature="0"
       transform="translate(251.92857,525.86218)"
       inkscape:label="#path3006" />
    <path
       style="fill:none;stroke:#000000;stroke-width:1px;stroke-linecap:butt;stroke-linejoin:miter;stroke-opacity:1"
       d="M 442.85714,290.85714 453.57143,283 l 5,-2.5 3.92857,-6.42857 5,-4.28572 7.5,-5 16.42857,-7.14285 10,-3.57143 8.57143,-0.35714 14.64286,1.42857 11.07143,5.35714 13.92857,10.35714 28.21428,24.28572 6.07143,8.21428 3.57143,9.28572 -2.5,11.07143 -3.21428,10 -2.85715,7.14285 c 0,0 -1.78571,5.35715 -2.5,6.78572 -0.71428,1.42857 -4.64285,6.78571 -4.64285,6.78571 0,0 -10,5.71429 -10.71429,7.14286 -0.71429,1.42857 -12.85714,9.28571 -12.85714,9.28571 l -12.14286,6.42857 -8.92857,1.78572 -13.92857,2.14286 L 500,380.14286 l -8.92857,-1.07143 -15.35714,-6.42857 -10.35715,-8.57143 -6.78571,-11.42857 -8.92857,-6.78572 -2.85715,-1.78571 -6.42857,-9.64286 -3.92857,-3.21428 1.78572,-1.78572 -0.71429,-2.14286 -2.85714,-8.21428 0,-7.5 1.78571,-8.92857 z"
       id="area_4"
       inkscape:connector-curvature="0"
       transform="translate(251.92857,525.86218)"
       inkscape:label="#path3008" />
    <path
       style="fill:none;stroke:#000000;stroke-width:1px;stroke-linecap:butt;stroke-linejoin:miter;stroke-opacity:1"
       d="m 439.64286,440.5 6.42857,-4.28571 8.21429,-9.28572 5.35714,-10 8.21428,-22.14286 L 467.5,378.71429 466.42857,364.78571 460.35714,358 455,351.21429 l -10.71429,-7.5 -18.57142,-5 -19.28572,-4.64286 -9.28571,0 -13.92857,0.35714 -7.85715,0.35714 -6.78571,2.14286 -11.42857,8.92857 -9.28572,12.85715 -5,7.14285 -2.14285,3.21429 -6.07143,13.21428 -2.14286,8.57143 2.85714,5.71429 0.35715,6.78571 -2.5,4.28572 1.07142,6.42857 1.42858,9.28571 6.42857,6.42857 9.28571,1.42858 8.57143,0.71428 10,2.14286 7.85714,2.14286 3.57143,0.35714 2.14286,-2.85714 7.14286,2.14285 10.71428,3.57143 z"
       id="area_3"
       inkscape:connector-curvature="0"
       transform="translate(251.92857,525.86218)"
       inkscape:label="#path3010" />
    <text
       xml:space="preserve"
       style="font-size:40px;font-style:normal;font-weight:normal;line-height:125%;letter-spacing:0px;word-spacing:0px;fill:#000000;fill-opacity:1;stroke:none;font-family:Sans"
       x="202.14285"
       y="488"
       id="navigation"
       sodipodi:linespacing="125%"
       transform="translate(251.92857,525.86218)"
       inkscape:label="#text3012"><tspan
         sodipodi:role="line"
         id="tspan3014"
         x="202.14285"
         y="488">6 2 8 7 1 5 4 3</tspan></text>
  </g>
</svg>
