<?xml version="1.0" encoding="UTF-8" standalone="no"?>
<!-- Created with Inkscape (http://www.inkscape.org/) -->

<svg
   xmlns:dc="http://purl.org/dc/elements/1.1/"
   xmlns:cc="http://creativecommons.org/ns#"
   xmlns:rdf="http://www.w3.org/1999/02/22-rdf-syntax-ns#"
   xmlns:svg="http://www.w3.org/2000/svg"
   xmlns="http://www.w3.org/2000/svg"
   xmlns:xlink="http://www.w3.org/1999/xlink"
   xmlns:sodipodi="http://sodipodi.sourceforge.net/DTD/sodipodi-0.dtd"
   xmlns:inkscape="http://www.inkscape.org/namespaces/inkscape"
   width="3000"
   height="2000"
   id="svg2"
   version="1.1"
   inkscape:version="0.48.4 r9939"
   sodipodi:docname="New document 1">
  <defs
     id="defs4" />
  <sodipodi:namedview
     id="base"
     pagecolor="#ffffff"
     bordercolor="#666666"
     borderopacity="1.0"
     inkscape:pageopacity="0.0"
     inkscape:pageshadow="2"
     inkscape:zoom="0.49497475"
     inkscape:cx="1016.8646"
     inkscape:cy="1076.7069"
     inkscape:document-units="px"
     inkscape:current-layer="layer1"
     showgrid="false"
     fit-margin-top="0"
     fit-margin-left="0"
     fit-margin-right="0"
     fit-margin-bottom="0"
     inkscape:window-width="1280"
     inkscape:window-height="962"
     inkscape:window-x="-8"
     inkscape:window-y="-8"
     inkscape:window-maximized="1" />
  <metadata
     id="metadata7">
    <rdf:RDF>
      <cc:Work
         rdf:about="">
        <dc:format>image/svg+xml</dc:format>
        <dc:type
           rdf:resource="http://purl.org/dc/dcmitype/StillImage" />
        <dc:title></dc:title>
      </cc:Work>
    </rdf:RDF>
  </metadata>
  <g
     inkscape:label="Layer 1"
     inkscape:groupmode="layer"
     id="layer1"
     transform="translate(2325.7144,927.63782)">
    <image
       y="-927.63782"
       x="-2325.7144"
       id="area_3"
       xlink:href="file:///T:/SCRAN24/NEW%20PHOTOS%20FOR%20SCRAN/gsand.jpg"
       height="2000"
       width="3000"
       inkscape:label="#image2993" />
    <path
       style="fill:none;stroke:#000000;stroke-width:1px;stroke-linecap:butt;stroke-linejoin:miter;stroke-opacity:1"
       d="m 513.1575,1121.1673 46.46701,-56.5686 -14.14213,-16.1624 12.12183,-18.1827 92.93403,-56.56859 18.18274,-18.18274 16.16245,-12.12183 48.48732,-109.09648 1022.27435,529.31994 0,54.5482 18.1828,133.3402 -20.2031,94.9543 -30.3046,42.4264 -56.5685,32.3249 -115.1573,12.1218 -50.5077,8.0812 -1008.13226,-589.929 z"
       id="path2996"
       inkscape:connector-curvature="0"
       transform="translate(-2325.7144,-927.63782)"
       sodipodi:nodetypes="cccccccccccccccccc" />
    <path
       style="fill:none;stroke:#000000;stroke-width:1px;stroke-linecap:butt;stroke-linejoin:miter;stroke-opacity:1"
       d="m 1060.6602,612.05041 76.7715,-103.03556 84.8529,-64.64977 101.0152,-40.4061 82.8325,-16.16244 78.7919,-2.02031 111.1168,4.04061 119.198,44.44672 64.6498,46.46701 18.1827,68.69038 -18.1827,48.48732 28.2843,8.08122 20.203,0 0,16.16244 -14.1421,16.16244 -2.0203,20.20305 -22.2234,16.16244 -2.0203,20.20305 -84.8528,70.71068 24.2437,28.28427 -44.4468,20.20305 -16.1624,18.18274 -46.467,30.30458 -40.4061,-36.36549 -10.1015,22.22336 -22.2234,-14.14214 -62.6295,24.24366 -6.0609,36.3655 -46.467,36.36549 -32.3249,16.16244 -8.0812,-62.62946 -30.3046,6.06092 -151.5229,26.26396 -94.9543,-20.20305 -42.4264,-38.3858 -20.203,-58.58884 8.0812,-56.56854 -22.2234,-42.42642 z"
       id="path2998"
       inkscape:connector-curvature="0"
       transform="translate(-2325.7144,-927.63782)"
       sodipodi:nodetypes="ccccccccccccccccccccccccccccccccccccccc" />
    <path
       style="fill:none;stroke:#000000;stroke-width:1px;stroke-linecap:butt;stroke-linejoin:miter;stroke-opacity:1"
       d="m 1731.4015,1274.7105 543.462,-890.95457 28.2843,-36.36549 22.2234,-8.08122 385.8782,149.50257 42.4264,18.18275 2.0203,18.18274 -171.7259,268.70058 -74.7513,351.53304 -232.3351,171.726 -127.2792,200.0102 -16.1624,4.0406 -404.061,-218.193 z"
       id="path3000"
       inkscape:connector-curvature="0"
       transform="translate(-2325.7144,-927.63782)" />
    <text
       xml:space="preserve"
       style="font-size:40px;font-style:normal;font-weight:normal;line-height:125%;letter-spacing:0px;word-spacing:0px;fill:#000000;fill-opacity:1;stroke:none;font-family:Sans"
       x="818.22357"
       y="246.37518"
       id="navigation"
       sodipodi:linespacing="125%"
       transform="translate(-2325.7144,-927.63782)"
       inkscape:label="#text3002"><tspan
         sodipodi:role="line"
         id="tspan3004"
         x="818.22357"
         y="246.37518">1 2 3</tspan></text>
  </g>
</svg>
