<?xml version="1.0" encoding="UTF-8" standalone="no"?>
<!-- Created with Inkscape (http://www.inkscape.org/) -->

<svg
   xmlns:dc="http://purl.org/dc/elements/1.1/"
   xmlns:cc="http://creativecommons.org/ns#"
   xmlns:rdf="http://www.w3.org/1999/02/22-rdf-syntax-ns#"
   xmlns:svg="http://www.w3.org/2000/svg"
   xmlns="http://www.w3.org/2000/svg"
   xmlns:xlink="http://www.w3.org/1999/xlink"
   xmlns:sodipodi="http://sodipodi.sourceforge.net/DTD/sodipodi-0.dtd"
   xmlns:inkscape="http://www.inkscape.org/namespaces/inkscape"
   width="800"
   height="506"
   id="svg2"
   version="1.1"
   inkscape:version="0.48.3.1 r9886"
   sodipodi:docname="New document 1">
  <defs
     id="defs4" />
  <sodipodi:namedview
     id="base"
     pagecolor="#ffffff"
     bordercolor="#666666"
     borderopacity="1.0"
     inkscape:pageopacity="0.0"
     inkscape:pageshadow="2"
     inkscape:zoom="1.4"
     inkscape:cx="384.95426"
     inkscape:cy="286.70651"
     inkscape:document-units="px"
     inkscape:current-layer="layer1"
     showgrid="false"
     fit-margin-top="0"
     fit-margin-left="0"
     fit-margin-right="0"
     fit-margin-bottom="0"
     inkscape:window-width="1366"
     inkscape:window-height="706"
     inkscape:window-x="-8"
     inkscape:window-y="-8"
     inkscape:window-maximized="1" />
  <metadata
     id="metadata7">
    <rdf:RDF>
      <cc:Work
         rdf:about="">
        <dc:format>image/svg+xml</dc:format>
        <dc:type
           rdf:resource="http://purl.org/dc/dcmitype/StillImage" />
        <dc:title></dc:title>
      </cc:Work>
    </rdf:RDF>
  </metadata>
  <g
     inkscape:label="Layer 1"
     inkscape:groupmode="layer"
     id="layer1"
     transform="translate(314.28571,-10.790751)">
    <image
       y="10.790751"
       x="-314.28571"
       id="image2993"
       xlink:href="file:///G:/07/Gshk2.jpg"
       height="506"
       width="800" />
    <path
       style="fill:none;stroke:#000000;stroke-width:1px;stroke-linecap:butt;stroke-linejoin:miter;stroke-opacity:1"
       d="m 245.71429,28.142857 8.57142,2.142857 5,7.142857 2.14286,7.857143 4.28572,19.285714 28.57142,30 4.28572,9.285712 0.71428,19.28572 0,14.28571 0,13.57143 0.71429,20.71429 2.32143,10 1.60714,10.35714 3.21429,13.03571 4.28571,11.07143 0.35714,9.28572 -0.89285,12.14285 -2.85715,7.14286 -2.5,6.78571 -5.17857,7.32143 -8.92857,6.96429 -8.39286,4.46428 -10.35714,2.32143 -10.71428,0.17857 -10,-0.17857 -8.75,-2.14285 -8.21429,-4.28572 -7.32143,-6.25 -3.03571,-4.10714 -3.75,-5.17857 -2.14286,-4.28572 -2.85714,-10.89285 -1.25,-10.71429 1.25,-7.14286 -0.71429,-8.03571 -8.75,-38.92857 L 201.07143,152.25 194.46429,130.82143 192.85714,121 l -0.53571,-9.28572 2.5,-6.42857 3.21428,-8.214282 8.39286,-15.535715 3.21429,-5.892857 0.89285,-2.857143 c 0,0 0.53572,-1.964285 -0.53571,-2.142857 -1.07143,-0.178571 -2.67857,-2.678571 -2.67857,-2.678571 l 1.07143,-6.607143 -1.07143,-2.5 -0.71429,-11.607143 1.25,-8.035714 4.46429,-4.464286 6.07143,-3.928571 5.35714,-2.5 6.07143,-0.892858 8.39286,0 z"
       id="area_10"
       inkscape:connector-curvature="0"
       transform="translate(-314.28571,10.790751)"
       inkscape:label="#path2996" />
    <path
       style="fill:none;stroke:#000000;stroke-width:1px;stroke-linecap:butt;stroke-linejoin:miter;stroke-opacity:1"
       d="m 403.39286,74.035713 4.82143,1.071429 5.35714,2.321428 2.32143,1.071429 3.03571,2.142857 2.32143,2.5 2.14286,2.857143 0.71428,3.571429 0.89286,8.928571 0.71429,3.035711 0.71428,3.57143 0.17857,3.92857 -1.42857,4.28572 -1.60714,2.85714 3.75,4.10714 4.10714,4.46429 3.21429,5.17857 3.75,8.75 2.32143,9.28571 -2.14286,23.92858 1.60714,37.14285 1.07143,10.17858 0,18.03571 c 0,0 -1.78571,6.07143 -2.67857,6.42857 -0.89286,0.35714 -2.67857,4.46429 -2.67857,4.46429 l -4.28571,5.35714 -5.53572,6.07142 c 0,0 -3.57143,2.32144 -4.28571,2.32144 -0.71429,0 -6.07143,0.17857 -6.07143,0.17857 l -4.10715,-1.42857 c -1.72999,-1.20857 -2.89516,-3.27617 -1.42857,-3.57144 l -4.64286,1e-5 -2.67857,4.82143 -5,2.14285 -5,-0.53571 -4.46428,-1.42857 -11.42857,-12.67857 -0.71429,1.78571 -2.5,0.17857 -2.14286,-2.67857 -2.14285,-5.17857 -0.53572,-6.42857 -0.71428,-7.5 -3.75,-55.89286 -0.71429,-6.25 -0.71428,-6.78571 -0.71429,-1.96429 0,-10.89286 0.71429,-4.28571 1.25,-5.89286 0.89285,-3.21428 2.85715,-7.14286 2.32142,-2.85714 2.67858,-2.85715 3.39285,-1.07143 L 373.75,116.53571 371.96429,113.5 371.25,111.35714 371.42857,106 l 0.89286,-1.25 -0.71429,-16.071429 1.42858,-3.571429 2.67857,-2.857143 4.28571,-2.857143 4.46429,-2.5 5.17857,-1.607143 6.07143,-0.714285 4.46428,-0.357143 z"
       id="area_11"
       inkscape:connector-curvature="0"
       transform="translate(-314.28571,10.790751)"
       sodipodi:nodetypes="cccccccccccccccccccccccscccsccccccccccccccccccccccccccccccccccccccccc"
       inkscape:label="#path2998" />
    <path
       style="fill:none;stroke:#000000;stroke-width:1px;stroke-linecap:butt;stroke-linejoin:miter;stroke-opacity:1"
       d="m 563.92857,91.178571 4.46429,1.071428 3.57143,1.964286 3.39285,2.321428 2.85715,2.857143 1.78571,3.571424 1.07143,3.39286 -0.17857,5.17857 -0.71429,9.82143 -2.14285,3.92857 -0.89286,1.96429 0,1.60714 1.60714,3.21429 2.32143,4.28571 1.60714,3.75 0,2.85714 1.60715,3.75 1.78571,4.46429 0,7.5 -1.07143,3.03571 -0.71428,3.57143 -0.35715,5.35715 -1.07143,13.03571 -5,47.85714 -1.42857,5.89286 -0.89285,2.32143 -2.5,3.57143 -4.46429,3.92857 -5.89286,3.21429 -6.25,2.14285 -8.03571,0.17857 -5.53572,0 -8.03571,-1.96428 -5.35714,-2.85714 -3.39286,-2.32143 -2.85714,-2.85715 -3.57143,-5.17857 -1.42857,-4.28571 0.89285,-31.78572 3.57143,-48.57143 0.89286,-3.75 1.42857,-3.03571 2.5,-4.10714 1.60714,-4.28572 2.14286,-3.57143 2.85714,-4.46428 2.67858,-2.14286 c 0,0 0.35714,-0.89286 0.35714,-1.78571 0,-0.89286 -1.07143,-3.21429 -1.07143,-3.21429 l 0.35714,-16.96428 2.32143,-6.071432 3.03572,-3.571429 3.39285,-2.142857 4.28572,-1.607143 4.82143,-0.714286 6.07142,-0.535714 z"
       id="area_12"
       inkscape:connector-curvature="0"
       transform="translate(-314.28571,10.790751)"
       inkscape:label="#path3000" />
    <path
       style="fill:none;stroke:#000000;stroke-width:1px;stroke-linecap:butt;stroke-linejoin:miter;stroke-opacity:1"
       d="m 333.21429,215.46429 5.71428,0 5,0.71428 3.39286,1.96429 4.28571,2.85714 2.14286,5.17857 0.71429,6.07143 1.60714,3.03571 0,3.92858 L 355,242.25 l -1.07143,2.14286 1.60715,1.78571 2.67857,2.14286 2.14285,3.75 2.32143,4.46428 1.60715,4.82143 1.25,4.28572 -0.35715,11.07143 -1.96428,7.32142 -0.53572,13.21429 3.21429,11.96429 0,5.71428 0.17857,7.32143 0,3.92857 -1.78571,5.53572 -3.03572,5.17857 -4.46428,4.64285 -4.82143,3.75 -6.07143,2.85715 -3.92857,0.35714 -6.96429,0.17857 -4.28571,-1.07143 -5.35715,-1.96428 -4.10714,-3.03572 -5.17857,-4.46428 c 0,0 -3.57143,-5.53572 -4.10714,-6.42857 -0.53572,-0.89286 -1.78572,-4.28572 -1.78572,-4.28572 L 310,314.75 l 1.25,-8.57143 1.42857,-3.03571 -0.35714,-6.78572 -0.89286,-8.57143 -1.60714,-4.10714 -2.85714,-7.5 0.35714,-9.82143 0.71428,-7.14285 1.25,-3.39286 2.67858,-4.10714 3.21428,-4.64286 1.60714,-3.03572 -0.53571,-1.42857 0.17857,-16.42857 1.07143,-3.39286 2.85714,-3.39285 2.5,-1.60715 3.21429,-1.42857 3.75,-1.07143 z"
       id="area_14"
       inkscape:connector-curvature="0"
       transform="translate(-314.28571,10.790751)"
       inkscape:label="#path3002" />
    <path
       style="fill:none;stroke:#000000;stroke-width:1px;stroke-linecap:butt;stroke-linejoin:miter;stroke-opacity:1"
       d="m 477.14286,222.60714 6.78571,-0.35714 5.53572,0.89286 5,1.60714 2.5,2.14286 2.14285,3.03571 1.60715,3.75 0,3.92857 -1.07143,3.75 c 0,0 -0.53572,2.85715 0,3.75 0.53571,0.89286 1.42857,2.14286 1.42857,2.14286 l 3.39286,2.5 3.39285,4.64286 2.32143,10.53571 1.25,5.17857 -0.17857,5.53572 c 0,0 -0.53571,5.53571 -1.25,5.89285 -0.71428,0.35715 1.07143,8.03572 1.07143,8.03572 l -1.96429,9.10714 0.17858,4.10714 1.60714,5.17858 -0.89286,21.07142 -2.14286,3.57143 -3.39285,5.35715 -2.67857,2.14285 -5,2.67857 -5,1.96429 -4.46429,0.71429 L 478.75,346 l -5.71428,-1.42857 -4.10715,-1.42857 -2.85714,-1.42857 -4.82143,-3.92858 -3.39286,-2.67857 -2.32142,-5.71428 -0.89286,-4.10715 -0.17857,-4.64285 1.25,-5 0.89285,-4.28572 1.25,-8.57143 L 457.5,296 l -0.89286,-4.46429 -1.60714,-6.25 -2.14286,-6.07142 0.17858,-12.5 2.67857,-9.64286 2.5,-6.07143 3.75,-4.46429 0,-2.85714 -0.89286,-1.42857 1.07143,-7.14286 1.60714,-4.46428 1.60714,-2.5 4.46429,-3.03571 4.46429,-1.42858 z"
       id="area_13"
       inkscape:connector-curvature="0"
       transform="translate(-314.28571,10.790751)"
       sodipodi:nodetypes="cccccccccccccccccccccccccccccccccccccccccccccccccccccccc"
       inkscape:label="#path3004" />
    <text
       xml:space="preserve"
       style="font-size:40px;font-style:normal;font-weight:normal;line-height:125%;letter-spacing:0px;word-spacing:0px;fill:#000000;fill-opacity:1;stroke:none;font-family:Sans"
       x="191.42857"
       y="395.28571"
       id="navigation"
       sodipodi:linespacing="125%"
       transform="translate(-314.28571,10.790751)"
       inkscape:label="#text3006"><tspan
         sodipodi:role="line"
         id="tspan3008"
         x="191.42857"
         y="395.28571">10 11 12 14 13</tspan></text>
  </g>
</svg>
