<?xml version="1.0" encoding="UTF-8" standalone="no"?>
<!-- Created with Inkscape (http://www.inkscape.org/) -->

<svg
   xmlns:dc="http://purl.org/dc/elements/1.1/"
   xmlns:cc="http://creativecommons.org/ns#"
   xmlns:rdf="http://www.w3.org/1999/02/22-rdf-syntax-ns#"
   xmlns:svg="http://www.w3.org/2000/svg"
   xmlns="http://www.w3.org/2000/svg"
   xmlns:xlink="http://www.w3.org/1999/xlink"
   xmlns:sodipodi="http://sodipodi.sourceforge.net/DTD/sodipodi-0.dtd"
   xmlns:inkscape="http://www.inkscape.org/namespaces/inkscape"
   width="1500"
   height="1000"
   id="svg2"
   version="1.1"
   inkscape:version="0.48.4 r9939"
   sodipodi:docname="New document 1">
  <defs
     id="defs4" />
  <sodipodi:namedview
     id="base"
     pagecolor="#ffffff"
     bordercolor="#666666"
     borderopacity="1.0"
     inkscape:pageopacity="0.0"
     inkscape:pageshadow="2"
     inkscape:zoom="0.7"
     inkscape:cx="787.79664"
     inkscape:cy="507.51339"
     inkscape:document-units="px"
     inkscape:current-layer="layer1"
     showgrid="false"
     fit-margin-top="0"
     fit-margin-left="0"
     fit-margin-right="0"
     fit-margin-bottom="0"
     inkscape:window-width="1280"
     inkscape:window-height="962"
     inkscape:window-x="-8"
     inkscape:window-y="-8"
     inkscape:window-maximized="1" />
  <metadata
     id="metadata7">
    <rdf:RDF>
      <cc:Work
         rdf:about="">
        <dc:format>image/svg+xml</dc:format>
        <dc:type
           rdf:resource="http://purl.org/dc/dcmitype/StillImage" />
        <dc:title></dc:title>
      </cc:Work>
    </rdf:RDF>
  </metadata>
  <g
     inkscape:label="Layer 1"
     inkscape:groupmode="layer"
     id="layer1"
     transform="translate(81.428574,-266.64789)">
    <image
       y="266.64789"
       x="-81.428574"
       id="area_3"
       xlink:href="file:///T:/SCRAN24/NEW%20PHOTOS%20FOR%20SCRAN/gsmsau.jpg"
       height="1000"
       width="1500"
       inkscape:label="#image2993" />
    <path
       style="fill:none;stroke:#000000;stroke-width:1px;stroke-linecap:butt;stroke-linejoin:miter;stroke-opacity:1"
       d="M 278.57143,372.85714 250,337.14286 244.28571,280 270,222.85714 l 54.28571,-48.57143 54.28572,-25.71428 50,-17.14286 44.28571,-7.14286 48.57143,-7.14285 51.42857,-2.85715 42.85715,18.57143 12.85714,30.00001 -11.42857,29.99999 -14.28571,11.42857 -20.00001,11.42858 -45.71428,2.85714 -71.42857,10 -54.28572,18.57143 -24.28572,20 -25.71428,21.42857 1.42857,34.28571 -5.71428,30 -25.71429,21.42857 -22.85714,11.42858 z"
       id="path2996"
       inkscape:connector-curvature="0"
       transform="translate(-81.428574,266.64789)"
       sodipodi:nodetypes="ccccccccccccccccccccccccc" />
    <path
       style="fill:none;stroke:#000000;stroke-width:1px;stroke-linecap:butt;stroke-linejoin:miter;stroke-opacity:1"
       d="M 442.85714,347.14286 C 477.14286,318.57143 657.14286,204.28571 657.14286,204.28571 l 38.57142,-17.14285 42.85715,15.71428 5.71428,-7.14285 14.28571,12.85714 10e-6,8.57143 -7.14286,7.14285 8.57143,11.42858 11.42857,40 -22.85714,25.71428 L 544.28571,440 505.71429,442.85714 472.85714,427.14286 450,432.85715 445.71429,427.14286 457.14285,408.57143 440,390 z"
       id="path2998"
       inkscape:connector-curvature="0"
       transform="translate(-81.428574,266.64789)"
       sodipodi:nodetypes="ccccccccccccccccccc" />
    <path
       style="fill:none;stroke:#000000;stroke-width:1px;stroke-linecap:butt;stroke-linejoin:miter;stroke-opacity:1"
       d="m 971.42857,310 -24.28571,38.57143 -31.42857,28.57143 -31.42858,18.57143 -47.14285,61.42857 -25.71429,-5.71429 -15.71428,34.28572 L 770,522.85714 l 37.14286,35.71429 84.28571,30 50,21.42857 70.00003,27.14286 92.8571,58.57143 32.8572,-2.85715 80,5.71429 35.7142,-20 32.8572,-34.28572 30,-32.85714 10,-62.85714 52.8571,-12.85714 L 1410,500 1371.4286,475.71429 1245.7143,428.57143 1170,412.85714 l -102.8571,-30 -45.7143,-10 -10,-35.71428 z"
       id="path3000"
       inkscape:connector-curvature="0"
       transform="translate(-81.428574,266.64789)" />
    <text
       xml:space="preserve"
       style="font-size:40px;font-style:normal;font-weight:normal;line-height:125%;letter-spacing:0px;word-spacing:0px;fill:#000000;fill-opacity:1;stroke:none;font-family:Sans"
       x="657.14288"
       y="57.142857"
       id="navigation"
       sodipodi:linespacing="125%"
       transform="translate(-81.428574,266.64789)"
       inkscape:label="#text3002"><tspan
         sodipodi:role="line"
         id="tspan3004"
         x="657.14288"
         y="57.142857">1 2 3</tspan></text>
  </g>
</svg>
