<?xml version="1.0" encoding="UTF-8" standalone="no"?>
<!-- Created with Inkscape (http://www.inkscape.org/) -->

<svg
   xmlns:dc="http://purl.org/dc/elements/1.1/"
   xmlns:cc="http://creativecommons.org/ns#"
   xmlns:rdf="http://www.w3.org/1999/02/22-rdf-syntax-ns#"
   xmlns:svg="http://www.w3.org/2000/svg"
   xmlns="http://www.w3.org/2000/svg"
   xmlns:xlink="http://www.w3.org/1999/xlink"
   xmlns:sodipodi="http://sodipodi.sourceforge.net/DTD/sodipodi-0.dtd"
   xmlns:inkscape="http://www.inkscape.org/namespaces/inkscape"
   width="210mm"
   height="297mm"
   id="svg3103"
   version="1.1"
   inkscape:version="0.48.3.1 r9886"
   sodipodi:docname="New document 9">
  <defs
     id="defs3" />
  <sodipodi:namedview
     inkscape:document-units="mm"
     id="base"
     pagecolor="#ffffff"
     bordercolor="#666666"
     borderopacity="1.0"
     inkscape:pageopacity="0.0"
     inkscape:pageshadow="2"
     inkscape:zoom="0.49497475"
     inkscape:cx="357.7062"
     inkscape:cy="-1344.9259"
     inkscape:current-layer="layer1"
     showgrid="false"
     inkscape:window-width="1366"
     inkscape:window-height="706"
     inkscape:window-x="-8"
     inkscape:window-y="-8"
     inkscape:window-maximized="1" />
  <metadata
     id="metadata4">
    <rdf:RDF>
      <cc:Work
         rdf:about="">
        <dc:format>image/svg+xml</dc:format>
        <dc:type
           rdf:resource="http://purl.org/dc/dcmitype/StillImage" />
        <dc:title></dc:title>
      </cc:Work>
    </rdf:RDF>
  </metadata>
  <g
     inkscape:label="Layer 1"
     inkscape:groupmode="layer"
     id="layer1">
    <image
       y="-250.68358"
       x="-1170.6903"
       id="image3117"
       xlink:href="file:///G:/07/Gsnck.jpg"
       height="2000"
       width="3000" />
    <path
       style="fill:none;stroke:#000000;stroke-width:1px;stroke-linecap:butt;stroke-linejoin:miter;stroke-opacity:1"
       d="m -149.50258,203.83404 11.61676,12.62691 11.61675,12.62691 7.07107,3.03046 3.03046,-10.10153 6.06091,-3.53553 6.56599,-1.51523 9.596453,-3.53554 7.576144,-3.03045 14.647212,0 280.822411,9.59644 90.40865,3.53554 190.91883,-3.03046 139.40105,0 100.51018,-2.52538 34.85026,-1.51523 33.33504,-0.50508 8.58629,-5.05076 8.08122,-5.05076 8.08122,-3.03046 15.65737,-24.74874 -1.51523,8.5863 7.07107,-2.0203 -2.02031,13.63706 2.52538,2.0203 8.08122,-10.10153 1.51523,10.10153 2.52539,2.52538 -2.27285,6.43972 3.53554,1.6415 0.75761,4.29315 -3.91434,5.3033 4.16688,1.89404 -2.90419,9.97525 -2.39911,1.13642 1.6415,2.90419 -0.88389,4.16688 c 0,0 -7.70241,5.42957 -8.08122,5.42957 -0.3788,0 -2.27284,3.15673 -2.27284,3.15673 0,0 3.03046,2.65165 3.6618,2.65165 0.63135,0 5.05076,-0.37881 5.05076,-0.37881 l -2.52538,9.34391 3.91434,1.51523 3.03046,1.13642 2.02031,0.63135 -1.13642,2.77792 -1.6415,3.03046 0.37881,5.17703 5.05076,0.25254 -2.52538,11.36421 6.56599,0.12627 -2.02031,10.73287 6.43973,0.75762 -2.77792,9.84898 6.56599,0.75762 -3.03046,10.35406 4.04061,0.50508 0,4.04061 -3.53553,7.3236 -16.54125,13.00572 -20.20305,12.6269 -10.73287,5.68211 -3.283,2.14658 -11.23795,9.47018 -13.38452,7.44987 -21.84455,7.57615 c 0,0 -12.6269,4.54568 -13.25825,4.67195 -0.63134,0.12627 -42.80521,0.63135 -42.80521,0.63135 l -232.84017,-0.12627 -230.31478,0 -302.035607,-5.55584 -12.626907,1.01015 -12.12183,-0.50507 -9.091373,0 -17.172594,-2.52539 -12.121829,2.02031 -12.12183,-0.50508 c 0,0 -3.99091,-2.43184 -5.95519,-3.68184 -1.96429,-1.25 -4.64286,-3.92857 -5.35714,-5.53572 -0.71429,-1.60714 -3.39286,-3.92857 -3.39286,-3.92857 0,0 -1.07143,4.10715 -1.25,4.82143 -0.17857,0.71429 -2.14286,3.75 -3.21429,4.82143 -1.07143,1.07143 -5.53571,2.32143 -5.53571,2.32143 l -5.35714,-3.92857 -6.25,-6.60715 -3.03572,-7.85714 -2.85714,-9.64286 -1.96429,-10 -3.75,-11.25 1.42857,-4.46428 1.42858,-0.17857 -2.32143,-9.46429 3.21428,-1.78571 -4.28571,-8.92857 5.53571,-1.07143 -2.32143,-12.14286 5.71429,0.89286 -0.89286,-11.25 4.28572,-0.53572 0.53571,-5.35714 c 0,0 -2.14286,-2.14286 -2.67857,-2.85714 -0.53571,-0.71429 -1.78571,-3.57143 -1.78571,-3.57143 L -165,272.18361 l 0,-3.03571 -2.85714,-3.75 c 0,0 0.71428,-1.78572 1.42857,-1.78572 0.71428,0 2.67857,0.17857 2.67857,0.17857 l -4.64286,-8.57143 1.42857,-1.25 3.21429,0.53572 -1.78571,-6.78572 c 0,0 0,-0.89285 0.17857,-1.96428 0.17857,-1.07143 -0.53572,-4.64286 -0.17857,-5.35714 0.35714,-0.71429 3.03571,-2.14286 3.03571,-2.14286 l 2.5,-1.07143 c 0,0 -3.75,-5.53571 -3.75,-7.85714 0,-2.32143 0.53571,-5 0.53571,-5 0,0 3.39286,3.03571 3.21429,2.32143 -0.17857,-0.71429 -0.53571,-5.35715 -0.53571,-5.35715 l 2.67857,-0.89285 -3.57143,-1.60715 0,-3.21428 6.60714,-2.85715 1.25,-1.78571 L -155,208.25504 c 0,0 -1.07143,-2.67857 -1.07143,-3.39286 0,-0.71428 2.85714,-2.5 2.85714,-2.5 z"
       id="area_1"
       inkscape:connector-curvature="0"
       inkscape:label="#path3120" />
    <path
       style="fill:none;stroke:#000000;stroke-width:1px;stroke-linecap:butt;stroke-linejoin:miter;stroke-opacity:1"
       d="m -0.35714286,397.71932 17.49999986,8.57143 c 0,0 10.714286,-3.92857 10.357143,-1.42857 -0.357143,2.5 6.071429,6.78572 6.071429,6.78572 l 21.785714,-1.78572 31.071429,0.71429 11.071428,3.21428 8.21429,1.78572 126.78571,2.85714 21.42857,2.85714 L 315,420.57647 512.14286,421.29075 590,423.43361 l 17.5,-1.78571 31.42857,1.42857 16.42857,-0.35715 22.5,-0.71428 23.57143,2.14286 7.14286,-8.92858 3.57143,-3.21428 7.14286,-3.21429 10.35714,-6.07143 9.28571,-1.07142 1.42857,3.92857 -3.21428,4.28571 3.21428,2.5 -4.64285,5.71429 6.42857,1.42857 -5.71429,3.57143 6.07143,1.07143 -4.64286,4.28571 4.28572,2.85714 -3.92857,6.07143 5.71428,2.5 -2.85714,5.71429 6.78571,3.57143 -3.21428,5.35714 5.35714,2.5 0.35714,6.78571 5,3.57143 -4.28571,3.92857 5,4.64286 -3.21429,2.85714 3.92858,5.35715 -1.78572,3.92857 3.92857,3.92857 -3.57143,3.57143 2.5,3.57143 -3.57142,2.5 2.14285,3.21428 -3.57143,5 3.57143,3.21429 -6.07143,3.21428 5,3.21429 -5.35714,5 5.71429,4.64286 -5,3.57142 2.14285,3.57143 -2.5,2.5 0,5 0,2.14286 -2.14285,3.21429 c 0,0 0.35714,1.07142 0.35714,2.5 0,1.42857 -1.78571,5.35714 -1.78571,5.35714 l 1.42857,3.92857 -2.14286,5 2.14286,3.21429 1.07143,1.78571 -4.64286,5 4.28571,3.21429 -16.78571,1.07142 L 712.5,581.6479 710.35714,580.93361 710,574.50504 l -7.14286,-1.42857 -6.42857,-0.35715 -9.28571,2.85715 -6.42857,1.42857 -7.85715,0 -3.21428,0.35714 -8.92857,3.92857 -8.21429,2.5 -14.28571,4.64286 -7.85715,3.92857 -59.28571,2.5 -295,2.14286 -170.35714,-3.21429 -16.785718,-3.57143 -15.357143,-1.78571 -12.5,-2.14286 -7.5,-1.07143 -47.8571433,-1.07142 -38.9285717,-42.5 0.446429,-2.58929 c 0,0 2.589285,0.44643 2.589285,0 0,-0.44643 -2.5,-4.64286 -2.5,-4.64286 l 5.178572,-3.30357 0.625,-2.05357 -3.75,-3.57143 6.875,-5.80357 -5.178572,-3.92857 c 0,0 5.089286,-0.35714 4.732143,-0.71429 -0.357142,-0.35714 0.446429,-1.25 -0.535714,-1.60714 -0.982143,-0.35714 -4.196429,-3.39286 -4.196429,-3.39286 l 4.910715,-2.32143 c 0,0 0.625,-1.42857 0.267857,-1.42857 -0.357143,0 -3.928572,-2.85714 -3.928572,-2.85714 l 3.928572,-2.67857 0.982143,-1.96429 -3.392857,-1.16071 0.08929,-2.5 2.857143,-0.17857 -2.946428,-4.19643 0.08929,-2.05357 3.125,-0.35715 -0.535714,-1.96428 -2.767857,-3.03572 3.571429,-2.05357 c 0,0 1.517857,-0.625 1.25,-1.25 -0.267858,-0.625 -4.107143,-2.76785 -4.107143,-2.76785 0,0 3.214285,-3.48215 3.571428,-3.57143 0.357143,-0.0893 0.08929,-2.05357 -0.267857,-2.05357 -0.357143,0 -2.946428,-1.78572 -2.946428,-1.78572 l 4.285714,-2.67857 c 0,0 -2.053572,-2.76786 -2.589286,-3.39286 -0.535714,-0.625 -0.892857,-2.23214 -0.714286,-2.58928 0.178572,-0.35715 0,-2.58929 0,-2.58929 0,0 1.428572,-1.78571 1.428572,-2.23214 0,-0.44643 -0.267857,-3.21429 -0.267857,-3.21429 0,0 0,-1.69643 0.535714,-1.69643 0.535714,0 2.857143,-0.0893 2.857143,-0.0893 0,0 -2.232143,-4.375 -2.232143,-4.82143 0,-0.44643 3.571429,-2.32143 3.571429,-2.32143 0,0 -1.25,-1.69643 -1.607143,-1.96428 -0.357143,-0.26786 -0.982143,-3.66072 -0.982143,-3.66072 l 3.035714,-2.23214 1.517857,-1.42857 -1.071428,-1.60715 -1.25,-2.76785 0.714285,-2.32143 2.589286,-1.07143 1.339286,-1.25 -1.607143,-3.125 -0.625,-3.75 2.767857,-2.41071 c 0,0 1.160714,0.35714 1.339286,-0.98215 0.178571,-1.33928 0.267857,-7.67857 0.267857,-7.67857 0,0 2.5892857,-1.42857 2.6785714,-1.78571 0.089286,-0.35715 0.5357143,-6.16072 0.8928571,-6.42857 0.3571429,-0.26786 4.2857143,-1.96429 4.2857143,-1.96429 z"
       id="area_2"
       inkscape:connector-curvature="0"
       inkscape:label="#path3122" />
    <path
       style="fill:none;stroke:#000000;stroke-width:1px;stroke-linecap:butt;stroke-linejoin:miter;stroke-opacity:1"
       d="m 117.5,657.71932 1.33929,3.125 c 0,0 0.26785,3.21429 0.53571,4.01786 0.26786,0.80357 0,2.5 0,2.5 0,0 18.75,-4.375 19.82143,-4.64286 1.07143,-0.26785 21.16071,-2.67857 21.78571,-2.85714 0.625,-0.17857 17.41072,-1.69643 17.41072,-1.69643 l 92.32143,-1.875 126.25,0.53572 130.53571,0.53571 46.78572,3.57143 22.67857,8.21429 8.21428,0.71428 11.25,3.92857 3.92857,0.89286 6.07143,-1.96429 1.07143,-2.67857 c 0,0 4.28572,-1.42857 5.17857,-1.60714 0.89286,-0.17857 6.42857,-2.14286 6.42857,-2.14286 l 7.85715,-4.82143 10.71428,-2.14285 2.85715,-1.42857 5.35714,5.17857 -2.85714,4.10714 8.03571,6.07143 -3.57143,3.21428 0.35714,1.96429 4.64286,1.96429 -0.53571,1.96428 -1.60715,2.67857 3.92858,1.07143 -3.03572,2.67857 c 0,0 -0.625,1.25 -0.44643,1.47322 0.17857,0.22321 4.46429,0.35714 4.46429,0.35714 l -1.25,1.74107 -2.90179,0.89286 0.22322,1.96428 3.97321,0.13393 10.44643,-3.57143 -10.97703,4.12278 -0.75761,2.90419 c 0,0 -3.03046,-0.12627 -2.52538,0.88388 0.50507,1.01016 3.40926,2.27285 3.40926,2.27285 l 0.50508,0.25254 -2.27285,3.15672 1.26269,1.26269 2.14658,0.12627 -2.14658,4.16688 2.02031,1.89404 0.63134,3.03046 -2.77791,1.26269 1.01015,2.14657 3.78807,-0.12627 -1.13642,2.52538 -2.27285,1.89404 0.37881,2.0203 3.66181,0.63135 -1.13643,3.28299 -1.26269,2.39912 c 0,0 0.88389,4.29315 1.38896,4.16688 0.50508,-0.12627 2.39911,0.3788 2.39911,0.3788 l -2.65165,4.67196 -0.50507,2.0203 2.52538,2.02031 2.39911,2.14657 -3.03046,5.80838 c 0,0 -0.75761,0.88388 0.63135,1.51523 1.38896,0.63134 4.29315,2.77792 4.29315,2.77792 0,0 0.88388,-0.37881 -0.50508,2.14657 -1.38896,2.52538 -2.14657,4.16688 -2.14657,4.16688 l 2.65165,2.65165 c 0,0 1.89403,1.89404 2.77792,2.39912 0.88388,0.50507 -3.78807,4.79822 -3.78807,4.79822 0,0 -0.63135,1.76777 0.88388,2.65165 1.51523,0.88388 3.03046,4.16688 3.03046,4.16688 l -3.03046,4.54569 c 0,0 1.51523,3.03045 2.0203,3.53553 0.50508,0.50508 2.90419,2.52538 2.27285,2.65165 -0.63135,0.12627 -1.89404,2.65165 -2.39912,3.283 -0.50507,0.63134 -0.88388,2.77792 -0.88388,2.77792 l 3.53554,1.76776 c 0,0 -1.6415,4.04061 -2.14658,4.04061 -0.50508,0 -2.65165,1.89404 -2.65165,1.89404 l 2.90419,3.6618 0.88388,1.6415 -3.15672,3.6618 -0.12627,2.39911 2.65165,1.89404 -3.40927,2.52538 -1.01015,0.63135 1.76777,2.65165 -0.75762,2.14657 -4.92449,0.25254 2.14657,2.02031 -2.90419,1.38896 -7.82868,3.53553 -12.2481,3.78807 -10.73287,0.88388 -6.06091,-3.28299 -3.03046,-6.69226 -0.75762,-3.53554 -2.52538,1.26269 c 0,0 -4.04061,-0.25253 -5.05076,-0.3788 -1.01015,-0.12627 -9.34391,-1.89404 -9.34391,-1.89404 l -8.46003,-1.76777 -3.6618,2.65166 -10.6066,6.18718 -10.35407,6.9448 -6.06091,3.78807 -5.05076,1.76777 -83.21132,0.12627 -191.67645,-2.52539 -84.72654,-5.17703 -29.92577,-1.64149 -24.24366,-2.52539 -19.1929,-4.92449 -16.41498,-2.39911 -9.09137,-7.44988 -1.01015,-2.65165 0,-2.27284 c 0,0 -1.51523,0.37881 -2.02031,1.01015 -0.50508,0.63135 -2.52538,3.15673 -3.15673,3.6618 -0.63134,0.50508 -3.28299,1.51523 -3.78807,1.51523 -0.50507,0 -4.54568,0.25254 -4.54568,0.25254 l -6.313458,1.89404 -3.661803,2.14657 -9.47018,2.52538 c 0,0 -13.63706,0.12627 -14.268405,-0.25253 -0.631345,-0.37881 -2.904189,-0.88389 -3.661803,-1.2627 -0.757615,-0.3788 -3.914341,-1.89403 -3.914341,-1.89403 l -0.126269,-2.14658 2.65165,-0.50507 -0.126269,-2.14658 -2.272843,-2.14657 c 0,0 -1.262691,-3.283 -0.378807,-3.6618 0.883883,-0.37881 4.293148,-1.38896 4.293148,-1.38896 l -0.883884,-2.27285 -2.272843,-1.76776 -0.126269,-2.52538 3.535534,-1.13643 1.515229,-1.38896 -4.04061,-1.76776 -1.38896,-1.89404 0.126269,-2.14657 3.788072,-1.38896 0.883884,-1.89404 -2.146575,-1.89403 -3.030457,-3.40927 2.525381,-2.0203 2.77792,-2.02031 c 0,0 0.505076,-1.13642 -0.252538,-1.6415 -0.757615,-0.50507 -3.282996,-3.15672 -3.282996,-3.15672 l 0.883883,-2.39912 3.409265,-0.88388 0.883884,-1.51523 -3.030458,-1.6415 -0.505076,-2.52538 1.894036,-2.14657 2.399112,-0.12627 0.883883,-2.77792 -2.399112,-1.76777 -2.146574,-3.15672 4.798225,-2.65166 c 0,0 1.894036,-2.0203 1.136421,-2.27284 -0.757614,-0.25254 -3.282996,-3.91434 -3.282996,-3.91434 l 1.262691,-2.65165 2.651651,-1.51523 c 0,0 0.883883,-2.52538 0.378807,-3.03046 -0.505077,-0.50507 -1.38896,-2.39911 -1.38896,-3.15672 0,-0.75762 0.505076,-3.15673 1.515229,-3.78808 1.010152,-0.63134 2.525381,-0.75761 2.525381,-1.51522 0,-0.75762 0.126269,-0.63135 -0.378807,-2.39912 -0.505076,-1.76776 -0.757614,-4.16688 -0.757614,-4.16688 l 5.3033,0 -1.894036,-2.90418 2.525382,-2.39912 -1.767767,-1.51523 -2.651651,-2.27284 c 0,0 -1.010152,-2.65165 -1.641498,-2.65165 -0.631345,0 -3.156726,-0.12627 -3.156726,-0.12627 l 0.378807,-2.65165 2.399112,0.50508 -1.388959,-1.76777 -3.788073,-2.77792 1.894036,-2.14657 c 0,0 1.136422,-3.03046 -0.378807,-2.77792 -1.515229,0.25254 -3.914341,-2.39911 -3.914341,-2.39911 l 3.661803,-1.51523 c 0,0 1.641498,-1.76777 1.641498,-2.27285 0,-0.50507 -1.136422,-1.76776 -2.272843,-2.0203 -1.136422,-0.25254 -4.04061,-0.63135 -4.545687,-0.75762 -0.505076,-0.12627 -0.252538,-1.38896 -0.252538,-1.38896 l 2.146574,-2.77792 -0.505076,-3.15672 -3.030458,0.37881 1.010153,-2.90419 c 0,0 -1.515229,-3.283 -0.252538,-3.283 1.262691,0 6.313453,-1.13642 6.313453,-1.13642 l 4.545687,-2.14658 c 0,0 15.278557,-7.82868 17.425131,-8.58629 2.146574,-0.75762 24.117394,-12.12183 24.117394,-12.12183 z"
       id="area_3"
       inkscape:connector-curvature="0"
       inkscape:label="#path3124" />
    <path
       style="fill:none;stroke:#000000;stroke-width:1px;stroke-linecap:butt;stroke-linejoin:miter;stroke-opacity:1"
       d="m 286.88332,876.59564 c 2.27285,0.50508 64.64977,1.51523 64.64977,1.51523 l 68.43783,0.75761 51.51778,0.50508 11.86929,15.40483 1.51523,8.08122 c 0,0 3.03046,5.80837 3.283,6.81853 0.25254,1.01015 9.84899,8.58629 9.84899,8.58629 0,0 1.26269,-0.25254 1.51522,-1.51523 0.25254,-1.26269 1.51523,-8.83883 1.26269,-10.35406 -0.25253,-1.51523 -1.76776,-7.32361 -3.28299,-9.09137 -1.51523,-1.76777 -6.06092,-11.8693 -6.06092,-11.8693 0,0 -6.31345,-3.78807 -7.57614,-4.54568 -1.26269,-0.75762 -1.51523,-5.05076 -1.51523,-5.05076 l 8.83884,0 15.40482,4.54568 c 0,0 4.54569,1.26269 6.81853,2.52538 2.27284,1.26269 4.04061,-0.75761 4.04061,-0.75761 l 13.63706,-14.39468 3.53554,-1.76776 2.0203,42.67894 c 0,0 4.29315,6.81853 4.79822,8.83884 0.50508,2.0203 1.51523,9.34391 1.51523,9.34391 l 2.52539,6.81853 0,8.83883 -7.07107,9.84899 -8.83884,7.57614 -8.83883,5.55584 -10.10153,4.04061 -0.25254,5.05077 -4.54568,0.75761 -0.50508,8.83884 -5.05076,1.26269 0.75761,7.3236 -2.77792,2.27285 -2.0203,7.07107 -3.283,1.0101 -8.58629,-14.14209 2.77792,-6.81853 c 0,0 1.26269,-4.04061 2.0203,-6.81853 0.75762,-2.77792 5.80838,-8.08122 5.80838,-8.08122 0,0 4.54568,-4.79822 5.3033,-6.56599 0.75761,-1.76777 3.28299,-6.56599 3.28299,-6.56599 l -1.26269,-7.57615 -0.25253,-4.29314 -3.283,2.52538 -4.04061,6.31345 c 0,0 -1.01015,1.76777 -1.51523,4.04061 -0.50508,2.27284 -0.75761,6.56599 -1.51523,8.5863 -0.75761,2.0203 -4.79822,10.85914 -4.79822,10.85914 l -3.53554,7.57614 -4.04061,5.80838 c 0,0 -2.27284,3.53553 -3.53553,4.29315 -1.26269,0.75761 -8.08122,4.79822 -8.08122,4.79822 l -54.04316,2.77792 -102.02541,-2.52538 -28.53681,0.50508 -7.3236,-4.54569 -3.283,-0.75762 -31.06219,-34.34518 1.01015,-5.3033 2.02031,-3.283 -3.78808,-2.0203 -2.77792,1.26269 -6.31345,1.51523 -3.78807,0.75761 c 0,0 -1.26269,3.283 -1.26269,4.29315 0,1.01015 1.26269,7.3236 1.26269,7.3236 l -1.51523,3.53554 -4.79822,5.05076 -0.75762,5.3033 -2.27284,3.283 -1.01015,4.79822 c 0,0 -0.50508,4.04061 0,5.05076 0.50507,1.01016 4.54568,4.54569 4.54568,4.54569 l -3.03046,2.02031 c 0,0 -11.86929,-2.77792 -13.38452,-2.77792 -1.51523,0 -10.35406,-1.01016 -12.12183,-2.02031 -1.76776,-1.01015 -10.35406,-5.55584 -11.36421,-6.06091 -1.01016,-0.50508 -4.54569,-3.53554 -4.54569,-3.53554 l -44.95179,3.03046 0,-4.54569 -3.53553,0.50508 -1.51523,-5.55584 -4.54569,-1.76777 -1.26269,-10.35406 15.15229,-5.05076 -1.01015,-1.51523 0.75761,-7.32361 -3.28299,-5.3033 0.75761,-5.05076 -4.04061,-6.81853 2.27284,-5.3033 -2.0203,-3.78807 -2.52538,-4.79823 4.04061,-2.0203 -2.02031,-4.79823 -2.27284,-5.55584 12.87944,-0.25253 10.10153,-3.03046 16.92005,-2.77792 8.5863,3.03046 c 0,0 9.84899,1.76776 11.86929,2.77792 2.02031,1.01015 8.08122,1.76776 8.08122,1.76776 l 4.29315,5.05076 6.56599,6.81853 7.07107,-0.75761 6.31346,5.05076 4.79822,-0.25254 6.56599,-1.01015 13.13198,-15.40482 11.61676,-12.37437 14.64721,-11.8693 10.10153,-6.56599 z"
       id="area_4"
       inkscape:connector-curvature="0"
       inkscape:label="#path3126" />
    <text
       xml:space="preserve"
       style="font-size:183.58444214px;font-style:normal;font-weight:normal;line-height:125%;letter-spacing:0px;word-spacing:0px;fill:#000000;fill-opacity:1;stroke:none;font-family:Sans"
       x="-71.01355"
       y="118.54207"
       id="navigation"
       sodipodi:linespacing="125%"
       inkscape:label="#text3128"
       transform="scale(0.9045249,1.1055528)"><tspan
         sodipodi:role="line"
         id="tspan3130"
         x="-71.01355"
         y="118.54207">1 2 3 4</tspan></text>
  </g>
</svg>
