<?xml version="1.0" encoding="UTF-8" standalone="no"?>
<!-- Created with Inkscape (http://www.inkscape.org/) -->

<svg
   xmlns:dc="http://purl.org/dc/elements/1.1/"
   xmlns:cc="http://creativecommons.org/ns#"
   xmlns:rdf="http://www.w3.org/1999/02/22-rdf-syntax-ns#"
   xmlns:svg="http://www.w3.org/2000/svg"
   xmlns="http://www.w3.org/2000/svg"
   xmlns:xlink="http://www.w3.org/1999/xlink"
   xmlns:sodipodi="http://sodipodi.sourceforge.net/DTD/sodipodi-0.dtd"
   xmlns:inkscape="http://www.inkscape.org/namespaces/inkscape"
   width="3000"
   height="2000"
   id="svg3040"
   version="1.1"
   inkscape:version="0.48.2 r9819"
   sodipodi:docname="Gsqrs.svg">
  <defs
     id="defs3042" />
  <sodipodi:namedview
     id="base"
     pagecolor="#ffffff"
     bordercolor="#666666"
     borderopacity="1.0"
     inkscape:pageopacity="0.0"
     inkscape:pageshadow="2"
     inkscape:zoom="0.175"
     inkscape:cx="1009.9308"
     inkscape:cy="998.70806"
     inkscape:document-units="px"
     inkscape:current-layer="layer1"
     showgrid="false"
     inkscape:window-width="1366"
     inkscape:window-height="706"
     inkscape:window-x="-8"
     inkscape:window-y="-8"
     inkscape:window-maximized="1"
     fit-margin-top="0"
     fit-margin-left="0"
     fit-margin-right="0"
     fit-margin-bottom="0" />
  <metadata
     id="metadata3045">
    <rdf:RDF>
      <cc:Work
         rdf:about="">
        <dc:format>image/svg+xml</dc:format>
        <dc:type
           rdf:resource="http://purl.org/dc/dcmitype/StillImage" />
      </cc:Work>
    </rdf:RDF>
  </metadata>
  <g
     inkscape:label="Layer 1"
     inkscape:groupmode="layer"
     id="layer1"
     transform="translate(1125,467.63782)">
    <image
       y="-467.63782"
       x="-1125"
       id="image3056"
       xlink:href="file:///J:/08/Gsqrs.jpg"
       height="2000"
       width="3000" />
    <path
       style="fill:none;stroke:#000000;stroke-width:1px;stroke-linecap:butt;stroke-linejoin:miter;stroke-opacity:1"
       d="m 771.42857,780 c -13.57143,37.14286 -17.14285,235 -17.14285,235 l -18.57143,55 c 0,0 -16.42857,75 -19.28572,88.5714 -2.85714,13.5715 -8.57143,24.2857 -8.57143,24.2857 l 1.42858,28.5715 C 743.57143,1215 1124.2857,1170.7143 1124.2857,1170.7143 1136.4286,1170 1408.5714,1145 1408.5714,1145 l -2.8571,-37.1429 -45,-37.1428 -6.4286,-27.8572 c 7.8572,-15.7142 0,-147.14282 0,-147.14282 L 1343.5714,828.57143 1324.2857,780 c 7.8572,-8.57143 8.5714,-60 10.7143,-88.57143 2.1429,-28.57143 -2.8571,-54.28571 -2.8571,-54.28571 C 1334.2857,626.42857 1329.2857,620 1329.2857,620 c 9.2857,-10.71429 14.2857,-38.57143 14.2857,-38.57143 l 25,-12.14286 c -2.8571,-2.85714 4.2857,-10 4.2857,-10 l -0.7142,-33.57143 c -68.5715,-11.42857 -391.42861,-9.28571 -433.57147,-8.57142 -42.14286,0.71428 -194.28571,12.14285 -194.28571,12.14285 l -4.28572,35 c 0,0 15,85.71429 11.42857,104.28572 0,0 6.42857,92.14286 20,111.42857 z"
       id="area_1"
       inkscape:connector-curvature="0"
       transform="translate(-1125,-467.63782)"
       inkscape:label="#path3061" />
    <path
       style="fill:none;stroke:#000000;stroke-width:1px;stroke-linecap:butt;stroke-linejoin:miter;stroke-opacity:1"
       d="m 1482.8571,1070 c 0,0 7.1429,-177.85714 15,-209.28572 7.8572,-31.42857 16.4286,-111.42857 14.2858,-120.71428 -2.1429,-9.28572 3.5714,-156.42857 3.5714,-156.42857 l 20,-9.28572 L 1675,587.85714 1687.8571,599.28571 1753.5714,585 c 0,0 38.5715,8.57143 47.1429,11.42857 l 63.5714,-5.71429 14.2857,3.57143 190,5.71429 46.4286,2.85714 7.8571,-6.42857 103.5715,-0.71429 20,-19.28571 c 0,0 20,87.85714 9.2857,162.14286 -10.7143,74.28571 -18.5714,110.71428 -32.8572,127.85714 -14.2857,17.14286 -7.5,28.57143 -7.5,28.57143 0,0 25.3572,23.57143 31.0715,38.57143 5.7143,15 13.5714,51.42857 12.8571,67.85717 l 31.4286,64.6428 -5.7143,6.0715 -1.4286,6.4285 2.5,3.2143 c 0,0 -1.7857,3.2143 -7.8571,3.5714 -6.0714,0.3572 -98.2143,-22.1428 -123.2143,-22.1428 -25,0 -83.5714,1.0714 -96.7857,-2.5 -13.2143,-3.5714 -26.7857,7.8571 -26.7857,7.8571 0,0 -20.3572,1.7857 -28.9286,0.3572 -8.5714,-1.4286 -194.6429,-12.1429 -194.6429,-12.1429 0,0 -115.7142,-10.7143 -130,-15 0,0 -27.8571,23.2143 -82.8571,30.3572 -55,7.1428 -70.7143,8.2142 -70.7143,8.2142 z"
       id="area_2"
       inkscape:connector-curvature="0"
       transform="translate(-1125,-467.63782)"
       inkscape:label="#path3063" />
    <text
       xml:space="preserve"
       style="font-size:40px;font-style:normal;font-weight:normal;line-height:125%;letter-spacing:0px;word-spacing:0px;fill:#000000;fill-opacity:1;stroke:none;font-family:Sans"
       x="497.14285"
       y="444.28571"
       id="navigation"
       sodipodi:linespacing="125%"
       transform="translate(-1125,-467.63782)"
       inkscape:label="#text3065"><tspan
         sodipodi:role="line"
         x="497.14285"
         y="444.28571"
         id="tspan3069">1 2</tspan></text>
  </g>
</svg>
