<?xml version="1.0" encoding="UTF-8" standalone="no"?>
<!-- Created with Inkscape (http://www.inkscape.org/) -->

<svg
   xmlns:dc="http://purl.org/dc/elements/1.1/"
   xmlns:cc="http://creativecommons.org/ns#"
   xmlns:rdf="http://www.w3.org/1999/02/22-rdf-syntax-ns#"
   xmlns:svg="http://www.w3.org/2000/svg"
   xmlns="http://www.w3.org/2000/svg"
   xmlns:xlink="http://www.w3.org/1999/xlink"
   xmlns:sodipodi="http://sodipodi.sourceforge.net/DTD/sodipodi-0.dtd"
   xmlns:inkscape="http://www.inkscape.org/namespaces/inkscape"
   width="800"
   height="500"
   id="svg3112"
   version="1.1"
   inkscape:version="0.48.2 r9819"
   sodipodi:docname="Gsquash2.svg">
  <defs
     id="defs3114" />
  <sodipodi:namedview
     id="base"
     pagecolor="#ffffff"
     bordercolor="#666666"
     borderopacity="1.0"
     inkscape:pageopacity="0.0"
     inkscape:pageshadow="2"
     inkscape:zoom="0.92370266"
     inkscape:cx="554.02354"
     inkscape:cy="262.20667"
     inkscape:document-units="px"
     inkscape:current-layer="layer1"
     showgrid="false"
     fit-margin-top="0"
     fit-margin-left="0"
     fit-margin-right="0"
     fit-margin-bottom="0"
     inkscape:window-width="1366"
     inkscape:window-height="706"
     inkscape:window-x="-8"
     inkscape:window-y="-8"
     inkscape:window-maximized="1" />
  <metadata
     id="metadata3117">
    <rdf:RDF>
      <cc:Work
         rdf:about="">
        <dc:format>image/svg+xml</dc:format>
        <dc:type
           rdf:resource="http://purl.org/dc/dcmitype/StillImage" />
        <dc:title></dc:title>
      </cc:Work>
    </rdf:RDF>
  </metadata>
  <g
     inkscape:label="Layer 1"
     inkscape:groupmode="layer"
     id="layer1"
     transform="translate(25,-282.36218)">
    <image
       y="282.36218"
       x="-25"
       id="image3140"
       xlink:href="file:///J:/08/Gsquash2.jpg"
       height="500"
       width="800" />
    <path
       style="fill:none;stroke:#000000;stroke-width:1px;stroke-linecap:butt;stroke-linejoin:miter;stroke-opacity:1"
       d="m 93.374203,130.83359 c 0,0 1.623899,-29.50084 46.281127,-40.326835 44.65723,-10.825994 61.16687,2.165199 61.16687,2.165199 0,0 11.09664,6.766247 15.15639,17.050946 4.05975,10.28469 17.05094,50.07022 9.47275,101.49369 0,0 -3.51845,5.9543 0.27065,24.35849 3.78909,18.40419 8.66079,32.20734 8.66079,32.20734 0,0 0.75372,12.32941 -8.11949,24.89978 -3.2478,4.60105 -11.09665,5.14235 -16.7803,9.2021 0,0 -20.02809,9.47274 -38.97358,2.1652 -18.94549,-7.30755 -16.78029,-18.67484 -16.78029,-18.67484 0,0 -1.6239,-24.89979 -11.36729,-40.86813 -9.7434,-15.96834 -30.04214,-45.46918 -36.53773,-63.60272 -6.4956,-18.13354 -12.179247,-42.22137 -12.449897,-50.07022 z"
       id="area_1"
       inkscape:connector-curvature="0"
       transform="translate(-25,282.36218)"
       sodipodi:nodetypes="cscscscsc"
       inkscape:label="#path3143" />
    <path
       style="fill:none;stroke:#000000;stroke-width:1px;stroke-linecap:butt;stroke-linejoin:miter;stroke-opacity:1"
       d="m 296.9029,260.74552 11.09665,12.17924 c 0,0 17.86289,15.1564 46.28112,4.8717 0,0 14.34445,-2.97715 21.92264,-19.75744 0,0 -6.22495,-31.66603 -1.89455,-54.12997 4.3304,-22.46394 6.76625,-25.44109 6.76625,-25.44109 0,0 13.53249,-41.13878 5.68365,-82.548207 -7.84885,-41.40943 -64.68532,-33.289934 -64.68532,-33.289934 0,0 -56.02452,4.871698 -56.56582,37.620331 0,0 0.81195,57.91907 13.53249,77.13521 12.72054,19.21614 19.75744,54.94192 17.86289,83.36016 z"
       id="area_2"
       inkscape:connector-curvature="0"
       transform="translate(-25,282.36218)"
       sodipodi:nodetypes="ccccscscc"
       inkscape:label="#path3145" />
    <path
       style="fill:none;stroke:#000000;stroke-width:1px;stroke-linecap:butt;stroke-linejoin:miter;stroke-opacity:1"
       d="m 452.41843,241.25646 c 0,0 8.61203,26.6016 39.23256,25.45333 30.62054,-1.14827 35.97913,-17.22406 35.97913,-17.22406 0,0 2.6793,-6.50686 2.87068,-17.22405 0.19138,-10.71719 0.19138,-23.73091 4.4017,-33.49121 4.21032,-9.7603 17.60681,-44.39978 21.05162,-55.49972 3.44481,-11.09995 8.61203,-50.523888 6.69824,-63.15486 -1.91378,-12.630971 -23.73091,-28.515374 -50.33251,-30.620536 -26.60159,-2.105162 -55.6911,2.29654 -63.92037,17.032673 -8.22926,14.736134 -6.88962,30.811915 -6.88962,30.811915 0,0 -1.7224,42.677378 3.06206,56.265238 4.78446,13.58786 8.42064,26.79297 9.18616,35.59637 0.76551,8.80341 1.7224,40.38084 -1.33965,52.05491 z"
       id="area_3"
       inkscape:connector-curvature="0"
       transform="translate(-25,282.36218)"
       inkscape:label="#path3147" />
    <path
       style="fill:none;stroke:#000000;stroke-width:1px;stroke-linecap:butt;stroke-linejoin:miter;stroke-opacity:1"
       d="m 567.81958,257.14087 c 0,0 -4.01895,13.01373 3.82756,20.66886 7.84652,7.65513 23.73092,22.58265 45.1653,19.71197 21.43437,-2.87067 28.51537,-8.03789 31.57742,-20.66886 3.06206,-12.63097 -0.57413,-10.33443 3.44482,-20.47749 4.01894,-10.14305 7.08099,-31.7688 21.24299,-48.22734 14.162,-16.45854 24.49643,-47.65321 24.49643,-47.65321 0,0 9.18616,-37.89291 8.80341,-44.39978 -0.38276,-6.50686 -6.88962,-25.836077 -39.61532,-35.787751 -32.7257,-9.951675 -60.09281,-2.29654 -60.09281,-2.29654 0,0 -17.98956,5.932729 -23.15678,21.434375 -5.16721,15.501646 -10.90856,36.361886 -11.29132,49.949746 -0.38276,13.58787 1.33965,36.93603 2.87067,40.76359 1.53103,3.82757 2.48792,28.13262 0.76552,33.87397 -1.72241,5.74135 -2.6793,26.02746 -8.03789,33.10846 z"
       id="area_4"
       inkscape:connector-curvature="0"
       transform="translate(-25,282.36218)"
       inkscape:label="#path3149" />
    <text
       xml:space="preserve"
       style="font-size:40px;font-style:normal;font-weight:normal;line-height:125%;letter-spacing:0px;word-spacing:0px;fill:#000000;fill-opacity:1;stroke:none;font-family:Sans"
       x="40.056179"
       y="44.225628"
       id="navigation"
       sodipodi:linespacing="125%"
       transform="translate(-25,282.36218)"
       inkscape:label="#text3151"><tspan
         sodipodi:role="line"
         id="tspan3153"
         x="40.056179"
         y="44.225628">1 2 3 4</tspan></text>
  </g>
</svg>
