<?xml version="1.0" encoding="UTF-8" standalone="no"?>
<!-- Created with Inkscape (http://www.inkscape.org/) -->

<svg
   xmlns:dc="http://purl.org/dc/elements/1.1/"
   xmlns:cc="http://creativecommons.org/ns#"
   xmlns:rdf="http://www.w3.org/1999/02/22-rdf-syntax-ns#"
   xmlns:svg="http://www.w3.org/2000/svg"
   xmlns="http://www.w3.org/2000/svg"
   xmlns:xlink="http://www.w3.org/1999/xlink"
   xmlns:sodipodi="http://sodipodi.sourceforge.net/DTD/sodipodi-0.dtd"
   xmlns:inkscape="http://www.inkscape.org/namespaces/inkscape"
   width="800"
   height="500"
   id="svg3073"
   version="1.1"
   inkscape:version="0.48.2 r9819"
   sodipodi:docname="New document 5">
  <defs
     id="defs3075" />
  <sodipodi:namedview
     id="base"
     pagecolor="#ffffff"
     bordercolor="#666666"
     borderopacity="1.0"
     inkscape:pageopacity="0.0"
     inkscape:pageshadow="2"
     inkscape:zoom="0.98994949"
     inkscape:cx="399.0922"
     inkscape:cy="294.87911"
     inkscape:document-units="px"
     inkscape:current-layer="layer1"
     showgrid="false"
     fit-margin-top="0"
     fit-margin-left="0"
     fit-margin-right="0"
     fit-margin-bottom="0"
     showguides="true"
     inkscape:guide-bbox="true"
     inkscape:window-width="1366"
     inkscape:window-height="706"
     inkscape:window-x="-8"
     inkscape:window-y="-8"
     inkscape:window-maximized="1" />
  <metadata
     id="metadata3078">
    <rdf:RDF>
      <cc:Work
         rdf:about="">
        <dc:format>image/svg+xml</dc:format>
        <dc:type
           rdf:resource="http://purl.org/dc/dcmitype/StillImage" />
        <dc:title></dc:title>
      </cc:Work>
    </rdf:RDF>
  </metadata>
  <g
     inkscape:label="Layer 1"
     inkscape:groupmode="layer"
     id="layer1"
     transform="translate(-265.71429,-536.64789)">
    <image
       y="536.64789"
       x="265.71429"
       id="image3089"
       xlink:href="file:///J:/08/Gsquash1.jpg"
       height="500"
       width="800" />
    <path
       style="fill:none;stroke:#000000;stroke-width:1px;stroke-linecap:butt;stroke-linejoin:miter;stroke-opacity:1"
       d="m 127.32143,291.78571 c 0,0 7.32143,14.64286 24.64286,15.53572 17.32142,0.89286 30.89285,-0.53572 43.21428,-11.96429 12.32143,-11.42857 12.85714,-18.92857 12.85714,-18.92857 L 179.28571,110 175.35714,91.785713 c 0,0 -8.75,-15.178571 -27.67857,-16.428571 -18.92857,-1.25 -38.57143,3.214286 -38.57143,3.214286 0,0 -30.714283,8.571428 -38.571426,25.178572 0,0 -5.178571,5.17857 -1.428571,17.85714 3.75,12.67857 29.464286,85.35715 29.464286,85.35715 z"
       id="area_1"
       inkscape:connector-curvature="0"
       transform="translate(265.71429,536.64789)"
       inkscape:label="#path3094" />
    <path
       style="fill:none;stroke:#000000;stroke-width:1px;stroke-linecap:butt;stroke-linejoin:miter;stroke-opacity:1"
       d="m 349.82143,262.14286 c 0,0 -6.60714,15.71428 -22.67857,21.25 -16.07143,5.53571 -31.78572,2.85714 -31.78572,2.85714 0,0 -20,-1.78571 -25.53571,-19.64286 0,0 -27.67857,-154.82143 -30.89286,-172.678569 -3.21428,-17.857143 8.92857,-23.214286 18.21429,-30 9.28571,-6.785715 44.64285,-11.071429 63.21428,-6.428572 18.57143,4.642857 26.78572,21.428572 26.78572,21.428572 z"
       id="area_2"
       inkscape:connector-curvature="0"
       transform="translate(265.71429,536.64789)"
       inkscape:label="#path3096" />
    <path
       style="fill:none;stroke:#000000;stroke-width:1px;stroke-linecap:butt;stroke-linejoin:miter;stroke-opacity:1"
       d="m 438.21429,260.71429 c 0,0 5.35714,21.07142 28.21428,23.92857 22.85715,2.85714 29.64286,1.42857 38.21429,-2.85715 8.57143,-4.28571 15,-13.21428 16.07143,-19.28571 L 549.64286,86.428571 c 0,0 -4.28572,-26.071429 -47.14286,-30.714286 -42.85714,-4.642857 -56.78571,16.785714 -56.78571,16.785714 0,0 -3.57143,7.857143 -3.57143,13.571429 0,5.714286 -3.92857,174.642862 -3.92857,174.642862 z"
       id="area_3"
       inkscape:connector-curvature="0"
       transform="translate(265.71429,536.64789)"
       inkscape:label="#path3098" />
    <path
       style="fill:none;stroke:#000000;stroke-width:1px;stroke-linecap:butt;stroke-linejoin:miter;stroke-opacity:1"
       d="m 587.5,272.14286 c 0,0 11.07143,20.35714 21.42857,24.64285 10.35715,4.28572 16.78572,9.28572 39.64286,6.78572 22.85714,-2.5 25,-26.78572 25,-26.78572 L 730.71429,112.5 c 0,0 5,-14.285715 -27.85715,-31.428572 C 670,63.928571 644.28572,73.214285 644.28572,73.214285 c 0,0 -18.92858,1.428571 -25,22.857143 z"
       id="area_4"
       inkscape:connector-curvature="0"
       transform="translate(265.71429,536.64789)"
       inkscape:label="#path3102" />
    <text
       xml:space="preserve"
       style="font-size:40px;font-style:normal;font-weight:normal;line-height:125%;letter-spacing:0px;word-spacing:0px;fill:#000000;fill-opacity:1;stroke:none;font-family:Sans"
       x="309.15085"
       y="588.14014"
       id="navigation"
       sodipodi:linespacing="125%"
       inkscape:label="#text3104"><tspan
         sodipodi:role="line"
         x="309.15085"
         y="588.14014"
         id="tspan3108">1 2 3 4</tspan></text>
  </g>
</svg>
