<?xml version="1.0" encoding="UTF-8" standalone="no"?>
<!-- Created with Inkscape (http://www.inkscape.org/) -->

<svg
   xmlns:dc="http://purl.org/dc/elements/1.1/"
   xmlns:cc="http://creativecommons.org/ns#"
   xmlns:rdf="http://www.w3.org/1999/02/22-rdf-syntax-ns#"
   xmlns:svg="http://www.w3.org/2000/svg"
   xmlns="http://www.w3.org/2000/svg"
   xmlns:xlink="http://www.w3.org/1999/xlink"
   xmlns:sodipodi="http://sodipodi.sourceforge.net/DTD/sodipodi-0.dtd"
   xmlns:inkscape="http://www.inkscape.org/namespaces/inkscape"
   width="800"
   height="500"
   id="svg3155"
   version="1.1"
   inkscape:version="0.48.2 r9819"
   sodipodi:docname="New document 9">
  <defs
     id="defs3157" />
  <sodipodi:namedview
     id="base"
     pagecolor="#ffffff"
     bordercolor="#666666"
     borderopacity="1.0"
     inkscape:pageopacity="0.0"
     inkscape:pageshadow="2"
     inkscape:zoom="0.98994949"
     inkscape:cx="349.69637"
     inkscape:cy="221.74859"
     inkscape:document-units="px"
     inkscape:current-layer="layer1"
     showgrid="false"
     fit-margin-top="0"
     fit-margin-left="0"
     fit-margin-right="0"
     fit-margin-bottom="0"
     inkscape:window-width="1366"
     inkscape:window-height="706"
     inkscape:window-x="-8"
     inkscape:window-y="-8"
     inkscape:window-maximized="1" />
  <metadata
     id="metadata3160">
    <rdf:RDF>
      <cc:Work
         rdf:about="">
        <dc:format>image/svg+xml</dc:format>
        <dc:type
           rdf:resource="http://purl.org/dc/dcmitype/StillImage" />
        <dc:title></dc:title>
      </cc:Work>
    </rdf:RDF>
  </metadata>
  <g
     inkscape:label="Layer 1"
     inkscape:groupmode="layer"
     id="layer1"
     transform="translate(0,-56.647896)">
    <image
       y="56.647896"
       x="0"
       id="image3171"
       xlink:href="file:///J:/08/Gsquash3.jpg"
       height="500"
       width="800" />
    <path
       style="fill:none;stroke:#000000;stroke-width:1px;stroke-linecap:butt;stroke-linejoin:miter;stroke-opacity:1"
       d="m 116.16754,283.32228 c 0,0 51.51778,36.87057 91.92388,-16.16244 L 195.46452,161.5989 c 0,0 -25.75889,-49.49748 -97.9848,-10.10153 0,0 -22.728432,17.1726 -17.677669,36.87057 z"
       id="area_1"
       inkscape:connector-curvature="0"
       transform="translate(0,56.647896)"
       sodipodi:nodetypes="cccccc"
       inkscape:label="#path3174" />
    <path
       style="fill:none;stroke:#000000;stroke-width:1px;stroke-linecap:butt;stroke-linejoin:miter;stroke-opacity:1"
       d="m 268.70058,263.11923 c 0,0 42.4264,44.44671 87.37819,-9.09137 l 2.52538,-101.52034 c 0,0 -31.31472,-56.063462 -96.97464,-18.68782 0,0 -18.68782,13.63706 -16.16244,36.36549 2.22057,19.98514 23.23351,92.93404 23.23351,92.93404 z"
       id="area_2"
       inkscape:connector-curvature="0"
       transform="translate(0,56.647896)"
       sodipodi:nodetypes="ccccsc"
       inkscape:label="#path3176" />
    <path
       style="fill:none;stroke:#000000;stroke-width:1px;stroke-linecap:butt;stroke-linejoin:miter;stroke-opacity:1"
       d="m 399.01026,254.02786 c 0,0 43.94163,52.02285 91.4188,1.01015 l 15.15229,-101.52033 c 0,0 1.51523,-32.32488 -55.55839,-35.35534 -57.07362,-3.03046 -61.11423,35.86041 -61.11423,35.86041 z"
       id="area_3"
       inkscape:connector-curvature="0"
       transform="translate(0,56.647896)"
       inkscape:label="#path3178" />
    <path
       style="fill:none;stroke:#000000;stroke-width:1px;stroke-linecap:butt;stroke-linejoin:miter;stroke-opacity:1"
       d="m 533.86562,262.61415 c 0,0 31.81981,63.63961 93.43911,17.17259 l 32.32488,-101.52033 c 0,0 -4.04061,-34.34518 -52.02285,-42.4264 -47.98225,-8.08122 -66.67007,24.74873 -66.67007,24.74873 z"
       id="area_4"
       inkscape:connector-curvature="0"
       transform="translate(0,56.647896)"
       inkscape:label="#path3180" />
    <text
       xml:space="preserve"
       style="font-size:40px;font-style:normal;font-weight:normal;line-height:125%;letter-spacing:0px;word-spacing:0px;fill:#000000;fill-opacity:1;stroke:none;font-family:Sans"
       x="40.406101"
       y="115.13188"
       id="navigation"
       sodipodi:linespacing="125%"
       transform="translate(0,56.647896)"
       inkscape:label="#text3182"><tspan
         sodipodi:role="line"
         x="40.406101"
         y="115.13188"
         id="tspan3186">1 2 3 4</tspan></text>
  </g>
</svg>
