<?xml version="1.0" encoding="UTF-8" standalone="no"?>
<!-- Created with Inkscape (http://www.inkscape.org/) -->

<svg
   xmlns:dc="http://purl.org/dc/elements/1.1/"
   xmlns:cc="http://creativecommons.org/ns#"
   xmlns:rdf="http://www.w3.org/1999/02/22-rdf-syntax-ns#"
   xmlns:svg="http://www.w3.org/2000/svg"
   xmlns="http://www.w3.org/2000/svg"
   xmlns:xlink="http://www.w3.org/1999/xlink"
   xmlns:sodipodi="http://sodipodi.sourceforge.net/DTD/sodipodi-0.dtd"
   xmlns:inkscape="http://www.inkscape.org/namespaces/inkscape"
   width="800"
   height="500"
   id="svg3190"
   version="1.1"
   inkscape:version="0.48.2 r9819"
   sodipodi:docname="New document 11">
  <defs
     id="defs3192" />
  <sodipodi:namedview
     id="base"
     pagecolor="#ffffff"
     bordercolor="#666666"
     borderopacity="1.0"
     inkscape:pageopacity="0.0"
     inkscape:pageshadow="2"
     inkscape:zoom="0.7"
     inkscape:cx="526.47927"
     inkscape:cy="267.07534"
     inkscape:document-units="px"
     inkscape:current-layer="layer1"
     showgrid="false"
     fit-margin-top="0"
     fit-margin-left="0"
     fit-margin-right="0"
     fit-margin-bottom="0"
     inkscape:window-width="1366"
     inkscape:window-height="706"
     inkscape:window-x="-8"
     inkscape:window-y="-8"
     inkscape:window-maximized="1" />
  <metadata
     id="metadata3195">
    <rdf:RDF>
      <cc:Work
         rdf:about="">
        <dc:format>image/svg+xml</dc:format>
        <dc:type
           rdf:resource="http://purl.org/dc/dcmitype/StillImage" />
        <dc:title></dc:title>
      </cc:Work>
    </rdf:RDF>
  </metadata>
  <g
     inkscape:label="Layer 1"
     inkscape:groupmode="layer"
     id="layer1"
     transform="translate(25,-282.36218)">
    <image
       y="282.36218"
       x="-25"
       id="image3206"
       xlink:href="file:///J:/08/Gsquash4.jpg"
       height="500"
       width="800" />
    <path
       style="fill:none;stroke:#000000;stroke-width:1px;stroke-linecap:butt;stroke-linejoin:miter;stroke-opacity:1"
       d="m 117.14286,303.57143 c 0,0 15.71428,23.57143 42.14285,22.14286 26.42858,-1.42858 38.57143,-11.07143 45,-25 l 8.92858,-101.42858 c 0,0 -6.07143,-33.57142 -49.64286,-32.5 C 120,167.85714 111.07143,190 111.07143,190 c 0,0 -2.5,10.71429 -1.78572,16.78571 0.71429,6.07143 7.85715,96.78572 7.85715,96.78572 z"
       id="area_1"
       inkscape:connector-curvature="0"
       transform="translate(-25,282.36218)"
       inkscape:label="#path3209" />
    <path
       style="fill:none;stroke:#000000;stroke-width:1px;stroke-linecap:butt;stroke-linejoin:miter;stroke-opacity:1"
       d="m 276.78571,287.5 c 0,0 17.85715,25.71429 37.85715,23.21429 20,-2.5 36.42857,2.5 51.78571,-26.07143 l 6.42857,-101.42857 c 0,0 -6.42857,-33.57143 -49.28571,-33.21429 -42.85714,0.35714 -54.28572,27.5 -54.28572,27.5 0,0 -2.5,9.64286 -1.07142,18.57143 C 269.64286,205 276.78571,287.5 276.78571,287.5 z"
       id="area_2"
       inkscape:connector-curvature="0"
       transform="translate(-25,282.36218)"
       inkscape:label="#path3211" />
    <path
       style="fill:none;stroke:#000000;stroke-width:1px;stroke-linecap:butt;stroke-linejoin:miter;stroke-opacity:1"
       d="m 448.57143,287.5 c 0,0 16.42857,28.57143 42.14286,25.35714 25.71428,-3.21428 28.21428,-1.42857 46.78571,-23.57143 l 9.28572,-103.57142 c 0,0 -4.28572,-29.64286 -52.5,-32.5 C 446.07143,150.35714 440,185 440,185 z"
       id="area_3"
       inkscape:connector-curvature="0"
       transform="translate(-25,282.36218)"
       inkscape:label="#path3213" />
    <path
       style="fill:none;stroke:#000000;stroke-width:1px;stroke-linecap:butt;stroke-linejoin:miter;stroke-opacity:1"
       d="m 603.21429,308.92857 c 0,0 45.71428,47.85714 87.85714,-4.28571 l 8.57143,-102.85715 c 0,0 -2.5,-30.71428 -51.07143,-35 -48.57143,-4.28571 -55,38.57143 -55,38.57143 z"
       id="area_4"
       inkscape:connector-curvature="0"
       transform="translate(-25,282.36218)"
       inkscape:label="#path3215" />
    <text
       xml:space="preserve"
       style="font-size:40px;font-style:normal;font-weight:normal;line-height:125%;letter-spacing:0px;word-spacing:0px;fill:#000000;fill-opacity:1;stroke:none;font-family:Sans"
       x="61.42857"
       y="44.285713"
       id="navigation"
       sodipodi:linespacing="125%"
       transform="translate(-25,282.36218)"
       inkscape:label="#text3217"><tspan
         sodipodi:role="line"
         id="tspan3219"
         x="61.42857"
         y="44.285713">1 2 3 4</tspan></text>
  </g>
</svg>
