<?xml version="1.0" encoding="UTF-8" standalone="no"?>
<!-- Created with Inkscape (http://www.inkscape.org/) -->

<svg
   xmlns:dc="http://purl.org/dc/elements/1.1/"
   xmlns:cc="http://creativecommons.org/ns#"
   xmlns:rdf="http://www.w3.org/1999/02/22-rdf-syntax-ns#"
   xmlns:svg="http://www.w3.org/2000/svg"
   xmlns="http://www.w3.org/2000/svg"
   xmlns:xlink="http://www.w3.org/1999/xlink"
   xmlns:sodipodi="http://sodipodi.sourceforge.net/DTD/sodipodi-0.dtd"
   xmlns:inkscape="http://www.inkscape.org/namespaces/inkscape"
   width="799"
   height="533"
   id="svg3221"
   version="1.1"
   inkscape:version="0.48.2 r9819"
   sodipodi:docname="New document 13">
  <defs
     id="defs3223" />
  <sodipodi:namedview
     id="base"
     pagecolor="#ffffff"
     bordercolor="#666666"
     borderopacity="1.0"
     inkscape:pageopacity="0.0"
     inkscape:pageshadow="2"
     inkscape:zoom="1.4"
     inkscape:cx="456.2807"
     inkscape:cy="272.35491"
     inkscape:document-units="px"
     inkscape:current-layer="layer1"
     showgrid="false"
     fit-margin-top="0"
     fit-margin-left="0"
     fit-margin-right="0"
     fit-margin-bottom="0"
     inkscape:window-width="1366"
     inkscape:window-height="706"
     inkscape:window-x="-8"
     inkscape:window-y="-8"
     inkscape:window-maximized="1" />
  <metadata
     id="metadata3226">
    <rdf:RDF>
      <cc:Work
         rdf:about="">
        <dc:format>image/svg+xml</dc:format>
        <dc:type
           rdf:resource="http://purl.org/dc/dcmitype/StillImage" />
        <dc:title></dc:title>
      </cc:Work>
    </rdf:RDF>
  </metadata>
  <g
     inkscape:label="Layer 1"
     inkscape:groupmode="layer"
     id="layer1"
     transform="translate(1688.0714,479.85211)">
    <image
       y="-479.85211"
       x="-1688.0714"
       id="image3237"
       xlink:href="file:///J:/08/Gswb.jpg"
       height="533"
       width="799" />
    <path
       style="fill:none;stroke:#000000;stroke-width:1px;stroke-linecap:butt;stroke-linejoin:miter;stroke-opacity:1"
       d="m 485.35714,215.14286 c 0,0 1.96429,-3.57143 9.82143,-1.60715 7.85715,1.96429 31.60715,13.03572 31.60715,13.03572 0,0 8.21428,3.57143 5,8.39286 -3.21429,4.82142 0.17857,3.21428 0.17857,3.21428 0,0 1.60714,3.75 -1.96429,8.92857 -3.57143,5.17857 -53.75,71.60715 -53.75,71.60715 0,0 -2.67857,2.85714 -10.71428,1.25 -8.03572,-1.60715 -34.10715,-15.35715 -34.82143,-16.25 -0.71429,-0.89286 -2.14286,-5.35715 -0.89286,-7.14286 1.25,-1.78572 -0.35714,-2.5 -0.35714,-2.5 0,0 -2.67857,-2.5 1.42857,-8.92857 4.10714,-6.42857 47.67857,-68.03572 54.46428,-70 z"
       id="area_1"
       inkscape:connector-curvature="0"
       transform="translate(-1688.0714,-479.85211)"
       inkscape:label="#path3240" />
    <path
       style="fill:none;stroke:#000000;stroke-width:1px;stroke-linecap:butt;stroke-linejoin:miter;stroke-opacity:1"
       d="m 488.39286,339.96429 c 0,0 -4.28572,-3.39286 -0.71429,-10.17858 3.57143,-6.78571 40.89286,-60.17857 40.89286,-60.17857 0,0 2.32143,-5 15.71429,-2.67857 13.39285,2.32143 34.82142,8.39286 38.03571,11.25 3.21429,2.85714 5.17857,3.92857 6.42857,5.35714 1.25,1.42858 0.71429,5.17858 -1.07143,7.14286 -1.78571,1.96429 -0.17857,3.75 -0.17857,3.75 0,0 1.42857,0.17857 -1.60714,4.64286 -3.03572,4.46428 -26.42857,43.21428 -27.85714,48.03571 -1.42858,4.82143 -6.42858,13.21429 -6.42858,13.21429 0,0 -3.21428,5 -12.14285,5 -8.92857,0 -33.57143,-3.39286 -46.78572,-10.89286 0,0 -6.07143,-5.53571 -5.71428,-7.85714 0.35714,-2.32143 1.96428,-2.14286 1.96428,-2.14286 0,0 1.60715,-2.49999 -0.53571,-4.46428 z"
       id="area_3"
       inkscape:connector-curvature="0"
       transform="translate(-1688.0714,-479.85211)"
       inkscape:label="#path3242" />
    <path
       style="fill:none;stroke:#000000;stroke-width:1px;stroke-linecap:butt;stroke-linejoin:miter;stroke-opacity:1"
       d="m 459.82143,354.25 c 0,0 7.32143,-1.25 9.64286,5.53571 2.32143,6.78572 11.07143,34.82143 11.07143,34.82143 0,0 1.25,6.78572 0.71428,7.67857 -0.53571,0.89286 2.67857,8.57143 -0.71428,11.42858 -3.39286,2.85714 -72.14286,14.64285 -90.53572,14.10714 0,0 -5.71428,0.17857 -9.28571,-11.25 -3.57143,-11.42857 -8.75,-43.39286 -8.75,-43.39286 0,0 -2.67857,-6.07143 13.39285,-9.10714 16.07143,-3.03572 74.46429,-9.82143 74.46429,-9.82143 z"
       id="area_8"
       inkscape:connector-curvature="0"
       transform="translate(-1688.0714,-479.85211)"
       inkscape:label="#path3244" />
    <path
       style="fill:none;stroke:#000000;stroke-width:1px;stroke-linecap:butt;stroke-linejoin:miter;stroke-opacity:1"
       d="m 270.71429,348.71429 c 0,0 -6.25,-9.46429 2.5,-10.35715 8.75,-0.89285 5,0 5,0 0,0 3.03571,-3.21428 9.28571,-2.67857 0,0 4.10714,-3.75 9.64286,-2.67857 0,0 4.28571,-3.39286 9.46428,-1.96429 0,0 0.17857,-3.39285 9.28572,-2.5 2.4951,-1.49789 5.03489,-2.9064 8.92857,-1.60714 2.83615,-2.09848 6.09785,-3.48771 10.35714,-3.21428 2.70079,-1.62402 5.43671,-3.20411 10,-2.5 2.12928,-0.72787 3.28753,-2.42676 7.14286,-1.42858 3.08922,-2.06862 6.49654,-3.34197 10.53571,-3.03571 2.67857,-1.09447 5.35715,-2.1281 8.03572,-0.89286 3.69048,-1.16025 7.38095,-2.37177 11.07143,-2.14285 1.96918,-0.95042 4.25189,-1.77544 8.57143,-1.78572 2.82324,-0.4463 4.06918,-2.73278 9.46428,-0.17857 1.50215,2.50281 1.77159,4.75908 0.89286,6.78571 3.13102,2.38095 4.99923,4.76191 3.39286,7.14286 1.41434,1.62638 3.90859,2.84732 2.67857,7.67857 1.97068,2.14953 4.12143,4.24762 2.85714,7.32143 4.12159,3.09524 2.94362,6.19048 2.5,9.28572 1.12381,2.93905 1.60262,5.74909 0.35714,8.21428 -4.04762,2.09105 -8.09523,1.8545 -12.14285,2.67857 l -9.82143,1.42857 -9.46429,1.78572 -10.35714,6.42857 -2.85714,0 c -3.39286,2.79443 -6.78572,1.58825 -10.17858,1.78571 -2.60078,1.36433 -5.49506,1.84815 -8.57142,1.78572 -3.75746,3.62363 -6.85522,2.62933 -10.17858,3.21428 -2.54438,2.35171 -5.84861,3.18375 -9.82143,2.67858 -2.69341,0.77396 -5.09571,2.71238 -8.21428,1.78571 -3.51191,3.21003 -7.02381,2.42334 -10.53572,3.03571 -2.65195,1.77169 -4.96502,1.84891 -7.14285,1.25 -3.5384,1.92472 -6.5205,2.18054 -9.10715,1.25 -5.23206,2.36889 -8.17697,0.16347 -12.14285,0 -1.9284,-1.56556 -2.88624,-3.6164 -1.96429,-6.60714 -2.4174,-1.6782 -2.36535,-4.59113 -1.96428,-7.67857 -1.97912,-1.89735 -2.59564,-4.47599 -2.67858,-7.32143 -1.35241,-1.99799 -3.01042,-3.74131 -1.60714,-8.03571 -1.72939,-2.50622 -4.59276,-4.20245 -3.21428,-8.92857 z"
       id="area_4"
       inkscape:connector-curvature="0"
       transform="translate(-1688.0714,-479.85211)"
       sodipodi:nodetypes="csccccccccccccccccccccccccccccccccccccccc"
       inkscape:label="#path3246" />
    <path
       style="fill:none;stroke:#000000;stroke-width:1px;stroke-linecap:butt;stroke-linejoin:miter;stroke-opacity:1"
       d="m 323.39286,248.89286 c 0,0 8.21428,-28.57143 42.32143,-35.53572 34.10714,-6.96428 53.39285,10.17857 53.39285,10.17857 0,0 13.75,6.60715 15.17858,25 1.42857,18.39286 -16.78572,35 -16.78572,35 0,0 -15,17.32143 -47.32143,12.67858 C 337.85714,291.57143 328.75,276.39286 328.75,276.39286 c 0,0 -8.21429,-13.21429 -5.35714,-27.5 z"
       id="area_6"
       inkscape:connector-curvature="0"
       transform="translate(-1688.0714,-479.85211)"
       inkscape:label="#path3248" />
    <path
       style="fill:none;stroke:#000000;stroke-width:1px;stroke-linecap:butt;stroke-linejoin:miter;stroke-opacity:1"
       d="m 219.46428,277.82142 c 0,0 16.42858,-26.96428 51.78572,-25.71428 35.35714,1.25 41.78571,33.75 41.78571,33.75 l 0.35715,10.71429 c 0,0 2.32143,10.17857 -1.07143,18.57143 -3.39286,8.39285 -9.28572,15.17857 -9.28572,15.17857 l -34.10714,8.39286 -0.71428,7.67857 c 0,0 -36.56858,-3.5232 -47.14286,-20.89286 -10.55409,-17.3365 -3.54251,-46.07195 -1.60715,-47.67858 z"
       id="area_9"
       inkscape:connector-curvature="0"
       transform="translate(-1688.0714,-479.85211)"
       sodipodi:nodetypes="csccscccsc"
       inkscape:label="#path3250" />
    <path
       style="fill:none;stroke:#000000;stroke-width:1px;stroke-linecap:butt;stroke-linejoin:miter;stroke-opacity:1"
       d="m 199.28571,194.42857 c 0,0 12.5,-45.35714 62.5,-26.96429 50,18.39286 32.14286,55.00001 32.14286,55.00001 0,0 2.5,12.67857 -11.25,23.39285 -13.75,10.71429 -40.35714,8.57143 -40.35714,8.57143 0,0 -52.67857,-6.78571 -43.03572,-60 z"
       id="area_5"
       inkscape:connector-curvature="0"
       transform="translate(-1688.0714,-479.85211)"
       inkscape:label="#path3252" />
    <path
       style="fill:none;stroke:#000000;stroke-width:1px;stroke-linecap:butt;stroke-linejoin:miter;stroke-opacity:1"
       d="m 290.71429,136.75 c 0,0 27.85714,-32.32143 62.85714,-8.92857 35,23.39285 24.82143,43.57143 20.35714,53.57143 -4.46428,10 -22.85714,28.03571 -45.89286,23.39285 C 305,200.14286 289.46429,189.42857 285,177.28571 280.53571,165.14286 280.71429,149.60714 290.71429,136.75 z"
       id="area_2"
       inkscape:connector-curvature="0"
       transform="translate(-1688.0714,-479.85211)"
       inkscape:label="#path3254" />
    <path
       style="fill:none;stroke:#000000;stroke-width:1px;stroke-linecap:butt;stroke-linejoin:miter;stroke-opacity:1"
       d="m 432.32143,123.17857 16.78571,-9.46429 c 0,0 12.67858,6.42858 14.46429,8.57143 1.78571,2.14286 21.25,4.28572 21.25,4.28572 l 0.17857,12.5 c 0,0 6.07143,5 12.67857,3.75 l 6.25,10.17857 0.89286,24.10714 -14.46429,21.96429 -7.67857,7.85714 -28.92857,9.46429 c 0,0 -13.21428,1.60714 -38.21428,-13.57143 L 399.10714,183.71428 396.07143,161.03571 409.28572,135.5 c 0,0 4.64285,-11.78572 23.03571,-12.32143 z"
       id="area_7"
       inkscape:connector-curvature="0"
       transform="translate(-1688.0714,-479.85211)"
       inkscape:label="#path3256" />
    <text
       xml:space="preserve"
       style="font-size:40px;font-style:normal;font-weight:normal;line-height:125%;letter-spacing:0px;word-spacing:0px;fill:#000000;fill-opacity:1;stroke:none;font-family:Sans"
       x="75.714287"
       y="90.85714"
       id="navigation"
       sodipodi:linespacing="125%"
       transform="translate(-1688.0714,-479.85211)"
       inkscape:label="#text3258"><tspan
         sodipodi:role="line"
         id="tspan3260"
         x="75.714287"
         y="90.85714">5 2 7 9 6 1 4 8 3</tspan></text>
  </g>
</svg>
