<?xml version="1.0" encoding="UTF-8" standalone="no"?>
<!-- Created with Inkscape (http://www.inkscape.org/) -->

<svg
   xmlns:dc="http://purl.org/dc/elements/1.1/"
   xmlns:cc="http://creativecommons.org/ns#"
   xmlns:rdf="http://www.w3.org/1999/02/22-rdf-syntax-ns#"
   xmlns:svg="http://www.w3.org/2000/svg"
   xmlns="http://www.w3.org/2000/svg"
   xmlns:xlink="http://www.w3.org/1999/xlink"
   xmlns:sodipodi="http://sodipodi.sourceforge.net/DTD/sodipodi-0.dtd"
   xmlns:inkscape="http://www.inkscape.org/namespaces/inkscape"
   width="3000"
   height="2000"
   id="svg3374"
   version="1.1"
   inkscape:version="0.48.2 r9819"
   sodipodi:docname="New document 19">
  <defs
     id="defs3376" />
  <sodipodi:namedview
     id="base"
     pagecolor="#ffffff"
     bordercolor="#666666"
     borderopacity="1.0"
     inkscape:pageopacity="0.0"
     inkscape:pageshadow="2"
     inkscape:zoom="0.49497475"
     inkscape:cx="1275.842"
     inkscape:cy="1216.1317"
     inkscape:document-units="px"
     inkscape:current-layer="layer1"
     showgrid="false"
     fit-margin-top="0"
     fit-margin-left="0"
     fit-margin-right="0"
     fit-margin-bottom="0"
     inkscape:window-width="1366"
     inkscape:window-height="706"
     inkscape:window-x="-8"
     inkscape:window-y="-8"
     inkscape:window-maximized="1" />
  <metadata
     id="metadata3379">
    <rdf:RDF>
      <cc:Work
         rdf:about="">
        <dc:format>image/svg+xml</dc:format>
        <dc:type
           rdf:resource="http://purl.org/dc/dcmitype/StillImage" />
        <dc:title></dc:title>
      </cc:Work>
    </rdf:RDF>
  </metadata>
  <g
     inkscape:label="Layer 1"
     inkscape:groupmode="layer"
     id="layer1"
     transform="translate(777.14288,193.3521)">
    <image
       y="-193.3521"
       x="-777.14288"
       id="image3390"
       xlink:href="file:///J:/08/Gswts.jpg"
       height="2000"
       width="3000" />
    <path
       style="fill:none;stroke:#000000;stroke-width:1px;stroke-linecap:butt;stroke-linejoin:miter;stroke-opacity:1"
       d="m 728.57143,1074.2857 30,-464.2857 34.28571,-42.85714 78.57143,-2.85715 41.42857,38.57143 L 890,1071.4286 l -27.14286,40 -81.42857,4.2857 z"
       id="area_1"
       inkscape:connector-curvature="0"
       transform="translate(-777.14288,-193.3521)"
       inkscape:label="#path3393" />
    <path
       style="fill:none;stroke:#000000;stroke-width:1px;stroke-linecap:butt;stroke-linejoin:miter;stroke-opacity:1"
       d="m 1022.8571,1120 25.7143,-551.42857 c 0,0 37.1429,-67.14286 104.2857,-2.85715 l -1.4285,548.57142 c 0,0 -60.0001,90 -128.5715,5.7143 z"
       id="area_2"
       inkscape:connector-curvature="0"
       transform="translate(-777.14288,-193.3521)"
       inkscape:label="#path3395" />
    <path
       style="fill:none;stroke:#000000;stroke-width:1px;stroke-linecap:butt;stroke-linejoin:miter;stroke-opacity:1"
       d="m 1298.5714,1102.8571 -12.8571,-25.7142 -4.2857,-495.71433 4.2857,-7.14286 -20,-12.85714 c 0,0 18.5714,-48.57143 30,-51.42857 l -4.2857,-12.85714 21.4285,-20 8.5715,15.71428 35.7143,-5.71428 -11.4286,67.14285 c 0,0 24.2857,0 30,31.42857 5.7143,31.42858 20,450.00002 20,450.00002 l 0,27.1428 8.5714,12.8572 -25.7143,32.8571 c 0,0 -8.5714,14.2857 25.7143,52.8572 L 1415.7143,1200 c 0,0 -61.4286,52.8571 -102.8572,22.8571 l -48.5714,-15.7142 z"
       id="area_3"
       inkscape:connector-curvature="0"
       transform="translate(-777.14288,-193.3521)"
       inkscape:label="#path3397" />
    <path
       style="fill:none;stroke:#000000;stroke-width:1px;stroke-linecap:butt;stroke-linejoin:miter;stroke-opacity:1"
       d="m 1516.9643,575.53571 c 0,0 58.9286,-63.92857 104.2857,-5.71428 l 37.4205,529.12247 c 0,0 -37.3757,91.9239 -121.2183,8.0812 z"
       id="area_4"
       inkscape:connector-curvature="0"
       transform="translate(-777.14288,-193.3521)"
       inkscape:label="#path3399" />
    <path
       style="fill:none;stroke:#000000;stroke-width:1px;stroke-linecap:butt;stroke-linejoin:miter;stroke-opacity:1"
       d="m 1740.4928,557.50217 -6.0609,-13.13199 9.0914,-11.11168 c 0,0 -3.0305,-19.19289 8.0812,-31.31472 l 102.0254,21.2132 -7.071,16.16244 46.467,496.99508 9.0913,29.2944 -6.0609,51.5178 21.2132,15.1523 c 0,0 -42.4264,10.1015 -77.7817,6.0609 0,0 -53.5381,11.1117 -69.7005,-4.0406 l 5.0507,-18.1828 z"
       id="area_5"
       inkscape:connector-curvature="0"
       transform="translate(-777.14288,-193.3521)"
       inkscape:label="#path3401" />
    <path
       style="fill:none;stroke:#000000;stroke-width:1px;stroke-linecap:butt;stroke-linejoin:miter;stroke-opacity:1"
       d="m 2006.163,706.49966 13.637,-35.86041 275.7717,4.04061 17.1726,121.72338 -14.1422,38.89087 -274.7615,-0.50507 -12.1218,-17.67767 z"
       id="area_6"
       inkscape:connector-curvature="0"
       transform="translate(-777.14288,-193.3521)"
       inkscape:label="#path3403" />
    <path
       style="fill:none;stroke:#000000;stroke-width:1px;stroke-linecap:butt;stroke-linejoin:miter;stroke-opacity:1"
       d="m 1976.3635,1000.9591 8.0812,-7.57611 -1.0102,-13.13199 -6.0609,4.04062 -11.1117,0 -4.0406,-13.13199 4.0406,-8.58629 4.5457,0 c 0,0 4.0406,-7.07107 9.0914,-7.57615 l -5.5558,-5.55584 c 0,0 16.1624,0.50508 18.1827,3.53554 l 15.1523,-19.69798 17.1726,1.01015 19.698,-33.84011 c 0,0 225.264,-7.07106 252.033,-4.04061 0,0 22.2234,4.54569 25.7589,13.13199 l 9.0914,4.54568 c 0,0 6.566,-10.10152 10.6066,3.03046 l 2.0203,12.12183 -1.5152,11.11168 11.1116,4.04061 6.566,9.59645 c 0,0 18.6878,1.51523 24.2437,15.15229 5.5558,13.63706 18.6878,8.08122 -8.5863,30.30457 l -12.1218,-25.75889 c 0,0 -29.2945,-12.6269 -38.3858,-6.56599 l -17.1726,36.36548 c 0,0 -134.8554,8.0812 -161.6244,3.0305 0,0 -81.3173,6.566 -93.9442,4.5457 0,0 -17.1726,-1.5153 -22.7285,-34.85031 l -6.0609,1.51523 c 0,0 -14.1421,10.10153 -19.6979,23.23348 z"
       id="area_7"
       inkscape:connector-curvature="0"
       transform="translate(-777.14288,-193.3521)"
       inkscape:label="#path3405" />
    <text
       xml:space="preserve"
       style="font-size:40px;font-style:normal;font-weight:normal;line-height:125%;letter-spacing:0px;word-spacing:0px;fill:#000000;fill-opacity:1;stroke:none;font-family:Sans"
       x="769.73627"
       y="325.16708"
       id="navigation"
       sodipodi:linespacing="125%"
       transform="translate(-777.14288,-193.3521)"
       inkscape:label="#text3407"><tspan
         sodipodi:role="line"
         id="tspan3409"
         x="769.73627"
         y="325.16708">1 2 3 4 5 6 7</tspan></text>
  </g>
</svg>
