<?xml version="1.0" encoding="UTF-8" standalone="no"?>
<!-- Created with Inkscape (http://www.inkscape.org/) -->

<svg
   xmlns:dc="http://purl.org/dc/elements/1.1/"
   xmlns:cc="http://creativecommons.org/ns#"
   xmlns:rdf="http://www.w3.org/1999/02/22-rdf-syntax-ns#"
   xmlns:svg="http://www.w3.org/2000/svg"
   xmlns="http://www.w3.org/2000/svg"
   xmlns:xlink="http://www.w3.org/1999/xlink"
   xmlns:sodipodi="http://sodipodi.sourceforge.net/DTD/sodipodi-0.dtd"
   xmlns:inkscape="http://www.inkscape.org/namespaces/inkscape"
   width="799"
   height="533"
   id="svg3262"
   version="1.1"
   inkscape:version="0.48.2 r9819"
   sodipodi:docname="Gswt1.svg">
  <defs
     id="defs3264" />
  <sodipodi:namedview
     id="base"
     pagecolor="#ffffff"
     bordercolor="#666666"
     borderopacity="1.0"
     inkscape:pageopacity="0.0"
     inkscape:pageshadow="2"
     inkscape:zoom="1.4"
     inkscape:cx="459.35716"
     inkscape:cy="314.90652"
     inkscape:document-units="px"
     inkscape:current-layer="layer1"
     showgrid="false"
     fit-margin-top="0"
     fit-margin-left="0"
     fit-margin-right="0"
     fit-margin-bottom="0"
     inkscape:window-width="1366"
     inkscape:window-height="706"
     inkscape:window-x="-8"
     inkscape:window-y="-8"
     inkscape:window-maximized="1" />
  <metadata
     id="metadata3267">
    <rdf:RDF>
      <cc:Work
         rdf:about="">
        <dc:format>image/svg+xml</dc:format>
        <dc:type
           rdf:resource="http://purl.org/dc/dcmitype/StillImage" />
        <dc:title></dc:title>
      </cc:Work>
    </rdf:RDF>
  </metadata>
  <g
     inkscape:label="Layer 1"
     inkscape:groupmode="layer"
     id="layer1"
     transform="translate(24.5,-265.86218)">
    <image
       y="265.86218"
       x="-24.5"
       id="image3278"
       xlink:href="file:///J:/08/Gswt1.jpg"
       height="533"
       width="799" />
    <path
       style="fill:none;stroke:#000000;stroke-width:1px;stroke-linecap:butt;stroke-linejoin:miter;stroke-opacity:1"
       d="m 180.53571,64.071428 c 0,0 59.82143,12.142857 69.82143,16.071428 l 48.92857,-0.892857 -0.17857,11.071429 -4.10714,6.25 c 0,0 -1.96429,48.928572 -3.75,56.071432 -1.78571,7.14285 -0.89286,13.21428 -0.89286,13.21428 l -19.46428,2.5 -13.21429,-3.75 c 0,0 -13.92857,5.17857 -26.78571,-0.71428 l -21.60715,-3.21429 c 0,0 -5.17857,1.42857 -9.10714,3.92857 0,0 -5,2.14286 -9.10714,-2.85714 -4.10714,-5 -10.71429,-2.85714 -10.71429,-2.85714 0,0 -11.25,-1.25 -13.39285,-4.28572 L 167.5,148.89286 c 0,0 4.64286,-38.03572 7.14286,-42.85715 2.5,-4.82143 0,-14.642854 0,-14.642854 l 3.57143,-9.107143 c 0,0 -0.53573,-13.392856 2.32142,-18.214285 z"
       id="area_24"
       inkscape:connector-curvature="0"
       transform="translate(-24.5,265.86218)"
       inkscape:label="#path3281" />
    <path
       style="fill:none;stroke:#000000;stroke-width:1px;stroke-linecap:butt;stroke-linejoin:miter;stroke-opacity:1"
       d="m 339.82143,69.42857 c 0,0 67.14286,4.642858 80,6.785715 12.85714,2.142857 30.53571,5.357143 30.53571,5.357143 l 26.78572,-1.785715 1.25,26.249997 c 0,0 -2.67857,21.42857 -1.42857,27.32143 1.25,5.89286 4.28571,14.10714 4.28571,14.10714 l 0.35714,16.60715 L 450,166.92857 c 0,0 -37.32143,-3.75 -38.57143,-2.14286 -1.25,1.60715 -23.57143,3.21429 -23.57143,3.21429 l -23.03571,-1.42857 -27.5,3.21428 -0.53572,-16.07143 1.60715,-2.5 z"
       id="area_25"
       inkscape:connector-curvature="0"
       transform="translate(-24.5,265.86218)"
       inkscape:label="#path3283" />
    <path
       style="fill:none;stroke:#000000;stroke-width:1px;stroke-linecap:butt;stroke-linejoin:miter;stroke-opacity:1"
       d="m 518.92857,84.071427 c 0,0 22.05357,-4.107142 48.03572,-1.696428 25.98214,2.410714 75.53571,-3.303571 75.53571,-3.303571 0,0 3.03572,36.250002 -0.17857,55.714282 0,0 14.28571,13.21429 9.28571,40 0,0 -74.64285,3.39286 -87.14285,-0.89285 0,0 -37.5,1.42857 -43.21429,-0.71429 0,0 -0.53571,-18.75 1.25,-23.21429 0,0 3.03572,-32.14285 -1.96428,-47.67857 z"
       id="area_26"
       inkscape:connector-curvature="0"
       transform="translate(-24.5,265.86218)"
       inkscape:label="#path3285" />
    <path
       style="fill:none;stroke:#000000;stroke-width:1px;stroke-linecap:butt;stroke-linejoin:miter;stroke-opacity:1"
       d="m 317.14286,175.85714 174.10714,0.17857 1.42857,21.78572 -0.71428,15.89286 -175.89286,3.21428 -1.42857,-22.67857 z"
       id="area_29"
       inkscape:connector-curvature="0"
       transform="translate(-24.5,265.86218)"
       inkscape:label="#path3287" />
    <path
       style="fill:none;stroke:#000000;stroke-width:1px;stroke-linecap:butt;stroke-linejoin:miter;stroke-opacity:1"
       d="m 144.28571,186.21428 c 0.89286,0.17858 145.17858,6.60715 149.28572,4.82143 0,0 -3.92857,19.82143 -3.92857,24.28572 0,4.46428 -7.67857,59.82143 -7.67857,59.82143 0,0 2.85714,55.35714 1.78571,59.10714 0,0 -75,-0.35714 -79.82143,-0.53571 -4.82143,-0.17858 -60,0.71428 -60,0.71428 l -12.5,0.89286 -10.35714,-5.53572 c 0,0 4.10714,-23.92857 6.42857,-28.75 2.32143,-4.82142 4.10714,-43.57142 10.17857,-56.07142 -1.42857,-2.67857 6.60714,-58.75001 6.60714,-58.75001 z"
       id="area_27"
       inkscape:connector-curvature="0"
       transform="translate(-24.5,265.86218)"
       inkscape:label="#path3289" />
    <path
       style="fill:none;stroke:#000000;stroke-width:1px;stroke-linecap:butt;stroke-linejoin:miter;stroke-opacity:1"
       d="m 327.85714,235.14286 22.5,-6.07143 23.21429,2.85714 23.03571,-3.21428 5.71429,1.96428 25.89286,-4.46428 0.17857,28.39285 -2.5,6.25 c 0,0 -2.14286,20.17857 -3.57143,23.21429 0,0 6.25,22.32143 3.57143,35.53571 -2.67857,13.21429 -7.32143,12.14286 -7.32143,12.14286 l -23.21429,0 -15.71428,-1.60714 -9.28572,2.67857 -36.42857,1.78571 c 0,0 -13.39286,-0.53571 -14.64286,-2.32143 -1.25,-1.78571 -0.17857,-15.35714 -0.17857,-15.35714 l 2.5,-13.57143 2.5,-17.32143 c 0,0 -2.14285,-35.89285 0.89286,-42.67857 3.03571,-6.78571 2.85714,-8.21428 2.85714,-8.21428 z"
       id="area_28"
       inkscape:connector-curvature="0"
       transform="translate(-24.5,265.86218)"
       inkscape:label="#path3291" />
    <path
       style="fill:none;stroke:#000000;stroke-width:1px;stroke-linecap:butt;stroke-linejoin:miter;stroke-opacity:1"
       d="m 448.57143,223.71429 58.57143,0.17857 c 0,0 71.60714,-0.35715 84.10714,1.60714 0,0 19.10714,-1.78571 27.67857,-1.96429 8.57143,-0.17857 27.14286,-3.92857 43.21429,-1.78571 l 15.71428,-1.78571 c 0,0 4.28572,34.10714 3.75,43.92857 l 3.57143,9.46428 1.25,10.35715 c 0,0 8.03572,38.39285 10.17857,40.53571 2.14286,2.14286 6.96429,10.35714 6.96429,10.35714 l -9.28571,5.35715 -17.14286,1.07142 -60.53572,-0.35714 c 0,0 -45,0.35714 -55.71428,-1.42857 -10.71429,-1.78571 -43.21429,-0.53571 -43.21429,-0.53571 0,0 -47.14285,5.89285 -55.71428,4.46428 l -7.32143,1.96429 c 0,0 -3.21429,-15.53572 -2.5,-26.42857 z"
       id="area_30"
       inkscape:connector-curvature="0"
       transform="translate(-24.5,265.86218)"
       inkscape:label="#path3293" />
    <text
       xml:space="preserve"
       style="font-size:40px;font-style:normal;font-weight:normal;line-height:125%;letter-spacing:0px;word-spacing:0px;fill:#000000;fill-opacity:1;stroke:none;font-family:Sans"
       x="305"
       y="22.999998"
       id="navigation"
       sodipodi:linespacing="125%"
       transform="translate(-24.5,265.86218)"
       inkscape:label="#text3295"><tspan
         sodipodi:role="line"
         id="tspan3297"
         x="305"
         y="22.999998">24 25 26 29 27 28 30</tspan></text>
  </g>
</svg>
