<?xml version="1.0" encoding="UTF-8" standalone="no"?>
<!-- Created with Inkscape (http://www.inkscape.org/) -->

<svg
   xmlns:dc="http://purl.org/dc/elements/1.1/"
   xmlns:cc="http://creativecommons.org/ns#"
   xmlns:rdf="http://www.w3.org/1999/02/22-rdf-syntax-ns#"
   xmlns:svg="http://www.w3.org/2000/svg"
   xmlns="http://www.w3.org/2000/svg"
   xmlns:xlink="http://www.w3.org/1999/xlink"
   xmlns:sodipodi="http://sodipodi.sourceforge.net/DTD/sodipodi-0.dtd"
   xmlns:inkscape="http://www.inkscape.org/namespaces/inkscape"
   id="svg2"
   version="1.1"
   inkscape:version="0.48.2 r9819"
   width="3000"
   height="2000"
   sodipodi:docname="Gtwix.jpg">
  <metadata
     id="metadata8">
    <rdf:RDF>
      <cc:Work
         rdf:about="">
        <dc:format>image/svg+xml</dc:format>
        <dc:type
           rdf:resource="http://purl.org/dc/dcmitype/StillImage" />
        <dc:title></dc:title>
      </cc:Work>
    </rdf:RDF>
  </metadata>
  <defs
     id="defs6" />
  <sodipodi:namedview
     pagecolor="#ffffff"
     bordercolor="#666666"
     borderopacity="1"
     objecttolerance="10"
     gridtolerance="10"
     guidetolerance="10"
     inkscape:pageopacity="0"
     inkscape:pageshadow="2"
     inkscape:window-width="1680"
     inkscape:window-height="988"
     id="namedview4"
     showgrid="false"
     inkscape:zoom="0.42933333"
     inkscape:cx="1689.0346"
     inkscape:cy="1822.4253"
     inkscape:window-x="-8"
     inkscape:window-y="-8"
     inkscape:window-maximized="1"
     inkscape:current-layer="svg2" />
  <image
     width="3000"
     height="2000"
     xlink:href="file:///F:/09/Gtwix.jpg"
     id="image10"
     x="0"
     y="0" />
  <path
     style="fill:none;stroke:#000000;stroke-width:1px;stroke-linecap:butt;stroke-linejoin:miter;stroke-opacity:1"
     d="m 1038.8199,460.40373 -11.646,58.22981 13.9752,53.57143 -2.3292,39.59627 -16.3044,18.63354 18.6336,34.93789 109.472,11.64596 356.3665,6.98758 c 0,0 321.4286,-6.98758 330.7453,-2.32919 9.3168,4.65838 114.1305,6.98757 114.1305,6.98757 l 34.9378,-6.98757 32.6087,-88.50932 -25.6211,-95.49689 -25.6211,-69.87578 -23.2919,58.22981 -93.1677,2.3292 -256.2112,2.32919 -342.3913,-4.65839 -97.8261,-11.64596 -65.2174,4.65839 -18.6335,16.30434 z"
     id="area_1"
     inkscape:connector-curvature="0"
     inkscape:label="#path2987" />
  <path
     style="fill:none;stroke:#000000;stroke-width:1px;stroke-linecap:butt;stroke-linejoin:miter;stroke-opacity:1"
     d="m 1134.3168,702.63975 -2.3292,76.86335 -2.3292,69.87578 4.6584,44.25466 9.3167,51.24224 55.9007,-2.3292 312.1118,4.65839 235.2484,-6.98758 90.8385,6.98758 32.6087,-69.87578 -4.6584,-51.24223 18.6336,-72.20497 -18.6336,4.65838 23.292,-44.25466 -186.3354,23.29193 -393.6336,-6.98758 -86.1801,-11.64596 -13.9752,4.65838 -60.559,-20.96273 z"
     id="area_2"
     inkscape:connector-curvature="0"
     inkscape:label="#path2989" />
  <path
     style="fill:none;stroke:#000000;stroke-width:1px;stroke-linecap:butt;stroke-linejoin:miter;stroke-opacity:1"
     d="m 1206.5217,1019.4099 4.6584,67.5466 -13.9751,60.559 48.913,13.9752 55.9006,-20.9628 100.1553,11.646 246.8944,0 107.1429,-11.646 27.9503,9.3168 13.9751,2.3292 20.9628,-32.6087 2.3292,-86.1801 9.3167,-48.91305 -72.2049,30.27955 -51.2423,9.3167 -69.8757,2.3292 -163.0435,-2.3292 -142.0808,0 -62.8882,0 -44.2546,-6.9876 z"
     id="area_3"
     inkscape:connector-curvature="0"
     inkscape:label="#path2991" />
  <text
     xml:space="preserve"
     style="font-size:144px;font-style:normal;font-weight:normal;line-height:125%;letter-spacing:0px;word-spacing:0px;fill:#000000;fill-opacity:1;stroke:none;font-family:Sans"
     x="915.37268"
     y="267.08075"
     id="navigation"
     sodipodi:linespacing="125%"
     inkscape:label="#text2993"><tspan
       sodipodi:role="line"
       id="tspan2995"
       x="915.37268"
       y="267.08075">1 2 3</tspan></text>
</svg>
