<?xml version="1.0" encoding="UTF-8" standalone="no"?>
<!-- Created with Inkscape (http://www.inkscape.org/) -->

<svg
   xmlns:dc="http://purl.org/dc/elements/1.1/"
   xmlns:cc="http://creativecommons.org/ns#"
   xmlns:rdf="http://www.w3.org/1999/02/22-rdf-syntax-ns#"
   xmlns:svg="http://www.w3.org/2000/svg"
   xmlns="http://www.w3.org/2000/svg"
   xmlns:xlink="http://www.w3.org/1999/xlink"
   xmlns:sodipodi="http://sodipodi.sourceforge.net/DTD/sodipodi-0.dtd"
   xmlns:inkscape="http://www.inkscape.org/namespaces/inkscape"
   id="svg2"
   version="1.1"
   inkscape:version="0.48.2 r9819"
   width="3000"
   height="2000"
   sodipodi:docname="Gumrs.jpg">
  <metadata
     id="metadata8">
    <rdf:RDF>
      <cc:Work
         rdf:about="">
        <dc:format>image/svg+xml</dc:format>
        <dc:type
           rdf:resource="http://purl.org/dc/dcmitype/StillImage" />
        <dc:title></dc:title>
      </cc:Work>
    </rdf:RDF>
  </metadata>
  <defs
     id="defs6" />
  <sodipodi:namedview
     pagecolor="#ffffff"
     bordercolor="#666666"
     borderopacity="1"
     objecttolerance="10"
     gridtolerance="10"
     guidetolerance="10"
     inkscape:pageopacity="0"
     inkscape:pageshadow="2"
     inkscape:window-width="1680"
     inkscape:window-height="988"
     id="namedview4"
     showgrid="false"
     inkscape:zoom="0.42933333"
     inkscape:cx="2017.0609"
     inkscape:cy="1477.0524"
     inkscape:window-x="-8"
     inkscape:window-y="-8"
     inkscape:window-maximized="1"
     inkscape:current-layer="svg2" />
  <image
     width="3000"
     height="2000"
     xlink:href="file:///F:/09/Gumrs.jpg"
     id="image10"
     x="0"
     y="0" />
  <path
     style="fill:none;stroke:#000000;stroke-width:1px;stroke-linecap:butt;stroke-linejoin:miter;stroke-opacity:1"
     d="m 915.37267,458.07453 102.48443,6.98758 20.9628,18.63354 9.3167,177.01863 0,121.11802 -79.1925,13.97515 9.31677,16.30435 44.25463,-2.32919 11.646,72.20497 -23.2919,279.50312 -109.47208,23.2919 -37.26708,-4.6584 13.97515,-330.74532 18.63354,-34.93789 60.55901,-4.65838 0,-23.29193 -48.91304,-6.98757 -9.31678,-200.31056 z"
     id="area_1"
     inkscape:connector-curvature="0"
     sodipodi:nodetypes="ccccccccccccccccccc"
     inkscape:label="#path2987" />
  <path
     style="fill:none;stroke:#000000;stroke-width:1px;stroke-linecap:butt;stroke-linejoin:miter;stroke-opacity:1"
     d="m 1229.8137,579.19255 -16.3044,25.62111 -4.6584,123.44721 0,139.75155 -4.6584,114.13044 6.9876,58.22984 51.2423,0 34.9378,-4.6584 18.6336,6.9876 23.2919,0 16.3044,-34.9379 -4.6584,-274.84475 0,-132.76397 -34.9379,-18.63354 -48.9131,0 -25.6211,-2.32919 z"
     id="area_2"
     inkscape:connector-curvature="0"
     inkscape:label="#path2989" />
  <path
     style="fill:none;stroke:#000000;stroke-width:1px;stroke-linecap:butt;stroke-linejoin:miter;stroke-opacity:1"
     d="m 1513.9752,670.03105 -9.3168,53.57143 0,130.43479 c 0,0 -2.3292,88.50931 11.6459,100.15528 13.9752,11.64596 20.9628,25.62111 20.9628,25.62111 0,0 58.2298,-13.97515 72.205,-9.31677 13.9751,4.65839 39.5962,2.3292 39.5962,2.3292 l 9.3168,-60.55901 -16.3044,-242.23603 -27.9503,-9.31677 -32.6087,9.31677 -11.6459,-11.64596 -37.2671,16.30435 z"
     id="area_3"
     inkscape:connector-curvature="0"
     inkscape:label="#path2991" />
  <path
     style="fill:none;stroke:#000000;stroke-width:1px;stroke-linecap:butt;stroke-linejoin:miter;stroke-opacity:1"
     d="m 1807.4534,735.24845 37.2671,-6.98758 58.2298,-2.32919 16.3044,11.64596 9.3167,53.57143 11.646,104.81366 -2.3292,39.59628 -32.6087,20.96273 -41.9255,-2.32919 -34.9378,-6.98758 -18.6336,-11.64596 0,-90.83851 z"
     id="area_4"
     inkscape:connector-curvature="0"
     inkscape:label="#path2993" />
  <path
     style="fill:none;stroke:#000000;stroke-width:1px;stroke-linecap:butt;stroke-linejoin:miter;stroke-opacity:1"
     d="m 2065.9938,753.88199 -18.6335,51.24223 13.9751,121.11801 30.2795,6.98758 37.2671,0 23.2919,-18.63354 4.6584,-32.60869 -23.2919,-118.78882 -27.9503,-2.3292 z"
     id="area_5"
     inkscape:connector-curvature="0"
     inkscape:label="#path2995"
     sodipodi:nodetypes="cccccccccc" />
  <text
     xml:space="preserve"
     style="font-size:144px;font-style:normal;font-weight:normal;line-height:125%;letter-spacing:0px;word-spacing:0px;fill:#000000;fill-opacity:1;stroke:none;font-family:Sans"
     x="1220.4969"
     y="215.83852"
     id="navigation"
     sodipodi:linespacing="125%"
     inkscape:label="#text2997"><tspan
       sodipodi:role="line"
       id="tspan2999"
       x="1220.4969"
       y="215.83852">1 2 3 4 5</tspan></text>
</svg>
