<?xml version="1.0" encoding="UTF-8" standalone="no"?>
<!-- Created with Inkscape (http://www.inkscape.org/) -->

<svg
   xmlns:dc="http://purl.org/dc/elements/1.1/"
   xmlns:cc="http://creativecommons.org/ns#"
   xmlns:rdf="http://www.w3.org/1999/02/22-rdf-syntax-ns#"
   xmlns:svg="http://www.w3.org/2000/svg"
   xmlns="http://www.w3.org/2000/svg"
   xmlns:xlink="http://www.w3.org/1999/xlink"
   xmlns:sodipodi="http://sodipodi.sourceforge.net/DTD/sodipodi-0.dtd"
   xmlns:inkscape="http://www.inkscape.org/namespaces/inkscape"
   id="svg2"
   version="1.1"
   inkscape:version="0.48.2 r9819"
   width="3000"
   height="2000"
   sodipodi:docname="Gwcho.jpg">
  <metadata
     id="metadata8">
    <rdf:RDF>
      <cc:Work
         rdf:about="">
        <dc:format>image/svg+xml</dc:format>
        <dc:type
           rdf:resource="http://purl.org/dc/dcmitype/StillImage" />
        <dc:title></dc:title>
      </cc:Work>
    </rdf:RDF>
  </metadata>
  <defs
     id="defs6" />
  <sodipodi:namedview
     pagecolor="#ffffff"
     bordercolor="#666666"
     borderopacity="1"
     objecttolerance="10"
     gridtolerance="10"
     guidetolerance="10"
     inkscape:pageopacity="0"
     inkscape:pageshadow="2"
     inkscape:window-width="1680"
     inkscape:window-height="988"
     id="namedview4"
     showgrid="false"
     inkscape:zoom="0.42933333"
     inkscape:cx="2132.4817"
     inkscape:cy="1497.463"
     inkscape:window-x="-8"
     inkscape:window-y="-8"
     inkscape:window-maximized="1"
     inkscape:current-layer="svg2" />
  <image
     width="3000"
     height="2000"
     xlink:href="file:///F:/09/Gwcho.jpg"
     id="image10"
     x="0"
     y="0" />
  <path
     style="fill:none;stroke:#000000;stroke-width:1px;stroke-linecap:butt;stroke-linejoin:miter;stroke-opacity:1"
     d="m 987.57764,483.69565 c 8.8216,81.22841 -0.72053,13.7574 2.32919,37.26708 0,0 -30.2795,62.8882 -18.63354,67.54658 11.64596,4.65839 -2.32919,102.48448 -2.32919,102.48448 l -9.31677,46.58385 27.95031,20.96273 69.87576,4.65839 414.5963,0 309.7826,-2.3292 172.3602,-4.65838 48.9131,-27.95031 -16.3044,-95.4969 -13.9751,-67.54658 -4.6584,-128.10559 -51.2422,20.96273 -102.4845,4.65839 -540.3727,9.31677 -167.7018,2.32919 -81.5218,-2.32919 -23.2919,-13.97516 -16.30435,-9.31677 z"
     id="area_1"
     inkscape:connector-curvature="0"
     sodipodi:nodetypes="ccsccccccccccccccccccc"
     inkscape:label="#path2987" />
  <path
     style="fill:none;stroke:#000000;stroke-width:1px;stroke-linecap:butt;stroke-linejoin:miter;stroke-opacity:1"
     d="M 1073.7578,800.46584 1125,812.1118 l 13.9752,16.30435 20.9627,-6.98758 351.7081,9.31677 330.7453,0 51.2422,-2.32919 51.2423,-16.30435 9.3167,65.21739 11.646,125.77641 -48.913,20.9627 -263.1988,-4.6584 -444.8758,-9.3167 -100.1552,-4.6584 -67.5466,-4.6584 18.6335,-144.40994 z"
     id="area_2"
     inkscape:connector-curvature="0"
     inkscape:label="#path2989" />
  <path
     style="fill:none;stroke:#000000;stroke-width:1px;stroke-linecap:butt;stroke-linejoin:miter;stroke-opacity:1"
     d="m 1215.8385,1054.3478 -30.2795,20.9628 -2.3292,163.0434 111.8013,6.9876 337.7329,0 132.764,0 34.9378,4.6584 0,-37.2671 6.9876,-137.4223 -62.8882,6.9875 -384.3168,-2.3292 -135.0931,2.3292 z"
     id="area_3"
     inkscape:connector-curvature="0"
     sodipodi:nodetypes="ccccccccccccc"
     inkscape:label="#path2991" />
  <text
     xml:space="preserve"
     style="font-size:144px;font-style:normal;font-weight:normal;line-height:125%;letter-spacing:0px;word-spacing:0px;fill:#000000;fill-opacity:1;stroke:none;font-family:Sans"
     x="831.52173"
     y="255.43478"
     id="navigation"
     sodipodi:linespacing="125%"
     inkscape:label="#text2993"><tspan
       sodipodi:role="line"
       id="tspan2995"
       x="831.52173"
       y="255.43478">1 2 3</tspan></text>
</svg>
