<?xml version="1.0" encoding="UTF-8" standalone="no"?>
<!-- Created with Inkscape (http://www.inkscape.org/) -->

<svg
   xmlns:dc="http://purl.org/dc/elements/1.1/"
   xmlns:cc="http://creativecommons.org/ns#"
   xmlns:rdf="http://www.w3.org/1999/02/22-rdf-syntax-ns#"
   xmlns:svg="http://www.w3.org/2000/svg"
   xmlns="http://www.w3.org/2000/svg"
   xmlns:xlink="http://www.w3.org/1999/xlink"
   xmlns:sodipodi="http://sodipodi.sourceforge.net/DTD/sodipodi-0.dtd"
   xmlns:inkscape="http://www.inkscape.org/namespaces/inkscape"
   id="svg2"
   version="1.1"
   inkscape:version="0.48.2 r9819"
   width="799"
   height="533"
   sodipodi:docname="Gyog2.jpg">
  <metadata
     id="metadata8">
    <rdf:RDF>
      <cc:Work
         rdf:about="">
        <dc:format>image/svg+xml</dc:format>
        <dc:type
           rdf:resource="http://purl.org/dc/dcmitype/StillImage" />
        <dc:title></dc:title>
      </cc:Work>
    </rdf:RDF>
  </metadata>
  <defs
     id="defs6" />
  <sodipodi:namedview
     pagecolor="#ffffff"
     bordercolor="#666666"
     borderopacity="1"
     objecttolerance="10"
     gridtolerance="10"
     guidetolerance="10"
     inkscape:pageopacity="0"
     inkscape:pageshadow="2"
     inkscape:window-width="1680"
     inkscape:window-height="988"
     id="namedview4"
     showgrid="false"
     inkscape:zoom="1.1398668"
     inkscape:cx="583.26685"
     inkscape:cy="307.76794"
     inkscape:window-x="-8"
     inkscape:window-y="-8"
     inkscape:window-maximized="1"
     inkscape:current-layer="svg2" />
  <image
     width="799"
     height="533"
     xlink:href="file:///F:/10/Gyog2.jpg"
     id="image10"
     x="0"
     y="0" />
  <path
     style="fill:none;stroke:#000000;stroke-width:1px;stroke-linecap:butt;stroke-linejoin:miter;stroke-opacity:1"
     d="m 159.4278,176.92391 -31.01709,-99.254656 4.96274,-13.027174 13.64751,-5.583074 22.95264,6.823757 -5.58307,-22.332298 -1.86103,-11.166149 11.16615,-6.203416 12.40683,0 5.58308,11.166149 6.20342,16.128882 4.96273,4.962733 25.434,-3.72205 18.61025,6.823758 c 0,0 6.20342,4.962733 4.34239,8.064441 -1.86102,3.101708 5.58308,64.515527 5.58308,64.515527 l 5.58307,35.97981 -16.74922,17.36957 -14.8882,3.10171 -36.60015,1.24068 -9.30513,-3.10171 c 0,0 -9.92546,-9.92546 -12.40683,-9.92546 -2.48137,0 -13.02717,-1.86103 -13.02717,-1.86103 z"
     id="area_1"
     inkscape:connector-curvature="0"
     inkscape:label="#path2987" />
  <path
     style="fill:none;stroke:#000000;stroke-width:1px;stroke-linecap:butt;stroke-linejoin:miter;stroke-opacity:1"
     d="m 397.41487,78.560918 -14.03673,12.282137 6.14107,4.386478 -12.28213,16.668617 0.87729,25.44157 6.14107,12.28214 14.91402,19.3005 7.01837,3.50918 21.93239,-7.01837 14.91402,-32.45993 -3.50918,-21.93239 -8.77296,-15.791317 -11.40484,-4.386478 6.14107,-4.386478 -9.65025,-7.895659 z"
     id="area_2"
     inkscape:connector-curvature="0"
     inkscape:label="#path2989" />
  <path
     style="fill:none;stroke:#000000;stroke-width:1px;stroke-linecap:butt;stroke-linejoin:miter;stroke-opacity:1"
     d="m 557.95995,48.73287 -5.26377,92.11603 10.52755,45.61937 c 0,0 -17.54591,0 2.63188,6.14107 20.1778,6.14106 40.3556,4.38647 40.3556,4.38647 l 26.31886,-7.01836 8.77296,-33.33723 28.95075,-67.551756 13.15943,-43.864776 5.26378,-14.036729 -32.45994,0 -20.17779,23.686979 z"
     id="area_3"
     inkscape:connector-curvature="0"
     inkscape:label="#path2991" />
  <path
     style="fill:none;stroke:#000000;stroke-width:1px;stroke-linecap:butt;stroke-linejoin:miter;stroke-opacity:1"
     d="m 272.83891,191.73204 -7.01837,35.96912 3.50919,2.63188 10.52754,-6.14107 c 0,0 103.52087,-0.87729 107.03006,-0.87729 3.50918,0 74.57012,-0.8773 74.57012,-0.8773 l 58.7788,1.75459 1.75459,-7.89565 c 0,0 5.26377,-28.95076 -0.8773,-29.82805 -6.14107,-0.8773 -79.83389,7.89566 -79.83389,7.89566 l -88.60685,-3.50919 z"
     id="area_4"
     inkscape:connector-curvature="0"
     inkscape:label="#path2993" />
  <path
     style="fill:none;stroke:#000000;stroke-width:1px;stroke-linecap:butt;stroke-linejoin:miter;stroke-opacity:1"
     d="m 251.78382,244.36977 4.38647,46.49666 12.28214,-8.77295 7.01837,7.89566 35.96911,-10.52755 133.34892,1.75459 26.31887,4.38648 44.74207,1.75459 -0.8773,-42.98748 -56.14691,5.26378 -128.96244,-1.7546 -57.90151,-3.50918 z"
     id="area_5"
     inkscape:connector-curvature="0"
     inkscape:label="#path2995" />
  <text
     xml:space="preserve"
     style="font-size:40px;font-style:normal;font-weight:normal;line-height:125%;letter-spacing:0px;word-spacing:0px;fill:#000000;fill-opacity:1;stroke:none;font-family:Sans"
     x="279.85727"
     y="56.628529"
     id="navigation"
     sodipodi:linespacing="125%"
     inkscape:label="#text2997"><tspan
       sodipodi:role="line"
       id="tspan2999"
       x="279.85727"
       y="56.628529">1 2 3 4 5 </tspan></text>
</svg>
