<?xml version="1.0" encoding="UTF-8" standalone="no"?>
<!-- Created with Inkscape (http://www.inkscape.org/) -->

<svg
   xmlns:dc="http://purl.org/dc/elements/1.1/"
   xmlns:cc="http://creativecommons.org/ns#"
   xmlns:rdf="http://www.w3.org/1999/02/22-rdf-syntax-ns#"
   xmlns:svg="http://www.w3.org/2000/svg"
   xmlns="http://www.w3.org/2000/svg"
   xmlns:xlink="http://www.w3.org/1999/xlink"
   xmlns:sodipodi="http://sodipodi.sourceforge.net/DTD/sodipodi-0.dtd"
   xmlns:inkscape="http://www.inkscape.org/namespaces/inkscape"
   width="1240"
   height="827"
   id="svg2"
   version="1.1"
   inkscape:version="0.48.4 r9939"
   sodipodi:docname="New document 1">
  <defs
     id="defs4" />
  <sodipodi:namedview
     id="base"
     pagecolor="#ffffff"
     bordercolor="#666666"
     borderopacity="1.0"
     inkscape:pageopacity="0.0"
     inkscape:pageshadow="2"
     inkscape:zoom="0.7"
     inkscape:cx="543.91129"
     inkscape:cy="480.66476"
     inkscape:document-units="px"
     inkscape:current-layer="layer1"
     showgrid="false"
     fit-margin-top="0"
     fit-margin-left="0"
     fit-margin-right="0"
     fit-margin-bottom="0"
     inkscape:window-width="1280"
     inkscape:window-height="962"
     inkscape:window-x="-8"
     inkscape:window-y="-8"
     inkscape:window-maximized="1" />
  <metadata
     id="metadata7">
    <rdf:RDF>
      <cc:Work
         rdf:about="">
        <dc:format>image/svg+xml</dc:format>
        <dc:type
           rdf:resource="http://purl.org/dc/dcmitype/StillImage" />
        <dc:title></dc:title>
      </cc:Work>
    </rdf:RDF>
  </metadata>
  <g
     inkscape:label="Layer 1"
     inkscape:groupmode="layer"
     id="layer1"
     transform="translate(-180,-367.43362)">
    <image
       y="367.43362"
       x="180"
       id="area_12"
       xlink:href="file:///T:/SCRAN24/NEW%20PHOTOS%20FOR%20SCRAN/Food%20cans/Gallcans.jpg"
       height="827"
       width="1240"
       inkscape:label="#image2993" />
    <path
       style="fill:none;stroke:#000000;stroke-width:1px;stroke-linecap:butt;stroke-linejoin:miter;stroke-opacity:1"
       d="m 64.476448,377.0637 -0.836838,9.50979 8.081221,143.44166 18.182746,11.11168 37.375643,3.03046 38.3858,-3.03046 37.37564,-5.05076 24.24366,-11.11168 c 0.65652,-18.36477 -2.97268,-97.84072 -4.45902,-155.80859 l -27.86586,-5.81582 -44.44671,0 -43.43656,3.03046 -34.345187,6.06091 z"
       id="path2996"
       inkscape:connector-curvature="0"
       transform="translate(180,367.43362)"
       sodipodi:nodetypes="cccccccccccccc" />
    <path
       style="fill:none;stroke:#000000;stroke-width:1px;stroke-linecap:butt;stroke-linejoin:miter;stroke-opacity:1"
       d="m 218.19295,289.59885 7.61204,77.24077 0.76504,15.86658 1.72445,98.82163 25.161,7.6628 28.37708,0.41842 -3.74475,-110.6476 24.17188,-6.65265 49.2734,-2.9079 15.15228,0 -4.33647,-82.95507 -30.47789,-6.23422 -59.12982,0.29586 -35.52866,3.20378 z"
       id="path2998"
       inkscape:connector-curvature="0"
       transform="translate(180,367.43362)"
       sodipodi:nodetypes="ccccccccccccccc" />
    <path
       style="fill:none;stroke:#000000;stroke-width:1px;stroke-linecap:butt;stroke-linejoin:miter;stroke-opacity:1"
       d="m 277.85714,382 4.28571,149.28572 20.71429,11.42857 38.57143,1.42857 48.57143,-4.28572 26.42857,-10 -0.71428,-151.42857 -28.57143,-7.85714 -41.42857,-2.14286 -43.57143,4.28572 L 280,379.14286 z"
       id="path3000"
       inkscape:connector-curvature="0"
       transform="translate(180,367.43362)"
       sodipodi:nodetypes="cccccccccccc" />
    <path
       style="fill:none;stroke:#000000;stroke-width:1px;stroke-linecap:butt;stroke-linejoin:miter;stroke-opacity:1"
       d="m 415,257.71429 3.57143,222.14285 14.28571,6.42857 32.14286,2.14286 -0.71429,-87.85714 45,-10 16.42858,1.42857 0,-137.14286 -31.42857,-3.57142 -45.00001,0.71428 -22.85714,1.42857 z"
       id="path3002"
       inkscape:connector-curvature="0"
       transform="translate(180,367.43362)"
       sodipodi:nodetypes="cccccccccccc" />
    <path
       style="fill:none;stroke:#000000;stroke-width:1px;stroke-linecap:butt;stroke-linejoin:miter;stroke-opacity:1"
       d="m 464.28571,403.42857 4.28572,125.71429 7.14286,8.57143 35,3.57142 37.14285,-1.42857 29.28572,-5 L 585,526.28571 583.57143,399.14286 555,392 520,390.57143 472.14286,397 z"
       id="path3004"
       inkscape:connector-curvature="0"
       transform="translate(180,367.43362)" />
    <path
       style="fill:none;stroke:#000000;stroke-width:1px;stroke-linecap:butt;stroke-linejoin:miter;stroke-opacity:1"
       d="m 567.14286,259.85714 1.42857,135 L 585,400.57143 585,487 l 27.14286,5 26.42857,-1.42857 0.71428,-74.28572 12.14286,-5.71428 39.28572,-4.28572 L 690,257.71428 652.85714,252 l -50.71428,0.71429 z"
       id="path3006"
       inkscape:connector-curvature="0"
       transform="translate(180,367.43362)"
       sodipodi:nodetypes="ccccccccccccc" />
    <path
       style="fill:none;stroke:#000000;stroke-width:1px;stroke-linecap:butt;stroke-linejoin:miter;stroke-opacity:1"
       d="m 640.71428,417 25.00001,-6.42857 42.14285,-0.71429 22.85715,0.71429 22.85714,9.28571 2.14286,113.57143 L 730,544.85714 l -45,1.42857 -32.14286,-5 -13.57142,-7.14286 z"
       id="path3008"
       inkscape:connector-curvature="0"
       transform="translate(180,367.43362)"
       sodipodi:nodetypes="ccccccccccc" />
    <path
       style="fill:none;stroke:#000000;stroke-width:1px;stroke-linecap:butt;stroke-linejoin:miter;stroke-opacity:1"
       d="m 728.57143,320.57143 0.71429,90 17.85714,0.71428 7.14286,7.85714 2.85714,73.57144 L 785,494.14286 795.71429,492 l 5,-1.42857 0,-55.71429 21.42857,-7.14285 18.57143,-0.71429 0,-110 -32.14286,-6.42857 -40,0 -25,2.85714 z"
       id="path3010"
       inkscape:connector-curvature="0"
       transform="translate(180,367.43362)"
       sodipodi:nodetypes="cccccccccccccccc" />
    <path
       style="fill:none;stroke:#000000;stroke-width:1px;stroke-linecap:butt;stroke-linejoin:miter;stroke-opacity:1"
       d="M 802.85714,439.85714 800,535.57143 l 19.28572,12.85714 35,4.28572 19.28571,0 42.85714,-0.71429 24.28572,-2.85714 16.42857,-9.28572 0.71428,-99.28571 -38.57142,-10.71429 -45.71429,-1.42857 L 835,429.14286 z"
       id="path3012"
       inkscape:connector-curvature="0"
       transform="translate(180,367.43362)"
       sodipodi:nodetypes="ccccccccccccc" />
    <path
       style="fill:none;stroke:#000000;stroke-width:1px;stroke-linecap:butt;stroke-linejoin:miter;stroke-opacity:1"
       d="M 882.14286,302.71428 879.28572,427 920,427.71429 l 39.28572,11.42857 -0.71429,59.28572 27.14286,-0.7143 16.42861,-7.14285 6.4285,-185 -32.14283,-6.42857 -62.14285,-0.71429 z"
       id="path3014"
       inkscape:connector-curvature="0"
       transform="translate(180,367.43362)"
       sodipodi:nodetypes="ccccccccccc" />
    <path
       style="fill:none;stroke:#000000;stroke-width:1px;stroke-linecap:butt;stroke-linejoin:miter;stroke-opacity:1"
       d="m 1005,433.42857 22.8571,-3.57143 46.4286,2.14286 37.1429,2.14286 22.1429,9.28571 -4.2858,101.42857 -40,7.85715 L 1020,547 1002.1429,534.14286 z"
       id="path3018"
       inkscape:connector-curvature="0"
       transform="translate(180,367.43362)"
       sodipodi:nodetypes="cccccccccc" />
    <path
       style="fill:none;stroke:#000000;stroke-width:1px;stroke-linecap:butt;stroke-linejoin:miter;stroke-opacity:1"
       d="m 1045.7143,318.42857 -1.4286,110 47.8572,-1.42857 45,14.28571 -2.8572,60.71429 21.4286,-5.71429 8.5714,-175 -44.2857,-6.42857 -41.4286,-0.71428 z"
       id="path3020"
       inkscape:connector-curvature="0"
       transform="translate(180,367.43362)"
       sodipodi:nodetypes="cccccccccc" />
    <text
       xml:space="preserve"
       style="font-size:40px;font-style:normal;font-weight:normal;line-height:125%;letter-spacing:0px;word-spacing:0px;fill:#000000;fill-opacity:1;stroke:none;font-family:Sans"
       x="447.14285"
       y="68.428574"
       id="navigation"
       sodipodi:linespacing="125%"
       transform="translate(180,367.43362)"
       inkscape:label="#text3022"><tspan
         sodipodi:role="line"
         id="tspan3024"
         x="447.14285"
         y="68.428574">1 2 3 4 5 6 7 8 9 10 11 12</tspan></text>
  </g>
</svg>
