<?xml version="1.0" encoding="UTF-8" standalone="no"?>
<!-- Created with Inkscape (http://www.inkscape.org/) -->

<svg
   xmlns:dc="http://purl.org/dc/elements/1.1/"
   xmlns:cc="http://creativecommons.org/ns#"
   xmlns:rdf="http://www.w3.org/1999/02/22-rdf-syntax-ns#"
   xmlns:svg="http://www.w3.org/2000/svg"
   xmlns="http://www.w3.org/2000/svg"
   xmlns:xlink="http://www.w3.org/1999/xlink"
   xmlns:sodipodi="http://sodipodi.sourceforge.net/DTD/sodipodi-0.dtd"
   xmlns:inkscape="http://www.inkscape.org/namespaces/inkscape"
   width="1500"
   height="1000"
   id="svg3285"
   version="1.1"
   inkscape:version="0.48.4 r9939"
   sodipodi:docname="Ghotdrinks.svg">
  <defs
     id="defs3287" />
  <sodipodi:namedview
     id="base"
     pagecolor="#ffffff"
     bordercolor="#666666"
     borderopacity="1.0"
     inkscape:pageopacity="0.0"
     inkscape:pageshadow="2"
     inkscape:zoom="0.7"
     inkscape:cx="643.7004"
     inkscape:cy="512.72975"
     inkscape:document-units="px"
     inkscape:current-layer="layer1"
     showgrid="false"
     fit-margin-top="0"
     fit-margin-left="0"
     fit-margin-right="0"
     fit-margin-bottom="0"
     inkscape:window-width="1920"
     inkscape:window-height="1017"
     inkscape:window-x="-8"
     inkscape:window-y="-8"
     inkscape:window-maximized="1" />
  <metadata
     id="metadata3290">
    <rdf:RDF>
      <cc:Work
         rdf:about="">
        <dc:format>image/svg+xml</dc:format>
        <dc:type
           rdf:resource="http://purl.org/dc/dcmitype/StillImage" />
        <dc:title />
      </cc:Work>
    </rdf:RDF>
  </metadata>
  <g
     inkscape:label="Layer 1"
     inkscape:groupmode="layer"
     id="layer1"
     transform="translate(375,-32.362183)">
    <image
       y="32.362183"
       x="-375"
       id="qwe"
       xlink:href="file:///T:/SCRAN24/NEW%20PHOTOS%20FOR%20SCRAN/glasses%20&amp;%20takeaway%20cups/Takeaway%20cups/Ghotdrinks.jpg"
       height="1000"
       width="1500"
       inkscape:label="#image3301" />
    <path
       style="fill:none;stroke:#000000;stroke-width:1px;stroke-linecap:butt;stroke-linejoin:miter;stroke-opacity:1"
       d="M 34.285714,408.57143 70,780 94.285714,791.42857 140,792.85714 l 45.71429,-5.71428 31.42857,-8.57143 24.28571,-372.85714 -45.71428,-8.57143 -65.71429,0 -58.571429,0 z"
       id="area_1"
       inkscape:connector-curvature="0"
       transform="translate(-375,32.362183)"
       inkscape:label="#path3304" />
    <path
       style="fill:none;stroke:#000000;stroke-width:1px;stroke-linecap:butt;stroke-linejoin:miter;stroke-opacity:1"
       d="m 257.14286,444.28571 40,345.71429 35.71428,8.57143 60,-1.42857 42.85715,-11.42857 L 470,442.85714 l -71.42857,-8.57143 -78.57143,0 z"
       id="area_2"
       inkscape:connector-curvature="0"
       transform="translate(-375,32.362183)"
       inkscape:label="#path3306" />
    <path
       style="fill:none;stroke:#000000;stroke-width:1px;stroke-linecap:butt;stroke-linejoin:miter;stroke-opacity:1"
       d="m 475.71429,477.14286 37.14285,308.57143 24.28572,10 50,2.85714 40,-4.28572 18.57143,-11.42857 30,-302.85714 -44.28572,-11.42857 -62.85714,0 -47.14286,0 z"
       id="area_3"
       inkscape:connector-curvature="0"
       transform="translate(-375,32.362183)"
       sodipodi:nodetypes="ccccccccccc"
       inkscape:label="#path3308" />
    <path
       style="fill:none;stroke:#000000;stroke-width:1px;stroke-linecap:butt;stroke-linejoin:miter;stroke-opacity:1"
       d="M 688.57143,542.85714 720,788.57143 l 35.71429,14.28571 51.42857,1.42857 40,-8.57142 14.28571,-7.14286 24.28572,-250 -48.57143,-10 -70,0 -50,2.85714 z"
       id="area_4"
       inkscape:connector-curvature="0"
       transform="translate(-375,32.362183)"
       inkscape:label="#path3310" />
    <path
       style="fill:none;stroke:#000000;stroke-width:1px;stroke-linecap:butt;stroke-linejoin:miter;stroke-opacity:1"
       d="m 907.14286,578.57143 30,214.28571 42.85714,14.28572 45.7143,-1.42857 31.4286,-11.42858 30,-215.71428 -51.4286,-11.42857 -68.57144,-2.85715 z"
       id="area_5"
       inkscape:connector-curvature="0"
       transform="translate(-375,32.362183)"
       inkscape:label="#path3312" />
    <path
       style="fill:none;stroke:#000000;stroke-width:1px;stroke-linecap:butt;stroke-linejoin:miter;stroke-opacity:1"
       d="m 1118.5714,605.71429 17.1429,185.71428 17.1428,10 48.5715,8.57143 35.7143,-5.71429 18.5714,-5.71428 25.7143,-190.00001 -40.0001,-14.28571 -74.2856,-2.85714 z"
       id="area_6"
       inkscape:connector-curvature="0"
       transform="translate(-375,32.362183)"
       sodipodi:nodetypes="cccccccccc"
       inkscape:label="#path3314" />
    <path
       style="fill:none;stroke:#000000;stroke-width:1px;stroke-linecap:butt;stroke-linejoin:miter;stroke-opacity:1"
       d="m 1297.1429,658.57143 17.1428,137.14286 28.5714,12.85714 57.1429,0 21.4286,-7.14286 17.1429,-140 c -28.4918,-11.32371 -3.3239,0.99727 -35.7144,-11.42857 l -65.7142,0 -34.2858,5.71429 z"
       id="area_7"
       inkscape:connector-curvature="0"
       transform="translate(-375,32.362183)"
       sodipodi:nodetypes="cccccccccc"
       inkscape:label="#path3316" />
    <text
       xml:space="preserve"
       style="font-size:40px;font-style:normal;font-weight:normal;line-height:125%;letter-spacing:0px;word-spacing:0px;fill:#000000;fill-opacity:1;stroke:none;font-family:Sans"
       x="568.57141"
       y="97.14286"
       id="navigation"
       sodipodi:linespacing="125%"
       transform="translate(-375,32.362183)"
       inkscape:label="#text3318"><tspan
         sodipodi:role="line"
         id="tspan3320"
         x="568.57141"
         y="97.14286">1 2 3 4 5 6 7 </tspan></text>
  </g>
</svg>
