<?xml version="1.0" encoding="UTF-8" standalone="no"?>
<!-- Created with Inkscape (http://www.inkscape.org/) -->

<svg
   xmlns:dc="http://purl.org/dc/elements/1.1/"
   xmlns:cc="http://creativecommons.org/ns#"
   xmlns:rdf="http://www.w3.org/1999/02/22-rdf-syntax-ns#"
   xmlns:svg="http://www.w3.org/2000/svg"
   xmlns="http://www.w3.org/2000/svg"
   xmlns:xlink="http://www.w3.org/1999/xlink"
   xmlns:sodipodi="http://sodipodi.sourceforge.net/DTD/sodipodi-0.dtd"
   xmlns:inkscape="http://www.inkscape.org/namespaces/inkscape"
   width="1500"
   height="1000"
   id="svg3184"
   version="1.1"
   inkscape:version="0.48.4 r9939"
   sodipodi:docname="gspirits.svg">
  <defs
     id="defs3186" />
  <sodipodi:namedview
     id="base"
     pagecolor="#ffffff"
     bordercolor="#666666"
     borderopacity="1.0"
     inkscape:pageopacity="0.0"
     inkscape:pageshadow="2"
     inkscape:zoom="0.7"
     inkscape:cx="715.98413"
     inkscape:cy="534.36012"
     inkscape:document-units="px"
     inkscape:current-layer="layer1"
     showgrid="false"
     fit-margin-top="0"
     fit-margin-left="0"
     fit-margin-right="0"
     fit-margin-bottom="0"
     inkscape:window-width="1920"
     inkscape:window-height="1017"
     inkscape:window-x="-8"
     inkscape:window-y="-8"
     inkscape:window-maximized="1" />
  <metadata
     id="metadata3189">
    <rdf:RDF>
      <cc:Work
         rdf:about="">
        <dc:format>image/svg+xml</dc:format>
        <dc:type
           rdf:resource="http://purl.org/dc/dcmitype/StillImage" />
        <dc:title />
      </cc:Work>
    </rdf:RDF>
  </metadata>
  <g
     inkscape:label="Layer 1"
     inkscape:groupmode="layer"
     id="layer1"
     transform="translate(27.142857,-266.64789)">
    <image
       y="266.64789"
       x="-27.142857"
       id="qwe"
       xlink:href="file:///T:/SCRAN24/NEW%20PHOTOS%20FOR%20SCRAN/glasses%20&amp;%20takeaway%20cups/glasses/gspirits.jpg"
       height="1000"
       width="1500"
       inkscape:label="#image3200" />
    <path
       style="fill:none;stroke:#000000;stroke-width:1px;stroke-linecap:butt;stroke-linejoin:miter;stroke-opacity:1"
       d="m 80,267.14285 50,-14.28571 58.57143,2.85715 67.14286,-1.42858 40,15.71429 -11.42858,380 -37.14285,27.14286 -94.28572,5.71428 -41.42857,-10 -7.14286,-30 -1.42857,-60 z"
       id="area_3"
       inkscape:connector-curvature="0"
       transform="translate(-27.142857,266.64789)"
       sodipodi:nodetypes="cccccccccccc"
       inkscape:label="#path3203" />
    <path
       style="fill:none;stroke:#000000;stroke-width:1px;stroke-linecap:butt;stroke-linejoin:miter;stroke-opacity:1"
       d="m 334.28571,321.42857 61.42858,-12.85714 77.14285,0 51.42857,8.57143 -5.71428,344.28571 -90,21.42857 -70,-18.57143 z"
       id="area_4"
       inkscape:connector-curvature="0"
       transform="translate(-27.142857,266.64789)"
       sodipodi:nodetypes="cccccccc"
       inkscape:label="#path3205" />
    <path
       style="fill:none;stroke:#000000;stroke-width:1px;stroke-linecap:butt;stroke-linejoin:miter;stroke-opacity:1"
       d="m 572.85714,410 62.85714,-15.71429 128.57143,1e-5 70,20 -2.85714,124.28571 L 805.71429,620 l -27.14286,55.71429 -60,8.57142 -45.71429,-1.42856 L 631.42857,667.14286 605.71429,618.57143 581.42857,550 z"
       id="area_5"
       inkscape:connector-curvature="0"
       transform="translate(-27.142857,266.64789)"
       sodipodi:nodetypes="ccccccccccccc"
       inkscape:label="#path3207" />
    <path
       style="fill:none;stroke:#000000;stroke-width:1px;stroke-linecap:butt;stroke-linejoin:miter;stroke-opacity:1"
       d="m 882.85715,424.28572 50,-10.00001 84.28575,1.42857 L 1058.5715,430 1048.5714,665.71429 1011.4286,681.42857 924.28571,680 880,660 z"
       id="area_6"
       inkscape:connector-curvature="0"
       transform="translate(-27.142857,266.64789)"
       sodipodi:nodetypes="ccccccccc"
       inkscape:label="#path3209" />
    <path
       style="fill:none;stroke:#000000;stroke-width:1px;stroke-linecap:butt;stroke-linejoin:miter;stroke-opacity:1"
       d="m 1111.4286,367.14286 75.7143,-5.71429 68.5714,7.14286 -31.4286,137.14285 -8.5714,80.00001 12.8571,88.57142 -58.5714,12.85714 -55.7143,-18.57142 17.1429,-87.14286 -4.2857,-80 z"
       id="area_11"
       inkscape:connector-curvature="0"
       transform="translate(-27.142857,266.64789)"
       sodipodi:nodetypes="ccccccccccc"
       inkscape:label="#path3211" />
    <path
       style="fill:none;stroke:#000000;stroke-width:1px;stroke-linecap:butt;stroke-linejoin:miter;stroke-opacity:1"
       d="m 1287.1428,477.14285 47.1429,-11.42856 40.0001,1.42857 51.4285,12.85714 -14.2858,31.42857 -7.1428,97.14285 -7.1428,68.57144 -52.8572,11.42857 -51.4286,-17.14286 2.8572,-67.14285 z"
       id="area_12"
       inkscape:connector-curvature="0"
       transform="translate(-27.142857,266.64789)"
       sodipodi:nodetypes="ccccccccccc"
       inkscape:label="#path3213" />
    <text
       xml:space="preserve"
       style="font-size:40px;font-style:normal;font-weight:normal;line-height:125%;letter-spacing:0px;word-spacing:0px;fill:#000000;fill-opacity:1;stroke:none;font-family:Sans"
       x="72.85714"
       y="375.21933"
       id="navigation"
       sodipodi:linespacing="125%"
       inkscape:label="#text2989"><tspan
         sodipodi:role="line"
         id="tspan2991"
         x="72.85714"
         y="375.21933">3 4 5 6 11 12</tspan></text>
  </g>
</svg>
