<?xml version="1.0" encoding="UTF-8" standalone="no"?>
<!-- Created with Inkscape (http://www.inkscape.org/) -->

<svg
   xmlns:dc="http://purl.org/dc/elements/1.1/"
   xmlns:cc="http://creativecommons.org/ns#"
   xmlns:rdf="http://www.w3.org/1999/02/22-rdf-syntax-ns#"
   xmlns:svg="http://www.w3.org/2000/svg"
   xmlns="http://www.w3.org/2000/svg"
   xmlns:xlink="http://www.w3.org/1999/xlink"
   xmlns:sodipodi="http://sodipodi.sourceforge.net/DTD/sodipodi-0.dtd"
   xmlns:inkscape="http://www.inkscape.org/namespaces/inkscape"
   width="1500"
   height="1000"
   id="svg3215"
   version="1.1"
   inkscape:version="0.48.4 r9939"
   sodipodi:docname="gwine.svg">
  <defs
     id="defs3217" />
  <sodipodi:namedview
     id="base"
     pagecolor="#ffffff"
     bordercolor="#666666"
     borderopacity="1.0"
     inkscape:pageopacity="0.0"
     inkscape:pageshadow="2"
     inkscape:zoom="0.7"
     inkscape:cx="686.22024"
     inkscape:cy="519.23882"
     inkscape:document-units="px"
     inkscape:current-layer="layer1"
     showgrid="false"
     fit-margin-top="0"
     fit-margin-left="0"
     fit-margin-right="0"
     fit-margin-bottom="0"
     inkscape:window-width="1920"
     inkscape:window-height="1017"
     inkscape:window-x="-8"
     inkscape:window-y="-8"
     inkscape:window-maximized="1" />
  <metadata
     id="metadata3220">
    <rdf:RDF>
      <cc:Work
         rdf:about="">
        <dc:format>image/svg+xml</dc:format>
        <dc:type
           rdf:resource="http://purl.org/dc/dcmitype/StillImage" />
        <dc:title />
      </cc:Work>
    </rdf:RDF>
  </metadata>
  <g
     inkscape:label="Layer 1"
     inkscape:groupmode="layer"
     id="layer1"
     transform="translate(375,-32.362183)">
    <image
       y="32.362183"
       x="-375"
       id="qwe"
       xlink:href="file:///T:/SCRAN24/NEW%20PHOTOS%20FOR%20SCRAN/glasses%20&amp;%20takeaway%20cups/glasses/gwine.jpg"
       height="1000"
       width="1500"
       inkscape:label="#image3231" />
    <path
       style="fill:none;stroke:#000000;stroke-width:1px;stroke-linecap:butt;stroke-linejoin:miter;stroke-opacity:1"
       d="m 231.42857,172.85714 74.28572,-1.42857 75.71428,-1.42857 72.85714,5.71429 14.28572,110 -7.14286,74.28571 -50,88.57143 -31.42857,40 L 371.42857,520 370,674.28571 388.57143,701.42857 444.28571,720 450,742.85714 427.14286,757.14286 351.42857,770 l -58.57143,0 -40,-12.85714 -7.14285,-24.28572 L 258.57143,720 l 45.71428,-10 30,-30 0,-92.85714 -8.57143,-102.85715 -29.99999,-25.71428 -30,-40 L 224.28571,332.85714 220,277.14286 z"
       id="area_8"
       inkscape:connector-curvature="0"
       transform="translate(-375,32.362183)"
       sodipodi:nodetypes="cccccccccccccccccccccccccccc"
       inkscape:label="#path3234" />
    <path
       style="fill:none;stroke:#000000;stroke-width:1px;stroke-linecap:butt;stroke-linejoin:miter;stroke-opacity:1"
       d="M 604.28572,227.14286 684.28571,220 770,218.57143 834.28571,224.28571 857.14286,230 852.85714,370 825.71429,452.85714 784.28571,528.57143 760,591.42857 l -7.14286,102.85714 21.42857,20 51.42858,10 L 840,737.14286 832.85714,762.85714 780,780 700,778.57143 624.28571,764.28571 610,748.57143 l 11.42857,-24.28572 50,-11.42857 24.28572,-18.57143 1.42857,-101.42857 -41.42857,-91.42857 -47.14286,-107.14285 z"
       id="area_9"
       inkscape:connector-curvature="0"
       transform="translate(-375,32.362183)"
       sodipodi:nodetypes="ccccccccccccccccccccccccc"
       inkscape:label="#path3236" />
    <path
       style="fill:none;stroke:#000000;stroke-width:1px;stroke-linecap:butt;stroke-linejoin:miter;stroke-opacity:1"
       d="M 1020,228.57143 1125.7143,220 l 105.7143,10 18.5714,94.28571 -2.8571,78.57143 -48.5715,88.57143 -52.8571,57.14286 -14.2857,60 4.2857,84.28571 12.8571,27.14286 64.2857,17.14286 -1.4285,27.14285 -74.2857,21.42858 -84.2858,-10 -44.2857,-22.85715 -4.2857,-20 77.1429,-20 17.1428,-28.57143 -2.8571,-140 -64.2857,-81.42857 L 1000,377.14286 z"
       id="area_10"
       inkscape:connector-curvature="0"
       transform="translate(-375,32.362183)"
       sodipodi:nodetypes="cccccccccccccccccccccc"
       inkscape:label="#path3238" />
    <text
       xml:space="preserve"
       style="font-size:40px;font-style:normal;font-weight:normal;line-height:125%;letter-spacing:0px;word-spacing:0px;fill:#000000;fill-opacity:1;stroke:none;font-family:Sans"
       x="110"
       y="88.571426"
       id="navigation"
       sodipodi:linespacing="125%"
       transform="translate(-375,32.362183)"
       inkscape:label="#text2986"><tspan
         sodipodi:role="line"
         id="tspan2988"
         x="110"
         y="88.571426">8 9 10</tspan></text>
  </g>
</svg>
