<?xml version="1.0" encoding="UTF-8" standalone="no"?>
<!-- Created with Inkscape (http://www.inkscape.org/) -->

<svg
   xmlns:dc="http://purl.org/dc/elements/1.1/"
   xmlns:cc="http://creativecommons.org/ns#"
   xmlns:rdf="http://www.w3.org/1999/02/22-rdf-syntax-ns#"
   xmlns:svg="http://www.w3.org/2000/svg"
   xmlns="http://www.w3.org/2000/svg"
   xmlns:xlink="http://www.w3.org/1999/xlink"
   xmlns:sodipodi="http://sodipodi.sourceforge.net/DTD/sodipodi-0.dtd"
   xmlns:inkscape="http://www.inkscape.org/namespaces/inkscape"
   width="3000"
   height="2000"
   id="svg2"
   version="1.1"
   inkscape:version="0.48.4 r9939"
   sodipodi:docname="New document 1">
  <defs
     id="defs4" />
  <sodipodi:namedview
     id="base"
     pagecolor="#ffffff"
     bordercolor="#666666"
     borderopacity="1.0"
     inkscape:pageopacity="0.0"
     inkscape:pageshadow="2"
     inkscape:zoom="0.35"
     inkscape:cx="1438.206"
     inkscape:cy="1148.6611"
     inkscape:document-units="px"
     inkscape:current-layer="layer1"
     showgrid="false"
     fit-margin-top="0"
     fit-margin-left="0"
     fit-margin-right="0"
     fit-margin-bottom="0"
     inkscape:window-width="1280"
     inkscape:window-height="962"
     inkscape:window-x="-8"
     inkscape:window-y="-8"
     inkscape:window-maximized="1" />
  <metadata
     id="metadata7">
    <rdf:RDF>
      <cc:Work
         rdf:about="">
        <dc:format>image/svg+xml</dc:format>
        <dc:type
           rdf:resource="http://purl.org/dc/dcmitype/StillImage" />
        <dc:title></dc:title>
      </cc:Work>
    </rdf:RDF>
  </metadata>
  <g
     inkscape:label="Layer 1"
     inkscape:groupmode="layer"
     id="layer1"
     transform="translate(428.57144,93.352104)">
    <image
       y="-93.352104"
       x="-428.57144"
       id="image2993"
       xlink:href="file:///T:/SCRAN24/NEW%20PHOTOS%20FOR%20SCRAN/chocolate%20&amp;%20sweets/Gcbar.jpg"
       height="2000"
       width="3000" />
    <path
       style="fill:none;stroke:#000000;stroke-width:1px;stroke-linecap:butt;stroke-linejoin:miter;stroke-opacity:1"
       d="m 531.42857,414.28571 260,11.42858 -8.57143,51.42857 -11.42857,5.71428 -17.14286,111.42857 -20,217.14286 -28.57142,245.71433 -8.57143,42.8571 8.57143,51.4286 -48.57143,2.8571 -45.71429,-8.5714 -51.42857,-8.5714 -62.85714,5.7142 -80,-2.8571 11.42857,-42.8572 17.14286,14.2858 17.14285,-34.2857 11.42857,-57.1429 34.28572,-80 8.57143,-105.71429 17.14285,-171.42857 11.42858,-91.42857 2.85714,-37.14286 -20,-14.28571 z"
       id="area_1"
       inkscape:connector-curvature="0"
       transform="translate(-428.57144,-93.352104)"
       inkscape:label="#path2996"
       sodipodi:nodetypes="ccccccccccccccccccccccccc" />
    <path
       style="fill:none;stroke:#000000;stroke-width:1px;stroke-linecap:butt;stroke-linejoin:miter;stroke-opacity:1"
       d="m 788.57143,488.57143 100,11.42857 8.57143,25.71429 17.14285,-14.28572 31.42858,2.85714 31.42857,51.42858 L 940,954.28571 l -2.85714,77.14289 -5.71429,11.4285 8.57143,22.8572 -234.28571,17.1428 37.14285,-65.7142 40,-334.28576 L 797.14286,580 791.42857,531.42857 z"
       id="area_2"
       inkscape:connector-curvature="0"
       transform="translate(-428.57144,-93.352104)"
       inkscape:label="#path2998" />
    <path
       style="fill:none;stroke:#000000;stroke-width:1px;stroke-linecap:butt;stroke-linejoin:miter;stroke-opacity:1"
       d="m 1017.1429,557.14286 34.2857,-8.57143 48.5714,0 51.4286,-11.42857 22.8571,34.28571 -5.7143,14.28572 -40,414.28571 -25.7143,25.7143 -28.5714,-22.8572 -11.4286,-8.57139 -102.8571,2.85715 0,-51.42857 z"
       id="area_3"
       inkscape:connector-curvature="0"
       transform="translate(-428.57144,-93.352104)"
       inkscape:label="#path3000" />
    <path
       style="fill:none;stroke:#000000;stroke-width:1px;stroke-linecap:butt;stroke-linejoin:miter;stroke-opacity:1"
       d="m 1200,500 54.2857,11.42857 88.5714,5.71429 74.2858,5.71428 74.2857,-5.71428 2.8571,45.71428 -22.8571,17.14286 -14.2857,457.1429 8.5714,14.2857 17.1428,0 -2.8571,31.4285 -40,8.5715 -117.1429,-8.5715 -131.4285,-11.4285 -48.5715,-22.8572 37.1429,-31.4285 0,-34.28576 28.5714,-414.28571 -11.4285,-40 z"
       id="area_4"
       inkscape:connector-curvature="0"
       transform="translate(-428.57144,-93.352104)"
       sodipodi:nodetypes="cccccccccccccccccccc"
       inkscape:label="#path3002" />
    <path
       style="fill:none;stroke:#000000;stroke-width:1px;stroke-linecap:butt;stroke-linejoin:miter;stroke-opacity:1"
       d="m 1505.7143,545.71429 34.2857,2.85714 34.2857,-11.42857 48.5714,8.57143 37.1429,8.57142 28.5714,-11.42857 2.8572,42.85715 -17.1429,11.42857 -8.5714,385.71428 22.8571,-8.57143 8.5715,34.28569 -34.2858,14.2857 2.8572,11.4286 -94.2857,22.8572 -68.5715,-2.8572 -5.7142,-42.8571 25.7142,-22.85717 -11.4285,-377.14286 0,-22.85714 z"
       id="area_5"
       inkscape:connector-curvature="0"
       transform="translate(-428.57144,-93.352104)"
       inkscape:label="#path3004" />
    <path
       style="fill:none;stroke:#000000;stroke-width:1px;stroke-linecap:butt;stroke-linejoin:miter;stroke-opacity:1"
       d="m 1677.1429,402.85714 97.1428,5.71429 57.1429,8.57143 40,-17.14286 11.4285,48.57143 L 1868.5714,480 1860,540 l 25.7143,525.7143 -2.8572,17.1428 37.1429,40 -31.4286,11.4286 -68.5714,-20 -42.8571,11.4286 -48.5715,17.1428 -60,-31.4285 31.4286,-17.1429 14.2857,-20 -8.5714,-465.71427 0,-100 -34.2857,-54.28572 z"
       id="area_6"
       inkscape:connector-curvature="0"
       transform="translate(-428.57144,-93.352104)"
       inkscape:label="#path3006" />
    <path
       style="fill:none;stroke:#000000;stroke-width:1px;stroke-linecap:butt;stroke-linejoin:miter;stroke-opacity:1"
       d="m 1925.7143,565.71429 162.8571,11.42857 14.2857,57.14285 -28.5714,34.28572 2.8572,205.71428 22.8571,42.85715 37.1429,57.14285 -5.7143,51.42859 -94.2857,-2.8572 -140,-2.8571 0,-71.42857 25.7142,-25.71429 -14.2857,-240 -31.4285,-65.71428 0,-22.85715 z"
       id="area_7"
       inkscape:connector-curvature="0"
       transform="translate(-428.57144,-93.352104)"
       sodipodi:nodetypes="cccccccccccccccc"
       inkscape:label="#path3008" />
    <path
       style="fill:none;stroke:#000000;stroke-width:1px;stroke-linecap:butt;stroke-linejoin:miter;stroke-opacity:1"
       d="m 2100,428.57143 160,0 157.1429,14.28571 20,60 -22.8572,88.57143 65.7143,420.00003 17.1429,22.8571 31.4285,140 -60,8.5714 -111.4285,-22.8571 -80,2.8571 -2.8572,-22.8571 -97.1428,-8.5714 -17.1429,-28.5715 20,-100 -37.1429,-385.71424 -17.1428,-100 -28.5714,-51.42857 z"
       id="area_8"
       inkscape:connector-curvature="0"
       transform="translate(-428.57144,-93.352104)"
       inkscape:label="#path3010" />
    <flowRoot
       xml:space="preserve"
       id="navigation"
       style="font-size:40px;font-style:normal;font-weight:normal;line-height:125%;letter-spacing:0px;word-spacing:0px;fill:#000000;fill-opacity:1;stroke:none;font-family:Sans"
       transform="translate(-428.57144,-93.352104)"
       inkscape:label="#flowRoot3012"><flowRegion
         id="flowRegion3014"><rect
           id="rect3016"
           width="468.57144"
           height="108.57143"
           x="122.85714"
           y="60" /></flowRegion><flowPara
         id="flowPara3018">1 2 3 4 5 6 7 8</flowPara></flowRoot>  </g>
</svg>
