<?xml version="1.0" encoding="UTF-8" standalone="no"?>
<!-- Created with Inkscape (http://www.inkscape.org/) -->

<svg
   xmlns:dc="http://purl.org/dc/elements/1.1/"
   xmlns:cc="http://creativecommons.org/ns#"
   xmlns:rdf="http://www.w3.org/1999/02/22-rdf-syntax-ns#"
   xmlns:svg="http://www.w3.org/2000/svg"
   xmlns="http://www.w3.org/2000/svg"
   xmlns:xlink="http://www.w3.org/1999/xlink"
   xmlns:sodipodi="http://sodipodi.sourceforge.net/DTD/sodipodi-0.dtd"
   xmlns:inkscape="http://www.inkscape.org/namespaces/inkscape"
   width="3000"
   height="2000"
   id="svg2"
   version="1.1"
   inkscape:version="0.91 r13725"
   sodipodi:docname="Gdekr.svg">
  <defs
     id="defs4" />
  <sodipodi:namedview
     id="base"
     pagecolor="#ffffff"
     bordercolor="#666666"
     borderopacity="1.0"
     inkscape:pageopacity="0.0"
     inkscape:pageshadow="2"
     inkscape:zoom="0.35"
     inkscape:cx="743.98664"
     inkscape:cy="1051.4286"
     inkscape:document-units="px"
     inkscape:current-layer="layer1"
     showgrid="false"
     fit-margin-top="0"
     fit-margin-left="0"
     fit-margin-right="0"
     fit-margin-bottom="0"
     inkscape:window-width="2560"
     inkscape:window-height="1338"
     inkscape:window-x="0"
     inkscape:window-y="1"
     inkscape:window-maximized="1" />
  <metadata
     id="metadata7">
    <rdf:RDF>
      <cc:Work
         rdf:about="">
        <dc:format>image/svg+xml</dc:format>
        <dc:type
           rdf:resource="http://purl.org/dc/dcmitype/StillImage" />
        <dc:title />
      </cc:Work>
    </rdf:RDF>
  </metadata>
  <g
     inkscape:label="Layer 1"
     inkscape:groupmode="layer"
     id="layer1"
     transform="translate(445.71429,416.20926)">
    <image
       y="-416.20926"
       x="-445.71429"
       id="image2993"
       xlink:href="file:///T:/SCRAN24/NEW%20PHOTOS%20FOR%20SCRAN/chocolate%20&amp;%20sweets/Gdekr.jpg"
       height="2000"
       width="3000" />
    <path
       style="fill:none;stroke:#000000;stroke-width:1px;stroke-linecap:butt;stroke-linejoin:miter;stroke-opacity:1"
       d="m 880,405.71429 71.42857,8.57142 62.85713,-5.71428 45.7143,0 77.1429,11.42857 8.5714,34.28571 -40,54.28572 L 1100,585.71429 1085.7143,794.28571 1071.4286,1008.5714 1060,1100 l 31.4286,37.1429 -5.7143,34.2857 -85.7143,5.7143 -68.57143,0 -137.14286,45.7142 -5.71428,-60 68.57143,-179.99996 54.28571,-477.14285 0,-8.57143 -37.14286,-22.85715 z"
       id="area_1"
       inkscape:connector-curvature="0"
       transform="translate(-445.71429,-416.20926)"
       sodipodi:nodetypes="cccccccccccccccccccccc"
       inkscape:label="#path2996" />
    <path
       style="fill:none;stroke:#000000;stroke-width:1px;stroke-linecap:butt;stroke-linejoin:miter;stroke-opacity:1"
       d="m 1191.4286,580 37.1428,-37.14286 162.8572,-17.14285 45.7143,11.42857 -5.7143,51.42857 -31.4286,14.28571 -5.7143,451.42856 42.8572,31.4286 -40,20 -42.8572,-11.4286 -17.1428,-2.8571 -148.5715,20 22.8572,-20 -45.7143,-31.4286 2.8571,-48.5714 37.1429,2.8571 11.4286,-385.71427 -25.7144,-5.71429 z"
       id="area_2"
       inkscape:connector-curvature="0"
       transform="translate(-445.71429,-416.20926)"
       sodipodi:nodetypes="ccccccccccccccccccc"
       inkscape:label="#path2998" />
    <path
       style="fill:none;stroke:#000000;stroke-width:1px;stroke-linecap:butt;stroke-linejoin:miter;stroke-opacity:1"
       d="m 1525.7143,448.57143 77.1428,-2.85714 80,5.71428 37.1429,25.71429 20,-25.71429 5.7143,42.85714 -37.1429,40 L 1720,560 l 2.8571,491.4286 17.1429,42.8571 11.4286,42.8572 -8.5715,14.2857 L 1760,1180 l 2.8571,57.1429 L 1671.4286,1220 1640,1217.1429 l -28.5714,0 -17.1429,-14.2858 -14.2857,40 -20,-11.4285 -2.8571,-51.4286 -45.7143,0 28.5714,-37.1429 22.8571,-68.5714 -5.7142,-471.42856 -2.8572,-71.42857 -28.5714,-37.14286 z"
       id="area_3"
       inkscape:connector-curvature="0"
       transform="translate(-445.71429,-416.20926)"
       inkscape:label="#path3000" />
    <path
       style="fill:none;stroke:#000000;stroke-width:1px;stroke-linecap:butt;stroke-linejoin:miter;stroke-opacity:1"
       d="m 1831.4286,511.42857 62.8571,0 57.1429,5.71429 71.4285,5.71428 20,-2.85714 8.5715,62.85714 -20,22.85715 -8.5715,114.28571 31.4286,297.1429 0,62.8571 45.7143,77.1429 -28.5714,20 -5.7143,-28.5715 -77.1429,-22.8571 -128.5714,45.7143 -5.7143,-45.7143 8.5715,-45.7143 31.4285,-34.2857 L 1860,611.42857 1828.5714,554.28571 z"
       id="area_4"
       inkscape:connector-curvature="0"
       transform="translate(-445.71429,-416.20926)"
       sodipodi:nodetypes="ccccccccccccccccccccc"
       inkscape:label="#path3002" />
    <text
       xml:space="preserve"
       style="font-style:normal;font-weight:normal;font-size:40px;line-height:125%;font-family:Sans;letter-spacing:0px;word-spacing:0px;fill:#000000;fill-opacity:1;stroke:none"
       x="-205.71429"
       y="-276.33929"
       id="navigation"
       sodipodi:linespacing="125%"
       inkscape:label="#text4142"><tspan
         sodipodi:role="line"
         x="-205.71429"
         y="-276.33929"
         id="tspan4144"><tspan
           x="-205.71429"
           y="-276.33929"
           id="tspan4146">1 2 3 4</tspan></tspan></text>
  </g>
</svg>
