<?xml version="1.0" encoding="UTF-8" standalone="no"?>
<!-- Created with Inkscape (http://www.inkscape.org/) -->

<svg
   xmlns:dc="http://purl.org/dc/elements/1.1/"
   xmlns:cc="http://creativecommons.org/ns#"
   xmlns:rdf="http://www.w3.org/1999/02/22-rdf-syntax-ns#"
   xmlns:svg="http://www.w3.org/2000/svg"
   xmlns="http://www.w3.org/2000/svg"
   xmlns:xlink="http://www.w3.org/1999/xlink"
   xmlns:sodipodi="http://sodipodi.sourceforge.net/DTD/sodipodi-0.dtd"
   xmlns:inkscape="http://www.inkscape.org/namespaces/inkscape"
   width="3000"
   height="2000"
   id="svg2"
   version="1.1"
   inkscape:version="0.91 r13725"
   sodipodi:docname="Ggalx.svg">
  <defs
     id="defs4" />
  <sodipodi:namedview
     id="base"
     pagecolor="#ffffff"
     bordercolor="#666666"
     borderopacity="1.0"
     inkscape:pageopacity="0.0"
     inkscape:pageshadow="2"
     inkscape:zoom="0.35"
     inkscape:cx="1082.8571"
     inkscape:cy="1000"
     inkscape:document-units="px"
     inkscape:current-layer="layer1"
     showgrid="false"
     fit-margin-top="0"
     fit-margin-left="0"
     fit-margin-right="0"
     fit-margin-bottom="0"
     inkscape:window-width="2560"
     inkscape:window-height="1338"
     inkscape:window-x="0"
     inkscape:window-y="1"
     inkscape:window-maximized="1" />
  <metadata
     id="metadata7">
    <rdf:RDF>
      <cc:Work
         rdf:about="">
        <dc:format>image/svg+xml</dc:format>
        <dc:type
           rdf:resource="http://purl.org/dc/dcmitype/StillImage" />
        <dc:title />
      </cc:Work>
    </rdf:RDF>
  </metadata>
  <g
     inkscape:label="Layer 1"
     inkscape:groupmode="layer"
     id="layer1"
     transform="translate(1125,467.63782)">
    <image
       y="-467.63782"
       x="-1125"
       id="image2993"
       xlink:href="file:///T:/SCRAN24/NEW%20PHOTOS%20FOR%20SCRAN/chocolate%20&amp;%20sweets/Ggalx.jpg"
       height="2000"
       width="3000" />
    <path
       style="fill:none;stroke:#000000;stroke-width:1px;stroke-linecap:butt;stroke-linejoin:miter;stroke-opacity:1"
       d="M 728.57143,480 771.42857,451.42857 1100,460 l 17.1429,-8.57143 42.8571,31.42857 -8.5714,11.42857 -5.7143,160 -14.2857,328.57143 -2.8572,165.71426 L 1000,1154.2857 780,1160 651.42857,1160 660,1048.5714 688.57143,811.42857 717.14286,565.71429 z"
       id="area_1"
       inkscape:connector-curvature="0"
       transform="translate(-1125,-467.63782)"
       inkscape:label="#path2996" />
    <path
       style="fill:none;stroke:#000000;stroke-width:1px;stroke-linecap:butt;stroke-linejoin:miter;stroke-opacity:1"
       d="m 1237.1429,471.42857 57.1428,-17.14286 91.4286,0 20,5.71429 174.2857,-17.14286 0,100 -20,37.14286 11.4286,77.14286 5.7143,260 2.8571,91.42854 14.2857,28.5715 14.2857,17.1428 -74.2857,31.4286 -94.2857,0 -200,5.7143 -5.7143,-2.8572 14.2857,-34.2857 5.7143,-462.85713 5.7143,-14.28571 -25.7143,-20 z"
       id="area_2"
       inkscape:connector-curvature="0"
       transform="translate(-1125,-467.63782)"
       inkscape:label="#path2998" />
    <path
       style="fill:none;stroke:#000000;stroke-width:1px;stroke-linecap:butt;stroke-linejoin:miter;stroke-opacity:1"
       d="m 1680,482.85714 234.2857,-17.14285 2.8572,34.28571 -11.4286,60 11.4286,62.85714 37.1428,374.28572 34.2857,65.71424 0,40 -77.1428,14.2858 -82.8572,-11.4286 -51.4285,5.7143 L 1720,1088.5714 1731.4286,1020 1700,560 1674.2857,517.14286 z"
       id="area_3"
       inkscape:connector-curvature="0"
       transform="translate(-1125,-467.63782)"
       sodipodi:nodetypes="cccccccccccccccc"
       inkscape:label="#path3000" />
    <path
       style="fill:none;stroke:#000000;stroke-width:1px;stroke-linecap:butt;stroke-linejoin:miter;stroke-opacity:1"
       d="m 2108.5714,628.57143 20,-42.85714 40,-17.14286 22.8572,54.28571 0,37.14286 -11.4286,11.42857 0,14.28572 22.8571,28.57142 L 2214.2857,820 2220,851.42857 l -17.1429,31.42857 -28.5714,14.28572 2.8572,48.57143 -37.1429,17.14285 -28.5714,2.85715 -34.2857,-31.42858 22.8571,-60 -2.8571,-80 -2.8572,-77.14285 14.2857,-25.71429 20,-8.57143 -17.1428,-11.42857 z"
       id="area_4"
       inkscape:connector-curvature="0"
       transform="translate(-1125,-467.63782)"
       inkscape:label="#path3002" />
    <text
       xml:space="preserve"
       style="font-style:normal;font-weight:normal;font-size:40px;line-height:125%;font-family:Sans;letter-spacing:0px;word-spacing:0px;fill:#000000;fill-opacity:1;stroke:none"
       x="-947.85742"
       y="-316.34012"
       id="navigation"
       sodipodi:linespacing="125%"
       inkscape:label="#text4142"><tspan
         sodipodi:role="line"
         x="-947.85742"
         y="-316.34012"
         id="tspan4144"><tspan
           x="-947.85742"
           y="-316.34012"
           id="tspan4146">1 2 3 4</tspan></tspan></text>
  </g>
</svg>
