<?xml version="1.0" encoding="UTF-8" standalone="no"?>
<!-- Created with Inkscape (http://www.inkscape.org/) -->

<svg
   xmlns:dc="http://purl.org/dc/elements/1.1/"
   xmlns:cc="http://creativecommons.org/ns#"
   xmlns:rdf="http://www.w3.org/1999/02/22-rdf-syntax-ns#"
   xmlns:svg="http://www.w3.org/2000/svg"
   xmlns="http://www.w3.org/2000/svg"
   xmlns:xlink="http://www.w3.org/1999/xlink"
   xmlns:sodipodi="http://sodipodi.sourceforge.net/DTD/sodipodi-0.dtd"
   xmlns:inkscape="http://www.inkscape.org/namespaces/inkscape"
   width="3000"
   height="2000"
   id="svg3012"
   version="1.1"
   inkscape:version="0.91 r13725"
   sodipodi:docname="Ghula.svg">
  <defs
     id="defs3014" />
  <sodipodi:namedview
     id="base"
     pagecolor="#ffffff"
     bordercolor="#666666"
     borderopacity="1.0"
     inkscape:pageopacity="0.0"
     inkscape:pageshadow="2"
     inkscape:zoom="0.35"
     inkscape:cx="1194.9999"
     inkscape:cy="1205.7143"
     inkscape:document-units="px"
     inkscape:current-layer="layer1"
     showgrid="false"
     fit-margin-top="0"
     fit-margin-left="0"
     fit-margin-right="0"
     fit-margin-bottom="0"
     inkscape:window-width="2560"
     inkscape:window-height="1338"
     inkscape:window-x="0"
     inkscape:window-y="1"
     inkscape:window-maximized="1" />
  <metadata
     id="metadata3017">
    <rdf:RDF>
      <cc:Work
         rdf:about="">
        <dc:format>image/svg+xml</dc:format>
        <dc:type
           rdf:resource="http://purl.org/dc/dcmitype/StillImage" />
        <dc:title />
      </cc:Work>
    </rdf:RDF>
  </metadata>
  <g
     inkscape:label="Layer 1"
     inkscape:groupmode="layer"
     id="layer1"
     transform="translate(1237.1428,-195.21933)">
    <image
       y="195.21933"
       x="-1237.1428"
       id="image3028"
       xlink:href="file:///T:/SCRAN24/NEW%20PHOTOS%20FOR%20SCRAN/crisps/crisps/Ghula.jpg"
       height="2000"
       width="3000" />
    <path
       style="fill:none;stroke:#000000;stroke-width:1px;stroke-linecap:butt;stroke-linejoin:miter;stroke-opacity:1"
       d="m 571.42857,380 40,28.57143 74.28572,14.28571 L 760,420 l 77.14286,-5.71429 168.57144,-2.85714 140,11.42857 97.1428,14.28572 -28.5714,42.85714 -31.4286,68.57143 0,320 -5.7142,22.85714 14.2857,88.57143 5.7143,91.4286 25.7142,71.4285 -37.1428,11.4286 -31.4286,-11.4286 L 1100,1154.2857 888.57143,1168.5714 720,1174.2857 l -88.57143,20 -34.28571,-5.7143 -122.85715,37.1429 -2.85714,-34.2857 L 500,1065.7143 l 28.57143,-208.57144 17.14286,-88.57143 0,-117.14286 17.14285,-137.14286 -17.14285,-100 z"
       id="area_1"
       inkscape:connector-curvature="0"
       transform="translate(-1237.1428,195.21933)"
       inkscape:label="#path3031" />
    <path
       style="fill:none;stroke:#000000;stroke-width:1px;stroke-linecap:butt;stroke-linejoin:miter;stroke-opacity:1"
       d="m 1288.5714,437.14286 180,20 100,5.71428 197.1429,22.85715 65.7143,22.85714 17.1428,-14.28572 -11.4285,114.28572 -8.5715,102.85714 -17.1428,28.57143 14.2857,54.28571 0,285.71429 22.8571,11.4286 8.5715,80 -45.7143,-2.8572 -165.7143,-25.7143 -97.1429,-28.5714 -42.8571,0 -80,11.4286 -208.5714,-17.1429 54.2857,-57.1428 14.2857,-125.71431 17.1428,-48.57143 -8.5714,-145.71429 -8.5714,-125.71428 -8.5714,-117.14286 z"
       id="area_2"
       inkscape:connector-curvature="0"
       transform="translate(-1237.1428,195.21933)"
       inkscape:label="#path3033" />
    <path
       style="fill:none;stroke:#000000;stroke-width:1px;stroke-linecap:butt;stroke-linejoin:miter;stroke-opacity:1"
       d="M 1888.5714,551.42857 2080,528.57142 l 57.1429,8.57144 171.4285,-2.85715 157.1429,8.57143 20,205.71429 -11.4286,97.14286 20,97.14285 14.2857,59.99996 40,37.1429 31.4286,0 -5.7143,37.1429 -79.9999,8.5714 -182.8572,-5.7143 -140,-8.5714 -237.1429,5.7143 25.7143,-42.8572 c 0,0 -20,-105.71427 -20,-122.85713 0,-17.14286 0,-142.85714 0,-142.85714 l -48.5714,-157.14286 z"
       id="area_3"
       inkscape:connector-curvature="0"
       transform="translate(-1237.1428,195.21933)"
       sodipodi:nodetypes="cccccccccccccccccsccc"
       inkscape:label="#path3035" />
    <text
       xml:space="preserve"
       style="font-style:normal;font-weight:normal;font-size:40px;line-height:125%;font-family:Sans;letter-spacing:0px;word-spacing:0px;fill:#000000;fill-opacity:1;stroke:none"
       x="-1020.0002"
       y="323.66156"
       id="navigation"
       sodipodi:linespacing="125%"
       inkscape:label="#text4141"><tspan
         sodipodi:role="line"
         x="-1020.0002"
         y="323.66156"
         id="tspan4143"><tspan
           x="-1020.0002"
           y="323.66156"
           id="tspan4145">1 2 3</tspan></tspan></text>
  </g>
</svg>
