<?xml version="1.0" encoding="UTF-8" standalone="no"?>
<!-- Created with Inkscape (http://www.inkscape.org/) -->

<svg
   xmlns:dc="http://purl.org/dc/elements/1.1/"
   xmlns:cc="http://creativecommons.org/ns#"
   xmlns:rdf="http://www.w3.org/1999/02/22-rdf-syntax-ns#"
   xmlns:svg="http://www.w3.org/2000/svg"
   xmlns="http://www.w3.org/2000/svg"
   xmlns:xlink="http://www.w3.org/1999/xlink"
   xmlns:sodipodi="http://sodipodi.sourceforge.net/DTD/sodipodi-0.dtd"
   xmlns:inkscape="http://www.inkscape.org/namespaces/inkscape"
   width="3000"
   height="2000"
   id="svg2"
   version="1.1"
   inkscape:version="0.91 r13725"
   sodipodi:docname="Gkitk.svg">
  <defs
     id="defs4" />
  <sodipodi:namedview
     id="base"
     pagecolor="#ffffff"
     bordercolor="#666666"
     borderopacity="1.0"
     inkscape:pageopacity="0.0"
     inkscape:pageshadow="2"
     inkscape:zoom="0.35"
     inkscape:cx="1128.1727"
     inkscape:cy="1218.6192"
     inkscape:document-units="px"
     inkscape:current-layer="layer1"
     showgrid="false"
     fit-margin-top="0"
     fit-margin-left="0"
     fit-margin-right="0"
     fit-margin-bottom="0"
     inkscape:window-width="2560"
     inkscape:window-height="1338"
     inkscape:window-x="0"
     inkscape:window-y="1"
     inkscape:window-maximized="1" />
  <metadata
     id="metadata7">
    <rdf:RDF>
      <cc:Work
         rdf:about="">
        <dc:format>image/svg+xml</dc:format>
        <dc:type
           rdf:resource="http://purl.org/dc/dcmitype/StillImage" />
        <dc:title />
      </cc:Work>
    </rdf:RDF>
  </metadata>
  <g
     inkscape:label="Layer 1"
     inkscape:groupmode="layer"
     id="layer1"
     transform="translate(2391.4285,1073.3521)">
    <image
       y="-1073.3521"
       x="-2391.4285"
       id="image2993"
       xlink:href="file:///T:/SCRAN24/NEW%20PHOTOS%20FOR%20SCRAN/chocolate%20&amp;%20sweets/Gkitk.jpg"
       height="2000"
       width="3000" />
    <path
       style="fill:none;stroke:#000000;stroke-width:1px;stroke-linecap:butt;stroke-linejoin:miter;stroke-opacity:1"
       d="m 994.28571,417.14286 48.57139,-14.28572 94.2858,8.57143 74.2857,-5.71428 765.7143,5.71428 48.5714,-17.14286 2.8571,40 -2.8571,22.85715 14.2857,60 -42.8571,37.14285 -65.7143,22.85715 -114.2857,2.85714 -800,-5.71429 -85.71433,-71.42857 20,-42.85714 L 940,451.42857 l 8.57143,-48.57143 37.14286,0 z"
       id="area_1"
       inkscape:connector-curvature="0"
       transform="translate(-2391.4285,-1073.3521)"
       inkscape:label="#path2996" />
    <path
       style="fill:none;stroke:#000000;stroke-width:1px;stroke-linecap:butt;stroke-linejoin:miter;stroke-opacity:1"
       d="m 1100,602.85714 42.8571,-25.71428 640,-5.71429 8.5715,-20 25.7143,28.57143 -5.7143,60 62.8571,40 -22.8571,37.14286 -60,22.85714 -37.1429,8.57143 -605.7143,0 -31.4285,-14.28572 -40,-22.85714 -11.4286,-25.71428 51.4286,-40 L 1108.5714,620 z"
       id="area_2"
       inkscape:connector-curvature="0"
       transform="translate(-2391.4285,-1073.3521)"
       inkscape:label="#path2998" />
    <path
       style="fill:none;stroke:#000000;stroke-width:1px;stroke-linecap:butt;stroke-linejoin:miter;stroke-opacity:1"
       d="M 1025.7143,757.14286 1157.1429,760 l 388.5714,0 237.1428,-5.71429 54.2858,-5.71428 28.5714,-11.42857 14.2857,28.57143 8.5714,0 -5.7143,42.85714 31.4286,54.28571 -17.1428,11.42857 -40,11.42858 -728.5715,17.14285 L 1080,900 l -62.8571,-8.57143 14.2857,-54.28571 0,-34.28572 z"
       id="area_3"
       inkscape:connector-curvature="0"
       transform="translate(-2391.4285,-1073.3521)"
       inkscape:label="#path3000" />
    <path
       style="fill:none;stroke:#000000;stroke-width:1px;stroke-linecap:butt;stroke-linejoin:miter;stroke-opacity:1"
       d="m 1114.2857,908.57143 60,8.57143 22.8572,5.71428 L 1685.7143,920 1700,905.71429 l 102.8571,-14.28572 25.7143,325.71433 -671.4285,17.1428 -48.5715,-82.8571 z"
       id="area_4"
       inkscape:connector-curvature="0"
       transform="translate(-2391.4285,-1073.3521)"
       inkscape:label="#path3002" />
    <text
       xml:space="preserve"
       style="font-style:normal;font-weight:normal;font-size:40px;line-height:125%;font-family:Sans;letter-spacing:0px;word-spacing:0px;fill:#000000;fill-opacity:1;stroke:none"
       x="-2185.7136"
       y="-884.90985"
       id="navigation"
       sodipodi:linespacing="125%"
       inkscape:label="#text4142"><tspan
         sodipodi:role="line"
         x="-2185.7136"
         y="-884.90985"
         id="tspan4144"><tspan
           x="-2185.7136"
           y="-884.90985"
           id="tspan4146">1 2 3 4</tspan></tspan></text>
  </g>
</svg>
