<?xml version="1.0" encoding="UTF-8" standalone="no"?>
<!-- Created with Inkscape (http://www.inkscape.org/) -->

<svg
   xmlns:dc="http://purl.org/dc/elements/1.1/"
   xmlns:cc="http://creativecommons.org/ns#"
   xmlns:rdf="http://www.w3.org/1999/02/22-rdf-syntax-ns#"
   xmlns:svg="http://www.w3.org/2000/svg"
   xmlns="http://www.w3.org/2000/svg"
   xmlns:xlink="http://www.w3.org/1999/xlink"
   xmlns:sodipodi="http://sodipodi.sourceforge.net/DTD/sodipodi-0.dtd"
   xmlns:inkscape="http://www.inkscape.org/namespaces/inkscape"
   width="3000"
   height="2000"
   id="svg2"
   version="1.1"
   inkscape:version="0.48.4 r9939"
   sodipodi:docname="New document 1">
  <defs
     id="defs4" />
  <sodipodi:namedview
     id="base"
     pagecolor="#ffffff"
     bordercolor="#666666"
     borderopacity="1.0"
     inkscape:pageopacity="0.0"
     inkscape:pageshadow="2"
     inkscape:zoom="0.35"
     inkscape:cx="1500"
     inkscape:cy="1000"
     inkscape:document-units="px"
     inkscape:current-layer="layer1"
     showgrid="false"
     fit-margin-top="0"
     fit-margin-left="0"
     fit-margin-right="0"
     fit-margin-bottom="0"
     inkscape:window-width="1280"
     inkscape:window-height="962"
     inkscape:window-x="-8"
     inkscape:window-y="-8"
     inkscape:window-maximized="1" />
  <metadata
     id="metadata7">
    <rdf:RDF>
      <cc:Work
         rdf:about="">
        <dc:format>image/svg+xml</dc:format>
        <dc:type
           rdf:resource="http://purl.org/dc/dcmitype/StillImage" />
        <dc:title></dc:title>
      </cc:Work>
    </rdf:RDF>
  </metadata>
  <g
     inkscape:label="Layer 1"
     inkscape:groupmode="layer"
     id="layer1"
     transform="translate(1125,467.63782)">
    <image
       y="-467.63782"
       x="-1125"
       id="image2993"
       xlink:href="file:///T:/SCRAN24/NEW%20PHOTOS%20FOR%20SCRAN/chocolate%20&amp;%20sweets/Gmalt.jpg"
       height="2000"
       width="3000" />
    <path
       style="fill:none;stroke:#000000;stroke-width:1px;stroke-linecap:butt;stroke-linejoin:miter;stroke-opacity:1"
       d="m 542.85714,454.28571 68.57143,-17.14285 97.14286,-2.85715 54.28571,22.85715 62.85715,-8.57143 L 897.14286,460 922.85714,465.71429 994.28571,460 1037.1429,431.42857 1114.2857,420 l 94.2857,0 42.8572,5.71429 28.5714,-14.28572 2.8571,34.28572 -34.2857,22.85714 -2.8571,37.14286 L 1254.2857,580 1220,1105.7143 l -54.2857,-14.2857 -22.8572,20 -11.4285,34.2857 -28.5715,20 -119.99996,-14.2857 -234.28571,5.7143 -71.42857,-11.4286 -128.57143,5.7143 -77.14286,-45.7143 -45.71428,-2.8572 40,-114.28567 L 514.28571,814.28571 505.71429,582.85714 520,494.28572 525.71429,440 z"
       id="area_1"
       inkscape:connector-curvature="0"
       transform="translate(-1125,-467.63782)"
       sodipodi:nodetypes="cccccccccccccccccccccccccccccccccc"
       inkscape:label="#path2998" />
    <path
       style="fill:none;stroke:#000000;stroke-width:1px;stroke-linecap:butt;stroke-linejoin:miter;stroke-opacity:1"
       d="m 1288.5714,400 148.5715,-2.85714 137.1428,11.42857 65.7143,-40 0,42.85714 -25.7143,74.28572 0,60 17.1429,82.85714 L 1640,740 l 8.5714,140 5.7143,108.57143 5.7143,74.28567 54.2857,22.8572 -2.8571,34.2857 -91.4286,14.2857 -200,20 L 1254.2857,1180 1242.8571,1074.2857 1277.1429,857.14286 1291.4286,660 l 5.7143,-145.71429 -11.4286,-48.57143 z"
       id="area_2"
       inkscape:connector-curvature="0"
       transform="translate(-1125,-467.63782)"
       sodipodi:nodetypes="ccccccccccccccccccccccc"
       inkscape:label="#path3000" />
    <path
       style="fill:none;stroke:#000000;stroke-width:1px;stroke-linecap:butt;stroke-linejoin:miter;stroke-opacity:1"
       d="M 1657.1429,414.28571 1840,442.85714 l 182.8571,-20 14.2858,82.85715 L 2020,617.14286 2008.5714,874.28571 2034.2857,920 2040,977.14286 l 34.2857,77.14284 2.8571,45.7143 -94.2856,17.1428 -100.0001,11.4286 -134.2857,-2.8571 -74.2857,17.1428 -5.7143,-122.8571 8.5715,-194.28571 2.8571,-140 -17.1429,-77.14286 2.8572,-60 -22.8572,-54.28572 z"
       id="area_3"
       inkscape:connector-curvature="0"
       transform="translate(-1125,-467.63782)"
       sodipodi:nodetypes="ccccccccccccccccccccc"
       inkscape:label="#path3002" />
    <path
       style="fill:none;stroke:#000000;stroke-width:1px;stroke-linecap:butt;stroke-linejoin:miter;stroke-opacity:1"
       d="m 2105.7143,477.14286 80,11.42857 128.5714,40 85.7143,34.28571 17.1429,-31.42857 28.5714,20 8.5714,151.42857 11.4286,88.57143 22.8571,91.42857 -8.5714,25.71429 28.5714,17.14286 -11.4285,74.28571 -94.2858,-14.28571 -28.5714,-2.85715 5.7143,22.85716 -100,-28.57144 -57.1429,5.71428 L 2077.1429,980 l 0,-100 2.8571,-160 -8.5714,-68.57143 -20,-68.57143 0,-54.28571 z"
       id="area_4"
       inkscape:connector-curvature="0"
       transform="translate(-1125,-467.63782)"
       inkscape:label="#path3004" />
    <path
       style="fill:none;stroke:#000000;stroke-width:1px;stroke-linecap:butt;stroke-linejoin:miter;stroke-opacity:1"
       d="m 2114.2857,1074.2857 74.2857,0 20,2.8572 37.1429,-11.4286 20,-28.5714 60,-5.7143 54.2857,-8.5715 48.5714,31.4286 22.8572,28.5714 14.2857,11.4286 68.5714,-34.2857 31.4286,57.1429 20,31.4285 -62.8572,-5.7143 -45.7142,-2.8571 -25.7143,-17.1429 -48.5715,51.4286 L 2340,1180 l -62.8571,-14.2857 -34.2858,-42.8572 -20,20 -14.2857,25.7143 -65.7143,14.2857 -34.2857,-48.5714 -5.7143,-34.2857 z"
       id="area_5"
       inkscape:connector-curvature="0"
       transform="translate(-1125,-467.63782)"
       inkscape:label="#path3006" />
    <flowRoot
       xml:space="preserve"
       id="navigation"
       style="font-size:40px;font-style:normal;font-weight:normal;line-height:125%;letter-spacing:0px;word-spacing:0px;fill:#000000;fill-opacity:1;stroke:none;font-family:Sans"
       transform="translate(-1125,-467.63782)"
       inkscape:label="#flowRoot3008"><flowRegion
         id="flowRegion3010"><rect
           id="rect3012"
           width="422.85715"
           height="88.571426"
           x="182.85715"
           y="88.571426" /></flowRegion><flowPara
         id="flowPara3014">1 2 3 4 5</flowPara></flowRoot>  </g>
</svg>
