<?xml version="1.0" encoding="UTF-8" standalone="no"?>
<!-- Created with Inkscape (http://www.inkscape.org/) -->

<svg
   xmlns:dc="http://purl.org/dc/elements/1.1/"
   xmlns:cc="http://creativecommons.org/ns#"
   xmlns:rdf="http://www.w3.org/1999/02/22-rdf-syntax-ns#"
   xmlns:svg="http://www.w3.org/2000/svg"
   xmlns="http://www.w3.org/2000/svg"
   xmlns:xlink="http://www.w3.org/1999/xlink"
   xmlns:sodipodi="http://sodipodi.sourceforge.net/DTD/sodipodi-0.dtd"
   xmlns:inkscape="http://www.inkscape.org/namespaces/inkscape"
   width="3000"
   height="2000"
   id="svg2"
   version="1.1"
   inkscape:version="0.91 r13725"
   sodipodi:docname="Gmars.svg">
  <defs
     id="defs4" />
  <sodipodi:namedview
     id="base"
     pagecolor="#ffffff"
     bordercolor="#666666"
     borderopacity="1.0"
     inkscape:pageopacity="0.0"
     inkscape:pageshadow="2"
     inkscape:zoom="0.35"
     inkscape:cx="1078.7375"
     inkscape:cy="1262.3431"
     inkscape:document-units="px"
     inkscape:current-layer="layer1"
     showgrid="false"
     fit-margin-top="0"
     fit-margin-left="0"
     fit-margin-right="0"
     fit-margin-bottom="0"
     inkscape:window-width="2560"
     inkscape:window-height="1338"
     inkscape:window-x="0"
     inkscape:window-y="1"
     inkscape:window-maximized="1" />
  <metadata
     id="metadata7">
    <rdf:RDF>
      <cc:Work
         rdf:about="">
        <dc:format>image/svg+xml</dc:format>
        <dc:type
           rdf:resource="http://purl.org/dc/dcmitype/StillImage" />
        <dc:title />
      </cc:Work>
    </rdf:RDF>
  </metadata>
  <g
     inkscape:label="Layer 1"
     inkscape:groupmode="layer"
     id="layer1"
     transform="translate(2480,1076.2092)">
    <image
       y="-1076.2092"
       x="-2480"
       id="image2993"
       xlink:href="file:///T:/SCRAN24/NEW%20PHOTOS%20FOR%20SCRAN/chocolate%20&amp;%20sweets/Gmars.jpg"
       height="2000"
       width="3000" />
    <path
       style="fill:none;stroke:#000000;stroke-width:1px;stroke-linecap:butt;stroke-linejoin:miter;stroke-opacity:1"
       d="m 1048.5714,414.28571 0,40 25.7143,-8.57142 911.4286,-11.42858 14.2857,20 17.1429,-17.14285 5.7142,14.28571 -25.7142,22.85714 25.7142,42.85715 -17.1428,48.57143 -37.1429,20 -11.4285,19.99999 -51.4286,11.42858 -85.7143,5.71428 -720,8.57143 -105.71429,-88.57143 17.14289,-45.71428 -5.7143,-54.28572 z"
       id="area_1"
       inkscape:connector-curvature="0"
       transform="translate(-2480,-1076.2092)"
       sodipodi:nodetypes="ccccccccccccccccccc"
       inkscape:label="#path2996" />
    <path
       style="fill:none;stroke:#000000;stroke-width:1px;stroke-linecap:butt;stroke-linejoin:miter;stroke-opacity:1"
       d="m 1251.4286,640 502.8571,-2.85714 88.5714,-2.85715 20,-17.14285 14.2858,22.85714 -20,31.42857 5.7142,48.57143 -5.7142,48.57143 -2.8572,48.57143 -42.8571,-2.85715 -425.7143,8.57143 -108.5714,-5.71428 -51.4286,-5.71429 -22.8572,-54.28571 11.4286,-60 -5.7143,-31.42857 -5.7143,-17.14286 2.8572,-14.28572 37.1428,22.85715 z"
       id="area_2"
       inkscape:connector-curvature="0"
       transform="translate(-2480,-1076.2092)"
       inkscape:label="#path2998" />
    <path
       style="fill:none;stroke:#000000;stroke-width:1px;stroke-linecap:butt;stroke-linejoin:miter;stroke-opacity:1"
       d="m 1285.7143,822.85714 102.8571,25.71429 282.8572,-5.71429 117.1428,0 34.2857,-14.28571 L 1871.4286,860 1860,877.14286 l 8.5714,51.42857 -17.1428,91.42857 -31.4286,0 -22.8571,-8.5714 -42.8572,17.1428 -388.5714,2.8572 -68.5714,-14.2857 -42.8572,5.7142 0,-97.14281 11.4286,-54.28572 z"
       id="area_3"
       inkscape:connector-curvature="0"
       transform="translate(-2480,-1076.2092)"
       inkscape:label="#path3000" />
    <path
       style="fill:none;stroke:#000000;stroke-width:1px;stroke-linecap:butt;stroke-linejoin:miter;stroke-opacity:1"
       d="m 1108.5714,1031.4286 45.7143,-2.8572 28.5714,14.2857 280,5.7143 17.1429,-11.4285 111.4286,2.8571 -17.1429,122.8571 5.7143,45.7143 -40,11.4286 -34.2857,-14.2857 -22.8572,2.8571 -311.4285,-11.4285 -45.7143,34.2857 -22.8572,-68.5715 -11.4285,-71.4285 z"
       id="area_4"
       inkscape:connector-curvature="0"
       transform="translate(-2480,-1076.2092)"
       inkscape:label="#path3002" />
    <path
       style="fill:none;stroke:#000000;stroke-width:1px;stroke-linecap:butt;stroke-linejoin:miter;stroke-opacity:1"
       d="m 1708.5714,1071.4286 34.2857,-14.2857 154.2858,-5.7143 51.4285,45.7143 11.4286,-5.7143 -20,-25.7143 17.1429,-62.8572 77.1428,22.8572 -8.5714,57.1428 -22.8572,25.7143 -34.2857,5.7143 -22.8571,40 -231.4286,40 -14.2857,-48.5714 -8.5714,0 -14.2857,22.8571 -74.2858,-40 28.5715,-42.8571 31.4285,-17.1429 25.7143,34.2857 z"
       id="area_5"
       inkscape:connector-curvature="0"
       transform="translate(-2480,-1076.2092)"
       inkscape:label="#path3004" />
    <text
       xml:space="preserve"
       style="font-style:normal;font-weight:normal;font-size:40px;line-height:125%;font-family:Sans;letter-spacing:0px;word-spacing:0px;fill:#000000;fill-opacity:1;stroke:none"
       x="-2268.5723"
       y="-919.19666"
       id="navigation"
       sodipodi:linespacing="125%"
       inkscape:label="#text4143"><tspan
         sodipodi:role="line"
         x="-2268.5723"
         y="-919.19666"
         id="tspan4145"><tspan
           x="-2268.5723"
           y="-919.19666"
           id="tspan4147">1 2 3 4 5</tspan></tspan></text>
  </g>
</svg>
