<?xml version="1.0" encoding="UTF-8" standalone="no"?>
<!-- Created with Inkscape (http://www.inkscape.org/) -->

<svg
   xmlns:dc="http://purl.org/dc/elements/1.1/"
   xmlns:cc="http://creativecommons.org/ns#"
   xmlns:rdf="http://www.w3.org/1999/02/22-rdf-syntax-ns#"
   xmlns:svg="http://www.w3.org/2000/svg"
   xmlns="http://www.w3.org/2000/svg"
   xmlns:xlink="http://www.w3.org/1999/xlink"
   xmlns:sodipodi="http://sodipodi.sourceforge.net/DTD/sodipodi-0.dtd"
   xmlns:inkscape="http://www.inkscape.org/namespaces/inkscape"
   width="3000"
   height="2000"
   id="svg2"
   version="1.1"
   inkscape:version="0.91 r13725"
   sodipodi:docname="Gmbut.svg">
  <defs
     id="defs4" />
  <sodipodi:namedview
     id="base"
     pagecolor="#ffffff"
     bordercolor="#666666"
     borderopacity="1.0"
     inkscape:pageopacity="0.0"
     inkscape:pageshadow="2"
     inkscape:zoom="0.35"
     inkscape:cx="1078.7375"
     inkscape:cy="1208.5714"
     inkscape:document-units="px"
     inkscape:current-layer="layer1"
     showgrid="false"
     fit-margin-top="0"
     fit-margin-left="0"
     fit-margin-right="0"
     fit-margin-bottom="0"
     inkscape:window-width="2560"
     inkscape:window-height="1338"
     inkscape:window-x="0"
     inkscape:window-y="1"
     inkscape:window-maximized="1" />
  <metadata
     id="metadata7">
    <rdf:RDF>
      <cc:Work
         rdf:about="">
        <dc:format>image/svg+xml</dc:format>
        <dc:type
           rdf:resource="http://purl.org/dc/dcmitype/StillImage" />
        <dc:title />
      </cc:Work>
    </rdf:RDF>
  </metadata>
  <g
     inkscape:label="Layer 1"
     inkscape:groupmode="layer"
     id="layer1"
     transform="translate(2402.8572,1401.9236)">
    <image
       y="-1401.9236"
       x="-2402.8572"
       id="image2993"
       xlink:href="file:///T:/SCRAN24/NEW%20PHOTOS%20FOR%20SCRAN/chocolate%20&amp;%20sweets/Gmbut.jpg"
       height="2000"
       width="3000" />
    <path
       style="fill:none;stroke:#000000;stroke-width:1px;stroke-linecap:butt;stroke-linejoin:miter;stroke-opacity:1"
       d="M 522.85714,425.71429 720,471.42857 l 34.28571,17.14286 45.71429,0 25.71429,-11.42857 28.57142,-28.57143 108.57143,-14.28572 148.57146,-2.85714 0,68.57143 8.5714,48.57143 2.8571,131.42857 2.8572,137.14286 -11.4286,60 22.8572,42.85714 -20,114.2857 2.8571,168.5714 -100,8.5715 -205.71429,5.7143 -165.71428,0 -222.85714,25.7142 -28.57143,-157.1428 0,-80 80,-442.85716 20,-17.14285 z"
       id="area_1"
       inkscape:connector-curvature="0"
       transform="translate(-2402.8572,-1401.9236)"
       inkscape:label="#path2996" />
    <path
       style="fill:none;stroke:#000000;stroke-width:1px;stroke-linecap:butt;stroke-linejoin:miter;stroke-opacity:1"
       d="m 1154.2857,531.42857 491.4286,-14.28571 8.5714,74.28571 2.8572,177.14286 -25.7143,117.14286 11.4285,42.85714 -20,40 28.5715,88.57147 11.4285,22.8571 31.4286,2.8571 -17.1428,71.4286 -188.5715,-22.8571 -51.4285,8.5714 -51.4286,-14.2857 -91.4286,2.8571 -91.4286,-11.4285 -62.8571,5.7142 -11.4286,-62.8571 28.5714,-14.2858 17.1429,-134.28563 z"
       id="area_2"
       inkscape:connector-curvature="0"
       transform="translate(-2402.8572,-1401.9236)"
       sodipodi:nodetypes="ccccccccccccccccccccc"
       inkscape:label="#path2998" />
    <path
       style="fill:none;stroke:#000000;stroke-width:1px;stroke-linecap:butt;stroke-linejoin:miter;stroke-opacity:1"
       d="m 1660,608.57143 65.7143,2.85714 131.4286,-14.28571 222.8571,5.71428 11.4286,65.71429 -2.8572,91.42857 20,137.14286 2.8572,137.14284 31.4285,34.2857 2.8572,40 -128.5714,-11.4285 -100,0 -68.5715,-14.2858 -34.2857,20 -145.7143,-8.5714 L 1680,960 l -8.5714,-82.85714 0,-77.14286 -17.1429,-91.42857 z"
       id="area_3"
       inkscape:connector-curvature="0"
       transform="translate(-2402.8572,-1401.9236)"
       inkscape:label="#path3000" />
    <path
       style="fill:none;stroke:#000000;stroke-width:1px;stroke-linecap:butt;stroke-linejoin:miter;stroke-opacity:1"
       d="M 2128.5714,625.71429 2520,620 l 14.2857,157.14286 -5.7143,180 17.1429,48.57144 11.4286,37.1428 0,14.2858 -128.5715,5.7142 -80,17.1429 -191.4285,11.4286 -8.5715,-54.2857 17.1429,-8.5715 L 2148.5714,825.71429 2142.8571,700 z"
       id="area_4"
       inkscape:connector-curvature="0"
       transform="translate(-2402.8572,-1401.9236)"
       inkscape:label="#path3002" />
    <text
       xml:space="preserve"
       style="font-style:normal;font-weight:normal;font-size:40px;line-height:125%;font-family:Sans;letter-spacing:0px;word-spacing:0px;fill:#000000;fill-opacity:1;stroke:none"
       x="-2299.9998"
       y="-1224.911"
       id="navigation"
       sodipodi:linespacing="125%"
       inkscape:label="#text4142"><tspan
         sodipodi:role="line"
         x="-2299.9998"
         y="-1224.911"
         id="tspan4144"><tspan
           x="-2299.9998"
           y="-1224.911"
           id="tspan4146">1 2 3 4</tspan></tspan></text>
  </g>
</svg>
