<?xml version="1.0" encoding="UTF-8" standalone="no"?>
<!-- Created with Inkscape (http://www.inkscape.org/) -->

<svg
   xmlns:dc="http://purl.org/dc/elements/1.1/"
   xmlns:cc="http://creativecommons.org/ns#"
   xmlns:rdf="http://www.w3.org/1999/02/22-rdf-syntax-ns#"
   xmlns:svg="http://www.w3.org/2000/svg"
   xmlns="http://www.w3.org/2000/svg"
   xmlns:xlink="http://www.w3.org/1999/xlink"
   xmlns:sodipodi="http://sodipodi.sourceforge.net/DTD/sodipodi-0.dtd"
   xmlns:inkscape="http://www.inkscape.org/namespaces/inkscape"
   width="3000"
   height="2000"
   id="svg3076"
   version="1.1"
   inkscape:version="0.48.4 r9939"
   sodipodi:docname="New document 7">
  <defs
     id="defs3078" />
  <sodipodi:namedview
     id="base"
     pagecolor="#ffffff"
     bordercolor="#666666"
     borderopacity="1.0"
     inkscape:pageopacity="0.0"
     inkscape:pageshadow="2"
     inkscape:zoom="0.35"
     inkscape:cx="1446.4452"
     inkscape:cy="1045.7142"
     inkscape:document-units="px"
     inkscape:current-layer="layer1"
     showgrid="false"
     fit-margin-top="0"
     fit-margin-left="0"
     fit-margin-right="0"
     fit-margin-bottom="0"
     inkscape:window-width="1280"
     inkscape:window-height="962"
     inkscape:window-x="-8"
     inkscape:window-y="-8"
     inkscape:window-maximized="1" />
  <metadata
     id="metadata3081">
    <rdf:RDF>
      <cc:Work
         rdf:about="">
        <dc:format>image/svg+xml</dc:format>
        <dc:type
           rdf:resource="http://purl.org/dc/dcmitype/StillImage" />
        <dc:title></dc:title>
      </cc:Work>
    </rdf:RDF>
  </metadata>
  <g
     inkscape:label="Layer 1"
     inkscape:groupmode="layer"
     id="layer1"
     transform="translate(1820,1221.9236)">
    <image
       y="-1221.9236"
       x="-1820"
       id="image3092"
       xlink:href="file:///T:/SCRAN24/NEW%20PHOTOS%20FOR%20SCRAN/crisps/crisps/Gmmcp.jpg"
       height="2000"
       width="3000" />
    <path
       style="fill:none;stroke:#000000;stroke-width:1px;stroke-linecap:butt;stroke-linejoin:miter;stroke-opacity:1"
       d="m 474.28571,131.42857 85.71429,0 117.14286,20 148.57143,8.57143 28.57142,-11.42857 60,20 157.14289,8.57143 194.2857,11.42857 60,0 -2.8572,25.71428 -14.2857,37.14286 L 1280,328.57143 1237.1429,417.14286 1222.8571,500 l -11.4285,168.57143 0,31.42857 17.1428,108.57143 -22.8571,219.99997 -11.4286,114.2857 L 1240,1254.2857 1237.1429,1280 1140,1268.5714 l -162.85714,-14.2857 -142.85715,-5.7143 -60,-22.8571 -22.85714,-2.8572 -42.85714,40 L 645.71429,1240 560,1225.7143 l -108.57143,-2.8572 -85.71428,-8.5714 -80,0 L 160,1191.4286 l 0,-28.5715 82.85714,-54.2857 11.42857,-40 11.42858,-105.71426 37.14285,-165.71428 45.71429,-142.85715 25.71428,-157.14285 34.28572,-134.28572 22.85714,-94.28571 L 440,134.28571 l 0,-20 17.14286,-5.71428 z"
       id="area_1"
       inkscape:connector-curvature="0"
       transform="translate(-1820,-1221.9236)"
       inkscape:label="#path3099" />
    <path
       style="fill:none;stroke:#000000;stroke-width:1px;stroke-linecap:butt;stroke-linejoin:miter;stroke-opacity:1"
       d="m 1262.8571,377.14286 54.2858,8.57143 85.7142,-5.71429 108.5715,0 428.5714,-22.85714 0,25.71428 -60,60 -22.8571,60 11.4285,62.85715 L 1880,620 l 8.5714,128.57143 14.2857,108.57143 14.2858,57.14285 14.2857,65.71429 20,54.2857 20,65.7143 17.1428,51.4286 -2.8571,40 -97.1429,-5.7143 -160,-5.7143 -17.1428,8.5714 -34.2857,-5.7143 -60,-45.7142 -60,28.5714 -34.2858,17.1428 -45.7143,-14.2857 -42.8571,-8.5714 -85.7143,22.8571 -140,20 25.7143,-105.7142 31.4286,-185.71433 8.5714,-177.14286 8.5714,-145.71428 14.2858,-60 z"
       id="area_2"
       inkscape:connector-curvature="0"
       transform="translate(-1820,-1221.9236)"
       inkscape:label="#path3101"
       sodipodi:nodetypes="ccccccccccccccccccccccccccccccccccc" />
    <path
       style="fill:none;stroke:#000000;stroke-width:1px;stroke-linecap:butt;stroke-linejoin:miter;stroke-opacity:1"
       d="m 1880,482.85714 425.7143,-40 248.5714,-20 -5.7143,42.85715 L 2560,560 l 14.2857,117.14286 14.2857,125.71428 40,137.14286 17.1429,60 51.4286,114.2857 -128.5715,0 -128.5714,-5.7143 -122.8571,-20 -28.5715,-28.5714 -57.1428,31.4286 -162.8572,25.7143 -79.9999,14.2857 -34.2858,-85.7143 11.4286,-102.85716 -20,-220 -11.4286,-120 -17.1428,-71.42857 z"
       id="area_3"
       inkscape:connector-curvature="0"
       transform="translate(-1820,-1221.9236)"
       sodipodi:nodetypes="ccccccccccccccccccccccc"
       inkscape:label="#path3105" />
    <flowRoot
       xml:space="preserve"
       id="navigation"
       style="font-size:40px;font-style:normal;font-weight:normal;line-height:125%;letter-spacing:0px;word-spacing:0px;fill:#000000;fill-opacity:1;stroke:none;font-family:Sans"
       transform="translate(-1820,-1221.9236)"
       inkscape:label="#flowRoot3107"><flowRegion
         id="flowRegion3109"><rect
           id="rect3111"
           width="394.28571"
           height="102.85714"
           x="2520"
           y="102.85714" /></flowRegion><flowPara
         id="flowPara3113">1 2 3</flowPara></flowRoot>  </g>
</svg>
