<?xml version="1.0" encoding="UTF-8" standalone="no"?>
<!-- Created with Inkscape (http://www.inkscape.org/) -->

<svg
   xmlns:dc="http://purl.org/dc/elements/1.1/"
   xmlns:cc="http://creativecommons.org/ns#"
   xmlns:rdf="http://www.w3.org/1999/02/22-rdf-syntax-ns#"
   xmlns:svg="http://www.w3.org/2000/svg"
   xmlns="http://www.w3.org/2000/svg"
   xmlns:xlink="http://www.w3.org/1999/xlink"
   xmlns:sodipodi="http://sodipodi.sourceforge.net/DTD/sodipodi-0.dtd"
   xmlns:inkscape="http://www.inkscape.org/namespaces/inkscape"
   width="744.09448819"
   height="1052.3622047"
   id="svg3024"
   version="1.1"
   inkscape:version="0.48.4 r9939"
   sodipodi:docname="New document 4">
  <defs
     id="defs3026" />
  <sodipodi:namedview
     id="base"
     pagecolor="#ffffff"
     bordercolor="#666666"
     borderopacity="1.0"
     inkscape:pageopacity="0.0"
     inkscape:pageshadow="2"
     inkscape:zoom="0.35"
     inkscape:cx="646.13208"
     inkscape:cy="301.42857"
     inkscape:document-units="px"
     inkscape:current-layer="layer1"
     showgrid="false"
     inkscape:window-width="1280"
     inkscape:window-height="962"
     inkscape:window-x="-8"
     inkscape:window-y="-8"
     inkscape:window-maximized="1" />
  <metadata
     id="metadata3029">
    <rdf:RDF>
      <cc:Work
         rdf:about="">
        <dc:format>image/svg+xml</dc:format>
        <dc:type
           rdf:resource="http://purl.org/dc/dcmitype/StillImage" />
        <dc:title></dc:title>
      </cc:Work>
    </rdf:RDF>
  </metadata>
  <g
     inkscape:label="Layer 1"
     inkscape:groupmode="layer"
     id="layer1">
    <image
       y="-273.35211"
       x="-794.28571"
       id="image3040"
       xlink:href="file:///T:/SCRAN24/NEW%20PHOTOS%20FOR%20SCRAN/chocolate%20&amp;%20sweets/Gmnms.jpg"
       height="2000"
       width="3000" />
    <path
       style="fill:none;stroke:#000000;stroke-width:1px;stroke-linecap:butt;stroke-linejoin:miter;stroke-opacity:1"
       d="M 14.285714,163.79075 40,158.07647 l 160,5.71428 180,0 77.14286,14.28572 65.71428,-8.57143 151.42857,5.71429 37.14286,-20 -8.57143,82.85714 5.71429,97.14286 L 680,883.79075 l -42.85714,-34.28571 -54.28572,40 -40,8.57143 -54.28571,-5.71429 -60,-8.57143 -217.14286,0 -80,-8.57142 L 60,886.6479 14.285714,878.07647 -8.5714286,855.21933 l -57.1428574,0 14.285715,-111.42858 25.714285,-165.71428 17.1428574,-154.28572 0,-94.28571 5.7142857,-91.42857 z"
       id="area_1"
       inkscape:connector-curvature="0"
       inkscape:label="#path3043" />
    <path
       style="fill:none;stroke:#000000;stroke-width:1px;stroke-linecap:butt;stroke-linejoin:miter;stroke-opacity:1"
       d="M 765.71429,198.07647 800,206.6479 l 20,-14.28572 511.4286,2.85715 17.1428,-20 22.8572,25.71428 0,37.14286 0,20 -17.1429,5.71428 -2.8571,8.57143 17.1428,45.71429 22.8572,82.85714 -31.4286,71.42857 -2.8571,22.85715 -28.5715,8.57142 -48.5714,0 -465.71429,-8.57142 -51.42857,-2.85715 2.85715,-105.71428 8.57142,-91.42857 z"
       id="area_2"
       inkscape:connector-curvature="0"
       inkscape:label="#path3045" />
    <path
       style="fill:none;stroke:#000000;stroke-width:1px;stroke-linecap:butt;stroke-linejoin:miter;stroke-opacity:1"
       d="m 805.71429,572.36218 157.14285,0 L 980,566.6479 l 120,11.42857 185.7143,-2.85714 25.7143,0 8.5714,-2.85715 8.5714,237.14286 17.1429,60 -108.5714,-8.57143 -45.7143,-8.57143 -105.7143,2.85715 -151.42859,-2.85715 -57.14285,5.71429 -68.57143,-8.57143 -14.28572,-174.28571 z"
       id="area_3"
       inkscape:connector-curvature="0"
       inkscape:label="#path3047" />
    <flowRoot
       xml:space="preserve"
       id="navigation"
       style="font-size:40px;font-style:normal;font-weight:normal;line-height:125%;letter-spacing:0px;word-spacing:0px;fill:#000000;fill-opacity:1;stroke:none;font-family:Sans"
       inkscape:label="#flowRoot3049"><flowRegion
         id="flowRegion3051"><rect
           id="rect3053"
           width="300"
           height="125.71429"
           x="-557.14288"
           y="-139.06639" /></flowRegion><flowPara
         id="flowPara3055">1 2 3</flowPara></flowRoot>  </g>
</svg>
