<?xml version="1.0" encoding="UTF-8" standalone="no"?>
<!-- Created with Inkscape (http://www.inkscape.org/) -->

<svg
   xmlns:dc="http://purl.org/dc/elements/1.1/"
   xmlns:cc="http://creativecommons.org/ns#"
   xmlns:rdf="http://www.w3.org/1999/02/22-rdf-syntax-ns#"
   xmlns:svg="http://www.w3.org/2000/svg"
   xmlns="http://www.w3.org/2000/svg"
   xmlns:xlink="http://www.w3.org/1999/xlink"
   xmlns:sodipodi="http://sodipodi.sourceforge.net/DTD/sodipodi-0.dtd"
   xmlns:inkscape="http://www.inkscape.org/namespaces/inkscape"
   width="3000"
   height="2000"
   id="svg3057"
   version="1.1"
   inkscape:version="0.48.4 r9939"
   sodipodi:docname="New document 6">
  <defs
     id="defs3059" />
  <sodipodi:namedview
     id="base"
     pagecolor="#ffffff"
     bordercolor="#666666"
     borderopacity="1.0"
     inkscape:pageopacity="0.0"
     inkscape:pageshadow="2"
     inkscape:zoom="0.35"
     inkscape:cx="1500"
     inkscape:cy="1000"
     inkscape:document-units="px"
     inkscape:current-layer="layer1"
     showgrid="false"
     fit-margin-top="0"
     fit-margin-left="0"
     fit-margin-right="0"
     fit-margin-bottom="0"
     inkscape:window-width="1280"
     inkscape:window-height="962"
     inkscape:window-x="-8"
     inkscape:window-y="-8"
     inkscape:window-maximized="1" />
  <metadata
     id="metadata3062">
    <rdf:RDF>
      <cc:Work
         rdf:about="">
        <dc:format>image/svg+xml</dc:format>
        <dc:type
           rdf:resource="http://purl.org/dc/dcmitype/StillImage" />
        <dc:title></dc:title>
      </cc:Work>
    </rdf:RDF>
  </metadata>
  <g
     inkscape:label="Layer 1"
     inkscape:groupmode="layer"
     id="layer1"
     transform="translate(1125,467.63782)">
    <image
       y="-467.63782"
       x="-1125"
       id="image3073"
       xlink:href="file:///T:/SCRAN24/NEW%20PHOTOS%20FOR%20SCRAN/chocolate%20&amp;%20sweets/Gmnst.jpg"
       height="2000"
       width="3000" />
    <path
       style="fill:none;stroke:#000000;stroke-width:1px;stroke-linecap:butt;stroke-linejoin:miter;stroke-opacity:1"
       d="M 565.71428,491.42857 611.42857,474.28571 740,471.42857 791.42857,460 l 17.14286,0 97.14286,22.85714 L 1042.8571,454.28571 1228.5714,440 l 25.7143,14.28571 0,77.14286 -8.5714,85.71429 L 1240,660 l -5.7143,51.42857 2.8572,74.28572 -14.2858,85.71428 -14.2857,62.85714 14.2857,42.85715 -8.5714,57.14284 17.1429,125.7143 -48.5715,17.1429 -34.2857,28.5714 -342.85711,2.8571 -211.42858,17.1429 -77.14285,-31.4286 -42.85715,0 22.85715,-120 25.71428,-165.71427 2.85715,-125.71429 20,-151.42857 11.42857,-60 8.57143,-25.71428 -8.57143,-22.85715 z"
       id="area_1"
       inkscape:connector-curvature="0"
       transform="translate(-1125,-467.63782)"
       sodipodi:nodetypes="ccccccccccccccccccccccccccccccccc"
       inkscape:label="#path3076" />
    <path
       style="fill:none;stroke:#000000;stroke-width:1px;stroke-linecap:butt;stroke-linejoin:miter;stroke-opacity:1"
       d="m 1302.8571,511.42857 214.2858,40 31.4285,5.71429 34.2857,-20 162.8572,-11.42857 97.1428,-8.57143 8.5715,94.28571 -11.4286,114.28572 5.7143,80 14.2857,368.57141 -82.8571,-11.4286 -174.2858,0 -51.4285,-40 -80,45.7143 -20,2.8572 -102.8572,-14.2857 -65.7143,11.4285 2.8572,-71.4285 22.8571,-111.42861 0,-62.85715 L 1305.7143,780 l -14.2857,-108.57143 -2.8572,-60 z"
       id="area_2"
       inkscape:connector-curvature="0"
       transform="translate(-1125,-467.63782)"
       inkscape:label="#path3078" />
    <path
       style="fill:none;stroke:#000000;stroke-width:1px;stroke-linecap:butt;stroke-linejoin:miter;stroke-opacity:1"
       d="m 1945.7143,665.71429 51.4286,28.57142 85.7142,0 151.4286,5.71429 280,-2.85714 60,345.71424 -68.5714,2.8572 -91.4286,-20 -151.4286,0 -125.7142,0 -125.7143,-11.4286 -94.2857,-17.14284 -8.5715,-111.42857 L 1900,817.14286 1902.8571,742.85714 1931.4286,680 z"
       id="area_3"
       inkscape:connector-curvature="0"
       transform="translate(-1125,-467.63782)"
       inkscape:label="#path3080" />
    <flowRoot
       xml:space="preserve"
       id="navigation"
       style="font-size:40px;font-style:normal;font-weight:normal;line-height:125%;letter-spacing:0px;word-spacing:0px;fill:#000000;fill-opacity:1;stroke:none;font-family:Sans"
       transform="translate(-1125,-467.63782)"
       inkscape:label="#flowRoot3082"><flowRegion
         id="flowRegion3084"><rect
           id="rect3086"
           width="311.42856"
           height="114.28571"
           x="128.57143"
           y="177.14285" /></flowRegion><flowPara
         id="flowPara3088">1 2 3</flowPara></flowRoot>  </g>
</svg>
