<?xml version="1.0" encoding="UTF-8" standalone="no"?>
<!-- Created with Inkscape (http://www.inkscape.org/) -->

<svg
   xmlns:dc="http://purl.org/dc/elements/1.1/"
   xmlns:cc="http://creativecommons.org/ns#"
   xmlns:rdf="http://www.w3.org/1999/02/22-rdf-syntax-ns#"
   xmlns:svg="http://www.w3.org/2000/svg"
   xmlns="http://www.w3.org/2000/svg"
   xmlns:xlink="http://www.w3.org/1999/xlink"
   xmlns:sodipodi="http://sodipodi.sourceforge.net/DTD/sodipodi-0.dtd"
   xmlns:inkscape="http://www.inkscape.org/namespaces/inkscape"
   width="3000"
   height="2000"
   id="svg3146"
   version="1.1"
   inkscape:version="0.48.4 r9939"
   sodipodi:docname="New document 11">
  <defs
     id="defs3148" />
  <sodipodi:namedview
     id="base"
     pagecolor="#ffffff"
     bordercolor="#666666"
     borderopacity="1.0"
     inkscape:pageopacity="0.0"
     inkscape:pageshadow="2"
     inkscape:zoom="0.35"
     inkscape:cx="1693.6213"
     inkscape:cy="1114.2857"
     inkscape:document-units="px"
     inkscape:current-layer="layer1"
     showgrid="false"
     fit-margin-top="0"
     fit-margin-left="0"
     fit-margin-right="0"
     fit-margin-bottom="0"
     inkscape:window-width="1280"
     inkscape:window-height="962"
     inkscape:window-x="-8"
     inkscape:window-y="-8"
     inkscape:window-maximized="1" />
  <metadata
     id="metadata3151">
    <rdf:RDF>
      <cc:Work
         rdf:about="">
        <dc:format>image/svg+xml</dc:format>
        <dc:type
           rdf:resource="http://purl.org/dc/dcmitype/StillImage" />
        <dc:title></dc:title>
      </cc:Work>
    </rdf:RDF>
  </metadata>
  <g
     inkscape:label="Layer 1"
     inkscape:groupmode="layer"
     id="layer1"
     transform="translate(2197.1428,1267.6378)">
    <image
       y="-1267.6378"
       x="-2197.1428"
       id="image3162"
       xlink:href="file:///T:/SCRAN24/NEW%20PHOTOS%20FOR%20SCRAN/crisps/crisps/Gquav.jpg"
       height="2000"
       width="3000" />
    <path
       style="fill:none;stroke:#000000;stroke-width:1px;stroke-linecap:butt;stroke-linejoin:miter;stroke-opacity:1"
       d="M 420,357.14286 528.57143,365.71429 654.28571,380 l 122.85715,11.42857 125.71428,0 157.14286,14.28572 160,17.14285 -22.8571,42.85715 -17.1429,48.57142 0,51.42858 -74.2857,160 14.2857,122.85714 -8.5715,165.71427 34.2858,85.7143 37.1428,120 -111.4285,5.7143 L 868.57143,1214.2857 720,1220 660,1208.5714 634.28571,1220 485.71429,1168.5714 368.57143,1182.8571 257.14286,1168.5714 320,1114.2857 362.85714,1088.5714 351.42857,1037.1429 400,874.28571 422.85714,708.57143 414.28571,560 408.57143,420 z"
       id="area_1"
       inkscape:connector-curvature="0"
       transform="translate(-2197.1428,-1267.6378)"
       sodipodi:nodetypes="ccccccccccccccccccccccccccccccc"
       inkscape:label="#path3165" />
    <path
       style="fill:none;stroke:#000000;stroke-width:1px;stroke-linecap:butt;stroke-linejoin:miter;stroke-opacity:1"
       d="M 1185.7143,494.28571 1371.4286,480 l 242.8571,-5.71429 245.7143,0 2.8571,37.14286 -34.2857,151.42857 -2.8571,111.42857 0,97.14286 11.4286,114.28572 25.7142,111.42861 17.1429,57.1428 2.8571,42.8572 -148.5714,-8.5715 -191.4286,-22.8571 -128.5714,-28.5714 L 1320,1120 l -165.7143,20 -5.7143,-31.4286 40,-85.7143 37.1429,-197.14281 22.8571,-80 -34.2857,-88.57143 0,-74.28572 z"
       id="area_2"
       inkscape:connector-curvature="0"
       transform="translate(-2197.1428,-1267.6378)"
       inkscape:label="#path3167" />
    <path
       style="fill:none;stroke:#000000;stroke-width:1px;stroke-linecap:butt;stroke-linejoin:miter;stroke-opacity:1"
       d="M 1837.1429,508.57143 1960,522.85714 l 120,20 128.5714,2.85715 54.2857,-20 151.4286,-11.42858 60,-8.57142 57.1429,5.71428 82.8571,-11.42857 37.1429,-42.85714 17.1428,68.57143 42.8572,188.57142 -17.1429,25.71429 31.4286,37.14286 51.4286,274.28574 -28.5715,14.2857 -54.2857,-14.2857 -145.7143,2.8571 -271.4285,-17.1428 -100,0 -102.8572,28.5714 -171.4286,28.5714 -11.4285,-28.5714 -22.8572,-74.28573 0,-114.28571 -5.7143,-94.28572 -20,-82.85714 -8.5714,-68.57143 -2.8571,-74.28571 L 1820,525.71429 z"
       id="area_3"
       inkscape:connector-curvature="0"
       transform="translate(-2197.1428,-1267.6378)"
       inkscape:label="#path3169" />
    <flowRoot
       xml:space="preserve"
       id="navigation"
       style="font-size:40px;font-style:normal;font-weight:normal;line-height:125%;letter-spacing:0px;word-spacing:0px;fill:#000000;fill-opacity:1;stroke:none;font-family:Sans"
       transform="translate(-2197.1428,-1267.6378)"
       inkscape:label="#flowRoot3171"><flowRegion
         id="flowRegion3173"><rect
           id="rect3175"
           width="282.85715"
           height="71.428574"
           x="205.71428"
           y="114.28571" /></flowRegion><flowPara
         id="flowPara3177">1 2 3</flowPara></flowRoot>  </g>
</svg>
