<?xml version="1.0" encoding="UTF-8" standalone="no"?>
<!-- Created with Inkscape (http://www.inkscape.org/) -->

<svg
   xmlns:dc="http://purl.org/dc/elements/1.1/"
   xmlns:cc="http://creativecommons.org/ns#"
   xmlns:rdf="http://www.w3.org/1999/02/22-rdf-syntax-ns#"
   xmlns:svg="http://www.w3.org/2000/svg"
   xmlns="http://www.w3.org/2000/svg"
   xmlns:xlink="http://www.w3.org/1999/xlink"
   xmlns:sodipodi="http://sodipodi.sourceforge.net/DTD/sodipodi-0.dtd"
   xmlns:inkscape="http://www.inkscape.org/namespaces/inkscape"
   width="744.09448819"
   height="1052.3622047"
   id="svg3090"
   version="1.1"
   inkscape:version="0.91 r13725"
   sodipodi:docname="Gskit.svg">
  <defs
     id="defs3092" />
  <sodipodi:namedview
     id="base"
     pagecolor="#ffffff"
     bordercolor="#666666"
     borderopacity="1.0"
     inkscape:pageopacity="0.0"
     inkscape:pageshadow="2"
     inkscape:zoom="0.35"
     inkscape:cx="-42.142857"
     inkscape:cy="520"
     inkscape:document-units="px"
     inkscape:current-layer="layer1"
     showgrid="false"
     inkscape:window-width="2560"
     inkscape:window-height="1338"
     inkscape:window-x="0"
     inkscape:window-y="1"
     inkscape:window-maximized="1" />
  <metadata
     id="metadata3095">
    <rdf:RDF>
      <cc:Work
         rdf:about="">
        <dc:format>image/svg+xml</dc:format>
        <dc:type
           rdf:resource="http://purl.org/dc/dcmitype/StillImage" />
        <dc:title />
      </cc:Work>
    </rdf:RDF>
  </metadata>
  <g
     inkscape:label="Layer 1"
     inkscape:groupmode="layer"
     id="layer1">
    <image
       y="-247.63782"
       x="-817.14288"
       id="image3106"
       xlink:href="file:///T:/SCRAN24/NEW%20PHOTOS%20FOR%20SCRAN/chocolate%20&amp;%20sweets/Gskit.jpg"
       height="2000"
       width="3000" />
    <path
       style="fill:none;stroke:#000000;stroke-width:1px;stroke-linecap:butt;stroke-linejoin:miter;stroke-opacity:1"
       d="m -48.571429,235.21933 57.1428576,-2.85715 248.5714314,28.57143 20,-8.57143 22.85714,11.42857 74.28571,-25.71428 60,-28.57143 148.57143,5.71429 11.42857,22.85714 -8.57142,22.85714 -17.14286,85.71429 -5.71429,40 -5.71428,2.85714 -2.85715,88.57143 2.85715,102.85714 -11.42857,91.42857 -17.14286,114.28572 5.71428,162.85714 -48.57142,-14.28571 -62.85715,31.42857 -451.428569,-14.28572 -37.142857,-45.71428 -57.142854,0 34.285711,-288.57143 42.857143,-165.71429 z"
       id="area_1"
       inkscape:connector-curvature="0"
       sodipodi:nodetypes="cccccccccccccccccccccccccc"
       inkscape:label="#path3109" />
    <path
       style="fill:none;stroke:#000000;stroke-width:1px;stroke-linecap:butt;stroke-linejoin:miter;stroke-opacity:1"
       d="M 617.14286,292.36218 648.57143,289.50504 660,275.21933 l 85.71429,0 40,0 37.14285,11.42857 91.42857,-2.85715 391.42859,-8.57142 11.4286,-17.14286 62.8571,-2.85714 37.1429,300 -42.8572,-8.57143 -25.7143,8.57143 -548.5714,0 -22.85714,-5.71429 -94.28572,20 -40,-2.85714 -34.28571,-11.42857 z"
       id="area_2"
       inkscape:connector-curvature="0"
       inkscape:label="#path3111" />
    <path
       style="fill:none;stroke:#000000;stroke-width:1px;stroke-linecap:butt;stroke-linejoin:miter;stroke-opacity:1"
       d="m 777.14286,572.36218 65.71428,28.57143 334.28576,2.85714 54.2857,-25.71428 20,131.42857 17.1428,208.57143 -22.8571,5.71428 -68.5714,2.85715 L 802.85714,915.21933 765.71429,889.50504 780,815.21933 l -5.71429,-25.71429 22.85715,-137.14286 -20,-40 z"
       id="area_3"
       inkscape:connector-curvature="0"
       inkscape:label="#path3113" />
    <text
       xml:space="preserve"
       style="font-style:normal;font-weight:normal;font-size:40px;line-height:125%;font-family:Sans;letter-spacing:0px;word-spacing:0px;fill:#000000;fill-opacity:1;stroke:none"
       x="-691.42773"
       y="-53.481598"
       id="text4141"
       sodipodi:linespacing="125%"><tspan
         sodipodi:role="line"
         x="-691.42773"
         y="-53.481598"
         id="tspan4143"><tspan
           x="-691.42773"
           y="-53.481598"
           id="tspan4145">1 2 3</tspan></tspan></text>
  </g>
</svg>
