<?xml version="1.0" encoding="UTF-8" standalone="no"?>
<!-- Created with Inkscape (http://www.inkscape.org/) -->

<svg
   xmlns:dc="http://purl.org/dc/elements/1.1/"
   xmlns:cc="http://creativecommons.org/ns#"
   xmlns:rdf="http://www.w3.org/1999/02/22-rdf-syntax-ns#"
   xmlns:svg="http://www.w3.org/2000/svg"
   xmlns="http://www.w3.org/2000/svg"
   xmlns:xlink="http://www.w3.org/1999/xlink"
   xmlns:sodipodi="http://sodipodi.sourceforge.net/DTD/sodipodi-0.dtd"
   xmlns:inkscape="http://www.inkscape.org/namespaces/inkscape"
   width="3000"
   height="2000"
   id="svg3179"
   version="1.1"
   inkscape:version="0.91 r13725"
   sodipodi:docname="Gskps.svg">
  <defs
     id="defs3181" />
  <sodipodi:namedview
     id="base"
     pagecolor="#ffffff"
     bordercolor="#666666"
     borderopacity="1.0"
     inkscape:pageopacity="0.0"
     inkscape:pageshadow="2"
     inkscape:zoom="0.35"
     inkscape:cx="1276.4784"
     inkscape:cy="877.14285"
     inkscape:document-units="px"
     inkscape:current-layer="layer1"
     showgrid="false"
     fit-margin-top="0"
     fit-margin-left="0"
     fit-margin-right="0"
     fit-margin-bottom="0"
     inkscape:window-width="2560"
     inkscape:window-height="1338"
     inkscape:window-x="0"
     inkscape:window-y="1"
     inkscape:window-maximized="1" />
  <metadata
     id="metadata3184">
    <rdf:RDF>
      <cc:Work
         rdf:about="">
        <dc:format>image/svg+xml</dc:format>
        <dc:type
           rdf:resource="http://purl.org/dc/dcmitype/StillImage" />
        <dc:title />
      </cc:Work>
    </rdf:RDF>
  </metadata>
  <g
     inkscape:label="Layer 1"
     inkscape:groupmode="layer"
     id="layer1"
     transform="translate(1791.4286,933.35211)">
    <image
       y="-933.35211"
       x="-1791.4286"
       id="image3195"
       xlink:href="file:///T:/SCRAN24/NEW%20PHOTOS%20FOR%20SCRAN/crisps/crisps/Gskps.jpg"
       height="2000"
       width="3000" />
    <path
       style="fill:none;stroke:#000000;stroke-width:1px;stroke-linecap:butt;stroke-linejoin:miter;stroke-opacity:1"
       d="M 585.71429,382.85714 617.14286,420 700,420 797.14286,420 908.57143,414.28571 1020,402.85714 l 97.1429,-8.57143 65.7142,0 51.4286,0 28.5714,0 48.5715,0 -5.7143,42.85715 -42.8572,171.42857 -8.5714,62.85714 2.8572,94.28572 0,202.85714 11.4285,211.42857 14.2857,62.8571 -28.5714,8.5715 -108.5714,0 -140,-17.1429 -91.42859,-8.5714 -22.85714,-8.5714 -48.57143,11.4285 -11.42857,-28.5714 -28.57143,0 -51.42857,22.8571 -31.42857,2.8572 -60,5.7143 -48.57143,-5.7143 -57.14286,0 -60,20 -91.42857,-14.2857 25.71429,-34.2857 20,-45.7143 28.57143,-108.5715 L 491.42857,922.85714 514.28571,808.57143 537.14286,740 l 14.28571,-28.57143 -8.57143,-48.57143 8.57143,-91.42857 2.85714,-88.57143 0,-71.42857 0,-17.14286 z"
       id="area_1"
       inkscape:connector-curvature="0"
       transform="translate(-1791.4286,-933.35211)"
       sodipodi:nodetypes="cccccccccccccccccccccccccccccccccccccccccccccc"
       inkscape:label="#path3198" />
    <path
       style="fill:none;stroke:#000000;stroke-width:1px;stroke-linecap:butt;stroke-linejoin:miter;stroke-opacity:1"
       d="m 1288.5714,517.14286 108.5715,0 128.5714,0 68.5714,0 51.4286,-8.57143 68.5714,14.28571 85.7143,2.85715 40,-8.57143 45.7143,14.28571 -25.7143,105.71429 -22.8571,120 -2.8572,51.42857 17.1429,117.14286 20,94.28571 -2.8572,40 48.5715,134.2857 -105.7143,0 -108.5715,0 -71.4285,-5.7143 -17.1429,-34.2857 -22.8571,-11.4286 -20,22.8572 -22.8572,22.8571 -97.1428,17.1429 -160,40 -5.7143,-34.2857 2.8571,-57.1429 20,-148.5714 5.7143,-111.42859 -8.5714,-97.14285 -2.8572,-145.71429 z"
       id="area_2"
       inkscape:connector-curvature="0"
       transform="translate(-1791.4286,-933.35211)"
       inkscape:label="#path3200" />
    <path
       style="fill:none;stroke:#000000;stroke-width:1px;stroke-linecap:butt;stroke-linejoin:miter;stroke-opacity:1"
       d="m 1897.1429,500 2.8571,48.57143 17.1429,108.57143 17.1428,114.28571 8.5714,34.28572 0,131.42857 0,177.14284 -17.1428,91.4286 211.4286,11.4286 71.4285,-22.8572 57.1429,22.8572 17.1428,-14.2858 65.7143,11.4286 142.8572,-54.2857 97.1428,37.1429 8.5715,-68.5715 L 2474.2857,920 l 0,-82.85714 -14.2857,-100 -11.4286,-74.28572 L 2494.2857,540 2480,500 2405.7143,522.85714 2340,528.57143 2282.8571,517.14286 2188.5714,540 2117.1429,497.14286 z"
       id="area_3"
       inkscape:connector-curvature="0"
       transform="translate(-1791.4286,-933.35211)"
       inkscape:label="#path3206" />
    <text
       xml:space="preserve"
       style="font-style:normal;font-weight:normal;font-size:40px;line-height:125%;font-family:Sans;letter-spacing:0px;word-spacing:0px;fill:#000000;fill-opacity:1;stroke:none"
       x="-1682.8563"
       y="-796.33954"
       id="navigation"
       sodipodi:linespacing="125%"
       inkscape:label="#text4141"><tspan
         sodipodi:role="line"
         x="-1682.8563"
         y="-796.33954"
         id="tspan4143"><tspan
           x="-1682.8563"
           y="-796.33954"
           id="tspan4145">1 2 3</tspan></tspan></text>
  </g>
</svg>
