<?xml version="1.0" encoding="UTF-8" standalone="no"?>
<!-- Created with Inkscape (http://www.inkscape.org/) -->

<svg
   xmlns:dc="http://purl.org/dc/elements/1.1/"
   xmlns:cc="http://creativecommons.org/ns#"
   xmlns:rdf="http://www.w3.org/1999/02/22-rdf-syntax-ns#"
   xmlns:svg="http://www.w3.org/2000/svg"
   xmlns="http://www.w3.org/2000/svg"
   xmlns:xlink="http://www.w3.org/1999/xlink"
   xmlns:sodipodi="http://sodipodi.sourceforge.net/DTD/sodipodi-0.dtd"
   xmlns:inkscape="http://www.inkscape.org/namespaces/inkscape"
   width="3000"
   height="2000"
   id="svg3123"
   version="1.1"
   inkscape:version="0.48.4 r9939"
   sodipodi:docname="New document 10">
  <defs
     id="defs3125" />
  <sodipodi:namedview
     id="base"
     pagecolor="#ffffff"
     bordercolor="#666666"
     borderopacity="1.0"
     inkscape:pageopacity="0.0"
     inkscape:pageshadow="2"
     inkscape:zoom="0.35"
     inkscape:cx="1500"
     inkscape:cy="1000"
     inkscape:document-units="px"
     inkscape:current-layer="layer1"
     showgrid="false"
     fit-margin-top="0"
     fit-margin-left="0"
     fit-margin-right="0"
     fit-margin-bottom="0"
     inkscape:window-width="1280"
     inkscape:window-height="962"
     inkscape:window-x="-8"
     inkscape:window-y="-8"
     inkscape:window-maximized="1" />
  <metadata
     id="metadata3128">
    <rdf:RDF>
      <cc:Work
         rdf:about="">
        <dc:format>image/svg+xml</dc:format>
        <dc:type
           rdf:resource="http://purl.org/dc/dcmitype/StillImage" />
        <dc:title></dc:title>
      </cc:Work>
    </rdf:RDF>
  </metadata>
  <g
     inkscape:label="Layer 1"
     inkscape:groupmode="layer"
     id="layer1"
     transform="translate(1125,467.63782)">
    <image
       y="-467.63782"
       x="-1125"
       id="image3139"
       xlink:href="file:///T:/SCRAN24/NEW%20PHOTOS%20FOR%20SCRAN/chocolate%20&amp;%20sweets/Gsnck.jpg"
       height="2000"
       width="3000" />
    <path
       style="fill:none;stroke:#000000;stroke-width:1px;stroke-linecap:butt;stroke-linejoin:miter;stroke-opacity:1"
       d="m 1080,462.85714 c 22.8571,0 605.7143,5.71429 605.7143,5.71429 l 171.4286,-2.85714 125.7142,-8.57143 28.5715,-28.57143 20,20 -11.4286,48.57143 34.2857,80 -100,65.71428 -40,5.71429 -188.5714,0 -428.5714,-2.85714 -137.1429,0 -108.5714,0 -20,-17.14286 -2.8572,8.57143 -22.8571,-40 5.7143,-68.57143 -14.28574,-31.42857 17.14284,-42.85715 34.2857,31.42858 z"
       id="area_1"
       inkscape:connector-curvature="0"
       transform="translate(-1125,-467.63782)"
       inkscape:label="#path3142" />
    <path
       style="fill:none;stroke:#000000;stroke-width:1px;stroke-linecap:butt;stroke-linejoin:miter;stroke-opacity:1"
       d="m 1171.4286,648.57143 57.1428,17.14286 71.4286,0 522.8571,5.71428 45.7143,0 34.2857,-20 8.5715,42.85714 20,48.57143 -11.4286,88.57143 -34.2857,5.71429 -20,-17.14286 -91.4286,28.57143 L 1260,842.85714 1231.4286,834.28571 1180,842.85714 1140,800 l 3.0268,-94.84349 z"
       id="area_2"
       inkscape:connector-curvature="0"
       transform="translate(-1125,-467.63782)"
       sodipodi:nodetypes="cccccccccccccccccc"
       inkscape:label="#path3144" />
    <path
       style="fill:none;stroke:#000000;stroke-width:1px;stroke-linecap:butt;stroke-linejoin:miter;stroke-opacity:1"
       d="m 1242.8571,934.28571 42.8572,-22.85714 11.4286,2.85714 425.7142,-5.71428 62.8572,14.28571 45.7143,-14.28571 20,31.42857 20,0 -8.5715,28.57143 -14.2857,5.71428 14.2857,94.28569 -14.2857,17.1429 -31.4285,2.8571 -11.4286,-2.8571 -22.8572,-17.1429 -20,22.8572 -160,0 -180,-2.8572 -111.4285,-8.5714 -22.8572,-14.2857 -54.2857,14.2857 2.8572,-57.1429 20,-51.42853 -28.5715,-34.28571 z"
       id="area_3"
       inkscape:connector-curvature="0"
       transform="translate(-1125,-467.63782)"
       inkscape:label="#path3146" />
    <path
       style="fill:none;stroke:#000000;stroke-width:1px;stroke-linecap:butt;stroke-linejoin:miter;stroke-opacity:1"
       d="m 1408.5714,1165.7143 45.7143,-40 188.5714,5.7143 11.4286,-8.5715 31.4286,17.1429 11.4286,-17.1429 17.1428,77.1429 -28.5714,28.5714 -17.1429,31.4286 -14.2857,-20 -20,11.4286 -180,2.8571 -40,-40 0,-20 -31.4286,45.7143 2.8572,11.4286 -40,-17.1429 -45.7143,0 -11.4286,-17.1428 22.8572,0 -17.1429,-54.2858 42.8572,-8.5714 34.2857,8.5714 z"
       id="area_4"
       inkscape:connector-curvature="0"
       transform="translate(-1125,-467.63782)"
       inkscape:label="#path3148" />
    <flowRoot
       xml:space="preserve"
       id="navigation"
       style="font-size:40px;font-style:normal;font-weight:normal;line-height:125%;letter-spacing:0px;word-spacing:0px;fill:#000000;fill-opacity:1;stroke:none;font-family:Sans"
       transform="translate(-1125,-467.63782)"
       inkscape:label="#flowRoot3150"><flowRegion
         id="flowRegion3152"><rect
           id="rect3154"
           width="334.28571"
           height="97.14286"
           x="208.57143"
           y="137.14285" /></flowRegion><flowPara
         id="flowPara3156">1 2 3 4</flowPara></flowRoot>  </g>
</svg>
