<?xml version="1.0" encoding="UTF-8" standalone="no"?>
<!-- Created with Inkscape (http://www.inkscape.org/) -->

<svg
   xmlns:dc="http://purl.org/dc/elements/1.1/"
   xmlns:cc="http://creativecommons.org/ns#"
   xmlns:rdf="http://www.w3.org/1999/02/22-rdf-syntax-ns#"
   xmlns:svg="http://www.w3.org/2000/svg"
   xmlns="http://www.w3.org/2000/svg"
   xmlns:xlink="http://www.w3.org/1999/xlink"
   xmlns:sodipodi="http://sodipodi.sourceforge.net/DTD/sodipodi-0.dtd"
   xmlns:inkscape="http://www.inkscape.org/namespaces/inkscape"
   width="3000"
   height="2000"
   id="svg3216"
   version="1.1"
   inkscape:version="0.91 r13725"
   sodipodi:docname="Gsqrs.svg">
  <defs
     id="defs3218" />
  <sodipodi:namedview
     id="base"
     pagecolor="#ffffff"
     bordercolor="#666666"
     borderopacity="1.0"
     inkscape:pageopacity="0.0"
     inkscape:pageshadow="2"
     inkscape:zoom="0.35"
     inkscape:cx="1082.8571"
     inkscape:cy="1000"
     inkscape:document-units="px"
     inkscape:current-layer="layer1"
     showgrid="false"
     fit-margin-top="0"
     fit-margin-left="0"
     fit-margin-right="0"
     fit-margin-bottom="0"
     inkscape:window-width="2560"
     inkscape:window-height="1338"
     inkscape:window-x="0"
     inkscape:window-y="1"
     inkscape:window-maximized="1" />
  <metadata
     id="metadata3221">
    <rdf:RDF>
      <cc:Work
         rdf:about="">
        <dc:format>image/svg+xml</dc:format>
        <dc:type
           rdf:resource="http://purl.org/dc/dcmitype/StillImage" />
        <dc:title />
      </cc:Work>
    </rdf:RDF>
  </metadata>
  <g
     inkscape:label="Layer 1"
     inkscape:groupmode="layer"
     id="layer1"
     transform="translate(1125,467.63782)">
    <image
       y="-467.63782"
       x="-1125"
       id="image3232"
       xlink:href="file:///T:/SCRAN24/NEW%20PHOTOS%20FOR%20SCRAN/crisps/crisps/Gsqrs.jpg"
       height="2000"
       width="3000" />
    <path
       style="fill:none;stroke:#000000;stroke-width:1px;stroke-linecap:butt;stroke-linejoin:miter;stroke-opacity:1"
       d="M 751.42857,525.71429 840,520 l 148.57143,-5.71428 157.14287,-10e-6 137.1428,2.85715 L 1380,520 l 0,45.71429 -31.4286,20 -14.2857,40 0,57.14285 2.8572,62.85715 -14.2858,34.28571 22.8572,45.71429 8.5714,37.14285 0,85.71429 5.7143,122.85717 51.4286,45.7143 2.8571,34.2857 -120,11.4285 -177.1428,5.7143 -160.00004,25.7143 -248.57143,20 0,-31.4286 37.14286,-140 20,-97.14281 0,-111.42858 0,-74.28571 -22.85715,-151.42857 0,-54.28572 z"
       id="area_1"
       inkscape:connector-curvature="0"
       transform="translate(-1125,-467.63782)"
       sodipodi:nodetypes="cccccccccccccccccccccccccccccc"
       inkscape:label="#path3235" />
    <path
       style="fill:none;stroke:#000000;stroke-width:1px;stroke-linecap:butt;stroke-linejoin:miter;stroke-opacity:1"
       d="m 1517.1429,577.14286 31.4285,-5.71429 40,5.71429 54.2857,5.71428 45.7143,20 74.2857,-17.14285 45.7143,14.28571 80,-5.71429 165.7143,2.85715 100,8.57143 14.2857,-14.28572 57.1429,5.71429 20,-22.85715 14.2857,74.28572 0,102.85714 -11.4286,80 -31.4285,54.28572 31.4285,37.14285 11.4286,48.57143 -2.8571,25.71429 37.1428,74.28574 -5.7143,14.2857 -80,-8.5714 -45.7143,-8.5715 -34.2857,-5.7143 -40,2.8572 -42.8571,-2.8572 -117.1429,11.4286 -177.1428,-17.1428 -74.2857,-14.2858 -57.1429,25.7143 -74.2857,11.4286 -60,-8.5714 11.4286,-171.4286 8.5714,-134.28571 11.4286,-131.42858 z"
       id="area_2"
       inkscape:connector-curvature="0"
       transform="translate(-1125,-467.63782)"
       inkscape:label="#path3237" />
    <text
       xml:space="preserve"
       style="font-style:normal;font-weight:normal;font-size:40px;line-height:125%;font-family:Sans;letter-spacing:0px;word-spacing:0px;fill:#000000;fill-opacity:1;stroke:none"
       x="-1036.4277"
       y="-264.91043"
       id="navigation"
       sodipodi:linespacing="125%"
       inkscape:label="#text4140"><tspan
         sodipodi:role="line"
         x="-1036.4277"
         y="-264.91043"
         id="tspan4142"><tspan
           x="-1036.4277"
           y="-264.91043"
           id="tspan4144">1 2</tspan></tspan></text>
  </g>
</svg>
