<?xml version="1.0" encoding="UTF-8" standalone="no"?>
<!-- Created with Inkscape (http://www.inkscape.org/) -->

<svg
   xmlns:dc="http://purl.org/dc/elements/1.1/"
   xmlns:cc="http://creativecommons.org/ns#"
   xmlns:rdf="http://www.w3.org/1999/02/22-rdf-syntax-ns#"
   xmlns:svg="http://www.w3.org/2000/svg"
   xmlns="http://www.w3.org/2000/svg"
   xmlns:xlink="http://www.w3.org/1999/xlink"
   xmlns:sodipodi="http://sodipodi.sourceforge.net/DTD/sodipodi-0.dtd"
   xmlns:inkscape="http://www.inkscape.org/namespaces/inkscape"
   width="3000"
   height="2000"
   id="svg3158"
   version="1.1"
   inkscape:version="0.91 r13725"
   sodipodi:docname="Gswts.svg">
  <defs
     id="defs3160" />
  <sodipodi:namedview
     id="base"
     pagecolor="#ffffff"
     bordercolor="#666666"
     borderopacity="1.0"
     inkscape:pageopacity="0.0"
     inkscape:pageshadow="2"
     inkscape:zoom="0.35"
     inkscape:cx="1243.5216"
     inkscape:cy="897.14288"
     inkscape:document-units="px"
     inkscape:current-layer="layer1"
     showgrid="false"
     fit-margin-top="0"
     fit-margin-left="0"
     fit-margin-right="0"
     fit-margin-bottom="0"
     inkscape:window-width="2560"
     inkscape:window-height="1338"
     inkscape:window-x="0"
     inkscape:window-y="1"
     inkscape:window-maximized="1" />
  <metadata
     id="metadata3163">
    <rdf:RDF>
      <cc:Work
         rdf:about="">
        <dc:format>image/svg+xml</dc:format>
        <dc:type
           rdf:resource="http://purl.org/dc/dcmitype/StillImage" />
        <dc:title />
      </cc:Work>
    </rdf:RDF>
  </metadata>
  <g
     inkscape:label="Layer 1"
     inkscape:groupmode="layer"
     id="layer1"
     transform="translate(934.28571,570.49493)">
    <image
       y="-570.49493"
       x="-934.28571"
       id="image3174"
       xlink:href="file:///T:/SCRAN24/NEW%20PHOTOS%20FOR%20SCRAN/chocolate%20&amp;%20sweets/Gswts.jpg"
       height="2000"
       width="3000" />
    <path
       style="fill:none;stroke:#000000;stroke-width:1px;stroke-linecap:butt;stroke-linejoin:miter;stroke-opacity:1"
       d="m 791.42857,560 80,2.85714 51.42857,42.85715 -28.57143,465.71431 -31.42857,45.7143 -80,2.8571 -60,-42.8571 40,-465.71433 z"
       id="area_1"
       inkscape:connector-curvature="0"
       transform="translate(-934.28571,-570.49493)"
       inkscape:label="#path3177" />
    <path
       style="fill:none;stroke:#000000;stroke-width:1px;stroke-linecap:butt;stroke-linejoin:miter;stroke-opacity:1"
       d="m 1042.8571,568.57143 31.4286,-22.85714 28.5714,-2.85715 42.8572,8.57143 L 1160,580 l -14.2857,542.8571 -17.1429,37.1429 -34.2857,0 -51.4286,-14.2857 -17.1428,-20 0,-25.7143 z"
       id="area_2"
       inkscape:connector-curvature="0"
       transform="translate(-934.28571,-570.49493)"
       inkscape:label="#path3179" />
    <path
       style="fill:none;stroke:#000000;stroke-width:1px;stroke-linecap:butt;stroke-linejoin:miter;stroke-opacity:1"
       d="m 1282.8571,585.71429 -5.7142,25.71428 11.4285,462.85713 14.2857,37.1429 -22.8571,31.4285 -14.2857,71.4286 51.4286,8.5714 25.7142,14.2858 28.5715,-2.8572 45.7143,-28.5714 -42.8572,-91.4286 28.5714,-20 -11.4285,-477.14284 -11.4286,-54.28572 -34.2857,-11.42857 11.4286,-60 -40,0 -5.7143,-14.28571 -20,31.42857 -25.7143,40 0,0"
       id="area_3"
       inkscape:connector-curvature="0"
       transform="translate(-934.28571,-570.49493)"
       inkscape:label="#path3181" />
    <path
       style="fill:none;stroke:#000000;stroke-width:1px;stroke-linecap:butt;stroke-linejoin:miter;stroke-opacity:1"
       d="m 1522.8571,588.57143 17.1429,-40 28.5714,-8.57143 37.1429,2.85714 22.8571,28.57143 31.4286,542.85713 -22.8571,28.5714 -45.7143,5.7143 -28.5715,-14.2857 -22.8571,-20 -2.8571,-20 z"
       id="area_4"
       inkscape:connector-curvature="0"
       transform="translate(-934.28571,-570.49493)"
       sodipodi:nodetypes="cccccccccccc"
       inkscape:label="#path3183" />
    <path
       style="fill:none;stroke:#000000;stroke-width:1px;stroke-linecap:butt;stroke-linejoin:miter;stroke-opacity:1"
       d="M 1751.4286,500 1860,534.28571 l 11.4286,237.14286 25.7143,265.71433 5.7142,25.7142 -5.7142,54.2858 22.8571,20 -114.2857,11.4285 -31.4286,-20 0,-40 L 1740,640 l 2.8571,-94.28571 -11.4285,-17.14286 z"
       id="area_5"
       inkscape:connector-curvature="0"
       transform="translate(-934.28571,-570.49493)"
       inkscape:label="#path3185" />
    <path
       style="fill:none;stroke:#000000;stroke-width:1px;stroke-linecap:butt;stroke-linejoin:miter;stroke-opacity:1"
       d="m 2022.8571,671.42857 280,0 14.2858,122.85714 -20,48.57143 -271.4286,-8.57143 -11.4286,-22.85714 -5.7143,-105.71428 z"
       id="area_6"
       inkscape:connector-curvature="0"
       transform="translate(-934.28571,-570.49493)"
       inkscape:label="#path3187" />
    <path
       style="fill:none;stroke:#000000;stroke-width:1px;stroke-linecap:butt;stroke-linejoin:miter;stroke-opacity:1"
       d="M 2045.7143,902.85714 2300,897.14286 l 48.5714,17.14285 -2.8571,22.85715 37.1428,25.71428 5.7143,17.14286 -5.7143,17.14286 -28.5714,-28.57143 -25.7143,0 -17.1428,28.57143 -265.7143,17.14284 -11.4286,-34.2857 -31.4286,17.14286 -25.7142,5.71424 -14.2858,-39.99996 11.4286,-20 28.5714,0 L 2020,940 l 8.5714,-5.71429 z"
       id="area_7"
       inkscape:connector-curvature="0"
       transform="translate(-934.28571,-570.49493)"
       sodipodi:nodetypes="cccccccccccccccccccc"
       inkscape:label="#path3189" />
    <text
       xml:space="preserve"
       style="font-style:normal;font-weight:normal;font-size:40px;line-height:125%;font-family:Sans;letter-spacing:0px;word-spacing:0px;fill:#000000;fill-opacity:1;stroke:none"
       x="-780.00055"
       y="-376.33981"
       id="navigation"
       sodipodi:linespacing="125%"
       inkscape:label="#text4145"><tspan
         sodipodi:role="line"
         x="-780.00055"
         y="-376.33981"
         id="tspan4147"><tspan
           x="-780.00055"
           y="-376.33981"
           id="tspan4149">1 2 3 4 5 6 7</tspan></tspan></text>
  </g>
</svg>
