<?xml version="1.0" encoding="UTF-8" standalone="no"?>
<!-- Created with Inkscape (http://www.inkscape.org/) -->

<svg
   xmlns:dc="http://purl.org/dc/elements/1.1/"
   xmlns:cc="http://creativecommons.org/ns#"
   xmlns:rdf="http://www.w3.org/1999/02/22-rdf-syntax-ns#"
   xmlns:svg="http://www.w3.org/2000/svg"
   xmlns="http://www.w3.org/2000/svg"
   xmlns:xlink="http://www.w3.org/1999/xlink"
   xmlns:sodipodi="http://sodipodi.sourceforge.net/DTD/sodipodi-0.dtd"
   xmlns:inkscape="http://www.inkscape.org/namespaces/inkscape"
   width="3000"
   height="2000"
   id="svg3199"
   version="1.1"
   inkscape:version="0.91 r13725"
   sodipodi:docname="Gtwfk.svg">
  <defs
     id="defs3201" />
  <sodipodi:namedview
     id="base"
     pagecolor="#ffffff"
     bordercolor="#666666"
     borderopacity="1.0"
     inkscape:pageopacity="0.0"
     inkscape:pageshadow="2"
     inkscape:zoom="0.35"
     inkscape:cx="1128.1727"
     inkscape:cy="885.71429"
     inkscape:document-units="px"
     inkscape:current-layer="layer1"
     showgrid="false"
     fit-margin-top="0"
     fit-margin-left="0"
     fit-margin-right="0"
     fit-margin-bottom="0"
     inkscape:window-width="2560"
     inkscape:window-height="1338"
     inkscape:window-x="0"
     inkscape:window-y="1"
     inkscape:window-maximized="1" />
  <metadata
     id="metadata3204">
    <rdf:RDF>
      <cc:Work
         rdf:about="">
        <dc:format>image/svg+xml</dc:format>
        <dc:type
           rdf:resource="http://purl.org/dc/dcmitype/StillImage" />
        <dc:title />
      </cc:Work>
    </rdf:RDF>
  </metadata>
  <g
     inkscape:label="Layer 1"
     inkscape:groupmode="layer"
     id="layer1"
     transform="translate(1931.4286,581.92352)">
    <image
       y="-581.92352"
       x="-1931.4286"
       id="image3215"
       xlink:href="file:///T:/SCRAN24/NEW%20PHOTOS%20FOR%20SCRAN/chocolate%20&amp;%20sweets/Gtwfk.jpg"
       height="2000"
       width="3000" />
    <path
       style="fill:none;stroke:#000000;stroke-width:1px;stroke-linecap:butt;stroke-linejoin:miter;stroke-opacity:1"
       d="m 694.28571,497.14286 28.57143,-42.85715 60,-28.57142 17.14286,31.42857 -5.71429,45.71428 11.42858,5.71429 34.28571,-40 177.1429,0 288.5714,2.85714 280,2.85714 40,2.85715 31.4286,45.71428 65.7142,5.71429 L 1711.4286,540 1722.8571,565.71429 1708.5714,600 l -17.1428,17.14286 -31.4286,0 -5.7143,-20 -11.4286,-25.71429 -8.5714,-11.42857 -11.4286,25.71429 -14.2857,11.42857 -60,0 -65.7143,14.28571 -97.1428,2.85714 L 1060,608.57143 840,597.14286 l -22.85714,-20 -40,-48.57143 -68.57143,25.71428 -14.28572,-31.42857 z"
       id="area_1"
       inkscape:connector-curvature="0"
       transform="translate(-1931.4286,-581.92352)"
       inkscape:label="#path3218" />
    <path
       style="fill:none;stroke:#000000;stroke-width:1px;stroke-linecap:butt;stroke-linejoin:miter;stroke-opacity:1"
       d="m 1811.4286,460 97.1428,2.85714 114.2857,2.85715 185.7143,-11.42858 77.1429,-2.85714 51.4286,5.71429 5.7142,17.14285 -8.5714,11.42858 -28.5714,40 -17.1429,31.42857 0,54.28571 -17.1428,0 -22.8572,-20 -128.5714,0 -180,0 -120,17.14286 z"
       id="area_2"
       inkscape:connector-curvature="0"
       transform="translate(-1931.4286,-581.92352)"
       inkscape:label="#path3220" />
    <path
       style="fill:none;stroke:#000000;stroke-width:1px;stroke-linecap:butt;stroke-linejoin:miter;stroke-opacity:1"
       d="m 771.42857,694.28571 45.71429,17.14286 37.14285,2.85714 68.57143,0 102.85716,0 151.4286,-2.85714 168.5714,0 125.7143,0 60,-5.71428 34.2857,-20 17.1428,34.28571 0,134.28571 -60,62.85715 -77.1428,-25.71429 -71.4286,20 -642.85713,25.71429 22.85714,-171.42857 z"
       id="area_3"
       inkscape:connector-curvature="0"
       transform="translate(-1931.4286,-581.92352)"
       inkscape:label="#path3222" />
    <path
       style="fill:none;stroke:#000000;stroke-width:1px;stroke-linecap:butt;stroke-linejoin:miter;stroke-opacity:1"
       d="M 745.71429,1054.2857 820,1040 l 40,14.2857 660,-28.5714 48.5714,-37.14287 22.8572,31.42857 11.4285,-8.5714 2.8572,120 -45.7143,25.7143 -71.4286,-14.2858 -634.28569,25.7143 -8.57142,-11.4285 -17.14286,11.4285 L 740,1177.1429 z"
       id="area_5"
       inkscape:connector-curvature="0"
       transform="translate(-1931.4286,-581.92352)"
       inkscape:label="#path3224" />
    <path
       style="fill:none;stroke:#000000;stroke-width:1px;stroke-linecap:butt;stroke-linejoin:miter;stroke-opacity:1"
       d="m 1768.5714,997.14286 25.7143,-11.42857 25.7143,48.57141 77.1429,-17.1428 100,0 28.5714,-31.42861 60,-25.71429 14.2857,145.7143 -28.5714,28.5714 -62.8572,-8.5714 L 1822.8571,1140 1780,1171.4286 z"
       id="area_6"
       inkscape:connector-curvature="0"
       transform="translate(-1931.4286,-581.92352)"
       inkscape:label="#path3226" />
    <path
       style="fill:none;stroke:#000000;stroke-width:1px;stroke-linecap:butt;stroke-linejoin:miter;stroke-opacity:1"
       d="m 1665.7143,682.85714 54.2857,8.57143 51.4286,5.71429 437.1428,2.85714 165.7143,-20 -28.5714,60 20,17.14286 25.7143,148.57143 -42.8572,20 -42.8571,-11.42858 -20,-17.14285 -248.5714,20 -205.7143,-2.85715 -17.1429,17.14286 L 1682.8571,920 l -5.7142,2.85714 -2.8572,-77.14285 L 1680,780 z"
       id="area_4"
       inkscape:connector-curvature="0"
       transform="translate(-1931.4286,-581.92352)"
       inkscape:label="#path3228" />
    <text
       xml:space="preserve"
       style="font-style:normal;font-weight:normal;font-size:40px;line-height:125%;font-family:Sans;letter-spacing:0px;word-spacing:0px;fill:#000000;fill-opacity:1;stroke:none"
       x="-1774.286"
       y="-402.05356"
       id="navigation"
       sodipodi:linespacing="125%"
       inkscape:label="#text4144"><tspan
         sodipodi:role="line"
         x="-1774.286"
         y="-402.05356"
         id="tspan4146"><tspan
           x="-1774.286"
           y="-402.05356"
           id="tspan4148">1 2 3 4 5 6</tspan></tspan></text>
  </g>
</svg>
