<?xml version="1.0" encoding="UTF-8" standalone="no"?>
<!-- Created with Inkscape (http://www.inkscape.org/) -->

<svg
   xmlns:dc="http://purl.org/dc/elements/1.1/"
   xmlns:cc="http://creativecommons.org/ns#"
   xmlns:rdf="http://www.w3.org/1999/02/22-rdf-syntax-ns#"
   xmlns:svg="http://www.w3.org/2000/svg"
   xmlns="http://www.w3.org/2000/svg"
   xmlns:xlink="http://www.w3.org/1999/xlink"
   xmlns:sodipodi="http://sodipodi.sourceforge.net/DTD/sodipodi-0.dtd"
   xmlns:inkscape="http://www.inkscape.org/namespaces/inkscape"
   width="3000"
   height="2000"
   id="svg3238"
   version="1.1"
   inkscape:version="0.91 r13725"
   sodipodi:docname="Gtwix.svg">
  <defs
     id="defs3240" />
  <sodipodi:namedview
     id="base"
     pagecolor="#ffffff"
     bordercolor="#666666"
     borderopacity="1.0"
     inkscape:pageopacity="0.0"
     inkscape:pageshadow="2"
     inkscape:zoom="0.35"
     inkscape:cx="1746.4285"
     inkscape:cy="859.99995"
     inkscape:document-units="px"
     inkscape:current-layer="layer1"
     showgrid="false"
     fit-margin-top="0"
     fit-margin-left="0"
     fit-margin-right="0"
     fit-margin-bottom="0"
     inkscape:window-width="2560"
     inkscape:window-height="1338"
     inkscape:window-x="0"
     inkscape:window-y="1"
     inkscape:window-maximized="1" />
  <metadata
     id="metadata3243">
    <rdf:RDF>
      <cc:Work
         rdf:about="">
        <dc:format>image/svg+xml</dc:format>
        <dc:type
           rdf:resource="http://purl.org/dc/dcmitype/StillImage" />
        <dc:title />
      </cc:Work>
    </rdf:RDF>
  </metadata>
  <g
     inkscape:label="Layer 1"
     inkscape:groupmode="layer"
     id="layer1"
     transform="translate(1788.5714,1521.9236)">
    <image
       y="-1521.9236"
       x="-1788.5714"
       id="image3254"
       xlink:href="file:///T:/SCRAN24/NEW%20PHOTOS%20FOR%20SCRAN/chocolate%20&amp;%20sweets/Gtwix.jpg"
       height="2000"
       width="3000" />
    <path
       style="fill:none;stroke:#000000;stroke-width:1px;stroke-linecap:butt;stroke-linejoin:miter;stroke-opacity:1"
       d="m 1045.7143,451.42857 31.4286,34.28572 45.7142,-8.57143 31.4286,0 348.5714,8.57143 202.8572,5.71428 137.1428,-8.57143 71.4286,5.71429 37.1429,-11.42857 14.2857,-37.14286 28.5714,25.71429 22.8572,51.42857 2.8571,68.57143 -28.5714,88.57142 -71.4286,17.14286 -65.7143,0 -117.1428,0 -394.2858,-8.57143 -277.1428,-11.42857 -48.5714,-40 25.7142,-22.85714 -20,-85.71429 0,-31.42857 8.5715,-2.85714 z"
       id="area_1"
       inkscape:connector-curvature="0"
       transform="translate(-1788.5714,-1521.9236)"
       inkscape:label="#path3257" />
    <path
       style="fill:none;stroke:#000000;stroke-width:1px;stroke-linecap:butt;stroke-linejoin:miter;stroke-opacity:1"
       d="m 1145.7143,697.14286 51.4286,28.57143 37.1428,-2.85715 451.4286,5.71429 140,-8.57143 57.1428,0 -17.1428,42.85714 20,-11.42857 -22.8572,111.42857 L 1880,868.57143 1845.7143,920 l 8.5714,28.57143 -51.4286,0 -608.5714,-5.71429 -40,8.57143 -25.7143,-80 0,-65.71428 -5.7143,-62.85715 z"
       id="area_2"
       inkscape:connector-curvature="0"
       transform="translate(-1788.5714,-1521.9236)"
       inkscape:label="#path3259" />
    <path
       style="fill:none;stroke:#000000;stroke-width:1px;stroke-linecap:butt;stroke-linejoin:miter;stroke-opacity:1"
       d="m 1208.5714,1025.7143 -2.8571,120 51.4286,17.1428 42.8571,-17.1428 48.5714,5.7143 137.1429,2.8571 260,-8.5714 51.4286,8.5714 22.8571,-22.8571 8.5714,-68.5715 2.8572,-40 11.4285,-22.8571 -48.5714,0 -45.7143,17.1429 -80,5.7142 -288.5714,2.8572 -65.7143,0 z"
       id="area_3"
       inkscape:connector-curvature="0"
       transform="translate(-1788.5714,-1521.9236)"
       inkscape:label="#path3261" />
    <text
       xml:space="preserve"
       style="font-style:normal;font-weight:normal;font-size:40px;line-height:125%;font-family:Sans;letter-spacing:0px;word-spacing:0px;fill:#000000;fill-opacity:1;stroke:none"
       x="-991.42883"
       y="-1350.6259"
       id="navigation"
       sodipodi:linespacing="125%"
       inkscape:label="#text4141"><tspan
         sodipodi:role="line"
         x="-991.42883"
         y="-1350.6259"
         id="tspan4143"><tspan
           x="-991.42883"
           y="-1350.6259"
           id="tspan4145">1 2 3</tspan></tspan></text>
  </g>
</svg>
