<?xml version="1.0" encoding="UTF-8" standalone="no"?>
<!-- Created with Inkscape (http://www.inkscape.org/) -->

<svg
   xmlns:dc="http://purl.org/dc/elements/1.1/"
   xmlns:cc="http://creativecommons.org/ns#"
   xmlns:rdf="http://www.w3.org/1999/02/22-rdf-syntax-ns#"
   xmlns:svg="http://www.w3.org/2000/svg"
   xmlns="http://www.w3.org/2000/svg"
   xmlns:xlink="http://www.w3.org/1999/xlink"
   xmlns:sodipodi="http://sodipodi.sourceforge.net/DTD/sodipodi-0.dtd"
   xmlns:inkscape="http://www.inkscape.org/namespaces/inkscape"
   width="3000"
   height="2000"
   id="svg3271"
   version="1.1"
   inkscape:version="0.91 r13725"
   sodipodi:docname="Gumrs.svg">
  <defs
     id="defs3273" />
  <sodipodi:namedview
     id="base"
     pagecolor="#ffffff"
     bordercolor="#666666"
     borderopacity="1.0"
     inkscape:pageopacity="0.0"
     inkscape:pageshadow="2"
     inkscape:zoom="0.35"
     inkscape:cx="1700.7143"
     inkscape:cy="928.57141"
     inkscape:document-units="px"
     inkscape:current-layer="layer1"
     showgrid="false"
     fit-margin-top="0"
     fit-margin-left="0"
     fit-margin-right="0"
     fit-margin-bottom="0"
     inkscape:window-width="2560"
     inkscape:window-height="1338"
     inkscape:window-x="0"
     inkscape:window-y="1"
     inkscape:window-maximized="1" />
  <metadata
     id="metadata3276">
    <rdf:RDF>
      <cc:Work
         rdf:about="">
        <dc:format>image/svg+xml</dc:format>
        <dc:type
           rdf:resource="http://purl.org/dc/dcmitype/StillImage" />
        <dc:title />
      </cc:Work>
    </rdf:RDF>
  </metadata>
  <g
     inkscape:label="Layer 1"
     inkscape:groupmode="layer"
     id="layer1"
     transform="translate(1742.8572,539.06641)">
    <image
       y="-539.06641"
       x="-1742.8572"
       id="image3287"
       xlink:href="file:///T:/SCRAN24/NEW%20PHOTOS%20FOR%20SCRAN/chocolate%20&amp;%20sweets/Gumrs.jpg"
       height="2000"
       width="3000" />
    <path
       style="fill:none;stroke:#000000;stroke-width:1px;stroke-linecap:butt;stroke-linejoin:miter;stroke-opacity:1"
       d="m 902.85714,480 20,-20 97.14286,2.85714 28.5714,28.57143 -2.8571,182.85714 -2.8572,97.14286 -8.5714,151.42857 -11.4286,251.42856 -142.8571,11.4286 -11.42857,-8.5714 0,-57.1429 8.57143,-277.14286 25.71428,-68.57143 0,-134.28571 z"
       id="area_1"
       inkscape:connector-curvature="0"
       transform="translate(-1742.8572,-539.06641)"
       inkscape:label="#path3292" />
    <path
       style="fill:none;stroke:#000000;stroke-width:1px;stroke-linecap:butt;stroke-linejoin:miter;stroke-opacity:1"
       d="m 1214.2857,597.14286 28.5714,-22.85715 108.5715,14.28572 5.7143,280 -2.8572,142.85717 -11.4286,37.1428 -120,0 -25.7142,-40 z"
       id="area_2"
       inkscape:connector-curvature="0"
       transform="translate(-1742.8572,-539.06641)"
       inkscape:label="#path3294" />
    <path
       style="fill:none;stroke:#000000;stroke-width:1px;stroke-linecap:butt;stroke-linejoin:miter;stroke-opacity:1"
       d="m 1505.7143,682.85714 31.4286,-14.28571 45.7142,-2.85714 54.2858,5.71428 11.4285,120 L 1660,940 l 2.8571,20 -51.4285,20 -48.5715,2.85714 -48.5714,-5.71428 -5.7143,-51.42857 z"
       id="area_3"
       inkscape:connector-curvature="0"
       transform="translate(-1742.8572,-539.06641)"
       inkscape:label="#path3296"
       sodipodi:nodetypes="cccccccccccc" />
    <path
       style="fill:none;stroke:#000000;stroke-width:1px;stroke-linecap:butt;stroke-linejoin:miter;stroke-opacity:1"
       d="m 1808.5714,742.85714 42.8572,-17.14285 54.2857,2.85714 20,14.28571 5.7143,94.28572 2.8571,82.85714 -2.8571,25.71429 -22.8572,11.42857 -85.7143,-8.57143 -14.2857,-17.14286 z"
       id="area_4"
       inkscape:connector-curvature="0"
       transform="translate(-1742.8572,-539.06641)"
       inkscape:label="#path3298" />
    <path
       style="fill:none;stroke:#000000;stroke-width:1px;stroke-linecap:butt;stroke-linejoin:miter;stroke-opacity:1"
       d="m 2042.8571,802.85714 8.5715,-40 88.5714,0 14.2857,122.85715 -8.5714,48.57142 -68.5714,0 L 2054.2857,900 z"
       id="area_5"
       inkscape:connector-curvature="0"
       transform="translate(-1742.8572,-539.06641)"
       inkscape:label="#path3300" />
    <text
       xml:space="preserve"
       style="font-style:normal;font-weight:normal;font-size:40px;line-height:125%;font-family:Sans;letter-spacing:0px;word-spacing:0px;fill:#000000;fill-opacity:1;stroke:none"
       x="-1117.1423"
       y="-356.33902"
       id="navigation"
       sodipodi:linespacing="125%"
       inkscape:label="#text4143"><tspan
         sodipodi:role="line"
         x="-1117.1423"
         y="-356.33902"
         id="tspan4145"><tspan
           x="-1117.1423"
           y="-356.33902"
           id="tspan4147">1 2 3 4 5</tspan></tspan></text>
  </g>
</svg>
