<?xml version="1.0" encoding="UTF-8" standalone="no"?>
<!-- Created with Inkscape (http://www.inkscape.org/) -->

<svg
   xmlns:dc="http://purl.org/dc/elements/1.1/"
   xmlns:cc="http://creativecommons.org/ns#"
   xmlns:rdf="http://www.w3.org/1999/02/22-rdf-syntax-ns#"
   xmlns:svg="http://www.w3.org/2000/svg"
   xmlns="http://www.w3.org/2000/svg"
   xmlns:xlink="http://www.w3.org/1999/xlink"
   xmlns:sodipodi="http://sodipodi.sourceforge.net/DTD/sodipodi-0.dtd"
   xmlns:inkscape="http://www.inkscape.org/namespaces/inkscape"
   width="3000"
   height="2000"
   id="svg3247"
   version="1.1"
   inkscape:version="0.91 r13725"
   sodipodi:docname="Gwalk.svg">
  <defs
     id="defs3249" />
  <sodipodi:namedview
     id="base"
     pagecolor="#ffffff"
     bordercolor="#666666"
     borderopacity="1.0"
     inkscape:pageopacity="0.0"
     inkscape:pageshadow="2"
     inkscape:zoom="0.35"
     inkscape:cx="1152.8903"
     inkscape:cy="997.14289"
     inkscape:document-units="px"
     inkscape:current-layer="layer1"
     showgrid="false"
     fit-margin-top="0"
     fit-margin-left="0"
     fit-margin-right="0"
     fit-margin-bottom="0"
     inkscape:window-width="2560"
     inkscape:window-height="1338"
     inkscape:window-x="0"
     inkscape:window-y="1"
     inkscape:window-maximized="1" />
  <metadata
     id="metadata3252">
    <rdf:RDF>
      <cc:Work
         rdf:about="">
        <dc:format>image/svg+xml</dc:format>
        <dc:type
           rdf:resource="http://purl.org/dc/dcmitype/StillImage" />
        <dc:title />
      </cc:Work>
    </rdf:RDF>
  </metadata>
  <g
     inkscape:label="Layer 1"
     inkscape:groupmode="layer"
     id="layer1"
     transform="translate(2754.2856,1384.7806)">
    <image
       y="-1384.7806"
       x="-2754.2856"
       id="image3263"
       xlink:href="file:///T:/SCRAN24/NEW%20PHOTOS%20FOR%20SCRAN/crisps/crisps/Gwalk.jpg"
       height="2000"
       width="3000" />
    <path
       style="fill:none;stroke:#000000;stroke-width:1px;stroke-linecap:butt;stroke-linejoin:miter;stroke-opacity:1"
       d="M 471.42857,362.85714 540,354.28571 l 51.42857,14.28572 57.14286,-17.14286 68.57143,0 80,-5.71428 82.85714,28.57142 137.1429,2.85715 94.2857,-8.57143 31.4285,8.57143 34.2858,0 25.7142,14.28571 L 1217.1429,380 1188.5714,551.42857 1171.4286,665.71429 1160,860 l -5.7143,100 11.4286,114.2857 8.5714,97.1429 11.4286,82.8571 -71.4286,-11.4286 L 980,1228.5714 922.85714,1225.7143 874.28571,1200 l -191.42857,-5.7143 -57.14285,0 -20,-22.8571 -42.85715,0 -20,17.1428 -200,45.7143 0,-34.2857 42.85715,-128.5714 65.71428,-165.71431 20,-68.57143 -17.14286,-148.57143 22.85715,-85.71429 -2.85715,-120 z"
       id="area_1"
       inkscape:connector-curvature="0"
       transform="translate(-2754.2856,-1384.7806)"
       inkscape:label="#path3266" />
    <path
       style="fill:none;stroke:#000000;stroke-width:1px;stroke-linecap:butt;stroke-linejoin:miter;stroke-opacity:1"
       d="M 1220,394.28571 1397.1429,380 l 114.2857,14.28571 40,20 165.7143,-2.85714 117.1428,-14.28571 57.1429,20 -57.1429,40 5.7143,197.14285 -5.7143,71.42858 2.8572,102.85714 14.2857,137.14286 2.8571,120.00001 48.5714,54.2857 -88.5714,2.8571 -182.8571,-22.8571 -60,-2.8571 -68.5715,-34.2858 -20,25.7143 -102.8571,20 -160,22.8572 -57.1429,-37.1429 48.5715,-60 17.1428,-151.42856 22.8572,-305.71428 2.8571,-128.57143 -37.1428,-25.71429 z"
       id="area_2"
       inkscape:connector-curvature="0"
       transform="translate(-2754.2856,-1384.7806)"
       inkscape:label="#path3268" />
    <path
       style="fill:none;stroke:#000000;stroke-width:1px;stroke-linecap:butt;stroke-linejoin:miter;stroke-opacity:1"
       d="m 1848.5714,491.42857 117.1429,0 242.8571,-20 257.1429,-17.14286 82.8571,-11.42857 L 2540,520 l 0,54.28571 2.8571,111.42858 8.5715,85.71428 31.4285,197.14286 0,22.85714 57.1429,71.42853 22.8571,-8.5714 -2.8571,48.5714 -308.5714,11.4286 -454.2857,28.5714 -8.5715,-34.2857 25.7143,-60 L 1900,702.85714 l 0,-145.71428 z"
       id="area_3"
       inkscape:connector-curvature="0"
       transform="translate(-2754.2856,-1384.7806)"
       inkscape:label="#path3270" />
    <text
       xml:space="preserve"
       style="font-style:normal;font-weight:normal;font-size:40px;line-height:125%;font-family:Sans;letter-spacing:0px;word-spacing:0px;fill:#000000;fill-opacity:1;stroke:none"
       x="-2657.1431"
       y="-1242.0532"
       id="navigation"
       sodipodi:linespacing="125%"
       inkscape:label="#text4141"><tspan
         sodipodi:role="line"
         x="-2657.1431"
         y="-1242.0532"
         id="tspan4143"><tspan
           x="-2657.1431"
           y="-1242.0532"
           id="tspan4145">1 2 3</tspan></tspan></text>
  </g>
</svg>
