<?xml version="1.0" encoding="UTF-8" standalone="no"?>
<!-- Created with Inkscape (http://www.inkscape.org/) -->

<svg
   xmlns:dc="http://purl.org/dc/elements/1.1/"
   xmlns:cc="http://creativecommons.org/ns#"
   xmlns:rdf="http://www.w3.org/1999/02/22-rdf-syntax-ns#"
   xmlns:svg="http://www.w3.org/2000/svg"
   xmlns="http://www.w3.org/2000/svg"
   xmlns:xlink="http://www.w3.org/1999/xlink"
   xmlns:sodipodi="http://sodipodi.sourceforge.net/DTD/sodipodi-0.dtd"
   xmlns:inkscape="http://www.inkscape.org/namespaces/inkscape"
   width="1258"
   height="839"
   id="svg2"
   version="1.1"
   inkscape:version="0.48.4 r9939"
   sodipodi:docname="Gallcans.svg">
  <defs
     id="defs4" />
  <sodipodi:namedview
     id="base"
     pagecolor="#ffffff"
     bordercolor="#666666"
     borderopacity="1.0"
     inkscape:pageopacity="0.0"
     inkscape:pageshadow="2"
     inkscape:zoom="0.88796186"
     inkscape:cx="629"
     inkscape:cy="419.5"
     inkscape:document-units="px"
     inkscape:current-layer="layer1"
     showgrid="false"
     fit-margin-top="0"
     fit-margin-left="0"
     fit-margin-right="0"
     fit-margin-bottom="0"
     inkscape:window-width="1920"
     inkscape:window-height="1017"
     inkscape:window-x="-8"
     inkscape:window-y="-8"
     inkscape:window-maximized="1" />
  <metadata
     id="metadata7">
    <rdf:RDF>
      <cc:Work
         rdf:about="">
        <dc:format>image/svg+xml</dc:format>
        <dc:type
           rdf:resource="http://purl.org/dc/dcmitype/StillImage" />
        <dc:title />
      </cc:Work>
    </rdf:RDF>
  </metadata>
  <g
     inkscape:label="Layer 1"
     inkscape:groupmode="layer"
     id="layer1"
     transform="translate(31.857143,-321.43362)">
    <image
       y="321.43362"
       x="-31.857143"
       id="123"
       xlink:href="file:///T:/SCRAN24/NEW%20PHOTOS%20FOR%20SCRAN/Drink%20bottles%20&amp;%20cans/Gallcans.jpg"
       height="839"
       width="1258"
       inkscape:label="#image2993" />
    <path
       style="fill:none;stroke:#000000;stroke-width:1px;stroke-linecap:butt;stroke-linejoin:miter;stroke-opacity:1"
       d="m 108.11275,197.08054 136.26712,3.37852 0,12.38792 13.51409,24.77584 1.12617,400.91812 -14.64026,13.51409 -1.12618,6.75705 -32.65906,9.0094 -43.9208,1.12617 -37.16376,-1.12617 -19.14497,-5.63088 0,-7.88322 -14.640268,-10.13557 -2.252349,-407.67517 14.640267,-23.64966 z"
       id="area_1"
       inkscape:connector-curvature="0"
       transform="translate(-31.857143,321.43362)"
       inkscape:label="#path2996" />
    <path
       style="fill:none;stroke:#000000;stroke-width:1px;stroke-linecap:butt;stroke-linejoin:miter;stroke-opacity:1"
       d="m 340.1047,248.88456 132.88859,5.63088 -2.25235,9.00939 15.76644,29.28054 -4.5047,351.36644 -19.14496,11.26175 0,10.13557 -49.55168,6.75704 -42.79463,-1.12617 -30.40671,-7.88322 0,-7.88322 -16.89262,-14.64027 0,-353.61879 18.01879,-23.64967 z"
       id="area_2"
       inkscape:connector-curvature="0"
       transform="translate(-31.857143,321.43362)"
       inkscape:label="#path2998" />
    <path
       style="fill:none;stroke:#000000;stroke-width:1px;stroke-linecap:butt;stroke-linejoin:miter;stroke-opacity:1"
       d="m 570.97047,297.31007 131.76242,3.37852 0,11.26175 15.76644,30.40671 -6.75705,304.06711 -21.39731,18.01879 -1.12618,4.5047 -34.91141,9.0094 -34.91141,-1.12618 -30.40671,-4.5047 -16.89262,-6.75704 -5.63087,-6.75705 -13.51409,-15.76644 3.37852,-305.19329 16.89262,-24.77584 z"
       id="area_3"
       inkscape:connector-curvature="0"
       transform="translate(-31.857143,321.43362)"
       inkscape:label="#path3000" />
    <path
       style="fill:none;stroke:#000000;stroke-width:1px;stroke-linecap:butt;stroke-linejoin:miter;stroke-opacity:1"
       d="m 790.5745,344.6094 126.13154,3.37852 -1.12617,11.26174 3.37852,11.26175 -9.0094,304.06711 -5.63087,6.75705 -54.05638,5.63087 -64.19194,-11.26174 -5.63087,-12.38792 6.75704,-295.05772 z"
       id="area_4"
       inkscape:connector-curvature="0"
       transform="translate(-31.857143,321.43362)"
       inkscape:label="#path3002" />
    <path
       style="fill:none;stroke:#000000;stroke-width:1px;stroke-linecap:butt;stroke-linejoin:miter;stroke-opacity:1"
       d="m 995.53826,391.90872 137.39324,6.75705 -3.3785,11.26175 18.0188,31.53288 -11.2617,228.61343 -19.145,11.26174 -1.1262,4.5047 -50.6778,5.63087 -57.4349,-7.88322 -19.14499,-6.75705 3.37852,-4.5047 -19.14496,-12.38791 5.63087,-226.36108 16.89262,-28.15436 z"
       id="area_5"
       inkscape:connector-curvature="0"
       transform="translate(-31.857143,321.43362)"
       inkscape:label="#path3004" />
    <flowRoot
       xml:space="preserve"
       id="navigation"
       style="font-size:40px;font-style:normal;font-weight:normal;line-height:125%;letter-spacing:0px;word-spacing:0px;fill:#000000;fill-opacity:1;stroke:none;font-family:Sans"
       transform="translate(-31.857143,321.43362)"
       inkscape:label="#flowRoot3006"><flowRegion
         id="flowRegion3008"><rect
           id="rect3010"
           width="163.29532"
           height="47.299332"
           x="425.69397"
           y="77.706039" /></flowRegion><flowPara
         id="flowPara3012">1 2 3 4 5</flowPara></flowRoot>  </g>
</svg>
