<?xml version="1.0" encoding="UTF-8" standalone="no"?>
<!-- Created with Inkscape (http://www.inkscape.org/) -->

<svg
   xmlns:dc="http://purl.org/dc/elements/1.1/"
   xmlns:cc="http://creativecommons.org/ns#"
   xmlns:rdf="http://www.w3.org/1999/02/22-rdf-syntax-ns#"
   xmlns:svg="http://www.w3.org/2000/svg"
   xmlns="http://www.w3.org/2000/svg"
   xmlns:xlink="http://www.w3.org/1999/xlink"
   xmlns:sodipodi="http://sodipodi.sourceforge.net/DTD/sodipodi-0.dtd"
   xmlns:inkscape="http://www.inkscape.org/namespaces/inkscape"
   width="1240"
   height="826"
   id="svg2"
   version="1.1"
   inkscape:version="0.48.4 r9939"
   sodipodi:docname="Gbeerbot.svg">
  <defs
     id="defs4" />
  <sodipodi:namedview
     id="base"
     pagecolor="#ffffff"
     bordercolor="#666666"
     borderopacity="1.0"
     inkscape:pageopacity="0.0"
     inkscape:pageshadow="2"
     inkscape:zoom="0.90193705"
     inkscape:cx="620"
     inkscape:cy="413"
     inkscape:document-units="px"
     inkscape:current-layer="layer1"
     showgrid="false"
     fit-margin-top="0"
     fit-margin-left="0"
     fit-margin-right="0"
     fit-margin-bottom="0"
     inkscape:window-width="1280"
     inkscape:window-height="962"
     inkscape:window-x="-8"
     inkscape:window-y="-8"
     inkscape:window-maximized="1" />
  <metadata
     id="metadata7">
    <rdf:RDF>
      <cc:Work
         rdf:about="">
        <dc:format>image/svg+xml</dc:format>
        <dc:type
           rdf:resource="http://purl.org/dc/dcmitype/StillImage" />
        <dc:title />
      </cc:Work>
    </rdf:RDF>
  </metadata>
  <g
     inkscape:label="Layer 1"
     inkscape:groupmode="layer"
     id="layer1"
     transform="translate(1162.8572,46.352104)">
    <image
       y="-46.352104"
       x="-1162.8572"
       id="image2993"
       xlink:href="file:///T:/SCRAN24/NEW%20PHOTOS%20FOR%20SCRAN/Drink%20bottles%20&amp;%20cans/Gbeerbot.jpg"
       height="826"
       width="1240"
       inkscape:label="#image2993" />
    <path
       style="fill:none;stroke:#000000;stroke-width:1px;stroke-linecap:butt;stroke-linejoin:miter;stroke-opacity:1"
       d="m 216.20134,89.806711 52.11007,1.108725 6.65235,16.630874 -5.54363,3.32617 6.65235,19.95705 -5.54362,2.21745 21.06577,143.0255 -3.32617,39.9141 34.37047,59.87114 -4.4349,290.4859 -9.97853,28.82685 -21.06577,6.65235 -49.89262,5.54362 -49.89261,-2.21745 -19.95705,-6.65235 -11.08725,-25.50067 3.32618,-298.24698 31.04429,-54.32751 2.21745,-49.89262 24.39195,-136.37316 -6.65235,-6.65234 5.54362,-21.06578 -7.76107,-2.21745 z"
       id="area_1"
       inkscape:connector-curvature="0"
       transform="translate(-1162.8572,-46.352104)"
       inkscape:label="#path2996" />
    <path
       style="fill:none;stroke:#000000;stroke-width:1px;stroke-linecap:butt;stroke-linejoin:miter;stroke-opacity:1"
       d="m 427.96779,187.3745 51.00134,1.10872 6.65235,14.41342 -6.65235,1.10873 6.65235,22.1745 -3.32618,5.54362 11.08725,108.65503 32.15302,38.80537 3.32617,22.1745 -7.76107,274.96376 -6.65235,23.28322 -48.78389,8.8698 -49.89262,-2.21745 -33.26174,-5.54363 -5.54363,-23.28322 1.10873,-35.47919 1.10872,-225.07114 1.10873,-27.71812 2.21745,-14.41343 26.60939,-26.60939 5.54363,-14.41343 13.3047,-105.32885 -4.4349,0 4.4349,-22.1745 -6.65235,-2.21745 z"
       id="area_2"
       inkscape:connector-curvature="0"
       transform="translate(-1162.8572,-46.352104)"
       inkscape:label="#path2998" />
    <path
       style="fill:none;stroke:#000000;stroke-width:1px;stroke-linecap:butt;stroke-linejoin:miter;stroke-opacity:1"
       d="m 617.55973,217.31007 56.54497,2.21745 3.32617,12.19597 -6.65235,3.32617 5.54363,7.76108 -2.21745,5.54362 1.10872,13.3047 2.21745,128.61208 23.28322,34.37047 1.10873,37.69665 -6.65235,230.61476 -3.32617,7.76107 -25.50068,8.8698 -58.76241,1.10873 -32.15302,-9.97853 0,-8.86979 -3.32618,-6.65235 6.65235,-236.15839 2.21745,-31.0443 24.39195,-28.82684 9.97852,-131.93826 3.32618,-9.97852 -3.32618,-4.4349 6.65235,-9.97853 -7.76107,0 z"
       id="area_3"
       inkscape:connector-curvature="0"
       transform="translate(-1162.8572,-46.352104)"
       inkscape:label="#path3000" />
    <path
       style="fill:none;stroke:#000000;stroke-width:1px;stroke-linecap:butt;stroke-linejoin:miter;stroke-opacity:1"
       d="m 781.65101,228.39732 51.00134,1.10872 6.65235,15.52215 -7.76108,0 5.54363,24.39194 -6.65235,0 15.52215,108.65504 21.06577,48.78389 -9.97852,228.39732 5.54362,21.06577 -4.4349,28.82684 -25.50067,6.65235 -59.87114,0 -33.26175,-8.8698 -4.4349,-35.47919 6.65235,-21.06577 -2.21745,-225.07114 21.06577,-38.80537 18.84833,-110.87249 -4.4349,-4.4349 5.54362,-21.06577 -8.8698,0 z"
       id="area_4"
       inkscape:connector-curvature="0"
       transform="translate(-1162.8572,-46.352104)"
       inkscape:label="#path3004" />
    <path
       style="fill:none;stroke:#000000;stroke-width:1px;stroke-linecap:butt;stroke-linejoin:miter;stroke-opacity:1"
       d="m 965.69933,338.16107 55.43627,-1.10872 4.4349,13.3047 -7.7611,1.10872 6.6523,22.1745 -2.2174,1.10872 -1.1087,31.0443 25.5006,48.78389 0,23.28322 18.8484,43.24027 -4.4349,178.5047 -8.8698,17.7396 c 0,0 -35.4792,4.4349 -41.0229,4.4349 -5.5436,0 -56.54492,-3.32618 -56.54492,-3.32618 l -36.58792,-11.08725 -4.4349,-15.52214 1.10873,-174.0698 19.95704,-42.13155 6.65235,-35.47919 16.63088,-27.71812 3.32617,-4.4349 4.4349,-31.0443 -3.32618,-3.32617 3.32618,-22.1745 -4.4349,-1.10872 z"
       id="area_5"
       inkscape:connector-curvature="0"
       transform="translate(-1162.8572,-46.352104)"
       inkscape:label="#path3006" />
    <flowRoot
       xml:space="preserve"
       id="navigation"
       style="font-size:40px;font-style:normal;font-weight:normal;line-height:125%;letter-spacing:0px;word-spacing:0px;fill:#000000;fill-opacity:1;stroke:none;font-family:Sans"
       transform="translate(-1162.8572,-46.352104)"
       inkscape:label="#flowRoot3008"><flowRegion
         id="flowRegion3010"><rect
           id="rect3012"
           width="288.26846"
           height="54.327518"
           x="417.98926"
           y="57.65369" /></flowRegion><flowPara
         id="flowPara3014">1 2 3 4 5</flowPara></flowRoot>  </g>
</svg>
