<?xml version="1.0" encoding="UTF-8" standalone="no"?>
<!-- Created with Inkscape (http://www.inkscape.org/) -->

<svg
   xmlns:dc="http://purl.org/dc/elements/1.1/"
   xmlns:cc="http://creativecommons.org/ns#"
   xmlns:rdf="http://www.w3.org/1999/02/22-rdf-syntax-ns#"
   xmlns:svg="http://www.w3.org/2000/svg"
   xmlns="http://www.w3.org/2000/svg"
   xmlns:xlink="http://www.w3.org/1999/xlink"
   xmlns:sodipodi="http://sodipodi.sourceforge.net/DTD/sodipodi-0.dtd"
   xmlns:inkscape="http://www.inkscape.org/namespaces/inkscape"
   width="1264"
   height="842"
   id="svg2"
   version="1.1"
   inkscape:version="0.48.4 r9939"
   sodipodi:docname="New document 1">
  <defs
     id="defs4" />
  <sodipodi:namedview
     id="base"
     pagecolor="#ffffff"
     bordercolor="#666666"
     borderopacity="1.0"
     inkscape:pageopacity="0.0"
     inkscape:pageshadow="2"
     inkscape:zoom="0.8847981"
     inkscape:cx="632"
     inkscape:cy="421"
     inkscape:document-units="px"
     inkscape:current-layer="layer1"
     showgrid="false"
     fit-margin-top="0"
     fit-margin-left="0"
     fit-margin-right="0"
     fit-margin-bottom="0"
     inkscape:window-width="1280"
     inkscape:window-height="962"
     inkscape:window-x="-8"
     inkscape:window-y="-8"
     inkscape:window-maximized="1" />
  <metadata
     id="metadata7">
    <rdf:RDF>
      <cc:Work
         rdf:about="">
        <dc:format>image/svg+xml</dc:format>
        <dc:type
           rdf:resource="http://purl.org/dc/dcmitype/StillImage" />
        <dc:title></dc:title>
      </cc:Work>
    </rdf:RDF>
  </metadata>
  <g
     inkscape:label="Layer 1"
     inkscape:groupmode="layer"
     id="layer1"
     transform="translate(257,-111.36218)">
    <image
       y="111.36218"
       x="-257"
       id="image2993"
       xlink:href="file:///T:/SCRAN24/NEW%20PHOTOS%20FOR%20SCRAN/Drink%20bottles%20&amp;%20cans/Gciderbot.jpg"
       height="842"
       width="1264" />
    <path
       style="fill:none;stroke:#000000;stroke-width:1px;stroke-linecap:butt;stroke-linejoin:miter;stroke-opacity:1"
       d="m 221.51946,51.989262 56.51007,1.130201 4.52081,36.166443 -1.13021,3.390604 4.52081,4.520805 -6.78121,0 0,15.822815 20.34363,15.82282 25.99463,31.64564 15.82282,40.68725 15.82281,62.16107 1.13021,35.03624 4.5208,279.15974 0,25.99463 0,20.34362 -9.04161,35.03624 -16.95302,18.08322 -14.69262,6.78121 -38.42684,5.65101 -25.99463,-2.2604 -30.51544,0 -18.08322,3.3906 -14.69262,-4.52081 -9.04161,-12.43221 -9.04161,-12.43221 -11.30201,-31.64564 -5.65101,-23.73423 1.1302,-35.03624 -4.5208,-273.50873 -3.39061,-29.38523 28.25503,-109.62953 16.95302,-28.25504 27.12484,-13.56241 1.1302,-18.083223 -6.78121,-1.130202 5.65101,-6.781208 z"
       id="area_1"
       inkscape:connector-curvature="0"
       transform="translate(-257,111.36218)"
       inkscape:label="#path2996" />
    <path
       style="fill:none;stroke:#000000;stroke-width:1px;stroke-linecap:butt;stroke-linejoin:miter;stroke-opacity:1"
       d="m 490.50738,238.47248 50.85906,0 1.1302,14.69262 -2.2604,2.2604 2.2604,14.69262 -3.3906,3.3906 0,12.43222 22.60403,59.90067 0,19.21342 3.3906,5.65101 0,10.17181 16.95302,31.64564 3.39061,13.56242 -2.26041,206.82684 1.1302,22.60403 -9.04161,21.47382 -25.99463,7.91141 -48.59866,0 -47.46845,-5.651 -7.91141,-23.73423 0,-35.03624 1.1302,-171.79061 -3.3906,-27.12483 22.60402,-36.16644 0,-11.30202 2.26041,-9.04161 -1.13021,-21.47382 23.73423,-55.37987 1.1302,-10.17181 -5.651,-9.04161 3.3906,-13.56242 -1.1302,-4.5208 z"
       id="area_2"
       inkscape:connector-curvature="0"
       transform="translate(-257,111.36218)"
       sodipodi:nodetypes="ccccccccccccccccccccccccccccccccc"
       inkscape:label="#path2998" />
    <path
       style="fill:none;stroke:#000000;stroke-width:1px;stroke-linecap:butt;stroke-linejoin:miter;stroke-opacity:1"
       d="m 713.15705,211.34765 c 5.651,1.1302 49.72886,1.1302 49.72886,1.1302 l 2.2604,14.69262 -5.65101,0 7.91141,19.21342 -5.65101,1.1302 1.13021,14.69262 6.7812,54.24967 -1.1302,35.03624 11.30202,14.69261 21.47382,31.64564 -1.1302,29.38524 -2.2604,235.08188 -4.52081,20.34362 -37.29664,6.78121 -48.59866,-2.2604 -36.16644,-5.65101 -1.1302,-13.56242 -2.26041,-7.91141 2.26041,-249.77449 5.651,-24.86443 27.12483,-29.38524 1.13021,-15.82282 -3.39061,-20.34362 11.30202,-71.20268 -5.65101,-1.13021 7.91141,-20.34362 -6.78121,0 z"
       id="area_3"
       inkscape:connector-curvature="0"
       transform="translate(-257,111.36218)"
       inkscape:label="#path3000" />
    <path
       style="fill:none;stroke:#000000;stroke-width:1px;stroke-linecap:butt;stroke-linejoin:miter;stroke-opacity:1"
       d="m 906.42148,252.0349 49.72886,1.1302 3.3906,9.04161 -6.78121,2.2604 4.52081,9.04161 -3.39061,7.91141 4.52081,9.04161 0,114.15034 20.34362,29.38524 3.39061,15.82281 -4.52081,203.43625 0,13.56241 -3.3906,13.56242 -10.17182,9.04161 -23.73422,0 -45.20806,2.2604 -23.73423,-7.91141 -1.1302,-11.30201 -5.651,-5.65101 4.5208,-218.12886 1.1302,-14.69261 23.73423,-27.12484 4.52081,-84.7651 1.1302,-33.90604 6.78121,-10.17181 -6.78121,-3.3906 c 9.2041,-4.89754 5.68418,-9.79508 0,-14.69262 z"
       id="area_4"
       inkscape:connector-curvature="0"
       transform="translate(-257,111.36218)"
       sodipodi:nodetypes="cccccccccccccccccccccccccccc"
       inkscape:label="#path3002" />
    <flowRoot
       xml:space="preserve"
       id="navigation"
       style="font-size:40px;font-style:normal;font-weight:normal;line-height:125%;letter-spacing:0px;word-spacing:0px;fill:#000000;fill-opacity:1;stroke:none;font-family:Sans"
       transform="translate(-257,111.36218)"
       inkscape:label="#flowRoot3004"><flowRegion
         id="flowRegion3006"><rect
           id="rect3008"
           width="283.68054"
           height="63.291275"
           x="464.51276"
           y="59.900673" /></flowRegion><flowPara
         id="flowPara3010">1 2 3 4</flowPara></flowRoot>  </g>
</svg>
