<?xml version="1.0" encoding="UTF-8" standalone="no"?>
<!-- Created with Inkscape (http://www.inkscape.org/) -->

<svg
   xmlns:dc="http://purl.org/dc/elements/1.1/"
   xmlns:cc="http://creativecommons.org/ns#"
   xmlns:rdf="http://www.w3.org/1999/02/22-rdf-syntax-ns#"
   xmlns:svg="http://www.w3.org/2000/svg"
   xmlns="http://www.w3.org/2000/svg"
   xmlns:xlink="http://www.w3.org/1999/xlink"
   xmlns:sodipodi="http://sodipodi.sourceforge.net/DTD/sodipodi-0.dtd"
   xmlns:inkscape="http://www.inkscape.org/namespaces/inkscape"
   width="1216"
   height="811"
   id="svg2"
   version="1.1"
   inkscape:version="0.48.4 r9939"
   sodipodi:docname="New document 1">
  <defs
     id="defs4" />
  <sodipodi:namedview
     id="base"
     pagecolor="#ffffff"
     bordercolor="#666666"
     borderopacity="1.0"
     inkscape:pageopacity="0.0"
     inkscape:pageshadow="2"
     inkscape:zoom="0.91861899"
     inkscape:cx="608"
     inkscape:cy="405.5"
     inkscape:document-units="px"
     inkscape:current-layer="layer1"
     showgrid="false"
     fit-margin-top="0"
     fit-margin-left="0"
     fit-margin-right="0"
     fit-margin-bottom="0"
     inkscape:window-width="1280"
     inkscape:window-height="962"
     inkscape:window-x="-8"
     inkscape:window-y="-8"
     inkscape:window-maximized="1" />
  <metadata
     id="metadata7">
    <rdf:RDF>
      <cc:Work
         rdf:about="">
        <dc:format>image/svg+xml</dc:format>
        <dc:type
           rdf:resource="http://purl.org/dc/dcmitype/StillImage" />
        <dc:title></dc:title>
      </cc:Work>
    </rdf:RDF>
  </metadata>
  <g
     inkscape:label="Layer 1"
     inkscape:groupmode="layer"
     id="layer1"
     transform="translate(233,-126.86218)">
    <image
       y="126.86218"
       x="-233"
       id="image2993"
       xlink:href="file:///T:/SCRAN24/NEW%20PHOTOS%20FOR%20SCRAN/Drink%20bottles%20&amp;%20cans/Gwatbottle.jpg"
       height="811"
       width="1216" />
    <path
       style="fill:none;stroke:#000000;stroke-width:1px;stroke-linecap:butt;stroke-linejoin:miter;stroke-opacity:1"
       d="m 165.46577,153.49128 46.8094,0 13.06309,18.50604 6.53154,20.68322 -3.26577,30.48053 -4.35437,0 0,8.70873 69.6698,70.75839 3.26577,16.32886 -2.17718,7.62013 6.53155,99.06175 -1.08859,23.94899 -2.17718,13.06309 -25.03759,42.45503 19.59463,39.18926 8.70873,45.72081 0,44.63221 -9.79732,42.45504 -29.39194,5.44295 -37.01208,5.44295 -28.30336,5.44295 -20.68322,0 -37.01208,-2.17718 -29.39195,-5.44295 -6.53154,-3.26577 -8.708727,-27.21477 -2.177182,-32.65771 0,-38.10068 3.265772,-28.30335 3.265772,-18.50604 5.442955,-21.77181 4.35436,-4.35437 -7.62013,-21.77181 -13.063091,-29.39194 -2.177181,-127.36511 0,-20.68322 13.063087,-23.94899 40.277855,-38.10067 18.50604,-17.41745 -1.08859,-10.88591 -5.44296,-3.26577 -2.17718,-27.21476 5.44296,-20.68323 z"
       id="area_1"
       inkscape:connector-curvature="0"
       transform="translate(-233,126.86218)"
       inkscape:label="#path2996" />
    <path
       style="fill:none;stroke:#000000;stroke-width:1px;stroke-linecap:butt;stroke-linejoin:miter;stroke-opacity:1"
       d="m 394.0698,158.93423 53.34094,1.08859 -2.17718,5.44295 -5.44296,8.70873 14.15168,31.56912 0,38.10068 6.53155,4.35436 -7.62014,5.44295 0,14.15168 27.21477,17.41745 25.03758,30.48054 7.62013,22.8604 1.0886,18.50604 1.08859,28.30335 -10.88591,16.32886 3.26577,9.79732 7.62014,9.79731 2.17718,210.09799 -11.9745,45.72081 -23.94899,8.70872 -43.54363,7.62013 -33.74631,3.26578 -42.45503,-5.44296 -18.50604,-13.06308 -9.79732,-37.01208 1.0886,-82.73289 -3.26578,-125.18792 0,-11.9745 5.44296,-13.06308 2.17718,-7.62014 -10.88591,-17.41745 0,-41.36644 9.79732,-29.39195 23.94899,-25.03758 25.03759,-18.50604 3.26577,-16.32886 -9.79732,-2.17718 4.35436,-11.9745 0,-34.8349 5.44296,-7.62013 2.17718,-21.77181 4.35436,-3.26578 z"
       id="area_2"
       inkscape:connector-curvature="0"
       transform="translate(-233,126.86218)"
       sodipodi:nodetypes="ccccccccccccccccccccccccccccccccccccccccccc"
       inkscape:label="#path2998" />
    <path
       style="fill:none;stroke:#000000;stroke-width:1px;stroke-linecap:butt;stroke-linejoin:miter;stroke-opacity:1"
       d="m 592.19329,212.27517 32.65772,-2.17718 35.92349,3.26577 5.44295,9.79731 -3.26577,29.39195 4.35436,4.35436 -8.70872,2.17718 3.26577,17.41745 32.65772,38.10067 6.53154,23.949 -2.17718,22.8604 -6.53155,3.26577 5.44296,8.70873 -1.08859,312.4255 -27.21477,5.44295 -48.98658,2.17718 -37.01208,-4.35436 -17.41745,-6.53154 -3.26577,-18.50604 -4.35436,-276.50201 -1.08859,-14.15168 7.62013,-3.26577 -7.62013,-6.53155 0,-37.01208 26.12617,-39.18926 9.79732,-8.70873 1.08859,-19.59463 -7.62013,0 -1.0886,-3.26577 4.35437,-5.44295 z"
       id="area_3"
       inkscape:connector-curvature="0"
       transform="translate(-233,126.86218)"
       inkscape:label="#path3002" />
    <path
       style="fill:none;stroke:#000000;stroke-width:1px;stroke-linecap:butt;stroke-linejoin:miter;stroke-opacity:1"
       d="m 771.81074,260.17315 c 9.79731,0 67.49262,0 67.49262,0 l 1.08859,35.92349 6.53154,4.35437 -3.26577,3.26577 -8.70873,2.17718 2.17718,9.79732 31.56913,25.03758 4.35436,14.15168 -2.17718,10.8859 -1.08859,6.53155 -2.17718,133.89664 -8.70872,27.21477 1.08859,76.20134 6.53154,29.39194 0,27.21477 -8.70872,21.77181 -30.48054,4.35436 -46.8094,-1.08859 -35.92349,-9.79731 -9.79731,-14.15168 -4.35436,-34.8349 5.44295,-22.8604 5.44295,-2.17718 -2.17718,-102.32752 -5.44295,-15.24027 4.35436,-15.24027 2.17718,-107.77047 -5.44295,-18.50604 38.10067,-33.74631 1.08859,-9.79731 -7.62013,-3.26577 3.26577,-6.53155 z"
       id="area_4"
       inkscape:connector-curvature="0"
       transform="translate(-233,126.86218)"
       sodipodi:nodetypes="cccccccccccccccccccccccccccccccccc"
       inkscape:label="#path3004" />
    <path
       style="fill:none;stroke:#000000;stroke-width:1px;stroke-linecap:butt;stroke-linejoin:miter;stroke-opacity:1"
       d="m 952.51678,314.60268 23.94899,-2.17718 26.12613,1.08859 15.2403,1.08859 3.2658,14.15168 -1.0886,32.65772 -5.443,2.17718 0,7.62014 11.9745,1.08859 -13.063,5.44295 1.0885,10.88591 22.8604,16.32885 14.1517,25.03759 7.6201,26.12617 -2.1771,35.92349 -2.1772,124.09933 4.3544,19.59463 -9.7974,42.45504 -2.1771,10.8859 -20.6833,6.53155 -31.56909,1.08859 -41.36644,0 -30.48054,-7.62014 -13.06309,-15.24027 -7.62013,-19.59463 3.26577,-42.45503 2.17718,-150.2255 -2.17718,-22.86041 9.79732,-23.94899 20.68322,-20.68322 15.24027,-8.70873 1.08859,-10.8859 -7.62014,-2.17718 -1.08859,-3.26578 10.88591,-3.26577 0,-2.17718 -6.53154,-3.26577 L 945.98523,324.4 z"
       id="area_5"
       inkscape:connector-curvature="0"
       transform="translate(-233,126.86218)"
       sodipodi:nodetypes="ccccccccccccccccccccccccccccccccccccccc"
       inkscape:label="#path3006" />
    <flowRoot
       xml:space="preserve"
       id="navigation"
       style="font-size:40px;font-style:normal;font-weight:normal;line-height:125%;letter-spacing:0px;word-spacing:0px;fill:#000000;fill-opacity:1;stroke:none;font-family:Sans"
       transform="translate(-233,126.86218)"
       inkscape:label="#flowRoot3008"><flowRegion
         id="flowRegion3010"><rect
           id="rect3012"
           width="284.12216"
           height="59.872482"
           x="447.41074"
           y="65.315437" /></flowRegion><flowPara
         id="flowPara3014">1 2 3 4 5</flowPara></flowRoot>  </g>
</svg>
