<?xml version="1.0" encoding="UTF-8" standalone="no"?>
<!-- Created with Inkscape (http://www.inkscape.org/) -->

<svg
   xmlns:dc="http://purl.org/dc/elements/1.1/"
   xmlns:cc="http://creativecommons.org/ns#"
   xmlns:rdf="http://www.w3.org/1999/02/22-rdf-syntax-ns#"
   xmlns:svg="http://www.w3.org/2000/svg"
   xmlns="http://www.w3.org/2000/svg"
   xmlns:xlink="http://www.w3.org/1999/xlink"
   xmlns:sodipodi="http://sodipodi.sourceforge.net/DTD/sodipodi-0.dtd"
   xmlns:inkscape="http://www.inkscape.org/namespaces/inkscape"
   width="799"
   height="533"
   id="svg2"
   version="1.1"
   inkscape:version="0.48.3.1 r9886"
   sodipodi:docname="Gban.svg">
  <defs
     id="defs4" />
  <sodipodi:namedview
     id="base"
     pagecolor="#ffffff"
     bordercolor="#666666"
     borderopacity="1.0"
     inkscape:pageopacity="0.0"
     inkscape:pageshadow="2"
     inkscape:zoom="1"
     inkscape:cx="520.2269"
     inkscape:cy="271.92859"
     inkscape:document-units="px"
     inkscape:current-layer="layer1"
     showgrid="false"
     fit-margin-top="0"
     fit-margin-left="0"
     fit-margin-right="0"
     fit-margin-bottom="0"
     inkscape:window-width="1317"
     inkscape:window-height="744"
     inkscape:window-x="49"
     inkscape:window-y="24"
     inkscape:window-maximized="1" />
  <metadata
     id="metadata7">
    <rdf:RDF>
      <cc:Work
         rdf:about="">
        <dc:format>image/svg+xml</dc:format>
        <dc:type
           rdf:resource="http://purl.org/dc/dcmitype/StillImage" />
        <dc:title />
      </cc:Work>
    </rdf:RDF>
  </metadata>
  <g
     inkscape:label="Layer 1"
     inkscape:groupmode="layer"
     id="layer1"
     transform="translate(394.21429,-271.29077)">
    <image
       y="271.29077"
       x="-394.21429"
       id="image3044"
       xlink:href="file:///home/warfox/Dropbox/CultureLab/11-12-2012/Gban.jpg"
       height="533"
       width="799"
       inkscape:label="#image3044" />
    <path
       style="fill:none;stroke:#000000;stroke-width:1px;stroke-linecap:butt;stroke-linejoin:miter;stroke-opacity:1"
       d="m 270,136 -19,4 -17,5.5 -7.5,0 -13,2.5 -13,3 -10.5,5 -16.5,15.5 -10.5,18 -7,21.5 -9,30 -2,30.5 1,29 3.5,26 9.5,26.5 12,21 8.5,7.5 5.5,3 11,-0.5 7,-5.5 7,-20 1.5,-18 -0.5,-12.5 -1,-22.5 -1.5,-21 0,-22 2,-20 4,-14.5 3.5,-16 6.5,-10.5 9,-22.5 4,-10 3,-3.5 3.5,-4 4,-3 5.5,-3 9,-3.5 9,-3 5.5,-2 2.5,1 2.5,4.5 4,2 1.5,-3.5 1,-7 -2,-4 -3,-1 -3.5,-0.5 -5.5,-1.5 z"
       id="area_5"
       inkscape:connector-curvature="0"
       transform="translate(-394.21429,271.29077)"
       inkscape:label="#path3049" />
    <path
       style="fill:none;stroke:#000000;stroke-width:1px;stroke-linecap:butt;stroke-linejoin:miter;stroke-opacity:1"
       d="m 375,157.5 -8.5,0 -12,0.5 -3.5,0 -6.5,-3.5 -13,-2.5 -12,0 -13,4.5 -9,5 -9.5,8.5 -7,9 -5,7 -5.5,13.5 -4.5,18.5 -2,13.5 -0.5,12.5 0.5,19.5 2,19 2,22 1.5,14 5.5,21.5 6.5,13 2,4 3,5.5 2,4.5 7,-1 6,-2 6.5,-9.5 8.5,-15.5 4,-12 2,-11.5 -0.5,-27 -2.5,-22 -1.5,-13 0,-20 5,-22.5 14.5,-18.5 13,-12 5,-5.5 4.5,-3.5 9,-0.5 9.5,-3.5 3.5,0 4.5,2.5 1.5,-6 -2,-4 z"
       id="area_4"
       inkscape:connector-curvature="0"
       transform="translate(-394.21429,271.29077)"
       inkscape:label="#path3051" />
    <path
       style="fill:none;stroke:#000000;stroke-width:1px;stroke-linecap:butt;stroke-linejoin:miter;stroke-opacity:1"
       d="m 471.5,172.5 -22.5,0.5 -7,-0.5 -12.5,-5.5 -16.5,0 -13.5,5 -15.5,11 -14.5,18 -8,19 -3,14.5 1.5,11.5 0.5,9.5 3.5,14 3.5,11.5 21.5,39.5 13,14 8,10.5 21,5.5 8,2.5 10.5,-4 -2.5,-4.5 0,-7 -0.5,-8.5 -4.5,-17 -3.5,-10.5 -7,-13.5 -10.5,-22 -4,-17.5 -1.5,-12 3.5,-10 3,-9 11,-10.5 6,-4 9,-8.5 2.5,-3 6,-2.5 7,-1 8.5,-1 2.5,-1.5 5.5,-2.5 6,0 2,-2.5 -1.5,-4 -2.5,-2.5 -3.5,0 -4.5,-1 z"
       id="area_3"
       inkscape:connector-curvature="0"
       transform="translate(-394.21429,271.29077)"
       inkscape:label="#path3053" />
    <path
       style="fill:none;stroke:#000000;stroke-width:1px;stroke-linecap:butt;stroke-linejoin:miter;stroke-opacity:1"
       d="m 578,164.5 -2,9 -4,3.5 -6.5,0.5 -4.5,0 -10,5 -10.5,3.5 -24.5,-1 -18,5.5 -17,10.5 -12,16 -7,14 -1,12.5 -3,10 1.5,10.5 0.5,12 1,7.5 3,9 3.5,8 4.5,8.5 4,7 8.5,11 11,10 13.5,6.5 16.5,6.5 16,1.5 14.5,-0.5 7,-6.5 -1,-10.5 -10,-7.5 -3,-4 -4.5,-5.5 -4.5,-7.5 -7,-8.5 -8.5,-10 -4,-8.5 -4.5,-10 -3,-8.5 0,-6 1,-7.5 1.5,-7.5 3.5,-6 7.5,-11 7.5,-7.5 9,-12 2,-7 4,-2.5 8,-3.5 7,-4 9.5,-6 7.5,-6 2,-5.5 2,-3 1.5,-2.5 -2.5,-4 -4.5,-0.5 z"
       id="area_2"
       inkscape:connector-curvature="0"
       transform="translate(-394.21429,271.29077)"
       inkscape:label="#path3055" />
    <path
       style="fill:none;stroke:#000000;stroke-width:1px;stroke-linecap:butt;stroke-linejoin:miter;stroke-opacity:1"
       d="m 656,176 -4,6.5 -7.5,4.5 -9.5,4 -11,4 -21.5,-4 -14.5,6.5 -11.5,7.5 -8,12 -5.5,11.5 -2.5,14.5 0,9.5 1.5,13 3.5,16 11,18.5 8,11 10.5,11 15.5,11.5 10.5,5 16,5 18.5,0.5 10,-2 4,-1 3.5,-0.5 -0.5,-5.5 2,-4 1.5,-4.5 -3,-3.5 -5,-2 -5.5,-2.5 -3,-4.5 -5.5,-6 -7.5,-7.5 -8.5,-6.5 -6.5,-8 -8.5,-9 -6.5,-9.5 -2.5,-11.5 -0.5,-8.5 5,-12.5 c 0,0 2,-4.5 3.5,-6.5 1.5,-2 7.5,-10 7.5,-10 l 2,-5 2.5,-5.5 4.5,-5 10.5,-8 7.5,-3 7.5,-4 2,-8 -2,-4 z"
       id="area_1"
       inkscape:connector-curvature="0"
       transform="translate(-394.21429,271.29077)"
       inkscape:label="#path3057" />
    <text
       xml:space="preserve"
       style="font-size:40px;font-style:normal;font-weight:normal;line-height:125%;letter-spacing:0px;word-spacing:0px;fill:#000000;fill-opacity:1;stroke:none;font-family:Sans"
       x="-72.214287"
       y="343.29077"
       id="navigation"
       sodipodi:linespacing="125%"
       inkscape:label="#text3059"><tspan
         sodipodi:role="line"
         id="tspan3061"
         x="-72.214287"
         y="343.29077">5 4 3 2 1</tspan></text>
  </g>
</svg>
