<?xml version="1.0" encoding="UTF-8" standalone="no"?>
<!-- Created with Inkscape (http://www.inkscape.org/) -->

<svg
   xmlns:dc="http://purl.org/dc/elements/1.1/"
   xmlns:cc="http://creativecommons.org/ns#"
   xmlns:rdf="http://www.w3.org/1999/02/22-rdf-syntax-ns#"
   xmlns:svg="http://www.w3.org/2000/svg"
   xmlns="http://www.w3.org/2000/svg"
   xmlns:xlink="http://www.w3.org/1999/xlink"
   xmlns:sodipodi="http://sodipodi.sourceforge.net/DTD/sodipodi-0.dtd"
   xmlns:inkscape="http://www.inkscape.org/namespaces/inkscape"
   width="799"
   height="533"
   id="svg2"
   version="1.1"
   inkscape:version="0.48.3.1 r9886"
   sodipodi:docname="Gbcn.svg">
  <defs
     id="defs4" />
  <sodipodi:namedview
     id="base"
     pagecolor="#ffffff"
     bordercolor="#666666"
     borderopacity="1.0"
     inkscape:pageopacity="0.0"
     inkscape:pageshadow="2"
     inkscape:zoom="1"
     inkscape:cx="457.29235"
     inkscape:cy="283.64287"
     inkscape:document-units="px"
     inkscape:current-layer="layer1"
     showgrid="false"
     fit-margin-top="0"
     fit-margin-left="0"
     fit-margin-right="0"
     fit-margin-bottom="0"
     inkscape:window-width="1317"
     inkscape:window-height="744"
     inkscape:window-x="49"
     inkscape:window-y="24"
     inkscape:window-maximized="1" />
  <metadata
     id="metadata7">
    <rdf:RDF>
      <cc:Work
         rdf:about="">
        <dc:format>image/svg+xml</dc:format>
        <dc:type
           rdf:resource="http://purl.org/dc/dcmitype/StillImage" />
        <dc:title></dc:title>
      </cc:Work>
    </rdf:RDF>
  </metadata>
  <g
     inkscape:label="Layer 1"
     inkscape:groupmode="layer"
     id="layer1"
     transform="translate(410.92859,-203.00505)">
    <image
       y="203.00505"
       x="-410.92859"
       id="image3272"
       xlink:href="file:///media/01/Gbcn.jpg"
       height="533"
       width="799" />
    <path
       style="fill:none;stroke:#000000;stroke-width:1px;stroke-linecap:butt;stroke-linejoin:miter;stroke-opacity:1"
       d="m 465,142 -17,18 -9,20 7,27 18,28 17,13 21,22 18,12 16,2 13,-14 6,-7 12,7 20,10 20,-4 26,-2 -5,-6 3,-3 0,-4 -1,-3 -5,0 -7,0 -5,-6 -5,-2 -4,0 -4,-6 4,1 1,-4 -10,-8 -4,-6 0,-4 -6,-3 1,-7 4,3 3,-6 -7,-13 -13,-7 -6,-3 -2,-8 3,-5 -5,-5 -6,-8 -8,-6 -9,2 -12,3 -4,0 -11,-3 -3,-3 -5,-11 -13,-6 -17,3 z"
       id="area_5"
       inkscape:connector-curvature="0"
       transform="translate(-410.92859,203.00505)"
       inkscape:label="#path3294" />
    <path
       style="fill:none;stroke:#000000;stroke-width:1px;stroke-linecap:butt;stroke-linejoin:miter;stroke-opacity:1"
       d="m 542,79 -5,6 -1,8 -3,3 -3,2 -4,8 10,7 9,-2 17,6 10,2 4,9 -4,-1 6,12 4,12 5,17 5,16 -1,5 2,10 9,7 10,6 10,-6 13,-2 13,-13 2,19 -4,11 8,10 14,8 10,4 13,6 8,-4 9,-7 -1,-9 10,2 -7,-16 -5,-1 -5,-3 -2,-4 -5,2 4,12 -5,5 -3,2 -1,-5 1,-12 0,-15 -3,-8 -3,-9 -10,-12 -13,-14 -7,-4 -9,-4 -8,-10 -9,-15 -2,-11 -5,-4 -10,0 -13,-9 -8,0 -13,-7 -8,-5 -10,0 -5,0 -3,-4 z"
       id="area_1"
       inkscape:connector-curvature="0"
       transform="translate(-410.92859,203.00505)"
       inkscape:label="#path3296" />
    <path
       style="fill:none;stroke:#000000;stroke-width:1px;stroke-linecap:butt;stroke-linejoin:miter;stroke-opacity:1"
       d="m 298,340 -3,7 12,14 16,4 7,8 1,13 11,16 12,0 0,-5 1,-7 4,-6 0,-2 8,3 10,-3 8,-3 -2,-8 -19,-13 -5,-6 -4,-3 -6,-7 -9,-13 -5,-6 -2,-6 -2,-11 0,-7 -4,-1 -2,1 -4,-1 7,-5 -2,-6 2,-6 -3,-6 -4,-5 -8,-6 -13,-4 -2,-5 -11,-15 -11,-20 -14,2 -5,8 3,12 3,7 -7,-1 -5,12 3,13 8,18 11,17 11,15 z"
       id="area_2"
       inkscape:connector-curvature="0"
       transform="translate(-410.92859,203.00505)"
       inkscape:label="#path3298" />
    <path
       style="fill:none;stroke:#000000;stroke-width:1px;stroke-linecap:butt;stroke-linejoin:miter;stroke-opacity:1"
       d="m 194,246 -8,12 -7,2 -1,8 -3,1 0,4 -3,11 2,14 2,9 3,8 8,17 21,19 29,16 4,4 10,17 8,9 -5,7 9,12 13,14 11,2 7,0 7,-14 3,-10 -2,-6 -10,-17 -10,-16 -8,-13 -7,-8 -5,-9 -2,-14 -1,-8 -7,-8 -10,-6 -6,-9 -4,-9 -4,-9 -2,-9 -5,1 -3,1 -9,-10 -2,0 -2,0 5,-6 -2,-7 -2,-1 z"
       id="area_3"
       inkscape:connector-curvature="0"
       transform="translate(-410.92859,203.00505)"
       inkscape:label="#path3300" />
    <path
       style="fill:none;stroke:#000000;stroke-width:1px;stroke-linecap:butt;stroke-linejoin:miter;stroke-opacity:1"
       d="m 125,280 -9,17 -4,5 -9,6 -12,13 -3,16 8,23 14,14 26,11 14,3 7,-1 3,10 4,10 3,16 3,2 0,9 11,5 15,-3 4,-5 c 0,0 -3,-11 -3,-15 0,-4 0,-14 0,-14 l 0,-9 0,-1 1,-4 3,-3 -4,-17 0,-10 -8,-4 -2,-1 -4,-14 -6,-10 -6,-14 -4,-5 -8,-1 -13,-3 -8,-6 -4,-8 -4,-8 0,-3 z"
       id="area_4"
       inkscape:connector-curvature="0"
       transform="translate(-410.92859,203.00505)"
       inkscape:label="#path3302" />
    <text
       xml:space="preserve"
       style="font-size:48px;font-style:normal;font-weight:normal;line-height:125%;letter-spacing:0px;word-spacing:0px;fill:#000000;fill-opacity:1;stroke:none;font-family:Sans"
       x="484"
       y="445"
       id="navigation"
       sodipodi:linespacing="125%"
       transform="translate(-410.92859,203.00505)"
       inkscape:label="#text3312"><tspan
         sodipodi:role="line"
         id="tspan3314"
         x="484"
         y="445">5 1 4 3 2</tspan></text>
  </g>
</svg>
