<?xml version="1.0" encoding="UTF-8" standalone="no"?>
<!-- Created with Inkscape (http://www.inkscape.org/) -->

<svg
   xmlns:dc="http://purl.org/dc/elements/1.1/"
   xmlns:cc="http://creativecommons.org/ns#"
   xmlns:rdf="http://www.w3.org/1999/02/22-rdf-syntax-ns#"
   xmlns:svg="http://www.w3.org/2000/svg"
   xmlns="http://www.w3.org/2000/svg"
   xmlns:xlink="http://www.w3.org/1999/xlink"
   xmlns:sodipodi="http://sodipodi.sourceforge.net/DTD/sodipodi-0.dtd"
   xmlns:inkscape="http://www.inkscape.org/namespaces/inkscape"
   width="799"
   height="533"
   id="svg2"
   version="1.1"
   inkscape:version="0.48.3.1 r9886"
   sodipodi:docname="Gbisc.svg">
  <defs
     id="defs4" />
  <sodipodi:namedview
     id="base"
     pagecolor="#ffffff"
     bordercolor="#666666"
     borderopacity="1.0"
     inkscape:pageopacity="0.0"
     inkscape:pageshadow="2"
     inkscape:zoom="1"
     inkscape:cx="448.18814"
     inkscape:cy="400.78571"
     inkscape:document-units="px"
     inkscape:current-layer="layer1"
     showgrid="false"
     fit-margin-top="0"
     fit-margin-left="0"
     fit-margin-right="0"
     fit-margin-bottom="0"
     inkscape:window-width="1317"
     inkscape:window-height="744"
     inkscape:window-x="49"
     inkscape:window-y="24"
     inkscape:window-maximized="1" />
  <metadata
     id="metadata7">
    <rdf:RDF>
      <cc:Work
         rdf:about="">
        <dc:format>image/svg+xml</dc:format>
        <dc:type
           rdf:resource="http://purl.org/dc/dcmitype/StillImage" />
        <dc:title></dc:title>
      </cc:Work>
    </rdf:RDF>
  </metadata>
  <g
     inkscape:label="Layer 1"
     inkscape:groupmode="layer"
     id="layer1"
     transform="translate(439.5,-40.147896)">
    <image
       y="40.147896"
       x="-439.5"
       id="image3248"
       xlink:href="file:///media/01/Gbisc.jpg"
       height="533"
       width="799" />
    <path
       style="fill:none;stroke:#000000;stroke-width:1px;stroke-linecap:butt;stroke-linejoin:miter;stroke-opacity:1"
       d="m 141,121 -0.5,5 -1.5,1 0,0 -6,6.5 -2,2.5 -1.5,4 1.5,1.5 0,4.5 -1,4.5 -2.5,3 -1,2 -3.5,4 0.5,8.5 2,7 0.5,7.5 4.5,5.5 10.5,7 6.5,4.5 10,2 20,2.5 20.5,1.5 12,-1 6.5,-2.5 8,-3 5.5,-0.5 13.5,-8.5 3.5,-4.5 9,-5.5 7,-8 5,-6.5 3,-6.5 1.5,-4.5 -0.5,-2.5 -1,0 0,-8 -0.5,-2 2,-2 1.5,-2 -1,-2 -1,-3 -3.5,-4 -0.5,-3 -0.5,-3.5 -5,0 -5,-2 -9,-6.5 -8.5,-4 -4.5,-3 -5.5,-1.5 -9.5,-3 -13,-1 -14.5,-2 -11.5,0.5 -3,1 -7,0 -8.5,3 -4,7.5 -3,3 -3,0 -3.5,1 -0.5,2.5 -1,1.5 -3.5,-1 z"
       id="area_1"
       inkscape:connector-curvature="0"
       transform="translate(-439.5,40.147896)"
       inkscape:label="#path3270" />
    <path
       style="fill:none;stroke:#000000;stroke-width:1px;stroke-linecap:butt;stroke-linejoin:miter;stroke-opacity:1"
       d="m 342.5,106 -17,1 -17,3.5 -12,6 -9,8 -8,10 -3.5,7.5 -2,6 -1,12 6.5,15 8.5,5.5 15.5,10.5 23.5,5 14,-0.5 23.5,-6 18.5,-9.5 5,-7.5 6.5,-5 3.5,-5 -2,-5.5 1.5,-5.5 1.5,-1 1.5,-8 -1,-11 -5,-7.5 -8.5,-6 -3.5,-1.5 -9,-2.5 -7,-2.5 -7.5,-3.5 -11.5,-1.5 z"
       id="area_2"
       inkscape:connector-curvature="0"
       transform="translate(-439.5,40.147896)"
       inkscape:label="#path3272" />
    <path
       style="fill:none;stroke:#000000;stroke-width:1px;stroke-linecap:butt;stroke-linejoin:miter;stroke-opacity:1"
       d="m 434,119.5 -14.5,6.5 -9.5,7.5 -3.5,10.5 -1.5,4.5 1,6 1,8 8.5,9 10,7 16.5,4 19.5,-3 16,-3 6,-5.5 8.5,-6 2,-14.5 -2.5,-4 -1.5,-3 0,-4 -6.5,-7 -13.5,-8.5 -1.5,-1.5 c 0,0 -2.5,-1 -2.5,1 0,2 -3.5,-2 -3.5,-2 L 452,120 441.5,119 z"
       id="area_3"
       inkscape:connector-curvature="0"
       transform="translate(-439.5,40.147896)"
       inkscape:label="#path3274" />
    <path
       style="fill:none;stroke:#000000;stroke-width:1px;stroke-linecap:butt;stroke-linejoin:miter;stroke-opacity:1"
       d="m 536,120 -12.5,4.5 -3.5,0 -4,0 -2.5,1.5 -1,3 -2,3 -3.5,1 -5,6.5 -1,5.5 -1.5,11 2,7 3.5,8.5 11,6.5 9,4 11,0 13,0.5 12,-1.5 11.5,-2.5 6,-5.5 7,-6.5 2,-7 -0.5,-6.5 -0.5,-5.5 -3,-5.5 -1.5,-4 -4.5,-6 -1.5,-4.5 -11,-3.5 -7,-0.5 -6,-1.5 -2.5,0 -5,-1 z"
       id="area_4"
       inkscape:connector-curvature="0"
       transform="translate(-439.5,40.147896)"
       inkscape:label="#path3276" />
    <path
       style="fill:none;stroke:#000000;stroke-width:1px;stroke-linecap:butt;stroke-linejoin:miter;stroke-opacity:1"
       d="m 616.5,128 -11.5,3.5 -3.5,1.5 -3,4 -3,6 -2.5,4 -0.5,8 4.5,10.5 3.5,7.5 8.5,4 10,3 12,0.5 12,1.5 9,-4.5 8.5,-2.5 4.5,-4.5 2.5,-5.5 1.5,-11.5 -2.5,-2.5 2,-3.5 -7,-6 -7.5,-5 -7.5,-4.5 -10.5,-2.5 -9,-1 z"
       id="area_5"
       inkscape:connector-curvature="0"
       transform="translate(-439.5,40.147896)"
       inkscape:label="#path3278" />
    <path
       style="fill:none;stroke:#000000;stroke-width:1px;stroke-linecap:butt;stroke-linejoin:miter;stroke-opacity:1"
       d="m 147,203.5 -19.5,7.5 -9.5,6 -8.5,6 -6,9 -1.5,10.5 0,8.5 4.5,8.5 5.5,7 4,5.5 9,2.5 11.5,3 17.5,0.5 12.5,-2.5 15.5,-5.5 11,-7 10,-8 7.5,-9.5 -1,-2 1.5,-10 c 0,0 1,-4 0,-6.5 -1,-2.5 -7,-10 -7,-10 l -4,-6 -2.5,-0.5 -3.5,-0.5 -1.5,-1.5 -6,-2.5 -12.5,-2.5 -5.5,-0.5 -10.5,-0.5 z"
       id="area_11"
       inkscape:connector-curvature="0"
       transform="translate(-439.5,40.147896)"
       inkscape:label="#path3280" />
    <path
       style="fill:none;stroke:#000000;stroke-width:1px;stroke-linecap:butt;stroke-linejoin:miter;stroke-opacity:1"
       d="m 244.5,204 -14.5,7 -10.5,7.5 -4,6 -1,3 -1.5,2 -1,13 4,10 10,11.5 10,4.5 13,3 12.5,0.5 7.5,0 7.5,-1.5 11.5,-4.5 7.5,-5 8,-6 5.5,-7 3,-8 -1,-11 -5.5,-12 -8.5,-8 -10,-3 -10.5,-2.5 -8,-1 -13.5,0.5 z"
       id="area_10"
       inkscape:connector-curvature="0"
       transform="translate(-439.5,40.147896)"
       inkscape:label="#path3282" />
    <path
       style="fill:none;stroke:#000000;stroke-width:1px;stroke-linecap:butt;stroke-linejoin:miter;stroke-opacity:1"
       d="m 347.5,205.5 -11.5,5 -7,4 -9,9.5 -3,6 -1,8 1.5,12.5 7.5,10.5 10,8.5 11.5,2.5 11.5,1.5 7,0.5 14,-3 12,-5 10.5,-7.5 5,-9.5 2.5,-16 -5,-11 -8,-9 -12,-6 -15,-2.5 -10.5,0 z"
       id="area_9"
       inkscape:connector-curvature="0"
       transform="translate(-439.5,40.147896)"
       inkscape:label="#path3284" />
    <path
       style="fill:none;stroke:#000000;stroke-width:1px;stroke-linecap:butt;stroke-linejoin:miter;stroke-opacity:1"
       d="m 455.5,204 -11,2.5 -3.5,2 -4.5,1.5 -2,3 -8,0 -4.5,5.5 -4.5,4.5 -4.5,6.5 -0.5,4.5 0.5,9 5,12.5 4.5,6 7,6 10.5,4.5 7,1.5 7.5,1 12.5,1.5 13.5,-3 10,-4.5 5.5,-2 9.5,-8 5.5,-15 -2,-9.5 -2.5,-8 -8,-11 -8.5,-5.5 -13,-3.5 -13.5,-2 z"
       id="area_8"
       inkscape:connector-curvature="0"
       transform="translate(-439.5,40.147896)"
       inkscape:label="#path3286" />
    <path
       style="fill:none;stroke:#000000;stroke-width:1px;stroke-linecap:butt;stroke-linejoin:miter;stroke-opacity:1"
       d="m 547.5,208 -10.5,3 -3,0.5 -1.5,0.5 -3.5,2.5 -2.5,0 -1.5,1 -4.5,3 -3,2 -1.5,6.5 -2.5,1.5 0.5,4.5 0,4.5 2.5,8.5 4.5,8 5,2.5 4,2 2,2 3.5,1 2.5,1.5 6.5,1.5 9.5,2 5,2 4.5,-1.5 10.5,-0.5 7,-3 4,0.5 7.5,-3.5 0,-3.5 2.5,-2 2,-5.5 1,-11 -0.5,-5.5 -0.5,-1 -2.5,-5 -1,-2.5 -2.5,0 0,-2.5 -3.5,-2 -3,-2.5 -4,-2.5 -8.5,-2.5 -5,-2 -7,-2 -4.5,0 z"
       id="area_7"
       inkscape:connector-curvature="0"
       transform="translate(-439.5,40.147896)"
       inkscape:label="#path3288" />
    <path
       style="fill:none;stroke:#000000;stroke-width:1px;stroke-linecap:butt;stroke-linejoin:miter;stroke-opacity:1"
       d="m 641.5,209 -18,2 -11.5,4.5 -5,6 -5,9 1,6 4.5,10.5 1,5.5 8.5,7.5 9.5,5.5 10.5,2.5 10,2.5 c 0,0 5.5,0 9,0 3.5,0 7,-1 7,-1 l 12.5,-5 6.5,-8 5.5,-7 -0.5,-9 -5,-10 -7,-9 -8,-4.5 -8.5,-3 -8,-2.5 z"
       id="area_6"
       inkscape:connector-curvature="0"
       transform="translate(-439.5,40.147896)"
       inkscape:label="#path3290" />
    <path
       style="fill:none;stroke:#000000;stroke-width:1px;stroke-linecap:butt;stroke-linejoin:miter;stroke-opacity:1"
       d="m 181,289 -9,-2 -6.5,-1 -5.5,2 -4.5,5 -6,4.5 -3.5,4 0.5,5 -1,5.5 -2,1.5 2,3 3.5,6.5 7,6.5 0,5 3,6 3.5,5.5 7.5,4 6,0.5 3,-1 6,-1 10.5,-4.5 6,-7.5 2,-6.5 9,-3 5,-7.5 3,-7.5 0,-5.5 -1,-5 -4.5,-5 -5.5,-6 -7.5,-1.5 -8,-1 -5,1 -2,0.5 -1.5,0.5 z"
       id="area_12"
       inkscape:connector-curvature="0"
       transform="translate(-439.5,40.147896)"
       inkscape:label="#path3292" />
    <path
       style="fill:none;stroke:#000000;stroke-width:1px;stroke-linecap:butt;stroke-linejoin:miter;stroke-opacity:1"
       d="m 290,280.5 -13,0 -11,0.5 -7,-0.5 -3.5,0.5 -4,1.5 -3.5,2 -2,2 -2,3 -1.5,6 -2.5,17 -1.5,15.5 0,8 -0.5,10.5 0,3 1.5,2.5 14,0 5.5,0 8,0 7,0.5 7,0 8,0 9.5,0 4,-1 1,-13.5 1,-11.5 1.5,-13 0,-11.5 0,-6.5 -2,-5 -1.5,-4 -4.5,-3.5 -3,-2.5 z"
       id="area_13"
       inkscape:connector-curvature="0"
       transform="translate(-439.5,40.147896)"
       inkscape:label="#path3294" />
    <path
       style="fill:none;stroke:#000000;stroke-width:1px;stroke-linecap:butt;stroke-linejoin:miter;stroke-opacity:1"
       d="m 372,278.5 -9.5,-0.5 -7,0 -7,0.5 -3,0 -6,0 -3.5,0 -2,1.5 -1.5,0.5 -3,4.5 -0.5,8 0,7.5 -1.5,14.5 -0.5,18.5 -1,13 0,3 2,3 7,0 11,0 11.5,0 15,0.5 10,0 6,-1.5 0,-12 0.5,-13 -0.5,-5 0,-8.5 0.5,-9.5 0.5,-9 0.5,-7.5 -2.5,-7.5 -6.5,-0.5 -3.5,0 z"
       id="area_14"
       inkscape:connector-curvature="0"
       transform="translate(-439.5,40.147896)"
       inkscape:label="#path3296" />
    <path
       style="fill:none;stroke:#000000;stroke-width:1px;stroke-linecap:butt;stroke-linejoin:miter;stroke-opacity:1"
       d="m 457,293.5 -14.5,0 -8.5,0.5 -8.5,0 -4.5,1.5 -1.5,0.5 -2,4 -2.5,6 2,10 0,8.5 0.5,14.5 0.5,6 0.5,6 3.5,2 5,0 5,0 5,0 15,-0.5 13.5,0.5 9.5,-1 4,-3 1.5,-6 0.5,-9 -2,-13.5 -3,-15.5 -2.5,-9.5 -2.5,-2 -4,-1 z"
       id="area_15"
       inkscape:connector-curvature="0"
       transform="translate(-439.5,40.147896)"
       inkscape:label="#path3298" />
    <path
       style="fill:none;stroke:#000000;stroke-width:1px;stroke-linecap:butt;stroke-linejoin:miter;stroke-opacity:1"
       d="m 523,265 -2.5,4.5 -1.5,1 -3,3.5 1,12 1.5,7.5 -0.5,6.5 1,8 2,12 0.5,11.5 2,8.5 2,9.5 1.5,4 5.5,1.5 10,0 12,0 8,0 3,0.5 3,-1 -4.5,-12 -2,-13.5 -1.5,-15 -2,-17 -1,-12.5 -2,-9.5 -0.5,-4 -2.5,-2.5 0,-2 -5,-1 -7,-0.5 -4,0 -8,0.5 z"
       id="area_16"
       inkscape:connector-curvature="0"
       transform="translate(-439.5,40.147896)"
       inkscape:label="#path3300" />
    <path
       style="fill:none;stroke:#000000;stroke-width:1px;stroke-linecap:butt;stroke-linejoin:miter;stroke-opacity:1"
       d="m 613.5,265.5 -3.5,0.5 -1.5,0.5 -1.5,2 -0.5,1.5 -1,3 -1.5,8 1,9 1.5,9.5 1.5,10 1,6 0.5,7 2,10.5 -1,9.5 2,7 3,5.5 9.5,0 4.5,-0.5 0.5,-12.5 -3,-17 -2.5,-12 -1,-12 -1.5,-15 -1.5,-9.5 -2,-9 z"
       id="area_17"
       inkscape:connector-curvature="0"
       transform="translate(-439.5,40.147896)"
       inkscape:label="#path3302" />
    <text
       xml:space="preserve"
       style="font-size:41.2850914px;font-style:normal;font-weight:normal;line-height:125%;letter-spacing:0px;word-spacing:0px;fill:#000000;fill-opacity:1;stroke:none;font-family:Sans"
       x="-465.20743"
       y="75.816559"
       id="navigation"
       sodipodi:linespacing="125%"
       inkscape:label="#text3304"
       transform="scale(0.86010608,1.1626473)"><tspan
         sodipodi:role="line"
         id="tspan3306"
         x="-465.20743"
         y="75.816559">1 2 3 4 5 11 10 9 8 7 6 12 13 14 15 16 17</tspan></text>
  </g>
</svg>
