<?xml version="1.0" encoding="UTF-8" standalone="no"?>
<!-- Created with Inkscape (http://www.inkscape.org/) -->

<svg
   xmlns:dc="http://purl.org/dc/elements/1.1/"
   xmlns:cc="http://creativecommons.org/ns#"
   xmlns:rdf="http://www.w3.org/1999/02/22-rdf-syntax-ns#"
   xmlns:svg="http://www.w3.org/2000/svg"
   xmlns="http://www.w3.org/2000/svg"
   xmlns:xlink="http://www.w3.org/1999/xlink"
   xmlns:sodipodi="http://sodipodi.sourceforge.net/DTD/sodipodi-0.dtd"
   xmlns:inkscape="http://www.inkscape.org/namespaces/inkscape"
   width="744.09448819"
   height="1052.3622047"
   id="svg2"
   version="1.1"
   inkscape:version="0.48.3.1 r9886"
   sodipodi:docname="Gbonti.svg">
  <defs
     id="defs4" />
  <sodipodi:namedview
     id="base"
     pagecolor="#ffffff"
     bordercolor="#666666"
     borderopacity="1.0"
     inkscape:pageopacity="0.0"
     inkscape:pageshadow="2"
     inkscape:zoom="0.35"
     inkscape:cx="-611.42861"
     inkscape:cy="977.14286"
     inkscape:document-units="px"
     inkscape:current-layer="layer1"
     showgrid="false"
     inkscape:window-width="1317"
     inkscape:window-height="744"
     inkscape:window-x="49"
     inkscape:window-y="24"
     inkscape:window-maximized="1" />
  <metadata
     id="metadata7">
    <rdf:RDF>
      <cc:Work
         rdf:about="">
        <dc:format>image/svg+xml</dc:format>
        <dc:type
           rdf:resource="http://purl.org/dc/dcmitype/StillImage" />
        <dc:title></dc:title>
      </cc:Work>
    </rdf:RDF>
  </metadata>
  <g
     inkscape:label="Layer 1"
     inkscape:groupmode="layer"
     id="layer1">
    <image
       y="-873.35211"
       x="-2102.8572"
       id="image3336"
       xlink:href="file:///media/01/Gbonti.jpg"
       height="2000"
       width="3000" />
    <path
       style="fill:none;stroke:#000000;stroke-width:1px;stroke-linecap:butt;stroke-linejoin:miter;stroke-opacity:1"
       d="M -548.57143,-307.63782 -880,-299.06639 l -145.7143,2.85714 -45.7143,0 -34.2857,8.57143 -14.2857,5.71429 -22.8571,-14.28572 -11.4286,0 -14.2857,0 -5.7143,5.71429 -5.7143,31.42857 2.8571,54.28572 0,22.85714 0,42.85714 48.5715,-8.57143 31.4285,0 28.5715,5.71429 25.7143,-8.57143 242.8571,8.57143 340,0 280,-14.28572 88.571429,-2.85714 62.857142,-5.71428 57.142858,11.42857 -5.714286,-28.57143 2.857143,-25.71429 0,-28.57143 0,-20 0,-14.28571 -2.857143,-37.14286 -14.2857144,-34.28571 -34.2857146,5.71428 -31.428571,20 -14.285714,0 -22.857143,8.57143 -77.142856,0 -120,2.85715 -102.85714,5.71428 -102.85715,-5.71428 z"
       id="area_1"
       inkscape:connector-curvature="0"
       inkscape:label="#path3358" />
    <path
       style="fill:none;stroke:#000000;stroke-width:1px;stroke-linecap:butt;stroke-linejoin:miter;stroke-opacity:1"
       d="m -614.28571,-73.352103 -171.42858,2.857143 -105.71428,2.857143 -31.42857,5.714285 -22.85715,5.714286 -42.85714,-20 -17.14287,-14.285714 -11.4286,-8.571429 -2.8571,60 2.8571,71.428572 -5.7142,25.714285 0,17.142857 28.57139,25.714285 31.42857,-19.999999 48.57143,14.285714 142.85714,-2.857142 231.42857,2.857142 217.14286,-11.428571 122.85714,0 40,-2.857143 22.85714,-28.571428 -8.57143,-37.142858 -5.71428,-42.857142 2.85714,-25.714286 -2.85714,-28.571429 -5.71429,-11.428571 -2.85714,-5.714286 -2.85714,-5.714281 -28.57143,25.714281 -20,5.714286 -2.85714,2.857143 -22.85715,-5.714286 -48.57143,-2.857143 -105.71428,5.714286 -131.42857,-2.857143 c 0,0 45.71428,2.857143 -14.28572,2.857143 -60,0 -77.14285,0 -77.14285,0 z"
       id="area_2"
       inkscape:connector-curvature="0"
       inkscape:label="#path3360" />
    <path
       style="fill:none;stroke:#000000;stroke-width:1px;stroke-linecap:butt;stroke-linejoin:miter;stroke-opacity:1"
       d="m -714.28571,149.50504 -140,-2.85714 -57.14286,-2.85715 -31.42857,0 -14.28572,0 -28.57143,-17.14285 -25.71431,-14.28572 -17.1428,8.57143 -11.4286,34.28572 5.7143,34.28571 -8.5714,48.57143 -11.4286,34.28571 -5.7143,40 37.1429,14.28572 5.7142,-8.57143 131.42861,2.85714 140,0 91.42858,0 14.28571,-8.57143 51.42857,0 17.14286,0 11.42857,14.28572 25.71429,-14.28572 17.14285,-25.71428 -5.71428,-25.71429 -11.42857,-20 L -540,206.6479 l 14.28571,-45.71429 -2.85714,-37.14286 -28.57143,-14.28571 -11.42857,22.85714 -14.28571,22.85715 -42.85715,-5.71429 -37.14285,-2.85714 z"
       id="area_3"
       inkscape:connector-curvature="0"
       inkscape:label="#path3362" />
    <path
       style="fill:none;stroke:#000000;stroke-width:1px;stroke-linecap:butt;stroke-linejoin:miter;stroke-opacity:1"
       d="m -220,166.6479 -88.57143,-2.85715 -25.71428,0 -17.14286,11.42858 -11.42857,14.28571 -8.57143,8.57143 -11.42857,2.85714 -57.14286,-5.71428 -31.42857,14.28571 -11.42857,17.14286 -2.85715,20 17.14286,0 20,5.71428 17.14286,25.71429 17.14286,-5.71429 22.85714,-20 20,-2.85714 14.28571,14.28571 20,20 60,8.57143 88.57143,0 22.85714,-17.14285 31.42858,-22.85715 17.14285,-14.28571 20.000003,0 22.857143,-11.42857 17.142857,-14.28572 -11.428572,-34.28571 -8.571428,-2.85714 -25.714283,-2.85715 -22.85715,5.71429 -11.42857,0 -2.85714,14.28571 -20,-11.42857 -8.57143,-5.71428 -11.42857,-2.85715 -14.28571,-2.85714 z"
       id="area_4"
       inkscape:connector-curvature="0"
       inkscape:label="#path3364" />
    <text
       xml:space="preserve"
       style="font-size:48px;font-style:normal;font-weight:normal;line-height:125%;letter-spacing:0px;word-spacing:0px;fill:#000000;fill-opacity:1;stroke:none;font-family:Sans"
       x="-1620"
       y="466.64789"
       id="navigation"
       sodipodi:linespacing="125%"
       inkscape:label="#text3366"><tspan
         sodipodi:role="line"
         id="tspan3368"
         x="-1620"
         y="466.64789">1 2 3 4</tspan></text>
  </g>
</svg>
