<?xml version="1.0" encoding="UTF-8" standalone="no"?>
<!-- Created with Inkscape (http://www.inkscape.org/) -->

<svg
   xmlns:dc="http://purl.org/dc/elements/1.1/"
   xmlns:cc="http://creativecommons.org/ns#"
   xmlns:rdf="http://www.w3.org/1999/02/22-rdf-syntax-ns#"
   xmlns:svg="http://www.w3.org/2000/svg"
   xmlns="http://www.w3.org/2000/svg"
   xmlns:xlink="http://www.w3.org/1999/xlink"
   xmlns:sodipodi="http://sodipodi.sourceforge.net/DTD/sodipodi-0.dtd"
   xmlns:inkscape="http://www.inkscape.org/namespaces/inkscape"
   width="4288"
   height="1791"
   id="svg2"
   version="1.2"
   inkscape:version="0.48.4 r9939"
   sodipodi:docname="New document 1">
  <defs
     id="defs4" />
  <sodipodi:namedview
     id="base"
     pagecolor="#ffffff"
     bordercolor="#666666"
     borderopacity="1.0"
     inkscape:pageopacity="0.0"
     inkscape:pageshadow="2"
     inkscape:zoom="0.35"
     inkscape:cx="2233.371"
     inkscape:cy="906.49244"
     inkscape:document-units="px"
     inkscape:current-layer="layer1"
     showgrid="false"
     fit-margin-top="0"
     fit-margin-left="0"
     fit-margin-right="0"
     fit-margin-bottom="0"
     inkscape:window-width="1920"
     inkscape:window-height="1018"
     inkscape:window-x="-8"
     inkscape:window-y="-8"
     inkscape:window-maximized="1" />
  <metadata
     id="metadata7">
    <rdf:RDF>
      <cc:Work
         rdf:about="">
        <dc:format>image/svg+xml</dc:format>
        <dc:type
           rdf:resource="http://purl.org/dc/dcmitype/StillImage" />
        <dc:title></dc:title>
      </cc:Work>
    </rdf:RDF>
  </metadata>
  <g
     inkscape:label="Layer 1"
     inkscape:groupmode="layer"
     id="layer1"
     transform="translate(3021.1428,-22.576468)">
    <image
       y="22.576468"
       x="-3021.1428"
       id="image2993"
       xlink:href="file:///T:/SCRAN24/NEW%20PHOTOS%20FOR%20INTAKE24/gbowl.jpg"
       height="1791"
       width="4288" />
    <path
       style="fill:none;stroke:#000000;stroke-width:1px;stroke-linecap:butt;stroke-linejoin:miter;stroke-opacity:1"
       d="m 280,579.57143 71.42857,-74.28572 80,-48.57142 111.42857,-42.85715 120,-25.71428 85.71429,0 77.14286,14.28571 48.57142,17.14286 51.42858,51.42857 31.42857,65.71429 11.42857,100 -8.57143,80 -31.42857,85.71428 -62.85714,74.28572 -88.57143,60 L 660,968.14286 560,976.71429 420,931 l -80,-57.14286 -57.14286,-68.57143 -40,-77.14285 -5.71428,-62.85715 z"
       id="area_1"
       inkscape:connector-curvature="0"
       transform="translate(-3021.1428,22.576468)"
       inkscape:label="#path2996" />
    <path
       style="fill:none;stroke:#000000;stroke-width:1px;stroke-linecap:butt;stroke-linejoin:miter;stroke-opacity:1"
       d="m 1394.2857,608.14286 94.2857,-25.71429 74.2857,-37.14286 20,-22.85714 L 1611.4286,471 1702.8571,399.57143 1748.5714,316.71429 1740,239.57143 1694.2857,176.71429 1620,131 1528.5714,108.14286 1422.8571,99.571429 1314.2857,105.28571 1220,133.85714 l -85.7143,31.42857 -60,45.71429 -54.2857,57.14286 -22.85714,60 -8.57143,54.28571 17.14287,57.14286 65.7143,68.57143 68.5714,20 28.5714,8.57143 82.8572,45.71428 62.8571,25.71429 z"
       id="area_2"
       inkscape:connector-curvature="0"
       transform="translate(-3021.1428,22.576468)"
       inkscape:label="#path2998" />
    <path
       style="fill:none;stroke:#000000;stroke-width:1px;stroke-linecap:butt;stroke-linejoin:miter;stroke-opacity:1"
       d="m 1974.2857,145.28571 151.4286,-40 154.2857,8.57143 105.7143,31.42857 82.8571,60 25.7143,82.85715 -2.8571,74.28571 -20,88.57143 -37.1429,68.57143 -51.4286,51.42857 -91.4285,40 -105.7143,17.14286 -94.2857,-11.42857 -85.7143,-37.14286 -62.8572,-42.85714 L 1900,459.57143 1877.1429,362.42857 1874.2857,279.57143 1900,208.14286 z"
       id="area_3"
       inkscape:connector-curvature="0"
       transform="translate(-3021.1428,22.576468)"
       sodipodi:nodetypes="cccccccccccccccccccc"
       inkscape:label="#path3000" />
    <path
       style="fill:none;stroke:#000000;stroke-width:1px;stroke-linecap:butt;stroke-linejoin:miter;stroke-opacity:1"
       d="M 2920,148.14286 3031.4286,191 l 77.1428,60 34.2857,102.85714 -34.2857,71.42857 -40,51.42858 -62.8571,37.14285 -62.8572,20 -11.4285,8.57143 -20,22.85714 -74.2857,2.85715 -60,-14.28572 -37.1429,-14.28571 -22.8571,-25.71429 0,-17.14285 -60,-51.42858 -42.8572,-60 -28.5714,-85.71428 5.7143,-57.14286 48.5714,-54.28571 71.4286,-31.42857 80,-14.28572 77.1428,0 z"
       id="area_4"
       inkscape:connector-curvature="0"
       transform="translate(-3021.1428,22.576468)"
       inkscape:label="#path3002" />
    <path
       style="fill:none;stroke:#000000;stroke-width:1px;stroke-linecap:butt;stroke-linejoin:miter;stroke-opacity:1"
       d="m 3345.7143,419.57143 68.5714,-54.28572 102.8572,-25.71428 122.8571,2.85714 111.4286,31.42857 108.5714,48.57143 68.5714,57.14286 57.1429,71.42857 17.1428,62.85714 -8.5714,68.57143 L 3897.1429,811 3802.8571,871 3668.5714,902.42857 3545.7143,891 3442.8571,839.57143 3365.7143,768.14286 3317.1429,651 l -11.4286,-125.71429 17.1428,-65.71428 z"
       id="area_5"
       inkscape:connector-curvature="0"
       transform="translate(-3021.1428,22.576468)"
       inkscape:label="#path3004" />
    <path
       style="fill:none;stroke:#000000;stroke-width:1px;stroke-linecap:butt;stroke-linejoin:miter;stroke-opacity:1"
       d="m 3028.5714,959.57143 105.7143,-60 120,-28.57143 194.2857,8.57143 125.7144,42.85714 128.5713,77.14286 120,128.57147 L 3880,1251 l -5.7143,162.8571 -71.4286,114.2858 -97.1428,68.5714 -134.2857,45.7143 -137.1429,11.4285 -105.7143,-11.4285 -145.7143,-68.5715 -111.4285,-88.5714 -77.1429,-111.4286 -51.4286,-154.2857 -2.8571,-102.8571 28.5714,-91.4286 z"
       id="area_6"
       inkscape:connector-curvature="0"
       transform="translate(-3021.1428,22.576468)"
       sodipodi:nodetypes="ccccccccccccccccccccc"
       inkscape:label="#path3006" />
    <flowRoot
       xml:space="preserve"
       id="navigation"
       style="font-size:40px;font-style:normal;font-weight:normal;line-height:125%;letter-spacing:0px;word-spacing:0px;fill:#000000;fill-opacity:1;stroke:none;font-family:Sans"
       transform="translate(-3021.1428,22.576468)"
       inkscape:label="#flowRoot3010"><flowRegion
         id="flowRegion3012"><rect
           id="rect3014"
           width="888.57141"
           height="174.28572"
           x="894.28571"
           y="1219.5714" /></flowRegion><flowPara
         id="flowPara3016"
         style="font-size:56px">1 2 3 4 5 6</flowPara></flowRoot>  </g>
</svg>
