<?xml version="1.0" encoding="UTF-8" standalone="no"?>
<!-- Created with Inkscape (http://www.inkscape.org/) -->

<svg
   xmlns:dc="http://purl.org/dc/elements/1.1/"
   xmlns:cc="http://creativecommons.org/ns#"
   xmlns:rdf="http://www.w3.org/1999/02/22-rdf-syntax-ns#"
   xmlns:svg="http://www.w3.org/2000/svg"
   xmlns="http://www.w3.org/2000/svg"
   xmlns:xlink="http://www.w3.org/1999/xlink"
   xmlns:sodipodi="http://sodipodi.sourceforge.net/DTD/sodipodi-0.dtd"
   xmlns:inkscape="http://www.inkscape.org/namespaces/inkscape"
   width="799"
   height="533"
   id="svg2"
   version="1.1"
   inkscape:version="0.48.3.1 r9886"
   sodipodi:docname="Gbur.svg">
  <defs
     id="defs4" />
  <sodipodi:namedview
     id="base"
     pagecolor="#ffffff"
     bordercolor="#666666"
     borderopacity="1.0"
     inkscape:pageopacity="0.0"
     inkscape:pageshadow="2"
     inkscape:zoom="1"
     inkscape:cx="443.04789"
     inkscape:cy="260.78572"
     inkscape:document-units="px"
     inkscape:current-layer="layer1"
     showgrid="false"
     fit-margin-top="0"
     fit-margin-left="0"
     fit-margin-right="0"
     fit-margin-bottom="0"
     inkscape:window-width="1317"
     inkscape:window-height="744"
     inkscape:window-x="49"
     inkscape:window-y="24"
     inkscape:window-maximized="1" />
  <metadata
     id="metadata7">
    <rdf:RDF>
      <cc:Work
         rdf:about="">
        <dc:format>image/svg+xml</dc:format>
        <dc:type
           rdf:resource="http://purl.org/dc/dcmitype/StillImage" />
      </cc:Work>
    </rdf:RDF>
  </metadata>
  <g
     inkscape:label="Layer 1"
     inkscape:groupmode="layer"
     id="layer1"
     transform="translate(908.07141,-140.1479)">
    <image
       y="140.1479"
       x="-908.07141"
       id="image3339"
       xlink:href="file:///media/01/Gbur.jpg"
       height="533"
       width="799" />
    <path
       style="fill:none;stroke:#000000;stroke-width:1px;stroke-linecap:butt;stroke-linejoin:miter;stroke-opacity:1"
       d="m 340,8 -6,-1 -7,1 -6,0 -5,0 -5,-1 -13,3 -8,5 -6,4 -9,21 -5,5 -3,10 -3,16 11,13 10,12 9,11 12,4 4,2 20,-9 13,-3 10,-1 10,0 7,0 10,-9 9,-22 -5,-16 -8,-19 -10,-13 -14,-8 z"
       id="area_7"
       inkscape:connector-curvature="0"
       transform="translate(-908.07141,140.1479)"
       inkscape:label="#path3363" />
    <path
       style="fill:none;stroke:#000000;stroke-width:1px;stroke-linecap:butt;stroke-linejoin:miter;stroke-opacity:1"
       d="m 228,74 -21,4 -21,7 -6,9 -2,12 -4,11 -2,9 0,12 1,13 10,13 10,4 19,6 12,3 22,-1 20,-9 7,-10 11,-7 2,-11 6,-11 2,-7 -1,-7 -6,-7 -5,-12 -6,-7 -14,-9 -24,-5 z"
       id="area_8"
       inkscape:connector-curvature="0"
       transform="translate(-908.07141,140.1479)"
       inkscape:label="#path3365" />
    <path
       style="fill:none;stroke:#000000;stroke-width:1px;stroke-linecap:butt;stroke-linejoin:miter;stroke-opacity:1"
       d="m 304,119 -10,10 -4,15 0,9 5,8 4,16 9,9 12,9 14,5 25,-3 33,-14 12,-8 5,-9 7,-7 -3,-9 0,-8 -7,-12 -22,-18 -8,-9 -5,-3 -20,0 -14,1 -11,4 -14,7 z"
       id="area_6"
       inkscape:connector-curvature="0"
       transform="translate(-908.07141,140.1479)"
       inkscape:label="#path3367" />
    <path
       style="fill:none;stroke:#000000;stroke-width:1px;stroke-linecap:butt;stroke-linejoin:miter;stroke-opacity:1"
       d="m 653,87 -29,0 -23,4 -14,8 -13,12 -9,14 -2,10 4,19 0,6 0,3 18,21 7,14 0,9 26,7 36,2 26,-11 12,-16 5,-10 1,-14 0,-7 1,-13 0,-11 -2,-18 -17,-19 -14,-9 z"
       id="area_5"
       inkscape:connector-curvature="0"
       transform="translate(-908.07141,140.1479)"
       inkscape:label="#path3369" />
    <path
       style="fill:none;stroke:#000000;stroke-width:1px;stroke-linecap:butt;stroke-linejoin:miter;stroke-opacity:1"
       d="m 514,149 -21,6 -16,10 -11,13 -10,14 -2,10 -1,7 6,19 0,7 12,16 19,11 15,8 22,1 44,-11 11,-12 8,-5 2,-6 0,-5 0,-5 1,-6 0,-8 0,-3 -2,-11 -3,-12 -16,-20 -12,-10 -22,-6 -16,-3 z"
       id="area_4"
       inkscape:connector-curvature="0"
       transform="translate(-908.07141,140.1479)"
       inkscape:label="#path3371" />
    <path
       style="fill:none;stroke:#000000;stroke-width:1px;stroke-linecap:butt;stroke-linejoin:miter;stroke-opacity:1"
       d="m 245,259 -18,6 -8,0 -2,3 -12,9 -8,4 -5,13 -2,2 -1,8 -1,3 7,14 6,13 17,10 25,2 27,-4 19,-9 9,-7 5,-9 5,-18 -5,-14 -4,-11 -3,-5 -7,-5 -17,-5 -7,-2 -5,-1 -8,0 z"
       id="area_2"
       inkscape:connector-curvature="0"
       transform="translate(-908.07141,140.1479)"
       inkscape:label="#path3373" />
    <path
       style="fill:none;stroke:#000000;stroke-width:1px;stroke-linecap:butt;stroke-linejoin:miter;stroke-opacity:1"
       d="m 291,352 -15,12 -9,13 -5,9 0,14 1,12 5,9 19,5 16,5 22,-3 10,-7 8,-10 7,-6 8,-12 5,-17 -4,-8 -7,-12 -4,-4 -9,-8 -14,-1 -17,-1 -9,7 z"
       id="area_1"
       inkscape:connector-curvature="0"
       transform="translate(-908.07141,140.1479)"
       inkscape:label="#path3375" />
    <path
       style="fill:none;stroke:#000000;stroke-width:1px;stroke-linecap:butt;stroke-linejoin:miter;stroke-opacity:1"
       d="m 162,336 -19,10 -11,6 -3,12 0,13 1,21 8,12 3,8 8,12 15,8 17,7 10,-2 16,-7 14,-10 6,-2 8,-20 -2,-19 -15,-22 -15,-14 -11,-1 -9,-9 -11,-4 z"
       id="area_3"
       inkscape:connector-curvature="0"
       transform="translate(-908.07141,140.1479)"
       inkscape:label="#path3377" />
    <text
       xml:space="preserve"
       style="font-size:48px;font-style:normal;font-weight:normal;line-height:125%;letter-spacing:0px;word-spacing:0px;fill:#000000;fill-opacity:1;stroke:none;font-family:Sans"
       x="-500.07141"
       y="586.14789"
       id="navigation"
       sodipodi:linespacing="125%"
       inkscape:label="#text3379"><tspan
         sodipodi:role="line"
         id="tspan3381"
         x="-500.07141"
         y="586.14789">7 8 6 4 5 2 3 1</tspan></text>
  </g>
</svg>
