<?xml version="1.0" encoding="UTF-8" standalone="no"?>
<!-- Created with Inkscape (http://www.inkscape.org/) -->

<svg
   xmlns:dc="http://purl.org/dc/elements/1.1/"
   xmlns:cc="http://creativecommons.org/ns#"
   xmlns:rdf="http://www.w3.org/1999/02/22-rdf-syntax-ns#"
   xmlns:svg="http://www.w3.org/2000/svg"
   xmlns="http://www.w3.org/2000/svg"
   xmlns:xlink="http://www.w3.org/1999/xlink"
   xmlns:sodipodi="http://sodipodi.sourceforge.net/DTD/sodipodi-0.dtd"
   xmlns:inkscape="http://www.inkscape.org/namespaces/inkscape"
   width="744.09448819"
   height="1052.3622047"
   id="svg2"
   version="1.1"
   inkscape:version="0.48.3.1 r9886"
   sodipodi:docname="Gcbar.svg">
  <defs
     id="defs4" />
  <sodipodi:namedview
     id="base"
     pagecolor="#ffffff"
     bordercolor="#666666"
     borderopacity="1.0"
     inkscape:pageopacity="0.0"
     inkscape:pageshadow="2"
     inkscape:zoom="0.35"
     inkscape:cx="375"
     inkscape:cy="487.14286"
     inkscape:document-units="px"
     inkscape:current-layer="layer1"
     showgrid="false"
     inkscape:window-width="1317"
     inkscape:window-height="744"
     inkscape:window-x="49"
     inkscape:window-y="24"
     inkscape:window-maximized="1" />
  <metadata
     id="metadata7">
    <rdf:RDF>
      <cc:Work
         rdf:about="">
        <dc:format>image/svg+xml</dc:format>
        <dc:type
           rdf:resource="http://purl.org/dc/dcmitype/StillImage" />
        <dc:title></dc:title>
      </cc:Work>
    </rdf:RDF>
  </metadata>
  <g
     inkscape:label="Layer 1"
     inkscape:groupmode="layer"
     id="layer1">
    <image
       y="-434.78067"
       x="-1125"
       id="image3323"
       xlink:href="file:///media/01/Gcbar.jpg"
       height="2000"
       width="3000" />
    <path
       style="fill:none;stroke:#000000;stroke-width:1px;stroke-linecap:butt;stroke-linejoin:miter;stroke-opacity:1"
       d="m -342.85714,-7.6378174 -254.28572,-8.5714286 11.42857,2.857143 -8.57142,40 2.85714,62.857143 20,17.14286 -5.71429,74.28571 -20,97.14286 -8.57143,142.85714 -14.28571,77.14286 -8.57143,57.14286 -20,34.28571 -11.42857,45.71429 -2.85714,25.71428 -8.57143,8.57143 -5.71429,8.57143 -5.71428,0 -11.42857,-5.71429 -8.57143,25.71429 42.85714,5.71428 65.71429,8.57143 54.28571,-17.14285 48.57143,17.14285 51.42857,5.71429 8.57143,-25.71429 5.71428,-71.42857 20,-134.28571 17.14286,-151.42857 20,-171.42858 5.71429,-74.28571 5.71428,-40 14.28572,-11.428572 5.71428,-31.4285711 z"
       id="area_1"
       inkscape:connector-curvature="0"
       inkscape:label="#path3345" />
    <path
       style="fill:none;stroke:#000000;stroke-width:1px;stroke-linecap:butt;stroke-linejoin:miter;stroke-opacity:1"
       d="m -182.85714,80.933611 -28.57143,0 L -220,83.790754 -231.42857,69.50504 -257.14286,58.076468 -251.42857,69.50504 -300,60.933611 l -25.71429,0 -8.57142,0 -8.57143,0 8.57143,34.285714 5.71428,22.857145 2.85714,31.42857 -5.71428,37.14286 0,34.28571 -5.71429,51.42857 -11.42857,57.14286 -8.57143,88.57143 -17.14285,100 -8.57143,51.42857 -5.71429,25.71429 -2.85714,20 -17.14286,20 -11.42857,0 5.71429,11.42857 57.14285,-2.85715 48.57143,-8.57142 51.42857,2.85714 45.71429,-14.28572 14.28571,0 0,-25.71428 22.85715,-200 20,-200 0,-60 L -160,103.79075 z"
       id="area_2"
       inkscape:connector-curvature="0"
       inkscape:label="#path3347" />
    <path
       style="fill:none;stroke:#000000;stroke-width:1px;stroke-linecap:butt;stroke-linejoin:miter;stroke-opacity:1"
       d="m 28.571429,103.79075 -137.142859,20 -5.71428,22.85715 -5.71429,45.71428 -2.85714,65.71429 -14.28572,91.42857 -8.57143,94.28571 -11.42857,68.57143 -11.42857,51.42857 28.57143,5.71429 74.285714,-5.71429 8.571429,-2.85714 L -40,586.6479 5.7142857,578.07647 2.8571429,506.6479 28.571429,289.50504 45.714286,163.79075 l 0,-17.14285 0,-34.28572 z"
       id="area_3"
       inkscape:connector-curvature="0"
       inkscape:label="#path3349" />
    <path
       style="fill:none;stroke:#000000;stroke-width:1px;stroke-linecap:butt;stroke-linejoin:miter;stroke-opacity:1"
       d="m 368.57143,92.362183 0,31.428567 -11.42857,20 -11.42857,11.42858 2.85714,40 -2.85714,100 -8.57143,185.71428 -5.71429,111.42857 2.85714,20 8.57143,2.85715 14.28572,8.57142 -5.71429,11.42858 2.85714,11.42857 -37.14285,11.42857 -114.28572,-8.57143 -85.71428,-8.57143 -34.285717,0 -51.428572,-17.14286 -11.428571,0 -2.857143,-11.42857 14.285714,-14.28571 14.285715,-17.14286 5.714285,8.57143 5.714286,-88.57143 L 68.571429,363.79075 77.142857,229.50504 80,115.21933 68.571429,86.647897 l 5.714285,-20 68.571426,14.285714 57.14286,0 77.14286,2.857143 54.28571,0 z"
       id="area_4"
       inkscape:connector-curvature="0"
       inkscape:label="#path3353" />
    <path
       style="fill:none;stroke:#000000;stroke-width:1px;stroke-linecap:butt;stroke-linejoin:miter;stroke-opacity:1"
       d="m 554.28571,112.36218 -17.14285,8.57143 -22.85715,0 -17.14285,-11.42857 -31.42857,0 -28.57143,-2.85714 -40,0 -17.14286,8.57143 -2.85714,11.42857 11.42857,34.28571 0,28.57143 5.71428,82.85714 -2.85714,114.28572 5.71429,120 -8.57143,54.28571 -11.42857,5.71429 8.57143,40 -2.85715,5.71428 14.28572,2.85715 34.28571,0 91.42857,-14.28572 22.85715,-5.71428 L 540,580.93361 l 11.42857,-2.85714 14.28572,-11.42857 0,-11.42857 -2.85715,-8.57143 -20,-2.85715 0,-80 2.85715,-117.14285 2.85714,-85.71429 L 540,209.50504 l 5.71429,-28.57143 5.71428,-22.85714 8.57143,-17.14286 11.42857,-5.71428 z"
       id="area_5"
       inkscape:connector-curvature="0"
       inkscape:label="#path3355" />
    <path
       style="fill:none;stroke:#000000;stroke-width:1px;stroke-linecap:butt;stroke-linejoin:miter;stroke-opacity:1"
       d="M 734.28571,-30.49496 700,-19.066389 l -17.14286,0 -40,-2.857143 -25.71428,-2.857143 -22.85715,0 -20,-2.857142 -17.14285,0 -11.42857,0 0,25.7142853 2.85714,14.2857147 20,34.285714 17.14286,37.142857 0,28.571426 0,48.57143 8.57142,140 2.85715,165.71429 -5.71429,142.85714 0,25.71429 -14.28571,20 -11.42857,14.28571 -11.42858,8.57143 14.28572,17.14286 22.85714,0 20,5.71428 L 660,686.6479 l 17.14286,-17.14286 54.28571,17.14286 42.85714,5.71428 14.28572,-2.85714 -2.85714,-14.28571 L 780,663.79075 l -20,-22.85714 -2.85714,-45.71428 0,-125.71429 L 751.42857,326.6479 740,229.50504 l 0,-114.28571 0,-62.857147 17.14286,-34.285715 0,-22.8571425 -2.85715,-17.1428575 z"
       id="area_6"
       inkscape:connector-curvature="0"
       inkscape:label="#path3357" />
    <path
       style="fill:none;stroke:#000000;stroke-width:1px;stroke-linecap:butt;stroke-linejoin:miter;stroke-opacity:1"
       d="m 954.28571,143.79075 -42.85714,-8.57142 -40,0 -40,-2.85715 -25.71428,0 -14.28572,0 -2.85714,5.71429 -14.28572,2.85714 -8.57142,2.85714 -5.71429,2.85715 17.14286,17.14285 -5.71429,5.71429 -20,2.85714 8.57143,22.85715 0,20 11.42857,17.14285 11.42857,34.28572 11.42857,77.14285 2.85715,74.28572 0,17.14286 0,40 0,11.42857 -11.42857,14.28571 -11.42858,20 0,37.14286 2.85715,20 85.71428,8.57143 60,0 45.71429,5.71428 20,0 19.99997,-17.14285 -5.7143,-48.57143 L 980,498.07647 l -14.28571,-40 -11.42858,-17.14286 -2.85714,-85.71428 2.85714,-62.85715 -2.85714,-54.28571 5.71429,-20 14.28571,-25.71429 0,-25.71428 z"
       id="area_7"
       inkscape:connector-curvature="0"
       inkscape:label="#path3359" />
    <path
       style="fill:none;stroke:#000000;stroke-width:1px;stroke-linecap:butt;stroke-linejoin:miter;stroke-opacity:1"
       d="M 1277.1429,12.362183 C 1125.7143,-1.9235317 1054.2857,-1.9235317 1054.2857,-1.9235317 l -77.14284,0 -11.42857,8.5714286 11.42857,42.8571431 20,25.714285 11.42854,17.142858 -2.8571,45.714287 14.2857,97.14286 11.4286,100 11.4285,140 14.2858,97.14285 -11.4286,62.85715 -2.8572,22.85714 -2.8571,11.42857 11.4286,28.57143 111.4285,8.57143 11.4286,20 48.5714,-2.85715 42.8572,5.71429 25.7143,0 45.7143,8.57143 37.1428,2.85714 20,0 8.5714,-20 -34.2857,-120 -22.8571,-51.42857 -22.8572,-174.28571 -25.7142,-191.42858 2.8571,-54.28571 0,-48.571429 5.7143,-25.714286 z"
       id="area_8"
       inkscape:connector-curvature="0"
       inkscape:label="#path3361" />
    <text
       xml:space="preserve"
       style="font-size:161.85682678px;font-style:normal;font-weight:normal;line-height:125%;letter-spacing:0px;word-spacing:0px;fill:#000000;fill-opacity:1;stroke:none;font-family:Sans"
       x="-197.63185"
       y="885.08563"
       id="navigation"
       sodipodi:linespacing="125%"
       inkscape:label="#text3363"
       transform="scale(1.0032869,0.99672388)"><tspan
         sodipodi:role="line"
         id="tspan3365"
         x="-197.63185"
         y="885.08563">1 2 3 4 5 6 7 8</tspan></text>
  </g>
</svg>
