<?xml version="1.0" encoding="UTF-8" standalone="no"?>
<!-- Created with Inkscape (http://www.inkscape.org/) -->

<svg
   xmlns:dc="http://purl.org/dc/elements/1.1/"
   xmlns:cc="http://creativecommons.org/ns#"
   xmlns:rdf="http://www.w3.org/1999/02/22-rdf-syntax-ns#"
   xmlns:svg="http://www.w3.org/2000/svg"
   xmlns="http://www.w3.org/2000/svg"
   xmlns:xlink="http://www.w3.org/1999/xlink"
   xmlns:sodipodi="http://sodipodi.sourceforge.net/DTD/sodipodi-0.dtd"
   xmlns:inkscape="http://www.inkscape.org/namespaces/inkscape"
   width="800"
   height="533"
   id="svg2"
   version="1.1"
   inkscape:version="0.48.2 r9819"
   sodipodi:docname="Gcbisc1.svg">
  <defs
     id="defs4" />
  <sodipodi:namedview
     id="base"
     pagecolor="#ffffff"
     bordercolor="#666666"
     borderopacity="1.0"
     inkscape:pageopacity="0.0"
     inkscape:pageshadow="2"
     inkscape:zoom="0.70710678"
     inkscape:cx="378.46702"
     inkscape:cy="260.39013"
     inkscape:document-units="px"
     inkscape:current-layer="layer1"
     showgrid="false"
     fit-margin-top="0"
     fit-margin-left="0"
     fit-margin-right="0"
     fit-margin-bottom="0"
     inkscape:window-width="1292"
     inkscape:window-height="746"
     inkscape:window-x="-8"
     inkscape:window-y="-8"
     inkscape:window-maximized="1" />
  <metadata
     id="metadata7">
    <rdf:RDF>
      <cc:Work
         rdf:about="">
        <dc:format>image/svg+xml</dc:format>
        <dc:type
           rdf:resource="http://purl.org/dc/dcmitype/StillImage" />
        <dc:title></dc:title>
      </cc:Work>
    </rdf:RDF>
  </metadata>
  <g
     inkscape:label="Layer 1"
     inkscape:groupmode="layer"
     id="layer1"
     transform="translate(647.78571,-16.862183)">
    <image
       y="16.862183"
       x="-647.78571"
       id="image2993"
       xlink:href="file:///G:/02/Gcbisc1.jpg"
       height="533"
       width="800" />
    <path
       style="fill:none;stroke:#000000;stroke-width:1px;stroke-linecap:butt;stroke-linejoin:miter;stroke-opacity:1"
       d="m 245.5,231.5 -2,13 23,24 161.5,-49.5 0.5,-4.5 -7,-10 -24,-20 z"
       id="area_1"
       inkscape:connector-curvature="0"
       transform="translate(-834.28571,-94.137817)"
       inkscape:label="#path2996" />
    <path
       style="fill:none;stroke:#000000;stroke-width:1px;stroke-linecap:butt;stroke-linejoin:miter;stroke-opacity:1"
       d="m -227.28571,38.362183 -14,-1 -118,31.5 -9.5,8.5 -5.5,1 -14,9 20.5,21.499997 3,5.5 19,-8 5,2 131.5,-36.499997 9.5,-10 2.5,-12.5 -21.5,-21 z"
       id="area_2"
       inkscape:connector-curvature="0"
       inkscape:label="#path2998" />
    <path
       style="fill:none;stroke:#000000;stroke-width:1px;stroke-linecap:butt;stroke-linejoin:miter;stroke-opacity:1"
       d="m 291.5,275.5 -13,13.5 34.5,38.5 14,-12 6.5,2 143,-48 6.5,-4.5 4,-2 3.5,0 7.5,-9.5 -3,-4 -2.5,-2.5 -6.5,0.5 -6,5.5 -26,-23.5 -17,-0.5 -11,2.5 -123,40 -3,3 z"
       id="area_3"
       inkscape:connector-curvature="0"
       transform="translate(-834.28571,-94.137817)"
       inkscape:label="#path3000" />
    <path
       style="fill:none;stroke:#000000;stroke-width:1px;stroke-linecap:butt;stroke-linejoin:miter;stroke-opacity:1"
       d="m 523,225.5 26.5,24.5 139,-42.5 -3,-16 -30,-22 L 529,213 z"
       id="area_4"
       inkscape:connector-curvature="0"
       transform="translate(-834.28571,-94.137817)"
       inkscape:label="#path3002" />
    <path
       style="fill:none;stroke:#000000;stroke-width:1px;stroke-linecap:butt;stroke-linejoin:miter;stroke-opacity:1"
       d="m 543.5,287.5 -6,1.5 1,-3.5 -3.5,-1.5 -0.5,-4 -4,0.5 -1.5,-5 -4.5,2.5 -0.5,-4.5 -2,0.5 -3,-5.5 -13.5,15 0.5,5 -7,-3.5 -127.5,43.5 -7,5 -11,-0.5 -4.5,6 -24,-5 2.5,7 6,11 48,35 6,-8.5 171,-56 -1,-22 -2.5,-1 -1,-5.5 -4,3 -1.5,-4 -4.5,-0.5 z"
       id="area_5"
       inkscape:connector-curvature="0"
       transform="translate(-834.28571,-94.137817)"
       inkscape:label="#path3004" />
    <path
       style="fill:none;stroke:#000000;stroke-width:1px;stroke-linecap:butt;stroke-linejoin:miter;stroke-opacity:1"
       d="m 569.92807,262.53166 -6.01041,0 -8.83884,7.77817 -6.71751,6.01041 41.36575,35.35534 7.07106,-7.07107 12.72793,-3.18198 17.67767,-2.12132 109.60155,-35.00179 21.2132,-18.03122 8.13173,-1.76777 -37.12311,-32.88046 -11.31371,1.76776 -10.6066,6.01041 -11.31371,1.76777 -121.26881,36.76955 z"
       id="area_6"
       inkscape:connector-curvature="0"
       transform="translate(-834.28571,-94.137817)"
       inkscape:label="#path3006" />
    <path
       style="fill:none;stroke:#000000;stroke-width:1px;stroke-linecap:butt;stroke-linejoin:miter;stroke-opacity:1"
       d="m 450.42702,373.90097 -13.78858,18.03123 -1.06066,8.48528 7.07107,19.44543 13.08147,7.77818 14.49569,5.65685 c 0,0 1.41421,2.47488 9.54594,3.53554 8.13173,1.06066 28.28427,-0.35356 28.28427,-0.35356 l 18.73833,-8.48528 15.2028,-11.66726 4.59619,-3.53553 -0.35355,-23.33453 -7.77818,-9.89949 -11.66726,-6.36396 -7.77817,-3.53554 -7.42462,-1.41421 -11.31371,-4.24264 -13.08148,0.35355 -10.6066,2.12132 -10.25305,1.76777 -8.83883,3.88909 z"
       id="area_7"
       inkscape:connector-curvature="0"
       transform="translate(-834.28571,-94.137817)"
       inkscape:label="#path3008" />
    <path
       style="fill:none;stroke:#000000;stroke-width:1px;stroke-linecap:butt;stroke-linejoin:miter;stroke-opacity:1"
       d="m 758.37202,277.02735 -31.8198,11.66726 -22.27387,6.71751 -15.9099,6.36396 -7.77817,3.88909 -18.03123,6.01041 -12.72792,0.7071 c 0,0 -3.53553,3.18198 -6.01041,3.18198 -2.47487,0 -14.49568,1.41422 -14.49568,1.41422 0,0 -4.24264,-0.35356 -5.65686,-0.35356 -1.41421,0 -4.94975,-1.76776 -4.94975,-1.76776 l 20.85965,32.88046 c 0,0 7.42463,-1.06066 9.19239,3.53554 1.76777,4.59619 10.96016,10.25305 10.96016,10.25305 0,0 0,2.82842 1.41421,2.82842 1.41421,0 12.72792,-4.24264 12.72792,-4.24264 l 139.65359,-52.3259 15.2028,-9.89949 6.36396,-3.53554 7.07107,-5.65685 -7.77818,-0.35356 -0.7071,-2.82842 -8.83884,1.41421 -3.88909,-3.53553 0,-2.12132 -3.18198,-0.35356 -1.06066,-5.3033 -2.47487,0.35355 -0.35355,-4.24264 -3.88909,0 1.06066,-6.36396 -3.88909,-0.35355 -0.35355,-3.88909 -3.53554,-0.7071 -2.12132,-4.5962 -4.59619,1.76777 -26.5165,13.78858 z"
       id="area_8"
       inkscape:connector-curvature="0"
       transform="translate(-834.28571,-94.137817)"
       inkscape:label="#path3010" />
    <path
       style="fill:none;stroke:#000000;stroke-width:1px;stroke-linecap:butt;stroke-linejoin:miter;stroke-opacity:1"
       d="m 559,613.5 50.5,-20.5 21,-10 21.5,-13 54,-22 7.5,-2.5 36.5,-21.5 26.5,-27.5 -59,-29 -56.5,-65.5 -46,27 -8,8 -70.5,23 -26.5,7 -14,2.5 -21,8.5 -21,-1.5 16.5,28.5 7,4 9.5,12.5 7.5,11 9.5,18 9.5,18.5 c 0,0 14,11.5 15,13.5 1,2 30.5,31 30.5,31 z"
       id="area_9"
       inkscape:connector-curvature="0"
       transform="translate(-834.28571,-94.137817)"
       inkscape:label="#path3014" />
    <path
       style="fill:none;stroke:#000000;stroke-width:1px;stroke-linecap:butt;stroke-linejoin:miter;stroke-opacity:1"
       d="m 773,472.5 16.5,-4.5 13.5,-4.5 c 0,0 10,-6.5 12,-7 2,-0.5 13.5,-3.5 13.5,-3.5 l 12,-6.5 14.5,-3 11.5,-7 25.5,-10 27,-9 16,-8.5 10.5,-8.5 14,-1.5 4.5,-4 -5,-9 -9,-10 -9,-10.5 -9,-7 -12,-8 -21,13.5 -10.5,6.5 -17,4.5 c 0,0 -17.5,7.5 -21.5,9 -4,1.5 -32,10.5 -32,10.5 l -17,6.5 -15,4.5 -9.5,9 -9,4 -13.5,0 -16,1.5 -8.5,5 11,8.5 11.5,15.5 z"
       id="area_10"
       inkscape:connector-curvature="0"
       transform="translate(-834.28571,-94.137817)"
       inkscape:label="#path3016" />
    <text
       xml:space="preserve"
       style="font-size:40px;font-style:normal;font-weight:normal;line-height:125%;letter-spacing:0px;word-spacing:0px;fill:#000000;fill-opacity:1;stroke:none;font-family:Sans"
       x="-637.71002"
       y="533.6145"
       id="navigation"
       sodipodi:linespacing="125%"
       inkscape:label="#text3018"><tspan
         sodipodi:role="line"
         id="tspan3020"
         x="-637.71002"
         y="533.6145">1 2 3 4 5 6 7 8 9 10</tspan></text>
  </g>
</svg>
