<?xml version="1.0" encoding="UTF-8" standalone="no"?>
<!-- Created with Inkscape (http://www.inkscape.org/) -->

<svg
   xmlns:dc="http://purl.org/dc/elements/1.1/"
   xmlns:cc="http://creativecommons.org/ns#"
   xmlns:rdf="http://www.w3.org/1999/02/22-rdf-syntax-ns#"
   xmlns:svg="http://www.w3.org/2000/svg"
   xmlns="http://www.w3.org/2000/svg"
   xmlns:xlink="http://www.w3.org/1999/xlink"
   xmlns:sodipodi="http://sodipodi.sourceforge.net/DTD/sodipodi-0.dtd"
   xmlns:inkscape="http://www.inkscape.org/namespaces/inkscape"
   width="799"
   height="533"
   id="svg4140"
   version="1.1"
   inkscape:version="0.48.2 r9819"
   sodipodi:docname="GchocPre.svg">
  <defs
     id="defs4142" />
  <sodipodi:namedview
     id="base"
     pagecolor="#ffffff"
     bordercolor="#666666"
     borderopacity="1.0"
     inkscape:pageopacity="0.0"
     inkscape:pageshadow="2"
     inkscape:zoom="0.70710678"
     inkscape:cx="532.97839"
     inkscape:cy="196.09589"
     inkscape:document-units="px"
     inkscape:current-layer="layer1"
     showgrid="false"
     fit-margin-top="0"
     fit-margin-left="0"
     fit-margin-right="0"
     fit-margin-bottom="0"
     inkscape:window-width="1292"
     inkscape:window-height="746"
     inkscape:window-x="-8"
     inkscape:window-y="-8"
     inkscape:window-maximized="1" />
  <metadata
     id="metadata4145">
    <rdf:RDF>
      <cc:Work
         rdf:about="">
        <dc:format>image/svg+xml</dc:format>
        <dc:type
           rdf:resource="http://purl.org/dc/dcmitype/StillImage" />
        <dc:title></dc:title>
      </cc:Work>
    </rdf:RDF>
  </metadata>
  <g
     inkscape:label="Layer 1"
     inkscape:groupmode="layer"
     id="layer1"
     transform="translate(1608.0714,454.13782)">
    <image
       y="-454.13782"
       x="-1608.0714"
       id="image4156"
       xlink:href="file:///G:/02/GchocPre.jpg"
       height="533"
       width="799" />
    <path
       style="fill:none;stroke:#000000;stroke-width:1px;stroke-linecap:butt;stroke-linejoin:miter;stroke-opacity:1"
       d="m 132.58252,76.562572 c 0,0 -0.35355,15.55635 -0.35355,17.324117 0,1.767766 -0.70711,5.3033 -0.70711,9.899491 0,4.5962 -0.70711,7.77818 -1.06066,11.31371 -0.35355,3.53554 -0.70711,7.07107 -0.70711,10.6066 0,3.53554 0,4.5962 0,7.77818 0,3.18198 0,4.59619 -0.35355,7.07107 -0.35355,2.47487 0.70711,3.53553 -0.70711,6.71751 -1.41421,3.18198 -1.06066,5.3033 -2.47487,7.77818 -1.41421,2.47487 -1.41421,6.71751 -1.41421,6.71751 l 1.41421,1.76777 c 0,0 1.76777,0.7071 4.24264,0.7071 2.47487,0 2.12132,-1e-5 5.65685,0.35355 3.53554,0.35356 17.48866,4.54972 13.08148,4.24264 -2.2634,-0.1577 2.90501,-2.12132 11.66726,-2.47487 0,0 -2.12132,0 2.82843,0 4.94975,0 4.94975,0 7.42462,0 2.47487,0 2.12132,-0.7071 4.94975,0 2.82843,0.70711 0.70711,4.5962 3.18198,0.70711 2.47487,-3.88909 4.59619,-3.18198 4.59619,-3.18198 0,0 0,0.70711 3.18198,1.06066 3.18198,0.35355 -1.76776,-0.70711 4.94975,1.06066 6.71752,1.76777 8.13173,2.47487 10.6066,2.47487 2.47488,0 2.12132,0 4.5962,0 2.47487,0 0.35355,0 3.18198,0.35356 2.82842,0.35355 2.12132,-0.70711 5.3033,0.35355 3.18198,1.06066 1.76777,1.06066 4.94975,1.41421 3.18198,0.35356 2.47487,0.70711 3.88908,1.41422 1.41422,0.7071 0.35356,2.47487 3.88909,1.41421 3.53553,-1.06066 1.76777,-1.41421 5.65685,-1.41421 3.88909,0 1.06066,0 8.48529,0.7071 7.42462,0.70711 7.77817,0.70711 10.96015,0.35356 3.18198,-0.35356 0,-0.70711 4.24264,-0.70711 4.24264,0 3.18198,2.47488 4.94975,0 1.76777,-2.47487 1.06066,-2.12132 2.47487,-2.82843 1.41422,-0.7071 3.18198,-1.06066 3.18198,-1.06066 0,0 -0.35355,-3.53553 -0.35355,-6.36396 0,-2.82842 -0.70711,-1.06066 0,-6.0104 0.70711,-4.94975 -0.35355,-6.01041 -0.35355,-8.48529 0,-2.47487 0.7071,-1.41421 0,-5.65685 -0.70711,-4.24264 -1.06066,-8.13173 -1.06066,-8.13173 l 2.47487,-10.25305 c 0,0 -1.41421,-0.35355 -0.35355,-3.53553 1.06066,-3.18198 1.06066,-2.82843 1.41421,-6.36396 0.35355,-3.53554 0,-2.82843 0,-5.65686 0,-2.82842 0,-1.76776 0,-4.59619 0,-2.82843 -0.35355,0.70711 0,-3.535534 0.35355,-4.242641 0,-3.535534 0.35355,-6.010407 0.35356,-2.474874 0.35356,-2.121321 0.35356,-3.889088 0,-1.767767 0.35355,-3.18198 0.35355,-3.18198 l 0,-1.767767 -1.41421,-7.424621 -5.3033,-1.767767 -7.42462,0.353553 c 0,0 -4.5962,-1.767767 -7.42463,-1.767767 -2.82842,0 -4.59619,0.707107 -6.71751,1.06066 -2.12132,0.353554 -3.18198,0 -7.77818,0.353554 -4.59619,0.353553 -4.24264,0.707106 -5.65685,1.06066 -1.41421,0.353553 -3.53553,0.353553 -6.71751,1.06066 -3.18198,0.707107 -4.94975,1.06066 -6.71752,1.414214 -1.76777,0.353553 -2.47487,0.353553 -4.94975,0.353553 -2.47487,0 -2.82842,0.353553 -6.71751,-0.353553 -3.88909,-0.707107 -3.88909,-1.414214 -6.01041,-1.060661 -2.12132,0.353554 -2.12132,-0.353553 -5.3033,-0.353553 -3.18198,0 -1.41421,-0.707107 -5.3033,-0.707107 -3.88909,0 -1.06066,-0.353553 -6.71751,0 -5.65686,0.353554 -8.48529,-0.353553 -11.66727,0 -3.18198,0.353554 4.24264,1.06066 -7.42462,0 -11.66726,-1.06066 -11.31371,-1.414213 -13.08147,-1.06066 -1.76777,0.353553 -6.71752,0.707107 -9.54594,0.707107 -2.82843,0 -0.35356,0.353553 -4.5962,-0.353554 -4.24264,-0.707106 -2.82843,2.474874 -2.82843,2.474874 z"
       id="area_30"
       inkscape:connector-curvature="0"
       transform="translate(-1608.0714,-454.13782)"
       sodipodi:nodetypes="cssssssssccssscsssscssssssssssssssscssssccssssssscccccssssssssssssssssscc"
       inkscape:label="#path4159" />
    <path
       style="fill:none;stroke:#000000;stroke-width:1px;stroke-linecap:butt;stroke-linejoin:miter;stroke-opacity:1"
       d="m 284.61048,58.531349 c 0,0 10.6066,-0.707106 12.37437,-0.707106 1.76777,0 7.42462,0.353553 8.83883,0.353553 1.41422,0 6.01041,-1.767767 6.01041,-1.767767 0,0 7.77818,0.707107 9.8995,0 2.12132,-0.707107 5.65685,-1.767767 7.77817,-1.414213 2.12132,0.353553 5.65685,-0.353554 7.77817,-0.353554 2.12133,0 20.85965,0.353554 22.27387,0.353554 1.41421,0 10.6066,-0.707107 13.08147,-1.414214 2.47488,-0.707107 6.01041,-1.414214 7.42463,-1.414214 1.41421,0 1.41421,0 4.24264,-0.353553 2.82842,-0.353553 3.53553,-1.06066 5.65685,-1.414214 2.12132,-0.353553 6.36396,-0.353553 6.36396,-0.353553 0,0 -0.35355,4.596194 0,7.424621 0.35355,2.828427 -0.70711,6.717515 -1.06066,9.899495 -0.35355,3.181981 0.70711,8.838835 0.35355,11.313709 -0.35355,2.474873 0.70711,3.535534 0.35356,6.717514 -0.35356,3.181981 0,6.363961 0,9.192388 0,2.828427 0,7.424625 -0.70711,10.253045 -0.70711,2.82843 -0.70711,3.88909 -1.06066,7.07107 -0.35355,3.18198 -0.35355,5.3033 -0.35355,7.42462 0,2.12132 -0.70711,4.24264 -0.70711,6.71752 0,2.47487 0.35355,6.36396 0,8.83883 -0.35355,2.47488 -0.70711,5.3033 -0.70711,7.77818 0,2.47487 -1.06066,3.18198 0,6.36396 1.06066,3.18198 2.12132,4.24264 2.82843,8.83883 0.70711,4.5962 1.06066,6.36396 1.06066,8.48528 0,2.12132 -0.35355,0 0,3.88909 0.35355,3.88909 1.06066,4.5962 0,8.13173 -1.06066,3.53553 2.12132,7.77817 -1.76777,6.71751 -3.88908,-1.06066 -6.0104,0 -12.72792,-2.12132 -6.71751,-2.12132 -8.13173,-3.53553 -10.96015,-2.82842 -2.82843,0.7071 -1.76777,1.76776 -8.13173,1.06066 -6.36396,-0.70711 -8.48528,-1.06066 -12.72792,-1.06066 -4.24264,0 -5.3033,-1.06066 -9.8995,0 -4.59619,1.06066 -5.65685,0.7071 -10.6066,1.06066 -4.94975,0.35355 -7.07107,1.41421 -13.43503,1.76776 -6.36396,0.35356 -4.24264,-1.06066 -10.25305,0 -6.0104,1.06066 -5.65685,1.41422 -10.96015,1.06066 -5.3033,-0.35355 -6.36396,-1.06066 -9.8995,-1.06066 -3.53553,0 -6.71751,-0.7071 -8.48528,-0.35355 -1.76777,0.35355 -4.59619,6.36396 -1.76777,-1.41421 2.82843,-7.77818 3.53554,-3.53554 3.53554,-9.8995 0,-6.36396 0.35355,-7.42462 0.35355,-11.31371 0,-3.88908 -1.06066,2.12132 0.35356,-7.77817 1.41421,-9.8995 0.7071,-12.02082 1.76776,-13.43503 1.06066,-1.41421 1.41422,1.06066 1.41422,-2.47487 0,-3.53554 -0.70711,1.76776 0,-4.94975 0.7071,-6.71752 -0.70711,-6.71752 0.7071,-10.6066 1.41422,-3.88909 1.06066,-3.88909 1.41422,-8.13173 0.35355,-4.24264 -0.70711,-2.47488 0,-7.42462 0.7071,-4.94975 1.06066,-7.424624 0,-11.667265 -1.06066,-4.242641 -1.06066,-3.889087 -1.06066,-7.424621 0,-3.535534 0,-1.06066 0,-8.485281 0,-7.424622 -1.41422,-10.606602 0,-13.435029 1.41421,-2.828427 1.06066,-3.889088 1.06066,-3.889088 z"
       id="area_31"
       inkscape:connector-curvature="0"
       transform="translate(-1608.0714,-454.13782)"
       inkscape:label="#path4161" />
    <path
       style="fill:none;stroke:#000000;stroke-width:1px;stroke-linecap:butt;stroke-linejoin:miter;stroke-opacity:1"
       d="m 455.73032,85.754961 44.54773,0 25.8094,0.353553 8.13172,0.707107 c 0,0 18.03123,0 19.79899,0.353553 1.76777,0.353553 3.18198,8.838835 3.18198,8.838835 0,0 1.41422,0.353553 0.70711,6.010411 -0.70711,5.65685 0.70711,14.14213 1.06066,16.97056 0.35355,2.82843 2.12132,12.37437 2.12132,14.49569 0,2.12132 -0.35355,6.01041 -0.35355,8.13173 0,2.12132 0,7.42462 0.7071,12.02081 0.70711,4.5962 1.76777,9.8995 2.12133,11.31371 0.35355,1.41421 3.18198,9.54594 3.18198,9.54594 l 2.12132,-0.35355 c 0,0 -1.76777,7.77817 -1.41422,9.19239 0.35356,1.41421 -3.53553,2.47487 -9.19239,1.41421 -5.65685,-1.06066 -12.37436,0 -15.9099,-1.06066 -3.53553,-1.06066 -10.96015,-1.41421 -15.20279,-1.76777 -4.24264,-0.35355 -12.37437,-0.35355 -14.84925,-0.7071 -2.47487,-0.35356 -9.89949,-1.41422 -13.43503,-1.41422 -3.53553,0 -10.25304,-0.7071 -13.08147,-0.7071 -2.82843,0 -9.19239,1.41421 -13.08148,1.06066 -3.88908,-0.35356 -10.96015,1.06066 -10.96015,1.06066 l -3.53554,-22.62742 2.12132,-6.71752 c 0,0 -0.35355,-4.24264 -0.35355,-8.13172 0,-3.88909 -0.70711,-7.77818 -0.70711,-10.60661 0,-2.82842 -1.41421,-2.82842 -0.35355,-6.36396 1.06066,-3.53553 1.41421,-10.96015 1.41421,-10.96015 0,0 -1.76776,-2.82843 -3.18198,-6.36396 -1.41421,-3.53554 -1.76776,-3.53554 -2.12132,-6.71752 -0.35355,-3.181977 -0.7071,-6.010404 -0.7071,-7.778171 0,-1.767767 2.47487,-9.192388 1.41421,-9.192388 z"
       id="area_37"
       inkscape:connector-curvature="0"
       transform="translate(-1608.0714,-454.13782)"
       inkscape:label="#path4163" />
    <path
       style="fill:none;stroke:#000000;stroke-width:1px;stroke-linecap:butt;stroke-linejoin:miter;stroke-opacity:1"
       d="m 573.81715,183.3357 14.14214,1.06066 c 0,0 5.65685,0.35355 7.77817,0.35355 2.12132,0 8.13173,-1.76777 8.13173,-1.76777 0,0 5.65686,-2.47487 7.77818,-3.53553 2.12132,-1.06066 12.72792,0.70711 12.72792,0.70711 l 12.72792,1.41421 14.49569,3.88909 24.39518,0 -1.76776,-13.08148 -3.53554,-13.08147 -1.06066,-3.88909 -5.3033,-34.64823 -1.76777,-19.09189 -2.12132,-33.587569 -15.55635,1.767767 c 0,0 -3.53553,1.767767 -5.65685,1.767767 -2.12132,0 -10.96015,1.06066 -13.08147,1.06066 -2.12133,0 -10.25305,-0.707107 -10.25305,-0.707107 l -9.19239,3.889088 c 0,0 -9.19239,0.353553 -12.37437,0 -3.18198,-0.353554 -7.07107,-1.060661 -8.83883,-0.707107 -1.76777,0.353553 -9.19239,0.353553 -13.08148,0.353553 -3.88909,0 -10.6066,-0.353553 -10.6066,-0.353553 l 1.41421,12.374368 c 0,0 0,8.485282 1.06066,11.313709 1.06066,2.828424 1.76777,7.424624 2.47488,12.727924 0.7071,5.3033 1.06066,12.02081 1.41421,13.78858 0.35355,1.76777 0.70711,12.02082 1.76777,13.78858 1.06066,1.76777 1.06066,4.5962 0.7071,6.71752 -0.35355,2.12132 0.70711,5.3033 1.06066,6.71751 0.35356,1.41421 0.35356,3.53554 0.35356,6.36396 0,2.82843 0,6.01041 0,7.42462 0,1.41422 0,3.88909 0.35355,5.3033 0.35355,1.41422 -0.70711,3.88909 -0.70711,5.65686 0,1.76777 0,4.59619 0,4.59619 z"
       id="area_38"
       inkscape:connector-curvature="0"
       transform="translate(-1608.0714,-454.13782)"
       inkscape:label="#path4165" />
    <path
       style="fill:none;stroke:#000000;stroke-width:1px;stroke-linecap:butt;stroke-linejoin:miter;stroke-opacity:1"
       d="m 125.51145,171.31488 -12.72792,44.54773 16.97056,6.01041 5.65686,-6.01041 12.72792,0.70711 83.08505,-1.76777 2.12132,11.31371 25.45584,-1.76777 0,-6.01041 91.92388,4.24264 5.65686,2.12132 8.48528,-2.12132 2.12132,-40.65864 -24.74874,-1.76776 -16.26345,2.12132 -16.61701,1.76776 c 0,0 -11.31371,2.12132 -13.78859,1.41422 -2.47487,-0.70711 -17.67766,-2.47488 -19.44543,-2.12132 -1.76777,0.35355 -2.82843,-1.06066 -2.82843,-1.06066 l -130.10765,-3.18198 z"
       id="area_32"
       inkscape:connector-curvature="0"
       transform="translate(-1608.0714,-454.13782)"
       inkscape:label="#path4167" />
    <path
       style="fill:none;stroke:#000000;stroke-width:1px;stroke-linecap:butt;stroke-linejoin:miter;stroke-opacity:1"
       d="m 398.80822,145.50548 19.44544,4.24264 12.37437,-0.7071 12.72792,0.35355 c 0,0 7.77818,-0.70711 9.19239,-0.70711 1.41421,0 5.3033,0.70711 5.3033,2.12132 0,1.41422 0,14.14214 0,14.14214 0,0 -2.47487,2.82843 -3.53553,4.94975 -1.06066,2.12132 -2.12132,6.36396 -2.12132,6.36396 0,0 -0.35356,4.94975 0,6.71751 0.35355,1.76777 -0.35356,3.18198 -0.70711,7.77818 -0.35355,4.59619 -0.35355,10.6066 -0.35355,14.14213 0,3.53554 0,5.3033 0,8.48528 0,3.18199 -0.35356,7.77818 -0.35356,9.8995 0,2.12132 1.41422,5.65685 1.41422,5.65685 0,0 3.53553,3.18198 3.88908,4.5962 0.35356,1.41421 0.70711,1.41421 0.70711,4.59619 0,3.18198 0,9.54594 0.35355,10.96016 0.35356,1.41421 -1.06066,2.47487 -1.41421,5.3033 -0.35355,2.82843 -0.35355,2.12132 -0.35355,3.53553 0,1.41422 0.35355,4.24264 0.35355,4.24264 0,0 -6.01041,-1.41421 -8.48528,-1.76776 -2.47487,-0.35356 -4.24264,-0.70711 -7.07107,-1.41422 -2.82843,-0.7071 -3.18198,-1.76776 -7.07107,-2.12132 -3.88908,-0.35355 -3.53553,-0.35355 -9.54594,-0.35355 -6.01041,0 -6.01041,-0.70711 -9.89949,-0.70711 -3.88909,0 -6.71752,-0.70711 -9.19239,-0.70711 -2.47487,0 -3.18198,-0.35355 -6.36396,0.35356 -3.18198,0.7071 -5.3033,-3.88909 -5.3033,-3.88909 0,0 0,-3.53553 -0.70711,-5.3033 -0.70711,-1.76777 -1.06066,-0.35355 -1.06066,-4.59619 0,-4.24264 0.35355,-1.41421 2.82842,-3.88909 2.47488,-2.47487 0.35356,-2.82843 1.06067,-6.01041 0.7071,-3.18198 0.7071,-3.88909 0.35355,-6.01041 -0.35355,-2.12132 2.12132,-3.88908 2.82843,-6.36396 0.7071,-2.47487 -0.35355,-2.82843 0.70711,-9.54594 1.06066,-6.71752 -3.08619,-5.89345 -1.76777,-7.07107 5.49376,-4.90705 0.68803,-6.13333 1.76777,-8.13173 4.16671,-7.71178 -1.41422,-2.12132 -0.35356,-6.0104 1.06066,-3.88909 0.70711,-3.18198 1.41422,-6.71752 0.7071,-3.53553 -0.70711,-8.83883 -0.70711,-10.96015 0,-2.12132 -0.35356,-3.53554 -0.35356,-5.65686 0,-2.12132 0,-2.12132 0,-4.94974 0,-2.82843 0.70711,-5.3033 0.70711,-7.07107 0,-1.76777 -0.70711,-7.77818 -0.70711,-7.77818 z"
       id="area_39"
       inkscape:connector-curvature="0"
       transform="translate(-1608.0714,-454.13782)"
       sodipodi:nodetypes="ccccsscscssssscssssscssssssscsssssssssssssssc"
       inkscape:label="#path4169" />
    <path
       style="fill:none;stroke:#000000;stroke-width:1px;stroke-linecap:butt;stroke-linejoin:miter;stroke-opacity:1"
       d="m 459.97296,227.52987 c 0,0 11.66726,0.70711 13.43503,1.41421 1.76777,0.70711 12.72792,2.82843 15.2028,1.76777 2.47487,-1.06066 206.12162,-1.76777 206.12162,-1.76777 l 11.66726,-2.47487 c 0,0 1.76777,-0.70711 0.70711,-4.24264 -1.06066,-3.53553 -10.6066,-41.7193 -10.6066,-41.7193 l -9.19239,5.3033 -22.62742,1.06066 -193.3937,-1.41421 -12.02082,-3.88909 2.47488,7.42462 c 0,0 -0.70711,3.18198 -1.06066,5.3033 -0.35356,2.12132 -1.41422,7.42462 0,13.78858 1.41421,6.36396 -1.76777,15.55635 -1.76777,15.55635 z"
       id="area_40"
       inkscape:connector-curvature="0"
       transform="translate(-1608.0714,-454.13782)"
       inkscape:label="#path4171" />
    <path
       style="fill:none;stroke:#000000;stroke-width:1px;stroke-linecap:butt;stroke-linejoin:miter;stroke-opacity:1"
       d="m 111.01576,261.471 6.71752,-6.01041 c 0,0 0,-1.06066 1.06066,-2.47488 1.06066,-1.41421 2.82843,-3.88908 2.12132,-6.36396 -0.70711,-2.47487 1.41421,-10.6066 1.41421,-10.6066 l 7.07107,-12.37437 7.77818,-7.42462 94.39875,-1.06066 3.18198,14.84924 2.12132,20.5061 -1.41421,4.24264 -29.69849,1.06066 c 0,0 -9.54594,-1.06066 -12.02081,0 -2.47488,1.06066 -20.85965,2.12132 -22.98097,2.12132 -2.12132,0 -11.31371,0 -15.55635,0.35356 -4.24264,0.35355 -11.31371,1.06066 -15.2028,0.7071 -3.88908,-0.35355 -12.37437,-0.35355 -14.84924,-0.35355 -2.47487,0 -6.71751,-1.76777 -7.42462,0.35355 -0.70711,2.12132 -6.71752,2.47488 -6.71752,2.47488 z"
       id="area_33"
       inkscape:connector-curvature="0"
       transform="translate(-1608.0714,-454.13782)"
       inkscape:label="#path4173" />
    <path
       style="fill:none;stroke:#000000;stroke-width:1px;stroke-linecap:butt;stroke-linejoin:miter;stroke-opacity:1"
       d="m 258.80108,218.33748 -3.18198,27.93072 -0.70711,9.89949 0.35356,8.83884 94.75231,3.53553 2.82842,-4.24264 3.18198,-39.59798 -6.36396,-2.47487 -89.449,-3.88909 z"
       id="area_34"
       inkscape:connector-curvature="0"
       transform="translate(-1608.0714,-454.13782)"
       inkscape:label="#path4175" />
    <path
       style="fill:none;stroke:#000000;stroke-width:1px;stroke-linecap:butt;stroke-linejoin:miter;stroke-opacity:1"
       d="m 500.98515,233.89383 -0.7071,27.57717 11.31371,2.47487 185.61553,2.47487 12.72792,-4.24264 4.94975,-3.18198 -7.07107,-26.16295 -24.39519,-1.06066 -7.07106,0.70711 -154.14928,-2.82843 -12.72792,2.47487 z"
       id="area_41"
       inkscape:connector-curvature="0"
       transform="translate(-1608.0714,-454.13782)"
       inkscape:label="#path4177" />
    <path
       style="fill:none;stroke:#000000;stroke-width:1px;stroke-linecap:butt;stroke-linejoin:miter;stroke-opacity:1"
       d="m 357.44248,263.23876 16.26345,-0.35355 4.24264,2.82843 202.23254,-0.70711 116.31907,1.41421 19.09188,-5.3033 8.13173,33.58757 -35.70889,9.54595 -58.33631,0.7071 -0.35355,-11.66726 c 0,0 -15.90991,5.3033 -17.67767,5.3033 -1.76777,0 -13.08148,3.53554 -13.08148,3.53554 l -18.73833,1.76776 -78.1353,-0.35355 -9.19239,-4.94975 -4.94974,1.06066 -13.43503,0 1.06066,4.24264 -50.20458,0 1.41421,-6.71751 -10.96016,4.24264 -7.07106,-1.41421 -53.74012,-1.41422 z"
       id="area_42"
       inkscape:connector-curvature="0"
       transform="translate(-1608.0714,-454.13782)"
       inkscape:label="#path4179" />
    <path
       style="fill:none;stroke:#000000;stroke-width:1px;stroke-linecap:butt;stroke-linejoin:miter;stroke-opacity:1"
       d="m 102.17693,257.58191 7.42462,7.77817 c 0,0 0.70711,2.82843 0.35355,6.71752 -0.35355,3.88908 1.76777,10.25305 1.41422,12.72792 -0.35356,2.47487 -0.35356,7.42462 -0.35356,7.42462 l 2.12133,4.24264 6.0104,0.35355 c 0,0 4.94975,1.76777 6.36396,2.12133 1.41422,0.35355 126.21856,1.06066 126.21856,1.06066 l -2.82842,-4.24265 -2.82843,-3.53553 -1.41421,-4.24264 4.24264,-1.76777 2.47487,-4.59619 c 0,0 -2.12132,-1.76777 -1.41421,-3.18198 0.7071,-1.41421 2.82842,-6.71752 2.82842,-6.71752 l 2.47488,-6.0104 -1.41422,-9.54595 -4.59619,1.41422 -11.31371,-2.12132 -7.07107,0.7071 c 0,0 -33.23401,-1.41421 -34.64823,-0.35355 -1.41421,1.06066 -10.96015,1.06066 -10.96015,1.06066 l -30.05204,1.41422 -7.07107,0.35355 -28.63782,-0.70711 c 0,0 -3.18198,2.12132 -4.5962,2.82843 -1.41421,0.70711 -4.59619,-1.06066 -4.59619,-1.06066 l -6.36396,-2.47487 z"
       id="area_35"
       inkscape:connector-curvature="0"
       transform="translate(-1608.0714,-454.13782)"
       inkscape:label="#path4181" />
    <path
       style="fill:none;stroke:#000000;stroke-width:1px;stroke-linecap:butt;stroke-linejoin:miter;stroke-opacity:1"
       d="m 128.69343,300.71542 -1.06066,18.73833 c 0,0 0,6.36396 -0.7071,8.13173 -0.70711,1.76777 -1.06066,6.36396 -1.06066,6.36396 l 1.06066,3.18198 12.02081,4.5962 9.54594,2.12132 17.32412,4.24264 183.14066,1.41421 22.27386,0 22.98097,-3.53553 8.48528,0.7071 0.35356,-1.76776 3.53553,0.7071 8.13173,-4.24264 2.47487,-3.53553 7.42462,-6.01041 1.06066,-27.57716 -1.06066,-0.70711 1.76777,-7.42462 -9.8995,4.94975 -15.9099,-2.12132 -203.64675,0.35355 -68.58936,-0.35355 z"
       id="area_36"
       inkscape:connector-curvature="0"
       transform="translate(-1608.0714,-454.13782)"
       inkscape:label="#path4183" />
    <path
       style="fill:none;stroke:#000000;stroke-width:1px;stroke-linecap:butt;stroke-linejoin:miter;stroke-opacity:1"
       d="m 474.8222,328.64614 9.8995,2.82843 147.78532,0.35355 -2.12132,-26.16295 -0.70711,-0.35355 -0.70711,-12.72793 -14.14213,5.65686 -10.6066,1.76777 -5.65686,2.12132 -16.61701,1.76776 -80.25662,-0.35355 -9.89949,-4.59619 -18.03123,0 z"
       id="area_43"
       inkscape:connector-curvature="0"
       transform="translate(-1608.0714,-454.13782)"
       inkscape:label="#path4185" />
    <path
       style="fill:none;stroke:#000000;stroke-width:1px;stroke-linecap:butt;stroke-linejoin:miter;stroke-opacity:1"
       d="m 438.05265,321.57507 5.3033,4.94975 c 0,0 1.41422,4.94975 1.41422,6.36396 0,1.41421 -0.70711,4.59619 -1.41422,6.01041 -0.7071,1.41421 -1.41421,4.59619 -2.47487,6.36396 -1.06066,1.76777 -3.53554,0.35355 -2.12132,3.53553 1.41421,3.18198 4.94975,2.47488 4.94975,2.47488 l 211.07137,2.82842 6.01041,-0.7071 10.25305,-3.88909 -7.42463,-26.87006 -10.6066,10.25305 -187.38329,-1.41421 -2.47488,-0.35356 -4.59619,-3.53553 -7.07107,1.06066 z"
       id="area_44"
       inkscape:connector-curvature="0"
       transform="translate(-1608.0714,-454.13782)"
       inkscape:label="#path4187" />
    <text
       xml:space="preserve"
       style="font-size:40px;font-style:normal;font-weight:normal;line-height:125%;letter-spacing:0px;word-spacing:0px;fill:#000000;fill-opacity:1;stroke:none;font-family:Sans"
       x="-1585.444"
       y="-56.902325"
       id="navigation"
       sodipodi:linespacing="125%"
       inkscape:label="#text4189"><tspan
         sodipodi:role="line"
         id="tspan4191"
         x="-1585.444"
         y="-56.902325">30 31 37 38 32 39 40 33 34 41 35 </tspan><tspan
         sodipodi:role="line"
         x="-1585.444"
         y="-6.9023247"
         id="tspan4193">42 36 43 44</tspan></text>
  </g>
</svg>
