<?xml version="1.0" encoding="UTF-8" standalone="no"?>
<!-- Created with Inkscape (http://www.inkscape.org/) -->

<svg
   xmlns:dc="http://purl.org/dc/elements/1.1/"
   xmlns:cc="http://creativecommons.org/ns#"
   xmlns:rdf="http://www.w3.org/1999/02/22-rdf-syntax-ns#"
   xmlns:svg="http://www.w3.org/2000/svg"
   xmlns="http://www.w3.org/2000/svg"
   xmlns:xlink="http://www.w3.org/1999/xlink"
   xmlns:sodipodi="http://sodipodi.sourceforge.net/DTD/sodipodi-0.dtd"
   xmlns:inkscape="http://www.inkscape.org/namespaces/inkscape"
   width="720"
   height="480"
   id="svg2"
   version="1.1"
   inkscape:version="0.91 r13725"
   sodipodi:docname="Gchse.svg">
  <defs
     id="defs4" />
  <sodipodi:namedview
     id="base"
     pagecolor="#ffffff"
     bordercolor="#666666"
     borderopacity="1.0"
     inkscape:pageopacity="0.0"
     inkscape:pageshadow="2"
     inkscape:zoom="1.979899"
     inkscape:cx="519.58603"
     inkscape:cy="311.78175"
     inkscape:document-units="px"
     inkscape:current-layer="layer1"
     showgrid="false"
     fit-margin-top="0"
     fit-margin-left="0"
     fit-margin-right="0"
     fit-margin-bottom="0"
     inkscape:window-width="2560"
     inkscape:window-height="1338"
     inkscape:window-x="0"
     inkscape:window-y="1"
     inkscape:window-maximized="1" />
  <metadata
     id="metadata7">
    <rdf:RDF>
      <cc:Work
         rdf:about="">
        <dc:format>image/svg+xml</dc:format>
        <dc:type
           rdf:resource="http://purl.org/dc/dcmitype/StillImage" />
        <dc:title></dc:title>
      </cc:Work>
    </rdf:RDF>
  </metadata>
  <g
     inkscape:label="Layer 1"
     inkscape:groupmode="layer"
     id="layer1"
     transform="translate(-317.14285,-503.79074)">
    <image
       y="503.79074"
       x="317.14285"
       id="path30261"
       xlink:href="file:////Users/nip13/Projects/Intake24/intake24-images-db/guide/Gchse/Gchse.jpg"
       height="480"
       width="720"
       inkscape:label="#image2993" />
    <path
       style="fill:none;stroke:#000000;stroke-width:1px;stroke-linecap:butt;stroke-linejoin:miter;stroke-opacity:1"
       d="m 481.10714,641.82645 c 9.10714,1.60715 15,2.5 15,2.5 l 4.10714,1.07143 3.75,3.75 3.21428,3.39286 4.28572,0.35714 6.60714,0.71429 7.5,-0.35714 4.82143,-1.60715 5,-2.14285 3.57143,-1.96429 3.92857,-3.21429 3.21429,-4.64285 1.60714,-3.75 0.89286,-4.28572 0,-5 3.03571,-4.46428 1.25,-5.89286 -0.35714,-6.78572 -3.03572,-4.82142 -5.17857,-3.75 -5,-3.21429 -7.32143,-2.67857 -4.64285,-0.53571 -4.82143,0 -4.28572,0 -5,0.71428 -4.28571,1.60714 -5.53572,3.39286 -3.57142,1.96429 -4.10715,3.75 -3.57143,5.35714 -2.14285,3.92857 -2.5,3.03571 -3.21429,4.82143 -3.03571,4.64286 -3.03572,5 -0.89285,2.85714 0.35714,2.5 1.96428,3.03572 z"
       id="area_1"
       inkscape:connector-curvature="0"
       inkscape:label="#path2996" />
    <path
       style="fill:none;stroke:#000000;stroke-width:1px;stroke-linecap:butt;stroke-linejoin:miter;stroke-opacity:1"
       d="m 249.82143,76.249999 c 1.42857,-0.357143 27.14286,0.892857 27.14286,0.892857 l 7.5,0.357143 8.03571,1.25 6.60714,2.5 2.67857,3.035714 -0.17857,10.357143 -0.89285,3.035715 -6.42858,6.428569 -7.14285,7.32143 -7.67857,5.89286 -4.64286,4.46428 -2.5,1.07143 -3.03572,-0.53571 -3.75,-1.60715 -7.85714,-10.17857 -5.71428,-6.78571 -5.17858,-5.178572 -2.14285,-4.285715 -0.53572,-2.857142 0.35715,-5.535715 0.17857,-5.535714 0.71428,-2.5 2.14286,-1.25 z"
       id="area_2"
       inkscape:connector-curvature="0"
       transform="translate(317.14285,503.79074)"
       inkscape:label="#path2998" />
    <path
       style="fill:none;stroke:#000000;stroke-width:1px;stroke-linecap:butt;stroke-linejoin:miter;stroke-opacity:1"
       d="m 330.89286,83.035713 15,0 13.39286,0 5.71428,0.714286 8.75,0.714286 5.53572,3.035714 2.67857,3.75 1.07143,4.285714 -0.17858,12.499997 -1.25,3.21429 -2.14285,2.85714 -1.96429,1.78572 -2.5,0.89285 -1.60714,0 0.35714,3.39286 -3.39286,1.25 -5.89285,1.25 -7.85715,0.35714 L 350,122.85714 341.25,122.5 l -7.67857,0 -5.71429,-1.07143 -4.28571,-2.67857 -1.25,-1.07143 -8.57143,0.35714 -2.14286,-0.71428 -2.14285,-0.89286 -1.25,-0.35714 -0.53572,-2.14286 0.53572,-13.928571 1.42857,-5.535714 1.25,-3.392857 1.96428,-3.214286 3.39286,-1.428571 4.64286,-1.25 4.64285,-0.892858 z"
       id="area_3"
       inkscape:connector-curvature="0"
       transform="translate(317.14285,503.79074)"
       inkscape:label="#path3000" />
    <path
       style="fill:none;stroke:#000000;stroke-width:1px;stroke-linecap:butt;stroke-linejoin:miter;stroke-opacity:1"
       d="m 424.82143,94.642856 c 0.71429,0 6.25,0.714286 6.25,0.714286 l 6.07143,2.857143 3.92857,2.499995 c 0,0 1.96429,2.14286 2.67857,2.32143 0.71429,0.17857 2.32143,2.5 2.32143,2.5 l 1.96429,2.85715 0.35714,3.39285 0,2.5 1.07143,1.96429 0.71428,1.96428 -0.71428,1.96429 -1.60715,0.89286 c 0,0 0,1.96428 0,2.85714 0,0.89286 -0.53571,3.92857 -0.53571,3.92857 l -1.60714,1.96429 -0.53572,2.67857 -2.5,1.60714 -3.03571,2.32143 c 0,0 -1.96429,-0.53571 -2.67857,-0.53571 -0.71429,0 -1.42857,0.17857 -1.42857,0.17857 l -3.21429,1.42857 -0.89286,1.25 -1.60714,1.25 -4.82143,0.89286 -5,-0.35715 -4.82143,-0.71428 -2.32143,-0.53572 -3.39285,-1.96428 -3.92857,-3.03572 -1.96429,-1.96428 c 0,0 -0.35714,-1.07143 -1.07143,-1.78572 -0.71428,-0.71428 -2.14286,-2.32143 -2.14286,-2.32143 l -2.5,-1.42857 -1.78571,-1.78571 -0.17857,-4.28572 -1.42857,-1.96428 0.17857,-5.35714 0.71428,-2.32143 1.42858,-3.57143 1.60714,-2.67857 3.03571,-2.32143 1.78572,-1.96429 2.67857,-1.964282 1.96428,-0.535715 1.96429,-1.071428 2.5,-0.892857 5.35714,-0.892857 4.46429,-0.357143 z"
       id="area_4"
       inkscape:connector-curvature="0"
       transform="translate(317.14285,503.79074)"
       inkscape:label="#path3002" />
    <path
       style="fill:none;stroke:#000000;stroke-width:1px;stroke-linecap:butt;stroke-linejoin:miter;stroke-opacity:1"
       d="m 490.17857,96.071428 5.53572,0.714285 4.82143,1.25 4.82142,3.035717 3.75,3.21428 3.03572,4.46429 0.89286,4.28571 0.17857,6.25 -1.07143,3.75 -1.60714,4.28572 -2.5,4.46428 -1.78572,3.39286 -3.21428,2.14286 c 0,0 -3.57143,0.89285 -4.46429,0.71428 -0.89286,-0.17857 -5.89286,-0.53571 -5.89286,-0.53571 0,0 -5.17857,0.17857 -6.07143,0 -0.89285,-0.17857 -6.07142,-1.60714 -6.07142,-1.60714 l -6.07143,-1.07143 -4.28572,-3.75 -2.85714,-2.5 -0.71429,-3.21429 -1.25,-6.42857 -0.17857,-5.17857 1.25,-1.60714 2.32143,-5 1.60714,-2.67858 3.03572,-3.39285 3.21428,-2.857145 3.03572,-1.607143 5.17857,-0.535714 z"
       id="area_5"
       inkscape:connector-curvature="0"
       transform="translate(317.14285,503.79074)"
       inkscape:label="#path3004" />
    <path
       style="fill:none;stroke:#000000;stroke-width:1px;stroke-linecap:butt;stroke-linejoin:miter;stroke-opacity:1"
       d="m 267.5,123.39286 82.85714,0.89285 5,0.35715 1.60715,1.60714 4.82143,0.17857 -0.35715,5.17857 -2.14285,4.10714 c 0,0 -1.60715,2.14286 -1.60715,3.57143 0,1.42857 -0.89285,4.28572 -0.89285,4.28572 l -0.89286,0.53571 0.35714,11.42857 -4.64286,0.53572 -2.67857,0.71428 -2.5,0.17858 -0.53571,3.21428 -1.60714,0.71429 -70.17858,-0.35715 -2.5,-0.35714 -1.42857,-1.07143 -1.07143,-1.25 -0.53571,-1.60714 -5.53572,0.17857 -4.10714,2.5 c 0,0 -3.57143,1.07143 -4.46428,1.07143 -0.89286,0 -2.67858,0 -2.67858,0 l -1.60714,-1.42857 -0.53571,-1.25 1.78571,-23.92857 3.39286,-0.17858 2.67857,0 2.5,-1.42857 1.78571,-1.25 1.07143,-3.75 1.25,-1.96428 1.60715,-0.71429 z"
       id="area_7"
       inkscape:connector-curvature="0"
       transform="translate(317.14285,503.79074)"
       inkscape:label="#path3008" />
    <path
       style="fill:none;stroke:#000000;stroke-width:1px;stroke-linecap:butt;stroke-linejoin:miter;stroke-opacity:1"
       d="m 371.78572,146.78571 6.60714,-1.25 6.07143,-0.53571 6.42857,0.53571 6.25,1.60715 3.92857,1.96428 4.28571,4.10715 3.57143,4.10714 1.60715,4.82143 0.35714,5.89285 -0.17857,4.46429 -0.17857,4.64286 -1.42858,3.21428 -2.32142,1.96429 -3.21429,2.67857 -1.96429,2.5 -5,1.96429 -4.46428,0.35714 -9.28572,0 -5.53571,0.35714 -5,-1.25 -4.28571,-1.60714 -3.92858,-2.67857 -3.75,-3.03572 -2.67857,-2.85714 -1.96428,-4.46429 -0.35715,-4.28571 -0.89285,-5.89286 0.71428,-2.85714 2.5,-3.75 4.10715,-3.75 3.39285,-2.85714 4.10715,-3.03572 z"
       id="area_8"
       inkscape:connector-curvature="0"
       transform="translate(317.14285,503.79074)"
       inkscape:label="#path3010" />
    <path
       style="fill:none;stroke:#000000;stroke-width:1px;stroke-linecap:butt;stroke-linejoin:miter;stroke-opacity:1"
       d="m 442.14286,143.39286 9.28571,0 5,0.17857 4.46429,1.07143 4.82143,1.96428 4.64285,1.25 3.21429,2.5 4.46429,4.28572 2.67857,2.85714 1.78571,2.85714 1.07143,2.5 0.89286,3.75 0,5.89286 -1.42857,2.5 -1.25,2.67857 -2.14286,3.39286 -3.03572,3.21428 -2.85714,2.32143 -2.14286,1.96429 -3.39285,2.85714 c 0,0 -1.60715,-0.53571 -2.67857,-0.17857 -1.07143,0.35714 -1.60715,1.42857 -1.60715,1.42857 l -1.42857,0.71429 -21.78571,-0.71429 -0.53572,-1.60714 0.35715,-0.89286 -1.96429,0 c 0,0 -2.85714,-1.42857 -3.57143,-1.42857 -0.71428,0 -3.21428,-1.96429 -3.21428,-1.96429 l -2.67858,-1.96428 -2.5,-2.67857 -2.5,-1.96429 -3.39285,-3.57143 -1.60715,-2.85714 -1.07142,-3.75 -0.17858,-3.92857 0.17858,-5.17857 1.78571,-3.21429 3.39286,-4.10714 3.57143,-3.21429 3.57142,-2.32143 3.39286,-1.25 L 438.92857,145 z"
       id="area_9"
       inkscape:connector-curvature="0"
       transform="translate(317.14285,503.79074)"
       inkscape:label="#path3012" />
    <path
       style="fill:none;stroke:#000000;stroke-width:1px;stroke-linecap:butt;stroke-linejoin:miter;stroke-opacity:1"
       d="m 492.14286,156.78571 15,-0.35714 11.42857,0.71429 13.57143,-1.07143 9.28571,-0.71429 7.5,-3.57143 5,-1.42857 8.21429,1.07143 6.78571,0.35714 8.21429,0.35715 10.71428,-0.35715 7.5,2.14286 2.14286,3.92857 2.14286,7.14286 3.57143,6.42857 2.14285,6.78572 1.42858,4.64285 c 0,0 1.42857,3.57143 2.14285,5.71429 0.71429,2.14286 3.57143,5.35714 4.28572,7.14286 0.71428,1.78571 2.14285,3.21428 2.14285,6.07142 0,2.85715 1.78572,9.28572 1.78572,9.28572 l -4.64286,2.5 -7.14286,-1.07143 -7.14285,-0.35714 c 0,0 -5,-1.42857 -6.78572,-1.42857 -1.78571,0 -12.14285,0.35714 -12.14285,0.35714 l -12.5,1.42857 -12.5,0 -11.07143,0 -17.5,1.07143 -11.07143,0.35714 -8.57143,0.71429 -5.35714,0 L 497.5,212.5 l -8.21428,-14.64286 -1.78572,-10 -0.35714,-7.5 1.78571,-9.28571 1.78572,-6.42857 0.71428,-6.07143 z"
       id="area_10"
       inkscape:connector-curvature="0"
       transform="translate(317.14285,503.79074)"
       inkscape:label="#path3014" />
    <path
       style="fill:none;stroke:#000000;stroke-width:1px;stroke-linecap:butt;stroke-linejoin:miter;stroke-opacity:1"
       d="m 122.5,128.92857 11.78571,0.35714 9.64286,-0.35714 10.35714,0 4.28572,0.35714 2.5,2.85715 0,6.07143 -1.42857,8.21428 -3.21429,18.92857 -1.78571,16.78572 -4.64286,24.64285 -1.42857,19.64286 -0.71429,7.85714 -2.5,7.5 -0.71428,7.85715 L 142.5,265 l -1.42857,7.5 -1.78572,6.07143 -4.64285,1.78571 -13.21429,-1.07143 -13.92857,0 -9.285714,0 -3.928572,-0.71428 -1.071428,-4.28572 0.357143,-8.57142 2.142857,-13.21429 4.642854,-13.57143 3.57143,-15.71428 1.42857,-11.07143 3.57143,-17.5 2.85714,-15 1.78572,-11.78572 5,-21.07143 2.5,-11.07142 z"
       id="area_11"
       inkscape:connector-curvature="0"
       transform="translate(317.14285,503.79074)"
       inkscape:label="#path3016" />
    <path
       style="fill:none;stroke:#000000;stroke-width:1px;stroke-linecap:butt;stroke-linejoin:miter;stroke-opacity:1"
       d="m 182.5,166.42857 10.35714,0 8.21429,0.71429 6.07143,1.78571 8.92857,1.78572 5.71428,0 3.21429,0 0,6.07142 -1.07143,6.42858 -1.78571,9.28571 -2.14286,6.78571 -1.78571,12.5 -0.71429,9.28572 -3.21429,7.5 -1.42857,12.14286 -2.5,12.5 0,7.85714 0.71429,10 0,10.71428 0,17.14286 0,10.35714 -1.07143,8.92858 0,4.64285 -9.28571,0.35715 -7.5,-0.71429 -6.78572,-0.71429 -12.14286,0 -8.92857,0 -4.28571,-0.71428 1.07143,-1.78572 0,-4.28571 0.71428,-9.28571 2.85715,-13.57143 2.85714,-12.14286 2.85714,-15 1.78572,-11.78571 1.42857,-20.71429 0.71428,-17.5 1.07143,-7.5 0.71429,-9.64286 L 180,187.5 l 0.35714,-7.85714 1.07143,-7.85715 z"
       id="area_12"
       inkscape:connector-curvature="0"
       transform="translate(317.14285,503.79074)"
       inkscape:label="#path3018" />
    <path
       style="fill:none;stroke:#000000;stroke-width:1px;stroke-linecap:butt;stroke-linejoin:miter;stroke-opacity:1"
       d="M 247.14286,170.35714 257.5,170 l 9.64286,0.35714 7.85714,0 6.42857,0 1.42857,2.14286 -1.42857,10 0.35714,8.92857 c 0,0 0,7.14286 -0.35714,8.57143 -0.35714,1.42857 -0.35714,12.5 -0.35714,12.5 l -0.35714,13.57143 -1.07143,14.28571 -1.07143,18.92857 -1.42857,28.21429 -0.71429,7.85714 -2.5,6.07143 -10.35714,2.5 -9.28572,0 -13.92857,0 -5.71428,-2.14286 2.14285,-17.5 2.14286,-14.28571 0,-17.14286 1.78572,-21.07143 0.71428,-20.71428 1.78572,-17.5 1.78571,-12.5 0.71429,-7.85714 z"
       id="area_13"
       inkscape:connector-curvature="0"
       transform="translate(317.14285,503.79074)"
       inkscape:label="#path3020" />
    <path
       style="fill:none;stroke:#000000;stroke-width:1px;stroke-linecap:butt;stroke-linejoin:miter;stroke-opacity:1"
       d="m 303.21429,185 3.57142,-2.85714 4.28572,-2.14286 5,0 5.71428,2.14286 4.64286,1.07143 6.42857,3.57142 3.57143,1.07143 1.78572,6.07143 0,10.71429 c 0,0 1.07142,14.64285 1.07142,16.07143 0,1.42857 -0.35714,13.92857 -0.35714,13.92857 L 337.5,250 c 0,0 0.71429,13.57143 0.71429,15.35714 0,1.78572 -1.78572,19.28572 -1.78572,19.28572 l 0,6.42857 -3.21428,0.71428 -7.85715,0 -7.14285,0 -8.92858,0.35715 -6.42857,0.71428 -7.14285,-0.35714 -2.14286,0.35714 1.07143,-21.07143 1.42857,-19.28571 1.07143,-16.07143 2.5,-11.42857 1.42857,-12.5 0.71428,-10 1.07143,-10.71429 z"
       id="area_14"
       inkscape:connector-curvature="0"
       transform="translate(317.14285,503.79074)"
       inkscape:label="#path3022" />
    <path
       style="fill:none;stroke:#000000;stroke-width:1px;stroke-linecap:butt;stroke-linejoin:miter;stroke-opacity:1"
       d="m 358.21429,191.42857 18.92857,0.35714 13.21428,0.35715 16.07143,0.71428 9.28572,-0.71428 8.57142,-0.35715 c 0,0 5.35715,0 5.71429,1.42858 0.35714,1.42857 6.42857,5 6.42857,5 l 1.42857,7.14285 -1.07143,17.14286 0.71429,22.85714 0.71429,20.35715 1.42857,14.64285 0,9.64286 1.07143,8.57143 L 440,304.64286 c 0,0 -2.5,4.28571 -3.92857,4.64285 C 434.64286,309.64286 421.42857,310 421.42857,310 c 0,0 -12.5,-0.71429 -14.28571,-0.71429 -1.78572,0 -13.92857,0.71429 -13.92857,0.71429 L 387.14286,306.42857 382.5,305.71429 375.71429,305 364.28571,305 360,301.78571 l -2.85714,-5.71428 0.35714,-16.78572 0.35714,-27.5 0.71429,-27.85714 L 357.5,202.5 z"
       id="area_15"
       inkscape:connector-curvature="0"
       transform="translate(317.14285,503.79074)"
       inkscape:label="#path3024" />
    <path
       style="fill:none;stroke:#000000;stroke-width:1px;stroke-linecap:butt;stroke-linejoin:miter;stroke-opacity:1"
       d="M 438.57143,313.57143 452.14286,312.5 465,310.71429 478.57143,309.28571 490,306.42857 l 11.42857,-0.35714 12.85715,-0.35714 c 0,0 7.14285,1.42857 8.57142,2.14285 1.42858,0.71429 8.57143,1.42857 8.57143,1.42857 l 1.42857,-1.78571 -3.21428,-33.57143 -5,-52.5 -0.71429,-7.5 -5,-5 c 0,0 -10.71428,-1.78571 -12.5,-1.78571 -1.78571,0 -15.35714,-0.35715 -15.35714,-0.35715 0,0 -4.28571,-0.35714 -9.64286,0 -5.35714,0.35715 -11.07143,0.35715 -11.07143,0.35715 l -4.28571,1.78571 -9.28571,1.07143 -6.42858,-1.78571 -4.64285,-0.71429 -5.35715,1.78571 -1.78571,1.07143 -0.71429,4.28572 z"
       id="area_16"
       inkscape:connector-curvature="0"
       transform="translate(317.14285,503.79074)"
       inkscape:label="#path3026" />
    <path
       style="fill:none;stroke:#000000;stroke-width:1px;stroke-linecap:butt;stroke-linejoin:miter;stroke-opacity:1"
       d="m 622.5,304.28571 -2.14286,-12.5 -3.92857,-11.42857 -2.85714,-13.92857 -2.5,-16.78571 0,-14.28572 -2.14286,-15 0.35715,-5.71428 -0.35715,-1.42857 -11.42857,-1.78572 -6.42857,0 -9.64286,0 -12.5,0.71429 -11.42857,1.07143 -14.64286,1.07142 -13.92857,0 L 523.21429,215 c 0,0 2.14285,11.42857 2.14285,12.85714 0,1.42857 3.57143,30.71429 3.57143,30.71429 l 1.42857,25 1.42858,18.21428 2.85714,8.57143 2.14286,6.07143 12.14285,1.07143 13.57143,0.35714 9.64286,-0.71428 8.21428,0.35714 10.71429,-1.42857 5,-3.92857 12.14286,-1.07143 7.5,-0.71429 3.57143,-2.14285 z"
       id="area_17"
       inkscape:connector-curvature="0"
       transform="translate(317.14285,503.79074)"
       inkscape:label="#path3028" />
    <text
       xml:space="preserve"
       style="font-style:normal;font-weight:normal;font-size:37.23864365px;line-height:125%;font-family:Sans;letter-spacing:0px;word-spacing:0px;fill:#000000;fill-opacity:1;stroke:none"
       x="306.44107"
       y="562.60583"
       id="navigation"
       sodipodi:linespacing="125%"
       transform="scale(1.0385352,0.96289471)"
       inkscape:label="#text3030"><tspan
         sodipodi:role="line"
         id="tspan3032"
         x="306.44107"
         y="562.60583">1 2 3 4 5 6 7 8 9 10 11 12 13 14 15 16 17</tspan></text>
    <path
       style="fill:none;fill-rule:evenodd;stroke:#000000;stroke-width:1px;stroke-linecap:butt;stroke-linejoin:miter;stroke-opacity:1"
       d="m 872.47421,603.4683 -8.33375,8.5863 -3.53554,9.34391 2.02031,12.12183 5.80837,7.07107 8.08122,4.29315 28.03174,1.76777 11.61675,-10.10153 0.50508,-10.85914 -0.75762,-8.5863 -7.57614,-8.08122 -13.8896,-5.55584 -15.65736,-1.26269 z"
       id="area_6"
       inkscape:connector-curvature="0"
       inkscape:label="#path3443" />
  </g>
</svg>
