<?xml version="1.0" encoding="UTF-8" standalone="no"?>
<!-- Created with Inkscape (http://www.inkscape.org/) -->

<svg
   xmlns:dc="http://purl.org/dc/elements/1.1/"
   xmlns:cc="http://creativecommons.org/ns#"
   xmlns:rdf="http://www.w3.org/1999/02/22-rdf-syntax-ns#"
   xmlns:svg="http://www.w3.org/2000/svg"
   xmlns="http://www.w3.org/2000/svg"
   xmlns:xlink="http://www.w3.org/1999/xlink"
   xmlns:sodipodi="http://sodipodi.sourceforge.net/DTD/sodipodi-0.dtd"
   xmlns:inkscape="http://www.inkscape.org/namespaces/inkscape"
   width="800"
   height="528"
   id="svg2"
   version="1.1"
   inkscape:version="0.48.3.1 r9886"
   sodipodi:docname="New document 1">
  <defs
     id="defs4" />
  <sodipodi:namedview
     id="base"
     pagecolor="#ffffff"
     bordercolor="#666666"
     borderopacity="1.0"
     inkscape:pageopacity="0.0"
     inkscape:pageshadow="2"
     inkscape:zoom="1.4"
     inkscape:cx="358.41482"
     inkscape:cy="316.62562"
     inkscape:document-units="px"
     inkscape:current-layer="layer1"
     showgrid="false"
     fit-margin-top="0"
     fit-margin-left="0"
     fit-margin-right="0"
     fit-margin-bottom="0"
     inkscape:window-width="1366"
     inkscape:window-height="706"
     inkscape:window-x="-8"
     inkscape:window-y="-8"
     inkscape:window-maximized="1" />
  <metadata
     id="metadata7">
    <rdf:RDF>
      <cc:Work
         rdf:about="">
        <dc:format>image/svg+xml</dc:format>
        <dc:type
           rdf:resource="http://purl.org/dc/dcmitype/StillImage" />
        <dc:title></dc:title>
      </cc:Work>
    </rdf:RDF>
  </metadata>
  <g
     inkscape:label="Layer 1"
     inkscape:groupmode="layer"
     id="layer1"
     transform="translate(-102.85714,-411.21933)">
    <image
       y="411.21933"
       x="102.85714"
       id="image2993"
       xlink:href="file:///C:/Users/Mantas/Desktop/03/Gcra.jpg"
       height="528"
       width="800" />
    <path
       style="fill:none;stroke:#000000;stroke-width:1px;stroke-linecap:butt;stroke-linejoin:miter;stroke-opacity:1"
       d="m 212.85714,126.57143 10.35715,0.71428 8.57142,1.78572 6.78572,1.42857 9.28571,5.35714 7.14286,6.42857 4.64286,7.85715 1.42857,11.78571 -2.85714,6.78572 c 0,0 -1.78572,7.5 -3.21429,7.85714 -1.42857,0.35714 -5.35714,7.14286 -5.35714,7.14286 l -6.42857,5 -5.71429,3.21428 -6.78571,2.85714 -7.5,2.14286 -9.28572,1.78572 -10.35714,0.35714 -8.92857,0.71428 -13.57143,-4.64285 -9.64286,-5.71429 -6.42857,-5.35714 -4.28571,-5.71429 -1.42858,-7.14285 1.78572,-10.35715 3.21428,-8.21428 8.92858,-10 6.78571,-5.71429 9.64286,-4.64286 8.21428,-2.85714 L 203.92857,128 z"
       id="area_1"
       inkscape:connector-curvature="0"
       transform="translate(102.85714,411.21933)"
       inkscape:label="#path2996" />
    <path
       style="fill:none;stroke:#000000;stroke-width:1px;stroke-linecap:butt;stroke-linejoin:miter;stroke-opacity:1"
       d="m 305,131.57143 7.85714,-2.14286 6.42857,-0.35714 9.64286,0.71428 6.78572,1.07143 8.21428,2.5 7.14286,2.85715 8.57143,7.5 6.07143,6.78571 1.07142,3.57143 1.07143,7.5 -1.07143,7.14286 -5.71428,9.64285 -7.14286,5.35715 -7.14286,4.64285 -6.42857,1.78572 -7.5,1.78571 -11.07143,0.71429 -8.21428,0.71428 -5.35714,-1.42857 L 295,188.35714 290.71429,186.57143 285.35714,183 l -7.14285,-6.42857 -3.92858,-5.71429 -0.71428,-7.14285 -0.35714,-7.85715 2.5,-5.35714 5.71428,-6.42857 6.07143,-5 6.42857,-3.21429 6.78572,-2.5 z"
       id="area_2"
       inkscape:connector-curvature="0"
       transform="translate(102.85714,411.21933)"
       inkscape:label="#path2998" />
    <path
       style="fill:none;stroke:#000000;stroke-width:1px;stroke-linecap:butt;stroke-linejoin:miter;stroke-opacity:1"
       d="m 430.17857,139.07143 6.25,1.78571 5.35715,1.96429 L 445,144.25 l 3.57143,2.5 3.57143,3.75 3.75,4.10714 2.32143,5.53572 0.71428,3.39285 0.35715,4.46429 -0.71429,3.03571 -0.89286,2.85715 -1.96428,3.03571 -3.75,4.64286 -4.64286,4.46428 -4.46429,2.14286 -5.35714,2.5 -5.35714,1.78572 -5,0.89285 -5.17857,0.35715 -6.60715,-0.17858 -3.92857,-0.35714 -5.17857,-0.71428 -6.07143,-2.32143 -4.46428,-2.32143 -6.07143,-3.39286 -3.21429,-2.67857 -2.32143,-2.85714 -2.32142,-4.28572 -1.25,-3.57143 -1.07143,-4.46428 0.89285,-5 1.07143,-4.46429 2.5,-3.03571 2.85715,-3.39286 2.5,-2.14286 3.03571,-2.32143 3.21429,-2.5 2.5,-1.60714 1.78571,-0.71428 3.21429,-0.89286 5.53571,-1.07143 5.35714,-0.35714 4.46429,0 6.25,0.35714 z"
       id="area_3"
       inkscape:connector-curvature="0"
       transform="translate(102.85714,411.21933)"
       inkscape:label="#path3000" />
    <path
       style="fill:none;stroke:#000000;stroke-width:1px;stroke-linecap:butt;stroke-linejoin:miter;stroke-opacity:1"
       d="m 521.07143,142.46428 5.35714,2.32143 3.39286,2.14286 3.57143,2.67857 2.5,2.14286 1.78571,1.60714 2.67857,2.67857 1.96429,2.85715 1.25,3.03571 0,3.39286 0.17857,7.14285 -2.14286,5.71429 -1.78571,2.5 -3.21429,2.85714 -2.67857,2.5 -2.32143,1.78572 -2.67857,1.78571 -4.10714,1.60715 -4.64286,0.71428 -6.07143,0.17857 -4.10714,0.17857 -3.92857,0 -4.82143,-0.53571 -4.28571,-1.07143 -4.82143,-2.14286 -3.75,-1.78571 -3.03572,-2.5 -3.03571,-2.85714 -2.85714,-4.46429 -2.32143,-5.17857 -1.42857,-5.71429 0.35714,-4.46428 1.07143,-5.17857 2.5,-3.21429 4.10714,-3.92857 4.28572,-2.85714 4.64285,-2.14286 3.39286,-0.89286 2.32143,-0.53571 3.75,-0.71429 5.53571,-0.17857 5.17857,-0.17857 z"
       id="area_4"
       inkscape:connector-curvature="0"
       transform="translate(102.85714,411.21933)"
       inkscape:label="#path3002" />
    <path
       style="fill:none;stroke:#000000;stroke-width:1px;stroke-linecap:butt;stroke-linejoin:miter;stroke-opacity:1"
       d="m 592.32143,142.46428 7.14286,0.89286 4.46428,0.17857 3.75,1.07143 3.39286,1.42857 2.5,1.07143 1.96429,1.07143 3.57142,2.32143 3.39286,3.21428 3.39286,3.21429 0.89286,2.14286 1.07142,3.21428 0.35715,4.82143 0,3.57143 -0.71429,3.03571 -0.89286,2.32143 -1.42857,4.10715 -2.85714,3.39285 -4.10714,3.75 -4.46429,2.5 -5.35714,1.78572 -6.42857,1.25 -6.07143,-0.71429 -6.07143,-0.53571 -5.53571,-1.60714 -3.92858,-1.96429 -5.17857,-3.92857 -2.85714,-2.32143 -3.92857,-4.82143 -3.03572,-4.82143 -0.53571,-3.75 -0.71429,-7.5 1.96429,-6.07143 2.32143,-2.85714 3.21428,-2.85714 c 0,0 3.03572,-2.14286 3.75,-2.5 0.71429,-0.35715 6.25,-2.32143 6.25,-2.32143 l 5,-0.89286 z"
       id="area_5"
       inkscape:connector-curvature="0"
       transform="translate(102.85714,411.21933)"
       inkscape:label="#path3004" />
    <path
       style="fill:none;stroke:#000000;stroke-width:1px;stroke-linecap:butt;stroke-linejoin:miter;stroke-opacity:1"
       d="M 170.35714,219.42857 260,218 l 3.21429,0.53571 2.14285,2.85715 0.71429,2.85714 -0.89286,4.28571 -7.5,54.28572 -1.07143,3.03571 L 254.64286,288 252.5,289.25 249.82143,289.96429 245.17857,290.5 240,290.32143 c 0,0 -9.64286,1.07143 -10.89286,0.89286 -1.25,-0.17858 -13.57143,0.17857 -13.57143,0.17857 l -19.82142,-0.17857 -8.21429,0.35714 -6.07143,0.35714 -4.10714,0.53572 c 0,0 -12.14286,0.17857 -13.57143,0.17857 -1.42857,0 -7.32143,-0.17857 -8.03571,-0.53572 C 155,291.75 152.5,290.14286 152.5,290.14286 l -1.42857,-1.42857 c 0,0 -0.89286,-1.60715 -0.35714,-3.03572 0.53571,-1.42857 0.89285,-6.25 0.89285,-6.25 l 6.25,-29.46428 5.89286,-20.89286 0.53571,-4.28572 1.60715,-1.78571 1.42857,-1.60714 1.78571,-1.42857 z"
       id="area_6"
       inkscape:connector-curvature="0"
       transform="translate(102.85714,411.21933)"
       inkscape:label="#path3006" />
    <path
       style="fill:none;stroke:#000000;stroke-width:1px;stroke-linecap:butt;stroke-linejoin:miter;stroke-opacity:1"
       d="m 307.32143,218 81.42857,0.71429 3.92857,1.07142 2.67857,1.07143 1.42858,0.89286 2.14285,1.07143 2.14286,1.96428 0.89286,2.67858 -0.35715,58.75 -0.89285,7.14285 -1.25,1.42857 -1.96429,1.25 -2.14286,0.17858 -2.5,1.07142 -8.75,0.89286 -78.03571,-1.78571 -5.35714,-0.53572 -2.32143,-1.07143 -1.78572,-1.42857 -1.25,-2.32143 0.53572,-3.57142 1.78571,-23.21429 3.92857,-39.10714 0.53572,-2.67857 1.25,-1.78572 2.32143,-1.60714 z"
       id="area_7"
       inkscape:connector-curvature="0"
       transform="translate(102.85714,411.21933)"
       inkscape:label="#path3008" />
    <path
       style="fill:none;stroke:#000000;stroke-width:1px;stroke-linecap:butt;stroke-linejoin:miter;stroke-opacity:1"
       d="m 439.10714,222.28571 8.75,-0.53571 8.39286,-0.35714 33.75,0.17857 8.57143,0.71428 2.5,1.25 1.60714,1.07143 1.78572,1.60715 0.89285,2.32142 0.53572,4.28572 0.71428,5.71428 1.25,17.85715 0.17858,15.17857 0.35714,9.82143 0.17857,6.07143 -0.53571,4.28571 -0.35715,2.67857 -2.14285,1.96429 -1.25,1.78571 -1.96429,0.53572 -2.5,1.42857 -3.75,0.53571 -10.35714,0.17857 -13.03572,0 -17.5,-0.35714 -7.14285,-0.17857 -2.85715,-0.35714 -8.39285,-1.07143 -3.03572,-1.25 -1.25,-2.85715 -0.71428,-5.53571 -0.35715,-57.85714 1.07143,-4.10715 2.14286,-2.5 2.5,-1.42857 z"
       id="area_8"
       inkscape:connector-curvature="0"
       transform="translate(102.85714,411.21933)"
       inkscape:label="#path3010" />
    <path
       style="fill:none;stroke:#000000;stroke-width:1px;stroke-linecap:butt;stroke-linejoin:miter;stroke-opacity:1"
       d="m 548.57143,225.14286 12.5,0.35714 11.60714,0.53571 8.75,0.53572 18.75,0.71428 4.28572,1.96429 4.28571,2.85714 2.67857,3.03572 2.67857,4.46428 0.71429,4.28572 1.07143,6.07143 3.03571,20.89285 1.42857,16.96429 -2.32142,2.32143 -2.32143,2.5 -2.5,2.5 -3.21429,1.78571 -0.17857,0.89286 -4.64286,1.42857 -3.57143,-0.89286 -9.82142,-0.35714 -18.57143,-0.35714 -16.07143,-0.53572 -3.92857,-0.71428 -3.57143,-3.57143 -4.10714,-3.57143 -2.32143,-2.32143 -1.60715,-1.60714 -0.89285,-5 -1.60715,-15 -0.53571,-10.89286 -0.35714,-14.10714 0,-6.25 0.71428,-1.78572 2.5,-2.5 1.78572,-1.25 2.85714,-1.96428 z"
       id="area_9"
       inkscape:connector-curvature="0"
       transform="translate(102.85714,411.21933)"
       inkscape:label="#path3012" />
    <text
       xml:space="preserve"
       style="font-size:40px;font-style:normal;font-weight:normal;line-height:125%;letter-spacing:0px;word-spacing:0px;fill:#000000;fill-opacity:1;stroke:none;font-family:Sans"
       x="163.57143"
       y="75.85714"
       id="navigation"
       sodipodi:linespacing="125%"
       transform="translate(102.85714,411.21933)"
       inkscape:label="#text3014"><tspan
         sodipodi:role="line"
         id="tspan3016"
         x="163.57143"
         y="75.85714">1 2 3 4 5 6 7 8 9</tspan></text>
  </g>
</svg>
