<?xml version="1.0" encoding="UTF-8" standalone="no"?>
<!-- Created with Inkscape (http://www.inkscape.org/) -->

<svg
   xmlns:dc="http://purl.org/dc/elements/1.1/"
   xmlns:cc="http://creativecommons.org/ns#"
   xmlns:rdf="http://www.w3.org/1999/02/22-rdf-syntax-ns#"
   xmlns:svg="http://www.w3.org/2000/svg"
   xmlns="http://www.w3.org/2000/svg"
   xmlns:xlink="http://www.w3.org/1999/xlink"
   xmlns:sodipodi="http://sodipodi.sourceforge.net/DTD/sodipodi-0.dtd"
   xmlns:inkscape="http://www.inkscape.org/namespaces/inkscape"
   width="799"
   height="533"
   id="svg2"
   version="1.1"
   inkscape:version="0.48.3.1 r9886"
   sodipodi:docname="New document 1">
  <defs
     id="defs4" />
  <sodipodi:namedview
     id="base"
     pagecolor="#ffffff"
     bordercolor="#666666"
     borderopacity="1.0"
     inkscape:pageopacity="0.0"
     inkscape:pageshadow="2"
     inkscape:zoom="0.7"
     inkscape:cx="465.54774"
     inkscape:cy="316.77347"
     inkscape:document-units="px"
     inkscape:current-layer="layer1"
     showgrid="false"
     fit-margin-top="0"
     fit-margin-left="0"
     fit-margin-right="0"
     fit-margin-bottom="0"
     inkscape:window-width="1366"
     inkscape:window-height="706"
     inkscape:window-x="-8"
     inkscape:window-y="-8"
     inkscape:window-maximized="1" />
  <metadata
     id="metadata7">
    <rdf:RDF>
      <cc:Work
         rdf:about="">
        <dc:format>image/svg+xml</dc:format>
        <dc:type
           rdf:resource="http://purl.org/dc/dcmitype/StillImage" />
        <dc:title></dc:title>
      </cc:Work>
    </rdf:RDF>
  </metadata>
  <g
     inkscape:label="Layer 1"
     inkscape:groupmode="layer"
     id="layer1"
     transform="translate(182.35716,-203.00505)">
    <image
       y="203.00505"
       x="-182.35716"
       id="image2993"
       xlink:href="file:///G:/03/Gdes.jpg"
       height="533"
       width="799" />
    <path
       style="fill:none;stroke:#000000;stroke-width:1px;stroke-linecap:butt;stroke-linejoin:miter;stroke-opacity:1"
       d="m 201.07143,29.428571 44.28571,-2.5 c 0,0 12.85715,-4.285715 14.28572,-2.142858 1.42857,2.142858 8.92857,6.071429 8.92857,7.857143 0,1.785715 6.42857,12.142858 6.42857,12.142858 l 0.71429,5.714285 2.85714,3.214286 3.92857,6.428571 1.78571,7.5 1.07143,10 -1.42857,9.285715 -5.71428,7.142857 -4.64286,5 -2.85714,3.571432 1.42857,50 -0.71429,12.14285 -1.78571,10.71429 -1.78572,9.64286 -52.14285,-0.71429 -3.57143,-10.71428 -3.21429,-9.28572 -25,-49.64286 0.35714,-10.71428 -7.14285,-6.428574 -5.71429,-11.428571 1.78572,-13.928571 5.35714,-11.071429 6.07143,-5.714286 1.07143,-1.785714 1.07142,-5 2.85715,-3.928571 2.85714,-4.642858 6.78571,-4.285714 z"
       id="area_1"
       inkscape:connector-curvature="0"
       transform="translate(-182.35716,203.00505)"
       inkscape:label="#path2996" />
    <path
       style="fill:none;stroke:#000000;stroke-width:1px;stroke-linecap:butt;stroke-linejoin:miter;stroke-opacity:1"
       d="m 320.35714,71.571428 3.92857,-12.5 8.57143,-6.785714 7.85715,-4.642858 7.5,-2.142857 11.07142,-1.785714 8.92858,-0.357143 c 0,0 10,-0.357143 11.42857,0.357143 1.42857,0.714286 7.5,2.142857 7.5,2.142857 l 7.5,3.571429 8.21428,6.428571 6.07143,6.428572 1.78572,7.5 -2.5,9.642857 -2.5,6.071428 -1.42858,8.571429 -2.85714,74.642862 -3.92857,5.71428 -3.57143,3.92857 -6.78571,3.92857 -6.78572,3.21429 -5.71428,1.07143 -2.85715,-0.71429 L 367.5,180.5 l -3.21429,-2.85714 -2.5,-0.71429 -4.28571,-2.5 -3.57143,-0.71428 -7.5,0 -4.28571,-1.07143 L 340,168.71429 328.21429,93.714285 325,89.071428 l -5,-5.357143 0,-8.928571 z"
       id="area_2"
       inkscape:connector-curvature="0"
       transform="translate(-182.35716,203.00505)"
       inkscape:label="#path2998" />
    <path
       style="fill:none;stroke:#000000;stroke-width:1px;stroke-linecap:butt;stroke-linejoin:miter;stroke-opacity:1"
       d="m 448.21429,69.785714 7.14285,-5.357143 11.07143,-6.785715 12.5,-4.285714 11.78572,-2.142857 20,-1.071429 11.78571,2.5 9.64286,5.714286 8.92857,5 3.21429,5 2.85714,10.357143 -0.35714,9.285714 c 0,0 -1.78572,2.142857 -2.5,3.928572 C 543.57143,93.714285 535,102.28571 535,102.28571 l -1.78571,1.78572 -5.35715,56.78571 -1.78571,3.57143 -2.5,3.21429 -3.92857,-2.5 -6.78572,-3.21429 -9.28571,-2.5 -5.35714,-1.07143 -11.42857,0 L 476.42857,158 l -10,1.42857 -2.14285,1.07143 -1.42858,-21.78571 -3.21428,-31.07143 -1.42857,-2.85715 -3.57143,0 -4.28572,-0.35714 -0.71428,-3.21428 -0.35715,-4.285719 0,-2.5 -2.85714,-4.285715 -1.07143,-5 -0.35714,-7.5 2.5,-5 z"
       id="area_3"
       inkscape:connector-curvature="0"
       transform="translate(-182.35716,203.00505)"
       inkscape:label="#path3000" />
    <path
       style="fill:none;stroke:#000000;stroke-width:1px;stroke-linecap:butt;stroke-linejoin:miter;stroke-opacity:1"
       d="m 580.35714,81.214285 76.07143,1.785714 2.85715,11.428572 3.21428,16.428569 4.28572,24.28572 L 650,136.21429 644.28572,154.07143 637.14286,173 630,180.85714 623.21429,183 c 0,0 -10,0.71429 -12.85715,0.71429 -2.85714,0 -15.71428,-2.14286 -15.71428,-2.14286 l -8.21429,-5.35714 -5.35714,-6.78572 -1.07143,-37.5 -3.21428,-2.85714 -3.21429,-34.285716 -0.71429,-7.5 3.21429,-3.928572 z"
       id="area_4"
       inkscape:connector-curvature="0"
       transform="translate(-182.35716,203.00505)"
       inkscape:label="#path3002" />
    <path
       style="fill:none;stroke:#000000;stroke-width:1px;stroke-linecap:butt;stroke-linejoin:miter;stroke-opacity:1"
       d="m 342.85714,173.71429 5.35715,0.35714 5.71428,0 5,1.78571 5,2.14286 5,3.92857 2.14286,2.5 -1.42857,47.85714 -6.78572,6.78572 -4.64285,3.57143 c 0,0 -1.42858,3.57143 -1.78572,5.35714 -0.35714,1.78571 -2.85714,6.07143 -2.85714,6.07143 l -10,7.14286 -7.5,5.35714 -10.35714,2.5 -11.78572,0.35714 -11.07143,-2.85714 -7.85714,-4.64286 -7.14286,-4.28571 -4.28571,-5 -2.85714,-10 -1.78572,-7.5 -6.42857,-5.71429 -5.71429,-9.64286 -1.42857,-13.21428 2.5,-6.42857 5,-7.5 6.78572,-6.42857 9.28571,-6.07143 7.5,-3.21429 6.07143,-3.21428 1.42857,-0.35715 z"
       id="area_6"
       inkscape:connector-curvature="0"
       transform="translate(-182.35716,203.00505)"
       inkscape:label="#path3004" />
    <path
       style="fill:none;stroke:#000000;stroke-width:1px;stroke-linecap:butt;stroke-linejoin:miter;stroke-opacity:1"
       d="m 464.28572,160.14286 c 0,0 7.85714,-1.07143 9.64285,-1.07143 1.78572,0 12.5,-0.71429 12.5,-0.71429 0,0 5.71429,-0.35714 7.5,-0.35714 1.78572,0 8.21429,0.35714 8.21429,0.35714 l 6.07143,2.14286 8.21428,2.5 6.07143,2.5 7.5,5.71429 9.64286,7.14285 5.71428,7.85715 4.28572,6.78571 1.78571,7.85714 -0.35714,16.07143 -1.42857,20.35714 0,6.78572 -7.14286,2.85714 -8.92857,0 0,10.35714 -3.92857,6.42858 -5.71429,6.07142 -11.07143,5 -12.14285,3.21429 -12.5,1.07143 -16.42857,-0.71429 -11.07143,-0.71428 -1.42857,-14.28572 -20.00001,0 -3.21428,-2.85714 -4.28572,-4.28571 -1.07142,-6.07143 L 430,235.85714 l -3.21429,-3.57143 -3.92857,-5.35714 -4.28571,-6.78571 -2.5,-10 1.07143,-12.5 4.28571,-10 6.78572,-8.92857 8.92857,-7.85715 14.28571,-6.78571 10.71429,-3.92857 z"
       id="area_5"
       inkscape:connector-curvature="0"
       transform="translate(-182.35716,203.00505)"
       inkscape:label="#path3006" />
    <path
       style="fill:none;stroke:#000000;stroke-width:1px;stroke-linecap:butt;stroke-linejoin:miter;stroke-opacity:1"
       d="m 173.21429,259.07143 4.28571,-5.35714 6.78571,-4.64286 6.78572,-2.14286 15,-0.35714 35.71428,-1.07143 12.5,4.28571 8.21429,5 3.57143,3.57143 -0.35714,8.92857 6.42857,25 -1.78572,3.57143 -4.28571,2.5 c 0,0 -2.85714,1.42857 -4.28572,1.42857 -1.42857,0 -5.35714,0 -5.35714,0 l -7.85714,47.5 L 247.5,350.5 l -0.71429,5 -1.42857,3.21429 -5.71428,1.07142 -3.57143,1.07143 0.35714,3.21429 -2.5,0.71428 -5.35714,0.71429 -1.42857,-2.85714 -3.21429,0.71428 -2.14286,2.14286 -7.14285,-1.07143 -1.78572,-1.78571 -6.78571,0.71428 -6.78572,-1.42857 0,-2.5 -11.42857,0.35714 -0.71428,-3.92857 0,-2.5 -4.64286,-2.14285 -1.42857,-1.78572 2.5,-62.14286 z"
       id="area_7"
       inkscape:connector-curvature="0"
       transform="translate(-182.35716,203.00505)"
       inkscape:label="#path3008" />
    <path
       style="fill:none;stroke:#000000;stroke-width:1px;stroke-linecap:butt;stroke-linejoin:miter;stroke-opacity:1"
       d="m 366.42857,261.21429 93.92857,2.5 L 460,315.85714 451.78572,316.21429 449.28571,315.5 450,350.85714 l -2.14286,3.92857 -5.71428,4.64286 -8.92857,5.71429 -5.71429,1.07143 -49.64286,-2.14286 -5.71428,-2.85714 -5,-6.78572 L 362.5,340.5 361.78571,324.07143 361.42857,308.71429 360,308.35714 355.71429,268 l 2.85714,-3.92857 6.07143,-1.42857 z"
       id="area_8"
       inkscape:connector-curvature="0"
       transform="translate(-182.35716,203.00505)"
       inkscape:label="#path3010" />
    <path
       style="fill:none;stroke:#000000;stroke-width:1px;stroke-linecap:butt;stroke-linejoin:miter;stroke-opacity:1"
       d="m 536.78572,261.21429 6.78571,-4.64286 6.07143,-2.14286 10,-2.5 8.57143,-1.78571 11.42857,-1.07143 9.28571,0.35714 15,0.35714 10.71429,1.07143 15.71428,3.21429 10.71429,4.28571 9.64286,4.64286 3.92857,7.5 c 0,0 -0.35714,4.64286 -1.78572,5.71429 -1.42857,1.07142 -7.14285,6.07142 -7.14285,6.07142 l -2.5,0.71429 -2.85715,11.07143 -1.07142,13.92857 0.35714,13.92857 -2.5,12.85714 c 0,0 -2.5,11.42858 -3.92857,11.42858 -1.42857,0 -4.28572,7.14285 -4.28572,7.14285 L 625,354.78571 625,365.5 l -3.57143,3.92857 -2.5,1.42857 -5,1.78572 -7.14285,0.71428 -10.35715,0.71429 -10.35714,-0.71429 -7.14286,-0.35714 -10,-1.07143 L 560,369.07143 556.07143,364.42857 555,361.57143 l -0.35714,-10 -2.14286,-3.92857 -3.21428,-5.35715 -4.28572,-7.5 -0.35714,-1.07142 -2.14286,-54.28572 -5.35714,-2.85714 -3.92857,-6.42857 0.35714,-6.07143 z"
       id="area_9"
       inkscape:connector-curvature="0"
       transform="translate(-182.35716,203.00505)"
       inkscape:label="#path3012" />
    <text
       xml:space="preserve"
       style="font-size:40px;font-style:normal;font-weight:normal;line-height:125%;letter-spacing:0px;word-spacing:0px;fill:#000000;fill-opacity:1;stroke:none;font-family:Sans"
       x="157.14285"
       y="477.28571"
       id="navigation"
       sodipodi:linespacing="125%"
       transform="translate(-182.35716,203.00505)"
       inkscape:label="#text3014"><tspan
         sodipodi:role="line"
         id="tspan3016"
         x="157.14285"
         y="477.28571">1 2 3 4 6 5 7 8 9 </tspan></text>
  </g>
</svg>
