<?xml version="1.0" encoding="UTF-8" standalone="no"?>
<!-- Created with Inkscape (http://www.inkscape.org/) -->

<svg
   xmlns:dc="http://purl.org/dc/elements/1.1/"
   xmlns:cc="http://creativecommons.org/ns#"
   xmlns:rdf="http://www.w3.org/1999/02/22-rdf-syntax-ns#"
   xmlns:svg="http://www.w3.org/2000/svg"
   xmlns="http://www.w3.org/2000/svg"
   xmlns:xlink="http://www.w3.org/1999/xlink"
   xmlns:sodipodi="http://sodipodi.sourceforge.net/DTD/sodipodi-0.dtd"
   xmlns:inkscape="http://www.inkscape.org/namespaces/inkscape"
   width="3000"
   height="2000"
   id="svg2"
   version="1.2"
   inkscape:version="0.48.3.1 r9886"
   sodipodi:docname="New document 1">
  <defs
     id="defs4" />
  <sodipodi:namedview
     id="base"
     pagecolor="#ffffff"
     bordercolor="#666666"
     borderopacity="1.0"
     inkscape:pageopacity="0.0"
     inkscape:pageshadow="2"
     inkscape:zoom="0.35"
     inkscape:cx="2022.093"
     inkscape:cy="632.99105"
     inkscape:document-units="px"
     inkscape:current-layer="layer1"
     showgrid="false"
     fit-margin-top="0"
     fit-margin-left="0"
     fit-margin-right="0"
     fit-margin-bottom="0"
     inkscape:window-width="1366"
     inkscape:window-height="706"
     inkscape:window-x="-8"
     inkscape:window-y="-8"
     inkscape:window-maximized="1" />
  <metadata
     id="metadata7">
    <rdf:RDF>
      <cc:Work
         rdf:about="">
        <dc:format>image/svg+xml</dc:format>
        <dc:type
           rdf:resource="http://purl.org/dc/dcmitype/StillImage" />
        <dc:title></dc:title>
      </cc:Work>
    </rdf:RDF>
  </metadata>
  <g
     inkscape:label="Layer 1"
     inkscape:groupmode="layer"
     id="layer1"
     transform="translate(1474.2858,464.78067)">
    <image
       y="-464.78067"
       x="-1474.2858"
       id="image2993"
       xlink:href="file:///G:/03/Gdori.jpg"
       height="2000"
       width="3000" />
    <path
       style="fill:none;stroke:#000000;stroke-width:1px;stroke-linecap:butt;stroke-linejoin:miter;stroke-opacity:1"
       d="m 267.14286,208.57143 88.57143,-34.28572 112.85714,-15.71428 214.28571,-4.28572 128.57143,8.57143 L 1000,160 l 62.8571,14.28571 201.4286,-1.42857 8.5714,30 -7.1428,37.14286 -21.4286,61.42857 -5.7143,37.14286 -15.7143,55.71428 -4.2857,50 L 1201.4286,500 1187.1429,547.14286 1184.2857,620 l -2.8571,182.85714 -4.2857,38.57143 18.5714,28.57143 1.4286,92.85714 10,47.14286 -11.4286,37.1429 c 0,0 18.5714,25.7142 21.4286,31.4285 2.8571,5.7143 25.7142,40 28.5714,47.1429 2.8571,7.1428 17.1428,61.4286 17.1428,67.1428 0,5.7143 8.5715,57.1429 8.5715,57.1429 l 20,48.5714 -2.8572,10 L 1240,1301.4286 1165.7143,1290 1070,1280 878.57143,1261.4286 760,1242.8571 l -37.14286,-8.5714 -58.57143,20 -75.71428,2.8572 L 492.85714,1270 370,1280 l -68.57143,-2.8571 -24.28571,-10 L 260,1275.7143 241.42857,1288.5714 230,1275.7143 l -27.14286,7.1428 -24.28571,-41.4285 2.85714,-30 L 190,1194.2857 185.71429,1180 l 17.14285,-10 4.28572,-88.5714 25.71428,-128.57146 12.85715,-105.71428 21.42857,-121.42857 8.57143,-64.28572 L 290,554.28571 288.57143,505.71428 300,478.57143 l 1.42857,-37.14286 5.71429,-10 0,-154.28571 -30,-28.57143 L 265.71429,240 z"
       id="area_1"
       inkscape:connector-curvature="0"
       transform="translate(-1474.2858,-464.78067)"
       inkscape:label="#path2996"
       sodipodi:nodetypes="ccccccccccccccccccccccccsscccccccccccccccccccccccccccccccccccccc" />
    <path
       style="fill:none;stroke:#000000;stroke-width:1px;stroke-linecap:butt;stroke-linejoin:miter;stroke-opacity:1"
       d="m 1224.2857,450 118.5714,-15.71429 238.5715,-25.71428 105.7143,-14.28572 148.5714,-22.85714 92.8571,-14.28571 58.5715,-14.28572 17.1428,1.42857 L 2002.8571,400 2000,454.28571 l -8.5714,180 0,105.71429 5.7143,68.57143 -12.8572,52.85714 -2.8571,12.85714 18.5714,51.42858 25.7143,95.71431 24.2857,61.4285 21.4286,65.7143 15.7143,32.8572 -7.1429,35.7143 -162.8571,-4.2858 -147.1429,-24.2857 -81.4286,-20 -20,-25.7143 -20,-1.4285 -27.1428,18.5714 -45.7143,17.1429 -60,15.7142 -70,20 -51.4286,12.8572 -95.7143,18.5714 -27.1428,5.7143 -12.8572,-85.7143 -15.7143,-45.7143 -24.2857,-37.1428 -21.4285,-32.8572 L 1212.8571,990 1237.1429,847.14286 1235.7143,815.71429 1228.5714,750 1230,668.57142 l -20,-112.85714 -5.7143,-60 z"
       id="area_2"
       inkscape:connector-curvature="0"
       transform="translate(-1474.2858,-464.78067)"
       sodipodi:nodetypes="ccccccccccccccccccccccccccccccccccccccccccccc"
       inkscape:label="#path2998" />
    <path
       style="fill:none;stroke:#000000;stroke-width:1px;stroke-linecap:butt;stroke-linejoin:miter;stroke-opacity:1"
       d="m 2000,454.28571 132.8571,-12.85714 164.2858,-32.85714 70,-2.85715 171.4285,-14.28571 85.7143,-5.71429 32.8572,1.42858 -1.4286,35.71428 0,8.57143 2.8571,28.57143 4.2857,38.57143 -4.2857,22.85714 1.4286,41.42857 4.2857,41.42857 2.8572,25.71429 2.8571,10 11.4286,54.28571 11.4285,28.57143 10,55.71429 8.5715,48.57143 10,55.71428 -2.8572,37.14286 20,45.71429 27.1429,55.71431 24.2857,45.7143 25.7143,47.1428 15.7143,22.8572 2.8571,20 4.2857,34.2857 -382.8571,-2.8572 -42.8572,-4.2857 -25.7142,-1.4286 -24.2858,-8.5714 -31.4285,10 -31.4286,0 -117.1429,0 -34.2857,25.7143 -131.4285,20 -7.1429,-17.1429 72.8571,0 5.7143,-34.2857 -34.2857,-75.7143 12.8572,-32.8571 -11.4286,-97.14286 4.2857,-27.14285 -22.8571,-50 -1.4286,-45.71429 -28.5714,-84.28571 -11.4286,-44.28572 z"
       id="area_3"
       inkscape:connector-curvature="0"
       transform="translate(-1474.2858,-464.78067)"
       inkscape:label="#path3000" />
    <text
       xml:space="preserve"
       style="font-size:527.96710205px;font-style:normal;font-weight:normal;line-height:125%;letter-spacing:0px;word-spacing:0px;fill:#000000;fill-opacity:1;stroke:none;font-family:Sans"
       x="-1398.0234"
       y="1188.5006"
       id="navigation"
       sodipodi:linespacing="125%"
       transform="scale(0.81305634,1.2299271)"
       inkscape:label="#text3002"><tspan
         sodipodi:role="line"
         id="tspan3004"
         x="-1398.0234"
         y="1188.5006">1 2 3</tspan></text>
    <flowRoot
       xml:space="preserve"
       id="flowRoot3006"
       style="fill:black;stroke:none;stroke-opacity:1;stroke-width:1px;stroke-linejoin:miter;stroke-linecap:butt;fill-opacity:1;font-family:Sans;font-style:normal;font-weight:normal;font-size:40px;line-height:125%;letter-spacing:0px;word-spacing:0px"><flowRegion
         id="flowRegion3008"><rect
           id="rect3010"
           width="191.42857"
           height="102.85714"
           x="594.28571"
           y="1720" /></flowRegion><flowPara
         id="flowPara3012"></flowPara></flowRoot>    <flowRoot
       xml:space="preserve"
       id="flowRoot3014"
       style="fill:black;stroke:none;stroke-opacity:1;stroke-width:1px;stroke-linejoin:miter;stroke-linecap:butt;fill-opacity:1;font-family:Sans;font-style:normal;font-weight:normal;font-size:40px;line-height:125%;letter-spacing:0px;word-spacing:0px"><flowRegion
         id="flowRegion3016"><rect
           id="rect3018"
           width="142.85715"
           height="102.85714"
           x="634.28571"
           y="1708.5714" /></flowRegion><flowPara
         id="flowPara3020"></flowPara></flowRoot>  </g>
</svg>
