<?xml version="1.0" encoding="UTF-8" standalone="no"?>
<!-- Created with Inkscape (http://www.inkscape.org/) -->

<svg
   xmlns:dc="http://purl.org/dc/elements/1.1/"
   xmlns:cc="http://creativecommons.org/ns#"
   xmlns:rdf="http://www.w3.org/1999/02/22-rdf-syntax-ns#"
   xmlns:svg="http://www.w3.org/2000/svg"
   xmlns="http://www.w3.org/2000/svg"
   xmlns:xlink="http://www.w3.org/1999/xlink"
   xmlns:sodipodi="http://sodipodi.sourceforge.net/DTD/sodipodi-0.dtd"
   xmlns:inkscape="http://www.inkscape.org/namespaces/inkscape"
   width="799"
   height="533"
   id="svg2"
   version="1.1"
   inkscape:version="0.48.3.1 r9886"
   sodipodi:docname="New document 1">
  <defs
     id="defs4" />
  <sodipodi:namedview
     id="base"
     pagecolor="#ffffff"
     bordercolor="#666666"
     borderopacity="1.0"
     inkscape:pageopacity="0.0"
     inkscape:pageshadow="2"
     inkscape:zoom="1.4"
     inkscape:cx="439.47342"
     inkscape:cy="289.0625"
     inkscape:document-units="px"
     inkscape:current-layer="layer1"
     showgrid="false"
     fit-margin-top="0"
     fit-margin-left="0"
     fit-margin-right="0"
     fit-margin-bottom="0"
     inkscape:window-width="1366"
     inkscape:window-height="706"
     inkscape:window-x="-8"
     inkscape:window-y="-8"
     inkscape:window-maximized="1" />
  <metadata
     id="metadata7">
    <rdf:RDF>
      <cc:Work
         rdf:about="">
        <dc:format>image/svg+xml</dc:format>
        <dc:type
           rdf:resource="http://purl.org/dc/dcmitype/StillImage" />
        <dc:title></dc:title>
      </cc:Work>
    </rdf:RDF>
  </metadata>
  <g
     inkscape:label="Layer 1"
     inkscape:groupmode="layer"
     id="layer1"
     transform="translate(24.5,-265.86218)">
    <image
       y="265.86218"
       x="-24.5"
       id="image2993"
       xlink:href="file:///G:/03/Gdou.jpg"
       height="533"
       width="799" />
    <path
       style="fill:none;stroke:#000000;stroke-width:1px;stroke-linecap:butt;stroke-linejoin:miter;stroke-opacity:1"
       d="m 261.78571,203.71429 -1.42857,-17.85715 0.35715,-21.42857 2.5,-4.28571 2.14285,-8.21429 3.57143,-8.57143 3.21429,-12.14285 4.28571,-6.07143 L 290,113 305.35714,104.42857 315.71429,103 325,102.28571 334.64286,99.071428 345,97.999999 361.42857,97.642856 372.85714,99.071428 385,102.28571 l 10.35714,6.78572 12.14286,10.71428 9.64286,13.57143 2.5,9.64286 3.21428,4.28571 2.5,6.07143 0,4.28572 -9.64285,7.5 -3.21429,5 -2.14286,5.71428 -6.42857,3.57143 c 0,0 -2.14286,4.64286 -1.78571,6.07143 0.35714,1.42857 -2.85715,12.14286 -2.85715,12.14286 l 0.35715,11.78571 1.42857,8.21429 c 0,0 -0.35714,5 -2.14286,5 -1.78571,0 -11.07143,2.85714 -12.85714,2.14285 -1.78572,-0.71428 -4.64286,-2.14285 -6.78572,-1.07142 -2.14285,1.07142 -6.07142,5.35714 -6.07142,5.35714 l -4.28572,1.42857 -15.71428,-7.5 -12.5,-2.5 -9.28572,-0.71429 -15.35714,0 -11.78572,4.64286 -11.78571,5 -3.57143,2.5 -13.21428,-9.28571 -8.21429,-10 z"
       id="area_4"
       inkscape:connector-curvature="0"
       transform="translate(-24.5,265.86218)"
       inkscape:label="#path2996" />
    <path
       style="fill:none;stroke:#000000;stroke-width:1px;stroke-linecap:butt;stroke-linejoin:miter;stroke-opacity:1"
       d="m 426.42857,157.64286 -1.07143,-4.28572 3.57143,-2.14285 7.5,-4.28572 8.21429,-3.57143 9.28571,-5.35714 4.64286,-2.85714 6.78571,-0.71429 5,-2.85714 4.28572,0 L 482.5,128 c 0,0 7.5,-2.14286 7.5,-0.35714 0,1.78571 6.42857,2.5 6.42857,2.5 l 9.28572,0.35714 7.14285,2.14286 5.35715,0.71428 7.5,1.07143 6.42857,0.35714 5.35714,2.5 5,1.78572 2.85714,3.21428 7.5,5.71429 7.14286,3.21429 7.14286,6.07142 7.85714,6.42858 3.92857,7.14285 1.78572,7.14286 c 0,0 1.78571,5 2.5,6.42857 0.71428,1.42857 3.57143,8.57143 3.57143,8.57143 l 2.5,10.71429 -0.71429,10 -3.57143,5.35714 -3.92857,9.28571 -2.85714,9.28572 -3.92857,12.14285 -6.07143,9.28572 L 562.5,265.5 546.78572,275.85714 537.85714,283 l -16.42857,3.92857 -10,2.14286 -16.78571,3.92857 -7.5,0.35714 -5,-4.28571 -6.42857,-5.71429 -3.57143,-1.42857 -6.07143,-2.14286 -8.21429,-0.71428 -9.64285,0.35714 -3.57143,0.35714 -19.28572,-12.85714 -11.07143,-10.71428 -3.21428,0.71428 -2.5,-10 1.78571,-3.57143 -2.5,-8.57143 -6.07143,-18.21428 L 400,205.5 400.35714,194.78571 403.21429,183 l 3.57142,-5.35714 3.92858,-1.07143 3.92857,-10.71429 3.92857,-3.21428 z"
       id="area_3"
       inkscape:connector-curvature="0"
       transform="translate(-24.5,265.86218)"
       sodipodi:nodetypes="cccccccccccscccccccccccccccsccccccccccccccccccccccccccccccccccccc"
       inkscape:label="#path2998" />
    <path
       style="fill:none;stroke:#000000;stroke-width:1px;stroke-linecap:butt;stroke-linejoin:miter;stroke-opacity:1"
       d="M 290.35714,231.92857 297.14286,228 c 0,0 5.71428,-2.85714 7.5,-3.21429 1.78571,-0.35714 14.28571,-4.64285 14.28571,-4.64285 l 11.42857,-0.35715 12.5,1.78572 12.5,2.14286 11.78572,5.71428 4.28571,2.85714 12.85714,9.28572 6.78572,7.5 6.78571,8.57143 4.64286,8.57143 3.57143,9.64285 0.35714,10 c 0,0 -0.35714,8.92857 -0.35714,10.35715 0,1.42857 -0.71429,8.57142 -0.71429,8.57142 l -1.42857,7.85715 -3.21428,8.21428 -5,8.21429 -5.35715,8.21428 -8.92857,8.21429 -8.57143,8.57143 -8.92857,5.35714 -16.07143,1.78572 c 0,0 -14.28571,1.07142 -15.71428,1.07142 -1.42857,0 -6.42857,0.35715 -6.42857,0.35715 L 317.85714,358 l -9.28571,-7.14286 -7.5,-6.07143 -9.64286,-5 -11.42857,-7.5 -13.21429,-12.5 -8.92857,-18.92857 L 255,288 l 0.35714,-13.21429 3.21429,-13.92857 5.35714,-10.71428 3.92857,-6.07143 6.42857,-5.71429 8.21429,-4.28571 z"
       id="area_1"
       inkscape:connector-curvature="0"
       transform="translate(-24.5,265.86218)"
       inkscape:label="#path3000" />
    <path
       style="fill:none;stroke:#000000;stroke-width:1px;stroke-linecap:butt;stroke-linejoin:miter;stroke-opacity:1"
       d="m 489.28572,293.71429 6.07142,10.71428 2.14286,5.35714 0.71429,8.57143 -1.42857,8.57143 -2.5,8.57143 -3.92858,8.21429 -6.07142,7.85714 -5,6.78571 -6.42858,5.71429 L 462.5,368 l -11.07143,1.42857 -10.35714,-0.71428 -9.64286,-2.85715 -8.57143,-3.92857 -9.28571,-7.85714 -5,-6.42857 -3.21429,-7.14286 -2.5,-9.28571 0,-10 0.71429,-6.42858 3.92857,-10 6.07143,-8.92857 7.85714,-6.07143 12.5,-7.14285 10.35714,-3.21429 12.50001,-0.35714 9.28571,0.71428 9.28571,2.85715 9.64286,9.64285 z"
       id="area_2"
       inkscape:connector-curvature="0"
       transform="translate(-24.5,265.86218)"
       inkscape:label="#path3002" />
    <text
       xml:space="preserve"
       style="font-size:40px;font-style:normal;font-weight:normal;line-height:125%;letter-spacing:0px;word-spacing:0px;fill:#000000;fill-opacity:1;stroke:none;font-family:Sans"
       x="203.57143"
       y="438"
       id="navigation"
       sodipodi:linespacing="125%"
       transform="translate(-24.5,265.86218)"
       inkscape:label="#text3004"><tspan
         sodipodi:role="line"
         id="tspan3006"
         x="203.57143"
         y="438">4 3 1 2</tspan></text>
  </g>
</svg>
