<?xml version="1.0" encoding="UTF-8" standalone="no"?>
<!-- Created with Inkscape (http://www.inkscape.org/) -->

<svg
   xmlns:dc="http://purl.org/dc/elements/1.1/"
   xmlns:cc="http://creativecommons.org/ns#"
   xmlns:rdf="http://www.w3.org/1999/02/22-rdf-syntax-ns#"
   xmlns:svg="http://www.w3.org/2000/svg"
   xmlns="http://www.w3.org/2000/svg"
   xmlns:xlink="http://www.w3.org/1999/xlink"
   xmlns:sodipodi="http://sodipodi.sourceforge.net/DTD/sodipodi-0.dtd"
   xmlns:inkscape="http://www.inkscape.org/namespaces/inkscape"
   width="772"
   height="533"
   id="svg2"
   version="1.1"
   inkscape:version="0.48.3.1 r9886"
   sodipodi:docname="New document 1">
  <defs
     id="defs4" />
  <sodipodi:namedview
     id="base"
     pagecolor="#ffffff"
     bordercolor="#666666"
     borderopacity="1.0"
     inkscape:pageopacity="0.0"
     inkscape:pageshadow="2"
     inkscape:zoom="1.979899"
     inkscape:cx="371.09406"
     inkscape:cy="470.32475"
     inkscape:document-units="px"
     inkscape:current-layer="layer1"
     showgrid="false"
     fit-margin-top="0"
     fit-margin-left="0"
     fit-margin-right="0"
     fit-margin-bottom="0"
     inkscape:window-width="1366"
     inkscape:window-height="706"
     inkscape:window-x="-8"
     inkscape:window-y="-8"
     inkscape:window-maximized="1" />
  <metadata
     id="metadata7">
    <rdf:RDF>
      <cc:Work
         rdf:about="">
        <dc:format>image/svg+xml</dc:format>
        <dc:type
           rdf:resource="http://purl.org/dc/dcmitype/StillImage" />
        <dc:title></dc:title>
      </cc:Work>
    </rdf:RDF>
  </metadata>
  <g
     inkscape:label="Layer 1"
     inkscape:groupmode="layer"
     id="layer1"
     transform="translate(11,-265.86218)">
    <image
       y="265.86218"
       x="-11"
       id="image3005"
       xlink:href="file:///G:/03/Gdrnk.jpg"
       height="533"
       width="772" />
    <path
       style="fill:none;stroke:#000000;stroke-width:1px;stroke-linecap:butt;stroke-linejoin:miter;stroke-opacity:1"
       d="m 176.42857,29.428571 0.35714,-12.142858 2.85715,-4.642857 L 185,9.7857135 l 6.07143,-1.4285715 6.07143,0.3571429 7.14285,3.5714281 2.5,6.428572 0.35715,8.571428 4.64285,0.357143 4.28572,2.857143 c 0,0 3.57143,3.571429 3.57143,5 0,1.428572 1.07143,5.357143 1.42857,6.785715 0.35714,1.428571 1.07143,9.285714 1.42857,10.714285 0.35714,1.428572 0.35714,6.785715 0.35714,6.785715 0,0 4.28572,1.071428 5.35715,2.857142 1.07142,1.785715 5,5.714286 5,5.714286 l 5.35714,9.642857 c 0,0 2.85714,6.071429 2.85714,7.5 0,1.428572 1.07143,6.785715 1.07143,6.785715 l 3.92857,78.571426 c 0,0 1.07143,6.78572 1.07143,8.21429 0,1.42857 0,14.28571 0,14.28571 l 0.71429,10.71429 3.21428,9.64286 2.14286,13.57142 0.71428,15 0,10 -9.64285,10.35715 -11.07143,6.78571 c 0,0 -16.42857,3.92857 -17.85714,3.92857 -1.42858,0 -3.92858,-1.07143 -3.92858,-1.07143 L 210,254.78571 200.35714,230.5 l -5.71428,-9.64286 -3.21429,-6.78571 4.28572,-4.64286 -2.14286,-13.21428 -1.07143,-10 -5.71429,-8.21429 -6.07142,-4.28571 -10,-1.42858 -5.35715,-28.21428 -7.14285,-46.785716 2.14285,-18.571429 4.64286,-7.857143 5.35714,-5 -2.85714,-10 0.35714,-15 1.78572,-5 3.57143,-4.285714 z"
       id="area_1"
       inkscape:connector-curvature="0"
       transform="translate(-11,265.86218)"
       inkscape:label="#path3008" />
    <path
       style="fill:none;stroke:#000000;stroke-width:1px;stroke-linecap:butt;stroke-linejoin:miter;stroke-opacity:1"
       d="m 266.78571,138.71429 -1.42857,-6.42858 -0.35714,-4.64285 -0.71429,-8.21429 1.42858,-12.85714 2.85714,-4.64286 3.57143,-2.499999 0.35714,-13.214286 3.92857,-3.571429 6.07143,-1.785714 5.71429,-0.357143 6.78571,0.714286 5,5 1.07143,7.857143 0,4.642857 4.64286,2.142855 1.78571,4.28572 1.78571,5 1.78572,6.78571 1.07143,7.85714 -0.35715,6.07143 -1.78571,4.28572 -0.35714,2.5 6.07143,2.14285 5,5.35715 2.85714,7.14285 -0.71429,6.42858 -0.35714,3.92857 2.41072,4.375 1.69642,2.94642 2.14286,95.17858 -6.2588,0.16672 -17.93021,2.77791 -43.43656,1.76777 -6.81853,-92.17642 0.25254,-7.07107 4.04061,-4.29314 -2.52538,-3.78808 -0.75761,-6.31345 1.01015,-5.05076 4.04061,-6.06092 5.05076,-3.03046 z"
       id="area_2"
       inkscape:connector-curvature="0"
       transform="translate(-11,265.86218)"
       inkscape:label="#path3010" />
    <path
       style="fill:none;stroke:#000000;stroke-width:1px;stroke-linecap:butt;stroke-linejoin:miter;stroke-opacity:1"
       d="m 324.76404,86.260036 3.53554,-2.525381 4.79822,-1.010153 78.7919,-1.767767 14.14214,1.515229 6.31345,1.515229 5.55584,2.020305 2.52538,4.545687 0.25254,10.354065 -1.76777,8.08122 c 0,0 -1.01015,9.09137 -1.51523,10.85914 -0.50507,1.76777 -3.03046,8.08122 -3.03046,8.08122 l -3.28299,4.29315 0.25254,12.37437 -1.51523,13.88959 -2.27284,13.8896 -2.02031,13.13198 -3.283,12.62691 -3.53553,12.12183 -2.77792,3.78807 1.76777,-17.42513 -2.27285,-2.0203 0,-6.56599 -3.53553,-5.05077 -2.27284,-2.27284 -1.76777,-11.36422 -3.283,-3.78807 -5.05076,-0.50508 -2.77792,-1.51522 -4.79822,0.25253 -6.81853,1.26269 -4.79823,3.78808 -1.76776,6.31345 0.50507,6.56599 -5.05076,1.76777 -3.03046,5.3033 -1.01015,5.3033 -0.50508,10.35406 0.50508,7.57615 0.75761,5.3033 -6.31345,4.79822 -3.03046,3.03046 -4.79822,-9.59645 -4.79823,-3.03046 -2.77792,4.29315 -3.78807,-1.76776 -4.79822,-16.92006 -7.57615,-37.88072 -2.77792,-40.91118 -5.3033,-12.87944 -0.50507,-8.586299 -0.25254,-7.071068 z"
       id="area_3"
       inkscape:connector-curvature="0"
       transform="translate(-11,265.86218)"
       inkscape:label="#path3012" />
    <path
       style="fill:none;stroke:#000000;stroke-width:1px;stroke-linecap:butt;stroke-linejoin:miter;stroke-opacity:1"
       d="m 469.21586,55.95546 1.01015,-17.425131 1.76777,-6.81853 4.04061,-4.798225 6.81853,-2.777919 6.81853,-0.757615 10.10152,1.515229 6.31346,2.525382 3.53553,3.535533 2.27284,3.788072 0,7.576145 -0.25254,5.555839 -0.50507,3.535533 0.50507,3.535534 0,2.020306 -3.28299,4.04061 5.05076,4.798224 6.31346,7.828683 3.78807,5.555839 1.51523,12.12183 -0.25254,12.626911 -1.01015,9.09137 -0.75762,6.56599 -5.05076,45.45686 -6.56599,59.34647 -1.76777,7.82868 -3.53553,5.80838 -6.31346,4.04061 -4.04061,3.53553 -6.81853,3.78807 -4.29315,2.27285 -17.9302,-0.25254 -5.05077,-2.02031 -6.31345,-2.27284 -9.09137,-5.3033 -2.52538,-4.54569 -1.51523,-13.63706 2.0203,-57.83123 5.3033,-78.286823 0.25254,-6.81853 7.57615,-9.091373 5.55583,-7.828682 5.55584,-4.04061 z"
       id="area_4"
       inkscape:connector-curvature="0"
       transform="translate(-11,265.86218)"
       inkscape:label="#path3014" />
    <path
       style="fill:none;stroke:#000000;stroke-width:1px;stroke-linecap:butt;stroke-linejoin:miter;stroke-opacity:1"
       d="m 587.40371,14.791744 4.54568,-3.535534 6.06092,-1.010153 6.06091,0 5.80838,0.252538 4.54569,1.262691 6.06091,1.767767 4.79823,4.545686 1.01015,4.293149 -0.75762,6.313453 -0.75761,5.050763 -1.01015,6.565991 0.25254,8.586297 -0.50508,4.04061 -5.3033,3.535534 0,3.788072 11.11168,38.890873 2.27284,14.142139 0.50508,8.33376 -3.03046,8.08122 -12.12183,59.34646 -5.55584,14.39467 -9.59645,18.43529 0.50508,5.55583 1.76776,7.07107 1.76777,3.283 -1.01015,2.0203 -41.41626,-2.77792 -7.07107,33.84011 -2.0203,3.53554 c 0,0 -5.80838,3.53553 -6.81853,3.78807 -1.01015,0.25254 -9.09137,-3.03046 -9.09137,-3.03046 l -6.56599,-6.31345 -1.01016,-10.35406 -2.0203,-4.79823 -2.27285,-8.83883 1.76777,-15.90991 3.283,-7.07106 5.3033,-6.566 1.76777,-4.54568 -2.27285,-35.86042 10.6066,-63.13453 11.61676,-25.506354 18.94036,-24.496199 2.52538,-7.828682 1.01015,-3.535534 -2.52538,-4.293148 -0.25254,-5.808378 3.03046,-2.272843 4.29315,-19.950513 z"
       id="area_5"
       inkscape:connector-curvature="0"
       transform="translate(-11,265.86218)"
       inkscape:label="#path3016" />
    <path
       style="fill:none;stroke:#000000;stroke-width:1px;stroke-linecap:butt;stroke-linejoin:miter;stroke-opacity:1"
       d="m 170.96832,173.38569 7.82868,1.51523 6.06092,2.77792 5.55583,6.06092 2.02031,9.84898 2.52538,13.38453 -3.78807,4.79822 0,1.01015 5.55584,11.36422 6.06091,12.12183 6.31346,14.89975 2.27284,11.11168 1.76777,11.11168 6.81853,44.19417 2.27284,21.2132 -0.25254,7.07107 -2.52538,6.56599 -3.03046,3.78807 -5.05076,4.29315 -8.5863,5.80838 -8.08122,3.03046 -17.42513,-0.50508 -10.85914,-3.78807 -7.57614,-6.06092 -3.03046,-4.29314 -15.9099,-77.02414 -0.75762,-16.16244 2.27285,-33.33503 0.50507,-7.07107 -5.05076,-4.79822 -2.27284,-6.31346 0.25253,-9.09137 -0.25253,-9.84899 2.77792,-5.80837 8.58629,-5.55584 8.08122,-3.283 7.32361,-1.76777 z"
       id="area_6"
       inkscape:connector-curvature="0"
       transform="translate(-11,265.86218)"
       inkscape:label="#path3018" />
    <path
       style="fill:none;stroke:#000000;stroke-width:1px;stroke-linecap:butt;stroke-linejoin:miter;stroke-opacity:1"
       d="m 257.84144,269.85526 47.72971,-1.76777 5.3033,-1.76776 8.08122,0 5.55584,-0.75762 8.83883,-0.75761 0.75761,3.28299 1.76777,5.30331 1.76777,5.55583 -1.01015,12.37437 -0.25254,10.35407 1.01015,8.08122 -0.25254,39.39595 1.26269,48.73986 -74.75129,0.75761 -1.01015,-22.22335 -1.01015,-16.41498 -2.02031,-37.88072 -1.76776,-19.44544 z"
       id="area_7"
       inkscape:connector-curvature="0"
       transform="translate(-11,265.86218)"
       inkscape:label="#path3020" />
    <path
       style="fill:none;stroke:#000000;stroke-width:1px;stroke-linecap:butt;stroke-linejoin:miter;stroke-opacity:1"
       d="m 379.05974,179.69915 1.26269,-10.10153 4.54569,-4.29315 5.55584,-2.27284 5.3033,0 5.55584,1.76777 c 0,0 4.54569,0 4.54569,1.26269 0,1.26269 1.76776,1.01015 1.76776,2.77792 0,1.76776 1.76777,3.78807 1.76777,6.06091 0,2.27285 -0.25254,5.05077 0.50508,6.06092 0.75761,1.01015 3.03045,3.78807 3.03045,3.78807 0,0 2.27285,1.01015 2.27285,2.52538 0,1.51523 0.50507,4.79823 0.50507,4.79823 0,0 0.50508,2.77792 1.26269,3.78807 0.75762,1.01015 -0.50507,17.17259 -0.50507,17.17259 l -0.50508,5.05076 -1.01015,1.76777 5.55584,4.54569 4.29315,5.80837 0.50507,6.566 -1.51523,7.57614 2.77792,2.77792 1.01016,3.53553 -0.50508,11.36422 -1.51523,13.8896 -0.50508,34.34518 -3.03045,8.83884 -6.31346,6.56599 -7.82868,6.06092 -7.57614,2.27284 -8.5863,0.50507 -8.5863,-0.25253 -8.83883,-2.52538 -5.80838,-3.03046 -6.06091,-3.78807 -3.53554,-4.79823 -3.28299,-5.05076 -0.75762,-4.29315 -0.75761,-7.82868 1.26269,-45.70941 -1.51523,-2.52538 0,-4.29314 2.0203,-1.01016 0.50508,-4.29315 3.53553,-2.77792 -0.25253,-12.12183 1.76776,-4.29314 9.59645,-8.83884 -1.76776,-14.64721 2.0203,-12.87945 2.52538,-5.55583 3.03046,-1.76777 2.0203,-0.50508 z"
       id="area_8"
       inkscape:connector-curvature="0"
       transform="translate(-11,265.86218)"
       inkscape:label="#path3022" />
    <path
       style="fill:none;stroke:#000000;stroke-width:1px;stroke-linecap:butt;stroke-linejoin:miter;stroke-opacity:1"
       d="m 437.39605,253.18774 82.32744,-1.76776 2.27284,11.61675 2.0203,10.10153 1.01016,8.58629 0.25253,9.09138 -8.83883,77.78174 -81.31728,0.25254 -2.27284,-5.80838 -0.50508,-46.21447 2.0203,-21.97082 -1.76776,1.51523 1.26269,-6.566 0.50507,-22.22335 1.51523,-13.8896 z"
       id="area_9"
       inkscape:connector-curvature="0"
       transform="translate(-11,265.86218)"
       inkscape:label="#path3024" />
    <path
       style="fill:none;stroke:#000000;stroke-width:1px;stroke-linecap:butt;stroke-linejoin:miter;stroke-opacity:1"
       d="m 564.42274,237.27784 41.41625,2.77792 46.46702,1.76777 7.57614,37.62818 -32.82996,108.84394 -11.11167,5.80837 -71.72084,-3.53553 -2.52538,-5.05076 -0.75761,-38.63834 z"
       id="area_10"
       inkscape:connector-curvature="0"
       transform="translate(-11,265.86218)"
       inkscape:label="#path3026" />
    <text
       xml:space="preserve"
       style="font-size:40px;font-style:normal;font-weight:normal;line-height:125%;letter-spacing:0px;word-spacing:0px;fill:#000000;fill-opacity:1;stroke:none;font-family:Sans"
       x="249.50768"
       y="9.2359047"
       id="navigation"
       sodipodi:linespacing="125%"
       transform="translate(-11,265.86218)"
       inkscape:label="#text3028"><tspan
         sodipodi:role="line"
         id="tspan3030"
         x="249.50768"
         y="9.2359047">1 5 4 2 3 6 8 10 7 9</tspan></text>
  </g>
</svg>
