<?xml version="1.0" encoding="UTF-8" standalone="no"?>
<!-- Created with Inkscape (http://www.inkscape.org/) -->

<svg
   xmlns:dc="http://purl.org/dc/elements/1.1/"
   xmlns:cc="http://creativecommons.org/ns#"
   xmlns:rdf="http://www.w3.org/1999/02/22-rdf-syntax-ns#"
   xmlns:svg="http://www.w3.org/2000/svg"
   xmlns="http://www.w3.org/2000/svg"
   xmlns:xlink="http://www.w3.org/1999/xlink"
   xmlns:sodipodi="http://sodipodi.sourceforge.net/DTD/sodipodi-0.dtd"
   xmlns:inkscape="http://www.inkscape.org/namespaces/inkscape"
   width="799"
   height="533"
   id="svg2"
   version="1.1"
   inkscape:version="0.48.3.1 r9886"
   sodipodi:docname="Gfjta.svg">
  <defs
     id="defs4" />
  <sodipodi:namedview
     id="base"
     pagecolor="#ffffff"
     bordercolor="#666666"
     borderopacity="1.0"
     inkscape:pageopacity="0.0"
     inkscape:pageshadow="2"
     inkscape:zoom="1.4142136"
     inkscape:cx="296.8721"
     inkscape:cy="324.26797"
     inkscape:document-units="px"
     inkscape:current-layer="layer1"
     showgrid="false"
     fit-margin-top="0"
     fit-margin-left="0"
     fit-margin-right="0"
     fit-margin-bottom="0"
     inkscape:window-width="1317"
     inkscape:window-height="744"
     inkscape:window-x="49"
     inkscape:window-y="24"
     inkscape:window-maximized="1" />
  <metadata
     id="metadata7">
    <rdf:RDF>
      <cc:Work
         rdf:about="">
        <dc:format>image/svg+xml</dc:format>
        <dc:type
           rdf:resource="http://purl.org/dc/dcmitype/StillImage" />
        <dc:title></dc:title>
      </cc:Work>
    </rdf:RDF>
  </metadata>
  <g
     inkscape:label="Layer 1"
     inkscape:groupmode="layer"
     id="layer1"
     transform="translate(-421.35715,-498.57648)">
    <image
       y="498.57648"
       x="421.35715"
       id="image3028"
       xlink:href="file:///media/BLANK/04/Gfjta.jpg"
       height="533"
       width="799" />
    <path
       style="fill:none;stroke:#000000;stroke-width:1px;stroke-linecap:butt;stroke-linejoin:miter;stroke-opacity:1"
       d="m 325.26912,364.70859 6.36396,16.26345 2.12132,6.36396 0,3.53554 0.70711,5.65685 2.12132,4.24264 4.24264,6.36396 5.65685,5.65686 2.82843,-0.70711 2.12132,-4.24264 3.53553,-0.70711 2.12132,0 2.82843,0 3.53554,-0.7071 6.36396,-5.65686 6.36396,-3.53553 3.53553,-0.70711 4.94975,-2.12132 1.41421,-2.82843 7.07107,-3.53553 4.24264,0 4.94975,-6.36396 8.48528,-0.70711 12.02082,-4.24264 12.72792,-8.48528 7.07107,-7.77817 12.72792,-6.36397 5.65685,-1.41421 4.94975,-6.36396 4.24264,-2.82843 14.84924,-11.31371 81.31728,-54.44722 17.67767,-12.72792 0.70711,-3.53553 6.36396,-6.36397 3.53553,-4.94974 0,-21.21321 -4.94974,-5.65685 -17.67767,-9.8995 -22.62742,-2.82842 -6.36396,0.7071 -19.79899,8.48529 -44.54773,24.04163 -45.25483,26.16295 -67.88225,41.7193 -45.96194,31.8198 -4.24265,3.53554 4.24265,11.31371 z"
       id="area_1"
       inkscape:connector-curvature="0"
       transform="translate(421.35715,498.57648)"
       inkscape:label="#path3050" />
    <path
       style="fill:none;stroke:#000000;stroke-width:1px;stroke-linecap:butt;stroke-linejoin:miter;stroke-opacity:1"
       d="m 532.45141,161.76894 -32.52692,12.72792 -76.36753,28.28427 -63.63961,26.87006 -36.76955,20.5061 -30.40559,14.14213 -8.48528,7.07107 -16.26346,8.48528 -9.19239,5.65686 -10.6066,1.41421 -4.24264,2.82843 0,3.53553 -3.53553,0 -0.70711,0 -1.41421,0.70711 0,2.12132 -0.70711,4.24264 -0.70711,2.82843 10.6066,14.14213 14.14214,9.8995 15.55635,14.84924 24.04163,9.19239 7.77817,0 11.31371,7.77817 -6.36396,-14.14213 2.12132,1.41421 21.2132,-14.84924 64.34672,-41.7193 67.17515,-39.59798 57.98275,-32.52691 17.67767,-6.36397 27.57717,1.41422 -1.41422,-4.94975 3.53554,-7.07107 2.12132,-9.19239 -3.53554,-14.84924 -9.19239,-11.31371 -14.14213,-4.94974 -7.77818,1.41421 z"
       id="area_2"
       inkscape:connector-curvature="0"
       transform="translate(421.35715,498.57648)"
       inkscape:label="#path3052" />
    <path
       style="fill:none;stroke:#000000;stroke-width:1px;stroke-linecap:butt;stroke-linejoin:miter;stroke-opacity:1"
       d="m 535.27983,160.35473 16.97057,-4.24264 9.19238,-5.65686 2.12132,-1.41421 -2.12132,-11.31371 -13.43502,-26.16295 -16.26346,-16.263458 -16.97056,-10.606601 -24.04163,-9.192389 -24.04163,7.071068 -41.7193,19.09188 -77.78175,35.35534 -102.53048,45.96194 -60.10408,28.28427 -14.84924,12.72793 -3.53554,7.07106 18.38478,27.57717 7.77817,12.02081 7.77818,40.30509 2.82843,0.70711 12.72792,-4.94975 9.19239,-5.65685 13.43503,-4.24264 2.12132,-3.53554 2.12132,0 2.82842,-6.36396 16.26346,-2.82843 24.04163,-13.43503 6.36396,-7.07106 28.28427,-12.02082 31.1127,-16.97056 11.31371,-7.07107 52.3259,-20.5061 34.64823,-13.43503 50.20458,-20.50609 28.28428,-9.19239 z"
       id="area_3"
       inkscape:connector-curvature="0"
       transform="translate(421.35715,498.57648)"
       inkscape:label="#path3054" />
    <text
       xml:space="preserve"
       style="font-size:48px;font-style:normal;font-weight:normal;line-height:125%;letter-spacing:0px;word-spacing:0px;fill:#000000;fill-opacity:1;stroke:none;font-family:Sans"
       x="114.5513"
       y="91.765366"
       id="navigation"
       sodipodi:linespacing="125%"
       transform="translate(421.35715,498.57648)"
       inkscape:label="#text3056"><tspan
         sodipodi:role="line"
         id="tspan3058"
         x="114.5513"
         y="91.765366">3 2 1</tspan></text>
  </g>
</svg>
