<?xml version="1.0" encoding="UTF-8" standalone="no"?>
<!-- Created with Inkscape (http://www.inkscape.org/) -->

<svg
   xmlns:dc="http://purl.org/dc/elements/1.1/"
   xmlns:cc="http://creativecommons.org/ns#"
   xmlns:rdf="http://www.w3.org/1999/02/22-rdf-syntax-ns#"
   xmlns:svg="http://www.w3.org/2000/svg"
   xmlns="http://www.w3.org/2000/svg"
   xmlns:xlink="http://www.w3.org/1999/xlink"
   xmlns:sodipodi="http://sodipodi.sourceforge.net/DTD/sodipodi-0.dtd"
   xmlns:inkscape="http://www.inkscape.org/namespaces/inkscape"
   width="5524"
   height="3682"
   id="svg2"
   version="1.2"
   inkscape:version="0.91 r13725"
   sodipodi:docname="Gflap.svg">
  <defs
     id="defs4" />
  <sodipodi:namedview
     id="base"
     pagecolor="#ffffff"
     bordercolor="#666666"
     borderopacity="1.0"
     inkscape:pageopacity="0.0"
     inkscape:pageshadow="2"
     inkscape:zoom="0.24748737"
     inkscape:cx="2983.5156"
     inkscape:cy="2034.9119"
     inkscape:document-units="px"
     inkscape:current-layer="layer1"
     showgrid="false"
     fit-margin-top="0"
     fit-margin-left="0"
     fit-margin-right="0"
     fit-margin-bottom="0"
     inkscape:window-width="1918"
     inkscape:window-height="1025"
     inkscape:window-x="0"
     inkscape:window-y="0"
     inkscape:window-maximized="1" />
  <metadata
     id="metadata7">
    <rdf:RDF>
      <cc:Work
         rdf:about="">
        <dc:format>image/svg+xml</dc:format>
        <dc:type
           rdf:resource="http://purl.org/dc/dcmitype/StillImage" />
        <dc:title />
      </cc:Work>
    </rdf:RDF>
  </metadata>
  <g
     inkscape:label="Layer 1"
     inkscape:groupmode="layer"
     id="layer1"
     transform="translate(4756.2856,2265.7808)">
    <image
       sodipodi:absref="/home/ivan/Projects/Intake24/images-110615/Gflap.jpg"
       xlink:href="Gflap.jpg"
       y="-2265.7808"
       x="-4756.2856"
       id="image"
       height="3682"
       width="5524"
       inkscape:label="#image2993" />
    <path
       style="fill:none;stroke:#000000;stroke-width:1px;stroke-linecap:butt;stroke-linejoin:miter;stroke-opacity:1"
       d="m 1160,1433.4286 -25.7143,85.7143 -14.2857,34.2857 28.5714,100 62.8572,37.1428 57.1428,2.8572 182.8572,2.8571 42.8571,-117.1428 20,-71.4286 -11.4286,-88.5714 L 1454.2857,1402 1420,1399.1429 l -22.8571,11.4285 -40,-11.4285 -68.5715,-2.8572 -25.7143,-20 -22.8571,2.8572 17.1429,20 -37.1429,0 z"
       id="area_1"
       inkscape:connector-curvature="0"
       transform="translate(-4756.2856,-2265.7808)"
       inkscape:label="#path2996" />
    <path
       style="fill:none;stroke:#000000;stroke-width:1px;stroke-linecap:butt;stroke-linejoin:miter;stroke-opacity:1"
       d="m 1765.7143,1184.8571 60,-17.1428 105.7143,14.2857 100,-11.4286 17.1428,25.7143 -17.1428,257.1429 -28.5715,42.8571 -17.1428,20 17.1428,45.7143 11.4286,37.1429 L 2000,1802 l -45.7143,25.7143 -68.5714,5.7143 L 1820,1822 c 0,0 -5.7143,0 -17.1429,0 -11.4285,0 -108.5714,5.7143 -108.5714,5.7143 l -28.5714,-42.8572 -2.8572,-160 51.4286,-94.2857 28.5714,-14.2857 0,-37.1428 -17.1428,-17.1429 0,-31.4286 -22.8572,-22.8571 22.8572,-142.8572 z"
       id="area_2"
       inkscape:connector-curvature="0"
       transform="translate(-4756.2856,-2265.7808)"
       inkscape:label="#path2998" />
    <path
       style="fill:none;stroke:#000000;stroke-width:1px;stroke-linecap:butt;stroke-linejoin:miter;stroke-opacity:1"
       d="m 2425.7143,1224.8571 105.7143,-11.4285 151.4285,0 88.5715,-11.4286 57.1428,-5.7143 25.7143,37.1429 54.2857,22.8571 -8.5714,200 -34.2857,20 31.4286,54.2857 -25.7143,154.2857 -17.1429,42.8572 -71.4286,8.5714 -105.7142,77.1429 -68.5715,14.2857 -154.2857,0 -85.7143,-40 8.5715,-60 -17.1429,-31.4286 14.2857,-31.4286 -20,-20 42.8572,-91.4285 -11.4286,-34.2857 8.5714,-25.7143 20,-20 -14.2857,-77.1429 -2.8571,-62.8571 z"
       id="area_3"
       inkscape:connector-curvature="0"
       transform="translate(-4756.2856,-2265.7808)"
       inkscape:label="#path3000" />
    <path
       style="fill:none;stroke:#000000;stroke-width:1px;stroke-linecap:butt;stroke-linejoin:miter;stroke-opacity:1"
       d="m 3228.5714,1113.4286 291.4286,-20 17.1429,28.5714 48.5714,605.7143 2.8571,82.8571 17.1429,77.1429 -88.5714,31.4286 L 3320,1916.2857 3297.1429,1902 l -60,0 -8.5715,-37.1429 -11.4285,-248.5714 -8.5715,-257.1428 -2.8571,-125.7143 2.8571,-85.7143 z"
       id="area_4"
       inkscape:connector-curvature="0"
       transform="translate(-4756.2856,-2265.7808)"
       inkscape:label="#path3002" />
    <path
       style="fill:none;stroke:#000000;stroke-width:1px;stroke-linecap:butt;stroke-linejoin:miter;stroke-opacity:1"
       d="m 3862.8571,1084.8571 328.5715,-28.5714 68.5714,22.8572 125.7143,600 5.7143,177.1428 -31.4286,20 -165.7143,17.1429 -137.1428,-17.1429 -34.2858,-31.4286 -85.7142,2.8572 -71.4286,-474.2857 -25.7143,-134.2857 11.4286,-42.8572 z"
       id="area_5"
       inkscape:connector-curvature="0"
       transform="translate(-4756.2856,-2265.7808)"
       inkscape:label="#path3004" />
    <flowRoot
       xml:space="preserve"
       id="navigation"
       style="font-size:40px;font-style:normal;font-weight:normal;line-height:125%;letter-spacing:0px;word-spacing:0px;fill:#000000;fill-opacity:1;stroke:none;font-family:Sans"
       transform="matrix(3.3853006,0,0,4.5155445,-10375.56,-5212.1954)"
       inkscape:label="#flowRoot3006"><flowRegion
         id="flowRegion3008"><rect
           id="rect3010"
           width="194.28571"
           height="91.428574"
           x="2351.4285"
           y="833.42859" /></flowRegion><flowPara
         id="flowPara3012">1 2 3 4 5</flowPara></flowRoot>  </g>
</svg>
