<?xml version="1.0" encoding="UTF-8" standalone="no"?>
<!-- Created with Inkscape (http://www.inkscape.org/) -->

<svg
   xmlns:dc="http://purl.org/dc/elements/1.1/"
   xmlns:cc="http://creativecommons.org/ns#"
   xmlns:rdf="http://www.w3.org/1999/02/22-rdf-syntax-ns#"
   xmlns:svg="http://www.w3.org/2000/svg"
   xmlns="http://www.w3.org/2000/svg"
   xmlns:xlink="http://www.w3.org/1999/xlink"
   xmlns:sodipodi="http://sodipodi.sourceforge.net/DTD/sodipodi-0.dtd"
   xmlns:inkscape="http://www.inkscape.org/namespaces/inkscape"
   width="1500"
   height="1000"
   id="svg3012"
   version="1.1"
   inkscape:version="0.48.4 r9939"
   sodipodi:docname="gfries.svg">
  <defs
     id="defs3014" />
  <sodipodi:namedview
     id="base"
     pagecolor="#ffffff"
     bordercolor="#666666"
     borderopacity="1.0"
     inkscape:pageopacity="0.0"
     inkscape:pageshadow="2"
     inkscape:zoom="0.7"
     inkscape:cx="658.83106"
     inkscape:cy="560.45341"
     inkscape:document-units="px"
     inkscape:current-layer="layer1"
     showgrid="false"
     fit-margin-top="0"
     fit-margin-left="0"
     fit-margin-right="0"
     fit-margin-bottom="0"
     inkscape:window-width="1920"
     inkscape:window-height="1017"
     inkscape:window-x="-8"
     inkscape:window-y="-8"
     inkscape:window-maximized="1" />
  <metadata
     id="metadata3017">
    <rdf:RDF>
      <cc:Work
         rdf:about="">
        <dc:format>image/svg+xml</dc:format>
        <dc:type
           rdf:resource="http://purl.org/dc/dcmitype/StillImage" />
        <dc:title />
      </cc:Work>
    </rdf:RDF>
  </metadata>
  <g
     inkscape:label="Layer 1"
     inkscape:groupmode="layer"
     id="layer1"
     transform="translate(12.857142,-249.50504)">
    <image
       y="249.50504"
       x="-12.857142"
       id="qwe"
       xlink:href="file:///T:/SCRAN24/NEW%20PHOTOS%20FOR%20SCRAN/gfries.jpg"
       height="1000"
       width="1500"
       inkscape:label="#image3028" />
    <path
       style="fill:none;stroke:#000000;stroke-width:1px;stroke-linecap:butt;stroke-linejoin:miter;stroke-opacity:1"
       d="m 574.7768,481.79174 c 0,5.05077 -4.04061,53.53809 -4.04061,53.53809 l -14.14214,18.18274 -20.20305,129.29953 54.54824,10.10153 12.12183,-7.07107 28.28427,-7.07107 209.10158,8.08122 1.01015,-6.06091 23.23351,2.0203 33.33503,28.28427 20.20305,-19.1929 38.3858,18.18275 2.02031,-12.12183 -72.73099,-83.84266 54.54824,27.27412 29.29442,0 2.02031,-8.08122 -26.26397,-23.23351 -43.43656,-17.1726 19.1929,-12.12183 -2.0203,-5.05076 44.44671,9.09137 9.09137,-27.27411 -125.25891,-18.18275 -4.04061,-15.15229 54.54823,-20.20305 -19.1929,-22.22336 -56.56854,26.26397 -3.03046,-13.13198 18.18275,1.01015 41.41625,-18.18275 20.20306,-5.05076 -5.05076,-11.11168 -15.1523,-1.01015 -73.74113,5.05076 -17.17259,-15.15228 -67.68023,21.2132 -87.88327,23.23351 -22.22335,5.05076 z"
       id="area_3"
       inkscape:connector-curvature="0"
       transform="translate(-12.857142,249.50504)"
       sodipodi:nodetypes="ccccccccccccccccccccccccccccccccccccccccc"
       inkscape:label="#path3031" />
    <path
       style="fill:none;stroke:#000000;stroke-width:1px;stroke-linecap:butt;stroke-linejoin:miter;stroke-opacity:1"
       d="m 602.05092,269.65971 17.17259,223.24371 171.72593,-47.47717 18.18275,17.1726 34.34519,-4.04061 -2.02031,-170.71578 0,-34.34519 -8.08122,-9.09137 2.02031,-16.16244 -11.11168,-3.03046 17.17259,-18.18275 -4.04061,-14.14213 -21.2132,2.0203 1.01015,-8.08122 15.15229,-11.11168 20.20305,-35.35534 -16.16244,1.01015 -7.07107,-20.20304 -11.11168,16.16244 -12.12183,-22.22336 -32.32488,49.49747 -17.17259,-12.12183 -10.10153,-18.18274 -15.15229,12.12183 -33.33503,-8.08122 -18.18275,2.0203 -17.17259,-14.14213 -22.22336,-5.05076 -9.09137,4.04061 20.20305,29.29442 -20.20305,29.29442 -42.42641,-29.29442 -10.10153,6.06092 2.02031,25.25381 35.35534,28.28427 -4.04061,23.23351 z"
       id="area_1"
       inkscape:connector-curvature="0"
       transform="translate(-12.857142,249.50504)"
       sodipodi:nodetypes="ccccccccccccccccccccccccccccccccccccc"
       inkscape:label="#path3033" />
    <path
       style="fill:none;stroke:#000000;stroke-width:1px;stroke-linecap:butt;stroke-linejoin:miter;stroke-opacity:1"
       d="m 842.46722,454.51763 53.53809,0 8.08122,22.22335 -17.1726,4.04061 19.1929,26.26397 -31.31473,12.12183 46.46702,24.24366 56.56855,10.10152 -6.06092,25.25382 27.27412,14.14213 44.44673,-13.13198 13.132,-16.16244 54.5482,-324.25897 9.0914,-9.09137 -7.0711,-8.08122 11.1117,-31.31473 -6.0609,-5.05076 3.0304,-33.33504 21.2132,-76.771589 -23.2335,-9.091373 -16.1624,46.467012 -20.2031,-14.14213 -43.4365,-7.071068 -57.57873,10.101528 -47.47717,36.36549 -33.33503,-3.03046 -17.17259,-76.771592 -20.20305,12.12183 15.15228,66.670072 -19.19289,0 -12.12183,28.28427 -6.06092,61.6193 z"
       id="area_2"
       inkscape:connector-curvature="0"
       transform="translate(-12.857142,249.50504)"
       sodipodi:nodetypes="ccccccccccccccccccccccccccccccccc"
       inkscape:label="#path3035" />
    <text
       xml:space="preserve"
       style="font-size:40px;font-style:normal;font-weight:normal;line-height:125%;letter-spacing:0px;word-spacing:0px;fill:#000000;fill-opacity:1;stroke:none;font-family:Sans"
       x="400"
       y="50"
       id="navigation"
       sodipodi:linespacing="125%"
       transform="translate(-12.857142,249.50504)"
       inkscape:label="#text3037"><tspan
         sodipodi:role="line"
         id="tspan3039"
         x="400"
         y="50">1 2 3</tspan></text>
  </g>
</svg>
