<?xml version="1.0" encoding="UTF-8" standalone="no"?>
<!-- Created with Inkscape (http://www.inkscape.org/) -->

<svg
   xmlns:dc="http://purl.org/dc/elements/1.1/"
   xmlns:cc="http://creativecommons.org/ns#"
   xmlns:rdf="http://www.w3.org/1999/02/22-rdf-syntax-ns#"
   xmlns:svg="http://www.w3.org/2000/svg"
   xmlns="http://www.w3.org/2000/svg"
   xmlns:xlink="http://www.w3.org/1999/xlink"
   xmlns:sodipodi="http://sodipodi.sourceforge.net/DTD/sodipodi-0.dtd"
   xmlns:inkscape="http://www.inkscape.org/namespaces/inkscape"
   width="800"
   height="526"
   id="svg2"
   version="1.1"
   inkscape:version="0.48.3.1 r9886"
   sodipodi:docname="Gfrk.svg">
  <defs
     id="defs4" />
  <sodipodi:namedview
     id="base"
     pagecolor="#ffffff"
     bordercolor="#666666"
     borderopacity="1.0"
     inkscape:pageopacity="0.0"
     inkscape:pageshadow="2"
     inkscape:zoom="0.70710678"
     inkscape:cx="454"
     inkscape:cy="216.28574"
     inkscape:document-units="px"
     inkscape:current-layer="layer1"
     showgrid="false"
     fit-margin-top="0"
     fit-margin-left="0"
     fit-margin-right="0"
     fit-margin-bottom="0"
     inkscape:window-width="1317"
     inkscape:window-height="744"
     inkscape:window-x="49"
     inkscape:window-y="24"
     inkscape:window-maximized="1" />
  <metadata
     id="metadata7">
    <rdf:RDF>
      <cc:Work
         rdf:about="">
        <dc:format>image/svg+xml</dc:format>
        <dc:type
           rdf:resource="http://purl.org/dc/dcmitype/StillImage" />
        <dc:title></dc:title>
      </cc:Work>
    </rdf:RDF>
  </metadata>
  <g
     inkscape:label="Layer 1"
     inkscape:groupmode="layer"
     id="layer1"
     transform="translate(-500,-566.50507)">
    <image
       y="566.50507"
       x="500"
       id="image3044"
       xlink:href="file:///media/BLANK/04/Gfrk.jpg"
       height="526"
       width="800" />
    <path
       style="fill:none;stroke:#000000;stroke-width:1px;stroke-linecap:butt;stroke-linejoin:miter;stroke-opacity:1"
       d="m 238.5,249.5 0.5,10 -2,15 -1.5,21.5 c 0,0 -0.5,2 0,7 0.5,5 6,10 6,10 0,0 -1,3 9,3 11.7686,0 14,-4.5 14,-4.5 l 5,-9.5 1.5,-25 3,-22.5 0,-7 c 0,0 1,-3 -3.5,-11 -4.5,-8 -3.5,-6.5 -3.5,-6.5 0,0 -3,-2 -6.5,-2 -3.5,0 -11,2.5 -11,2.5 l -5,6 -4,7.5 z"
       id="area_1"
       inkscape:connector-curvature="0"
       transform="translate(500,566.50507)"
       inkscape:label="#path3066"
       sodipodi:nodetypes="ccccscscccccscscccc" />
    <path
       style="fill:none;stroke:#000000;stroke-width:1px;stroke-linecap:butt;stroke-linejoin:miter;stroke-opacity:1"
       d="m 300.5,217 1,18 -2.5,21 -2,27.5 -1,25 -1,28.5 2,14 4,5 4,3.5 5,1 6,0 5,-2.5 7.5,-10.5 2,-6 0.5,-7 1.5,-57 0.5,-56 2.5,-16 c 0,0 1.66476,-3.9053 -3,-10.5 -6.21391,-8.78477 -5,-9 -11.5,-9.5 -6.5,-0.5 -9,1.5 -12,5 -3,3.5 -6.5,10.5 -6.5,10.5 l -1,4 -0.5,3.5 0,4 z"
       id="area_2"
       inkscape:connector-curvature="0"
       transform="translate(500,566.50507)"
       inkscape:label="#path3068"
       sodipodi:nodetypes="ccccccccccccccccccsssccccc" />
    <path
       style="fill:none;stroke:#000000;stroke-width:1px;stroke-linecap:butt;stroke-linejoin:miter;stroke-opacity:1"
       d="m 367.5,176.5 0,22 -1.5,26.5 -3.5,48.5 -2.5,63.5 -0.5,24.5 c 0,0 -2.64084,1.83804 1.5,11.5 4.5,10.5 -1,7 6.5,10.5 7.5,3.5 8.5,4.5 16,2.5 7.5,-2 7.35784,-9.05514 8,-10.5 2,-4.5 0,4 2.5,-9 2.5,-13 3,-31.5 3,-31.5 l 0.5,-28.5 0,-51.5 3.5,-60.5 1,-27 c 0,0 2,10.5 0,0 -2,-10.5 -7.5,-16 -7.5,-16 l -8,-2.5 -10.5,1.5 -3.5,5 -1.5,5.5 -1.5,4 -1,4.5 z"
       id="area_3"
       inkscape:connector-curvature="0"
       transform="translate(500,566.50507)"
       inkscape:label="#path3070"
       sodipodi:nodetypes="ccccccssssscccccscccccccc" />
    <path
       style="fill:none;stroke:#000000;stroke-width:1px;stroke-linecap:butt;stroke-linejoin:miter;stroke-opacity:1"
       d="m 427,153.5 c 1,34 3,56 3,56 l 2.5,28.5 1.5,25.5 0,35.5 -3,31 -3.5,29.5 -3,20 1.5,11.5 5.5,9.5 11,5 15,0 8,-7.5 5.5,-10 1.5,-14 0.5,-10 0.5,-22 2,-33.5 1,-48.5 -4,-42 -6.5,-55.5 -1,-12.5 -5,-10 -7.5,-3 -8.5,-1 -7.5,2.5 -4,3.5 -3,5 -2,2 z"
       id="area_4"
       inkscape:connector-curvature="0"
       transform="translate(500,566.50507)"
       inkscape:label="#path3072" />
    <path
       style="fill:none;stroke:#000000;stroke-width:1px;stroke-linecap:butt;stroke-linejoin:miter;stroke-opacity:1"
       d="m 509.5,331 -6,10 -2,6 -0.5,5 2,7.5 3,6 6.5,5 4,3 4.5,0.5 9,0.5 15,-7.5 13.5,-20.5 15,-30.5 2,-9 3.5,-18.5 0.5,-24.5 -4.5,-25 c 0,0 -7,-26.5 -7,-28.5 0,-2 -12.5,-26 -12.5,-26 l -16.5,-18 -14.5,-11 c 0,0 -9.26079,-9.70863 -6.5,-7.5 5,4 -5.5,-2 -5.5,-2 l -11,0 -7,4 -6,8 -1.5,6 2.5,10.5 9.5,12.5 14.5,15 7,9 4.5,16 4,8.5 2.5,17 1.5,24.5 -5,21.5 -6.5,16 -8.5,12 z"
       id="area_5"
       inkscape:connector-curvature="0"
       transform="translate(500,566.50507)"
       inkscape:label="#path3074"
       sodipodi:nodetypes="cccccccccccccccccscccsccccccccccccccccc" />
    <text
       xml:space="preserve"
       style="font-size:48px;font-style:normal;font-weight:normal;line-height:125%;letter-spacing:0px;word-spacing:0px;fill:#000000;fill-opacity:1;stroke:none;font-family:Sans"
       x="799.81329"
       y="638.54254"
       id="navigation"
       sodipodi:linespacing="125%"
       inkscape:label="#text3076"><tspan
         sodipodi:role="line"
         id="tspan3078"
         x="799.81329"
         y="638.54254">1 2 3 4 5</tspan></text>
  </g>
</svg>
