<?xml version="1.0" encoding="UTF-8" standalone="no"?>
<!-- Created with Inkscape (http://www.inkscape.org/) -->

<svg
   xmlns:dc="http://purl.org/dc/elements/1.1/"
   xmlns:cc="http://creativecommons.org/ns#"
   xmlns:rdf="http://www.w3.org/1999/02/22-rdf-syntax-ns#"
   xmlns:svg="http://www.w3.org/2000/svg"
   xmlns="http://www.w3.org/2000/svg"
   xmlns:xlink="http://www.w3.org/1999/xlink"
   xmlns:sodipodi="http://sodipodi.sourceforge.net/DTD/sodipodi-0.dtd"
   xmlns:inkscape="http://www.inkscape.org/namespaces/inkscape"
   width="800"
   height="527"
   id="svg2"
   version="1.1"
   inkscape:version="0.48.3.1 r9886"
   sodipodi:docname="Gice1.svg">
  <defs
     id="defs4" />
  <sodipodi:namedview
     id="base"
     pagecolor="#ffffff"
     bordercolor="#666666"
     borderopacity="1.0"
     inkscape:pageopacity="0.0"
     inkscape:pageshadow="2"
     inkscape:zoom="1"
     inkscape:cx="412.71199"
     inkscape:cy="229.96236"
     inkscape:document-units="px"
     inkscape:current-layer="layer1"
     showgrid="false"
     fit-margin-top="0"
     fit-margin-left="0"
     fit-margin-right="0"
     fit-margin-bottom="0"
     inkscape:window-width="1317"
     inkscape:window-height="744"
     inkscape:window-x="49"
     inkscape:window-y="24"
     inkscape:window-maximized="1" />
  <metadata
     id="metadata7">
    <rdf:RDF>
      <cc:Work
         rdf:about="">
        <dc:format>image/svg+xml</dc:format>
        <dc:type
           rdf:resource="http://purl.org/dc/dcmitype/StillImage" />
        <dc:title></dc:title>
      </cc:Work>
    </rdf:RDF>
  </metadata>
  <g
     inkscape:label="Layer 1"
     inkscape:groupmode="layer"
     id="layer1"
     transform="translate(-471.42856,-546.00507)">
    <image
       y="546.00507"
       x="471.42856"
       id="image3290"
       xlink:href="file:///media/BLANK/04/Gice1.jpg"
       height="527"
       width="800" />
    <path
       style="fill:none;stroke:#000000;stroke-width:1px;stroke-linecap:butt;stroke-linejoin:miter;stroke-opacity:1"
       d="m 135.0574,259.00653 -3.18199,27.57716 -2.12132,33.23402 -1.06066,4.94975 38.53732,0.35355 -0.35355,5.3033 3.18198,-0.35355 0.70711,-3.53553 81.31728,2.47487 112.07642,2.47487 29.69849,-1.06066 6.71751,-8.83883 0.35356,-21.56676 -6.36397,-10.96015 -41.7193,-3.88909 -86.97413,-13.08147 -47.37615,-6.71752 -41.0122,-6.01041 -1.76776,-2.12132 -1.06066,-0.35355 -1.76777,6.36396 -34.29468,-5.3033 z"
       id="area_8"
       inkscape:connector-curvature="0"
       transform="translate(471.42856,546.00507)"
       inkscape:label="#path3312" />
    <path
       style="fill:none;stroke:#000000;stroke-width:1px;stroke-linecap:butt;stroke-linejoin:miter;stroke-opacity:1"
       d="m 485.25,334.75 65.5,-1.5 19.25,-1 c 0,0 -2.25,0.5 1.75,-0.25 4,-0.75 8.25,-2.25 10,-6.5 1.75,-4.25 2.25,-2.25 2.5,-8 0.25,-5.75 0,-5.75 0,-5.75 l 16.25,0 26,-0.5 c 0,0 2,0.5 4,0.25 2,-0.25 2,-3 2,-3 l 0,-2.75 -0.5,-1.75 -1.25,-3.5 -1.25,-2 -9.75,0 -30.5,1.25 -5.25,0 0,-13.5 -0.25,-2 -0.25,-1.75 -1,-0.5 -3.5,-1.25 -13.25,1 -8.5,-1.25 -3.5,0.25 -4,-1 -18.75,0.25 -10.5,-0.75 -22.25,1 -0.75,0.75 -1.25,1.75 -6,-0.25 -5.75,0 -7.5,0.25 -1.75,1.5 -6.75,1 -2.75,2.75 -0.25,6 0.25,4.75 -2,2.75 -1.25,3 -0.25,6.25 0.25,3.25 3.25,4.75 0,4.5 0,3.75 3.5,5 8.75,1 2.75,0.25 1,1 z"
       id="area_7"
       inkscape:connector-curvature="0"
       transform="translate(471.42856,546.00507)"
       inkscape:label="#path3314" />
    <path
       style="fill:none;stroke:#000000;stroke-width:1px;stroke-linecap:butt;stroke-linejoin:miter;stroke-opacity:1"
       d="m 601.39432,270.67379 8.83883,-0.35355 2.47488,1.41421 4.24264,1.41422 8.13173,0.35355 9.19238,0.70711 8.48528,-1.06066 10.25305,0 16.26346,-3.18199 5.65685,0 2.12132,-2.12132 0,-3.18198 -5.65685,-16.97056 -16.26346,-54.09367 -8.48528,-54.09367 -2.82843,-13.08147 -4.94974,-21.21321 -2.47488,-18.031218 -6.0104,-1.414214 -14.84925,-1.414213 -19.09188,-0.353554 -12.37437,-0.353553 -4.59619,1.414213 -9.8995,-0.353553 -2.47487,3.181981 -0.35355,1.06066 0.35355,6.717514 2.47487,7.778177 1.06066,20.50609 3.88909,22.27387 4.59619,28.63782 7.07107,45.96194 4.24264,30.05204 2.82843,12.37437 2.47487,6.01041 1.76777,2.47487 z"
       id="area_6"
       inkscape:connector-curvature="0"
       transform="translate(471.42856,546.00507)"
       inkscape:label="#path3316" />
    <path
       style="fill:none;stroke:#000000;stroke-width:1px;stroke-linecap:butt;stroke-linejoin:miter;stroke-opacity:1"
       d="m 524.5,75 -11,0 -5.5,-1 -9,-1.5 -11,-3 -11,0 -4,2.5 -4.5,1.5 -2.5,0 -3.5,0 -1.5,0 -1.5,2.5 0.5,4 3.5,4.5 0,2.5 0,2.5 -1.5,9.5 0,9.5 3,11.5 1.5,10.5 0,10 2,36.5 -1,44 4,17 -0.5,15.5 0,5 10,1.5 3.5,3.5 6.5,3 8,0.5 11,-4 6.5,-1.5 7.5,-3 7.5,1 5.5,4.5 3.5,0.5 7.5,-6.5 3,-2 18.5,0.5 0.5,-0.5 0,-7.5 0,-9.5 -0.5,-11 -7.5,-38.5 -6.5,-18.5 1.5,-6.5 -5.5,-9 -6,-32 -1.5,-16 -5.5,-13 0,-12 -3.5,-3.5 -2.5,-3.5 -1,2 -3.5,0 z"
       id="area_5"
       inkscape:connector-curvature="0"
       transform="translate(471.42856,546.00507)"
       inkscape:label="#path3318" />
    <path
       style="fill:none;stroke:#000000;stroke-width:1px;stroke-linecap:butt;stroke-linejoin:miter;stroke-opacity:1"
       d="m 380.5,54 -1.5,35.5 -1.5,15 1.5,7 1,34 2,6.5 1,20 -2,43 1.5,18 -1.5,16.5 2,11 0,5.5 4.5,1.5 4.5,-1 10,2 8,0.5 3.5,-1 7,2.5 13.5,1.5 10.5,2 5,-1 4,-3 1,-8 1.5,-3.5 -1.5,-7 -0.5,-10.5 -2.5,-29 -4,-42.5 -4.5,-61 1,-31 -4.5,-3 -2.5,-1 2,-7.5 -1.5,-4 -7.5,-0.5 -10,-2 -4,-0.5 -10,-2 -5.5,0 -6.5,-2.5 -2,1.5 -5.5,-1 z"
       id="area_4"
       inkscape:connector-curvature="0"
       transform="translate(471.42856,546.00507)"
       inkscape:label="#path3320" />
    <path
       style="fill:none;stroke:#000000;stroke-width:1px;stroke-linecap:butt;stroke-linejoin:miter;stroke-opacity:1"
       d="m 335,114.5 -2,37.5 -2,34.5 c 0,0 -1,1 0.5,3.5 1.5,2.5 6.5,6 6.5,6 l 2,0.5 -2,17.5 1.5,9.5 c 0,0 -5,0 -1,2.5 4,2.5 7.5,2 7.5,2 l 6,-0.5 2,-6 0,-24.5 2,1 4.5,-1 4,-3.5 0.5,-40 1.5,-40 0,-4 -4,-5.5 -8.5,-3.5 -6,-2 -5,2.5 -2.5,0.5 -2,3 -1.5,3.5 -0.5,1.5 z"
       id="area_3"
       inkscape:connector-curvature="0"
       transform="translate(471.42856,546.00507)"
       inkscape:label="#path3322" />
    <path
       style="fill:none;stroke:#000000;stroke-width:1px;stroke-linecap:butt;stroke-linejoin:miter;stroke-opacity:1"
       d="m 310.5,86.5 -14.5,3 -19,-1 -17,-1 -19.5,0.5 -5.5,0 -1.5,8 2,27 -2,44 -1,46.5 -8,27 -3.5,12 6.5,3 26.5,3 28.5,1 16.5,4.5 18.5,-1.5 1,-12.5 -8,-33 2,-65.5 -0.5,-44.5 3.5,-20 z"
       id="area_2"
       inkscape:connector-curvature="0"
       transform="translate(471.42856,546.00507)"
       inkscape:label="#path3324" />
    <path
       style="fill:none;stroke:#000000;stroke-width:1px;stroke-linecap:butt;stroke-linejoin:miter;stroke-opacity:1"
       d="m 204.70741,88.947349 -23.33452,3.18198 -10.96016,-0.353553 -12.02081,-0.353554 -6.36396,0.353554 -7.07107,0 -4.94975,3.18198 -4.59619,12.020814 0.35355,7.77818 -4.59619,15.9099 -7.07107,28.28427 -8.83883,25.45584 -3.18199,14.49569 -6.36396,24.39519 -7.778171,13.08147 0,10.25305 -1.767767,9.19239 L 98,257 l 5.75,-2 9.75,-0.5 10.5,2 10.75,0.25 13.75,1 13,-1 10.75,1 2.25,-1.75 3,1 11,2.75 4,-0.25 1.75,-18 4.25,-16 8,-53.25 1.75,-30 5.75,-21.25 1.5,-11 -2,-14.75 z"
       id="area_1"
       inkscape:connector-curvature="0"
       transform="translate(471.42856,546.00507)"
       inkscape:label="#path3326" />
    <text
       xml:space="preserve"
       style="font-size:48px;font-style:normal;font-weight:normal;line-height:125%;letter-spacing:0px;word-spacing:0px;fill:#000000;fill-opacity:1;stroke:none;font-family:Sans"
       x="712.42859"
       y="967.00507"
       id="navigation"
       sodipodi:linespacing="125%"
       inkscape:label="#text3328"><tspan
         sodipodi:role="line"
         id="tspan3330"
         x="712.42859"
         y="967.00507">1 2 3 4 5 6 8 7</tspan></text>
  </g>
</svg>
