<?xml version="1.0" encoding="UTF-8" standalone="no"?>
<!-- Created with Inkscape (http://www.inkscape.org/) -->

<svg
   xmlns:dc="http://purl.org/dc/elements/1.1/"
   xmlns:cc="http://creativecommons.org/ns#"
   xmlns:rdf="http://www.w3.org/1999/02/22-rdf-syntax-ns#"
   xmlns:svg="http://www.w3.org/2000/svg"
   xmlns="http://www.w3.org/2000/svg"
   xmlns:xlink="http://www.w3.org/1999/xlink"
   xmlns:sodipodi="http://sodipodi.sourceforge.net/DTD/sodipodi-0.dtd"
   xmlns:inkscape="http://www.inkscape.org/namespaces/inkscape"
   width="799"
   height="533"
   id="svg2"
   version="1.1"
   inkscape:version="0.48.3.1 r9886"
   sodipodi:docname="Gice2.svg">
  <defs
     id="defs4" />
  <sodipodi:namedview
     id="base"
     pagecolor="#ffffff"
     bordercolor="#666666"
     borderopacity="1.0"
     inkscape:pageopacity="0.0"
     inkscape:pageshadow="2"
     inkscape:zoom="1"
     inkscape:cx="502.07879"
     inkscape:cy="253.03507"
     inkscape:document-units="px"
     inkscape:current-layer="layer1"
     showgrid="false"
     fit-margin-top="0"
     fit-margin-left="0"
     fit-margin-right="0"
     fit-margin-bottom="0"
     inkscape:window-width="1317"
     inkscape:window-height="744"
     inkscape:window-x="49"
     inkscape:window-y="24"
     inkscape:window-maximized="1" />
  <metadata
     id="metadata7">
    <rdf:RDF>
      <cc:Work
         rdf:about="">
        <dc:format>image/svg+xml</dc:format>
        <dc:type
           rdf:resource="http://purl.org/dc/dcmitype/StillImage" />
        <dc:title></dc:title>
      </cc:Work>
    </rdf:RDF>
  </metadata>
  <g
     inkscape:label="Layer 1"
     inkscape:groupmode="layer"
     id="layer1"
     transform="translate(1068.0714,-51.576469)">
    <image
       y="51.576469"
       x="-1068.0714"
       id="image3288"
       xlink:href="file:///media/BLANK/04/Gice2.jpg"
       height="533"
       width="799" />
    <path
       style="fill:none;stroke:#000000;stroke-width:1px;stroke-linecap:butt;stroke-linejoin:miter;stroke-opacity:1"
       d="m 328.09755,83.280087 -7.07107,7.778175 -3.53554,1.414213 -25.45584,-0.707107 -33.23402,3.535534 -55.15433,-2.12132 -16.97056,0 -6.36396,-2.12132 -5.65686,-0.707107 -4.94974,-1.414214 -2.12132,-2.828427 -6.36396,-2.12132 4.94974,8.485281 0,7.778175 0,1.41421 -7.07106,-3.535531 0.7071,10.606601 -1.41421,8.48528 0.70711,7.07107 -5.65686,8.48528 9.8995,9.8995 19.79899,1.41421 26.16295,2.12132 48.08326,-1.41421 32.52691,-1.41422 L 315,144.5 l 6,-4.5 3,3.5 9.5,1.5 2,-2 1,-20 1,-11.5 5,-16.5 -4.5,4 -2.5,-8.5 L 333,86 z"
       id="area_9"
       inkscape:connector-curvature="0"
       transform="translate(-1068.0714,51.576469)"
       inkscape:label="#path3310" />
    <path
       style="fill:none;stroke:#000000;stroke-width:1px;stroke-linecap:butt;stroke-linejoin:miter;stroke-opacity:1"
       d="m 590.5,87 -82.5,0.5 -34,0.5 -29,-2 -9,-1 -8,-2 -7.5,2 c 0,0 -2.5,3 -5,3 -2.5,0 -11.5,1 -11.5,1 l -7.5,2.5 -8,1.5 -10,-10.5 -3.5,-1.5 -2.5,0 0.5,4 -1,7.5 -3,0.5 0,7.5 1,7.5 0.5,6 -3.5,12 -1.5,7.5 3,4.5 4,5.5 5,2 3.5,2.5 8,-0.5 8,2 2.5,3.5 28,-1 57.5,-1.5 102,1.5 29.5,0.5 11.5,0.5 7.5,-6.5 -5,-17 0.5,-16.5 1,-12 -3.5,-2 -6.5,-11.5 0,-2.5 -5,4.5 -5,1 -5.5,-4 -4,0 -6,2.5 -3,0 z"
       id="area_13"
       inkscape:connector-curvature="0"
       transform="translate(-1068.0714,51.576469)"
       inkscape:label="#path3312" />
    <path
       style="fill:none;stroke:#000000;stroke-width:1px;stroke-linecap:butt;stroke-linejoin:miter;stroke-opacity:1"
       d="m 332.5,146.5 -3.5,2.5 -30.5,-0.5 -70,0.5 -54,0 -7.5,1 -6.5,0.5 -2.5,-1 -5.5,-5 -6.5,-3 -2,4.5 -2,4.5 -1.5,5.5 0,10.5 -2.5,9.5 -0.5,11 -3,4 6.5,4 9.5,5 16,2.5 4.5,1.5 11.5,0 15.5,-2.5 41,0.5 41,-1 21,-1 18,0 9.5,-3.5 6.5,-4 4.5,2 0.5,-8 -2,-4 0,-6.5 -2,-9 0,-12 -1,-7.5 z"
       id="area_10"
       inkscape:connector-curvature="0"
       transform="translate(-1068.0714,51.576469)"
       inkscape:label="#path3314" />
    <path
       style="fill:none;stroke:#000000;stroke-width:1px;stroke-linecap:butt;stroke-linejoin:miter;stroke-opacity:1"
       d="m 191.5,258 83,-3 11.5,-0.5 5.5,-1.5 1,-3 1.5,-28 -2,-19.5 -1.5,-1 -15,0 -40,1.5 -32,-1.5 -20,3.5 -8.5,1.5 -5,1.5 -1.5,15 -1.5,7 0.5,14.5 0.5,6.5 4.5,6 10.5,1.5 z"
       id="area_11"
       inkscape:connector-curvature="0"
       transform="translate(-1068.0714,51.576469)"
       sodipodi:nodetypes="ccccccccccccccccccccc"
       inkscape:label="#path3316" />
    <path
       style="fill:none;stroke:#000000;stroke-width:1px;stroke-linecap:butt;stroke-linejoin:miter;stroke-opacity:1"
       d="m 318.75,343.5 0.75,-5.5 4.25,-0.75 6.25,-4.25 3,-5 -5,-8.25 10,-14 -1,-8 -4.25,-8.5 7.25,-8 2,-6.25 -5.25,-4.5 0,-3 -4.25,-4.75 -2.5,0.25 -0.75,-3.75 -1.5,-2.25 -5.75,0 -14.75,0.5 -40,2.75 -49.5,3.5 -37,1.5 -31.55047,3.29206 -1.41421,0.70711 -8.83884,0.35355 -3.18198,1.41422 -0.7071,1.06066 0.35355,4.94975 5.3033,2.12132 27.93072,11.66726 42.07285,16.97056 51.26524,21.56676 13.43503,5.3033 26.16295,10.6066 11.66726,3.18198 3.18198,-0.35355 1.06067,-1.06066 1.06066,-1.06066 z"
       id="area_12"
       inkscape:connector-curvature="0"
       transform="translate(-1068.0714,51.576469)"
       inkscape:label="#path3318" />
    <path
       style="fill:none;stroke:#000000;stroke-width:1px;stroke-linecap:butt;stroke-linejoin:miter;stroke-opacity:1"
       d="m 638.5,278 -126.5,2.5 -85.61461,2.53775 -20.85965,-1.06066 -8.13173,1.76777 -15.9099,4.59619 -2.82843,1.76777 -1.76777,-1.06066 -1.41421,-4.94975 -1.41421,-0.35355 -2.82843,12.37437 -1.06066,16.26345 0,22.62742 -1.76777,9.54594 8.48528,5.65686 7.07107,2.47487 9.19239,1.06066 10.6066,1.76777 9.19239,3.18198 65.05382,-2.82843 89.09546,-0.35355 51.97235,-0.70711 17.67767,1.41421 3.53553,-2.47487 26.51651,-2.47487 18.38477,-6.71752 2.47488,-1.76776 -0.35356,-0.70711 -7.77817,-1.06066 -7.42462,-1.76777 0.35355,-5.65685 0.70711,-10.96016 0.7071,-14.14213 -3.18198,-8.83884 0.70711,-2.47487 -4.24264,-1.06066 -3.88909,-3.53554 -1.76777,-2.47487 -3.88908,-1.41421 -6.36396,-4.24264 -3.88909,-3.53554 -4.24264,-2.82842 z"
       id="area_16"
       inkscape:connector-curvature="0"
       transform="translate(-1068.0714,51.576469)"
       inkscape:label="#path3320" />
    <path
       style="fill:none;stroke:#000000;stroke-width:1px;stroke-linecap:butt;stroke-linejoin:miter;stroke-opacity:1"
       d="m 668.92302,186.87123 c 0,0 -2.47488,4.24264 -2.47488,5.65685 0,1.41422 0,10.96016 0,10.96016 l 1.41422,15.55635 1.41421,19.09188 2.47487,9.19239 -1.06066,4.94975 0.70711,7.42462 0,4.59619 -0.70711,2.47488 -11.66726,4.24264 -24.39518,-0.70711 -44.90128,-1.06066 -23.33453,2.82843 -33.58757,1.06066 -77.42819,0.35355 -14.49569,1.41421 -9.19239,-1.76776 -15.9099,0.35355 -25.10229,1.41421 -12.72793,-0.7071 -8.48528,-6.36396 -1.06066,-6.01041 3.18198,-12.72792 -3.18198,-15.2028 0.35356,-12.02081 3.18198,-13.08148 0,-2.82843 -1.76777,-8.83883 2.82843,-4.24264 1.76776,-1.76777 6.01041,7.77818 6.01041,-1.06066 18.38478,-2.47488 12.02081,1.76777 18.73833,0.70711 20.15254,-1.41422 50.91169,-2.47487 52.3259,-1.41422 51.6188,-2.82842 33.23402,-0.35356 14.14213,-1.41421 6.36396,-2.12132 z"
       id="area_15"
       inkscape:connector-curvature="0"
       transform="translate(-1068.0714,51.576469)"
       inkscape:label="#path3322" />
    <path
       style="fill:none;stroke:#000000;stroke-width:1px;stroke-linecap:butt;stroke-linejoin:miter;stroke-opacity:1"
       d="m 383.95898,149.04102 -2.47487,3.53553 -3.88909,0.70711 -0.35355,2.82843 -0.70711,2.12132 -0.70711,3.88908 -1.76776,4.24264 1.06066,3.18198 0,3.88909 -0.35356,6.36396 -0.35355,6.71752 0,4.24264 5.65686,7.07107 1.76776,1.06066 12.02082,-1.41422 10.25305,-1.76776 7.42462,0 10.96015,2.12132 12.02082,0 19.44543,-1.41422 31.1127,-1.41421 67.17515,-1.76777 55.50788,-3.53553 19.44544,0 7.77817,-0.70711 0,-1.06066 -4.24264,-3.18198 0.70711,-5.65685 0,-2.12132 -1.76777,-7.42463 -3.18198,-3.53553 -1.41421,-4.24264 -1.76777,-5.3033 -6.71752,-2.12132 -0.35355,-1.41422 -27.93072,-1.41421 -26.5165,1.06066 -43.84062,-1.41421 -29.34493,0.35355 -37.12311,-0.35355 -28.28427,1.06066 -17.67767,1.76776 -9.8995,0 -5.3033,1.41422 0,2.12132 -2.82842,0 0,-4.5962 -0.70711,-1.06066 -0.35355,-2.12132 z"
       id="area_14"
       inkscape:connector-curvature="0"
       transform="translate(-1068.0714,51.576469)"
       inkscape:label="#path3324" />
    <text
       xml:space="preserve"
       style="font-size:48px;font-style:normal;font-weight:normal;line-height:125%;letter-spacing:0px;word-spacing:0px;fill:#000000;fill-opacity:1;stroke:none;font-family:Sans"
       x="-895.07141"
       y="106.57647"
       id="navigation"
       sodipodi:linespacing="125%"
       inkscape:label="#text3326"><tspan
         sodipodi:role="line"
         id="tspan3328"
         x="-895.07141"
         y="106.57647">9 13 10 14 11 15 12 16</tspan></text>
  </g>
</svg>
