<?xml version="1.0" encoding="UTF-8" standalone="no"?>
<!-- Created with Inkscape (http://www.inkscape.org/) -->

<svg
   xmlns:dc="http://purl.org/dc/elements/1.1/"
   xmlns:cc="http://creativecommons.org/ns#"
   xmlns:rdf="http://www.w3.org/1999/02/22-rdf-syntax-ns#"
   xmlns:svg="http://www.w3.org/2000/svg"
   xmlns="http://www.w3.org/2000/svg"
   xmlns:xlink="http://www.w3.org/1999/xlink"
   xmlns:sodipodi="http://sodipodi.sourceforge.net/DTD/sodipodi-0.dtd"
   xmlns:inkscape="http://www.inkscape.org/namespaces/inkscape"
   width="3000"
   height="2000"
   id="svg2"
   version="1.1"
   inkscape:version="0.48.3.1 r9886"
   sodipodi:docname="Gkbar.svg">
  <defs
     id="defs4" />
  <sodipodi:namedview
     id="base"
     pagecolor="#ffffff"
     bordercolor="#666666"
     borderopacity="1.0"
     inkscape:pageopacity="0.0"
     inkscape:pageshadow="2"
     inkscape:zoom="0.35"
     inkscape:cx="1323.3403"
     inkscape:cy="804.90208"
     inkscape:document-units="px"
     inkscape:current-layer="layer1-6"
     showgrid="false"
     inkscape:window-width="1317"
     inkscape:window-height="744"
     inkscape:window-x="49"
     inkscape:window-y="24"
     inkscape:window-maximized="1"
     fit-margin-top="0"
     fit-margin-left="0"
     fit-margin-right="0"
     fit-margin-bottom="0" />
  <metadata
     id="metadata7">
    <rdf:RDF>
      <cc:Work
         rdf:about="">
        <dc:format>image/svg+xml</dc:format>
        <dc:type
           rdf:resource="http://purl.org/dc/dcmitype/StillImage" />
        <dc:title></dc:title>
      </cc:Work>
    </rdf:RDF>
  </metadata>
  <g
     inkscape:label="Layer 1"
     inkscape:groupmode="layer"
     id="layer1"
     transform="translate(1125,467.63781)">
    <g
       transform="translate(1546.4285,534.28571)"
       id="layer1-6"
       inkscape:label="Layer 1">
      <image
         width="3000"
         height="2000"
         xlink:href="file:///media/BLANK/04/Gkbar.jpg"
         id="image3350"
         x="-2671.4285"
         y="-1001.9235" />
      <path
         inkscape:label="#path3372"
         sodipodi:nodetypes="cccccccccccccccccccccccccccccccccccccccccccccc"
         transform="translate(-2671.4285,-1001.9235)"
         inkscape:connector-curvature="0"
         id="area_1"
         d="m 2010.1734,442.19362 -5.0508,27.14285 -11.1835,4.77593 -16.7962,3.03046 L 1470,492.85714 1062.8571,494.28571 1000,492.85714 955.71429,490 l -18.57143,-2.85714 -11.42857,0 -7.14286,-1.42858 10,12.85715 -10,5.71428 11.42857,12.85715 -5.71429,1.42857 -7.14285,8.57143 7.14285,12.85714 12.85715,15.71428 32.85714,40 17.14286,7.14286 455.71424,0 267.3312,-3.93872 256.5787,-3.03046 30.3046,-2.0203 10.1015,-4.04061 17.1726,-18.18275 7.0711,-25.25381 4.0406,-16.16244 -3.0305,1.01015 1.0102,-18.18275 3.0304,-6.06091 0,-7.07107 -5.0507,-3.03046 5.0507,-12.12183 -3.0304,-4.04061 -3.0305,-2.0203 5.0508,-11.11168 -2.0203,-3.03046 -2.0203,2.02031 -2.0203,0 2.0203,-9.09138 -13.132,6.06092 2.0203,-19.1929 -4.0406,2.02031 -5.0508,-11.11168 z"
         style="fill:none;stroke:#000000;stroke-width:1px;stroke-linecap:butt;stroke-linejoin:miter;stroke-opacity:1" />
      <path
         inkscape:label="#path3374"
         transform="translate(-2671.4285,-1001.9235)"
         inkscape:connector-curvature="0"
         id="area_2"
         d="M 1558.6654,701.95398 1036.4286,685 985,678.57143 l -9.28571,3.57143 -5,0 -6.42857,-2.85715 L 946.42857,665 942.85714,668.57143 940,672.14286 944.28572,678.57143 940,681.42857 942.14286,690 l -5,3.57143 3.57143,5.71428 -4.28572,5 4.28572,3.57143 -2.14286,1.42857 2.14286,4.28572 0.71428,4.28571 -5,2.14286 1.42857,7.14286 L 930,734.28571 933.57143,740 l -4.28571,5.71428 -0.71429,6.42858 1.42857,0.71428 -2.85714,4.28572 5,4.28571 -3.57143,3.57143 2.14286,2.85714 15,2.14286 7.14285,1.42857 14.28572,13.57143 4.28571,4.28571 10.71429,2.85715 10.71428,-0.71429 5.71429,2.85714 9.99997,1.42857 25.7143,-0.71428 14.2857,0 28.5715,5.71428 29.2857,1.42858 40.7143,2.14285 52.8571,6.42857 72.1429,-4.28571 60.7142,4.28571 50.7143,0 86.4286,5 54.2857,-0.71428 54.2857,-6.42857 37.8572,-6.42857 18.5714,-5.71429 30,-10.71429 3.5714,-4.28571 -4.2857,-7.14286 3.5714,-8.57143 -5,-5.71428 2.8572,-6.42857 -2.1429,-2.85715 1.4286,-5 -3.5714,-5.71428 2.1428,-7.14286 -2.1428,-4.28571 4.2857,-5.71429 -4.2857,-4.28571 4.2857,-5 -3.5714,-5 3.5714,-7.14286 -3.5714,-4.28571 3.5714,-7.85715 -3.5714,-4.28571 3.5714,-5.71429 -38.5714,8.57143 -21.4286,0.71429 -6.4286,5 -10.7143,5 -5,7.85714 -12.8571,-3.57143 z"
         style="fill:none;stroke:#000000;stroke-width:1px;stroke-linecap:butt;stroke-linejoin:miter;stroke-opacity:1" />
      <path
         transform="translate(-2671.4285,-1001.9235)"
         inkscape:connector-curvature="0"
         id="area_5"
         d="m 1776.8583,660.53772 0,8.08123 -5.0507,1.01015 0,40.4061 3.0304,121.21831 9.0914,168.69547 -3.0305,33.33502 1.0102,60.6092 5.0508,18.1827 1.0101,13.132 7.0711,2.0203 0,-4.0406 15.1523,-5.0508 8.0812,4.0406 5.0507,-4.0406 7.0711,11.1117 13.132,-8.0812 7.0711,7.0711 6.0609,-6.061 9.0914,8.0813 8.0812,-4.0407 9.0913,7.0711 10.1016,-6.0609 2.0203,6.0609 11.1117,-3.0304 9.0913,8.0812 7.0711,-6.0609 5.0508,3.0304 12.1218,-2.0203 7.0711,5.0508 8.0812,-6.0609 6.0609,6.0609 11.1117,-7.0711 8.0812,7.0711 5.0508,-5.0508 10.1015,2.0203 9.0913,-4.0406 10.1016,4.0406 2.0203,-5.0507 3.0304,-4.0407 -5.0507,-55.5583 -1.0102,-13.132 -10.1015,-34.3452 -14.1421,-28.28428 -6.061,-129.29953 -2.0203,-102.02541 1.0102,-7.07106 7.0711,-21.21321 -7.0711,-43.43656 -3.0305,0 -6.0609,-3.03045 -2.0203,-1.01016 -7.0711,5.05077 -9.0913,-5.05077 -7.0711,5.05077 -8.0812,-5.05077 -7.0711,2.02031 -7.071,-5.05076 -7.0711,3.03045 -7.0711,-4.04061 -10.1015,3.03046 -8.0812,-6.06091 -5.0508,3.03045 -9.0914,-7.07106 -5.0507,4.04061 -5.0508,-6.06092 -6.0609,5.05076 -6.0609,-8.08122 -10.1015,3.03046 -5.0508,-10.10152 -6.0609,5.05076 -5.0508,-5.05076 -13.132,3.03045 -3.0304,-5.05076 -8.0812,1.01015 -7.0711,-6.06091 -10.1015,3.03045 -8.0813,-5.05076 z"
         style="fill:none;stroke:#000000;stroke-width:1px;stroke-linecap:butt;stroke-linejoin:miter;stroke-opacity:1" />
      <path
         style="fill:none;stroke:#000000;stroke-width:1px;stroke-linecap:butt;stroke-linejoin:miter;stroke-opacity:1"
         d="m 451.53819,415.96608 -268.70058,-7.07107 -260.619356,-2.0203 -47.477174,-1.01016 0,-11.11167 -17.17259,-2.02031 -8.08122,1.01015 -10.10152,0 -6.06092,-4.04061 -5.05076,-3.03045 -2.02031,3.03045 11.11168,16.16244 -2.0203,12.12183 -1.01016,14.14214 -6.06091,18.18275 -11.11168,23.2335 0,6.06092 29.29442,16.16244 13.13199,13.13198 13.13198,4.04061 8.08122,-5.05076 40.406101,3.03046 22.223356,2.0203 45.456865,-1.01015 89.903577,-1.01015 75.761441,4.04061 122.22846,5.05076 165.66501,3.03046 53.53809,-9.09137 21.2132,-9.09138 11.11168,2.02031 8.08122,8.08122 6.06092,0 2.0203,-3.03046 -4.04061,-5.05076 4.04061,-5.05076 -5.05076,-12.12184 2.0203,-7.07106 -3.03045,-4.04061 1.01015,-5.05077 c 0,0 -3.03046,-13.13198 -3.03046,-9.09137 0,4.04061 -3.03046,-12.12183 -3.03046,-12.12183 l 3.03046,-8.08122 -4.04061,-3.03046 0,-5.05076 -2.0203,-7.07107 -2.02031,-3.03046 -6.06091,-5.05076 0,-3.03046 -21.21321,-3.03045 -26.26396,-3.03046 -6.06092,2.0203 -8.08122,3.03046 z"
         id="area_3"
         inkscape:connector-curvature="0"
         transform="translate(-1546.4285,-534.28571)"
         inkscape:label="#path3043" />
      <path
         style="fill:none;stroke:#000000;stroke-width:1px;stroke-linecap:butt;stroke-linejoin:miter;stroke-opacity:1"
         d="m 376.7869,556.37728 -37.37564,32.32488 -12.12184,13.13199 -11.11167,2.0203 -5.05077,3.03046 -14.14213,-9.09137 -4.04061,-1.01016 -13.13198,7.07107 -13.13199,-4.04061 -11.11168,-9.09137 -12.12183,-6.06092 -45.45686,2.02031 -96.97465,-1.01015 -14.142131,-1.01016 -14.142136,6.06092 -13.131983,8.08122 -19.192898,11.11168 -2.020305,6.06091 -7.071068,5.05077 -4.04061,1.01015 -19.1928986,-13.13198 -25.2538134,-7.07107 -32.324882,-3.03046 -2.020305,12.12183 -1.010152,27.27412 17.172593,21.2132 7.071068,3.03046 19.1928981,15.15229 10.1015254,-1.01015 30.3045765,-23.23351 3.030458,-5.05077 10.101525,11.11168 12.121831,21.21321 22.223356,13.13198 139.401051,0 38.3858,0 11.11167,-4.04061 9.09138,-7.07107 19.1929,-17.17259 20.20305,-17.1726 11.11167,-7.07106 16.16245,-9.09138 33.33503,-13.13198 15.15229,-14.14213 7.07107,-11.11168 -4.04061,-25.25382 -11.11168,-8.08122 z"
         id="area_4"
         inkscape:connector-curvature="0"
         transform="translate(-1546.4285,-534.28571)"
         inkscape:label="#path3045" />
      <text
         xml:space="preserve"
         style="font-size:86.87689209px;font-style:normal;font-weight:normal;line-height:125%;letter-spacing:0px;word-spacing:0px;fill:#000000;fill-opacity:1;stroke:none;font-family:Sans"
         x="-2282.1331"
         y="266.22891"
         id="navigation"
         sodipodi:linespacing="125%"
         transform="scale(0.93085082,1.074286)"
         inkscape:label="#text3047"><tspan
           sodipodi:role="line"
           id="tspan3049"
           x="-2282.1331"
           y="266.22891">1 2 3 4 5</tspan></text>
    </g>
  </g>
</svg>
