<?xml version="1.0" encoding="UTF-8" standalone="no"?>
<!-- Created with Inkscape (http://www.inkscape.org/) -->

<svg
   xmlns:dc="http://purl.org/dc/elements/1.1/"
   xmlns:cc="http://creativecommons.org/ns#"
   xmlns:rdf="http://www.w3.org/1999/02/22-rdf-syntax-ns#"
   xmlns:svg="http://www.w3.org/2000/svg"
   xmlns="http://www.w3.org/2000/svg"
   xmlns:xlink="http://www.w3.org/1999/xlink"
   xmlns:sodipodi="http://sodipodi.sourceforge.net/DTD/sodipodi-0.dtd"
   xmlns:inkscape="http://www.inkscape.org/namespaces/inkscape"
   id="svg2"
   version="1.1"
   inkscape:version="0.48.2 r9819"
   width="3000"
   height="2000"
   sodipodi:docname="Gmco.jpg">
  <metadata
     id="metadata8">
    <rdf:RDF>
      <cc:Work
         rdf:about="">
        <dc:format>image/svg+xml</dc:format>
        <dc:type
           rdf:resource="http://purl.org/dc/dcmitype/StillImage" />
        <dc:title></dc:title>
      </cc:Work>
    </rdf:RDF>
  </metadata>
  <defs
     id="defs6" />
  <sodipodi:namedview
     pagecolor="#ffffff"
     bordercolor="#666666"
     borderopacity="1"
     objecttolerance="10"
     gridtolerance="10"
     guidetolerance="10"
     inkscape:pageopacity="0"
     inkscape:pageshadow="2"
     inkscape:window-width="1680"
     inkscape:window-height="988"
     id="namedview4"
     showgrid="false"
     inkscape:zoom="0.42933333"
     inkscape:cx="1290.2747"
     inkscape:cy="1425.6665"
     inkscape:window-x="-8"
     inkscape:window-y="-8"
     inkscape:window-maximized="1"
     inkscape:current-layer="svg2" />
  <image
     width="3000"
     height="2000"
     xlink:href="file:///F:/05/Gmco.jpg"
     id="image10"
     x="0"
     y="0" />
  <path
     style="fill:none;stroke:#000000;stroke-width:1px;stroke-linecap:butt;stroke-linejoin:miter;stroke-opacity:1"
     d="m 787.26708,439.44099 2.32919,41.92547 18.63354,88.50931 -37.26708,319.09938 -11.64596,123.44725 -27.95031,114.1304 -32.6087,67.5466 11.64597,41.9254 400.62107,-25.6211 265.528,-6.9876 125.7764,-6.9875 -23.2919,-104.8137 -32.6087,-60.559 2.3292,-104.81367 -18.6336,-86.18012 6.9876,-39.59627 -27.9503,-111.80125 39.5963,-100.15527 4.6584,-79.19255 -9.3168,-27.95031 27.9503,-44.25466 -2.3292,-27.95031 -202.6398,-4.65839 -67.5465,20.96274 -135.0932,0 -221.2733,13.97515 z"
     id="area_1"
     inkscape:connector-curvature="0"
     sodipodi:nodetypes="ccccccccccccccccccccccccccc"
     inkscape:label="#path2987" />
  <path
     style="fill:none;stroke:#000000;stroke-width:1px;stroke-linecap:butt;stroke-linejoin:miter;stroke-opacity:1"
     d="M 1567.5466,486.02484 1814.441,500 l 193.323,0 90.8385,4.65838 41.9255,0 c 0,0 20.9627,-2.32919 39.5962,-2.32919 18.6336,0 44.2547,0 44.2547,0 l 6.9876,46.58385 -20.9628,284.16149 c 0,0 2.3292,69.87578 4.6584,86.18013 2.3292,16.30435 86.1801,177.01864 86.1801,177.01864 l -11.6459,39.5963 -468.1677,9.3167 c 0,0 -137.4224,-16.3043 -151.3975,-16.3043 -13.9752,0 -88.5094,6.9876 -88.5094,6.9876 l -69.8757,-13.9752 -6.9876,-30.2795 69.8758,-97.82608 -18.6336,-74.53416 11.646,-242.23603 -39.5963,-144.40994 9.3168,-55.90062 z"
     id="area_2"
     inkscape:connector-curvature="0"
     inkscape:label="#path2989" />
  <text
     xml:space="preserve"
     style="font-size:144px;font-style:normal;font-weight:normal;line-height:125%;letter-spacing:0px;word-spacing:0px;fill:#000000;fill-opacity:1;stroke:none;font-family:Sans"
     x="994.56525"
     y="173.91304"
     id="navigation"
     sodipodi:linespacing="125%"
     inkscape:label="#text2991"><tspan
       sodipodi:role="line"
       id="tspan2993"
       x="994.56525"
       y="173.91304">1 2</tspan></text>
</svg>
