<?xml version="1.0" encoding="UTF-8" standalone="no"?>
<!-- Created with Inkscape (http://www.inkscape.org/) -->

<svg
   xmlns:dc="http://purl.org/dc/elements/1.1/"
   xmlns:cc="http://creativecommons.org/ns#"
   xmlns:rdf="http://www.w3.org/1999/02/22-rdf-syntax-ns#"
   xmlns:svg="http://www.w3.org/2000/svg"
   xmlns="http://www.w3.org/2000/svg"
   xmlns:xlink="http://www.w3.org/1999/xlink"
   xmlns:sodipodi="http://sodipodi.sourceforge.net/DTD/sodipodi-0.dtd"
   xmlns:inkscape="http://www.inkscape.org/namespaces/inkscape"
   id="svg2"
   version="1.1"
   inkscape:version="0.48.2 r9819"
   width="800"
   height="531"
   sodipodi:docname="Gmlk03.jpg">
  <metadata
     id="metadata8">
    <rdf:RDF>
      <cc:Work
         rdf:about="">
        <dc:format>image/svg+xml</dc:format>
        <dc:type
           rdf:resource="http://purl.org/dc/dcmitype/StillImage" />
        <dc:title></dc:title>
      </cc:Work>
    </rdf:RDF>
  </metadata>
  <defs
     id="defs6" />
  <sodipodi:namedview
     pagecolor="#ffffff"
     bordercolor="#666666"
     borderopacity="1"
     objecttolerance="10"
     gridtolerance="10"
     guidetolerance="10"
     inkscape:pageopacity="0"
     inkscape:pageshadow="2"
     inkscape:window-width="1680"
     inkscape:window-height="988"
     id="namedview4"
     showgrid="false"
     inkscape:zoom="1.61"
     inkscape:cx="398.33423"
     inkscape:cy="379.28381"
     inkscape:window-x="-8"
     inkscape:window-y="-8"
     inkscape:window-maximized="1"
     inkscape:current-layer="svg2" />
  <image
     width="800"
     height="531"
     xlink:href="file:///F:/05/Gmlk03.jpg"
     id="image10"
     x="0"
     y="0" />
  <path
     style="fill:none;stroke:#000000;stroke-width:1px;stroke-linecap:butt;stroke-linejoin:miter;stroke-opacity:1"
     d="m 129.81366,150.25466 22.98137,-0.62112 19.25466,4.34783 13.6646,9.31677 10.559,16.14906 3.72671,31.67702 7.45342,63.35404 1.86335,11.80124 -1.24224,13.04348 -11.18012,15.52795 -21.11801,13.6646 L 152.79503,331 122.98137,324.78882 106.8323,309.26087 103.10559,289.38509 90.062112,230.37888 79.503106,196.21739 86.335404,175.7205 110.55901,157.70807 z"
     id="area_9"
     inkscape:connector-curvature="0"
     inkscape:label="#path2987" />
  <path
     style="fill:none;stroke:#000000;stroke-width:1px;stroke-linecap:butt;stroke-linejoin:miter;stroke-opacity:1"
     d="m 320.49689,145.90683 c 0,0 18.01243,2.48447 21.73914,2.48447 3.7267,0 23.60248,11.18013 23.60248,11.18013 l 9.93789,11.18012 2.48447,11.18013 0,15.52795 3.72671,95.65217 -9.93789,16.77019 -14.90683,13.66459 -25.46584,5.59007 -29.81367,-5.59007 -13.66459,-13.04347 -8.69565,-8.07454 -1.86336,-36.64596 -10.559,-65.21739 -1.86336,-19.87578 12.42236,-17.3913 17.39131,-11.18013 z"
     id="area_10"
     inkscape:connector-curvature="0"
     inkscape:label="#path2989" />
  <path
     style="fill:none;stroke:#000000;stroke-width:1px;stroke-linecap:butt;stroke-linejoin:miter;stroke-opacity:1"
     d="m 495.65217,146.52795 25.46584,9.93789 15.52795,16.14907 5.59007,10.559 -3.10559,15.52795 -2.48448,37.26708 -1.86335,52.17392 -2.48447,11.80124 -6.21118,10.55901 -6.8323,8.07453 -13.6646,6.21118 -14.90683,6.21118 -35.40373,-6.21118 -22.98136,-21.11801 -1.86336,-35.40373 -3.10559,-74.53416 c 0,0 -0.65246,-7.05668 0.62112,-10.55901 2.48447,-6.8323 7.45342,-19.25466 7.45342,-19.25466 l 16.77018,-13.04347 24.84472,-4.96895 z"
     id="area_11"
     inkscape:connector-curvature="0"
     sodipodi:nodetypes="ccccccccccccccccscccc"
     inkscape:label="#path2991" />
  <path
     style="fill:none;stroke:#000000;stroke-width:1px;stroke-linecap:butt;stroke-linejoin:miter;stroke-opacity:1"
     d="m 652.79503,145.90683 20.4969,-0.62112 24.2236,8.69566 15.52795,13.04347 8.69565,11.18013 1.24224,14.28571 -16.14907,96.27329 -8.07454,26.70808 -21.73913,14.90683 -25.46583,1.86336 L 637.26708,331 617.3913,319.19876 l -19.25465,-24.84472 3.7267,-47.82609 3.72671,-65.21739 c 0,0 0,-9.93789 2.48447,-12.42236 2.48448,-2.48447 19.25466,-17.39131 19.25466,-17.39131 z"
     id="area_12"
     inkscape:connector-curvature="0"
     inkscape:label="#path2993" />
  <text
     xml:space="preserve"
     style="font-size:56px;font-style:normal;font-weight:normal;line-height:125%;letter-spacing:0px;word-spacing:0px;fill:#000000;fill-opacity:1;stroke:none;font-family:Sans"
     x="207.45341"
     y="81.931679"
     id="navigation"
     sodipodi:linespacing="125%"
     inkscape:label="#text2995"><tspan
       sodipodi:role="line"
       id="tspan2997"
       x="207.45341"
       y="81.931679">9 10 11 12</tspan></text>
</svg>
