<?xml version="1.0" encoding="UTF-8" standalone="no"?>
<!-- Created with Inkscape (http://www.inkscape.org/) -->

<svg
   xmlns:dc="http://purl.org/dc/elements/1.1/"
   xmlns:cc="http://creativecommons.org/ns#"
   xmlns:rdf="http://www.w3.org/1999/02/22-rdf-syntax-ns#"
   xmlns:svg="http://www.w3.org/2000/svg"
   xmlns="http://www.w3.org/2000/svg"
   xmlns:xlink="http://www.w3.org/1999/xlink"
   xmlns:sodipodi="http://sodipodi.sourceforge.net/DTD/sodipodi-0.dtd"
   xmlns:inkscape="http://www.inkscape.org/namespaces/inkscape"
   id="svg2"
   version="1.1"
   inkscape:version="0.48.2 r9819"
   width="799"
   height="533"
   sodipodi:docname="Gmlk01.jpg">
  <metadata
     id="metadata8">
    <rdf:RDF>
      <cc:Work
         rdf:about="">
        <dc:format>image/svg+xml</dc:format>
        <dc:type
           rdf:resource="http://purl.org/dc/dcmitype/StillImage" />
        <dc:title></dc:title>
      </cc:Work>
    </rdf:RDF>
  </metadata>
  <defs
     id="defs6" />
  <sodipodi:namedview
     pagecolor="#ffffff"
     bordercolor="#666666"
     borderopacity="1"
     objecttolerance="10"
     gridtolerance="10"
     guidetolerance="10"
     inkscape:pageopacity="0"
     inkscape:pageshadow="2"
     inkscape:window-width="1680"
     inkscape:window-height="988"
     id="namedview4"
     showgrid="false"
     inkscape:zoom="1.612015"
     inkscape:cx="398.45544"
     inkscape:cy="456.64062"
     inkscape:window-x="-8"
     inkscape:window-y="-8"
     inkscape:window-maximized="1"
     inkscape:current-layer="svg2" />
  <image
     width="799"
     height="533"
     xlink:href="file:///F:/05/Gmlk01.jpg"
     id="image10"
     x="0"
     y="0" />
  <path
     style="fill:none;stroke:#000000;stroke-width:1px;stroke-linecap:butt;stroke-linejoin:miter;stroke-opacity:1"
     d="m 102.35637,117.99146 -24.813668,16.74922 c 0,0 -9.305124,18.61025 -9.305124,21.71196 0,3.10171 3.722049,21.09161 3.722049,21.09161 l 2.481367,22.95264 16.749223,39.70187 14.888203,28.53571 14.26785,24.81367 4.96274,31.63742 3.72205,20.47127 25.434,11.78649 34.11879,-4.96273 24.81367,-11.78649 9.30512,-18.61025 -11.78649,-40.94255 -1.86103,-34.11878 3.10171,-27.29504 0.62034,-34.11878 -8.06444,-43.42392 -15.50854,-21.71195 -29.15605,-11.16615 -35.97982,1.24068 z"
     id="area_5"
     inkscape:connector-curvature="0"
     inkscape:label="#path2987"
     sodipodi:nodetypes="ccscccccccccccccccccccc" />
  <path
     style="fill:none;stroke:#000000;stroke-width:1px;stroke-linecap:butt;stroke-linejoin:miter;stroke-opacity:1"
     d="m 333.74379,111.78804 32.25776,13.64752 9.92547,16.74922 4.34239,31.01708 3.10171,35.35948 -5.58308,31.01708 -8.06444,36.60015 5.58308,44.6646 -3.10171,14.8882 -14.8882,14.26785 -21.71196,7.4441 -31.01708,-1.24068 -17.36956,-13.02717 c 0,0 -9.30513,-9.92547 -7.4441,-13.02718 1.86102,-3.10171 0.62034,-16.12888 0.62034,-16.12888 l -1.24068,-26.67469 c 0,0 -8.68479,-23.57298 -8.68479,-26.67469 0,-3.10171 -14.88819,-28.53571 -14.88819,-28.53571 l -9.30513,-32.87811 -1.86102,-40.94255 8.06444,-22.95264 20.47127,-14.26785 29.7764,-10.54581 z"
     id="area_6"
     inkscape:connector-curvature="0"
     inkscape:label="#path2989" />
  <path
     style="fill:none;stroke:#000000;stroke-width:1px;stroke-linecap:butt;stroke-linejoin:miter;stroke-opacity:1"
     d="m 479.52407,108.06599 23.57298,0 26.05435,4.96274 20.47127,16.12888 8.06444,19.85093 1.86103,28.53571 -3.10171,30.39674 -6.20342,29.15606 -8.68478,22.95264 -6.20342,24.81366 0,22.3323 3.72205,13.64752 -3.72205,11.16615 -8.68478,13.02717 -9.30512,3.72205 -19.85093,4.96273 -19.85094,-0.62034 -13.02717,-4.96273 -21.09161,-17.98991 1.86102,-17.98991 1.86102,-21.09161 -2.48136,-24.19332 -14.8882,-35.97982 -8.06444,-42.80357 0.62034,-37.2205 14.26786,-24.19332 16.74922,-8.68478 z"
     id="area_7"
     inkscape:connector-curvature="0"
     inkscape:label="#path2991" />
  <path
     style="fill:none;stroke:#000000;stroke-width:1px;stroke-linecap:butt;stroke-linejoin:miter;stroke-opacity:1"
     d="m 618.48059,122.33385 -13.02717,13.02717 -5.58308,32.25777 -1.86102,28.53571 3.10171,40.94255 6.82375,26.67469 1.86103,18.61025 -8.06444,29.15605 4.96273,13.64752 9.30512,18.61025 c 0,0 14.8882,6.82376 19.23059,8.68478 4.3424,1.86102 17.98991,3.10171 21.09162,4.96273 3.10171,1.86103 19.23059,-4.34239 21.71196,-4.96273 2.48136,-0.62034 15.50854,-8.68478 15.50854,-8.68478 l 7.4441,-11.78649 -1.24069,-21.71196 3.10171,-25.43401 21.71196,-43.42391 14.26785,-47.14596 2.48137,-38.46118 -9.92547,-26.05435 -26.67468,-17.36957 -34.11879,-4.34239 -24.81367,0 -19.85093,7.4441 z"
     id="area_8"
     inkscape:connector-curvature="0"
     inkscape:label="#path2993" />
  <text
     xml:space="preserve"
     style="font-size:56px;font-style:normal;font-weight:normal;line-height:125%;letter-spacing:0px;word-spacing:0px;fill:#000000;fill-opacity:1;stroke:none;font-family:Sans"
     x="259.3028"
     y="73.947205"
     id="navigation"
     sodipodi:linespacing="125%"
     inkscape:label="#text2995"><tspan
       sodipodi:role="line"
       id="tspan2997"
       x="259.3028"
       y="73.947205">5 6 7 8</tspan></text>
</svg>
