<?xml version="1.0" encoding="UTF-8" standalone="no"?>
<!-- Created with Inkscape (http://www.inkscape.org/) -->

<svg
   xmlns:dc="http://purl.org/dc/elements/1.1/"
   xmlns:cc="http://creativecommons.org/ns#"
   xmlns:rdf="http://www.w3.org/1999/02/22-rdf-syntax-ns#"
   xmlns:svg="http://www.w3.org/2000/svg"
   xmlns="http://www.w3.org/2000/svg"
   xmlns:xlink="http://www.w3.org/1999/xlink"
   xmlns:sodipodi="http://sodipodi.sourceforge.net/DTD/sodipodi-0.dtd"
   xmlns:inkscape="http://www.inkscape.org/namespaces/inkscape"
   id="svg2"
   version="1.1"
   inkscape:version="0.48.2 r9819"
   width="799"
   height="533"
   sodipodi:docname="Gmlk02.jpg">
  <metadata
     id="metadata8">
    <rdf:RDF>
      <cc:Work
         rdf:about="">
        <dc:format>image/svg+xml</dc:format>
        <dc:type
           rdf:resource="http://purl.org/dc/dcmitype/StillImage" />
        <dc:title></dc:title>
      </cc:Work>
    </rdf:RDF>
  </metadata>
  <defs
     id="defs6" />
  <sodipodi:namedview
     pagecolor="#ffffff"
     bordercolor="#666666"
     borderopacity="1"
     objecttolerance="10"
     gridtolerance="10"
     guidetolerance="10"
     inkscape:pageopacity="0"
     inkscape:pageshadow="2"
     inkscape:window-width="1680"
     inkscape:window-height="988"
     id="namedview4"
     showgrid="false"
     inkscape:zoom="0.56993338"
     inkscape:cx="531.11151"
     inkscape:cy="-64.32087"
     inkscape:window-x="-8"
     inkscape:window-y="-8"
     inkscape:window-maximized="1"
     inkscape:current-layer="svg2" />
  <image
     width="799"
     height="533"
     xlink:href="file:///F:/05/Gmlk02.jpg"
     id="image10"
     x="0"
     y="0" />
  <path
     style="fill:none;stroke:#000000;stroke-width:1px;stroke-linecap:butt;stroke-linejoin:miter;stroke-opacity:1"
     d="m 121.06678,156.64022 -17.54591,13.15943 -11.843488,17.54591 -2.193238,17.10727 5.702421,13.15943 17.545915,62.72663 8.77295,31.14399 8.77296,11.84349 c 0,0 21.49374,7.01836 23.24833,7.01836 1.75459,0 31.58264,-0.87729 31.58264,-0.87729 l 20.61644,-8.33431 21.93239,-18.42321 5.70242,-8.77295 -10.0889,-97.3798 -3.07053,-16.66862 -7.01837,-14.91402 -18.86185,-12.28214 -22.37104,-4.82513 -18.86185,-1.31594 -16.66862,3.94783 -7.01836,3.50919 z"
     id="area_13"
     inkscape:connector-curvature="0"
     sodipodi:nodetypes="ccccccccsccccccccccccc"
     inkscape:label="#path2987" />
  <path
     style="fill:none;stroke:#000000;stroke-width:1px;stroke-linecap:butt;stroke-linejoin:miter;stroke-opacity:1"
     d="m 321.09016,147.42862 20.1778,0.43864 13.59808,3.07054 14.47538,7.01836 11.40484,10.0889 5.26377,10.52755 3.50918,16.66861 c 0,0 -2.63188,8.33431 -1.75458,11.40485 0.87729,3.07053 0.43864,83.34307 0.43864,83.34307 l -3.07053,13.59808 -12.28214,13.59808 -14.03673,9.65025 -27.19616,4.82513 -31.14399,-3.94783 -21.05509,-22.37104 -18.42321,-101.76628 -0.43865,-17.10726 12.72079,-20.61645 23.24833,-14.47537 z"
     id="area_14"
     inkscape:connector-curvature="0"
     sodipodi:nodetypes="cccccccscccccccccccc"
     inkscape:label="#path2989" />
  <path
     style="fill:none;stroke:#000000;stroke-width:1px;stroke-linecap:butt;stroke-linejoin:miter;stroke-opacity:1"
     d="m 424.61103,198.7504 8.77296,82.02714 1.31594,17.54591 c 0,0 8.77296,15.79132 10.52755,17.54591 1.75459,1.75459 12.28214,9.65025 12.28214,9.65025 0,0 16.22996,3.07053 17.98456,4.38648 1.75459,1.31594 19.73914,2.63188 19.73914,2.63188 l 17.10727,-1.75459 18.4232,-8.33431 11.40485,-12.72078 2.19323,-14.03673 6.57972,-55.70827 3.94783,-31.14399 0.8773,-12.72078 -1.7546,-16.22997 -9.2116,-11.84349 -10.96619,-9.2116 -11.40484,-6.14107 -21.0551,-3.94783 -25.88021,-0.43865 -20.61645,7.01837 -19.73915,13.15943 -7.01836,13.15943 -2.19324,8.77296 z"
     id="area_15"
     inkscape:connector-curvature="0"
     sodipodi:nodetypes="cccscsccccccccccccccccccc"
     inkscape:label="#path2991" />
  <path
     style="fill:none;stroke:#000000;stroke-width:1px;stroke-linecap:butt;stroke-linejoin:miter;stroke-opacity:1"
     d="m 643.93492,146.55132 18.4232,-0.87729 27.19616,7.45701 22.37104,14.91402 9.65025,17.98456 2.63189,14.03673 -3.07054,13.59808 -16.66861,79.39524 -4.82513,21.0551 -10.52754,8.77295 -13.15944,6.14107 -24.56427,5.70242 -27.63481,-5.26377 -13.59808,-5.70242 -21.05509,-23.68698 0.43864,-83.34308 -1.75459,-29.82805 12.72079,-21.93238 16.22996,-11.40485 z"
     id="area_16"
     inkscape:connector-curvature="0"
     inkscape:label="#path2993"
     sodipodi:nodetypes="cccccccccccccccccccc" />
  <text
     xml:space="preserve"
     style="font-size:56px;font-style:normal;font-weight:normal;line-height:125%;letter-spacing:0px;word-spacing:0px;fill:#000000;fill-opacity:1;stroke:none;font-family:Sans"
     x="249.15193"
     y="85.579285"
     id="navigation"
     sodipodi:linespacing="125%"
     inkscape:label="#text2995"><tspan
       sodipodi:role="line"
       id="tspan2997"
       x="249.15193"
       y="85.579285">13 14 15 16</tspan></text>
</svg>
