<?xml version="1.0" encoding="UTF-8" standalone="no"?>
<!-- Created with Inkscape (http://www.inkscape.org/) -->

<svg
   xmlns:dc="http://purl.org/dc/elements/1.1/"
   xmlns:cc="http://creativecommons.org/ns#"
   xmlns:rdf="http://www.w3.org/1999/02/22-rdf-syntax-ns#"
   xmlns:svg="http://www.w3.org/2000/svg"
   xmlns="http://www.w3.org/2000/svg"
   xmlns:xlink="http://www.w3.org/1999/xlink"
   xmlns:sodipodi="http://sodipodi.sourceforge.net/DTD/sodipodi-0.dtd"
   xmlns:inkscape="http://www.inkscape.org/namespaces/inkscape"
   width="3000"
   height="2000"
   id="svg2"
   version="1.1"
   inkscape:version="0.48.2 r9819"
   sodipodi:docname="Gmmcp.svg">
  <defs
     id="defs4" />
  <sodipodi:namedview
     id="base"
     pagecolor="#ffffff"
     bordercolor="#666666"
     borderopacity="1.0"
     inkscape:pageopacity="0.0"
     inkscape:pageshadow="2"
     inkscape:zoom="0.35"
     inkscape:cx="1747.8276"
     inkscape:cy="1670.2197"
     inkscape:document-units="px"
     inkscape:current-layer="layer1"
     showgrid="false"
     fit-margin-top="0"
     fit-margin-left="0"
     fit-margin-right="0"
     fit-margin-bottom="0"
     inkscape:window-width="1366"
     inkscape:window-height="706"
     inkscape:window-x="-8"
     inkscape:window-y="-8"
     inkscape:window-maximized="1" />
  <metadata
     id="metadata7">
    <rdf:RDF>
      <cc:Work
         rdf:about="">
        <dc:format>image/svg+xml</dc:format>
        <dc:type
           rdf:resource="http://purl.org/dc/dcmitype/StillImage" />
        <dc:title></dc:title>
      </cc:Work>
    </rdf:RDF>
  </metadata>
  <g
     inkscape:label="Layer 1"
     inkscape:groupmode="layer"
     id="layer1"
     transform="translate(1125,467.63782)">
    <image
       y="-467.63782"
       x="-1125"
       id="image2993"
       xlink:href="file:///J:/06/Gmmcp.jpg"
       height="2000"
       width="3000" />
    <path
       style="fill:none;stroke:#000000;stroke-width:1px;stroke-linecap:butt;stroke-linejoin:miter;stroke-opacity:1"
       d="m 437.5,116.78571 21.07143,-5 9.28571,17.5 c 0,0 207.14286,15.35714 220.35715,24.28572 l 138.09049,7.95094 18.68782,-13.13199 42.93149,11.61676 188.39341,18.18274 178.292,10.60661 69.7005,2.0203 -0.5051,28.78935 c 0,0 -7.5761,37.88072 -26.264,60.60915 l -38.2552,92.64185 -32.1428,56.42857 -14.2858,157.85715 c 0,0 -2.1428,72.85714 -7.8571,86.42857 l 18.5714,132.14285 c 0,0 -8.5714,62.85715 -5,87.85715 0,0 -25.7143,232.85717 -26.4285,239.99997 l 46.4285,119.2857 -3.5714,23.5715 c 0,0 -247.85714,-15 -278.57143,-20 l -123.57143,-5.7143 c 0,0 -55,-45.7143 -88.57142,-17.8572 0,0 -15.71429,40.7143 -107.85715,4.2858 L 390,1215.7143 l -60,6.4286 -133.57143,-30.7143 -37.14286,-2.8572 9.28572,-24.2857 87.85714,-82.1428 9.28572,-150.71433 68.57142,-233.57143 35,-189.28571 L 420,317.14286 430,275 z"
       id="area_1"
       inkscape:connector-curvature="0"
       transform="translate(-1125,-467.63782)"
       inkscape:label="#path2996" />
    <path
       style="fill:none;stroke:#000000;stroke-width:1px;stroke-linecap:butt;stroke-linejoin:miter;stroke-opacity:1"
       d="m 1218.5714,1195.3571 -2.1428,-16.4285 9.6428,-48.5715 52.5,-293.92853 -5,-28.57143 14.2857,-256.42857 6.4286,-31.42857 -38.5714,-137.14286 6.4286,-5 94.2857,6.42857 27.8571,-10.71428 85,6.42857 89.2857,-5 108.5715,-2.85714 264.2857,-9.28572 L 1935,373.57143 1886.4286,445 1860,507.85714 l 20.7143,100.71429 -1.4286,15.71428 26.4286,261.42857 12.8571,33.57143 0,40 21.4286,42.85719 18.5714,62.1428 2.8572,16.4286 26.4285,60.7143 -8.5714,46.4285 c 0,0 -217.8571,-7.1428 -238.5714,-14.2857 l -45,3.5715 c 0,0 -7.1429,13.5714 -70,-32.8572 l -78.5714,26.4286 c 0,0 -33.5715,17.8571 -82.8572,-7.1429 0,0 -10.7143,-14.2857 -52.8571,2.8572 z"
       id="area_2"
       inkscape:connector-curvature="0"
       transform="translate(-1125,-467.63782)"
       inkscape:label="#path3000" />
    <path
       style="fill:none;stroke:#000000;stroke-width:1px;stroke-linecap:butt;stroke-linejoin:miter;stroke-opacity:1"
       d="m 1985,1127.1429 -30,-80 7.1429,-49.28576 -13.5715,-240 3.5715,-5 -3.5715,-8.57143 L 1935,610 1915.7143,545 1880,505 1876.4286,480.71428 2210,452.14286 l 135.7143,-12.85715 215,-17.14285 c 0,0 -10.7143,15 -6.4286,22.14285 l -7.1428,10 2.8571,5 -5.7143,8.57143 13.5714,124.28572 14.2858,56.42857 c 0,0 17.8571,175 25,187.14285 7.1428,12.14286 69.2857,257.85712 90.7142,275.71432 0,0 -204.2857,10 -263.5714,-8.5715 0,0 -105.7143,-19.2857 -130.7143,-33.5714 l -27.8571,0.7143 -20,12.1429 z"
       id="area_3"
       inkscape:connector-curvature="0"
       transform="translate(-1125,-467.63782)"
       inkscape:label="#path3002" />
    <text
       xml:space="preserve"
       style="font-size:40px;font-style:normal;font-weight:normal;line-height:125%;letter-spacing:0px;word-spacing:0px;fill:#000000;fill-opacity:1;stroke:none;font-family:Sans"
       x="240"
       y="40"
       id="navigation"
       sodipodi:linespacing="125%"
       transform="translate(-1125,-467.63782)"
       inkscape:label="#text3004"><tspan
         sodipodi:role="line"
         id="tspan3006"
         x="240"
         y="40">1 2 3 </tspan></text>
  </g>
</svg>
