<?xml version="1.0" encoding="UTF-8" standalone="no"?>
<!-- Created with Inkscape (http://www.inkscape.org/) -->

<svg
   xmlns:dc="http://purl.org/dc/elements/1.1/"
   xmlns:cc="http://creativecommons.org/ns#"
   xmlns:rdf="http://www.w3.org/1999/02/22-rdf-syntax-ns#"
   xmlns:svg="http://www.w3.org/2000/svg"
   xmlns="http://www.w3.org/2000/svg"
   xmlns:xlink="http://www.w3.org/1999/xlink"
   xmlns:sodipodi="http://sodipodi.sourceforge.net/DTD/sodipodi-0.dtd"
   xmlns:inkscape="http://www.inkscape.org/namespaces/inkscape"
   width="3000"
   height="2000"
   id="svg3008"
   version="1.1"
   inkscape:version="0.48.2 r9819"
   sodipodi:docname="New document 3">
  <defs
     id="defs3010" />
  <sodipodi:namedview
     id="base"
     pagecolor="#ffffff"
     bordercolor="#666666"
     borderopacity="1.0"
     inkscape:pageopacity="0.0"
     inkscape:pageshadow="2"
     inkscape:zoom="0.7"
     inkscape:cx="1098.4866"
     inkscape:cy="1356.3699"
     inkscape:document-units="px"
     inkscape:current-layer="layer1"
     showgrid="false"
     fit-margin-top="0"
     fit-margin-left="0"
     fit-margin-right="0"
     fit-margin-bottom="0"
     inkscape:window-width="1366"
     inkscape:window-height="706"
     inkscape:window-x="-8"
     inkscape:window-y="-8"
     inkscape:window-maximized="1" />
  <metadata
     id="metadata3013">
    <rdf:RDF>
      <cc:Work
         rdf:about="">
        <dc:format>image/svg+xml</dc:format>
        <dc:type
           rdf:resource="http://purl.org/dc/dcmitype/StillImage" />
        <dc:title></dc:title>
      </cc:Work>
    </rdf:RDF>
  </metadata>
  <g
     inkscape:label="Layer 1"
     inkscape:groupmode="layer"
     id="layer1"
     transform="translate(1125,467.63782)">
    <image
       y="-467.63782"
       x="-1125"
       id="image3024"
       xlink:href="file:///J:/06/Gmnms.jpg"
       height="2000"
       width="3000" />
    <path
       style="fill:none;stroke:#000000;stroke-width:1px;stroke-linecap:butt;stroke-linejoin:miter;stroke-opacity:1"
       d="m 809.28572,438.57143 c 0,0 12.14285,-10 46.42857,-8.57143 34.28571,1.42857 175.00001,13.57143 175.00001,13.57143 L 1127.1429,440 c 0,0 5,-7.14286 57.8571,5 52.8571,12.14286 88.5714,6.42857 88.5714,6.42857 l 52.1429,-5 L 1474.2857,450 1495,432.85714 c 0,0 -2.8571,49.28572 -1.4286,79.28572 1.4286,30 -0.7143,77.85714 -0.7143,77.85714 0,0 -4.2857,136.42857 0,167.14286 4.2858,30.71428 -11.4285,184.28571 -8.5714,220 C 1487.1429,1012.8571 1472.1429,1150 1472.1429,1150 l -35.7143,-29.2857 -60.7143,40.7143 c 0,0 -50.7143,15 -95,-1.4286 l -223.5714,-5 c 0,0 -134.28576,-13.5714 -184.28576,-3.5714 0,0 -65,8.5714 -93.57142,-25.7143 0,0 -17.85715,11.4286 -48.57143,4.2857 0,0 13.57143,-130 30,-207.85714 0,0 7.85714,-146.42857 22.14285,-232.14286 0,0 6.42858,-188.57142 26.42858,-251.42857 z"
       id="area_1"
       inkscape:connector-curvature="0"
       transform="translate(-1125,-467.63782)"
       inkscape:label="#path3027" />
    <path
       style="fill:none;stroke:#000000;stroke-width:1px;stroke-linecap:butt;stroke-linejoin:miter;stroke-opacity:1"
       d="m 1554.2857,767.85714 c 0,0 36.4286,0.71429 50.7143,-4.28571 0,0 95.7143,11.42857 112.8571,5 0,0 151.4286,2.85714 154.2858,1.42857 2.8571,-1.42857 247.8571,11.42857 270,0 0,0 15,-11.42857 8.5714,-37.14286 L 2180,666.42857 c 0,0 -15,-67.14286 -40,-119.28571 l 18.5714,-22.85715 6.4286,-26.42857 -6.4286,-31.42857 -10.7143,-18.57143 -22.1428,19.28572 -105.7143,3.57142 -82.8571,-3.57142 -97.8572,10 L 1770,470 l -95,-1.42857 -70.7143,2.85714 -17.8571,7.14286 -8.5715,-0.71429 -11.4285,-10.71428 -3.5715,6.42857 -6.4285,-0.71429 3.5714,8.57143 10.7143,21.42857 3.5714,23.57143 c 0,0 -7.8571,33.57143 -9.2857,69.28571 0,0 1.4286,15.71429 -2.8571,26.42858 0,0 -16.4286,120.71428 -7.8572,145.71428 z"
       id="area_2"
       inkscape:connector-curvature="0"
       transform="translate(-1125,-467.63782)"
       inkscape:label="#path3029" />
    <path
       style="fill:none;stroke:#000000;stroke-width:1px;stroke-linecap:butt;stroke-linejoin:miter;stroke-opacity:1"
       d="m 1590.7143,847.14286 c 5.7143,0.71428 12.1428,0.71428 12.1428,0.71428 l 6.4286,-4.28571 c 0,0 116.4286,4.28571 144.2857,2.85714 27.8572,-1.42857 24.2857,-3.57143 24.2857,-3.57143 L 1890,854.28571 l 22.8571,-8.57143 174.2858,-2.14285 11.4285,4.28571 17.1429,-5 2.8571,233.57146 c 0,0 17.1429,50.7143 15,67.1428 l -29.2857,-5 c 0,0 -89.2857,-6.4285 -110,-14.2857 0,0 -239.2857,4.2857 -260,2.1429 l -30.7143,4.2857 c 0,0 -95,-10 -110.7143,-17.8572 z"
       id="area_3"
       inkscape:connector-curvature="0"
       transform="translate(-1125,-467.63782)"
       inkscape:label="#path3031" />
    <text
       xml:space="preserve"
       style="font-size:40px;font-style:normal;font-weight:normal;line-height:125%;letter-spacing:0px;word-spacing:0px;fill:#000000;fill-opacity:1;stroke:none;font-family:Sans"
       x="862.85712"
       y="361.42856"
       id="navigation"
       sodipodi:linespacing="125%"
       transform="translate(-1125,-467.63782)"
       inkscape:label="#text3033"><tspan
         sodipodi:role="line"
         id="tspan3035"
         x="862.85712"
         y="361.42856">1 2 3</tspan></text>
  </g>
</svg>
