<?xml version="1.0" encoding="UTF-8" standalone="no"?>
<!-- Created with Inkscape (http://www.inkscape.org/) -->

<svg
   xmlns:dc="http://purl.org/dc/elements/1.1/"
   xmlns:cc="http://creativecommons.org/ns#"
   xmlns:rdf="http://www.w3.org/1999/02/22-rdf-syntax-ns#"
   xmlns:svg="http://www.w3.org/2000/svg"
   xmlns="http://www.w3.org/2000/svg"
   xmlns:xlink="http://www.w3.org/1999/xlink"
   xmlns:sodipodi="http://sodipodi.sourceforge.net/DTD/sodipodi-0.dtd"
   xmlns:inkscape="http://www.inkscape.org/namespaces/inkscape"
   width="3000"
   height="2000"
   id="svg3037"
   version="1.1"
   inkscape:version="0.48.2 r9819"
   sodipodi:docname="New document 5">
  <defs
     id="defs3039" />
  <sodipodi:namedview
     id="base"
     pagecolor="#ffffff"
     bordercolor="#666666"
     borderopacity="1.0"
     inkscape:pageopacity="0.0"
     inkscape:pageshadow="2"
     inkscape:zoom="0.49497475"
     inkscape:cx="1475.6653"
     inkscape:cy="1150.9649"
     inkscape:document-units="px"
     inkscape:current-layer="layer1"
     showgrid="false"
     fit-margin-top="0"
     fit-margin-left="0"
     fit-margin-right="0"
     fit-margin-bottom="0"
     inkscape:window-width="1366"
     inkscape:window-height="706"
     inkscape:window-x="-8"
     inkscape:window-y="-8"
     inkscape:window-maximized="1" />
  <metadata
     id="metadata3042">
    <rdf:RDF>
      <cc:Work
         rdf:about="">
        <dc:format>image/svg+xml</dc:format>
        <dc:type
           rdf:resource="http://purl.org/dc/dcmitype/StillImage" />
        <dc:title></dc:title>
      </cc:Work>
    </rdf:RDF>
  </metadata>
  <g
     inkscape:label="Layer 1"
     inkscape:groupmode="layer"
     id="layer1"
     transform="translate(1125,467.63782)">
    <image
       y="-467.63782"
       x="-1125"
       id="image3053"
       xlink:href="file:///J:/06/Gmnst.jpg"
       height="2000"
       width="3000" />
    <path
       style="fill:none;stroke:#000000;stroke-width:1px;stroke-linecap:butt;stroke-linejoin:miter;stroke-opacity:1"
       d="m 563.16004,489.31687 c 0,0 16.66752,-8.08122 24.24367,-8.08122 0,0 34.85026,-10.6066 154.04826,-7.07107 0,0 22.22335,-11.61675 63.63961,-13.13198 l 101.01525,21.71828 c 0,0 148.99747,-48.9924 316.68287,-39.39595 l 6.5659,5.55584 26.7691,4.04061 c 0,0 1.0101,28.78934 -6.0609,44.44671 0,0 3.5355,22.72843 -3.0305,48.9924 0,0 -1.5152,85.86296 -10.6066,104.04571 0,0 0,42.93148 -5.5558,58.58885 0,0 -3.0305,187.88837 -24.7488,221.2234 l 21.7183,231.32495 c 0,0 -16.1624,-5.5559 -39.3959,6.566 l -6.0609,0.5051 -10.6066,9.0913 -15.1523,21.7183 c 0,0 -24.2437,7.5762 -41.4163,6.0609 -17.1726,-1.5152 -101.0152,-2.5254 -101.0152,-2.5254 l -340.42145,11.6168 -77.78175,7.0711 c 0,0 -77.78174,-24.2437 -80.8122,-28.2843 -3.03046,-4.0406 -5.05076,4.0406 -5.05076,4.0406 l -37.88072,3.5355 26.26396,-138.8959 -2.52538,-5.0508 9.59645,-11.6168 c 0,0 23.23351,-119.70303 20.70813,-130.81471 -2.52538,-11.11168 4.04061,-195.46452 13.13198,-228.79955 9.09137,-33.33504 9.09137,-82.83251 9.09137,-82.83251 0,0 5.05076,-27.27412 13.13199,-37.37564 8.08122,-10.10153 8.08122,-20.20306 8.08122,-20.20306 l -9.09138,-16.16244 z"
       id="area_1"
       inkscape:connector-curvature="0"
       transform="translate(-1125,-467.63782)"
       sodipodi:nodetypes="ccccccccccc"
       inkscape:label="#path3056" />
    <path
       style="fill:none;stroke:#000000;stroke-width:1px;stroke-linecap:butt;stroke-linejoin:miter;stroke-opacity:1"
       d="m 1304.1069,512.0453 c 0,0 208.0915,34.34519 229.3047,42.42641 l 15.1523,0 c 0,0 55.5583,-20.20305 140.4112,-24.24366 0,0 142.4315,-7.07107 154.5533,-12.12183 l 6.0609,83.84266 c 0,0 -18.1827,211.12188 -10.1015,241.42646 8.0812,30.30457 10.1015,279.81226 22.2233,304.05596 l -4.0406,29.2944 -98.9949,-21.2132 c 0,0 -122.2285,10.1015 -160.6143,2.0203 l -17.1726,-11.1117 -13.1319,-1.0102 -9.0914,-15.1522 c 0,0 -2.0203,-11.1117 -27.2741,-5.0508 l -31.3148,24.2437 -38.3858,15.1522 -70.7106,1.0102 c 0,0 -58.5889,-15.1523 -105.0559,1.0102 0,0 -3.0305,-24.2437 9.0914,-68.6904 l -4.0406,-5.0508 c 0,0 14.1421,-40.4061 12.1218,-76.7716 l 5.0507,-67.6802 -9.0913,-21.2132 c 0,0 6.0609,-64.64977 3.0304,-93.94419 -3.0304,-29.29442 -7.071,-125.25892 -7.071,-125.25892 0,0 -2.0204,-146.47212 9.0913,-195.96959 z"
       id="area_2"
       inkscape:connector-curvature="0"
       transform="translate(-1125,-467.63782)"
       inkscape:label="#path3058" />
    <path
       style="fill:none;stroke:#000000;stroke-width:1px;stroke-linecap:butt;stroke-linejoin:miter;stroke-opacity:1"
       d="m 1944.5436,665.58849 c 0,0 13.132,23.23351 68.6904,23.23351 55.5584,0 182.8376,14.14213 182.8376,14.14213 0,0 55.5584,-14.14213 150.5128,-4.04061 94.9543,10.10153 166.6751,-5.05076 166.6751,-5.05076 l 61.6193,348.50264 -73.7411,-3.0305 -70.7107,-12.1218 -190.9188,-4.0406 -29.2944,4.0406 -98.995,-4.0406 -54.5482,-6.0609 -24.2437,-3.0305 -28.2843,3.0305 -35.3553,-12.1219 -54.5482,-12.12179 -7.0711,-70.71068 -5.0508,-8.08122 -2.0203,-68.69037 0,-73.74114 c 0,0 12.1219,-82.8325 44.4467,-106.06601 z"
       id="area_3"
       inkscape:connector-curvature="0"
       transform="translate(-1125,-467.63782)"
       inkscape:label="#path3060" />
    <text
       xml:space="preserve"
       style="font-size:40px;font-style:normal;font-weight:normal;line-height:125%;letter-spacing:0px;word-spacing:0px;fill:#000000;fill-opacity:1;stroke:none;font-family:Sans"
       x="1084.9038"
       y="345.37012"
       id="navigation"
       sodipodi:linespacing="125%"
       transform="translate(-1125,-467.63782)"
       inkscape:label="#text3062"><tspan
         sodipodi:role="line"
         id="tspan3064"
         x="1084.9038"
         y="345.37012">1 2 3</tspan></text>
  </g>
</svg>
