<?xml version="1.0" encoding="UTF-8" standalone="no"?>
<!-- Created with Inkscape (http://www.inkscape.org/) -->

<svg
   xmlns:dc="http://purl.org/dc/elements/1.1/"
   xmlns:cc="http://creativecommons.org/ns#"
   xmlns:rdf="http://www.w3.org/1999/02/22-rdf-syntax-ns#"
   xmlns:svg="http://www.w3.org/2000/svg"
   xmlns="http://www.w3.org/2000/svg"
   xmlns:xlink="http://www.w3.org/1999/xlink"
   xmlns:sodipodi="http://sodipodi.sourceforge.net/DTD/sodipodi-0.dtd"
   xmlns:inkscape="http://www.inkscape.org/namespaces/inkscape"
   width="1828.7999"
   height="1219.2"
   viewBox="0 0 6479.9998 4319.9998"
   id="svg2"
   version="1.1"
   inkscape:version="0.91 r13725"
   sodipodi:docname="Gmuffscone.svg">
  <defs
     id="defs4" />
  <sodipodi:namedview
     id="base"
     pagecolor="#ffffff"
     bordercolor="#666666"
     borderopacity="1.0"
     inkscape:pageopacity="0.0"
     inkscape:pageshadow="2"
     inkscape:zoom="0.49497475"
     inkscape:cx="234.39849"
     inkscape:cy="683.82115"
     inkscape:document-units="px"
     inkscape:current-layer="svg2"
     showgrid="false"
     fit-margin-top="0"
     fit-margin-left="0"
     fit-margin-right="0"
     fit-margin-bottom="0"
     inkscape:window-width="1918"
     inkscape:window-height="1026"
     inkscape:window-x="0"
     inkscape:window-y="0"
     inkscape:window-maximized="1"
     showguides="false" />
  <metadata
     id="metadata7">
    <rdf:RDF>
      <cc:Work
         rdf:about="">
        <dc:format>image/svg+xml</dc:format>
        <dc:type
           rdf:resource="http://purl.org/dc/dcmitype/StillImage" />
        <dc:title></dc:title>
      </cc:Work>
    </rdf:RDF>
  </metadata>
  <image
     width="6480"
     height="4320"
     preserveAspectRatio="none"
     xlink:href="file:///home/ivan/Projects/Intake24/New%20Zealand%20Images/Muffins%20and%20scones.JPG"
     id="image4249"
     x="0.00010839844"
     y="-5.4101565e-06"
     sodipodi:absref="/home/ivan/Projects/Intake24/New Zealand Images/Muffins and scones.JPG" />
  <path
     inkscape:label="#path4252"
     sodipodi:nodetypes="cccccccccccccccccccccccccccccccccccccccccccccccc"
     inkscape:connector-curvature="0"
     id="area_1"
     d="m 1157.5492,707.39694 -57.9972,89.01598 -8.0812,60.60915 -20.203,10.10153 12.1218,40.4061 -7.1218,7.95866 104.1175,333.71804 92.913,100.7702 119.198,46.467 125.2589,6.0609 2.0203,-56.5686 14.1421,-14.1421 16.1625,-36.3655 36.3655,-26.2639 13.637,-24.7488 69.1955,-37.8807 -0.5051,-23.2336 71.7208,-15.1522 47.9823,-14.1421 31.3147,16.1624 23.2335,-127.2792 -10.1015,-34.3452 8.0812,-58.58889 32.3249,-46.46702 4.0406,-60.60915 -6.0609,-6.06092 4.0406,-24.24366 -24.2437,-6.06092 4.0407,-30.30457 -32.3249,6.06091 2.0203,-36.36549 -22.2234,10.10153 -8.0812,-28.28427 -10.1015,6.06091 -30.3046,-34.34519 -125.2589,-58.58884 -52.528,-24.24366 -80.8122,-18.18275 -39.7416,-11.00748 -43.0909,-1.11435 -22.9376,8.5504 -47.0447,10.95458 -22.9517,11.28981 -10.469,-5.72785 -19.8356,11.29855 -53.9354,21.38652 -45.1016,31.16244 z"
     style="fill:none;fill-rule:evenodd;stroke:#000000;stroke-width:1px;stroke-linecap:butt;stroke-linejoin:miter;stroke-opacity:1" />
  <path
     inkscape:label="#path4254"
     inkscape:connector-curvature="0"
     id="area_2"
     d="m 2067.2782,753.98651 -60.6092,24.24366 -36.3655,53.53809 -78.7919,53.53808 -17.1725,17.17259 -33.3351,50.50763 -9.0914,58.58884 80.8122,188.8986 30.3046,19.1929 34.3452,27.2741 16.1625,11.1117 5.0507,11.1116 13.132,3.0305 26.264,42.4264 11.1116,35.3554 -2.0203,31.3147 93.9442,21.2132 92.9341,-2.0203 58.5888,-16.1625 5.0508,-9.0913 34.3452,-6.0609 94.9543,-70.7107 25.2538,-53.5381 11.1117,-260.61941 4.0406,-33.33503 -2.0203,-5.55584 -4.5457,-33.84011 -11.1117,-23.23351 -19.6979,-28.78935 -23.7386,-32.32488 -19.1929,-15.65737 -3.0305,-7.57614 -38.3858,-16.16244 -52.5279,-6.06092 -21.2132,-5.55584 -78.2868,2.02031 -21.7183,-4.54569 -23.7386,-14.64721 -39.901,-8.08122 z"
     style="fill:none;fill-rule:evenodd;stroke:#000000;stroke-width:1px;stroke-linecap:butt;stroke-linejoin:miter;stroke-opacity:1" />
  <path
     inkscape:label="#path4275"
     sodipodi:nodetypes="ccccccccccccccccccccccccccccccc"
     inkscape:connector-curvature="0"
     id="area_3"
     d="m 1786.4444,1154.9686 -117.8571,27.8572 0.7143,22.8571 -70,38.5714 -12.8572,27.1429 -36.4285,24.2857 -15.7143,35 -15.7143,15 -0.7143,55 18.5714,58.5714 32.8571,21.7857 29.2858,67.5 44.9319,44.8833 53.033,31.8198 66.6701,10.6066 104.5508,-9.5964 48.9924,-18.1828 48.9924,-97.4797 11.6167,-7.5761 12.6269,-36.8706 40.9112,-30.3046 18.1827,-66.67 -0.5081,-22.058 -36.4286,-77.1429 -15.7143,-2.8571 -3.5714,-10.7143 -82.1428,-59.2857 -47.8572,-18.5715 -22.1428,-5.7142 -24.2858,-2.1429 z"
     style="fill:none;fill-rule:evenodd;stroke:#000000;stroke-width:1px;stroke-linecap:butt;stroke-linejoin:miter;stroke-opacity:1" />
  <path
     inkscape:label="#path4277"
     sodipodi:nodetypes="ccccccccccccccccccccccccccccccccccccccccccccccc"
     inkscape:connector-curvature="0"
     id="area_4"
     d="m 1102.873,1992.8258 -22.8571,8.5714 -78.5715,77.1428 -38.57139,41.4286 -28.21428,46.0714 -51.78572,131.0715 21.42858,104.2857 94.28571,105.7143 52.8571,40 65.7143,122.8571 64.2857,-20 14.2858,-27.1428 50,7.1428 40,-17.1428 35.7142,14.2857 60,-4.2857 15.7143,-20 148.5715,15.7142 34.6323,50.3615 66.826,20.822 62.8274,14.5308 30,41.4286 62.6838,-54.4591 102.367,-303.939 43.5206,-33.0305 17.1429,-55.7143 5.0784,-26.7993 -15.6573,-95.4594 -12.1219,-14.1421 -7.071,-39.396 -30.3046,-27.2741 -25.2538,-37.3756 -19.1929,-7.0711 -64.6498,-64.6497 -70.7107,-39.396 -14.1421,-14.1421 -58.5889,-23.2335 -16.1624,0 -58.5888,-20.2031 -86.8732,-7.0711 -65.6599,-3.0304 -38.3858,11.1117 -73.7411,8.0812 -23.2335,3.0304 -121.2183,52.528 -18.1828,-5.0508 z"
     style="fill:none;fill-rule:evenodd;stroke:#000000;stroke-width:1px;stroke-linecap:butt;stroke-linejoin:miter;stroke-opacity:1" />
  <path
     inkscape:label="#path4279"
     inkscape:connector-curvature="0"
     id="area_5"
     d="m 1182.873,2649.9686 -80.7143,16.4286 -45,79.2857 -97.14283,88.5714 -17.14285,2.1429 -22.85715,26.4286 0.71429,22.8571 -62.09949,18.9184 2.0203,16.6675 -16.66751,16.6676 17.17259,21.2132 -1.01015,24.7487 -8.5863,74.2462 14.17056,32.5384 65.71428,40.7143 69.99996,30 64.2858,21.4286 95,-10.7143 9.2857,93.5714 61.4285,72.8571 102.8572,27.1429 130,-7.1429 111.4286,-47.1428 35.7142,-34.2857 7.1429,-51.4286 85,-69.2857 17.8571,-30 87.1429,-42.8572 31.4286,-68.5714 35.7143,-96.4286 -19.5739,-77.5783 -72.731,-64.6498 -49.4975,-29.2944 -29.2944,-44.4467 -127.2792,-35.3553 -35.3553,-47.4772 -147.3402,-17.984 -15.3571,21.4286 -61.4286,3.9286 -33.5714,-12.8572 -38.9286,16.4286 -49.2857,-8.2143 z"
     style="fill:none;fill-rule:evenodd;stroke:#000000;stroke-width:1px;stroke-linecap:butt;stroke-linejoin:miter;stroke-opacity:1" />
  <path
     inkscape:label="#path4281"
     sodipodi:nodetypes="cccccccccccccccccccccccccccccccccccccccccccccccccc"
     inkscape:connector-curvature="0"
     id="area_6"
     d="m 3951.4444,997.11146 4.2858,32.85714 -87.1429,122.8572 -55.7143,38.5714 -14.2857,64.2857 12.8571,25.7143 -4.2857,44.2857 -10,10 15.7143,44.2857 44.2857,54.2857 20,-2.8571 4.2857,31.4286 40,27.1428 18.5715,47.1429 76.4285,30.7143 102.8572,36.4285 93.5714,-7.1428 270.7143,31.4285 75,-34.2857 50,-55.7143 44.2857,-24.2857 21.4286,-28.5714 -17.1429,-22.8571 30,-24.2858 -28.5714,-35.7142 42.8571,-35.7143 12.8572,-51.4286 55.7143,-78.5714 -8.5715,-90 -0.089,-39.5716 -44.9518,-31.3147 0.5051,-19.698 -25.2538,-13.637 -13.132,-22.2234 -65.6599,-29.29444 -40.4061,-60.60915 -56.5685,-30.30458 -15.1523,3.03046 -75.7615,-38.3858 -76.7716,-25.25381 -70.7106,-3.03046 -77.7818,22.22336 -3.0304,15.15228 -38.3858,6.566 -23.2336,24.74873 -40.4061,16.16244 -25.7588,26.26397 -28.7894,-3.03046 -57.5903,16.14503 z"
     style="fill:none;fill-rule:evenodd;stroke:#000000;stroke-width:1px;stroke-linecap:butt;stroke-linejoin:miter;stroke-opacity:1" />
  <path
     inkscape:label="#path4283"
     sodipodi:nodetypes="cccccccccccccccccccccccccccccccccccccccccccc"
     inkscape:connector-curvature="0"
     id="area_7"
     d="m 4771.4566,1237.8496 -57.5787,79.8021 -9.7445,52.0482 -44.8038,32.8046 26.264,38.3858 -26.264,22.2233 17.1726,23.2335 -30.3046,53.5381 -15.1523,4.0406 -8.0812,62.6295 -41.4162,13.132 -24.2437,34.3452 55.0533,10.6066 85.358,41.4162 39.9009,31.8198 67.6803,10.6066 95.4594,37.3756 20.203,17.6777 143.4417,0 59.599,-40.4061 107.0762,-26.2639 148.4924,-106.066 -5.0508,-61.6193 0,-52.528 27.2741,-4.0406 -1.0101,-26.264 -20.2031,-15.1522 -16.1624,2.0203 36.3655,-36.3655 -1.0102,-37.3757 -9.0913,-7.071 -10.1016,-44.4468 -21.2132,-33.335 -96.9746,-81.8223 2.0203,-20.2031 -23.2335,-28.2843 -75.7615,-25.2538 -83.8426,-43.4365 -53.5381,-2.0203 -110.1066,21.2132 -60.6092,18.1827 -7.0711,18.1828 -52.5279,22.2233 z"
     style="fill:none;fill-rule:evenodd;stroke:#000000;stroke-width:1px;stroke-linecap:butt;stroke-linejoin:miter;stroke-opacity:1" />
  <path
     inkscape:label="#path4285"
     sodipodi:nodetypes="cccccccccccccccccccccccccccccccccccccccccccccccccccccccccccc"
     inkscape:connector-curvature="0"
     id="area_8"
     d="m 4425.7302,2215.6829 -20,17.1429 -42.8572,-8.5715 -32.8571,25.7143 -40,4.2857 -14.0258,24.9492 -82.6987,0.4334 -37.1429,66.2911 -33.2755,34.0406 7.1429,25.7143 -15.7143,22.8571 -40,5.7143 -32.8572,28.5715 -8.5714,38.5714 7.1429,62.8571 24.2857,68.5715 62.8571,62.8571 44.1842,32.4684 35.8158,30.3887 1.4286,60 41.4286,31.4286 79.6534,127.8212 109.48,49.3934 79.5965,39.7549 13.9539,-12.2654 135.8876,51.0102 131.4286,-24.2857 40,-48.5714 34.2857,-11.4286 4.2857,-27.1429 24.2857,-17.1428 27.1429,-67.1429 72.8571,-44.2857 140,-46.4286 0,-36.4285 11.4286,-32.8572 -7.1429,-61.4286 -8.5714,-31.4285 -17.1429,-42.8572 -8.5714,-45.7143 -24.2857,-38.5714 8.5714,-38.5714 27.1429,-11.4286 -44.2857,-108.5714 -85.7143,-14.2857 -21.4286,-27.1429 -51.4286,-15.7143 -2.8571,-41.4285 -54.2857,-48.5715 -6.0715,-21.0714 -81.4285,-56.7857 -26.7857,2.1428 -37.1429,-25.7142 -37.1428,7.1428 -37.1429,-7.1428 -42.8571,40 -66.4224,1.7603 -50.7205,19.6682 -15.7143,22.8572 z"
     style="fill:none;fill-rule:evenodd;stroke:#000000;stroke-width:1px;stroke-linecap:butt;stroke-linejoin:miter;stroke-opacity:1" />
  <path
     inkscape:label="#path4287"
     sodipodi:nodetypes="ccccccccccccccccccccccccccccccccccccccc"
     inkscape:connector-curvature="0"
     id="area_9"
     d="m 5141.4444,2821.3972 -141.4285,44.2857 -74.2857,44.2857 -22.8572,67.1429 -31.4286,20 2.8572,30 2.8571,27.1428 -21.4285,15.7143 12.8571,55.7143 -51.4286,65.7143 44.2857,48.5714 31.4286,51.4286 52.8572,117.1428 50,15.7143 73.9391,67.2444 74.6323,37.0413 87.1428,25.7143 23.2038,-10.4902 46.7962,17.6331 34.8775,-23.5206 95.9891,-3.6223 126.2763,-24.2857 99.1632,-53.5206 102.2654,-20.7651 72.8571,-31.4286 57.1429,-68.5714 81.1117,-96.1624 -62.1937,-145.9297 -26.0609,-48.3981 -32.8571,-33.7955 -71.4286,-95.7143 -35.7143,-4.2857 -44.2857,-58.5714 -74.2857,-25.7143 -105,-74.2858 -149.2857,-21.4286 -103.5715,28.5715 -56.4285,12.8572 z"
     style="fill:none;fill-rule:evenodd;stroke:#000000;stroke-width:1px;stroke-linecap:butt;stroke-linejoin:miter;stroke-opacity:1" />
  <text
     inkscape:label="#text4289"
     sodipodi:linespacing="125%"
     id="navigation"
     y="277.19449"
     x="2788.5271"
     style="font-style:normal;font-weight:normal;font-size:40px;line-height:125%;font-family:sans-serif;text-align:end;letter-spacing:0px;word-spacing:0px;text-anchor:end;fill:#000000;fill-opacity:1;stroke:none;stroke-width:1px;stroke-linecap:butt;stroke-linejoin:miter;stroke-opacity:1"
     xml:space="preserve"><tspan
       style="font-size:90px"
       y="277.19449"
       x="2788.5271"
       id="tspan4291"
       sodipodi:role="line">1 2 3 4 5 6 7 8 9</tspan></text>
</svg>
