<?xml version="1.0" encoding="UTF-8" standalone="no"?>
<!-- Created with Inkscape (http://www.inkscape.org/) -->

<svg
   xmlns:dc="http://purl.org/dc/elements/1.1/"
   xmlns:cc="http://creativecommons.org/ns#"
   xmlns:rdf="http://www.w3.org/1999/02/22-rdf-syntax-ns#"
   xmlns:svg="http://www.w3.org/2000/svg"
   xmlns="http://www.w3.org/2000/svg"
   xmlns:xlink="http://www.w3.org/1999/xlink"
   xmlns:sodipodi="http://sodipodi.sourceforge.net/DTD/sodipodi-0.dtd"
   xmlns:inkscape="http://www.inkscape.org/namespaces/inkscape"
   width="780"
   height="520"
   id="svg3066"
   version="1.1"
   inkscape:version="0.48.2 r9819"
   sodipodi:docname="New document 7">
  <defs
     id="defs3068" />
  <sodipodi:namedview
     id="base"
     pagecolor="#ffffff"
     bordercolor="#666666"
     borderopacity="1.0"
     inkscape:pageopacity="0.0"
     inkscape:pageshadow="2"
     inkscape:zoom="0.7"
     inkscape:cx="546.98272"
     inkscape:cy="290.79714"
     inkscape:document-units="px"
     inkscape:current-layer="layer1"
     showgrid="false"
     fit-margin-top="0"
     fit-margin-left="0"
     fit-margin-right="0"
     fit-margin-bottom="0"
     inkscape:window-width="1366"
     inkscape:window-height="706"
     inkscape:window-x="-8"
     inkscape:window-y="-8"
     inkscape:window-maximized="1" />
  <metadata
     id="metadata3071">
    <rdf:RDF>
      <cc:Work
         rdf:about="">
        <dc:format>image/svg+xml</dc:format>
        <dc:type
           rdf:resource="http://purl.org/dc/dcmitype/StillImage" />
        <dc:title></dc:title>
      </cc:Work>
    </rdf:RDF>
  </metadata>
  <g
     inkscape:label="Layer 1"
     inkscape:groupmode="layer"
     id="layer1"
     transform="translate(15,-272.36218)">
    <image
       y="272.36218"
       x="-15"
       id="image3082"
       xlink:href="file:///J:/06/Gmug.jpg"
       height="520"
       width="780" />
    <path
       style="fill:none;stroke:#000000;stroke-width:1px;stroke-linecap:butt;stroke-linejoin:miter;stroke-opacity:1"
       d="m 242.14286,96.071428 c 0,0 42.14285,-20 49.64285,13.928572 7.5,33.92857 -22.5,65.35714 -27.14285,70.35714 -4.64286,5 -23.21429,18.57143 -30.35715,18.21429 l -0.71428,11.07143 c 0,0 -24.28572,43.57143 -75,11.07143 0,0 -3.57143,-3.57143 -5.71429,-8.57143 -2.14285,-5 -36.78571,-128.214289 -36.78571,-128.214289 0,0 5,-39.285715 64.64286,-40 59.64285,-0.714286 62.85714,32.857143 62.85714,32.857143 0,0 1.07143,13.571428 -1.42857,19.285714 z"
       id="area_1"
       inkscape:connector-curvature="0"
       transform="translate(-15,272.36218)"
       inkscape:label="#path3085" />
    <path
       style="fill:none;stroke:#000000;stroke-width:1px;stroke-linecap:butt;stroke-linejoin:miter;stroke-opacity:1"
       d="m 337.85714,93.214285 c 0,0 5,-31.428571 50,-30.714286 45,0.714286 51.78572,27.5 51.78572,27.5 0,0 2.85714,5.357143 0.71428,10.714291 0,0 37.85715,-17.500005 40.35715,19.28571 2.5,36.78571 -24.28572,44.64286 -24.28572,44.64286 0,0 -13.21428,9.28571 -14.28571,13.57143 -1.07143,4.28571 -5,6.78571 -7.14286,5.35714 l 0,22.85714 c 0,0 -35,50.71429 -89.64286,3.57143 z"
       id="area_2"
       inkscape:connector-curvature="0"
       transform="translate(-15,272.36218)"
       inkscape:label="#path3087" />
    <path
       style="fill:none;stroke:#000000;stroke-width:1px;stroke-linecap:butt;stroke-linejoin:miter;stroke-opacity:1"
       d="m 513.92857,196.07143 1.42857,-98.214288 c 0,0 6.78572,-32.5 59.64286,-26.428571 0,0 51.07143,5.357143 51.42857,36.428569 0,0 32.5,-14.642855 38.92857,12.5 C 671.78572,147.5 635.71429,167.5 635.71429,167.5 l -16.42857,10.71429 c 0,0 0,9.28571 -5,10.35714 0,0 -9.28572,35.35714 -50.35715,34.64286 -41.07143,-0.71429 -50,-27.14286 -50,-27.14286 z"
       id="area_3"
       inkscape:connector-curvature="0"
       transform="translate(-15,272.36218)"
       inkscape:label="#path3089" />
    <path
       style="fill:none;stroke:#000000;stroke-width:1px;stroke-linecap:butt;stroke-linejoin:miter;stroke-opacity:1"
       d="m 56.071429,306.07143 c 0,0 -0.357143,-35.71429 65.000001,-50.35714 65.35714,-14.64286 85,40.35714 85,40.35714 0,0 3.92857,7.14286 2.14286,13.21428 l 45.35714,2.85715 c 0,0 8.21428,51.42857 -18.21429,68.21428 C 208.92857,397.14286 194.64286,392.5 194.64286,392.5 c 0,0 -14.28572,31.42857 -48.92857,33.21429 -34.64286,1.78571 -59.642861,-25.35715 -59.642861,-25.35715 0,0 -27.142857,-34.28571 -30,-94.28571 z"
       id="area_6"
       inkscape:connector-curvature="0"
       transform="translate(-15,272.36218)"
       inkscape:label="#path3091" />
    <path
       style="fill:none;stroke:#000000;stroke-width:1px;stroke-linecap:butt;stroke-linejoin:miter;stroke-opacity:1"
       d="m 320.35714,311.07143 c 0,0 18.21429,-42.14286 70.71429,-40.71429 52.5,1.42857 66.42857,42.85715 66.42857,42.85715 0,0 3.21429,10.35714 1.78572,15.35714 0,0 24.64285,-11.07143 33.57142,7.85714 C 501.78572,355.35714 477.5,370 477.5,370 c 0,0 -22.85714,8.21429 -31.07143,7.85714 0,0 -25,36.07143 -59.28571,32.85715 -34.28572,-3.21429 -53.21429,-28.92858 -53.21429,-28.92858 0,0 -19.64286,-30.71428 -13.57143,-70.71428 z"
       id="area_5"
       inkscape:connector-curvature="0"
       transform="translate(-15,272.36218)"
       inkscape:label="#path3093" />
    <path
       style="fill:none;stroke:#000000;stroke-width:1px;stroke-linecap:butt;stroke-linejoin:miter;stroke-opacity:1"
       d="m 539.28572,379.64286 c 0,-1.78572 0.71428,-73.57143 0.71428,-73.57143 0,0 15,-38.92857 67.14286,-30.71429 52.14286,8.21429 61.78571,35.71429 61.42857,43.92857 0,0 20.35714,-4.64285 29.64286,2.5 9.28571,7.14286 6.42857,20.71429 5.35714,23.92858 -1.07143,3.21428 -17.5,14.64285 -25.35714,16.42857 l -19.28572,8.57143 -5.71428,20.71428 c 0,0 -15.35715,26.78572 -57.5,24.28572 -42.14286,-2.5 -56.42857,-36.07143 -56.42857,-36.07143 z"
       id="area_4"
       inkscape:connector-curvature="0"
       transform="translate(-15,272.36218)"
       inkscape:label="#path3095" />
    <text
       xml:space="preserve"
       style="font-size:40px;font-style:normal;font-weight:normal;line-height:125%;letter-spacing:0px;word-spacing:0px;fill:#000000;fill-opacity:1;stroke:none;font-family:Sans"
       x="288.57144"
       y="18.571428"
       id="navigation"
       sodipodi:linespacing="125%"
       transform="translate(-15,272.36218)"
       inkscape:label="#text3097"><tspan
         sodipodi:role="line"
         id="tspan3099"
         x="288.57144"
         y="18.571428">1 2 3 6 5 4</tspan></text>
  </g>
</svg>
