<?xml version="1.0" encoding="UTF-8" standalone="no"?>
<!-- Created with Inkscape (http://www.inkscape.org/) -->

<svg
   xmlns:dc="http://purl.org/dc/elements/1.1/"
   xmlns:cc="http://creativecommons.org/ns#"
   xmlns:rdf="http://www.w3.org/1999/02/22-rdf-syntax-ns#"
   xmlns:svg="http://www.w3.org/2000/svg"
   xmlns="http://www.w3.org/2000/svg"
   xmlns:xlink="http://www.w3.org/1999/xlink"
   xmlns:sodipodi="http://sodipodi.sourceforge.net/DTD/sodipodi-0.dtd"
   xmlns:inkscape="http://www.inkscape.org/namespaces/inkscape"
   width="1828.7999"
   height="1219.2"
   viewBox="0 0 6479.9998 4319.9998"
   id="svg4293"
   version="1.1"
   inkscape:version="0.91 r13725"
   sodipodi:docname="GMusselpipi.svg">
  <defs
     id="defs4295" />
  <sodipodi:namedview
     id="base"
     pagecolor="#ffffff"
     bordercolor="#666666"
     borderopacity="1.0"
     inkscape:pageopacity="0.0"
     inkscape:pageshadow="2"
     inkscape:zoom="0.24748738"
     inkscape:cx="1152.2285"
     inkscape:cy="797.35768"
     inkscape:document-units="px"
     inkscape:current-layer="layer1"
     showgrid="false"
     fit-margin-top="0"
     fit-margin-left="0"
     fit-margin-right="0"
     fit-margin-bottom="0"
     inkscape:window-width="1918"
     inkscape:window-height="1026"
     inkscape:window-x="0"
     inkscape:window-y="0"
     inkscape:window-maximized="1" />
  <metadata
     id="metadata4298">
    <rdf:RDF>
      <cc:Work
         rdf:about="">
        <dc:format>image/svg+xml</dc:format>
        <dc:type
           rdf:resource="http://purl.org/dc/dcmitype/StillImage" />
        <dc:title></dc:title>
      </cc:Work>
    </rdf:RDF>
  </metadata>
  <g
     inkscape:label="Layer 1"
     inkscape:groupmode="layer"
     id="layer1"
     transform="translate(2428.5711,933.35205)">
    <image
       sodipodi:absref="/home/ivan/Projects/Intake24/New Zealand Images/Mussels and Pipis.JPG"
       y="-933.35205"
       x="-2428.5713"
       id="image4903"
       xlink:href="file:///home/ivan/Projects/Intake24/New%20Zealand%20Images/Mussels%20and%20Pipis.JPG"
       preserveAspectRatio="none"
       height="4320"
       width="6480" />
    <path
       style="fill:none;fill-rule:evenodd;stroke:#000000;stroke-width:1px;stroke-linecap:butt;stroke-linejoin:miter;stroke-opacity:1"
       d="m -1230.5917,456.2295 c 5.7143,1.4286 132.6838,-27.7346 132.6838,-27.7346 l 120.27492,-3.62217 131.91878,-13.93908 98.5714,10 68.21788,41.67656 148.56342,66.49708 224.6473,30.39776 48.5714,-5.7142 57.8572,5.7142 7.8571,11.4286 42.8571,6.4286 11.4286,7.1428 89.877505,-13.98985 38.5714001,37.47462 21.1326479,31.93368 -11.010153,43.15305 -8.7298614,11.27014 9.5247174,18.10219 -22.077241,25.77996 -36.601857,6.68231 -65.336118,-19.6625 -56.61246,13.58679 -94.71802,-1.09599 -83.1478,-2.7354 -35.00617,-3.89704 -55.38248,-0.29585 -48.72827,-15.37123 -86.93501,-35.57477 -143.89385,-8.64428 -82.90743,34.64123 -88.85634,23.64294 -163.85881,-8.18452 -143.4082,-13.51886 -72.8345,-22.16387 -43.3474,-46.13275 -12.8571,-54.2857 39.5097,-83.96878 z"
       id="area_1"
       inkscape:connector-curvature="0"
       sodipodi:nodetypes="ccccccccccccccccccccccccccccccccccccccc"
       inkscape:label="#path4906" />
    <path
       style="fill:none;fill-rule:evenodd;stroke:#000000;stroke-width:1px;stroke-linecap:butt;stroke-linejoin:miter;stroke-opacity:1"
       d="m -1185.7142,715.21935 -103.5714,30.7143 -30,22.1429 -12.8572,88.5714 33.5714,60 41.4286,25.7143 55,37.1428 49.2857,24.28585 101.4286,16.4285 102.14286,-11.4286 87.85714,-22.85715 63.4167,-19.6112 144.03333,1.39883 142.84997,42.03782 56.5685,14.1421 53.5381,-7.0711 66.6701,5.0508 65.6599,-12.1218 31.3147,-9.0914 27.2741,9.0914 42.4265,-14.14225 1.14319,-12.77486 19.99815,-15.50934 -0.93834,-14.1422 17.1726,-30.3046 -5.0508,-26.2639 -25.2538,-19.1929 -34.3452,-8.0812 -71.7208,6.0609 -54.5482,-3.0305 -140.4112,5.0508 -18.1828,-7.0711 -13.132,15.1523 -15.1523,12.1218 -129.401,-19.33641 -150.4112,-44.30319 -11.07047,-34.34221 -28.46904,-36.4613 -38.41555,-22.84478 -77.60844,-14.43801 z"
       id="area_2"
       inkscape:connector-curvature="0"
       sodipodi:nodetypes="ccccccccccccccccccccccccccccccccccccccccc"
       inkscape:label="#path4908" />
    <path
       style="fill:none;fill-rule:evenodd;stroke:#000000;stroke-width:1px;stroke-linecap:butt;stroke-linejoin:miter;stroke-opacity:1"
       d="m -1181.4285,1072.3623 c -5.7143,0 -77.1429,1.4286 -77.1429,1.4286 l -75.7142,27.1428 -18.2143,47.5 -10,13.2143 4.6428,17.1429 -17.8571,22.1428 6.4286,22.1429 1.4285,35.7143 24.2857,23.5714 103.5715,17.8571 62.1428,11.4286 86.4286,14.2857 117.1429,-19.2857 102.8571,-24.2857 26.4286,-25 157.85709,4.9999 128.57141,28.5715 10.5723,21.366 35.3554,12.1219 55.5584,-10.6066 103.0355,-7.5762 41.9213,1.0102 73.7412,-18.1828 -2.31621,-33.7429 1.30601,-10.1987 -17.6776,-18.1827 -3.22916,-8.02 -5.81154,-7.872 -14.6979,-3.3009 -14.1422,-17.1726 -15.6573,-5.0508 -6.566,-11.1117 -22.7285,-5.5558 -36.3654,6.566 -64.1447,-7.0711 -25.2538,18.6878 -16.6676,-4.5457 -33.335,0 -21.2132,9.5965 -10.1015,-3.5355 -125.44713,-8.3263 -201.33727,-52.2829 -9.5964,-21.7183 -35.8604,-26.769 -71.2158,-11.1117 -80.3071,-2.0203 z"
       id="area_3"
       inkscape:connector-curvature="0"
       sodipodi:nodetypes="cccccccccccccccccccccccccccccccccccccccccccccccc"
       inkscape:label="#path4929" />
    <path
       style="fill:none;fill-rule:evenodd;stroke:#000000;stroke-width:1px;stroke-linecap:butt;stroke-linejoin:miter;stroke-opacity:1"
       d="m 1146.5318,1055.2159 74.7513,-2.0203 171.7259,44.4467 191.929,36.3655 195.9696,36.3655 129.2995,72.7309 115.1574,64.6499 206.0711,50.5076 98.995,-14.1422 127.2792,6.0609 80.8617,18.6104 70,22.1429 c 0,0 62.8571,2.8571 66.4286,4.2856 3.5714,1.4287 47.1428,-8.5713 47.1428,-8.5713 l 37.8572,7.8571 47.1428,35 24.2857,51.4286 -7.8571,58.5714 -37.8571,52.1429 -67.1429,30 -89.2857,20.7143 -108.5714,3.5714 -67.1429,1.4286 -62.1429,6.4286 -70,-28.5715 -53.5714,-42.1428 -211.8773,-77.6063 -147.5961,-14.944 -126.2409,3.2646 -86.4285,-25.7143 -134.2858,-25.7143 -130,-25 -142.1428,-33.5714 -124.2857,-24.2857 -67.1429,15.7143 -57.1428,42.8571 -48.5715,-63.5715 -19.28567,-79.2857 11.42857,-79.2857 33.5714,-48.5714 32.8572,-24.2857 38.3323,-40.9261 z"
       id="area_4"
       inkscape:connector-curvature="0"
       sodipodi:nodetypes="ccccccccccccccccccccccccccccccccccccccccccc"
       inkscape:label="#path4933" />
    <path
       style="fill:none;fill-rule:evenodd;stroke:#000000;stroke-width:1px;stroke-linecap:butt;stroke-linejoin:miter;stroke-opacity:1"
       d="m 1449.5776,1421.9012 -86.8731,-22.2233 -96.9747,-20.203 -100.0051,-19.1929 -77.7817,18.1826 -72.731,59.5991 -50.5076,70.7106 -10.10155,70.7107 11.11165,62.6295 29.2944,52.5279 53.5381,50.5076 95.9645,52.5279 29.2944,14.1422 56.5686,-23.2335 105.0558,-9.0914 135.3605,-11.1117 127.2792,-3.0304 152.533,1.0101 81.8224,8.0813 56.5389,4.5011 101.2428,36.2465 191.731,91.5823 64.6498,16.1625 104.0457,-1.0102 87.8833,2.0203 124.2488,39.396 152.533,15.1523 85.863,-17.1726 91.9239,-51.5179 15.1523,-52.5279 -3.0305,-57.5786 -31.3147,-55.5584 -54.5483,-35.3554 -123.2385,-26.2639 -92.9341,-16.1625 -87.8832,-7.0711 -63.6397,-16.1624 -125.2589,23.2335 -174.7564,10.1015 -162.6346,-54.5482 -68.6903,-48.4873 -125.259,-73.7412 -113.1371,-36.3655 -134.3502,-25.2537 z"
       id="area_5"
       inkscape:connector-curvature="0"
       sodipodi:nodetypes="ccccccccccccccccccccccccccccccccccccccccccccc"
       inkscape:label="#path4935" />
    <path
       style="fill:none;fill-rule:evenodd;stroke:#000000;stroke-width:1px;stroke-linecap:butt;stroke-linejoin:miter;stroke-opacity:1"
       d="m 1168.5715,1810.9337 -62.8571,72.8571 -15.7143,88.5714 28.5714,91.4286 72.8571,67.1429 45.7143,21.4286 87.1429,-17.1429 144.2857,-22.8571 154.2857,-2.8572 170,22.8572 131.4286,-25.7143 130,2.8571 165.7143,22.8572 134.2857,35.7143 128.5714,42.8571 152.8572,11.4286 168.5714,-12.8571 62.8572,-48.5715 11.4285,-74.2857 -23.2482,-39.629 -52.4661,-34.6567 -117.1428,-10 -140,-41.4286 -114.2858,-42.8571 -118.5714,7.1428 -147.1428,5.7143 -135.7143,-54.2857 -12.8572,-22.8571 -45.7143,-10 -87.7388,-44.7889 -77.9754,-26.6397 -210,-7.1429 -215.7143,10 -147.1429,11.4286 z"
       id="area_6"
       inkscape:connector-curvature="0"
       sodipodi:nodetypes="ccccccccccccccccccccccccccccccccccc"
       inkscape:label="#path4937" />
    <path
       style="fill:none;fill-rule:evenodd;stroke:#000000;stroke-width:1px;stroke-linecap:butt;stroke-linejoin:miter;stroke-opacity:1"
       d="m 1538.5715,2110.2193 -76.4286,1.4287 -230.7143,41.4286 -16.2064,18.3579 -15.1523,100.0051 1.0102,127.2792 5.0507,14.1421 83.8427,36.3655 178.797,21.2132 211.1219,4.0407 208.0914,-35.3554 127.2792,-64.6498 176.7767,12.1219 156.5736,47.4771 70.7107,41.4163 147.4823,14.1421 85.343,-15.9173 151.4004,-24.1211 33.9775,-44.8144 -7.9587,-61.9151 -56.6911,-49.2017 -113.2386,-35.8962 -23.7744,-15.3257 -73.6187,-20.4481 -71.2008,-8.132 -42.4265,0 -65.6599,31.3147 -181.8274,10.1016 -185.8681,-38.3859 -83.8427,-39.396 -88.8934,-32.3249 -103.0355,-21.2132 z"
       id="area_7"
       inkscape:connector-curvature="0"
       sodipodi:nodetypes="ccccccccccccccccccccccccccccccccc"
       inkscape:label="#path4939" />
    <text
       xml:space="preserve"
       style="font-style:normal;font-weight:normal;font-size:40px;line-height:125%;font-family:sans-serif;text-align:end;letter-spacing:0px;word-spacing:0px;text-anchor:end;fill:#000000;fill-opacity:1;stroke:none;stroke-width:1px;stroke-linecap:butt;stroke-linejoin:miter;stroke-opacity:1"
       x="186.88693"
       y="-266.06366"
       id="navigation"
       sodipodi:linespacing="125%"
       inkscape:label="#text4941"><tspan
         sodipodi:role="line"
         id="tspan4943"
         x="186.88693"
         y="-266.06366"
         style="font-size:180px">1 2 3 4 5 6 7</tspan></text>
  </g>
</svg>
