<?xml version="1.0" encoding="UTF-8" standalone="no"?>
<!-- Created with Inkscape (http://www.inkscape.org/) -->

<svg
   xmlns:dc="http://purl.org/dc/elements/1.1/"
   xmlns:cc="http://creativecommons.org/ns#"
   xmlns:rdf="http://www.w3.org/1999/02/22-rdf-syntax-ns#"
   xmlns:svg="http://www.w3.org/2000/svg"
   xmlns="http://www.w3.org/2000/svg"
   xmlns:xlink="http://www.w3.org/1999/xlink"
   xmlns:sodipodi="http://sodipodi.sourceforge.net/DTD/sodipodi-0.dtd"
   xmlns:inkscape="http://www.inkscape.org/namespaces/inkscape"
   width="799"
   height="533"
   id="svg3101"
   version="1.1"
   inkscape:version="0.48.2 r9819"
   sodipodi:docname="Gorg.svg">
  <defs
     id="defs3103" />
  <sodipodi:namedview
     id="base"
     pagecolor="#ffffff"
     bordercolor="#666666"
     borderopacity="1.0"
     inkscape:pageopacity="0.0"
     inkscape:pageshadow="2"
     inkscape:zoom="0.7"
     inkscape:cx="573.6322"
     inkscape:cy="186.27115"
     inkscape:document-units="px"
     inkscape:current-layer="layer1"
     showgrid="false"
     fit-margin-top="0"
     fit-margin-left="0"
     fit-margin-right="0"
     fit-margin-bottom="0"
     inkscape:window-width="1366"
     inkscape:window-height="706"
     inkscape:window-x="-8"
     inkscape:window-y="-8"
     inkscape:window-maximized="1" />
  <metadata
     id="metadata3106">
    <rdf:RDF>
      <cc:Work
         rdf:about="">
        <dc:format>image/svg+xml</dc:format>
        <dc:type
           rdf:resource="http://purl.org/dc/dcmitype/StillImage" />
        <dc:title></dc:title>
      </cc:Work>
    </rdf:RDF>
  </metadata>
  <g
     inkscape:label="Layer 1"
     inkscape:groupmode="layer"
     id="layer1"
     transform="translate(24.5,-265.86218)">
    <image
       y="265.86218"
       x="-24.5"
       id="image3117"
       xlink:href="file:///J:/06/Gorg.jpg"
       height="533"
       width="799" />
    <path
       style="fill:none;stroke:#000000;stroke-width:1px;stroke-linecap:butt;stroke-linejoin:miter;stroke-opacity:1"
       d="m 327.85714,401.21429 c 0,0 -54.64285,-20.71429 -21.78571,-84.28572 0,0 19.07483,-32.69621 64.64286,-20 38.55025,10.74091 41.42988,53.92874 41.42857,53.92857 -0.13357,-0.80144 2.12467,35.96234 -36.78572,53.57143 0,0 -20,9.64287 -47.5,-3.21428 z"
       id="area_1"
       inkscape:connector-curvature="0"
       transform="translate(-24.5,265.86218)"
       sodipodi:nodetypes="ccsccc"
       inkscape:label="#path3120" />
    <path
       style="fill:none;stroke:#000000;stroke-width:1px;stroke-linecap:butt;stroke-linejoin:miter;stroke-opacity:1"
       d="m 440.35714,369.42857 c 0,0 -37.85714,-26.78571 -20.35714,-81.78571 0,0 16.07143,-30 47.85714,-30 31.78572,0 54.88271,0.98345 75.35714,41.42857 C 544.91453,293.9707 557.91803,366.74594 502.5,378 c -32.14286,11.42857 -62.14286,-8.57143 -62.14286,-8.57143 z"
       id="area_2"
       inkscape:connector-curvature="0"
       transform="translate(-24.5,265.86218)"
       sodipodi:nodetypes="ccsccc"
       inkscape:label="#path3122" />
    <path
       style="fill:none;stroke:#000000;stroke-width:1px;stroke-linecap:butt;stroke-linejoin:miter;stroke-opacity:1"
       d="m 280,108.71429 c 0.10121,0.20243 20.13913,-75.10347 98.21429,-61.785719 82.40014,14.055489 80.5485,82.471339 80,81.785719 0,0 -8.21429,60.35714 -49.64286,79.28571 -41.42857,18.92857 -70,5 -70,5 l -5.35714,-2.14286 C 332.99818,211.3614 327.678,180.918 283.92857,164.07143 272.85714,146.21429 280,108.71429 280,108.71429 z"
       id="area_5"
       inkscape:connector-curvature="0"
       transform="translate(-24.5,265.86218)"
       sodipodi:nodetypes="cscscccc"
       inkscape:label="#path3126" />
    <path
       style="fill:none;stroke:#000000;stroke-width:1px;stroke-linecap:butt;stroke-linejoin:miter;stroke-opacity:1"
       d="m 260.71429,159.42857 c 0,0 67.14285,6.42857 78.21428,68.21429 C 350,289.42857 287.5,320.5 287.5,320.5 c 0,0 -46.42857,10.71429 -76.78571,-10.71429 -30.35715,-21.42857 -39.28572,-61.42857 -39.28572,-61.42857 0,0 -2.5,-40.35714 21.78572,-66.07143 24.28571,-25.71428 67.5,-22.85714 67.5,-22.85714 z"
       id="area_4"
       inkscape:connector-curvature="0"
       transform="translate(-24.5,265.86218)"
       inkscape:label="#path3128" />
    <path
       style="fill:none;stroke:#000000;stroke-width:1px;stroke-linecap:butt;stroke-linejoin:miter;stroke-opacity:1"
       d="m 534.64286,148.35714 c 0,0 55.37692,19.83627 46.78571,76.78572 0,0 -21.78571,47.14285 -61.07142,43.57142 0,0 -13.21429,-13.92856 -46.78572,-11.42856 0,0 -29.64286,-14.64286 -31.42857,-49.64286 -1.78572,-35 32.14286,-55.35715 32.14286,-55.35715 0,0 31.42857,-12.85714 60.35714,-3.92857 z"
       id="area_3"
       inkscape:connector-curvature="0"
       transform="translate(-24.5,265.86218)"
       sodipodi:nodetypes="ccccscc"
       inkscape:label="#path3130" />
    <text
       xml:space="preserve"
       style="font-size:40px;font-style:normal;font-weight:normal;line-height:125%;letter-spacing:0px;word-spacing:0px;fill:#000000;fill-opacity:1;stroke:none;font-family:Sans"
       x="67.14286"
       y="35.857143"
       id="text3132"
       sodipodi:linespacing="125%"
       transform="translate(-24.5,265.86218)"><tspan
         sodipodi:role="line"
         id="tspan3134"
         x="67.14286"
         y="35.857143" /></text>
    <text
       xml:space="preserve"
       style="font-size:40px;font-style:normal;font-weight:normal;line-height:125%;letter-spacing:0px;word-spacing:0px;fill:#000000;fill-opacity:1;stroke:none;font-family:Sans"
       x="87.14286"
       y="34.42857"
       id="navigation"
       sodipodi:linespacing="125%"
       transform="translate(-24.5,265.86218)"
       inkscape:label="#text3136"><tspan
         sodipodi:role="line"
         id="tspan3138"
         x="87.14286"
         y="34.42857">1 2 3 5 4</tspan></text>
  </g>
</svg>
