<?xml version="1.0" encoding="UTF-8" standalone="no"?>
<!-- Created with Inkscape (http://www.inkscape.org/) -->

<svg
   xmlns:dc="http://purl.org/dc/elements/1.1/"
   xmlns:cc="http://creativecommons.org/ns#"
   xmlns:rdf="http://www.w3.org/1999/02/22-rdf-syntax-ns#"
   xmlns:svg="http://www.w3.org/2000/svg"
   xmlns="http://www.w3.org/2000/svg"
   xmlns:xlink="http://www.w3.org/1999/xlink"
   xmlns:sodipodi="http://sodipodi.sourceforge.net/DTD/sodipodi-0.dtd"
   xmlns:inkscape="http://www.inkscape.org/namespaces/inkscape"
   id="svg2"
   version="1.1"
   inkscape:version="0.48.2 r9819"
   width="799"
   height="533"
   sodipodi:docname="New document 1">
  <metadata
     id="metadata8">
    <rdf:RDF>
      <cc:Work
         rdf:about="">
        <dc:format>image/svg+xml</dc:format>
        <dc:type
           rdf:resource="http://purl.org/dc/dcmitype/StillImage" />
        <dc:title></dc:title>
      </cc:Work>
    </rdf:RDF>
  </metadata>
  <defs
     id="defs6" />
  <sodipodi:namedview
     pagecolor="#ffffff"
     bordercolor="#666666"
     borderopacity="1"
     objecttolerance="10"
     gridtolerance="10"
     guidetolerance="10"
     inkscape:pageopacity="0"
     inkscape:pageshadow="2"
     inkscape:window-width="1680"
     inkscape:window-height="988"
     id="namedview4"
     showgrid="false"
     inkscape:zoom="1.1398668"
     inkscape:cx="513.35359"
     inkscape:cy="277.00599"
     inkscape:window-x="-8"
     inkscape:window-y="-8"
     inkscape:window-maximized="1"
     inkscape:current-layer="svg2" />
  <image
     width="799"
     height="533"
     xlink:href="file:///F:/Gpiesaus.jpg"
     id="image10"
     x="0"
     y="0" />
  <path
     style="fill:none;stroke:#000000;stroke-width:1px;stroke-linecap:butt;stroke-linejoin:miter;stroke-opacity:1"
     d="m 168.44074,132.07594 -6.14107,18.42321 -1.75459,24.56428 18.42321,25.44157 38.601,6.14106 19.3005,-2.63188 9.65025,-24.56428 14.91403,-15.79132 -0.8773,-14.91402 -8.77295,-16.66862 -18.42321,-13.15943 c 0,0 -15.79132,-7.01836 -19.3005,-4.38648 -3.50918,2.63189 -28.95075,4.38648 -28.95075,4.38648 z"
     id="area_4"
     inkscape:connector-curvature="0"
     inkscape:label="#path2987" />
  <path
     style="fill:none;stroke:#000000;stroke-width:1px;stroke-linecap:butt;stroke-linejoin:miter;stroke-opacity:1"
     d="m 185.98665,72.419849 92.99333,-44.742072 12.28213,0 53.51503,48.251254 -28.95075,11.404842 -21.93239,15.791317 -8.77295,14.91403 -1.75459,14.91402 -20.1778,13.15943 -25.44157,-25.44157 -17.54591,-8.77295 -27.19616,3.50918 -8.77296,-26.318866 -4.38648,-11.404841 z"
     id="area_1"
     inkscape:connector-curvature="0"
     sodipodi:nodetypes="ccccccccccccccc"
     inkscape:label="#path2989" />
  <path
     style="fill:none;stroke:#000000;stroke-width:1px;stroke-linecap:butt;stroke-linejoin:miter;stroke-opacity:1"
     d="m 409.69701,98.738715 11.40484,23.686975 -6.14107,17.54591 -7.89566,27.19616 -28.07345,21.0551 -42.98749,0 -14.03672,-7.89566 -23.68698,-23.68698 -12.28214,-31.58264 10.52755,-20.1778 22.80968,-17.545907 37.72371,-7.89566 31.58264,4.386478 z"
     id="area_2"
     inkscape:connector-curvature="0"
     inkscape:label="#path2991"
     sodipodi:nodetypes="cccccccccccccc" />
  <path
     style="fill:none;stroke:#000000;stroke-width:1px;stroke-linecap:butt;stroke-linejoin:miter;stroke-opacity:1"
     d="m 271.08432,160.1494 23.68698,0.8773 12.28213,7.89566 7.89566,7.01836 7.01837,21.05509 -3.50918,16.66862 -10.52755,12.28214 -25.44157,6.14106 -22.80968,-7.01836 -14.91403,-9.65025 -4.38648,-14.03673 12.28214,-24.56427 z"
     id="area_3"
     inkscape:connector-curvature="0"
     inkscape:label="#path2993" />
  <path
     style="fill:none;stroke:#000000;stroke-width:1px;stroke-linecap:butt;stroke-linejoin:miter;stroke-opacity:1"
     d="m 598.31555,141.7262 14.91402,-15.79132 27.19616,-14.03673 8.77296,-0.8773 24.56427,14.91403 14.03673,18.4232 7.89566,12.28214 -18.4232,13.15943 -23.68698,7.01837 -21.0551,0.87729 z"
     id="area_5"
     inkscape:connector-curvature="0"
     inkscape:label="#path2995" />
  <path
     style="fill:none;stroke:#000000;stroke-width:1px;stroke-linecap:butt;stroke-linejoin:miter;stroke-opacity:1"
     d="m 512.34059,147.86726 23.68698,-17.54591 19.3005,-9.65025 8.77295,-2.63188 37.72371,35.09182 43.86478,40.35559 33.33723,30.70534 13.15943,10.52755 -19.3005,18.42321 -29.82805,14.91402 -16.66861,6.14107 -55.26962,-59.6561 -57.02421,-55.26961 z"
     id="area_7"
     inkscape:connector-curvature="0"
     inkscape:label="#path2997" />
  <path
     style="fill:none;stroke:#000000;stroke-width:1px;stroke-linecap:butt;stroke-linejoin:miter;stroke-opacity:1"
     d="m 708.85478,177.69531 11.40485,16.66862 5.26377,6.14107 -8.77296,11.40484 -13.15943,8.77295 -22.80968,0.8773 -11.40484,-14.91403 -2.63189,-14.91402 12.28214,-10.52755 18.4232,-6.14106 z"
     id="area_6"
     inkscape:connector-curvature="0"
     inkscape:label="#path2999" />
  <path
     style="fill:none;stroke:#000000;stroke-width:1px;stroke-linecap:butt;stroke-linejoin:miter;stroke-opacity:1"
     d="m 467.59852,192.60934 37.7237,-12.28214 14.03673,1.75459 13.15943,0 60.5334,62.28798 15.79131,18.42321 -7.89565,7.01836 -13.15944,11.40484 -10.52754,5.26378 -35.96912,-0.8773 -52.63773,-64.91987 z"
     id="area_8"
     inkscape:connector-curvature="0"
     inkscape:label="#path3001" />
  <path
     style="fill:none;stroke:#000000;stroke-width:1px;stroke-linecap:butt;stroke-linejoin:miter;stroke-opacity:1"
     d="m 344.77714,289.11184 6.14107,7.89566 11.40484,53.51503 8.77296,28.95075 18.4232,43.86478 8.77296,11.40484 0,12.28214 28.95075,-2.63189 42.98748,-20.1778 22.80969,-18.4232 11.40484,-29.82805 5.26377,-31.58264 -11.40484,-35.96911 -14.91403,-17.54592 -40.35559,-19.3005 -50.00584,-0.87729 -28.95076,1.75459 -19.3005,10.52755 z"
     id="area_9"
     inkscape:connector-curvature="0"
     sodipodi:nodetypes="ccccccccccccccccccc"
     inkscape:label="#path3003" />
  <path
     style="fill:none;stroke:#000000;stroke-width:1px;stroke-linecap:butt;stroke-linejoin:miter;stroke-opacity:1"
     d="m 213.18281,341.74958 43.86478,-26.31887 30.70534,-4.38648 21.0551,5.26378 48.25125,48.25125 18.42321,32.45993 1.75459,34.21453 -45.61937,29.82805 -42.11019,14.03673 -21.05509,-1.7546 -24.56427,-13.15943 -35.96912,-41.23289 -14.03673,-27.19616 3.50918,-28.95075 z"
     id="area_10"
     inkscape:connector-curvature="0"
     inkscape:label="#path3005"
     sodipodi:nodetypes="ccccccccccccccc" />
  <text
     xml:space="preserve"
     style="font-size:36px;font-style:normal;font-weight:normal;line-height:125%;letter-spacing:0px;word-spacing:0px;fill:#000000;fill-opacity:1;stroke:none;font-family:Sans"
     x="366.70953"
     y="45.223686"
     id="navigation"
     sodipodi:linespacing="125%"
     inkscape:label="#text3007"><tspan
       sodipodi:role="line"
       id="tspan3009"
       x="366.70953"
       y="45.223686">1 2 5 4 7 6 3 8 9 10</tspan></text>
</svg>
