<?xml version="1.0" encoding="UTF-8" standalone="no"?>
<!-- Created with Inkscape (http://www.inkscape.org/) -->

<svg
   xmlns:dc="http://purl.org/dc/elements/1.1/"
   xmlns:cc="http://creativecommons.org/ns#"
   xmlns:rdf="http://www.w3.org/1999/02/22-rdf-syntax-ns#"
   xmlns:svg="http://www.w3.org/2000/svg"
   xmlns="http://www.w3.org/2000/svg"
   xmlns:xlink="http://www.w3.org/1999/xlink"
   xmlns:sodipodi="http://sodipodi.sourceforge.net/DTD/sodipodi-0.dtd"
   xmlns:inkscape="http://www.inkscape.org/namespaces/inkscape"
   id="svg2"
   version="1.1"
   inkscape:version="0.48.2 r9819"
   width="799"
   height="533"
   sodipodi:docname="New document 1">
  <metadata
     id="metadata8">
    <rdf:RDF>
      <cc:Work
         rdf:about="">
        <dc:format>image/svg+xml</dc:format>
        <dc:type
           rdf:resource="http://purl.org/dc/dcmitype/StillImage" />
        <dc:title></dc:title>
      </cc:Work>
    </rdf:RDF>
  </metadata>
  <defs
     id="defs6" />
  <sodipodi:namedview
     pagecolor="#ffffff"
     bordercolor="#666666"
     borderopacity="1"
     objecttolerance="10"
     gridtolerance="10"
     guidetolerance="10"
     inkscape:pageopacity="0"
     inkscape:pageshadow="2"
     inkscape:window-width="1680"
     inkscape:window-height="988"
     id="namedview4"
     showgrid="false"
     inkscape:zoom="1.612015"
     inkscape:cx="419.78262"
     inkscape:cy="338.22528"
     inkscape:window-x="-8"
     inkscape:window-y="-8"
     inkscape:window-maximized="1"
     inkscape:current-layer="svg2" />
  <image
     width="799"
     height="533"
     xlink:href="file:///F:/Gpik.jpg"
     id="image10"
     x="0"
     y="0" />
  <path
     style="fill:none;stroke:#000000;stroke-width:1px;stroke-linecap:butt;stroke-linejoin:miter;stroke-opacity:1"
     d="m 246.89596,80.770962 23.57298,10.545808 10.54581,8.68478 8.68478,16.74923 4.3424,11.16615 1.24068,18.61024 -8.06444,14.8882 -8.68478,16.12888 -19.85094,8.06445 -16.12888,1.86102 -30.39674,-0.62034 -20.47127,-3.10171 -16.12888,-10.54581 c 0,0 -8.68479,-8.68478 -9.30513,-11.78649 -0.62034,-3.10171 -7.4441,-19.23059 -7.4441,-19.23059 l 1.86103,-24.81366 14.26786,-19.230593 22.33229,-12.406832 29.7764,-7.444099 z"
     id="area_4"
     inkscape:connector-curvature="0"
     inkscape:label="#path2987" />
  <path
     style="fill:none;stroke:#000000;stroke-width:1px;stroke-linecap:butt;stroke-linejoin:miter;stroke-opacity:1"
     d="m 380.88975,101.24224 34.11879,-1.861029 22.3323,6.823759 18.61025,13.64751 6.82376,13.64752 0,14.8882 -3.72205,13.02717 -13.02718,14.8882 -18.61025,7.4441 c 0,0 -15.50854,7.4441 -18.61025,7.4441 -3.1017,0 -35.35947,-2.48137 -35.35947,-2.48137 l -24.81366,-8.06444 -15.50854,-8.06444 -6.82376,-24.81366 4.34239,-23.57298 19.85093,-13.64752 14.8882,-5.58307 z"
     id="area_2"
     inkscape:connector-curvature="0"
     inkscape:label="#path2989" />
  <path
     style="fill:none;stroke:#000000;stroke-width:1px;stroke-linecap:butt;stroke-linejoin:miter;stroke-opacity:1"
     d="m 557.06677,98.140527 25.43401,-0.620341 25.434,6.823754 18.61025,13.64752 13.02718,21.71196 1.24068,18.61024 -8.06444,19.23059 -14.8882,9.92547 -24.19332,7.4441 -18.61025,0 -23.57298,-6.82376 -13.02718,-3.72205 -17.36956,-18.61025 -10.54581,-15.50854 6.20342,-24.81366 19.85093,-16.74923 z"
     id="area_1"
     inkscape:connector-curvature="0"
     inkscape:label="#path2991" />
  <path
     style="fill:none;stroke:#000000;stroke-width:1px;stroke-linecap:butt;stroke-linejoin:miter;stroke-opacity:1"
     d="m 224.56366,224.69022 31.01709,-3.72205 26.67469,0.62034 16.12888,9.92546 14.8882,16.74923 1.86102,13.64751 -6.20342,3.72205 4.96274,7.4441 -2.48137,11.78649 -4.34239,-1.86102 -2.48137,9.92546 -26.05434,17.98991 -32.25777,7.4441 -6.82376,-9.92546 -1.24068,9.92546 -21.71196,-5.58307 c 0,0 -14.88819,-3.10171 -17.36956,-4.34239 -2.48137,-1.24069 -22.3323,-19.23059 -22.3323,-19.23059 l -1.24068,-24.19333 17.36956,-21.09161 16.74923,-13.64752 z"
     id="area_3"
     inkscape:connector-curvature="0"
     inkscape:label="#path2993" />
  <path
     style="fill:none;stroke:#000000;stroke-width:1px;stroke-linecap:butt;stroke-linejoin:miter;stroke-opacity:1"
     d="m 464.63587,214.76475 83.74612,3.10171 45.28494,1.86102 c 0,0 27.91537,4.96274 31.01708,6.20342 3.1017,1.24068 21.71195,16.12888 21.71195,16.12888 l 5.58308,9.30513 -1.86103,14.26785 -4.96273,13.64752 -14.26786,10.54581 -53.96972,19.85093 -24.19332,4.96273 -46.52562,0.62034 4.34239,4.96274 -19.85093,-1.86103 -34.11879,-1.86102 -31.63742,-13.02718 -34.73913,-14.8882 -19.85094,-21.71195 -7.44409,-9.30513 8.68478,-24.19332 17.36956,-7.4441 26.05435,-3.10171 30.39674,-7.4441 z"
     id="area_5"
     inkscape:connector-curvature="0"
     inkscape:label="#path2995" />
  <text
     xml:space="preserve"
     style="font-size:40px;font-style:normal;font-weight:normal;line-height:125%;letter-spacing:0px;word-spacing:0px;fill:#000000;fill-opacity:1;stroke:none;font-family:Sans"
     x="305.20807"
     y="53.475929"
     id="navigation"
     sodipodi:linespacing="125%"
     inkscape:label="#text2997"><tspan
       sodipodi:role="line"
       id="tspan2999"
       x="305.20807"
       y="53.475929">4 2 1 3 5</tspan></text>
</svg>
