<?xml version="1.0" encoding="UTF-8" standalone="no"?>
<!-- Created with Inkscape (http://www.inkscape.org/) -->

<svg
   xmlns:dc="http://purl.org/dc/elements/1.1/"
   xmlns:cc="http://creativecommons.org/ns#"
   xmlns:rdf="http://www.w3.org/1999/02/22-rdf-syntax-ns#"
   xmlns:svg="http://www.w3.org/2000/svg"
   xmlns="http://www.w3.org/2000/svg"
   xmlns:xlink="http://www.w3.org/1999/xlink"
   xmlns:sodipodi="http://sodipodi.sourceforge.net/DTD/sodipodi-0.dtd"
   xmlns:inkscape="http://www.inkscape.org/namespaces/inkscape"
   id="svg2"
   version="1.1"
   inkscape:version="0.48.2 r9819"
   width="799"
   height="533"
   sodipodi:docname="New document 1">
  <metadata
     id="metadata8">
    <rdf:RDF>
      <cc:Work
         rdf:about="">
        <dc:format>image/svg+xml</dc:format>
        <dc:type
           rdf:resource="http://purl.org/dc/dcmitype/StillImage" />
        <dc:title></dc:title>
      </cc:Work>
    </rdf:RDF>
  </metadata>
  <defs
     id="defs6" />
  <sodipodi:namedview
     pagecolor="#ffffff"
     bordercolor="#666666"
     borderopacity="1"
     objecttolerance="10"
     gridtolerance="10"
     guidetolerance="10"
     inkscape:pageopacity="0"
     inkscape:pageshadow="2"
     inkscape:window-width="1680"
     inkscape:window-height="988"
     id="namedview4"
     showgrid="false"
     inkscape:zoom="0.80600751"
     inkscape:cx="531.43635"
     inkscape:cy="170.36271"
     inkscape:window-x="-8"
     inkscape:window-y="-8"
     inkscape:window-maximized="1"
     inkscape:current-layer="svg2" />
  <image
     width="799"
     height="533"
     xlink:href="file:///F:/Gprs.jpg"
     id="image10"
     x="0"
     y="0" />
  <path
     style="fill:none;stroke:#000000;stroke-width:1px;stroke-linecap:butt;stroke-linejoin:miter;stroke-opacity:1"
     d="m 207.04174,116.28463 1.7546,27.19616 -13.15944,18.4232 -14.03673,28.95075 -14.91402,20.1778 -13.15943,14.91403 -1.75459,30.70534 13.15943,26.31887 21.05509,11.40484 20.1778,2.63188 21.93239,-13.15943 13.15943,-24.56428 -5.26377,-31.58263 -3.50919,-18.42321 -6.14106,-42.98748 c 0,0 -8.77296,-26.31887 -11.40485,-21.93239 -2.63188,4.38648 -2.63188,-26.31886 -2.63188,-26.31886 z"
     id="area_5"
     inkscape:connector-curvature="0"
     inkscape:label="#path2987"
     sodipodi:nodetypes="cccccccccccccccscc" />
  <path
     style="fill:none;stroke:#000000;stroke-width:1px;stroke-linecap:butt;stroke-linejoin:miter;stroke-opacity:1"
     d="m 342.14526,146.11267 -14.03673,17.54591 -5.26378,1.75459 -27.19616,40.3556 -15.79132,15.79132 -7.89566,31.58264 9.65025,23.68698 21.93239,14.03672 23.68698,0 24.56428,-15.79131 7.01836,-25.44157 -6.14107,-21.0551 -15.79132,-16.66861 -1.75459,-47.37396 10.52754,-12.28214 z"
     id="area_4"
     inkscape:connector-curvature="0"
     sodipodi:nodetypes="cccccccccccccccc"
     inkscape:label="#path2989" />
  <path
     style="fill:none;stroke:#000000;stroke-width:1px;stroke-linecap:butt;stroke-linejoin:miter;stroke-opacity:1"
     d="m 428.12022,131.19865 7.01836,8.77295 -1.75459,19.30051 -10.52755,10.52754 -14.91402,35.96912 -13.15943,17.54591 -11.40485,26.31887 12.28214,28.95075 18.42321,11.40484 18.4232,-0.8773 20.1778,-15.79132 9.65025,-29.82804 -12.28214,-28.07346 -10.52754,-19.3005 3.50918,-28.07346 -6.14107,-7.89566 4.38648,-21.05509 -8.77296,-13.15943 z"
     id="area_3"
     inkscape:connector-curvature="0"
     inkscape:label="#path2991" />
  <path
     style="fill:none;stroke:#000000;stroke-width:1px;stroke-linecap:butt;stroke-linejoin:miter;stroke-opacity:1"
     d="m 518.48165,159.93008 -2.92067,0.7048 -0.58851,8.28748 -5.26377,9.65025 -9.65025,40.35559 -13.15943,18.42321 -4.38648,18.4232 9.65025,27.19617 18.42321,7.89565 24.56427,0 17.54591,-11.40484 9.65025,-25.44157 -6.14107,-21.93239 -13.15943,-14.91402 -8.77295,-28.95075 -14.91403,-20.1778 z"
     id="area_2"
     inkscape:connector-curvature="0"
     sodipodi:nodetypes="ccccccccccccccccc"
     inkscape:label="#path2993" />
  <path
     style="fill:none;stroke:#000000;stroke-width:1px;stroke-linecap:butt;stroke-linejoin:miter;stroke-opacity:1"
     d="m 628.1436,128.56676 -8.77296,8.77296 0,22.80968 9.65025,30.70534 -29.82805,30.70535 -11.40484,34.21452 13.15944,25.44157 20.17779,8.77296 16.66862,2.63189 16.66861,-6.14107 15.79132,-17.54591 0.8773,-21.93239 -9.65025,-23.68698 -28.07346,-30.70534 -9.65025,-30.70535 -1.75459,-21.05509 z"
     id="area_1"
     inkscape:connector-curvature="0"
     sodipodi:nodetypes="ccccccccccccccccc"
     inkscape:label="#path2995" />
  <text
     xml:space="preserve"
     style="font-size:40px;font-style:normal;font-weight:normal;line-height:125%;letter-spacing:0px;word-spacing:0px;fill:#000000;fill-opacity:1;stroke:none;font-family:Sans"
     x="293.01672"
     y="67.156075"
     id="navigation"
     sodipodi:linespacing="125%"
     inkscape:label="#text2997"><tspan
       sodipodi:role="line"
       id="tspan2999"
       x="293.01672"
       y="67.156075">5 4 3 2 1</tspan></text>
</svg>
