<?xml version="1.0" encoding="UTF-8" standalone="no"?>
<!-- Created with Inkscape (http://www.inkscape.org/) -->

<svg
   xmlns:dc="http://purl.org/dc/elements/1.1/"
   xmlns:cc="http://creativecommons.org/ns#"
   xmlns:rdf="http://www.w3.org/1999/02/22-rdf-syntax-ns#"
   xmlns:svg="http://www.w3.org/2000/svg"
   xmlns="http://www.w3.org/2000/svg"
   xmlns:xlink="http://www.w3.org/1999/xlink"
   xmlns:sodipodi="http://sodipodi.sourceforge.net/DTD/sodipodi-0.dtd"
   xmlns:inkscape="http://www.inkscape.org/namespaces/inkscape"
   width="3000"
   height="2000"
   id="svg3010"
   version="1.1"
   inkscape:version="0.48.3.1 r9886"
   sodipodi:docname="New document 3">
  <defs
     id="defs3" />
  <sodipodi:namedview
     inkscape:document-units="mm"
     id="base"
     pagecolor="#ffffff"
     bordercolor="#666666"
     borderopacity="1.0"
     inkscape:pageopacity="0.0"
     inkscape:pageshadow="2"
     inkscape:zoom="0.35"
     inkscape:cx="1715.7771"
     inkscape:cy="1773.6993"
     inkscape:current-layer="layer1"
     showgrid="false"
     units="mm"
     fit-margin-top="0"
     fit-margin-left="0"
     fit-margin-right="0"
     fit-margin-bottom="0"
     inkscape:window-width="1366"
     inkscape:window-height="706"
     inkscape:window-x="-8"
     inkscape:window-y="-8"
     inkscape:window-maximized="1" />
  <metadata
     id="metadata4">
    <rdf:RDF>
      <cc:Work
         rdf:about="">
        <dc:format>image/svg+xml</dc:format>
        <dc:type
           rdf:resource="http://purl.org/dc/dcmitype/StillImage" />
        <dc:title></dc:title>
      </cc:Work>
    </rdf:RDF>
  </metadata>
  <g
     inkscape:label="Layer 1"
     inkscape:groupmode="layer"
     id="layer1"
     transform="translate(1150,467.63782)">
    <image
       y="-467.63782"
       x="-1150"
       id="image3024"
       xlink:href="file:///G:/07/Gskit.jpg"
       height="2000"
       width="3000" />
    <path
       style="fill:none;stroke:#000000;stroke-width:1px;stroke-linecap:butt;stroke-linejoin:miter;stroke-opacity:1"
       d="m 771.42857,484.28571 46.42857,-2.85714 48.57143,4.28571 56.42857,5.71429 41.42858,4.28571 54.99998,5.71429 18.5714,1.42857 19.2858,4.28572 c 0,0 12.1428,0 15,0 2.8571,0 11.4285,0.71428 11.4285,0.71428 l 9.2857,-8.57143 14.2858,1.42857 5,9.28572 10.7142,2.85714 24.2858,-10 36.4285,-14.28571 31.4286,-17.14286 30.7143,-12.85714 37.8571,-4.28572 62.8572,0.71429 53.5714,6.42857 7.1429,3.57143 0.7142,8.57143 -2.1428,12.85714 -5.7143,10.71429 c 0,0 0.7143,10.71428 0,13.57142 -0.7143,2.85715 -5.7143,21.42858 -5.7143,21.42858 L 1392.8571,550 l -7.1428,15 -0.7143,9.28571 0.7143,11.42857 -6.4286,20 -0.7143,5 -6.4285,13.57143 -4.2858,7.85715 -2.1428,20.71428 L 1370,661.42857 1366.4286,685 1365,694.28571 1367.8571,710 l 2.8572,40 -0.7143,32.85714 -2.8571,20.71429 1.4285,21.42857 2.1429,18.57143 -8.5714,34.28571 -2.1429,31.42857 -1.4286,27.14286 -8.5714,46.42857 -2.1429,26.42856 3.5715,28.5714 -0.7143,37.1429 -2.1429,121.4286 -10,0 -15.7143,-6.4286 -10.7142,-5.7143 -6.4286,-4.2857 -12.1429,12.8571 -5,4.2858 c 0,0 -13.5714,1.4285 -16.4285,2.1428 -2.8572,0.7143 -11.4286,2.1429 -11.4286,2.1429 l -16.4286,4.2857 -12.1428,8.5714 -10,2.8572 -21.4286,-6.4286 c 0,0 -14.2857,-3.5714 -17.1429,-3.5714 -2.8571,0 -21.4285,-2.8572 -21.4285,-2.8572 l -25,4.2857 L 1075,1204.2857 816.42857,1195 l -17.14285,0 -22.14286,-9.2857 L 750,1158.5714 l -8.57143,-7.8571 -10,5.7143 -40.71428,1.4285 62.85714,-427.14282 6.42857,-15 2.85714,-17.85714 -2.14285,-36.42857 1.42857,-31.42857 -0.71429,-52.85714 5.71429,-67.85715 z"
       id="area_1"
       inkscape:connector-curvature="0"
       transform="translate(-1150,-467.63782)"
       inkscape:label="#path3027" />
    <path
       style="fill:none;stroke:#000000;stroke-width:1px;stroke-linecap:butt;stroke-linejoin:miter;stroke-opacity:1"
       d="m 1426.4286,544.28571 c 2.8571,0 9.2857,-5 9.2857,-5 0,0 9.2857,0 12.8571,0 3.5715,0 7.1429,0.71429 7.1429,0.71429 l 7.8571,-2.14286 2.1429,-2.14286 4.2857,-3.57142 9.2857,-1.42858 2.8572,-5 11.4285,-0.71428 120,2.85714 20,3.57143 15,-0.71429 10.7143,0 57.8572,-2.14285 55.7142,-1.42857 76.4286,0.71428 L 1872.1429,525 1915,523.57143 l 75,-1.42857 25.7143,-0.71429 58.5714,-2.14286 30.7143,-1.42857 20,-2.14286 5.7143,-7.14285 57.1428,-6.42857 6.4286,12.85714 -5,10 6.9643,10.89285 -6.6071,12.67858 9.2857,11.42857 -5.7143,9.46428 8.5714,12.32143 -6.4286,8.03572 6.7858,11.78571 -4.2858,10 8.0358,12.32143 -3.3929,8.92857 8.3929,11.07143 -5.5358,13.21428 10,10.71429 -6.4285,12.32143 9.2857,10.89286 -5.8929,10.71428 6.0715,10.35714 -2.1429,10.35715 7.3214,11.07143 -4.4643,9.28571 7.5,10.71429 -4.6428,8.75 7.6786,11.78571 -5.5358,8.39286 7.8572,13.57143 -3.9286,5.89285 2.6786,4.82143 -3.3929,0.17857 -43.75,-12.14285 -6.4285,1.25 -5.8929,0.53571 -2.6786,1.25 -0.3571,3.39286 -83.3929,-1.96429 -14.1071,-2.32143 -15.8929,-2.32143 -10.1785,0.17858 -3.0358,1.07142 -60.5357,2.67858 -13.2143,1.07142 -15.5357,0.17858 -35.5357,-2.85715 -11.25,-0.35714 -15.1786,0.71429 -15,0.35714 -25.7142,0.89286 -21.7858,0.71428 -18.75,-1.25 -28.2142,-1.07143 -44.8215,1.42857 -38.5714,0.35715 -46.0714,0.53571 -21.7857,-0.89286 -16.6072,-0.35714 c 0,0 -9.1071,1.42857 -9.8214,1.42857 -0.7143,0 -6.4286,-1.78571 -6.4286,-1.78571 l -4.2857,-0.71429 -6.6071,2.5 -7.5,1.25 -8.0358,2.67857 -7.3214,1.42858 -4.6428,0.53571 -10,0.71429 L 1540,807.5 l -13.2143,2.5 -8.75,1.78571 -15,3.03572 -19.1071,0.71428 -11.7857,-0.89286 -7.5,-1.96428 -9.1072,-1.96429 -8.2143,-4.46428 -5.3571,-2.85715 -15.5357,0.89286 -3.3929,-3.75 6.4286,-9.28571 -7.8572,-10.17857 7.1429,-8.92858 -7.8571,-9.82142 7.3214,-10.17858 -6.6072,-9.82142 5.7143,-9.10715 -8.9285,-8.92857 8.3928,-8.39286 -7.6786,-12.14285 6.25,-7.85715 -6.25,-7.85714 c 0,0 8.9286,-10 8.2143,-9.28571 -0.7143,0.71428 -8.3928,-10.53572 -8.3928,-10.53572 l 7.6785,-7.85714 -6.9642,-8.57143 10.3571,-9.64286 -4.8214,-5.71428 7.5,-11.07143 -7.6786,-5.89286 5.7143,-12.85714 -4.6429,-5.71429 5.1786,-11.96428 -6.9643,-7.5 6.25,-11.25 -7.6786,-7.85714 5.7143,-10.53572 0.8929,-1.78571 -3.75,-3.21429 -1.25,-1.07143 z"
       id="area_2"
       inkscape:connector-curvature="0"
       transform="translate(-1150,-467.63782)"
       inkscape:label="#path3029" />
    <path
       style="fill:none;stroke:#000000;stroke-width:1px;stroke-linecap:butt;stroke-linejoin:miter;stroke-opacity:1"
       d="m 1589.6429,818.57143 11.0714,0.71428 12.5,14.28572 27.5,5.35714 25.7143,13.57143 9.6428,-1.07143 130.3572,2.14286 28.9285,5.35714 68.9286,-1.78571 5.7143,0.35714 5.3571,-1.42857 47.8572,-3.21429 11.4286,1.42857 26.0714,-2.14285 0.3571,-6.07143 3.5715,-5.71429 6.4285,-5 12.1429,-4.28571 16.0714,-3.92857 4.6429,-1.07143 c 0,0 3.9285,7.85714 1.7857,8.92857 -2.1429,1.07143 0,6.07143 0,6.07143 l 1.4286,10 3.5714,7.85714 -1.4286,8.92857 3.5714,2.14286 1.4286,5.71428 -1.4286,6.42858 1.7858,6.78571 0.7142,5.35714 1.0715,4.28572 0,7.14285 0.3571,4.28572 2.5,4.28571 -0.3571,2.5 0.3571,4.64286 1.4286,6.07143 0.7143,4.64286 -0.7143,4.28571 3.2143,3.57143 1.0714,3.57143 0,6.78571 c 0,0 1.0714,4.64286 2.5,4.64286 1.4286,0 0,7.5 0,7.5 l -0.7143,1.78571 1.4286,2.85715 -0.7143,5.71428 -2.1429,1.42857 1.4286,2.85715 0,4.28571 -1.7857,1.78571 1.7857,5.71429 1.0714,6.42857 -3.9285,0 3.9285,4.99996 1.0715,6.4286 -2.1429,3.5714 3.9286,10 -1.4286,3.2143 1.4286,8.2143 -1.4286,1.7857 2.1429,5.3572 1.4285,6.4285 -0.7142,7.5 2.5,4.2858 0,5 -1.0715,3.9285 2.1429,1.4286 1.0714,6.7857 -1.4286,2.5 2.5,6.4286 -1.0714,4.2857 -0.7143,2.5 1.7857,4.6429 -0.7142,5.7142 -1.0715,1.0715 2.1429,3.5714 1.0714,6.0714 -1.4286,4.6429 2.1429,8.5714 -0.7143,7.1429 3.5714,8.9285 -2.1428,6.7858 2.8571,5.3571 0.7143,6.0714 -0.7143,1.4286 1.7857,5 -8.5714,1.4286 -11.0714,2.8571 -7.1429,2.8572 -17.5,0 -15.3571,-0.7143 c 0,0 -7.5,-1.7857 -8.9286,-1.7857 -1.4286,0 -25.7143,0 -28.2143,0 -2.5,0 -17.1428,1.4285 -17.1428,1.4285 l -48.2143,-2.8571 -30.3572,-1.4286 c 0,0 -38.5714,-1.7857 -40,-1.7857 -1.4285,0 -38.2142,-2.1429 -38.2142,-2.1429 l -50,-2.1428 -30.3572,-1.7857 -28.2143,-0.7143 -3.5714,0.7143 c 0,0 -1.0714,2.1428 -3.5714,2.1428 -2.5,0 -6.7857,0 -6.7857,0 l -6.7858,-0.7143 -18.5714,0 -18.5714,1.7858 -19.6429,1.7857 -13.2143,-0.7143 -11.0714,-7.1429 -10.7143,-9.6428 -4.6428,-3.9286 c 0,0 -2.1429,-1.0714 -2.8572,-2.5 -0.7143,-1.4286 -2.1428,-5.7143 -2.1428,-5.7143 l 4.2857,-5 2.5,-4.6428 2.5,-5.3572 1.7857,-13.5714 2.5,-12.8572 1.0714,-10.3571 -0.3571,-18.2143 -6.4286,-13.5714 -1.7857,-9.2857 3.2143,-7.8572 1.7857,-9.2857 3.2143,-10.3571 -0.3572,-13.5715 -0.3571,-8.21424 0.3571,-6.78572 1.7858,-5.35714 0,-12.85714 4.2857,-16.78572 0.7143,-13.57143 1.0714,-12.85714 0,-7.85714 c 0,0 2.5,-6.78572 1.0714,-7.14286 -1.4286,-0.35714 -1.4286,-6.42857 -1.4286,-6.42857 l 1.7858,-4.64286 -2.5,-5 -0.3572,-4.28571 -2.8571,-6.78572 0.7143,-4.64285 -3.2143,-3.57143 -3.2143,-6.07143 -0.7143,-4.28572 0.7143,-5.71428 -2.5,-3.57143 -1.4286,-4.64286 -0.7143,-4.28571 -2.1428,-3.57143 1.7857,-5.35714 -2.8572,-5 -0.7142,-7.85715 -0.3572,-4.28571 z"
       id="area_3"
       inkscape:connector-curvature="0"
       transform="translate(-1150,-467.63782)"
       inkscape:label="#path3031" />
    <text
       xml:space="preserve"
       style="font-size:379.11114502px;font-style:normal;font-weight:normal;line-height:125%;letter-spacing:0px;word-spacing:0px;fill:#000000;fill-opacity:1;stroke:none;font-family:Sans"
       x="-671.1897"
       y="-138.57843"
       id="navigation"
       sodipodi:linespacing="125%"
       transform="scale(1.0521945,0.95039459)"
       inkscape:label="#text3033"><tspan
         sodipodi:role="line"
         id="tspan3035"
         x="-671.1897"
         y="-138.57843">1 2 3</tspan></text>
  </g>
</svg>
