<?xml version="1.0" encoding="UTF-8" standalone="no"?>
<!-- Created with Inkscape (http://www.inkscape.org/) -->

<svg
   xmlns:dc="http://purl.org/dc/elements/1.1/"
   xmlns:cc="http://creativecommons.org/ns#"
   xmlns:rdf="http://www.w3.org/1999/02/22-rdf-syntax-ns#"
   xmlns:svg="http://www.w3.org/2000/svg"
   xmlns="http://www.w3.org/2000/svg"
   xmlns:xlink="http://www.w3.org/1999/xlink"
   xmlns:sodipodi="http://sodipodi.sourceforge.net/DTD/sodipodi-0.dtd"
   xmlns:inkscape="http://www.inkscape.org/namespaces/inkscape"
   width="3000"
   height="2000"
   id="svg3037"
   version="1.1"
   inkscape:version="0.48.3.1 r9886"
   sodipodi:docname="New document 5">
  <defs
     id="defs3" />
  <sodipodi:namedview
     inkscape:document-units="mm"
     id="base"
     pagecolor="#ffffff"
     bordercolor="#666666"
     borderopacity="1.0"
     inkscape:pageopacity="0.0"
     inkscape:pageshadow="2"
     inkscape:zoom="0.35"
     inkscape:cx="1756.0333"
     inkscape:cy="1518.0879"
     inkscape:current-layer="layer1"
     showgrid="false"
     units="mm"
     fit-margin-top="0"
     fit-margin-left="0"
     fit-margin-right="0"
     fit-margin-bottom="0"
     inkscape:window-width="1366"
     inkscape:window-height="706"
     inkscape:window-x="-8"
     inkscape:window-y="-8"
     inkscape:window-maximized="1" />
  <metadata
     id="metadata4">
    <rdf:RDF>
      <cc:Work
         rdf:about="">
        <dc:format>image/svg+xml</dc:format>
        <dc:type
           rdf:resource="http://purl.org/dc/dcmitype/StillImage" />
        <dc:title></dc:title>
      </cc:Work>
    </rdf:RDF>
  </metadata>
  <g
     inkscape:label="Layer 1"
     inkscape:groupmode="layer"
     id="layer1"
     transform="translate(1125.7142,507.63782)">
    <image
       y="-507.63782"
       x="-1125.7142"
       id="image3051"
       xlink:href="file:///G:/07/Gskps.jpg"
       height="2000"
       width="3000" />
    <path
       style="fill:none;stroke:#000000;stroke-width:1px;stroke-linecap:butt;stroke-linejoin:miter;stroke-opacity:1"
       d="M 580.71429,382.14286 600,402.14286 612.14286,425 675,425.71428 l 18.57143,-1.42857 40.71429,-5 22.85714,2.14286 25,3.57143 27.14286,-5 27.14285,0.71428 L 865,417.85714 893.57143,415 l 25,0.71428 23.57143,-3.57142 33.57143,-2.85715 27.14281,-3.57143 44.2858,-3.57142 40,-2.14286 20,0 L 1130,400.71428 1147.1429,400 1180,396.42857 l 68.5714,-7.14286 c 0,0 44.2857,7.14286 49.2857,5.71429 5,-1.42857 9.2858,1.42857 9.2858,1.42857 l -3.5715,9.28571 -4.2857,5.71429 8.5714,5 -3.5714,11.42857 -7.8571,30 -13.5715,65.71429 -10,31.42857 -8.5714,38.57143 -3.5714,19.28571 -5.7143,35.71429 -2.1429,15 5.7143,30 0,43.57143 0,43.57142 0.7143,58.57143 -0.7143,41.42857 -1.4285,41.42858 -1.4286,39.28571 2.1428,20 1.4286,34.28573 1.4286,55 1.4286,37.8571 1.4285,34.2857 3.5715,36.4286 7.1428,15 6.4286,37.8572 -1.4286,17.1428 -28.5714,1.4286 -111.4286,-3.5714 c 0,0 -43.5714,-5 -50,-5 -6.4286,0 -46.4286,-3.5715 -46.4286,-3.5715 l -17.1428,0 -28.57144,-5 -35,-5.7143 -36.42857,-2.8571 -41.42857,-7.1429 -35,0 -13.57143,-6.4285 -14.28572,-12.1429 c 0,0 -13.57143,0.7143 -18.57143,0.7143 -5,0 -10,3.5714 -15,5 -5,1.4286 -24.28571,11.4286 -24.28571,11.4286 L 745,1223.5714 l -22.85714,0.7143 c 0,0 -9.28572,5 -14.28572,5 -5,0 -25,-1.4286 -25,-1.4286 l -28.57143,-3.5714 -38.57142,-0.7143 -32.14286,-2.1428 -29.28572,5.7143 -23.57142,6.4285 -19.28572,2.1429 -25.71428,1.4286 -31.42858,-0.7143 -21.42857,2.8571 -5,4.2857 -4.28571,-5.7143 -10,-6.4285 -7.14286,-3.5715 12.85714,-15.7142 L 450,1140 l 9.28571,-22.1429 8.57143,-48.5714 L 495,923.57143 507.85714,840 522.14286,787.85714 528.57143,757.14286 535,738.57143 543.57143,724.28571 550,712.14286 l -2.14286,-13.57143 -5,-10 1.42857,-26.42857 L 547.85714,615 548.57143,598.57143 555,520.71428 l 3.57143,-70 1.42857,-43.57142 0,-15.71429 8.57143,1.42857 5.71428,-11.42857 z"
       id="area_1"
       inkscape:connector-curvature="0"
       transform="translate(-1125.7142,-507.63782)"
       inkscape:label="#path3054" />
    <path
       style="fill:none;stroke:#000000;stroke-width:1px;stroke-linecap:butt;stroke-linejoin:miter;stroke-opacity:1"
       d="m 1285,519.28571 64.6429,-2.14286 59.2857,-1.07142 108.2143,-0.71429 40,1.07143 19.2857,2.14286 11.4285,2.14285 7.8572,-1.07143 11.7857,-1.07142 19.2857,-3.57143 17.1429,-4.64286 11.7857,-1.42857 13.5714,2.85714 22.1429,2.14286 18.5714,2.85714 11.4286,1.78572 11.0714,1.78571 71.7857,0 12.5,-2.5 c 0,0 13.5714,-3.21429 15.3572,-3.21429 1.7857,0 20.7142,1.42858 20.7142,1.42858 l 13.5715,5 2.5,3.57142 -1.4286,5.71429 -1.0714,2.14286 5.7143,13.57143 -3.5715,11.42857 -5,36.07143 -7.1428,40.71428 c 0,0 -2.8572,20.71429 -3.2143,22.5 -0.3572,1.78572 -4.2857,36.07143 -4.2857,36.07143 l -6.7857,36.42857 -3.5715,20.35715 -3.2143,12.5 1.7858,14.64285 -6.0715,16.07143 -2.5,8.21429 14.2857,84.64285 5,28.21429 6.0715,32.5 4.2857,21.42857 5.7143,14.64286 4.2857,12.14286 -1.4286,10.35714 2.8572,17.1429 -0.3572,8.9285 -0.7143,11.0715 -1.0714,5.7142 8.2143,21.4286 6.7857,17.5 6.4286,17.1429 22.5,75 0.3571,7.5 c 0,0 -28.2143,1.4285 -29.6428,1.4285 -1.4286,0 -25.3572,1.0715 -25.3572,1.0715 l -32.8571,3.2143 -52.1429,1.7857 -14.6428,0 -4.6429,-2.1429 -59.6429,2.1429 -10.7142,-3.2143 -15.3572,0 -13.2143,-2.1429 -10.7143,-5 -11.7857,-5 -6.0714,-4.6428 -6.0714,-15.3572 -5.3572,-9.2857 -7.5,-5.7143 -10,-1.0714 -9.2857,0.7143 -4.6428,8.2143 -3.2143,5.7143 -12.1429,16.0714 -8.5714,8.5714 -17.5,4.2857 -28.9286,8.5715 -15.7143,4.6428 -27.5,2.8572 -31.7857,3.2142 -14.2857,2.5 -18.5714,5 -49.6429,14.2858 -12.5,2.5 -10.7143,4.6428 -26.7857,3.2143 -16.7857,2.5 -2.1429,-23.2143 3.5715,-8.9286 3.2143,-7.5 1.4285,-8.2142 1.4286,-7.5 0.3571,-13.2143 4.6429,-7.8572 -2.5,-22.8571 -1.0714,-25.7143 2.8571,-16.4286 3.9286,-50 2.5,-41.4285 3.5714,-64.6429 0,-60 0.3572,-20.71429 -1.4286,-10.71428 -1.4286,-6.78572 0.7143,-13.92857 0.3571,-19.64286 -1.4285,-46.07142 -2.1429,-7.85715 -0.3571,-26.42857 -1.0715,-13.21428 -2.1428,-23.92858 -1.4286,-12.5 -2.5,-42.5 -8.2143,-59.64285 -2.8571,-20.35715 1.0714,-4.28571 -1.4286,-1.78572 z"
       id="area_2"
       inkscape:connector-curvature="0"
       transform="translate(-1125.7142,-507.63782)"
       inkscape:label="#path3056" />
    <path
       style="fill:none;stroke:#000000;stroke-width:1px;stroke-linecap:butt;stroke-linejoin:miter;stroke-opacity:1"
       d="m 1896.0714,493.92857 7.1429,-3.57143 5,1.42857 3.9286,0.71429 2.5,-1.07143 2.5,-1.07143 1.7857,-1.42857 6.7857,3.57143 3.2143,0 3.9285,-1.07143 3.5715,1.42857 3.5714,0 4.6429,-1.78571 3.2142,1.42857 2.5,0 5.7143,-0.71429 2.8572,-1.42857 3.9285,-2.14286 3.2143,-0.35714 c 0,0 1.0715,1.42857 1.0715,3.57143 0,2.14286 1.7857,2.85714 1.7857,2.85714 l 4.2857,-2.85714 3.9286,-0.35714 c 0,0 2.1428,0.71428 3.9285,0 1.7857,-0.71429 7.5,0.71428 7.5,0.71428 l 11.4286,0 13.2143,0.35714 10,-0.35714 10.7143,0.71429 11.7857,0.35714 13.5714,-0.35714 17.1429,0 15.7143,1.78571 12.1428,1.42857 8.9286,1.78572 8.9286,3.92857 15.7142,6.07143 16.4286,6.07143 16.7857,12.85714 10.3572,10.35714 3.9285,2.5 2.8572,-2.85714 3.2143,-3.57143 4.6428,3.92857 7.8572,-0.35714 6.0714,-0.71429 4.6429,1.78572 3.9285,-0.71429 13.2143,-4.28571 c 0,0 5.3572,-1.07143 7.1429,-1.07143 1.7857,0 11.0714,-1.78572 11.0714,-1.78572 l 11.7857,-1.07142 5.3572,-1.42858 3.9285,-1.78571 3.5715,-2.5 4.6428,-3.92857 0.7143,3.57143 -2.5,2.85714 5.7143,-2.5 5.3571,-0.71429 4.2857,-1.07142 1.0715,-2.5 3.9285,2.5 5.3572,1.42857 2.5,0 2.5,-2.85715 5.7143,1.07143 3.2143,4.64286 5.7142,-5 6.4286,3.21429 7.1429,4.28571 9.2857,0.71429 4.6428,-2.14286 7.5,-1.42857 3.2143,1.42857 0,-5 7.8572,-0.35714 3.2143,1.07142 8.5714,1.42858 7.8571,1.78571 3.5715,-0.71429 2.8571,-1.42857 2.5,-1.78571 5.7143,-1.42857 12.5,-3.21429 5.7143,-1.78571 11.7857,-3.92857 2.5,-3.21429 2.5,-0.35714 1.7857,3.57143 8.5714,-3.21429 2.1429,-3.92857 2.5,1.78571 6.7857,-1.07143 2.1429,-3.57142 2.8571,1.42857 1.7857,1.42857 6.7857,-2.14286 3.9286,-0.35714 7.1429,21.07143 3.5714,10.71428 -0.7143,3.21429 -0.7143,1.07143 -6.7857,29.64285 -9.2857,43.57143 -11.7857,27.5 -10,16.07143 -2.1429,2.85715 5.7143,32.14285 9.2857,38.92857 0,3.92858 -3.5714,5.35714 -3.2143,5.35714 0.3571,3.92857 11.4286,42.14286 L 2477.5,835 l 3.2143,17.14286 -1.7857,10.71428 1.7857,7.5 1.0714,11.07143 -4.6428,21.42857 -1.0715,2.5 30,63.57143 17.1429,32.85713 26.0714,52.5 16.7857,39.2857 10,17.1429 8.9286,16.4286 9.6429,15.7142 -11.4286,50 -4.2857,1.7858 -7.5,-2.8572 -7.8572,-4.6428 -6.7857,-3.9286 -2.8571,-1.4286 c 0,0 -2.1429,0.7143 -3.9286,0.7143 -1.7857,0 -10,-6.0714 -10,-6.0714 l -4.6429,-2.1429 -5.7142,0.3572 -9.2858,-3.9286 -7.8571,-3.2143 -3.2143,1.4286 -5.7143,-0.3572 -3.5714,-5 -9.6429,-2.5 -10,0.3572 c 0,0 -5.7142,3.5714 -7.8571,4.2857 -2.1429,0.7143 -13.9286,6.4286 -13.9286,6.4286 l -8.9285,6.0714 -7.1429,2.5 -5.7143,2.5 -4.6428,1.7857 -7.8572,0.7143 -5.3571,-0.7143 -4.6429,1.4286 -0.3571,2.5 -5.3572,0 -7.1428,2.1428 -3.2143,2.1429 -7.1429,2.1428 -11.7857,1.7858 -11.4286,2.1428 -4.2857,1.7857 -6.7857,1.4286 -10,1.4286 -10.3571,2.8571 -3.9286,2.8572 -16.0714,-1.0715 -13.2143,-0.7143 -8.5714,-0.3571 -28.2143,0.7143 c 0,0 -0.3572,4.6428 -2.8572,5 -2.5,0.3571 -2.8571,-2.1429 -5.3571,-2.1429 -2.5,0 -4.2857,-5 -4.2857,-5 l -7.1429,-2.8571 -5.3571,-3.2143 -5.7143,0.7143 -1.7857,1.0714 c 0,0 -4.2857,-0.3571 -6.4286,-1.0714 -2.1429,-0.7143 -5.7143,-2.8572 -5.7143,-2.8572 0,0 -10.3571,-1.7857 -13.9286,-1.0714 -3.5714,0.7143 -11.0714,0.7143 -11.0714,0.7143 l -13.9286,1.7857 -48.2142,14.2857 -2.1429,1.4286 -103.2143,-7.8571 -48.5714,-5 c 0,0 -42.5,0 -43.9286,0 -1.4286,0 -4.6428,1.0714 -6.0714,1.0714 -1.4286,0 -5,1.0714 -7.1429,1.0714 -2.1428,0 -3.2143,-1.7857 -3.2143,-1.7857 l 0.7143,-8.2143 4.2857,-4.6428 3.9286,-6.7858 13.2143,-60.7142 0.3571,-5.7143 -2.1428,-10.3572 -2.5,-14.2857 0.3571,-15 -4.2857,-74.2857 6.0714,-70.35714 -0.7142,-62.85715 0.7142,-45.71428 1.7858,-27.5 -5,-20.35715 -3.2143,-14.28571 -2.8572,-18.92857 -5.3571,-28.21429 -3.9286,-32.85714 -2.1428,-9.64286 -6.0715,-27.85714 -1.7857,-11.07143 -2.1428,-17.5 -2.1429,-15 -7.8571,-39.64286 -2.5,-14.28571 -1.4286,-7.5 -0.7143,-8.57143 -3.2143,-7.14286 1.7857,-11.42857 -0.3571,-10 z"
       id="area_3"
       inkscape:connector-curvature="0"
       transform="translate(-1125.7142,-507.63782)"
       inkscape:label="#path3058" />
    <text
       xml:space="preserve"
       style="font-size:230.19277954px;font-style:normal;font-weight:normal;line-height:125%;letter-spacing:0px;word-spacing:0px;fill:#000000;fill-opacity:1;stroke:none;font-family:Sans"
       x="-29.660749"
       y="-195.55382"
       id="navigation"
       sodipodi:linespacing="125%"
       transform="scale(0.91734873,1.090098)"
       inkscape:label="#text3060"><tspan
         sodipodi:role="line"
         id="tspan3062"
         x="-29.660749"
         y="-195.55382">1 2 3</tspan></text>
  </g>
</svg>
