<?xml version="1.0" encoding="UTF-8" standalone="no"?>
<!-- Created with Inkscape (http://www.inkscape.org/) -->

<svg
   xmlns:dc="http://purl.org/dc/elements/1.1/"
   xmlns:cc="http://creativecommons.org/ns#"
   xmlns:rdf="http://www.w3.org/1999/02/22-rdf-syntax-ns#"
   xmlns:svg="http://www.w3.org/2000/svg"
   xmlns="http://www.w3.org/2000/svg"
   xmlns:xlink="http://www.w3.org/1999/xlink"
   xmlns:sodipodi="http://sodipodi.sourceforge.net/DTD/sodipodi-0.dtd"
   xmlns:inkscape="http://www.inkscape.org/namespaces/inkscape"
   width="787"
   height="533"
   id="svg3064"
   version="1.1"
   inkscape:version="0.48.3.1 r9886"
   sodipodi:docname="New document 7">
  <defs
     id="defs3" />
  <sodipodi:namedview
     inkscape:document-units="mm"
     id="base"
     pagecolor="#ffffff"
     bordercolor="#666666"
     borderopacity="1.0"
     inkscape:pageopacity="0.0"
     inkscape:pageshadow="2"
     inkscape:zoom="1.4"
     inkscape:cx="387.35491"
     inkscape:cy="263.0692"
     inkscape:current-layer="layer1"
     showgrid="false"
     units="mm"
     fit-margin-top="0"
     fit-margin-left="0"
     fit-margin-right="0"
     fit-margin-bottom="0"
     inkscape:window-width="1366"
     inkscape:window-height="706"
     inkscape:window-x="-8"
     inkscape:window-y="-8"
     inkscape:window-maximized="1" />
  <metadata
     id="metadata4">
    <rdf:RDF>
      <cc:Work
         rdf:about="">
        <dc:format>image/svg+xml</dc:format>
        <dc:type
           rdf:resource="http://purl.org/dc/dcmitype/StillImage" />
        <dc:title></dc:title>
      </cc:Work>
    </rdf:RDF>
  </metadata>
  <g
     inkscape:label="Layer 1"
     inkscape:groupmode="layer"
     id="layer1"
     transform="translate(762.07141,-54.433613)">
    <image
       y="55.1479"
       x="-762.07141"
       id="image3078"
       xlink:href="file:///G:/07/Gsli.jpg"
       height="533"
       width="787" />
    <path
       style="fill:none;stroke:#000000;stroke-width:1px;stroke-linecap:butt;stroke-linejoin:miter;stroke-opacity:1"
       d="M 363.92857,27.642856 C 365.35714,27.999999 382.5,27.285713 382.5,27.285713 l 19.28571,1.071429 c 0,0 12.14286,0 14.28572,1.785714 2.14286,1.785715 31.42857,7.857143 31.42857,7.857143 l 19.64286,7.142857 15,8.928572 c 0,0 3.92857,3.928571 3.57143,5.714286 -0.35715,1.785714 -1.78572,10.714285 -1.78572,10.714285 l -2.85714,5 1.78571,7.142857 c 0,0 0,8.214286 0,10 0,1.785715 -2.5,8.214284 -2.5,8.214284 0,0 -0.71428,4.64286 -0.35714,6.07143 0.35714,1.42857 0.71429,7.85714 0.71429,7.85714 0,0 -16.07143,20 -17.85715,21.07143 C 461.07143,136.92857 453.57143,138 453.57143,138 l -7.5,-1.07143 -38.21429,-13.57143 2.14286,-10 -2.85714,-6.78571 -6.07143,-2.14286 -10.35714,-3.21428 c 0,0 -4.28572,-1.07143 -5.71429,-1.07143 -1.42857,0 -6.42857,5.35714 -6.42857,5.35714 l -5.35714,8.57143 -10.35715,-2.85714 -2.5,-15.714291 -3.21428,-3.928571 -5.35715,-2.142857 -7.14285,-2.142857 -3.57143,0.357142 -0.71429,0 1.42857,-11.428571 2.5,-10.714286 3.57143,-10.357143 5,-12.857142 2.5,-4.285715 6.78572,-8.214286 z"
       id="area_9"
       inkscape:connector-curvature="0"
       transform="translate(-762.07141,54.433613)"
       inkscape:label="#path3081" />
    <path
       style="fill:none;stroke:#000000;stroke-width:1px;stroke-linecap:butt;stroke-linejoin:miter;stroke-opacity:1"
       d="m 320.71429,79.785714 14.64285,6.428571 3.92857,2.142857 3.21429,-1.071428 6.07143,1.428571 8.57143,3.214286 2.85714,5 c 0,0 1.42857,6.785719 1.42857,8.571429 0,1.78571 2.5,8.57143 2.5,8.57143 L 362.14286,123 l -0.35715,5 0.71429,3.21429 -2.5,3.21428 -1.42857,4.28572 -1.42857,3.57142 L 357.5,144.42857 351.07143,153 350,156.92857 l -4.64286,2.5 -3.57143,5 -2.14285,4.64286 -5,4.64286 -2.5,1.07142 -5,0.35715 0.71428,5.35714 -1.78571,0.35714 -4.64286,-1.42857 -5.35714,-2.85714 c 0,0 -1.07143,-2.5 -2.5,-2.5 -1.42857,0 -6.42857,-1.78572 -6.42857,-1.78572 l -5.71429,-2.85714 -4.64286,-1.78571 -2.5,-1.07143 -7.14285,-6.42857 -2.14286,-4.28572 -3.57143,-2.5 L 280,148 l 1.42857,-5.71429 3.57143,-6.07142 1.42857,-4.64286 3.21429,-3.57143 9.28571,-14.64286 2.85714,-7.5 4.64286,-4.64285 1.07143,-2.857148 3.92857,-3.571428 4.64286,-1.785715 3.57143,0.357143 2.5,0.714286 0.35714,-2.857143 -6.07143,-1.071429 -0.35714,-1.428571 0,-3.928571 1.78571,-2.5 0,-2.142858 z"
       id="area_8"
       inkscape:connector-curvature="0"
       transform="translate(-762.07141,54.433613)"
       inkscape:label="#path3083" />
    <path
       style="fill:none;stroke:#000000;stroke-width:1px;stroke-linecap:butt;stroke-linejoin:miter;stroke-opacity:1"
       d="m 372.85714,119.78571 0.71429,-7.14285 4.64286,-4.28572 4.28571,-5.71428 5,-2.857146 20,5.714286 1.78571,5 0,3.92857 -1.42857,3.57143 -0.35714,3.92857 -0.35714,2.85714 2.85714,0.35715 2.5,4.64285 -0.35714,5.71429 0,8.57143 -1.42857,10.35714 -3.57143,8.57143 -0.35715,3.57143 -1.07142,4.64286 -3.92858,2.85714 -3.57142,0.35714 1.07142,2.85714 -3.92857,5.35715 -4.28571,5.35714 -2.5,2.14286 -5.35714,1.78571 -5,0.35714 -5.35715,-1.07142 -3.92857,-0.71429 -5.35714,0 -6.78572,-1.07143 -3.92857,-1.07143 -5,-2.5 -1.78571,-3.92857 0.35714,-5 2.14286,-2.5 0.35714,-3.57143 0.71429,-4.28571 0,-8.21429 2.5,-3.92857 2.85714,-5 2.14286,-5.71428 1.42857,-2.85715 1.78571,-7.85714 2.85715,-1.42857 0,-3.21429 5.35714,-5.71428 z"
       id="area_7"
       inkscape:connector-curvature="0"
       transform="translate(-762.07141,54.433613)"
       inkscape:label="#path3085" />
    <path
       style="fill:none;stroke:#000000;stroke-width:1px;stroke-linecap:butt;stroke-linejoin:miter;stroke-opacity:1"
       d="m 67.857143,313 c 0,-1.78571 -0.714286,-10.35714 -0.714286,-10.35714 l -1.785714,-6.78572 0,-7.85714 3.928571,-9.28571 L 75,274.07143 78.571429,270.5 l 2.142857,-4.64286 c 0,0 1.785714,-2.5 3.571428,-3.92857 C 86.071429,260.5 91.428572,255.5 91.428572,255.5 l 5.714285,-4.64286 10.357143,-6.42857 9.28571,-5.71428 9.28572,-3.92858 5.71428,-2.5 7.5,-1.07142 8.92858,-0.35715 8.21428,1.78572 5,3.21428 3.92857,6.07143 3.21429,3.21429 12.85714,12.5 7.5,4.28571 4.64286,6.42857 3.21428,4.64286 8.21429,1.07143 10.35714,5.35714 1.42857,3.21429 1.07143,7.5 0.35715,5 -1.07143,5.35714 -6.07143,5.71429 -47.85714,44.28571 -7.5,4.28571 -6.07143,3.21429 -8.57143,3.92857 -8.21429,0.71429 -9.64285,-3.21429 -6.42858,-5.35714 -4.64285,-5 0.35714,-2.85714 2.5,-1.42858 -4.64286,-3.92857 -5.35714,-4.28571 -1.42857,-4.64286 -3.928573,0 L 95,327.28571 80.357143,323 75,322.28571 71.785714,320.14286 70,315.85714 z"
       id="area_4"
       inkscape:connector-curvature="0"
       transform="translate(-762.07141,54.433613)"
       inkscape:label="#path3087" />
    <path
       style="fill:none;stroke:#000000;stroke-width:1px;stroke-linecap:butt;stroke-linejoin:miter;stroke-opacity:1"
       d="m 198.92857,326.21429 10,-11.42858 7.5,-8.21428 3.92857,-2.5 1.07143,-3.21429 1.78572,-2.5 L 225,295.5 l 5.71429,-4.64286 2.85714,-1.07143 1.07143,-3.57142 2.5,-3.21429 3.57143,-3.92857 2.5,-3.92857 3.21428,-6.07143 4.28572,-5 7.14285,-6.42857 7.85715,-3.21429 2.5,-0.35714 2.5,-7.85714 4.64285,-5.71429 5.35715,-4.64286 7.14285,-2.85714 7.5,-0.71429 11.42857,-0.71428 9.64286,1.42857 11.07143,6.42857 11.78571,6.07143 7.14286,4.64286 11.78572,7.85714 7.5,2.85714 6.07142,7.5 3.21429,8.92857 2.14286,7.85715 -0.71429,11.78571 -2.14286,8.57143 -3.21428,5 -5,0.35714 -0.35714,6.07143 -1.07143,7.14286 -5.35715,7.14286 -0.35714,3.57142 -4.64286,5.71429 -6.78571,6.07143 c 0,0 -1.07143,1.78571 -2.5,1.78571 -1.42857,0 -3.21429,-1.07143 -3.21429,-1.07143 l -3.57142,6.78572 -4.28572,6.42857 -2.5,6.42857 -6.07143,5 -7.85714,7.5 -5,2.85714 -6.78571,1.42858 -7.14286,-0.35715 L 292.14286,380.5 280,377.64286 l -9.28571,-6.78572 -6.78572,0.35715 -6.42857,-2.14286 -2.5,-2.85714 -7.5,-2.5 -10,-3.92858 -7.85714,-3.92857 -4.64286,-3.92857 -3.92857,-1.78571 c 0,0 -2.14286,-0.71429 -3.57143,-0.71429 -1.42857,0 -2.5,-2.14286 -3.92857,-2.14286 -1.42857,0 -5.71429,-3.21428 -5.71429,-3.21428 L 201.07143,338.71429 196.42857,338 z"
       id="area_5"
       inkscape:connector-curvature="0"
       transform="translate(-762.07141,54.433613)"
       inkscape:label="#path3089" />
    <path
       style="fill:none;stroke:#000000;stroke-width:1px;stroke-linecap:butt;stroke-linejoin:miter;stroke-opacity:1"
       d="m 177.14286,345.5 3.57143,-2.5 3.92857,-2.5 6.07143,-0.35714 3.21428,0.35714 2.85714,2.5 3.92858,6.42857 3.21428,4.64286 5.71429,0 10,3.57143 7.5,3.21428 4.64285,2.14286 5.35715,2.85714 5,1.42857 5.35714,3.57143 5.35714,2.14286 13.92857,8.57143 12.85715,5.35714 6.78571,2.14286 8.21429,3.57143 2.5,8.92857 -3.57143,6.07143 -7.85714,10 -6.78572,8.92857 -10,10 L 255,447.64286 243.21429,455.85714 235,459.78571 l -12.14286,8.92858 -11.78571,7.5 -6.78572,2.85714 c 0,0 -12.5,3.21428 -13.92857,2.85714 -1.42857,-0.35714 -16.42857,1.78572 -16.42857,1.78572 l -12.5,-3.92858 L 155,476.92857 135,468.71429 121.78571,459.78571 116.07143,455.5 107.85714,448 102.5,441.21429 l -5.714286,-12.5 1.071429,-8.92858 1.785714,-11.42857 5.000003,-7.5 6.78571,-3.57143 3.92857,-2.85714 21.34866,-14.83762 25.54687,-19.31784 z"
       id="area_6"
       inkscape:connector-curvature="0"
       transform="translate(-762.07141,54.433613)"
       sodipodi:nodetypes="cccccccccccccccccccccccccccccccsccccccccccccccccc"
       inkscape:label="#path3091" />
    <path
       style="fill:none;stroke:#000000;stroke-width:1px;stroke-linecap:butt;stroke-linejoin:miter;stroke-opacity:1"
       d="m 461.07143,235.85714 7.5,-1.07143 3.57143,-0.71428 9.64286,-0.71429 9.64285,1.07143 11.78572,2.5 7.85714,3.57143 7.14286,3.21429 5.35714,4.64285 9.28571,5.35715 7.14286,5 6.78572,7.14285 7.85714,8.57143 4.28571,7.85714 3.21429,7.85715 L 562.5,298 l -5.71428,6.07143 -9.28572,10.71428 -7.85714,5.71429 -6.78572,-2.5 -5.71428,1.07143 -7.5,6.07143 L 512.5,333 l -1.78571,2.5 -4.64286,2.5 -7.85714,2.5 -7.85715,4.64286 -3.92857,2.5 -10,-2.85715 -10.35714,-1.42857 L 455.71429,338 l -11.42858,-5.71429 -5,-4.64285 -0.35714,-1.78572 -6.42857,-3.57143 -5.35714,-4.64285 -4.28572,-7.14286 -5,-10 0.35715,-20.71429 2.5,-13.21428 5.35714,-9.64286 10.35714,-8.21428 8.57143,-6.42858 8.92857,-4.64285 z"
       id="area_1"
       inkscape:connector-curvature="0"
       transform="translate(-762.07141,54.433613)"
       inkscape:label="#path3093" />
    <path
       style="fill:none;stroke:#000000;stroke-width:1px;stroke-linecap:butt;stroke-linejoin:miter;stroke-opacity:1"
       d="m 448.92857,363.35714 14.64286,-5 10.35714,-3.92857 9.28572,-3.57143 4.28571,-3.92857 10.71429,-6.07143 7.85714,-1.78571 6.78571,-3.57143 6.07143,-10.71429 11.78572,-6.42857 7.14285,0.71429 4.64286,7.14286 7.5,4.28571 17.85714,15.35714 19.64286,15.71429 15,10 17.14286,7.5 9.28571,5.71428 3.21429,6.42858 -1.42857,11.42857 -2.85715,10.71428 -11.07142,12.85715 -18.92858,17.14285 -14.64285,11.78572 -7.5,6.78571 -9.28572,7.85714 -11.42857,4.28572 -8.57143,0.71428 -10,3.92858 L 530,479.07143 520,478 l -8.57143,-5.71429 -11.07143,-7.85714 -13.21428,-11.07143 -11.07143,-9.64285 -14.28571,-13.57143 -12.14286,-11.07143 -12.5,-8.57143 -8.21429,-12.14286 -2.85714,-8.92857 L 430,378 l 6.78571,-6.07143 z"
       id="area_3"
       inkscape:connector-curvature="0"
       transform="translate(-762.07141,54.433613)"
       inkscape:label="#path3095" />
    <path
       style="fill:none;stroke:#000000;stroke-width:1px;stroke-linecap:butt;stroke-linejoin:miter;stroke-opacity:1"
       d="m 646.78572,393 22.14285,-20.35714 21.42857,-15.71429 21.78572,-18.21428 7.14286,-5.35715 3.57142,-10 0.35715,-6.78571 6.07143,-3.57143 5,-5 -0.35715,-8.21429 -3.57143,-9.64285 -3.57142,-3.21429 -6.42858,-3.57143 L 717.5,278 l -2.5,-0.35714 -7.5,-2.85715 -7.14286,-4.64285 -6.07142,-4.64286 -2.5,-1.07143 -6.42858,-6.42857 -8.57142,-4.28571 -4.64286,-3.92858 -6.78572,-2.5 -7.5,-3.21428 -7.85714,-2.14286 -4.28571,0.71429 -5,2.14285 -6.78572,2.5 -2.14285,4.28572 -0.35715,3.57143 -5,1.42857 -9.28571,6.07143 -7.5,6.07143 -1.78572,6.42857 -2.14285,3.57143 -12.5,6.42857 -4.64286,4.28571 -3.92857,5 -5.35714,5 c 0,0 -7.14286,3.92857 -8.57143,4.28572 -1.42857,0.35714 -11.07143,6.78571 -11.07143,6.78571 l -4.28572,2.85714 -2.85714,4.28572 -4.28571,6.78571 2.14285,6.42857 23.21429,19.28572 16.78571,13.21428 16.42858,10.35715 13.57142,5.35714 11.42858,10 1.78571,1.42857 8.21429,2.85714 z"
       id="area_2"
       inkscape:connector-curvature="0"
       transform="translate(-762.07141,54.433613)"
       inkscape:label="#path3097" />
    <text
       xml:space="preserve"
       style="font-size:40px;font-style:normal;font-weight:normal;line-height:125%;letter-spacing:0px;word-spacing:0px;fill:#000000;fill-opacity:1;stroke:none;font-family:Sans"
       x="70"
       y="39.42857"
       id="navigation"
       sodipodi:linespacing="125%"
       transform="translate(-762.07141,54.433613)"
       inkscape:label="#text3099"><tspan
         sodipodi:role="line"
         id="tspan3101"
         x="70"
         y="39.42857">9 8 7 4 5 1 2 6 3</tspan></text>
  </g>
</svg>
