<?xml version="1.0" encoding="UTF-8" standalone="no"?>
<!-- Created with Inkscape (http://www.inkscape.org/) -->

<svg
   xmlns:dc="http://purl.org/dc/elements/1.1/"
   xmlns:cc="http://creativecommons.org/ns#"
   xmlns:rdf="http://www.w3.org/1999/02/22-rdf-syntax-ns#"
   xmlns:svg="http://www.w3.org/2000/svg"
   xmlns="http://www.w3.org/2000/svg"
   xmlns:xlink="http://www.w3.org/1999/xlink"
   xmlns:sodipodi="http://sodipodi.sourceforge.net/DTD/sodipodi-0.dtd"
   xmlns:inkscape="http://www.inkscape.org/namespaces/inkscape"
   width="800"
   height="500"
   id="svg2"
   version="1.1"
   inkscape:version="0.48.2 r9819"
   sodipodi:docname="Gspns.svg">
  <defs
     id="defs4" />
  <sodipodi:namedview
     id="base"
     pagecolor="#ffffff"
     bordercolor="#666666"
     borderopacity="1.0"
     inkscape:pageopacity="0.0"
     inkscape:pageshadow="2"
     inkscape:zoom="0.7"
     inkscape:cx="605.5247"
     inkscape:cy="203.36599"
     inkscape:document-units="px"
     inkscape:current-layer="layer1"
     showgrid="false"
     fit-margin-top="0"
     fit-margin-left="0"
     fit-margin-right="0"
     fit-margin-bottom="-0.5"
     inkscape:window-width="1366"
     inkscape:window-height="706"
     inkscape:window-x="-8"
     inkscape:window-y="-8"
     inkscape:window-maximized="1" />
  <metadata
     id="metadata7">
    <rdf:RDF>
      <cc:Work
         rdf:about="">
        <dc:format>image/svg+xml</dc:format>
        <dc:type
           rdf:resource="http://purl.org/dc/dcmitype/StillImage" />
      </cc:Work>
    </rdf:RDF>
  </metadata>
  <g
     inkscape:label="Layer 1"
     inkscape:groupmode="layer"
     id="layer1"
     transform="translate(-5.7142859,-485.21933)">
    <image
       y="478.14828"
       x="6.9769764"
       id="image2993"
       xlink:href="file:///J:/08/Gspns.jpg"
       height="500"
       width="800" />
    <path
       style="fill:none;stroke:#000000;stroke-width:1px;stroke-linecap:butt;stroke-linejoin:miter;stroke-opacity:1"
       d="m 193.44421,232.56211 c 0,0 -25.50635,-10.10152 -18.68782,-41.41625 6.81853,-31.31473 26.5165,-41.41626 26.5165,-41.41626 0,0 6.81853,-3.53553 16.41498,2.52539 9.59645,6.06091 18.94036,26.5165 17.42514,42.17386 -1.51523,15.65737 -2.52539,26.51651 -29.54697,38.13326 l -3.42318,33.86646 -1.07143,23.21429 c 0,0 -0.35714,21.07143 0,21.78571 0.35714,0.71429 2.14286,14.46429 0.35714,26.42857 -1.78571,11.96429 1.25,15.53572 1.25,15.53572 0,0 5.17857,13.03571 -2.85714,22.67857 -8.03572,9.64286 -18.39286,8.39286 -18.39286,8.39286 0,0 -15.17857,-3.21429 -16.42857,-11.07143 -1.25,-7.85715 6.78571,-21.25 6.78571,-21.25 0,0 4.10715,-5.71429 3.03572,-18.03572 0,0 -0.35714,-9.28571 2.67857,-18.21428 3.03571,-8.92857 6.96429,-20.35715 7.5,-24.28572 0.53571,-3.92857 5.17857,-32.5 5.17857,-32.5 z"
       id="area_1"
       inkscape:connector-curvature="0"
       transform="translate(5.7142859,485.21933)"
       inkscape:label="#path3022" />
    <path
       style="fill:none;stroke:#000000;stroke-width:1px;stroke-linecap:butt;stroke-linejoin:miter;stroke-opacity:1"
       d="m 276.02418,202.51008 c 0,0 -1.01015,-3.53554 -3.78807,-4.29315 -2.77792,-0.75762 -31.8198,-7.32361 -30.05204,-45.45687 1.76777,-38.13326 30.30458,-49.24493 30.30458,-49.24493 0,0 36.87057,-13.637064 55.55839,20.45558 18.68782,34.09265 -9.84899,65.91246 -11.11168,66.92261 -1.26269,1.01015 -25.25381,12.12183 -25.25381,12.12183 0,0 -4.54569,5.80838 -5.55584,18.68782 -1.01015,12.87945 -1.76777,53.79063 -1.76777,53.79063 l 1.26269,38.89087 c 0,0 -3.03046,26.26397 -2.0203,27.27412 1.01015,1.01015 4.79822,11.11168 5.3033,17.67767 0.50507,6.56599 0.50507,8.83883 0.50507,8.83883 0,0 -1.76776,8.83884 -12.12183,10.35407 0,0 -11.36421,8.83883 -22.72843,1.51523 0,0 -12.62691,-1.76777 -10.35406,-15.65737 0,0 3.78807,-9.34391 5.3033,-12.12183 1.51523,-2.77792 6.56599,-12.12183 6.81853,-15.40483 0.25254,-3.28299 -0.75762,-15.40482 3.28299,-30.55711 4.04061,-15.15229 9.09138,-41.92133 9.09138,-41.92133 l 7.07107,-44.69925 z"
       id="area_2"
       inkscape:connector-curvature="0"
       transform="translate(5.7142859,485.21933)"
       inkscape:label="#path3024" />
    <path
       style="fill:none;stroke:#000000;stroke-width:1px;stroke-linecap:butt;stroke-linejoin:miter;stroke-opacity:1"
       d="m 379.05974,203.52023 c 0,0 -0.25254,-4.54569 -3.78807,-8.5863 -3.53553,-4.04061 -24.24366,-6.06091 -26.01143,-38.89087 -1.76776,-32.82996 19.1929,-58.841388 19.1929,-58.841388 0,0 11.36422,-11.364216 18.94036,-11.869292 7.57615,-0.505077 14.64721,3.535534 17.42513,6.313453 2.77792,2.77792 23.99113,21.213207 22.98097,55.810927 -1.01015,34.59773 -29.04188,48.23479 -29.04188,48.23479 0,0 -4.54569,2.77791 -5.3033,7.07106 -0.75762,4.29315 -2.02031,32.82996 -2.02031,32.82996 l 1.76777,43.43656 c 0,0 4.29315,39.14341 1.76777,52.78047 0,0 -1.2627,3.283 0,6.56599 1.26269,3.283 5.80837,10.35407 6.06091,19.1929 0.25254,8.83884 0.25254,11.11168 0.25254,11.11168 0,0 0.50508,4.04061 -11.36422,7.82868 0,0 -10.10152,9.59645 -23.73858,0.50508 0,0 -14.64721,-0.50508 -10.35407,-17.67767 4.29315,-17.1726 6.81853,-16.41498 6.81853,-16.41498 0,0 4.04061,-10.6066 4.04061,-16.92006 0,-6.31345 1.51523,-21.71828 2.27285,-26.01142 0.75761,-4.29315 6.31345,-32.32489 6.31345,-32.32489 0,0 7.3236,-56.06346 3.78807,-64.14468 z"
       id="area_3"
       inkscape:connector-curvature="0"
       transform="translate(5.7142859,485.21933)"
       inkscape:label="#path3026" />
    <path
       style="fill:none;stroke:#000000;stroke-width:1px;stroke-linecap:butt;stroke-linejoin:miter;stroke-opacity:1"
       d="m 476.03438,175.48849 c 0,0 1.01016,-3.53553 -6.31345,-6.06091 -7.3236,-2.52538 -18.43528,-3.283 -29.04188,-25.75889 -10.6066,-22.47589 6.56599,-60.104077 13.13198,-68.185298 6.56599,-8.08122 19.69798,-22.223356 30.80965,-22.223356 11.11168,0 28.78935,14.647212 30.55712,18.940361 1.76777,4.293148 19.74347,25.26248 13.13198,59.851533 -4.61308,24.13405 -7.01759,24.17827 -14.64721,31.56727 -6.19187,5.99659 -19.1929,8.33376 -19.1929,8.33376 0,0 -3.78807,2.02031 -3.53553,3.03046 0.25254,1.01015 0.75761,63.13453 0.75761,63.13453 l 4.04061,34.85027 c 0,0 4.54569,20.20305 4.79823,30.05203 0.25253,9.84899 0.25253,15.65737 0.25253,15.65737 0,0 0.50508,7.3236 2.77792,11.61675 2.27285,4.29315 10.35407,21.97082 10.60661,26.76904 0.25253,4.79823 0,12.37437 0,12.37437 0,0 -2.52539,6.06092 -10.85914,8.5863 0,0 -11.8693,12.62691 -29.29443,0.50508 0,0 -14.14213,-0.25254 -13.63706,-16.66752 0.50508,-16.41498 10.85914,-35.1028 10.85914,-35.1028 0,0 3.78807,-5.05076 3.03046,-13.63706 -0.75761,-8.5863 -2.4641,-17.16516 0.31382,-35.85298 2.77792,-18.68782 2.4641,-76.02142 2.4641,-76.02142 z"
       id="areea_4"
       inkscape:connector-curvature="0"
       transform="translate(5.7142859,485.21933)"
       sodipodi:nodetypes="cssssssscsccscsscccscsscc"
       inkscape:label="#path3028" />
    <path
       style="fill:none;stroke:#000000;stroke-width:1px;stroke-linecap:butt;stroke-linejoin:miter;stroke-opacity:1"
       d="m 598.57143,160.35714 c 0,0 0,-7.85714 -7.85714,-8.57143 C 582.85714,151.07143 542.5,142.85714 542.5,90.357142 c 0,-52.5 25.35714,-80 32.85714,-85.7142856 7.5,-5.7142858 23.21429,-10.0000001 37.14286,1.0714285 13.92857,11.0714291 42.14286,46.7857141 41.78572,87.8571431 -0.35715,41.071432 -36.42858,57.500002 -36.42858,57.500002 0,0 -4.64285,0.71428 -3.21428,7.14286 1.42857,6.42857 21.07143,118.57142 21.07143,118.57142 l 33.21428,158.92858 c 0,0 10.35715,32.5 1.07143,39.64285 -9.28571,7.14286 -13.21428,10.71429 -33.57143,6.07143 -20.35714,-4.64286 -17.5,-24.64286 -20.71429,-28.92857 l -4.28571,-130.71429 z"
       id="area_5"
       inkscape:connector-curvature="0"
       transform="translate(5.7142859,485.21933)"
       sodipodi:nodetypes="cssssscsccssc"
       inkscape:label="#path3030" />
    <text
       xml:space="preserve"
       style="font-size:40px;font-style:normal;font-weight:normal;line-height:125%;letter-spacing:0px;word-spacing:0px;fill:#000000;fill-opacity:1;stroke:none;font-family:Sans"
       x="68.571426"
       y="44.285713"
       id="navigation"
       sodipodi:linespacing="125%"
       transform="translate(5.7142859,485.21933)"
       inkscape:label="#text3032"><tspan
         sodipodi:role="line"
         x="68.571426"
         y="44.285713"
         id="tspan3036">1 2 3 4 5</tspan></text>
  </g>
</svg>
