<?xml version="1.0" encoding="UTF-8" standalone="no"?>
<!-- Created with Inkscape (http://www.inkscape.org/) -->

<svg
   xmlns:dc="http://purl.org/dc/elements/1.1/"
   xmlns:cc="http://creativecommons.org/ns#"
   xmlns:rdf="http://www.w3.org/1999/02/22-rdf-syntax-ns#"
   xmlns:svg="http://www.w3.org/2000/svg"
   xmlns="http://www.w3.org/2000/svg"
   xmlns:xlink="http://www.w3.org/1999/xlink"
   xmlns:sodipodi="http://sodipodi.sourceforge.net/DTD/sodipodi-0.dtd"
   xmlns:inkscape="http://www.inkscape.org/namespaces/inkscape"
   width="800"
   height="533"
   id="svg3132"
   version="1.1"
   inkscape:version="0.48.3.1 r9886"
   sodipodi:docname="New document 11">
  <defs
     id="defs3" />
  <sodipodi:namedview
     inkscape:document-units="mm"
     id="base"
     pagecolor="#ffffff"
     bordercolor="#666666"
     borderopacity="1.0"
     inkscape:pageopacity="0.0"
     inkscape:pageshadow="2"
     inkscape:zoom="0.98994949"
     inkscape:cx="298.99948"
     inkscape:cy="465.25307"
     inkscape:current-layer="layer1"
     showgrid="false"
     units="mm"
     fit-margin-top="0"
     fit-margin-left="0"
     fit-margin-right="0"
     fit-margin-bottom="0"
     inkscape:window-width="1366"
     inkscape:window-height="706"
     inkscape:window-x="-8"
     inkscape:window-y="-8"
     inkscape:window-maximized="1" />
  <metadata
     id="metadata4">
    <rdf:RDF>
      <cc:Work
         rdf:about="">
        <dc:format>image/svg+xml</dc:format>
        <dc:type
           rdf:resource="http://purl.org/dc/dcmitype/StillImage" />
        <dc:title></dc:title>
      </cc:Work>
    </rdf:RDF>
  </metadata>
  <g
     inkscape:label="Layer 1"
     inkscape:groupmode="layer"
     id="layer1"
     transform="translate(50,-265.86218)">
    <image
       y="265.86218"
       x="-50"
       id="image3169"
       xlink:href="file:///G:/07/Gspn.jpg"
       height="533"
       width="800" />
    <path
       style="fill:none;stroke:#000000;stroke-width:1px;stroke-linecap:butt;stroke-linejoin:miter;stroke-opacity:1"
       d="m 203.04066,401.17509 0.50508,-12.6269 -2.52538,-9.09138 0.50507,-24.74873 -1.51523,-21.71828 0,-19.1929 1.01016,-24.74874 3.03045,-31.31473 7.57615,-6.06091 11.61675,-8.08122 6.06092,-11.11168 4.54568,-11.61676 0.25254,-15.65736 -1.38896,-9.47018 -3.91434,-9.34391 -5.93464,-10.10153 -5.17704,-5.42957 -3.53553,-2.39911 -7.57614,-2.52538 -4.9245,0.12627 -3.6618,2.14657 -3.15673,2.14658 -5.68211,6.94479 -6.94479,9.09138 -4.41942,9.84898 -3.03046,8.46003 -1.26269,10.10153 1.01015,13.63706 1.38896,8.33376 3.53554,5.17703 6.06091,6.9448 c 0,0 5.05076,4.67195 5.80838,5.3033 0.75761,0.63134 2.14657,2.52538 2.14657,2.52538 l -5.05076,34.47145 -4.41942,27.90547 -6.06091,23.61231 -1.26269,5.17704 -1.01016,9.97525 -1.38896,14.52095 -0.50507,5.80837 -3.283,7.32361 c 0,0 -3.03046,5.17703 -3.40926,6.06091 -0.37881,0.88389 -3.03046,6.69226 -3.03046,6.69226 0,0 -1.51523,5.55584 -0.88388,6.81853 0.63134,1.26269 1.76776,4.41942 1.76776,4.41942 0,0 2.02031,4.54569 2.52538,5.3033 0.50508,0.75762 5.68211,5.05076 5.68211,5.05076 0,0 6.9448,2.27285 7.95495,2.27285 1.01016,0 6.31346,-1.38896 6.31346,-1.38896 0,0 5.80837,-4.79823 6.43972,-4.9245 0.63135,-0.12626 8.20749,-6.43972 8.33376,-6.94479 0.12627,-0.50508 0.88388,-7.70242 0.88388,-7.70242 z"
       id="area_1"
       inkscape:connector-curvature="0"
       transform="translate(-50,265.86218)"
       inkscape:label="#path3172" />
    <path
       style="fill:none;stroke:#000000;stroke-width:1px;stroke-linecap:butt;stroke-linejoin:miter;stroke-opacity:1"
       d="m 285.87317,113.53416 c 0,0 10.35406,1.01015 11.36422,1.01015 1.01015,0 8.08122,3.78807 8.08122,3.78807 0,0 11.36421,7.82868 11.86929,8.83883 0.50508,1.01016 9.84899,11.36422 9.84899,11.36422 l 4.54568,12.37437 0.25254,18.94036 -4.54568,24.74874 -8.83884,13.38452 -12.22775,9.02746 -14.54129,8.65021 -3.78807,5.3033 -2.65165,10.6066 c 0,0 -0.12627,17.93021 -0.37881,18.81409 -0.25254,0.88388 -1.01015,18.18275 -1.01015,18.18275 l -0.37881,28.78934 1.13642,27.14785 -0.12627,28.28428 0,11.36421 1.6415,6.69226 1.76777,6.43973 c 0,0 0.25253,9.97525 0.25253,10.48033 0,0.50507 -0.63134,6.81853 -0.63134,6.81853 l -6.31345,5.3033 -7.82869,2.90419 -4.04061,3.28299 -8.71256,-0.12627 -5.68211,-1.89403 -6.43972,-4.29315 -4.04061,-2.27284 -1.13643,-7.82869 0.50508,-8.08122 4.41942,-7.82868 3.78807,-7.44987 3.283,-11.8693 0.88388,-24.36993 7.32361,-29.04188 4.04061,-21.21321 3.78807,-26.13769 2.77792,-27.52666 0.88388,-12.62691 c 0,0 -0.63134,-2.90419 -1.26269,-3.15672 -0.63135,-0.25254 -4.54569,-2.77792 -4.54569,-2.77792 l -3.40926,-0.50508 -5.93465,-4.04061 -7.07107,-4.41942 -4.16687,-5.55584 -4.67196,-11.86929 -1.89404,-8.46003 -0.63134,-21.33947 1.6415,-9.09137 3.53553,-9.47018 5.55584,-9.34391 3.40926,-4.79823 5.93465,-5.17703 8.33376,-5.05076 7.57614,-3.15673 4.9245,-1.6415 z"
       id="area_2"
       inkscape:connector-curvature="0"
       transform="translate(-50,265.86218)"
       inkscape:label="#path3174"
       sodipodi:nodetypes="cscscccccccccscccccccsccccccccccccccccccccccccccccccccccccc" />
    <path
       style="fill:none;stroke:#000000;stroke-width:1px;stroke-linecap:butt;stroke-linejoin:miter;stroke-opacity:1"
       d="m 393.07561,98.255598 c 0.25254,0.631345 5.3033,2.020302 5.3033,2.020302 l 6.31345,5.3033 c 0,0 5.68211,7.07107 6.31346,7.44988 0.63134,0.37881 4.79822,7.57614 4.79822,7.57614 l 4.67196,9.34391 2.77792,8.20749 1.6415,6.56599 1.76776,12.87945 0,17.17259 -1.26269,8.08122 c 0,0 -3.15673,8.71257 -3.28299,9.47018 -0.12627,0.75762 -6.06092,8.46003 -6.06092,8.46003 l -13.51079,12.2481 c 0,0 -4.67196,3.91434 -5.3033,4.29315 -0.63135,0.37881 -4.29315,4.67195 -4.29315,4.67195 l -1.01015,4.67196 -1.6415,32.82996 0.75761,31.94607 1.76777,20.58186 2.02031,22.98097 0.3788,33.33503 2.27285,5.93465 1.89403,5.80838 1.26269,4.67195 0.37881,5.55584 0,8.46003 -0.75761,4.41942 -2.65165,3.28299 -8.08122,4.54569 -4.16688,2.77792 -3.53554,1.13642 -5.55584,0.88388 -6.31345,-0.12626 -5.42957,-2.77792 -4.92449,-3.66181 -1.89404,-2.65165 -2.65165,-5.93464 0.25254,-11.23795 2.65165,-6.9448 3.03046,-7.32361 2.39911,-8.58629 2.27284,-8.5863 1.51523,-28.53681 4.54569,-20.45559 2.77792,-20.70812 2.90419,-30.30458 1.01015,-20.07678 0.25254,-13.8896 -1.38896,-3.40927 -2.27285,-4.04061 -5.51753,-3.34427 -5.34161,-4.23187 -4.16688,-4.67195 -5.6821,-6.566 -2.14658,-4.04061 -2.90419,-12.50063 -1.13642,-13.8896 0.75762,-14.26841 1.64149,-7.07106 1.89404,-6.18719 1.76777,-6.69226 3.6618,-6.69226 2.65165,-6.56599 3.283,-4.9245 4.41941,-5.17703 5.55584,-6.18718 4.9245,-3.40927 4.04061,-2.020301 3.53553,-0.12627 z"
       id="area_3"
       inkscape:connector-curvature="0"
       transform="translate(-50,265.86218)"
       inkscape:label="#path3176"
       sodipodi:nodetypes="cccsccccccccccscccccccccccccccccccccccccccccccccccccccccccccccccccccccc" />
    <path
       style="fill:none;stroke:#000000;stroke-width:1px;stroke-linecap:butt;stroke-linejoin:miter;stroke-opacity:1"
       d="m 487.65114,64.415487 4.9245,1.010153 5.55583,2.399112 3.66181,2.651651 4.04061,3.788072 3.03046,3.661803 4.29314,4.671955 c 0,0 2.52539,3.535534 2.90419,4.545687 0.37881,1.010152 2.52538,5.555839 2.52538,5.555839 l 3.78808,7.828681 2.0203,7.44988 2.52538,8.08122 1.6415,12.12183 -0.25254,12.6269 -0.37881,15.65737 -1.89403,7.44987 -3.03046,5.93465 -3.53553,5.80838 -4.79823,5.93464 -4.41941,3.15673 -6.31346,4.16688 -7.44987,2.90419 -6.06092,1.26269 -0.88388,27.40039 1.26269,32.32488 0.75761,19.1929 1.76777,10.48033 c 0,0 0.12627,13.76333 0.75761,14.64721 0.63135,0.88388 2.14658,11.86929 2.14658,11.86929 l 2.90419,12.37437 0.88388,27.7792 0.25254,6.69226 3.15673,6.56599 4.54568,9.97526 3.40927,10.48033 1.38896,6.56599 -0.37881,13.63706 -3.40927,5.17703 -7.57614,3.53553 -4.29315,3.283 -9.21764,1.6415 -8.20749,-1.89404 -4.79822,-2.52538 -2.52539,-2.39911 -5.80837,-1.51523 -3.53554,-4.04061 -2.14657,-3.40927 -1.38896,-7.19733 0.37881,-8.33376 2.14657,-6.31345 3.91434,-11.8693 1.76777,-5.3033 2.90419,-6.06091 1.13642,-41.03745 1.76777,-20.8344 1.89403,-28.03173 0.25254,-18.94036 -0.25254,-20.45559 0.25254,-21.59201 -0.25254,-10.48033 -4.16688,-2.77792 -6.43972,-1.76777 -7.44987,-3.40926 -5.68211,-6.06092 -6.31346,-8.71256 -4.92449,-9.84899 -1.26269,-7.07107 -0.63135,-10.10153 -0.12626,-9.84898 0,-12.2481 2.77791,-10.35407 4.29315,-12.2481 6.81853,-12.753171 7.57615,-10.101526 7.82868,-6.81853 5.93465,-4.293148 4.41941,-2.020305 4.04061,-0.883883 5.05077,0.126269 4.04061,1.26269 z"
       id="area_4"
       inkscape:connector-curvature="0"
       transform="translate(-50,265.86218)"
       inkscape:label="#path3178" />
    <path
       style="fill:none;stroke:#000000;stroke-width:1px;stroke-linecap:butt;stroke-linejoin:miter;stroke-opacity:1"
       d="m 591.44432,5.9529089 7.3236,1.767767 9.59645,3.7880721 c 0,0 6.31345,3.788072 7.07107,4.798225 0.75761,1.010152 7.07107,6.565991 7.57614,7.576144 0.50508,1.010152 8.08122,10.859139 8.08122,10.859139 l 6.81853,11.364217 5.80838,12.626906 6.31345,18.687823 3.78808,18.94036 -1.01016,16.667518 -1.76776,11.86929 -4.29315,11.61676 -5.3033,13.13198 -8.83884,8.83883 -12.12183,8.33376 -7.57614,4.04061 1.76776,6.56599 7.82869,52.2754 11.86929,74.49875 11.61675,59.34646 22.22336,106.31856 4.04061,21.97081 0.75761,15.15229 -5.05076,8.5863 c 0,0 -3.78807,3.78807 -5.05076,4.79822 -1.26269,1.01016 -10.85914,3.283 -10.85914,3.283 0,0 -8.5863,-1.76777 -10.35406,-1.76777 -1.76777,0 -10.60661,-2.77792 -10.60661,-2.77792 l -11.11167,-10.6066 -4.29315,-5.80838 -2.02031,-54.80077 -1.51523,-53.53809 -3.53553,-67.93276 -1.76777,-35.86041 -3.03046,-50.76017 -3.53553,-42.93148 -2.0203,-19.1929 -1.01016,-4.79822 c 0,0 -2.0203,-3.03046 -3.78807,-3.283 -1.76777,-0.25254 -8.33376,-2.77792 -8.33376,-2.77792 l -10.35406,-6.06091 -13.13198,-8.08122 -8.83884,-11.11168 -8.08122,-18.18275 -2.77792,-12.6269 -0.25254,-19.445441 1.51523,-13.889597 1.76777,-10.101526 5.05076,-17.677669 4.29315,-10.85914 6.06092,-9.59645 7.07106,-8.08122 5.55584,-6.565991 7.32361,-5.8083776 6.06091,-2.5253814 z"
       id="area_5"
       inkscape:connector-curvature="0"
       transform="translate(-50,265.86218)"
       inkscape:label="#path3180" />
    <text
       xml:space="preserve"
       style="font-size:40px;font-style:normal;font-weight:normal;line-height:125%;letter-spacing:0px;word-spacing:0px;fill:#000000;fill-opacity:1;stroke:none;font-family:Sans"
       x="131.31982"
       y="492.5939"
       id="navigation"
       sodipodi:linespacing="125%"
       transform="translate(-50,265.86218)"
       inkscape:label="#text3182"><tspan
         sodipodi:role="line"
         id="tspan3184"
         x="131.31982"
         y="492.5939">5 4 3 2 1</tspan></text>
  </g>
</svg>
