<?xml version="1.0" encoding="UTF-8" standalone="no"?>
<!-- Created with Inkscape (http://www.inkscape.org/) -->

<svg
   xmlns:dc="http://purl.org/dc/elements/1.1/"
   xmlns:cc="http://creativecommons.org/ns#"
   xmlns:rdf="http://www.w3.org/1999/02/22-rdf-syntax-ns#"
   xmlns:svg="http://www.w3.org/2000/svg"
   xmlns="http://www.w3.org/2000/svg"
   xmlns:xlink="http://www.w3.org/1999/xlink"
   xmlns:sodipodi="http://sodipodi.sourceforge.net/DTD/sodipodi-0.dtd"
   xmlns:inkscape="http://www.inkscape.org/namespaces/inkscape"
   width="799"
   height="533"
   id="svg3299"
   version="1.1"
   inkscape:version="0.48.2 r9819"
   sodipodi:docname="Gswt2.svg">
  <defs
     id="defs3301" />
  <sodipodi:namedview
     id="base"
     pagecolor="#ffffff"
     bordercolor="#666666"
     borderopacity="1.0"
     inkscape:pageopacity="0.0"
     inkscape:pageshadow="2"
     inkscape:zoom="0.7"
     inkscape:cx="429.82219"
     inkscape:cy="392.1607"
     inkscape:document-units="px"
     inkscape:current-layer="layer1"
     showgrid="false"
     fit-margin-top="0"
     fit-margin-left="0"
     fit-margin-right="0"
     fit-margin-bottom="0"
     inkscape:window-width="1366"
     inkscape:window-height="706"
     inkscape:window-x="-8"
     inkscape:window-y="-8"
     inkscape:window-maximized="1" />
  <metadata
     id="metadata3304">
    <rdf:RDF>
      <cc:Work
         rdf:about="">
        <dc:format>image/svg+xml</dc:format>
        <dc:type
           rdf:resource="http://purl.org/dc/dcmitype/StillImage" />
        <dc:title></dc:title>
      </cc:Work>
    </rdf:RDF>
  </metadata>
  <g
     inkscape:label="Layer 1"
     inkscape:groupmode="layer"
     id="layer1"
     transform="translate(24.5,-265.86218)">
    <image
       y="265.86218"
       x="-24.5"
       id="image3315"
       xlink:href="file:///J:/08/Gswt2.jpg"
       height="533"
       width="799" />
    <path
       style="fill:none;stroke:#000000;stroke-width:1px;stroke-linecap:butt;stroke-linejoin:miter;stroke-opacity:1"
       d="m 171.60714,82.107142 3.92857,-4.464286 c 0,0 24.28572,0.357143 26.60715,1.785714 2.32143,1.428572 0,16.428572 0,16.428572 l -3.75,33.392858 -16.60715,-0.53572 -9.10714,53.21429 c 0,0 -2.5,2.67857 -3.39286,-0.89286 l 7.14286,-52.5 -8.21428,-0.71428 c 0,0 -1.25,-7.14286 -0.53572,-9.28572 0.71429,-2.14285 3.92857,-36.428568 3.92857,-36.428568 z"
       id="area_1"
       inkscape:connector-curvature="0"
       transform="translate(-24.5,265.86218)"
       inkscape:label="#path3318" />
    <path
       style="fill:none;stroke:#000000;stroke-width:1px;stroke-linecap:butt;stroke-linejoin:miter;stroke-opacity:1"
       d="m 209.10714,80.142856 c 0,0 8.21429,-6.607143 10.35715,-9.464286 2.14285,-2.857142 6.25,-3.928571 6.25,-3.928571 l 11.96428,0.357143 c 0,0 3.21429,1.428571 3.57143,4.464286 0.35714,3.035714 -0.17857,15 -0.17857,15 l -3.57143,3.392857 3.92857,2.678571 5,10.714284 c 0,0 -1.78571,17.14286 -5.53571,18.92857 -3.75,1.78572 -10,2.14286 -10,2.14286 l -0.35715,6.25 3.57143,4.46429 -4.82143,8.57142 -3.92857,39.64286 c 0,0 -2.85714,3.57143 -5.71428,-0.17857 l 3.92857,-56.60714 -9.82143,-6.60715 -0.71429,-19.46428 5.35715,-9.285715 z"
       id="area_2"
       inkscape:connector-curvature="0"
       transform="translate(-24.5,265.86218)"
       inkscape:label="#path3320" />
    <path
       style="fill:none;stroke:#000000;stroke-width:1px;stroke-linecap:butt;stroke-linejoin:miter;stroke-opacity:1"
       d="m 260.35714,96.392856 c 0,0 -0.53571,-15.714286 18.75,-20 0,0 6.96429,-4.464286 15.71429,3.75 0,0 12.14286,5.357143 9.64286,16.428572 -2.5,11.071432 -0.53572,10.000002 -0.53572,10.000002 0,0 -1.42857,7.5 -15.17857,7.14285 0,0 -3.92857,0.71429 -4.28571,6.07143 -0.35715,5.35715 -5.89286,61.25 -5.89286,61.25 l -6.78572,0.35715 6.60715,-69.10715 c 0,0 -15.71429,2.14286 -18.03572,-15.892854 z"
       id="area_3"
       inkscape:connector-curvature="0"
       transform="translate(-24.5,265.86218)"
       inkscape:label="#path3322" />
    <path
       style="fill:none;stroke:#000000;stroke-width:1px;stroke-linecap:butt;stroke-linejoin:miter;stroke-opacity:1"
       d="m 140.89286,212.10714 c -0.35715,5.35715 3.03571,7.5 3.03571,7.5 l 118.92857,-2.67857 c 0.69704,-0.49789 5.462,0.94551 6.96429,-3.39286 2.36629,-6.83348 5.17857,-3.75 5.17857,-3.75 l 8.03571,7.32143 18.21429,-1.42857 -6.42857,-24.10714 -16.42857,2.14285 -6.25,7.32143 L 268.75,198 c 0,0 -111.25,0.53571 -119.28571,1.42857 -8.03572,0.89286 -8.75,5.35714 -8.75,5.35714 L 140,202.64286 l -15.53571,-14.82143 -13.03572,19.46428 11.60714,6.42858 c 0,0 9.64286,0 13.39286,-2.32143 z"
       id="area_4"
       inkscape:connector-curvature="0"
       transform="translate(-24.5,265.86218)"
       sodipodi:nodetypes="ccccscccccccsccc"
       inkscape:label="#path3324" />
    <path
       style="fill:none;stroke:#000000;stroke-width:1px;stroke-linecap:butt;stroke-linejoin:miter;stroke-opacity:1"
       d="m 105.89286,229.96429 3.39285,-2.32143 53.21429,1.07143 c 0,0 75.89286,-2.5 100,1.78571 24.10714,4.28571 22.67857,2.67857 22.67857,2.67857 L 282.85714,266.75 152.5,266.92857 c 0,0 -15.53571,1.07143 -20.89286,2.14286 -5.35714,1.07143 -28.39285,1.60714 -28.39285,1.60714 z"
       id="area_5"
       inkscape:connector-curvature="0"
       transform="translate(-24.5,265.86218)"
       inkscape:label="#path3326" />
    <path
       style="fill:none;stroke:#000000;stroke-width:1px;stroke-linecap:butt;stroke-linejoin:miter;stroke-opacity:1"
       d="m 106.78571,303.53571 3.03572,-3.92857 6.07143,3.57143 27.14285,2.67857 8.57143,3.39286 36.78572,-4.10714 32.5,-5.71429 c 0,0 10,-7.85714 13.03571,-14.28571 l 6.25,0.71428 13.75,-1.07143 c 0,0 17.14286,16.42857 33.21429,14.82143 0,0 1.42857,5 33.57143,-12.32143 0,0 11.96428,-0.71428 18.03571,-7.14285 l 8.39286,0 c 0,0 2.67857,5.53571 14.10714,3.92857 0,0 7.85714,0.35714 8.75,10.35714 0.89286,10 2.5,16.42857 2.5,16.42857 0,0 1.07143,8.75 -11.25,17.5 -12.32143,8.75 -7.14286,3.75 -18.39286,12.32143 l -29.28571,0.71429 c 0,0 -13.92857,-3.21429 -22.32143,0.71428 l -42.14286,-13.57143 c 0,0 -38.57143,-11.60714 -46.07143,-18.39285 L 165.17857,313 c 0,0 -30.17857,8.75 -41.42857,5.89286 -11.25,-2.85715 -15.35714,-5.17857 -15.35714,-5.17857 l -0.17857,-3.57143 3.75,-0.35715 c 0,0 13.21428,10.17858 38.03571,2.85715 0,0 -22.67857,-4.10715 -29.82143,-3.92857 -7.14286,0.17857 -13.39286,-5.17858 -13.39286,-5.17858 z"
       id="area_6"
       inkscape:connector-curvature="0"
       transform="translate(-24.5,265.86218)"
       sodipodi:nodetypes="ccccccccccc"
       inkscape:label="#path3328" />
    <path
       style="fill:none;stroke:#000000;stroke-width:1px;stroke-linecap:butt;stroke-linejoin:miter;stroke-opacity:1"
       d="m 408.57143,316.03571 0.71429,-3.75 10.71428,0 0.89286,2.67858 c 0,0 18.03571,3.39285 16.25,18.75 -1.78572,15.35714 -34.28572,7.32142 -34.28572,7.32142 0,0 -17.85714,-13.39285 1.60715,-22.32142 z"
       id="area_14"
       inkscape:connector-curvature="0"
       transform="translate(-24.5,265.86218)"
       inkscape:label="#path3330" />
    <path
       style="fill:none;stroke:#000000;stroke-width:1px;stroke-linecap:butt;stroke-linejoin:miter;stroke-opacity:1"
       d="m 413.92857,295.85714 c -0.89285,-1.25 -11.96428,-12.67857 0.17857,-21.25 0,0 5,-4.82143 12.5,0.71429 0,0 14.10715,-7.5 18.03572,2.5 3.92857,10 -10.35714,21.96428 -10.35714,21.96428 0,0 -9.28572,5.53571 -20.35715,-3.92857 z"
       id="area_13"
       inkscape:connector-curvature="0"
       transform="translate(-24.5,265.86218)"
       inkscape:label="#path3332" />
    <path
       style="fill:none;stroke:#000000;stroke-width:1px;stroke-linecap:butt;stroke-linejoin:miter;stroke-opacity:1"
       d="m 491.42857,338.71429 c 0,0 -3.75,-1.96429 -1.42857,-7.67858 -2.48793,-2.49667 -1.02796,-6.68529 -0.35714,-10.53571 0.26101,-3.70422 -0.27291,-7.27594 2.67857,-11.42857 l 9.10714,0.17857 c 4.79777,3.15871 4.58328,7.15279 3.75,11.25 1.69495,3.63095 1.74923,7.26191 1.07143,10.89286 0.21377,4.04675 -0.96172,5.77809 -2.14286,7.5 z"
       id="area_19"
       inkscape:connector-curvature="0"
       transform="translate(-24.5,265.86218)"
       sodipodi:nodetypes="ccccccccc"
       inkscape:label="#path3334" />
    <path
       style="fill:none;stroke:#000000;stroke-width:1px;stroke-linecap:butt;stroke-linejoin:miter;stroke-opacity:1"
       d="m 489.82143,270.5 c 0,0 -10.17857,-18.39286 8.03571,-20.89286 0,0 9.64286,-0.71428 12.32143,6.60715 0,0 17.32143,-1.60715 25,10.89285 -0.53571,2.14286 -2.5,8.92857 -17.85714,14.82143 0,0 -12.5,14.10714 -23.57143,5.71429 C 482.67857,279.25 489.82143,270.5 489.82143,270.5 z"
       id="area_18"
       inkscape:connector-curvature="0"
       transform="translate(-24.5,265.86218)"
       inkscape:label="#path3336" />
    <path
       style="fill:none;stroke:#000000;stroke-width:1px;stroke-linecap:butt;stroke-linejoin:miter;stroke-opacity:1"
       d="m 329.28571,253 1.78572,-8.03571 c 0,0 -1.42857,-18.57143 0.89286,-21.60715 l 5.35714,5.35715 4.10714,0.71428 10.89286,-8.03571 73.57143,0.17857 20,9.46428 10.53571,-0.35714 -0.89285,22.5 -2.5,7.85714 -10.17858,-1.25 -10.17857,5.89286 -82.14285,-0.17857 -11.25,-10.89286 z"
       id="area_12"
       inkscape:connector-curvature="0"
       transform="translate(-24.5,265.86218)"
       inkscape:label="#path3338" />
    <path
       style="fill:none;stroke:#000000;stroke-width:1px;stroke-linecap:butt;stroke-linejoin:miter;stroke-opacity:1"
       d="m 338.92857,209.60714 -7.85714,-4.28571 -1.96429,-8.03572 4.46429,-12.85714 12.14286,-1.42857 0.17857,5.71428 3.75,1.96429 7.14286,-10.17857 c 0,0 65.89285,1.42857 74.64285,4.28571 l 2.32143,4.46429 3.92857,1.25 2.67857,-0.71429 6.78572,4.82143 1.60714,9.28572 -2.5,3.21428 0.35714,5.17857 -10.71428,2.14286 -0.89286,-5.53571 -3.39286,0 -1.07142,4.64285 -74.46429,-1.42857 L 351.25,199.96429 348.03572,200.5 z"
       id="area_11"
       inkscape:connector-curvature="0"
       transform="translate(-24.5,265.86218)"
       inkscape:label="#path3340" />
    <path
       style="fill:none;stroke:#000000;stroke-width:1px;stroke-linecap:butt;stroke-linejoin:miter;stroke-opacity:1"
       d="m 334.28571,175.85714 c 0,0 5.53572,-14.10714 5.71429,-19.28571 l 8.21429,1.42857 6.60714,-1.42857 76.78571,-0.89286 11.78572,3.75 11.42857,2.5 -1.60714,13.57143 -13.75,6.25 -7.5,1.07143 -75.17857,-3.57143 z"
       id="area_10"
       inkscape:connector-curvature="0"
       transform="translate(-24.5,265.86218)"
       inkscape:label="#path3342" />
    <path
       style="fill:none;stroke:#000000;stroke-width:1px;stroke-linecap:butt;stroke-linejoin:miter;stroke-opacity:1"
       d="m 350,152.10714 c -1.44748,-1.03392 0.26864,-4.55301 -8.75,-5.89286 -11.09558,-1.64841 -7.32143,-4.10714 -7.32143,-4.10714 L 345,139.42857 c 0,0 2.32143,-4.46429 6.42857,-4.82143 4.10715,-0.35714 86.42857,1.60714 86.42857,1.60714 L 442.5,141.75 l 3.75,-2.67857 3.92857,1.78571 4.10715,-0.17857 0,2.14286 -5.89286,5 -7.32143,0.53571 -4.82143,4.82143 z"
       id="area_9"
       inkscape:connector-curvature="0"
       transform="translate(-24.5,265.86218)"
       sodipodi:nodetypes="csccscccccccccc"
       inkscape:label="#path3344" />
    <path
       style="fill:none;stroke:#000000;stroke-width:1px;stroke-linecap:butt;stroke-linejoin:miter;stroke-opacity:1"
       d="m 344.46429,126.03571 -14.82143,-1.25 0.35714,-3.92857 10.17857,-0.53571 c 0,0 5.53572,-6.60715 11.42857,-6.60715 5.89286,0 83.39286,0.17858 83.39286,0.17858 l 0.71429,1.42857 5.71428,-2.67857 1.78572,3.92857 3.92857,-4.64286 5.89286,0.17857 2.32142,5.17857 c 0,0 -6.96428,4.28572 -8.57142,8.92857 0,0 -6.07143,-2.5 -9.28572,-0.35714 -3.21428,2.14286 -5,6.07143 -5,6.07143 l -80.17857,0.17857 c 0,0 -6.60714,-3.75 -7.85714,-6.07143 z"
       id="area_8"
       inkscape:connector-curvature="0"
       transform="translate(-24.5,265.86218)"
       inkscape:label="#path3346" />
    <path
       style="fill:none;stroke:#000000;stroke-width:1px;stroke-linecap:butt;stroke-linejoin:miter;stroke-opacity:1"
       d="m 354.82143,103 0,-27.32143 83.39286,1.071429 -0.89286,26.964281 z"
       id="area_7"
       inkscape:connector-curvature="0"
       transform="translate(-24.5,265.86218)"
       inkscape:label="#path3348" />
    <path
       style="fill:none;stroke:#000000;stroke-width:1px;stroke-linecap:butt;stroke-linejoin:miter;stroke-opacity:1"
       d="m 504.64286,238.35714 c 0,0 -29.10714,15.35715 -35.17857,-6.25 -6.07143,-21.60714 27.5,-19.46428 27.5,-19.46428 0,0 6.78571,0.53571 10.71428,4.10714 3.92857,3.57143 18.21429,-1.78571 18.21429,-1.78571 0,0 10,-3.39286 13.03571,0.89285 3.03572,4.28572 1.60715,10.53572 1.60715,10.53572 0,0 -2.85715,6.60714 -18.03572,5.71428 -15.17857,-0.89285 -17.85714,6.25 -17.85714,6.25 z"
       id="area_17"
       inkscape:connector-curvature="0"
       transform="translate(-24.5,265.86218)"
       inkscape:label="#path3350" />
    <path
       style="fill:none;stroke:#000000;stroke-width:1px;stroke-linecap:butt;stroke-linejoin:miter;stroke-opacity:1"
       d="m 479.28572,201.21429 c 0,0 -4.64286,-3.39286 -1.25,-7.14286 3.39285,-3.75 7.67857,-1.42857 7.67857,-1.42857 0,0 10.53571,-6.78572 20.71428,-6.42858 10.17857,0.35715 18.21429,0 18.21429,0 L 530,191.39286 c 0,0 13.21429,2.14285 3.92857,8.92857 0,0 -4.82143,1.25 -9.82143,1.96428 0,0 -8.75,6.78572 -17.67857,1.25 0,0 -3.75,-2.14285 -6.78571,-0.53571 -3.03572,1.60714 -5.53572,4.64286 -10.35714,0 0,0 -6.96428,1.42858 -10,-1.78571 z"
       id="area_16"
       inkscape:connector-curvature="0"
       transform="translate(-24.5,265.86218)"
       inkscape:label="#path3352" />
    <path
       style="fill:none;stroke:#000000;stroke-width:1px;stroke-linecap:butt;stroke-linejoin:miter;stroke-opacity:1"
       d="m 492.85714,164.96428 c 0,0 13.03572,6.60715 23.03572,-1.07142 0,0 0.0578,-11.82317 -4.82143,-19.28572 -3.03812,-4.64671 -2.44307,-7.55177 -2.85714,-8.21428 0,0 -3.57143,-8.21429 -8.03572,-0.35715 0,0 0,4.28572 -3.39285,7.5 -3.39286,3.21429 -5.35716,14.82142 -3.92858,21.42857 z"
       id="area_15"
       inkscape:connector-curvature="0"
       transform="translate(-24.5,265.86218)"
       sodipodi:nodetypes="ccsccsc"
       inkscape:label="#path3354" />
    <path
       style="fill:none;stroke:#000000;stroke-width:1px;stroke-linecap:butt;stroke-linejoin:miter;stroke-opacity:1"
       d="m 537.85714,125.32143 c 0,0 -1.96428,-31.428574 0.17858,-39.821431 l 63.03571,-0.178571 3.21429,21.428572 -1.25,17.85714 c 0,0 -63.03573,2.85715 -65.17858,0.71429 z"
       id="area_20"
       inkscape:connector-curvature="0"
       transform="translate(-24.5,265.86218)"
       inkscape:label="#path3356" />
    <path
       style="fill:none;stroke:#000000;stroke-width:1px;stroke-linecap:butt;stroke-linejoin:miter;stroke-opacity:1"
       d="m 575.53572,161.03571 c 0,0 -8.92858,3.21429 -15.89286,3.92857 -6.96429,0.71429 -14.10714,-14.82142 -14.10714,-14.82142 0,0 6.07142,-9.82143 11.42857,-10.89286 5.35714,-1.07143 26.96428,2.14286 26.96428,2.14286 0,0 6.96429,7.85714 6.78572,10 0,0 7.32143,10.53571 -1.42857,11.60714 0,0 -7.5,-2.67857 -13.75,-1.96429 z"
       id="area_21"
       inkscape:connector-curvature="0"
       transform="translate(-24.5,265.86218)"
       inkscape:label="#path3358" />
    <path
       style="fill:none;stroke:#000000;stroke-width:1px;stroke-linecap:butt;stroke-linejoin:miter;stroke-opacity:1"
       d="m 579.46429,202.10714 c 0,0 -6.25,-5.89285 5,-14.10714 11.25,-8.21429 12.14285,-6.42857 12.14285,-6.42857 0,0 10.89286,-0.71429 6.60715,9.82143 l -14.64286,12.14285 c 0,0 -3.74999,1.42857 -9.10714,-1.42857 z"
       id="path3360"
       inkscape:connector-curvature="0"
       transform="translate(-24.5,265.86218)" />
    <path
       style="fill:none;stroke:#000000;stroke-width:1px;stroke-linecap:butt;stroke-linejoin:miter;stroke-opacity:1"
       d="m 605.53572,206.57143 c 0,0 -11.25,-4.82143 -0.89286,-11.60714 l 5,-1.07143 6.07143,-8.39286 c 0,0 10.35714,-6.07143 10.35714,5.17857 0,11.25 -14.82142,18.57143 -20.53571,15.89286 z"
       id="area_22"
       inkscape:connector-curvature="0"
       transform="translate(-24.5,265.86218)"
       inkscape:label="#path3362" />
    <path
       style="fill:none;stroke:#000000;stroke-width:1px;stroke-linecap:butt;stroke-linejoin:miter;stroke-opacity:1"
       d="m 544.46429,276.21429 c -2.0265,-4.52482 1.01516,-7.14908 2.5,-10.35715 -1.47427,-2.50917 -1.26268,-5.22907 1.07143,-8.21428 -0.65897,-5.59839 2.27506,-8.50204 7.32142,-9.82143 -0.97824,-3.5081 0.82974,-5.78845 3.92858,-7.5 1.30249,-2.72877 2.55507,-5.48528 8.03571,-5.89286 1.13203,-2.31963 3.53295,-2.5244 6.07143,-2.5 0.24019,-3.94349 3.30769,-5.11149 7.67857,-5 l 8.21429,-0.53571 4.10714,-2.14286 3.75,2.14286 5.71428,-2.67857 4.10715,2.85714 5.17857,-2.67857 1.78571,2.85714 c 4.3472,-0.85989 7.31812,0.20702 9.28572,2.67857 5.46186,-1.0458 6.56539,1.17714 8.39285,2.85714 2.41976,-1.14773 4.59862,-1.45229 6.07143,0.71429 6.00199,-0.334 7.8243,0.72523 9.64286,1.78571 3.65511,0.27346 7.66599,0.19115 8.57143,3.21429 2.33579,0.53778 5.29632,-1.4234 6.78571,2.5 4.57916,0.62709 7.91969,1.87349 9.64286,3.92857 3.10686,-0.58581 4.86118,1.19531 6.07143,3.92857 4.12797,1.20179 6.82209,3.26389 8.57143,5.89286 1.60617,2.5 3.37893,5 2.67857,7.5 l 4.28571,4.64286 c 0,0 3.39286,5.89285 3.21429,8.39285 -0.17857,2.5 1.60714,6.60715 -0.35714,9.28572 l -1.42858,3.75 c 0.001,3.51296 -0.3283,6.76117 -2.67857,8.39286 0.95011,3.81755 -1.66673,4.66264 -3.39285,6.25 -2.69724,2.87845 -4.80384,6.4952 -9.28572,7.14285 -1.30992,2.49802 -3.25066,1.84193 -5,2.14286 -2.2975,2.11724 -4.67025,4.14355 -8.75,4.10714 -2.21013,1.0281 -3.06587,4.42638 -6.96428,2.5 -2.03784,1.16582 -3.94244,3.13113 -6.42858,1.60715 -3.71384,4.12437 -7.97512,1.67946 -12.14285,0.35714 -1.91611,0.26637 -3.55052,2.78632 -5.89286,-0.35714 -2.6076,4.14835 -4.62489,1.21298 -6.78571,0 -2.86043,2.30336 -5.51945,5.71447 -9.28572,3.03571 -3.09524,2.49042 -6.19047,2.21157 -9.28571,-0.53571 -2.77822,0.33443 -4.94569,4.63876 -8.57143,-0.53572 -3.89792,4.05689 -6.6254,2.08524 -9.64286,1.60714 -3.69048,-0.2392 -7.38095,0.2594 -11.07143,-2.67857 -2.59528,0.75082 -5.40902,0.69553 -8.92857,-1.96428 -4.04828,-1.30873 -7.76746,-3.01238 -9.46428,-7.14286 -2.81975,0.25602 -4.29376,-4.19803 -6.25,-6.96429 l -2.5,-5.71428 c -1.95949,-1.46434 -2.61771,-4.55525 -2.67858,-8.39286 -1.86817,-0.91296 -3.17574,-2.49863 -2.67857,-6.25 -2.84318,-1.67504 -2.57635,-5.21609 -3.21428,-8.21428 z"
       id="area_23"
       inkscape:connector-curvature="0"
       transform="translate(-24.5,265.86218)"
       sodipodi:nodetypes="ccccccccccccccccccccccccccscccccccccccccccccccccccc"
       inkscape:label="#path3364" />
    <text
       xml:space="preserve"
       style="font-size:40px;font-style:normal;font-weight:normal;line-height:125%;letter-spacing:0px;word-spacing:0px;fill:#000000;fill-opacity:1;stroke:none;font-family:Sans"
       x="88.571426"
       y="5.8571424"
       id="navigation"
       sodipodi:linespacing="125%"
       transform="translate(-24.5,265.86218)"
       inkscape:label="#text3368"><tspan
         sodipodi:role="line"
         id="tspan3370"
         x="88.571426"
         y="5.8571424">1 2 3 4 5 6 7 8 9 10 11 12 13 14 15 16 17 18 19 20 21 22 23</tspan></text>
  </g>
</svg>
