<?xml version="1.0" encoding="UTF-8" standalone="no"?>
<!-- Created with Inkscape (http://www.inkscape.org/) -->

<svg
   xmlns:dc="http://purl.org/dc/elements/1.1/"
   xmlns:cc="http://creativecommons.org/ns#"
   xmlns:rdf="http://www.w3.org/1999/02/22-rdf-syntax-ns#"
   xmlns:svg="http://www.w3.org/2000/svg"
   xmlns="http://www.w3.org/2000/svg"
   xmlns:xlink="http://www.w3.org/1999/xlink"
   xmlns:sodipodi="http://sodipodi.sourceforge.net/DTD/sodipodi-0.dtd"
   xmlns:inkscape="http://www.inkscape.org/namespaces/inkscape"
   id="svg2"
   version="1.1"
   inkscape:version="0.48.2 r9819"
   width="799"
   height="533"
   sodipodi:docname="Gtur.jpg">
  <metadata
     id="metadata8">
    <rdf:RDF>
      <cc:Work
         rdf:about="">
        <dc:format>image/svg+xml</dc:format>
        <dc:type
           rdf:resource="http://purl.org/dc/dcmitype/StillImage" />
        <dc:title></dc:title>
      </cc:Work>
    </rdf:RDF>
  </metadata>
  <defs
     id="defs6" />
  <sodipodi:namedview
     pagecolor="#ffffff"
     bordercolor="#666666"
     borderopacity="1"
     objecttolerance="10"
     gridtolerance="10"
     guidetolerance="10"
     inkscape:pageopacity="0"
     inkscape:pageshadow="2"
     inkscape:window-width="1680"
     inkscape:window-height="988"
     id="namedview4"
     showgrid="false"
     inkscape:zoom="1.612015"
     inkscape:cx="356.57117"
     inkscape:cy="261.80022"
     inkscape:window-x="-8"
     inkscape:window-y="-8"
     inkscape:window-maximized="1"
     inkscape:current-layer="svg2" />
  <image
     width="799"
     height="533"
     xlink:href="file:///F:/09/Gtur.jpg"
     id="image10"
     x="0"
     y="0" />
  <path
     style="fill:none;stroke:#000000;stroke-width:1px;stroke-linecap:butt;stroke-linejoin:miter;stroke-opacity:1"
     d="m 513.64286,104.34394 -19.85093,11.78649 -9.30513,9.92547 0,21.71196 9.92547,17.9899 11.16615,6.20342 25.434,6.20342 21.71196,1.86102 17.98991,-3.72205 16.12888,-11.16615 6.82376,-10.54581 -5.58308,-9.92546 5.58308,-9.30513 c 0,0 1.24068,-5.58307 1.24068,-8.68478 0,-3.10171 -11.16615,-14.8882 -11.16615,-14.8882 l -12.40683,-7.4441 -11.78649,-6.203413 -14.8882,-1.861024 -9.92547,0.620341 -12.40683,6.823756 z"
     id="area_1"
     inkscape:connector-curvature="0"
     inkscape:label="#path2987" />
  <path
     style="fill:none;stroke:#000000;stroke-width:1px;stroke-linecap:butt;stroke-linejoin:miter;stroke-opacity:1"
     d="m 622.82298,134.74068 -14.8882,11.16615 -8.06444,6.82376 -4.34239,10.54581 1.86103,17.9899 10.5458,13.02718 14.8882,11.16615 10.54581,4.34239 15.50854,4.34239 13.02717,0.62034 18.61025,-6.82376 9.30513,-8.68478 4.34239,-11.78649 1.86102,-17.36957 3.10171,-8.06444 -4.34239,0 -4.34239,-9.92546 c 0,0 1.24068,-8.06444 -1.24069,-8.06444 -2.48136,0 -4.34239,-1.24069 -4.34239,-1.24069 l -6.82375,-3.72205 -11.16615,-4.96273 -7.4441,-1.86102 -7.4441,-2.48137 -10.54581,0.62034 -5.58307,-1.24068 z"
     id="area_2"
     inkscape:connector-curvature="0"
     inkscape:label="#path2989" />
  <path
     style="fill:none;stroke:#000000;stroke-width:1px;stroke-linecap:butt;stroke-linejoin:miter;stroke-opacity:1"
     d="m 482.00544,176.92391 -14.26786,3.72205 -5.58308,11.16615 -0.62034,16.74923 14.26786,10.5458 10.54581,11.16615 8.06444,11.16615 2.48136,14.8882 c 0,0 8.68479,4.34239 11.16615,5.58307 2.48137,1.24069 19.85093,6.82376 19.85093,6.82376 0,0 20.47128,2.48137 23.57299,3.10171 3.1017,0.62034 17.9899,1.86102 20.47127,2.48137 2.48137,0.62034 23.57298,-1.86103 23.57298,-1.86103 l 14.26786,-0.62034 21.09161,-3.10171 11.78649,-3.72205 3.72205,-12.40683 1.24069,-17.98991 -6.82376,-11.78649 -19.23059,-10.54581 -14.26786,-4.96273 -24.19332,-8.68478 -19.23059,-6.82376 -11.16615,-0.62034 -12.40683,-6.82376 -16.74923,-3.72205 -16.12888,-3.72205 -14.8882,0 z"
     id="area_3"
     inkscape:connector-curvature="0"
     inkscape:label="#path2991" />
  <path
     style="fill:none;stroke:#000000;stroke-width:1px;stroke-linecap:butt;stroke-linejoin:miter;stroke-opacity:1"
     d="m 295.90295,246.40217 -1.24068,16.12889 -1.86103,8.68478 -4.34239,8.68478 -4.34239,11.16615 -14.26786,8.06444 -11.16615,9.30513 c 0,0 -2.48136,-1.24069 -6.20341,1.24068 -3.72205,2.48136 -6.82376,3.72205 -6.82376,3.72205 l -3.10171,4.34239 -1.86102,3.10171 7.4441,8.06444 8.68478,-0.62034 c 0,0 6.20341,-1.24069 8.68478,-1.86103 2.48137,-0.62034 12.40683,-4.34239 12.40683,-4.34239 l 9.30513,-4.96273 5.58307,-3.72205 6.82376,0 9.30512,0.62034 9.30513,-1.24068 6.82376,-3.10171 8.06444,-1.24068 8.06444,0.62034 9.30512,2.48136 c 0,0 4.96274,0.62034 7.4441,0.62034 2.48137,0 6.82376,-0.62034 6.82376,-0.62034 l -0.62034,-9.30512 -3.72205,-6.20342 1.86102,-4.96273 -1.24068,-6.20342 -7.4441,-5.58307 -6.82376,0 2.48137,-5.58308 -3.72205,-6.20341 -11.78649,0.62034 -0.62034,-3.10171 -0.62034,-8.06444 -2.48137,-3.10171 -14.26786,-2.48136 -12.40683,-3.10171 z"
     id="area_5"
     inkscape:connector-curvature="0"
     inkscape:label="#path3001" />
  <path
     style="fill:none;stroke:#000000;stroke-width:1px;stroke-linecap:butt;stroke-linejoin:miter;stroke-opacity:1"
     d="m 277.2927,348.1382 13.64752,13.02717 14.8882,8.68479 c 0,0 13.02717,-1.24069 15.50854,-1.24069 2.48136,0 7.4441,1.24069 7.4441,1.24069 l 6.20341,5.58307 6.20342,8.06444 14.26786,3.10171 13.64751,-1.86103 13.02718,-4.34239 14.88819,-9.30512 3.72205,-14.8882 -1.24068,-11.16615 -5.58307,-5.58307 -3.10171,-8.68479 -11.78649,-8.06444 -11.16615,-7.4441 -0.62034,-1.24068 -13.64752,0.62034 -13.02717,-1.24068 -9.30513,2.48136 -9.30512,0.62035 -7.4441,0 -11.78649,-1.86103 -6.20342,0 -5.58307,5.58308 -5.58308,0 -5.58307,4.96273 -4.96273,1.86102 -2.48137,3.10171 1.86102,12.40683 z"
     id="area_6"
     inkscape:connector-curvature="0"
     inkscape:label="#path3003" />
  <path
     style="fill:none;stroke:#000000;stroke-width:1px;stroke-linecap:butt;stroke-linejoin:miter;stroke-opacity:1"
     d="m 246.89596,358.06366 -8.68478,8.06445 0.62034,9.30512 -0.62034,8.68478 5.58307,10.54581 6.82376,6.20342 8.06444,11.78649 13.02718,9.92546 9.30512,11.78649 8.06444,9.30513 16.74923,2.48136 13.64751,-8.68478 8.68478,-6.20341 1.24069,-13.64752 -6.20342,-6.82376 -10.54581,-18.61025 -24.81366,-25.434 -15.50854,-10.54581 -8.68478,-5.58307 -9.30513,4.34239 z"
     id="area_7"
     inkscape:connector-curvature="0"
     inkscape:label="#path3005" />
  <path
     style="fill:none;stroke:#000000;stroke-width:1px;stroke-linecap:butt;stroke-linejoin:miter;stroke-opacity:1"
     d="m 182.38043,394.04348 -8.06444,5.58307 -7.4441,13.64752 1.86103,17.98991 1.24068,11.78649 7.4441,8.06444 c 0,0 4.96273,6.82375 7.4441,8.06444 2.48137,1.24068 13.02718,8.68478 13.02718,8.68478 l 10.5458,0 13.02718,-6.82376 6.82375,-8.06444 10.54581,-13.64751 0.62034,-8.06444 -3.72205,-14.26786 -7.4441,-20.47128 -5.58307,-13.64751 -19.85093,1.86102 -12.40683,4.96274 z"
     id="area_8"
     inkscape:connector-curvature="0"
     inkscape:label="#path3007"
     sodipodi:nodetypes="ccccccscccccccccccc" />
  <path
     style="fill:none;stroke:#000000;stroke-width:1px;stroke-linecap:butt;stroke-linejoin:miter;stroke-opacity:1"
     d="m 106.69876,358.06366 -1.24068,8.68479 4.96273,3.10171 c 0,0 3.10171,7.44409 6.20341,9.92546 3.10171,2.48137 10.54581,6.20342 10.54581,6.20342 l 8.68478,3.10171 18.61025,4.96273 11.78649,0.62034 13.02718,-0.62034 8.06444,-6.82376 12.40683,-3.10171 14.8882,-3.10171 4.34239,-4.34239 5.58307,-14.8882 -9.30512,-13.64751 -14.26786,-5.58308 -13.64751,3.72205 c 0,0 -6.82376,2.48137 -11.16615,3.10171 -4.34239,0.62034 -13.02718,2.48137 -13.02718,2.48137 0,0 -8.68478,1.24068 -13.64751,0.62034 -4.96273,-0.62034 -9.30512,-1.86102 -14.26786,-3.10171 -4.96273,-1.24068 -11.78649,-2.48136 -11.78649,-2.48136 0,0 -4.34239,-1.24069 -6.20341,1.24068 -1.86103,2.48136 -6.20342,4.96273 -6.20342,4.96273 z"
     id="area_9"
     inkscape:connector-curvature="0"
     sodipodi:nodetypes="cccscccccccccccccscsscscc"
     inkscape:label="#path3009" />
  <path
     style="fill:none;stroke:#000000;stroke-width:1px;stroke-linecap:butt;stroke-linejoin:miter;stroke-opacity:1"
     d="m 113.52252,325.18556 17.9899,0 12.40683,0 9.92547,-4.34239 7.4441,0.62034 1.86102,6.82376 -1.86102,6.20341 1.24068,5.58308 6.82376,4.96273 11.16615,0 12.40683,-6.20342 6.20342,-3.1017 -1.86103,-10.54581 -1.86102,-6.82376 10.54581,-5.58307 6.82375,-4.96274 0,3.72205 0,6.82376 5.58308,6.82376 8.68478,-1.86103 8.68478,-9.30512 8.68479,-5.58307 3.72205,-1.86103 -7.4441,-14.8882 9.30512,2.48137 17.36957,1.86102 13.64751,-6.82375 3.72205,-11.16615 -2.48136,-13.64752 -4.3424,-5.58307 -9.92546,0 -5.58308,6.82375 -4.34239,2.48137 -3.10171,-7.4441 -13.02717,-1.24068 -3.72205,0 -10.54581,-7.4441 -6.20341,1.86102 -2.48137,-6.20341 -7.4441,0 -6.20342,6.20341 -8.06444,-2.48136 -4.34239,-3.10171 -4.96273,5.58307 -2.48137,7.4441 -9.30512,0 -5.58308,1.24069 -4.34239,7.4441 -3.10171,8.06444 -6.20341,3.72205 -1.86103,9.92546 -11.16615,2.48137 -18.61024,-1.86103 -6.20342,3.72205 -5.58307,4.34239 -2.48137,9.30513 -3.10171,7.4441 z"
     id="area_4"
     inkscape:connector-curvature="0"
     inkscape:label="#path3013" />
  <text
     xml:space="preserve"
     style="font-size:40px;font-style:normal;font-weight:normal;line-height:125%;letter-spacing:0px;word-spacing:0px;fill:#000000;fill-opacity:1;stroke:none;font-family:Sans"
     x="130.27174"
     y="61.540371"
     id="navigation"
     sodipodi:linespacing="125%"
     inkscape:label="#text3015"><tspan
       sodipodi:role="line"
       id="tspan3017"
       x="130.27174"
       y="61.540371">1 2 3 4 5 6 9 7 8</tspan></text>
</svg>
