<?xml version="1.0" encoding="UTF-8" standalone="no"?>
<!-- Created with Inkscape (http://www.inkscape.org/) -->

<svg
   xmlns:dc="http://purl.org/dc/elements/1.1/"
   xmlns:cc="http://creativecommons.org/ns#"
   xmlns:rdf="http://www.w3.org/1999/02/22-rdf-syntax-ns#"
   xmlns:svg="http://www.w3.org/2000/svg"
   xmlns="http://www.w3.org/2000/svg"
   xmlns:xlink="http://www.w3.org/1999/xlink"
   xmlns:sodipodi="http://sodipodi.sourceforge.net/DTD/sodipodi-0.dtd"
   xmlns:inkscape="http://www.inkscape.org/namespaces/inkscape"
   id="svg2"
   version="1.1"
   inkscape:version="0.48.2 r9819"
   width="3000"
   height="2000"
   sodipodi:docname="Gtwfk.jpg">
  <metadata
     id="metadata8">
    <rdf:RDF>
      <cc:Work
         rdf:about="">
        <dc:format>image/svg+xml</dc:format>
        <dc:type
           rdf:resource="http://purl.org/dc/dcmitype/StillImage" />
        <dc:title></dc:title>
      </cc:Work>
    </rdf:RDF>
  </metadata>
  <defs
     id="defs6" />
  <sodipodi:namedview
     pagecolor="#ffffff"
     bordercolor="#666666"
     borderopacity="1"
     objecttolerance="10"
     gridtolerance="10"
     guidetolerance="10"
     inkscape:pageopacity="0"
     inkscape:pageshadow="2"
     inkscape:window-width="1680"
     inkscape:window-height="988"
     id="namedview4"
     showgrid="false"
     inkscape:zoom="0.42933333"
     inkscape:cx="1300.7434"
     inkscape:cy="1991.6823"
     inkscape:window-x="-8"
     inkscape:window-y="-8"
     inkscape:window-maximized="1"
     inkscape:current-layer="svg2" />
  <image
     width="3000"
     height="2000"
     xlink:href="file:///F:/09/Gtwfk.jpg"
     id="image10"
     x="0"
     y="0" />
  <path
     style="fill:none;stroke:#000000;stroke-width:1px;stroke-linecap:butt;stroke-linejoin:miter;stroke-opacity:1"
     d="m 752.32919,427.79503 -48.91304,58.22981 0,41.92547 4.65838,20.96273 65.2174,-18.63354 23.29192,20.96273 32.6087,34.93789 16.30435,13.97516 333.0745,9.31677 c 0,0 267.8572,-13.97516 277.1739,-6.98758 9.3168,6.98758 151.3976,-11.64596 151.3976,-11.64596 l 32.6087,-30.27951 9.3167,27.95032 4.6584,23.29192 39.5963,-2.32919 23.2919,-16.30435 -4.6584,-41.92547 -2.3292,-27.95031 -32.6087,2.3292 -16.3043,6.98757 -23.2919,-18.63354 -20.9628,-27.95031 -221.2733,-9.31677 -447.20493,-6.98757 -118.78882,0 -25.62112,39.59627 -20.96273,-11.64596 2.32919,-39.59628 -11.64596,-25.62112 z"
     id="area_1"
     inkscape:connector-curvature="0"
     inkscape:label="#path2987" />
  <path
     style="fill:none;stroke:#000000;stroke-width:1px;stroke-linecap:butt;stroke-linejoin:miter;stroke-opacity:1"
     d="m 1805.1242,451.08695 11.646,41.92547 4.6584,20.96273 -6.9876,34.93789 0,44.25466 25.6211,11.64596 100.1553,-9.31677 291.1491,-11.64596 32.6087,2.32919 23.2919,25.62112 6.9876,-72.20497 27.9503,-53.57143 16.3043,-16.30434 -25.6211,-23.29193 -83.8509,11.64596 -321.4286,9.31677 L 1875,455.74534 z"
     id="area_2"
     inkscape:connector-curvature="0"
     inkscape:label="#path2991" />
  <path
     style="fill:none;stroke:#000000;stroke-width:1px;stroke-linecap:butt;stroke-linejoin:miter;stroke-opacity:1"
     d="m 759.31677,697.98137 c 0,9.31677 0,51.24223 0,51.24223 l -6.98758,55.90062 -11.64596,74.53416 -9.31677,46.58385 72.20497,0 130.43478,-4.65838 433.22979,-18.63354 88.5093,-16.30435 37.2671,16.30435 25.6211,6.98758 58.2299,-53.57143 6.9875,-90.83851 -18.6335,-86.18013 -32.6087,27.95032 -363.354,6.98757 -204.96898,-4.65838 -67.54659,-2.32919 -51.24223,18.63354 z"
     id="area_3"
     inkscape:connector-curvature="0"
     inkscape:label="#path2993" />
  <path
     style="fill:none;stroke:#000000;stroke-width:1px;stroke-linecap:butt;stroke-linejoin:miter;stroke-opacity:1"
     d="m 1660.7143,679.34782 13.9751,76.86336 -2.3291,76.86335 2.3291,81.52174 30.2795,9.31677 319.0994,-6.98758 258.5404,-16.30434 48.913,16.30434 16.3044,2.3292 44.2546,-18.63354 -44.2546,-165.37267 13.9751,-55.90063 -88.5093,18.63355 -246.8944,11.64596 -160.7143,-11.64596 -93.1677,0 z"
     id="area_4"
     inkscape:connector-curvature="0"
     inkscape:label="#path2995" />
  <path
     style="fill:none;stroke:#000000;stroke-width:1px;stroke-linecap:butt;stroke-linejoin:miter;stroke-opacity:1"
     d="m 733.69565,1049.6894 9.31677,30.2795 0,34.9379 c 0,0 -20.96273,65.2174 -4.65838,65.2174 16.30435,0 102.48447,-11.6459 102.48447,-11.6459 l 151.39752,-6.9876 368.01237,-13.9752 125.7764,0 55.9007,4.6584 72.2049,-20.9627 -25.6211,-123.4472 -23.2919,-11.64599 -41.9255,34.93789 -202.6397,2.3292 -349.37891,20.9627 -121.11801,0 -30.2795,-11.6459 z"
     id="area_5"
     inkscape:connector-curvature="0"
     inkscape:label="#path2997" />
  <path
     style="fill:none;stroke:#000000;stroke-width:1px;stroke-linecap:butt;stroke-linejoin:miter;stroke-opacity:1"
     d="m 1781.8323,991.45963 -16.3043,41.92547 11.6459,79.1925 0,44.2547 c 0,0 27.9503,-20.9627 41.9255,-23.2919 13.9751,-2.3292 104.8136,2.3292 104.8136,2.3292 l 81.5218,-16.3044 48.913,9.3168 27.9503,-6.9876 6.9876,-27.9503 -4.6584,-53.5714 c 0,0 0,-100.15531 -11.6459,-93.16773 -11.646,6.98758 -58.2298,53.57143 -58.2298,53.57143 l -74.5342,18.6335 -121.118,9.3168 z"
     id="area_6"
     inkscape:connector-curvature="0"
     inkscape:label="#path2999" />
  <text
     xml:space="preserve"
     style="font-size:40px;font-style:normal;font-weight:normal;line-height:125%;letter-spacing:0px;word-spacing:0px;fill:#000000;fill-opacity:1;stroke:none;font-family:Sans"
     x="763.97516"
     y="176.24223"
     id="text3001"
     sodipodi:linespacing="125%"><tspan
       sodipodi:role="line"
       id="tspan3003"></tspan></text>
  <text
     xml:space="preserve"
     style="font-size:144px;font-style:normal;font-weight:normal;line-height:125%;letter-spacing:0px;word-spacing:0px;fill:#000000;fill-opacity:1;stroke:none;font-family:Sans"
     x="843.16772"
     y="250.7764"
     id="navigation"
     sodipodi:linespacing="125%"
     inkscape:label="#text3005"><tspan
       sodipodi:role="line"
       id="tspan3007"
       x="843.16772"
       y="250.7764">1 2 3 4 5 6</tspan></text>
</svg>
