<?xml version="1.0" encoding="UTF-8" standalone="no"?>
<!-- Created with Inkscape (http://www.inkscape.org/) -->

<svg
   xmlns:dc="http://purl.org/dc/elements/1.1/"
   xmlns:cc="http://creativecommons.org/ns#"
   xmlns:rdf="http://www.w3.org/1999/02/22-rdf-syntax-ns#"
   xmlns:svg="http://www.w3.org/2000/svg"
   xmlns="http://www.w3.org/2000/svg"
   xmlns:xlink="http://www.w3.org/1999/xlink"
   xmlns:sodipodi="http://sodipodi.sourceforge.net/DTD/sodipodi-0.dtd"
   xmlns:inkscape="http://www.inkscape.org/namespaces/inkscape"
   id="svg2"
   version="1.1"
   inkscape:version="0.48.2 r9819"
   width="799"
   height="533"
   sodipodi:docname="Gwaf.jpg">
  <metadata
     id="metadata8">
    <rdf:RDF>
      <cc:Work
         rdf:about="">
        <dc:format>image/svg+xml</dc:format>
        <dc:type
           rdf:resource="http://purl.org/dc/dcmitype/StillImage" />
        <dc:title></dc:title>
      </cc:Work>
    </rdf:RDF>
  </metadata>
  <defs
     id="defs6" />
  <sodipodi:namedview
     pagecolor="#ffffff"
     bordercolor="#666666"
     borderopacity="1"
     objecttolerance="10"
     gridtolerance="10"
     guidetolerance="10"
     inkscape:pageopacity="0"
     inkscape:pageshadow="2"
     inkscape:window-width="1680"
     inkscape:window-height="988"
     id="namedview4"
     showgrid="false"
     inkscape:zoom="1.612015"
     inkscape:cx="413.46992"
     inkscape:cy="357.4428"
     inkscape:window-x="-8"
     inkscape:window-y="-8"
     inkscape:window-maximized="1"
     inkscape:current-layer="svg2" />
  <image
     width="799"
     height="533"
     xlink:href="file:///F:/09/Gwaf.jpg"
     id="image10"
     x="0"
     y="0" />
  <path
     style="fill:none;stroke:#000000;stroke-width:1px;stroke-linecap:butt;stroke-linejoin:miter;stroke-opacity:1"
     d="m 313.27252,125.43556 -14.26786,18.61025 -9.92547,17.9899 -11.16615,21.09162 -7.4441,15.50854 7.4441,24.81366 17.36957,5.58308 9.30512,2.48136 16.12889,-13.02717 18.61024,-9.92546 8.68479,1.24068 4.96273,-9.92547 29.15606,-12.40683 16.12888,-17.36957 10.5458,-9.92546 -6.82375,-16.12888 -9.30513,-8.06444 -18.61025,-3.10171 -26.67469,-7.4441 -24.19332,-2.48137 z"
     id="area_2"
     inkscape:connector-curvature="0"
     inkscape:label="#path2987" />
  <path
     style="fill:none;stroke:#000000;stroke-width:1px;stroke-linecap:butt;stroke-linejoin:miter;stroke-opacity:1"
     d="m 452.84938,167.61879 35.97981,-3.72205 16.12889,-5.58308 9.30512,1.86103 17.98991,19.85093 15.50854,52.1087 6.82375,3.72205 -0.62034,16.12888 -0.62034,28.53571 -34.11879,10.54581 -49.00699,11.16615 -29.15605,-1.86103 -9.92547,0.62035 -13.02717,-13.64752 -19.85093,-58.31211 -2.48137,-28.53572 0.62034,-21.09161 11.16615,-4.96273 32.87811,-5.58308 z"
     id="area_1"
     inkscape:connector-curvature="0"
     inkscape:label="#path2989" />
  <path
     style="fill:none;stroke:#000000;stroke-width:1px;stroke-linecap:butt;stroke-linejoin:miter;stroke-opacity:1"
     d="m 300.24534,261.29037 7.4441,17.98991 17.98991,11.16615 12.40683,3.72205 21.09162,-3.72205 23.57298,-9.92547 11.78649,-18.61025 -1.86103,-18.61024 -16.74922,-22.3323 -21.09162,-7.4441 -17.36956,-1.86103 -22.95264,13.64752 -10.54581,10.54581 -4.34239,12.40683 z"
     id="area_3"
     inkscape:connector-curvature="0"
     inkscape:label="#path2991" />
  <path
     sodipodi:type="inkscape:offset"
     inkscape:radius="0"
     inkscape:original="M 260.53125 252 L 251.84375 253.84375 L 238.21875 264.40625 L 232.625 273.0625 L 233.875 285.46875 L 239.4375 296.03125 L 268.59375 325.1875 L 281.625 337.59375 L 297.75 341.3125 L 308.9375 338.21875 L 324.4375 325.1875 L 329.40625 312.15625 L 320.71875 294.78125 L 291.5625 268.125 L 272.34375 252.59375 L 260.53125 252 z "
     style="fill:none;stroke:#000000;stroke-width:1px;stroke-linecap:butt;stroke-linejoin:miter;stroke-opacity:1"
     id="area_5"
     d="m 260.53125,252 -8.6875,1.84375 -13.625,10.5625 -5.59375,8.65625 1.25,12.40625 5.5625,10.5625 29.15625,29.15625 13.03125,12.40625 16.125,3.71875 11.1875,-3.09375 15.5,-13.03125 4.96875,-13.03125 -8.6875,-17.375 L 291.5625,268.125 272.34375,252.59375 260.53125,252 z"
     inkscape:label="#path2995" />
  <path
     style="fill:none;stroke:#000000;stroke-width:1px;stroke-linecap:butt;stroke-linejoin:miter;stroke-opacity:1"
     d="m 393.29658,289.20575 -6.82375,21.71195 -12.40684,8.06444 -14.26785,5.58308 -3.10171,15.50854 15.50854,8.68478 13.64751,6.20342 3.10171,15.50854 8.68479,9.30512 11.16614,-1.24068 12.40684,-6.82376 10.5458,-8.06444 c 0,0 11.7865,3.72205 14.26786,2.48137 2.48137,-1.24069 16.12888,-3.10171 16.12888,-3.10171 l 3.72205,-8.06444 -5.58307,-15.50854 -6.82376,-4.96274 12.40683,-14.8882 0.62034,-12.40683 -4.34239,-3.10171 -29.15605,-2.48136 -6.82376,1.24068 -13.64752,-13.64751 -11.16614,-2.48137 z"
     id="area_4"
     inkscape:connector-curvature="0"
     inkscape:label="#path2997" />
  <text
     xml:space="preserve"
     style="font-size:36px;font-style:normal;font-weight:normal;line-height:125%;letter-spacing:0px;word-spacing:0px;fill:#000000;fill-opacity:1;stroke:none;font-family:Sans"
     x="256.82144"
     y="76.428574"
     id="navigation"
     sodipodi:linespacing="125%"
     inkscape:label="#text2999"><tspan
       sodipodi:role="line"
       id="tspan3001"
       x="256.82144"
       y="76.428574">2 1 3 5 4</tspan></text>
</svg>
