<?xml version="1.0" encoding="UTF-8" standalone="no"?>
<!-- Created with Inkscape (http://www.inkscape.org/) -->

<svg
   xmlns:dc="http://purl.org/dc/elements/1.1/"
   xmlns:cc="http://creativecommons.org/ns#"
   xmlns:rdf="http://www.w3.org/1999/02/22-rdf-syntax-ns#"
   xmlns:svg="http://www.w3.org/2000/svg"
   xmlns="http://www.w3.org/2000/svg"
   xmlns:xlink="http://www.w3.org/1999/xlink"
   xmlns:sodipodi="http://sodipodi.sourceforge.net/DTD/sodipodi-0.dtd"
   xmlns:inkscape="http://www.inkscape.org/namespaces/inkscape"
   id="svg2"
   version="1.1"
   inkscape:version="0.48.2 r9819"
   width="3000"
   height="2000"
   sodipodi:docname="Gwalk.jpg">
  <metadata
     id="metadata8">
    <rdf:RDF>
      <cc:Work
         rdf:about="">
        <dc:format>image/svg+xml</dc:format>
        <dc:type
           rdf:resource="http://purl.org/dc/dcmitype/StillImage" />
        <dc:title></dc:title>
      </cc:Work>
    </rdf:RDF>
  </metadata>
  <defs
     id="defs6" />
  <sodipodi:namedview
     pagecolor="#ffffff"
     bordercolor="#666666"
     borderopacity="1"
     objecttolerance="10"
     gridtolerance="10"
     guidetolerance="10"
     inkscape:pageopacity="0"
     inkscape:pageshadow="2"
     inkscape:window-width="1680"
     inkscape:window-height="988"
     id="namedview4"
     showgrid="false"
     inkscape:zoom="0.42933333"
     inkscape:cx="1778.7595"
     inkscape:cy="1224.8472"
     inkscape:window-x="-8"
     inkscape:window-y="-8"
     inkscape:window-maximized="1"
     inkscape:current-layer="svg2" />
  <image
     width="3000"
     height="2000"
     xlink:href="file:///F:/09/Gwalk.jpg"
     id="image10"
     x="0"
     y="0" />
  <path
     style="fill:none;stroke:#000000;stroke-width:1px;stroke-linecap:butt;stroke-linejoin:miter;stroke-opacity:1"
     d="m 458.85093,362.57764 6.98758,149.06832 6.98758,95.4969 -18.63354,90.83851 18.63354,116.45962 -34.93789,97.82609 -34.93789,107.14282 -46.58385,128.1056 -11.64596,74.5342 c 0,0 102.48447,-25.6211 114.13043,-23.2919 11.64596,2.3292 90.83851,-18.6336 90.83851,-18.6336 l 46.58385,-13.9751 c 0,0 25.62112,13.9751 34.93789,18.6335 9.31677,4.6584 121.11801,9.3168 121.11801,9.3168 l 121.11802,-6.9876 62.88819,30.2795 c 0,0 81.5217,11.646 90.8385,13.9752 9.3168,2.3292 76.8634,13.9751 88.5093,13.9751 11.646,0 60.559,-2.3292 60.559,-2.3292 l -4.6583,-128.1056 -16.3044,-167.70183 16.3044,-286.49069 23.2919,-165.37267 18.6335,-125.77639 -41.9254,9.31677 c 0,0 -34.9379,-4.65839 -51.2423,-4.65839 -16.3043,0 -67.5466,0 -67.5466,0 l -62.88817,2.32919 -135.09316,-9.31677 -74.53417,-20.96273 -107.14285,2.32919 -74.53416,16.30435 -55.90063,-4.65838 -23.29192,-9.31677 -44.25466,6.98757 z"
     id="area_1"
     inkscape:connector-curvature="0"
     inkscape:label="#path2987" />
  <path
     style="fill:none;stroke:#000000;stroke-width:1px;stroke-linecap:butt;stroke-linejoin:miter;stroke-opacity:1"
     d="m 1241.4596,390.52795 165.3727,-4.65839 69.8758,4.65839 67.5466,18.63354 93.1677,4.65838 111.8012,-13.97515 83.8509,-6.98758 48.9131,25.62112 -46.5839,30.2795 -6.9875,135.09317 6.9875,167.70186 16.3044,172.36025 0,74.53416 -6.9876,86.1801 34.9379,39.5963 9.3168,9.3168 -93.1677,-6.9876 -88.5094,-9.3168 -55.9006,4.6584 -86.1801,-4.6584 -69.8758,-44.2546 -16.3043,32.6087 -107.1429,18.6335 -151.3975,20.9627 -44.2547,-34.9379 39.5963,-48.913 11.646,-195.65217 11.6459,-190.99379 18.6336,-116.45963 -4.6584,-93.1677 -30.2795,-16.30435 -11.646,-46.58385 z"
     id="area_2"
     inkscape:connector-curvature="0"
     inkscape:label="#path2989" />
  <path
     style="fill:none;stroke:#000000;stroke-width:1px;stroke-linecap:butt;stroke-linejoin:miter;stroke-opacity:1"
     d="M 1972.8261,493.01242 2310.559,467.3913 c 0,0 160.7143,-13.97515 177.0186,-16.30435 16.3044,-2.32919 62.8882,2.3292 62.8882,2.3292 l -13.9751,69.87577 6.9876,118.78882 -2.3292,93.16771 30.2795,184.00621 4.6584,51.24223 51.2422,53.57141 23.2919,27.9503 4.6584,41.9255 -253.882,27.9503 -351.7081,16.3044 -137.4223,9.3167 -18.6336,-6.9876 6.9876,-39.5962 9.3168,-76.8634 2.3292,-242.236 -6.9876,-179.34783 -9.3168,-46.58385 -48.913,-55.90062 62.8882,-9.31677 z"
     id="area_3"
     inkscape:connector-curvature="0"
     sodipodi:nodetypes="ccsccccccccccccccccccccc"
     inkscape:label="#path2991" />
  <text
     xml:space="preserve"
     style="font-size:144px;font-style:normal;font-weight:normal;line-height:125%;letter-spacing:0px;word-spacing:0px;fill:#000000;fill-opacity:1;stroke:none;font-family:Sans"
     x="1006.2112"
     y="164.59627"
     id="navigation"
     sodipodi:linespacing="125%"
     inkscape:label="#text2993"><tspan
       sodipodi:role="line"
       id="tspan2995"
       x="1006.2112"
       y="164.59627">1 2 3</tspan></text>
</svg>
