<?xml version="1.0" encoding="UTF-8" standalone="no"?>
<!-- Created with Inkscape (http://www.inkscape.org/) -->

<svg
   xmlns:dc="http://purl.org/dc/elements/1.1/"
   xmlns:cc="http://creativecommons.org/ns#"
   xmlns:rdf="http://www.w3.org/1999/02/22-rdf-syntax-ns#"
   xmlns:svg="http://www.w3.org/2000/svg"
   xmlns="http://www.w3.org/2000/svg"
   xmlns:xlink="http://www.w3.org/1999/xlink"
   xmlns:sodipodi="http://sodipodi.sourceforge.net/DTD/sodipodi-0.dtd"
   xmlns:inkscape="http://www.inkscape.org/namespaces/inkscape"
   id="svg2"
   version="1.1"
   inkscape:version="0.48.2 r9819"
   width="799"
   height="533"
   sodipodi:docname="Gwrp.jpg">
  <metadata
     id="metadata8">
    <rdf:RDF>
      <cc:Work
         rdf:about="">
        <dc:format>image/svg+xml</dc:format>
        <dc:type
           rdf:resource="http://purl.org/dc/dcmitype/StillImage" />
        <dc:title></dc:title>
      </cc:Work>
    </rdf:RDF>
  </metadata>
  <defs
     id="defs6" />
  <sodipodi:namedview
     pagecolor="#ffffff"
     bordercolor="#666666"
     borderopacity="1"
     objecttolerance="10"
     gridtolerance="10"
     guidetolerance="10"
     inkscape:pageopacity="0"
     inkscape:pageshadow="2"
     inkscape:window-width="1680"
     inkscape:window-height="988"
     id="namedview4"
     showgrid="false"
     inkscape:zoom="1.612015"
     inkscape:cx="504.32045"
     inkscape:cy="193.96847"
     inkscape:window-x="-8"
     inkscape:window-y="-8"
     inkscape:window-maximized="1"
     inkscape:current-layer="svg2" />
  <image
     width="799"
     height="533"
     xlink:href="file:///F:/09/Gwrp.jpg"
     id="image10"
     x="0"
     y="0" />
  <path
     style="fill:none;stroke:#000000;stroke-width:1px;stroke-linecap:butt;stroke-linejoin:miter;stroke-opacity:1"
     d="m 55.830745,130.39829 11.786491,24.19332 27.295031,26.05435 27.295033,14.26786 39.70186,11.78649 35.97982,3.72205 30.39673,-3.72205 21.09162,-3.10171 27.29503,-4.96273 33.49845,-12.40683 25.434,-22.3323 17.98991,-31.63742 2.48137,-19.23059 L 353.59472,96.899844 339.94721,79.530279 307.0691,55.336956 285.35714,42.930124 244.4146,30.523291 204.71273,26.1809 168.73292,33.624999 142.05823,42.930124 114.7632,46.031832 85.607143,65.882763 65.13587,87.59472 57.071429,108.68633 z"
     id="area_3"
     inkscape:connector-curvature="0"
     sodipodi:nodetypes="cccccccccccccccccccccccccc"
     inkscape:label="#path2987" />
  <path
     style="fill:none;stroke:#000000;stroke-width:1px;stroke-linecap:butt;stroke-linejoin:miter;stroke-opacity:1"
     d="m 485.10714,134.12034 -22.33229,26.05435 -0.62035,21.71196 0.62035,26.05434 15.50854,24.81367 26.67469,20.47127 39.70186,16.74923 29.7764,6.82375 32.8781,4.34239 40.32221,-3.72205 31.63742,-11.16614 17.36956,-9.30513 17.36957,-19.85093 8.06444,-34.11879 -8.68478,-27.91537 -23.57298,-27.91537 -23.57298,-17.36957 -9.92547,0 -27.91537,-15.50854 -16.74923,0.62034 -35.35947,-12.40683 -19.85093,-4.342393 -31.63742,14.267853 -26.67469,14.8882 z"
     id="area_2"
     inkscape:connector-curvature="0"
     inkscape:label="#path2989" />
  <path
     style="fill:none;stroke:#000000;stroke-width:1px;stroke-linecap:butt;stroke-linejoin:miter;stroke-opacity:1"
     d="m 205.95342,264.39208 29.15605,-9.30512 15.50854,2.48136 15.50854,4.34239 11.78649,-3.72205 30.39674,3.10171 31.01708,12.40683 18.61025,17.98991 19.23059,11.78649 5.58308,13.02718 2.48136,24.19332 -3.72205,32.25776 -8.06444,16.12889 -19.85093,20.47127 -22.95264,14.26786 -21.09161,11.78649 -56.45109,9.92546 -41.56289,-3.10171 -42.80357,-10.5458 -31.63742,-29.15606 -16.12888,-20.47127 -3.10171,-44.04426 5.58307,-21.71195 17.36957,-20.47128 24.81366,-19.85093 19.23059,-6.82376 z"
     id="area_1"
     inkscape:connector-curvature="0"
     inkscape:label="#path2991" />
  <text
     xml:space="preserve"
     style="font-size:36px;font-style:normal;font-weight:normal;line-height:125%;letter-spacing:0px;word-spacing:0px;fill:#000000;fill-opacity:1;stroke:none;font-family:Sans"
     x="370.34393"
     y="60.920033"
     id="navigation"
     sodipodi:linespacing="125%"
     inkscape:label="#text2993"><tspan
       sodipodi:role="line"
       id="tspan2995"
       x="370.34393"
       y="60.920033">3 2 1</tspan></text>
</svg>
