<?xml version="1.0" encoding="UTF-8" standalone="no"?>
<!-- Created with Inkscape (http://www.inkscape.org/) -->

<svg
   xmlns:dc="http://purl.org/dc/elements/1.1/"
   xmlns:cc="http://creativecommons.org/ns#"
   xmlns:rdf="http://www.w3.org/1999/02/22-rdf-syntax-ns#"
   xmlns:svg="http://www.w3.org/2000/svg"
   xmlns="http://www.w3.org/2000/svg"
   xmlns:xlink="http://www.w3.org/1999/xlink"
   xmlns:sodipodi="http://sodipodi.sourceforge.net/DTD/sodipodi-0.dtd"
   xmlns:inkscape="http://www.inkscape.org/namespaces/inkscape"
   id="svg2"
   version="1.1"
   inkscape:version="0.48.2 r9819"
   width="799"
   height="533"
   sodipodi:docname="Gyog.jpg">
  <metadata
     id="metadata8">
    <rdf:RDF>
      <cc:Work
         rdf:about="">
        <dc:format>image/svg+xml</dc:format>
        <dc:type
           rdf:resource="http://purl.org/dc/dcmitype/StillImage" />
        <dc:title></dc:title>
      </cc:Work>
    </rdf:RDF>
  </metadata>
  <defs
     id="defs6" />
  <sodipodi:namedview
     pagecolor="#ffffff"
     bordercolor="#666666"
     borderopacity="1"
     objecttolerance="10"
     gridtolerance="10"
     guidetolerance="10"
     inkscape:pageopacity="0"
     inkscape:pageshadow="2"
     inkscape:window-width="1680"
     inkscape:window-height="988"
     id="namedview4"
     showgrid="false"
     inkscape:zoom="1.612015"
     inkscape:cx="373.53091"
     inkscape:cy="282.41597"
     inkscape:window-x="-8"
     inkscape:window-y="-8"
     inkscape:window-maximized="1"
     inkscape:current-layer="svg2" />
  <image
     width="799"
     height="533"
     xlink:href="file:///F:/09/Gyog.jpg"
     id="image10"
     x="0"
     y="0" />
  <path
     style="fill:none;stroke:#000000;stroke-width:1px;stroke-linecap:butt;stroke-linejoin:miter;stroke-opacity:1"
     d="m 120.34627,262.53106 -8.06444,34.73913 -2.48136,18.61024 8.68478,4.96274 9.30512,-1.24069 6.82376,27.91538 6.20342,8.68478 c 0,0 5.58307,5.58307 8.68478,5.58307 3.10171,0 18.61025,3.72205 18.61025,3.72205 l 11.16615,-3.72205 14.26785,-6.82375 7.4441,-11.16615 -1.24068,-12.40684 -6.20342,-29.15605 3.72205,-31.01708 -1.24068,-9.30513 -6.82376,-3.1017 -21.09161,2.48136 -21.09162,0 -13.64751,-1.24068 -8.06444,-0.62034 z"
     id="area_8"
     inkscape:connector-curvature="0"
     inkscape:label="#path2987" />
  <path
     style="fill:none;stroke:#000000;stroke-width:1px;stroke-linecap:butt;stroke-linejoin:miter;stroke-opacity:1"
     d="m 145.15994,168.85947 -6.20342,14.8882 -9.30512,37.2205 0,11.16615 10.54581,8.68478 8.06444,14.26786 c 0,0 -1.24069,4.34239 3.1017,3.72205 4.3424,-0.62035 18.61025,1.24068 18.61025,1.24068 l 12.40683,-2.48137 11.16615,0 5.58308,7.4441 0.62034,6.20342 10.54581,-0.62034 9.30512,-0.62034 9.30513,-8.68479 1.86102,-17.36956 20.47127,0 1.86103,-6.20342 11.78649,-60.79348 -3.72205,-9.92546 -11.78649,-7.4441 -49.00699,-0.62034 -24.81366,-0.62035 -12.40684,0 -14.26785,5.58308 z"
     id="area_7"
     inkscape:connector-curvature="0"
     sodipodi:nodetypes="ccccccsccccccccccccccccccc"
     inkscape:label="#path2989" />
  <path
     style="fill:none;stroke:#000000;stroke-width:1px;stroke-linecap:butt;stroke-linejoin:miter;stroke-opacity:1"
     d="m 279.15373,257.56832 c 0,0 21.71195,-0.62034 26.05434,-0.62034 4.3424,0 9.30513,0 9.30513,0 l 8.06444,3.10171 4.34239,5.58307 0.62034,46.52562 -1.86102,14.8882 -5.58308,3.72205 -10.5458,3.10171 0,6.82376 -4.96274,11.16615 -14.26785,8.68478 -17.98991,1.86103 -10.54581,-5.58308 -8.06444,-4.96273 -4.96273,-18.61025 -11.78649,0 -8.68479,-4.34239 -6.20341,-6.20342 5.58307,-47.7663 2.48137,-14.26786 9.30512,-6.20342 12.40684,0 16.12888,1.24069 z"
     id="area_9"
     inkscape:connector-curvature="0"
     inkscape:label="#path2991" />
  <path
     style="fill:none;stroke:#000000;stroke-width:1px;stroke-linecap:butt;stroke-linejoin:miter;stroke-opacity:1"
     d="m 356.69643,255.7073 -6.20342,8.06444 -0.62034,36.60015 1.24068,8.06445 8.68479,1.24068 2.48136,30.39674 2.48137,11.16615 c 0,0 3.72205,3.72205 8.06444,4.34239 4.34239,0.62034 22.3323,3.10171 22.3323,3.10171 l 12.40683,-2.48137 6.82376,-5.58307 3.72205,-37.84084 7.4441,-3.10171 2.48136,-14.8882 -1.24068,-31.01708 -6.82376,-6.82376 -33.49844,0.62034 -16.12889,-0.62034 z"
     id="area_10"
     inkscape:connector-curvature="0"
     inkscape:label="#path2993" />
  <path
     style="fill:none;stroke:#000000;stroke-width:1px;stroke-linecap:butt;stroke-linejoin:miter;stroke-opacity:1"
     d="m 456.57143,262.53106 37.84084,0.62034 c 0,0 14.8882,-0.62034 19.23059,0.62034 4.34239,1.24068 10.54581,4.34239 10.54581,4.34239 l 1.86102,20.47127 1.86102,21.09162 -11.16614,9.30512 0,16.12888 -0.62035,13.64752 -6.82375,8.06444 -8.06444,5.58308 -24.19333,0 -15.50854,-6.82376 -6.20342,-10.54581 3.72206,-24.81366 -9.30513,-8.06445 -0.62034,-32.8781 0.62034,-9.30512 z"
     id="area_11"
     inkscape:connector-curvature="0"
     sodipodi:nodetypes="ccscccccccccccccccc"
     inkscape:label="#path2995" />
  <path
     style="fill:none;stroke:#000000;stroke-width:1px;stroke-linecap:butt;stroke-linejoin:miter;stroke-opacity:1"
     d="m 553.96506,256.32764 66.9969,2.48137 49.00698,0.62034 6.82376,4.96273 2.48137,9.92547 -5.58308,8.68478 3.10171,22.3323 1.24069,24.81366 -3.10171,14.26786 -13.02718,9.92546 -14.88819,4.96274 -58.93246,-0.62034 -26.67469,-3.10171 -8.06444,-8.68478 -1.86102,-42.80358 -9.30513,-3.72205 -4.96273,-4.34239 11.78649,-39.70186 z"
     id="area_12"
     inkscape:connector-curvature="0"
     inkscape:label="#path2997" />
  <path
     style="fill:none;stroke:#000000;stroke-width:1px;stroke-linecap:butt;stroke-linejoin:miter;stroke-opacity:1"
     d="m 300.86568,148.3882 -7.4441,53.34938 4.3424,6.82376 6.82375,2.48136 4.34239,3.72205 c 0,0 -3.72205,24.81367 -1.24068,27.29503 2.48137,2.48137 0.62034,9.30513 0.62034,9.30513 l 11.16615,4.34239 9.30513,9.92546 15.50854,1.86103 8.68478,-14.26786 19.23059,-1.86102 4.96273,2.48136 4.34239,-39.70186 9.92547,-6.20342 1.24068,-40.94254 -1.24068,-16.74923 -14.26786,-2.48136 -58.31211,-1.24069 -11.16615,0.62035 z"
     id="area_6"
     inkscape:connector-curvature="0"
     inkscape:label="#path2999" />
  <path
     style="fill:none;stroke:#000000;stroke-width:1px;stroke-linecap:butt;stroke-linejoin:miter;stroke-opacity:1"
     d="m 415.62888,153.35093 0.62034,37.84084 c 0,0 -3.1017,15.50854 -0.62034,16.12888 2.48137,0.62034 11.78649,6.82376 11.78649,6.82376 l -3.1017,31.01708 5.58307,19.85093 14.26786,8.06444 9.30512,-11.16615 27.91537,-1.24068 c 0,0 13.02718,0 15.50854,0 2.48137,0 4.3424,-45.28494 4.3424,-45.28494 l 9.92546,-4.34239 0.62034,-31.63742 -3.10171,-27.29503 -76.92236,-1.86103 z"
     id="area_5"
     inkscape:connector-curvature="0"
     sodipodi:nodetypes="ccsccccccscccccc"
     inkscape:label="#path3001" />
  <path
     style="fill:none;stroke:#000000;stroke-width:1px;stroke-linecap:butt;stroke-linejoin:miter;stroke-opacity:1"
     d="m 549.00233,166.3781 c 3.72205,1.24069 2.48137,35.35948 2.48137,35.35948 l 1.24068,9.30512 3.72205,5.58308 -4.34239,20.47127 -1.24069,16.74922 49.00699,2.48137 21.71196,1.24068 6.20341,-34.73913 15.50855,-1.86102 5.58307,-4.34239 -4.34239,-37.84084 -1.86103,-14.26786 -6.20341,-6.82376 -17.36957,-0.62034 -50.86801,-1.86102 -19.23059,0.62034 z"
     id="area_4"
     inkscape:connector-curvature="0"
     sodipodi:nodetypes="cccccccccccccccccc"
     inkscape:label="#path3003" />
  <path
     style="fill:none;stroke:#000000;stroke-width:1px;stroke-linecap:butt;stroke-linejoin:miter;stroke-opacity:1"
     d="m 230.14674,49.13354 21.09161,-9.305124 23.57299,-2.481367 31.01708,9.305124 20.47127,16.128882 2.48137,11.166149 -1.86103,11.16615 -9.30512,8.064441 1.24068,35.979815 -6.82376,9.92546 -3.72205,5.58308 -10.54581,3.72205 1e-5,7.4441 -0.62034,14.8882 -30.39674,1.86102 -3.72205,-8.06444 -21.09162,-9.92547 -9.30512,-10.5458 -10.54581,-45.284941 -15.50854,-17.989907 2.48136,-11.78649 10.54581,-12.406833 z"
     id="area_1"
     inkscape:connector-curvature="0"
     sodipodi:nodetypes="ccccccccccccccccccccccc"
     inkscape:label="#path3005" />
  <path
     style="fill:none;stroke:#000000;stroke-width:1px;stroke-linecap:butt;stroke-linejoin:miter;stroke-opacity:1"
     d="m 387.09317,58.438664 17.9899,0 17.98991,5.583075 14.8882,10.545807 6.82376,11.786491 -3.72205,17.989903 -8.68478,8.68479 -0.62035,11.16615 -1.86102,21.09161 -4.34239,5.58307 -13.02718,0 1.86103,21.09162 -0.62034,6.20342 -16.12888,1.24068 -4.3424,0 -1.24068,-31.01708 -25.43401,-4.96273 -8.68478,1.86102 -5.58307,-37.2205 -10.54581,-9.305121 0,-16.749224 9.30512,-10.545807 16.74923,-11.166149 z"
     id="area_2"
     inkscape:connector-curvature="0"
     inkscape:label="#path3007" />
  <path
     style="fill:none;stroke:#000000;stroke-width:1px;stroke-linecap:butt;stroke-linejoin:miter;stroke-opacity:1"
     d="m 534.11413,24.319875 53.96972,0 24.19332,1.861025 13.02718,7.444099 9.30512,14.888199 -1.24068,35.359472 -4.96273,53.34938 -2.48137,17.98991 -76.30202,-2.48137 -3.72205,16.74922 -22.3323,1.86103 -11.16615,-1.86103 -1.86102,-19.85093 -31.01708,0 5.58307,-91.190216 9.30513,-18.610248 16.74922,-13.647516 z"
     id="area_3"
     inkscape:connector-curvature="0"
     sodipodi:nodetypes="cccccccccccccccccc"
     inkscape:label="#path3009" />
  <text
     xml:space="preserve"
     style="font-size:36px;font-style:normal;font-weight:normal;line-height:125%;letter-spacing:0px;word-spacing:0px;fill:#000000;fill-opacity:1;stroke:none;font-family:Sans"
     x="236.35016"
     y="444.29114"
     id="navigation"
     sodipodi:linespacing="125%"
     inkscape:label="#text3011"><tspan
       sodipodi:role="line"
       id="tspan3013"
       x="236.35016"
       y="444.29114">1 2 3 7 6 5 4 8 9 10 11 12</tspan></text>
</svg>
