<?xml version="1.0" encoding="UTF-8" standalone="no"?>
<!-- Created with Inkscape (http://www.inkscape.org/) -->

<svg
   xmlns:dc="http://purl.org/dc/elements/1.1/"
   xmlns:cc="http://creativecommons.org/ns#"
   xmlns:rdf="http://www.w3.org/1999/02/22-rdf-syntax-ns#"
   xmlns:svg="http://www.w3.org/2000/svg"
   xmlns="http://www.w3.org/2000/svg"
   xmlns:xlink="http://www.w3.org/1999/xlink"
   xmlns:sodipodi="http://sodipodi.sourceforge.net/DTD/sodipodi-0.dtd"
   xmlns:inkscape="http://www.inkscape.org/namespaces/inkscape"
   width="799"
   height="533"
   id="svg2985"
   version="1.1"
   inkscape:version="0.48.2 r9819"
   sodipodi:docname="New document 2">
  <defs
     id="defs2987" />
  <sodipodi:namedview
     id="base"
     pagecolor="#ffffff"
     bordercolor="#666666"
     borderopacity="1.0"
     inkscape:pageopacity="0.0"
     inkscape:pageshadow="2"
     inkscape:zoom="1.4"
     inkscape:cx="350.90995"
     inkscape:cy="266.71215"
     inkscape:document-units="px"
     inkscape:current-layer="layer1"
     showgrid="false"
     fit-margin-top="0"
     fit-margin-left="0"
     fit-margin-right="0"
     fit-margin-bottom="0"
     inkscape:window-width="1680"
     inkscape:window-height="988"
     inkscape:window-x="-8"
     inkscape:window-y="-8"
     inkscape:window-maximized="1" />
  <metadata
     id="metadata2990">
    <rdf:RDF>
      <cc:Work
         rdf:about="">
        <dc:format>image/svg+xml</dc:format>
        <dc:type
           rdf:resource="http://purl.org/dc/dcmitype/StillImage" />
        <dc:title></dc:title>
      </cc:Work>
    </rdf:RDF>
  </metadata>
  <g
     inkscape:label="Layer 1"
     inkscape:groupmode="layer"
     id="layer1"
     transform="translate(-246.21428,-488.71933)">
    <image
       y="488.71933"
       x="246.21428"
       id="picture"
       xlink:href="file:///F:/10/Gyor.jpg"
       height="533"
       width="799"
       inkscape:label="#image3001" />
    <path
       style="fill:none;stroke:#000000;stroke-width:1px;stroke-linecap:butt;stroke-linejoin:miter;stroke-opacity:1"
       d="m 85,260.85714 -7.857143,26.42857 0.714286,24.28572 10,22.85714 10.714286,20 15.714281,14.28572 20,5.71428 25.71429,-4.28571 27.14286,-9.28572 15,-15 11.42857,-25.71428 0,-31.42857 -10.71429,-17.14286 c 0,0 -9.28571,-12.85714 -12.85714,-17.14286 -3.57143,-4.28571 -26.42857,-12.14286 -26.42857,-12.14286 0,0 -16.42857,-2.14285 -19.28572,-2.14285 -2.85714,0 -21.42857,1.42857 -21.42857,1.42857 l -20,5 z"
       id="area_2"
       inkscape:connector-curvature="0"
       transform="translate(246.21428,488.71933)"
       inkscape:label="#path3004" />
    <path
       style="fill:none;stroke:#000000;stroke-width:1px;stroke-linecap:butt;stroke-linejoin:miter;stroke-opacity:1"
       d="m 295,353 c 10.71429,9.28571 15.71429,20.71429 15.71429,20.71429 l 2.85714,15.71428 0.71428,19.28572 -6.42857,8.57142 -5.71428,13.57143 -15.71429,10 -13.57143,10 -17.14285,0.71429 -31.42858,-4.28572 -17.85714,-10 -15,-33.57142 3.57143,-25 16.42857,-23.57143 25,-11.42857 20,-3.57143 c 0,0 13.57143,0.71428 17.85714,2.14285 C 278.57143,343.71429 295,353 295,353 z"
       id="area_1"
       inkscape:connector-curvature="0"
       transform="translate(246.21428,488.71933)"
       sodipodi:nodetypes="ccccccccccccccccsc"
       inkscape:label="#path3006" />
    <path
       style="fill:none;stroke:#000000;stroke-width:1px;stroke-linecap:butt;stroke-linejoin:miter;stroke-opacity:1"
       d="m 229.28571,270.85715 -0.71428,4.99999 0,12.85715 6.42857,17.85714 7.14286,15.71428 c 0,0 15,10.71429 20,12.85715 5,2.14285 23.57143,7.14285 23.57143,7.14285 l 27.14285,2.85715 c 0,0 26.42857,-11.42857 30,-14.28572 C 346.42857,328 356.42857,317.28571 359.28571,314.42857 362.14286,311.57143 365,285.14286 365,285.14286 L 362.85714,259.42857 354.28571,241.57143 339.28571,228 320,219.42857 297.14286,220.14286 266.42857,223 245,241.57143 230,258.71429 z"
       id="area_3"
       inkscape:connector-curvature="0"
       transform="translate(246.21428,488.71933)"
       sodipodi:nodetypes="cccccsccsscccccccccc"
       inkscape:label="#path3008" />
    <path
       style="fill:none;stroke:#000000;stroke-width:1px;stroke-linecap:butt;stroke-linejoin:miter;stroke-opacity:1"
       d="m 487.14286,255.85714 41.42857,27.85715 18.57143,5 38.57143,5 c 0,0 28.57142,-0.71429 38.57142,-0.71429 10,0 35.71429,-5.71429 35.71429,-5.71429 l 26.42857,-11.42857 31.42857,-25 c 0,0 12.85715,-15 13.57143,-20.71428 0.71429,-5.71429 0.71429,-23.57143 0.71429,-23.57143 l -3.57143,-29.28572 -15,-30 L 682.14286,115.14286 660,99.428571 625,85.142857 l -35.71429,-8.571429 -55,0 L 482.85714,98 l -20,17.14286 -21.42857,31.42857 L 445,183 c 0,0 3.57143,28.57143 6.42857,31.42857 C 454.28571,217.28571 464.28571,233 464.28571,233 z"
       id="area_4"
       inkscape:connector-curvature="0"
       transform="translate(246.21428,488.71933)"
       inkscape:label="#path3010" />
    <text
       xml:space="preserve"
       style="font-size:40px;font-style:normal;font-weight:normal;line-height:125%;letter-spacing:0px;word-spacing:0px;fill:#000000;fill-opacity:1;stroke:none;font-family:Sans"
       x="145.71429"
       y="48.714287"
       id="navigation"
       sodipodi:linespacing="125%"
       transform="translate(246.21428,488.71933)"
       inkscape:label="#text3012"><tspan
         sodipodi:role="line"
         id="tspan3014"
         x="145.71429"
         y="48.714287">2 3 4 1</tspan></text>
  </g>
</svg>
