<?xml version="1.0" encoding="UTF-8" standalone="no"?>
<!-- Created with Inkscape (http://www.inkscape.org/) -->

<svg
   xmlns:dc="http://purl.org/dc/elements/1.1/"
   xmlns:cc="http://creativecommons.org/ns#"
   xmlns:rdf="http://www.w3.org/1999/02/22-rdf-syntax-ns#"
   xmlns:svg="http://www.w3.org/2000/svg"
   xmlns="http://www.w3.org/2000/svg"
   xmlns:xlink="http://www.w3.org/1999/xlink"
   xmlns:sodipodi="http://sodipodi.sourceforge.net/DTD/sodipodi-0.dtd"
   xmlns:inkscape="http://www.inkscape.org/namespaces/inkscape"
   width="1500"
   height="1000"
   id="svg3188"
   version="1.2"
   inkscape:version="0.48.4 r9939"
   sodipodi:docname="gpiz8.svg">
  <defs
     id="defs3190" />
  <sodipodi:namedview
     id="base"
     pagecolor="#ffffff"
     bordercolor="#666666"
     borderopacity="1.0"
     inkscape:pageopacity="0.0"
     inkscape:pageshadow="2"
     inkscape:zoom="0.49497475"
     inkscape:cx="156.70554"
     inkscape:cy="431.5669"
     inkscape:document-units="px"
     inkscape:current-layer="layer1"
     showgrid="false"
     fit-margin-top="0"
     fit-margin-left="0"
     fit-margin-right="0"
     fit-margin-bottom="0"
     inkscape:window-width="1920"
     inkscape:window-height="1017"
     inkscape:window-x="-8"
     inkscape:window-y="-8"
     inkscape:window-maximized="1" />
  <metadata
     id="metadata3193">
    <rdf:RDF>
      <cc:Work
         rdf:about="">
        <dc:format>image/svg+xml</dc:format>
        <dc:type
           rdf:resource="http://purl.org/dc/dcmitype/StillImage" />
        <dc:title />
      </cc:Work>
    </rdf:RDF>
  </metadata>
  <g
     inkscape:label="Layer 1"
     inkscape:groupmode="layer"
     id="layer1"
     transform="translate(121.42857,-186.6479)">
    <image
       y="186.6479"
       x="-121.42857"
       id="qwe"
       xlink:href="file:///T:/SCRAN24/NEW%20PHOTOS%20FOR%20SCRAN/Pizzas/gpiz8.jpg"
       height="1000"
       width="1500"
       inkscape:label="#image3204" />
    <path
       style="fill:none;stroke:#000000;stroke-width:1px;stroke-linecap:butt;stroke-linejoin:miter;stroke-opacity:1"
       d="m 561.64482,620.18264 -16.16245,-11.11168 -19.19289,-7.07106 -32.32489,-13.13199 -46.46701,-39.39595 -27.27412,-33.33503 -14.14214,-34.34519 -8.08122,-10.10152 -3.03045,-20.20305 -4.04061,-43.43656 13.13198,-45.45687 50.50763,-56.56854 35.35533,-25.25381 21.21321,-9.09138 25.25381,-8.08122 16.16244,-8.08121 31.31473,-3.03046 24.24367,-7.07107 15.15228,-9.09138 13.13199,1e-5 13.13198,-5.05077 16.16244,2.02031 8.08121,-4.04061 10.10153,4.04061 14.14214,0 12.12183,-5.05076 16.16244,4.04061 32.32488,3.03045 18.18274,-3.03046 22.22337,4.04061 22.22335,5.05077 22.22336,8.08122 -3.03046,19.1929 -85.86297,142.43151 -90.91373,128.28937 -86.87312,82.83251 z"
       id="area_1"
       inkscape:connector-curvature="0"
       transform="translate(-121.42857,186.6479)"
       sodipodi:nodetypes="ccccccccccccccccccccccccccccccccccccc"
       inkscape:label="#path3207" />
    <path
       style="fill:none;stroke:#000000;stroke-width:1px;stroke-linecap:butt;stroke-linejoin:miter;stroke-opacity:1"
       d="m 601.04076,633.31463 18.18275,-30.30458 9.09138,-14.14214 8.08121,-5.05076 11.11168,-1.01015 46.46702,-49.49748 5.05076,-17.17259 27.27412,-20.20305 8.08122,-15.15229 7.07107,-9.09137 3.03046,-4.04061 2.02031,-12.12183 35.35533,7.07107 141.42136,39.39594 75.76144,11.11168 20.20303,-6.06091 15.1523,5.05076 24.2437,1.01015 19.1929,24.24366 -40.4061,51.51778 -71.72087,44.44672 -97.98479,25.25381 -77.78175,9.09137 -63.63961,3.03046 -92.93403,-15.15229 z"
       id="area_2"
       inkscape:connector-curvature="0"
       transform="translate(-121.42857,186.6479)"
       sodipodi:nodetypes="cccccccccccccccccccccccccc"
       inkscape:label="#path3209" />
    <path
       style="fill:none;stroke:#000000;stroke-width:1px;stroke-linecap:butt;stroke-linejoin:miter;stroke-opacity:1"
       d="m 763.67532,426.23335 15.1523,-29.29442 6.06091,-16.16244 12.12183,-14.14214 15.15229,-17.17259 11.11167,-24.24366 11.11168,-25.25381 12.12184,-17.17259 4.0406,-33.33504 9.09138,-4.04061 12.12183,-23.23351 77.78174,25.25381 55.55841,36.36549 20.203,16.16245 13.132,-1.01016 9.0913,8.08122 -3.0304,8.08122 6.0609,6.06092 -12.1218,17.1726 -75.76142,44.4467 -60.60916,16.16245 -70.71068,17.17259 -57.57869,20.20305 z"
       id="area_3"
       inkscape:connector-curvature="0"
       transform="translate(-121.42857,186.6479)"
       sodipodi:nodetypes="cccccccccccccccccccccccc"
       inkscape:label="#path3211" />
    <text
       xml:space="preserve"
       style="font-size:40px;font-style:normal;font-weight:normal;line-height:125%;letter-spacing:0px;word-spacing:0px;fill:#000000;fill-opacity:1;stroke:none;font-family:Sans"
       x="508.10672"
       y="95.913475"
       id="navigation"
       sodipodi:linespacing="125%"
       transform="translate(-121.42857,186.6479)"
       inkscape:label="#text3213"><tspan
         sodipodi:role="line"
         id="tspan3215"
         x="508.10672"
         y="95.913475">1 2 3</tspan></text>
  </g>
</svg>
