<?xml version="1.0" encoding="UTF-8" standalone="no"?>
<!-- Created with Inkscape (http://www.inkscape.org/) -->

<svg
   xmlns:dc="http://purl.org/dc/elements/1.1/"
   xmlns:cc="http://creativecommons.org/ns#"
   xmlns:rdf="http://www.w3.org/1999/02/22-rdf-syntax-ns#"
   xmlns:svg="http://www.w3.org/2000/svg"
   xmlns="http://www.w3.org/2000/svg"
   xmlns:xlink="http://www.w3.org/1999/xlink"
   xmlns:sodipodi="http://sodipodi.sourceforge.net/DTD/sodipodi-0.dtd"
   xmlns:inkscape="http://www.inkscape.org/namespaces/inkscape"
   width="1500"
   height="1000"
   id="svg3217"
   version="1.2"
   inkscape:version="0.48.4 r9939"
   sodipodi:docname="gpiz9.svg">
  <defs
     id="defs3219" />
  <sodipodi:namedview
     id="base"
     pagecolor="#ffffff"
     bordercolor="#666666"
     borderopacity="1.0"
     inkscape:pageopacity="0.0"
     inkscape:pageshadow="2"
     inkscape:zoom="0.7"
     inkscape:cx="910.37178"
     inkscape:cy="564.21057"
     inkscape:document-units="px"
     inkscape:current-layer="layer1"
     showgrid="false"
     fit-margin-top="0"
     fit-margin-left="0"
     fit-margin-right="0"
     fit-margin-bottom="0"
     inkscape:window-width="765"
     inkscape:window-height="898"
     inkscape:window-x="909"
     inkscape:window-y="40"
     inkscape:window-maximized="0" />
  <metadata
     id="metadata3222">
    <rdf:RDF>
      <cc:Work
         rdf:about="">
        <dc:format>image/svg+xml</dc:format>
        <dc:type
           rdf:resource="http://purl.org/dc/dcmitype/StillImage" />
        <dc:title />
      </cc:Work>
    </rdf:RDF>
  </metadata>
  <g
     inkscape:label="Layer 1"
     inkscape:groupmode="layer"
     id="layer1"
     transform="translate(375,-32.362183)">
    <image
       y="32.362183"
       x="-375"
       id="qwe"
       xlink:href="file:///T:/SCRAN24/NEW%20PHOTOS%20FOR%20SCRAN/Pizzas/gpiz9.jpg"
       height="1000"
       width="1500"
       inkscape:label="#image3233" />
    <path
       style="fill:none;stroke:#000000;stroke-width:1px;stroke-linecap:butt;stroke-linejoin:miter;stroke-opacity:1"
       d="m 557.14286,567.14286 -40,-17.14286 -21.42857,-25.71429 -40,-78.57142 1.42857,-61.42858 21.42857,-35.71428 L 530,310 l 40,-15.71429 35.71429,-7.14285 41.42857,-10 38.57143,4.28571 35.71428,-5.71428 74.28572,17.14285 31.42857,0 24.28571,14.28572 18.57143,15.71428 -24.28571,30 L 712.85714,460 608.57143,547.14286 z"
       id="area_1"
       inkscape:connector-curvature="0"
       transform="translate(-375,32.362183)"
       inkscape:label="#path3236" />
    <path
       style="fill:none;stroke:#000000;stroke-width:1px;stroke-linecap:butt;stroke-linejoin:miter;stroke-opacity:1"
       d="m 554.28571,602.85714 37.14286,-24.28571 31.42857,-15.71429 18.57143,-25.71428 22.85714,-8.57143 L 688.57143,500 715.71428,472.85714 740,468.57143 l 24.28571,14.28572 5.71429,20 95.71429,34.28571 15.71428,-2.85715 11.42857,11.42858 31.42857,1.42857 30,27.14285 -48.57142,51.42858 -58.57143,17.14285 -62.85715,1.42857 -71.42857,-2.85714 -85.71428,-8.57143 z"
       id="area_2"
       inkscape:connector-curvature="0"
       transform="translate(-375,32.362183)"
       sodipodi:nodetypes="ccccccccccccccccccccc"
       inkscape:label="#path3238" />
    <path
       style="fill:none;stroke:#000000;stroke-width:1px;stroke-linecap:butt;stroke-linejoin:miter;stroke-opacity:1"
       d="m 787.14286,427.14286 24.28571,-44.28572 22.85714,-11.42857 10,-20 21.42858,-7.14286 L 882.85714,310 l 24.28572,-17.14286 34.28571,10 11.42857,11.42857 38.57143,25.71429 50.00003,54.28571 -2.8572,14.28572 -121.42854,22.85714 -110,7.14286 z"
       id="area_3"
       inkscape:connector-curvature="0"
       transform="translate(-375,32.362183)"
       inkscape:label="#path3240" />
    <text
       xml:space="preserve"
       style="font-size:40px;font-style:normal;font-weight:normal;line-height:125%;letter-spacing:0px;word-spacing:0px;fill:#000000;fill-opacity:1;stroke:none;font-family:Sans"
       x="562.85712"
       y="94.285713"
       id="navigation"
       sodipodi:linespacing="125%"
       transform="translate(-375,32.362183)"
       inkscape:label="#text3242"><tspan
         sodipodi:role="line"
         id="tspan3244"
         x="562.85712"
         y="94.285713">1 2 3</tspan></text>
  </g>
</svg>
